<?xml version="1.0" encoding="utf-8"?>
<!-- Uploaded to: SVG Repo, www.svgrepo.com, Generator: SVG Repo Mixer Tools -->
<svg width="800px" height="800px" viewBox="0 0 1024 1024" class="icon"  version="1.1" xmlns="http://www.w3.org/2000/svg"><path d="M892.822084 625.433156c0 49.265457-39.93392 89.203027-89.201811 89.203027h-94.20328c-49.260592 0-89.204243-39.937569-89.204243-89.203027V430.150789c0-49.26789 39.943651-89.203027 89.204243-89.203026h94.20328c49.26789 0 89.20181 39.935136 89.201811 89.203026v195.282367z" fill="#FEF5ED" /><path d="M803.620273 724.502897h-94.20328c-54.626956 0-99.069741-44.442785-99.069741-99.069741V430.150789c0-54.628172 44.442785-99.068524 99.069741-99.068524h94.20328c54.62574 0 99.067308 44.441568 99.067309 99.068524v195.282367c0 54.626956-44.441568 99.069741-99.067309 99.069741z m-94.20328-373.689636c-43.747055 0-79.337529 35.590474-79.337529 79.337528v195.282367c0 43.747055 35.590474 79.337529 79.337529 79.337529h94.20328c43.744622 0 79.335096-35.590474 79.335096-79.337529V430.150789c0-43.747055-35.590474-79.337529-79.335096-79.337528h-94.20328z" fill="" /><path d="M709.389018 634.186946v209.436577c0 60.61972-49.140177 109.764763-109.767196 109.764763H296.413755c-60.624585 0-109.767195-49.145043-109.767195-109.764763V593.327413" fill="#FEFDEE" /><path d="M599.621822 963.255H296.413755c-65.966623 0-119.632693-53.66607-119.632693-119.63026V593.327413a9.866714 9.866714 0 0 1 19.732212 0v250.297327c0 55.084289 44.814976 99.899265 99.900481 99.899264h303.208067c55.084289 0 99.900481-44.814976 99.900481-99.899264v-209.436578a9.864282 9.864282 0 0 1 19.72978 0v209.436578c0.001216 65.96419-53.664854 119.63026-119.630261 119.63026z" fill="" /><path d="M186.64656 396.491817v-194.889498c0-60.620936 49.14261-109.767195 109.767195-109.767196h303.208067c60.627018 0 109.767195 49.146259 109.767196 109.767196v365.823753" fill="#FEFDEE" /><path d="M709.389018 577.292786a9.86793 9.86793 0 0 1-9.866715-9.866714V201.602319c0-55.085505-44.816192-99.900481-99.900481-99.900481H296.413755c-55.085505 0-99.900481 44.814976-99.900481 99.900481v194.889498a9.866714 9.866714 0 0 1-19.732212 0v-194.889498c0-65.965406 53.667287-119.632693 119.632693-119.632694h303.208067c65.965406 0 119.63026 53.667287 119.630261 119.632694v365.823753a9.864282 9.864282 0 0 1-9.863065 9.866714z" fill="" /><path d="M186.64656 527.792581v-89.783207" fill="#FEFDEE" /><path d="M186.64656 537.658079a9.866714 9.866714 0 0 1-9.865498-9.865498v-89.783207a9.866714 9.866714 0 1 1 19.732212 0v89.783207a9.866714 9.866714 0 0 1-9.866714 9.865498z" fill="" /><path d="M669.934324 821.771281c0 50.953697-41.303486 92.2584-92.259616 92.2584H322.830812c-50.954913 0-92.2584-41.304703-92.2584-92.2584V282.158591c0-50.952481 41.303486-92.2584 92.2584-92.2584h254.843896c50.95613 0 92.259616 41.304703 92.259616 92.2584v539.61269z" fill="#EFD434" /><path d="M577.674708 189.900191h-65.094528c50.95613 0 92.2584 41.304703 92.2584 92.2584v539.61269c0 50.953697-41.30227 92.2584-92.2584 92.2584h65.094528c50.95613 0 92.259616-41.304703 92.259616-92.2584V282.158591c0-50.953697-41.303486-92.2584-92.259616-92.2584z" fill="#CEB138" /><path d="M329.831897 25.948777c-27.904605 16.035843-47.039608 42.669403-49.400468 74.004005-63.299253-4.769155-117.934723 35.45668-122.032474 89.846455-4.096535 54.386126 43.897877 102.341617 107.198346 107.111989 35.394648 2.663721 68.064759-8.755006 90.720983-28.830218 4.702258 20.950956 23.347088 37.419805 46.819456 39.189538 28.482353 2.145572 53.235496-18.161955 55.28498-45.355018 0.15812-2.088406 0.131362-4.14762 0.020678-6.187373 14.677224-1.492413 27.644315-7.147043 36.759348-15.544454-0.727354 2.90455-1.285641 5.875998-1.520388 8.952048-2.285448 30.363986 21.650334 56.927 53.456864 59.321916 26.639642 2.009346 50.299322-13.611735 58.641999-36.565955 56.051256-2.649125 101.863607-40.35598 105.602546-89.963221 1.944881-25.816199-7.881695-50.138769-25.486579-69.098623a53.754861 53.754861 0 0 0 16.058954-4.246141c23.108691-10.152547 34.989616-33.991025 26.528957-53.251309-8.45701-19.256634-34.049408-26.638425-57.160532-16.485878-19.813705 8.701488-31.323655 27.460652-28.893466 44.769972a131.584164 131.584164 0 0 0-34.685538-8.375517c0.244478-1.262531 0.476794-2.522629 0.575315-3.826514 2.049484-27.191847-28.166112-51.640913-67.483362-54.600197-27.930148-2.104218-52.873036 7.232185-65.756201 22.543107-12.226357-10.4846-27.11157-18.743351-43.781112-23.850641" fill="#FEF5ED" /><path d="M551.67363 318.494663a70.619012 70.619012 0 0 1-5.27879-0.197042c-33.413277-2.51898-59.461792-28.097999-62.445402-59.194204-4.960116 2.217335-10.276611 3.932333-15.827854 5.095127-3.24755 31.798016-32.386711 55.399313-65.72701 52.909525-21.881433-1.650534-41.046845-14.567756-50.614346-32.958377-24.305541 16.825229-55.244842 24.978161-86.924876 22.599057-68.625478-5.170538-120.79427-57.968162-116.296353-117.691461 2.201523-29.219437 17.402977-55.609735 42.804414-74.312948 22.571082-16.616023 50.804091-25.417249 80.418829-25.036544 5.227704-29.691366 24.189992-55.68393 53.13211-72.315766a9.861849 9.861849 0 0 1 13.469427 3.639202 9.86793 9.86793 0 0 1-3.639202 13.470644c-26.232178 15.074958-42.44317 39.200485-44.475625 66.19164l-0.74195 9.837522-9.838739-0.739517c-28.256119-2.150438-55.474725 5.271492-76.626371 20.845137-20.69553 15.236727-33.064196 36.511221-34.825415 59.902096-3.682989 48.877454 40.325572 92.180556 98.100341 96.532517 31.424609 2.365725 61.848194-7.24678 83.43528-26.374486l12.510975-11.084242 3.658663 16.308297c3.85084 17.157282 19.450028 30.117075 37.934305 31.509751 22.995574 1.749055 43.068353-14.53005 44.703075-36.258229 0.109468-1.43768 0.113117-2.994557 0.008514-4.911463l-0.51085-9.398435 9.364377-0.952371c12.306634-1.249151 23.33979-5.862619 31.070663-12.985336l24.250807-22.338766-7.991163 31.986545c-0.676269 2.706292-1.086166 5.095126-1.254016 7.306379-1.874335 24.888154 18.023295 46.754992 44.360075 48.738795 21.602898 1.64202 41.595401-10.746107 48.628111-30.09883l2.244093-6.173994 6.563214-0.310159c51.56915-2.437487 92.94075-37.196004 96.228439-80.85062 1.66513-22.071178-6.46226-43.964774-22.876376-61.642637l-13.447534-14.482614 19.654368-2.044619a43.851658 43.851658 0 0 0 13.113048-3.466486c18.091409-7.947376 27.720942-26.003511 21.463023-40.248945-2.891171-6.585107-8.853527-11.471028-16.787523-13.760125-8.584722-2.477625-18.305479-1.648101-27.374294 2.337749-15.235511 6.690926-24.947753 21.144349-23.08923 34.364433l2.348696 16.723059-15.722035-6.16548a121.710152 121.710152 0 0 0-32.083849-7.746685l-10.732728-1.094679 2.049484-10.592852c0.187312-0.976698 0.362461-1.916906 0.420844-2.691696 0.739517-9.827792-4.441967-19.763836-14.596948-27.977584-11.201007-9.063949-26.752759-14.761149-43.787193-16.043141-23.658464-1.789193-46.22468 5.694768-57.467042 19.055943l-6.411175 7.621404-7.560588-6.482937c-11.367642-9.747516-25.285888-17.3227-40.250161-21.904543a9.869147 9.869147 0 0 1-6.542537-12.326095c1.597016-5.208243 7.117852-8.128606 12.323663-6.543753 14.521536 4.450482 28.233009 11.327504 40.135827 20.088591 16.189098-13.921895 40.999408-21.166243 67.25348-19.186088 20.994743 1.579988 40.426526 8.818254 54.718179 20.381722 13.64336 11.038022 21.292739 24.845583 21.945898 39.358605a142.052952 142.052952 0 0 1 14.869401 3.361883c3.338773-16.839825 16.010301-32.256566 34.242802-40.264756 13.28698-5.837076 27.762297-6.98649 40.779256-3.232955 13.659172 3.940847 24.096336 12.742073 29.382423 24.784768 10.634206 24.205804-3.538248 53.926361-31.594893 66.251239-0.875744 0.384354-1.760002 0.749248-2.651558 1.093464 13.329551 19.228659 19.644638 41.453092 17.950317 63.95971-3.901925 51.750381-50.148499 93.254558-108.730898 98.642815-10.988153 22.608787-34.741489 37.183841-60.811897 37.183841z" fill="" /><path d="M402.870152 11.373723a137.643825 137.643825 0 0 0-5.012418-0.470712c-10.516224-0.791818-20.790403-0.341783-30.636439 1.207797" fill="#FEF5ED" /><path d="M367.209132 21.978738a9.86793 9.86793 0 0 1-9.73292-8.334162 9.864282 9.864282 0 0 1 8.212531-11.280068C376.460393 0.667755 387.532471 0.233532 398.598468 1.063056c1.803789 0.137443 3.592982 0.305294 5.372445 0.504769a9.86793 9.86793 0 0 1 8.705137 10.905443c-0.606939 5.4138-5.48313 9.297481-10.905443 8.705138a126.856364 126.856364 0 0 0-4.653606-0.436656 123.236622 123.236622 0 0 0-28.360722 1.115357c-0.518148 0.081493-1.036297 0.121631-1.547147 0.121631z" fill="" /><path d="M397.946525 410.585212m-39.711335 0a39.711335 39.711335 0 1 0 79.42267 0 39.711335 39.711335 0 1 0-79.42267 0Z" fill="#F6E078" /><path d="M482.548247 370.875093m-39.712551 0a39.712552 39.712552 0 1 0 79.425103 0 39.712552 39.712552 0 1 0-79.425103 0Z" fill="#F6E078" /><path d="M446.290019 714.636183m-21.293955 0a21.293955 21.293955 0 1 0 42.58791 0 21.293955 21.293955 0 1 0-42.58791 0Z" fill="#F6E078" /><path d="M362.261179 646.724679m-24.748278 0a24.748278 24.748278 0 1 0 49.496556 0 24.748278 24.748278 0 1 0-49.496556 0Z" fill="#F6E078" /><path d="M475.640818 605.286182m-32.803906 0a32.803905 32.803905 0 1 0 65.607811 0 32.803905 32.803905 0 1 0-65.607811 0Z" fill="#F6E078" /><path d="M397.944092 519.160422m-24.171746 0a24.171747 24.171747 0 1 0 48.343493 0 24.171747 24.171747 0 1 0-48.343493 0Z" fill="#F6E078" /><path d="M407.98109 800.771673m-17.013757 0a17.013757 17.013757 0 1 0 34.027514 0 17.013757 17.013757 0 1 0-34.027514 0Z" fill="#F6E078" /><path d="M442.836912 834.797971m-17.013757 0a17.013757 17.013757 0 1 0 34.027514 0 17.013757 17.013757 0 1 0-34.027514 0Z" fill="#F6E078" /></svg>