<?xml version="1.0" encoding="utf-8"?>
<!-- Uploaded to: SVG Repo, www.svgrepo.com, Generator: SVG Repo Mixer Tools -->
<svg width="800px" height="800px" viewBox="0 0 1024 1024" class="icon"  version="1.1" xmlns="http://www.w3.org/2000/svg"><path d="M178.509439 475.941246s26.626262-107.323627 82.428175-89.050987c0 0 63.233572-21.700203 71.221086 1.460789 0 0 17.306888 22.842319 10.663398 30.91011 0 0 110.756056-41.091848 121.757588-16.027329 0 0 40.173533 20.780672 32.86837 40.617486 0 0 122.601708-68.266667 133.745549-8.616346 0 0 78.411916 1.817169 67.130632 37.457511 0 0 171.429294-36.047807 149.489477 98.519968 0 0 36.860302 154.692855-226.233831 129.99323 0-0.001216-435.941646-74.754469-443.070444-225.264432z m0 0" fill="#FFB957" /><path d="M186.516414 478.123308s386.105738 259.268836 653.67468 91.933645c0 0 6.176427 24.20702 3.056589 38.109454-0.413546 2.626015-13.306441 143.85066-325.717117 67.491876-71.232033-17.412707-184.58248-52.35732-272.964497-110.314535-0.001216 0-63.154512-41.257266-58.049655-87.22044z m0 0" fill="#E5A251" /><path d="M624.019803 437.949775c-8.91191-1.812303-16.735222 5.815183 6.470774-1.993534m56.249515 40.786554c-8.914343-1.812303 0.576531 1.620126 23.775229-6.189806" fill="#FFFFFF" /><path d="M353.77741 456.140921c1.446194 4.188975-0.156904 8.543368-3.580819 9.725622l-5.370013 1.851225c-3.420266 1.178605-7.370844-1.261314-8.815821-5.450289-1.444977-4.188975 0.160553-8.548233 3.580819-9.726838l5.368796-1.851226c1.644452-0.565585 3.49811-0.311376 5.149861 0.711542 1.655399 1.020485 2.97388 2.72332 3.667177 4.739964z m123.863023 77.629828c1.443761 4.187758-0.155688 8.542152-3.579603 9.724406l-5.372446 1.851225c-3.421483 1.182254-7.37206-1.261314-8.815821-5.450289-0.692081-2.009346-0.706677-4.169514-0.036489-5.995197 0.67262-1.820817 1.974073-3.166057 3.616092-3.734074l5.372445-1.848793c1.645669-0.57045 3.496894-0.311376 5.148644 0.704244 1.652967 1.028999 2.971448 2.734267 3.667178 4.748478z m53.669719-35.505332c1.446194 4.192624-0.155688 8.550666-3.583252 9.73292l-5.363931 1.851225c-3.421483 1.182254-7.369628-1.26618-8.813389-5.453938-1.44741-4.190191 0.155688-8.540935 3.575954-9.723189l5.365148-1.851226c3.427564-1.182254 7.375709 1.257665 8.81947 5.444208z m61.212063-38.094858c1.451059 4.196273-0.15812 8.547017-3.579603 9.729271l-5.370012 1.854874c-3.423915 1.178605-7.369628-1.258882-8.819471-5.453938-1.444977-4.192624 0.162986-8.547017 3.582036-9.729271l5.372445-1.851225c3.420266-1.179822 7.370844 1.257665 8.814605 5.450289z m34.10171 98.850805c1.444977 4.192624-0.159337 8.550666-3.579603 9.729271l-5.372446 1.854874c-3.423915 1.178605-7.37206-1.257665-8.81947-5.453938-1.446194-4.192624 0.160553-8.547017 3.579603-9.726839l5.372445-1.853657c3.420266-1.179822 7.37206 1.261314 8.819471 5.450289z m106.529375-36.745969c1.444977 4.195056-0.152039 8.545801-3.579603 9.729271l-5.36758 1.850009c-3.423915 1.183471-7.374493-1.257665-8.81947-5.453939-1.443761-4.187758 0.159337-8.542152 3.582035-9.725622l5.370013-1.850009c3.426348-1.182254 7.364763 1.257665 8.814605 5.45029z m55.130509-2.03124c1.449843 4.19384-0.155688 8.548233-3.579603 9.726839l-5.372445 1.854874c-3.421483 1.182254-7.364763-1.258882-8.812173-5.453938-1.444977-4.190191 0.155688-8.547017 3.57717-9.72319l5.370013-1.854874c3.427564-1.182254 7.375709 1.262531 8.817038 5.450289z m0 0" fill="#602713" /><path d="M663.677621 717.953063c-17.426087 0-36.023481-0.928045-55.788533-2.781703l-0.513284-0.066897c-1.728378-0.29678-174.416553-30.332362-305.944767-89.250463a6.780933 6.780933 0 1 1 5.542729-12.378396c127.683455 57.194588 294.940802 86.90055 302.445441 88.211733 99.48207 9.308427 169.761731-6.195888 203.317317-44.82349 31.049985-35.743729 21.055558-79.606333 20.953388-80.044205l-0.251776-1.055758 0.08879-1.080084c3.835028-46.023989-9.92753-73.364226-42.074627-83.587319a6.787015 6.787015 0 0 1-4.407911-8.521475 6.789448 6.789448 0 0 1 8.521475-4.407911c38.285819 12.176489 55.62798 44.684831 51.563068 96.624956 1.593367 7.829393 8.910694 52.903443-24.148637 90.965461-30.157213 34.717163-83.618943 52.19555-159.302673 52.195551zM267.769633 608.763615c-1.067921 0-2.15287-0.251776-3.162409-0.785737-21.027583-11.117082-39.475371-22.674468-54.832512-34.357134-0.001216-0.004865-0.002433-0.004865-0.003649-0.004865a283.749525 283.749525 0 0 1-4.033287-3.121054 6.784582 6.784582 0 0 1-1.121439-9.52858 6.790664 6.790664 0 0 1 9.526147-1.123871 250.720602 250.720602 0 0 0 3.847192 2.981178c14.767231 11.23628 32.58497 22.3935 52.956961 33.160284a6.783366 6.783366 0 0 1-3.177004 12.779779z m-80.113535-56.88078a6.760256 6.760256 0 0 1-4.898084-2.090838c-21.99455-22.939624-33.740465-47.105289-34.911773-71.824377-0.007298-24.552452 13.176296-69.965853 41.476203-90.476504 14.634653-10.603799 31.759094-13.420775 49.655893-8.196719 15.589457-5.131616 70.060725-20.839055 79.45916 6.407526l0.180014 0.614237c1.448626 5.976952 6.099799 22.980979 10.158628 29.79232 7.70533 12.93425 42.13301-0.76506 67.266859-10.765568 28.290176-11.254525 50.704353-20.166435 57.627596-5.402853a279.567849 279.567849 0 0 0 9.693998 14.109206A6.784582 6.784582 0 0 1 452.415361 422.059889c-6.180076-8.444847-10.309451-15.025089-10.482168-15.301191l-0.406248-0.745599c-4.848215-2.24531-26.245557 6.273732-40.471529 11.933227-32.953512 13.111832-70.308853 27.9788-83.933968 5.102424-5.603544-9.405732-10.686508-29.45905-11.597524-33.163934-4.321553-10.984504-39.960679-5.39069-64.260139 2.947122l-2.151654 0.7383-2.161384-0.707893c-14.587217-4.776453-27.936229-2.889955-39.668765 5.60841-23.411553 16.967537-35.879956 56.881996-35.879956 79.17211 1.003457 21.026367 11.48684 42.250992 31.14729 62.760428a6.778501 6.778501 0 0 1-0.201907 9.585746 6.739579 6.739579 0 0 1-4.691311 1.893796z m512.546123-62.979363c-8.733112 0-14.629788-1.297804-17.98194-5.559757-1.361052-1.732027-3.370398-5.484346-1.520389-11.13411 0.868446-2.652774 1.626208-6.209267 0.321106-8.112794-2.922795-4.269251-16.028545-4.954034-26.559365-5.507456-18.270206-0.960886-41.007923-2.15287-42.844552-22.020093-0.973049-10.539334-4.973495-12.892896-6.288328-13.665253-10.832465-6.384416-36.810434 5.068368-59.713568 15.162532-28.009208 12.346772-54.456672 24.017275-68.670482 11.859031-3.426348-2.934958-7.116635-6.607001-10.955312-10.918823a6.778501 6.778501 0 0 1 0.553421-9.574799 6.780933 6.780933 0 0 1 9.5748 0.552205c3.434862 3.854489 6.678763 7.094742 9.646561 9.635615 7.729656 6.59727 33.590859-4.801996 54.381262-13.965682 28.404509-12.519488 55.235111-24.34203 72.062773-14.442476 7.500989 4.412776 11.844436 12.524354 12.914789 24.112148 0.703028 7.594645 12.896545 8.817038 30.046529 9.717108 15.599188 0.817361 30.329929 1.593367 37.041532 11.385886 3.348504 4.882272 3.957876 11.12438 1.822034 18.569419 4.704691 0.850201 16.048006-0.040138 25.400221-0.77479 13.313739-1.047244 29.877461-2.348696 46.297659-1.291722a6.783366 6.783366 0 0 1 6.330898 7.206642c-0.24083 3.73894-3.406887 6.589973-7.206642 6.332114-15.444716-1.007105-30.80429 0.211638-44.356426 1.278343-7.974134 0.622751-14.716146 1.156712-20.296581 1.156712z" fill="" /></svg>