<?xml version="1.0" encoding="utf-8"?>
<!-- Uploaded to: SVG Repo, www.svgrepo.com, Generator: SVG Repo Mixer Tools -->
<svg width="800px" height="800px" viewBox="0 0 1024 1024" class="icon"  version="1.1" xmlns="http://www.w3.org/2000/svg"><path d="M133.65972 592.877378c8.188205 28.810757 33.334217 47.781558 100.537828 72.962843l83.993567 272.807593s5.599895 5.596247 16.792388 6.99622c30.79456-2.809678 369.58702 0 369.58702 0s20.999608 4.186542 29.407965-19.587471c8.382815-23.794691 79.804592-279.807462 79.804592-279.807462s100.785955-1.403623 110.577259-88.154566c1.399974-64.346497-807.719241-25.098576-790.700619 34.782843z" fill="#77261C" /><path d="M697.012367 967.487762a27.841357 27.841357 0 0 1-4.563599-0.358812c-15.923943-0.131362-348.836755-2.804813-379.263989-0.021893l-0.706677 0.064464-0.704244-0.08879c-13.366041-1.673644-20.354963-8.314701-21.10786-9.066382l-1.151846-1.151847-29.729071-96.565356a6.555916 6.555916 0 0 1 12.531651-3.859355l28.670881 93.129279c1.745406 1.246719 5.653413 3.529734 11.769024 4.413992 35.914013-2.76954 366.219055-0.076628 380.3684 0.037706l1.224825 0.127712c1.60553 0.289482 16.335056 2.381537 22.813128-15.920293 8.450928-24.00268 81.286059-284.99746 82.02071-287.63199l1.318481-4.715638 4.900517-0.076627c3.892195-0.059599 92.979672-2.376672 106.453964-78.280555-186.576013-15.681897-735.357256 8.847446-786.94465 19.94385 3.072401 32.087498 32.049793 58.622537 86.221848 78.921551l3.016451 1.132385 25.208044 81.871104a6.557132 6.557132 0 0 1-4.336148 8.194287 6.560781 6.560781 0 0 1-8.195503-4.336148l-23.316681-75.7336C143.376828 654.341218 112.439959 622.684294 111.545971 583.405965c-0.047436-2.023941 0.769925-3.927468 2.302476-5.351768 2.612636-2.433838 6.558348-6.107097 108.599537-12.659364 63.301685-4.063695 145.481733-7.913319 231.399504-10.840979 211.752433-7.209075 385.988972-7.016898 466.101291 0.530311l6.649572 0.622752-0.750464 6.637408c-9.292615 82.318707-93.76176 94.512224-115.290463 96.279524-10.056459 36.017399-72.95068 261.023972-81.029417 283.968461-7.018114 19.829517-22.251192 24.895452-32.51564 24.895452z" fill="#040000" /><path d="M256.493743 833.89182a6.555916 6.555916 0 0 1-6.262785-4.626847l-13.053449-42.394517a6.555916 6.555916 0 1 1 12.530436-3.858138l13.053448 42.394517a6.5547 6.5547 0 0 1-6.26765 8.484985z" fill="#040000" /><path d="M361.08067 890.333512c-12.068237 3.687855-24.980594-3.537032-28.838732-16.133149l-52.745323-172.947249c-3.830163-12.591251 2.830356-25.787008 14.903458-29.437157 12.071886-3.695153 24.962349 3.5346 28.783998 16.12585l52.796408 172.955764c3.835028 12.585169-2.82549 25.778494-14.899809 29.435941zM470.960982 894.404504c-12.529219 1.583637-24.029439-7.707762-25.678756-20.777023l-22.80583-179.366939c-1.654183-13.047367 7.138529-24.916129 19.665315-26.521659 12.507325-1.583637 23.999031 7.707762 25.653214 20.777023l22.830156 179.362073c1.652967 13.048584-7.139745 24.927076-19.664099 26.526525zM620.596417 694.260542L597.791803 873.627481c-1.655399 13.069261-13.120346 22.36066-25.655646 20.777023-12.523137-1.599449-21.340175-13.477941-19.667747-26.526525l22.804613-179.362073c1.682158-13.069261 13.153186-22.36066 25.681189-20.777023 12.506109 1.60553 21.319498 13.475509 19.642205 26.521659zM763.602957 701.253114l-52.770866 172.947249c-3.854489 12.591251-16.744952 19.821003-28.818054 16.133149-12.074318-3.657447-18.727539-16.850771-14.899809-29.440806l52.770866-172.950899c3.854489-12.582736 16.743736-19.817354 28.818054-16.12585 12.069453 3.648933 18.728756 16.845906 14.899809 29.437157z" fill="#F1DD81" /><path d="M912.358999 538.279614c-9.147874 30.541567-58.063034 80.935761-123.740175 19.868439-9.172201-6.120477-16.816715-9.168552-35.164765 9.146658-18.327373 18.339536-27.447272 77.31602-109.94721 74.252132-45.842759-3.034696-84.076276-42.173149-102.420677-66.612483-10.687724-15.275649-32.081417-18.318859-45.830595 1.527686-13.743097 19.84168-64.168915 68.698457-131.376175 7.639649-12.219059-16.806984-33.637078-22.910432-55.02469 0-21.388828 22.903135-93.205906 54.956576-161.94815-19.84168-27.503223-30.551298 1.522821-103.846194 64.170131-117.588074l6.103449-9.163687s12.599765-279.40243 307.27906-294.675646c212.395862 11.655908 300.805853 160.332889 314.561114 316.074204 55.018608 13.738232 82.519398 48.857993 73.338683 79.372802z" fill="#F7E0A5" /><path d="M542.613859 254.289259c0-15.178344-12.309067-27.486194-27.498358-27.486194-15.185642 0-27.494708 12.30785-27.494708 27.486194 0 15.167397 12.313932 27.47768 27.494708 27.47768 15.189291 0 27.498357-12.300552 27.498358-27.47768z" fill="#2EB3E9" /><path d="M719.726973 300.800988c0-15.178344-12.313932-27.482545-27.494708-27.482545-15.189291 0-27.498357 12.304201-27.498357 27.482545 0 15.174695 12.309067 27.480113 27.498357 27.480113 15.180777 0 27.494708-12.305418 27.494708-27.480113z" fill="#75291C" /><path d="M708.377576 443.229781c-15.194156 0-27.503223 12.295687-27.503223 27.50079 0 15.175911 12.309067 27.47768 27.503223 27.477679 15.185642 0 27.494708-12.302985 27.494708-27.477679-0.003649-15.200238-12.309067-27.50079-27.494708-27.50079z" fill="#6AB82E" /><path d="M525.321566 415.747235c-15.188074 0-27.503223 12.300552-27.503222 27.486195 0 15.166181 12.315148 27.497141 27.503222 27.497141 15.183209 0 27.493492-12.326095 27.493492-27.497141 0.003649-15.185642-12.310283-27.486194-27.493492-27.486195z" fill="#EED922" /><path d="M359.611367 309.341924c-15.185642 0-27.494708 12.309067-27.494709 27.480112 0 15.178344 12.309067 27.482545 27.494709 27.482545 15.188074 0 27.498357-12.304201 27.498357-27.482545 0-15.171046-12.311499-27.480113-27.498357-27.480112z" fill="#E94B49" /><path d="M310.291175 443.229781c-15.213617 0-27.527549 12.295687-27.527549 27.50079 0 15.175911 12.313932 27.47768 27.527549 27.477679 15.183209 0 27.50079-12.302985 27.50079-27.477679-0.006082-15.200238-12.317581-27.50079-27.50079-27.50079z" fill="#75291C" /><path d="M834.648894 458.434883c-13.756476-155.738883-102.165252-304.417081-314.56233-316.074204-104.350963 5.407718-173.301196 43.952611-218.871501 91.465365 44.954852-37.764021 108.153151-66.428821 197.058181-71.038639 212.397078 11.655908 300.80707 160.335322 314.56233 316.074204 55.019824 13.738232 82.519398 48.857993 73.338683 79.375234-1.792842 5.992764-5.138914 12.735992-9.820494 19.266365 16.581967-10.063757 27.734322-26.667617 31.635031-39.69309 9.179499-30.518457-18.318859-65.637002-73.3399-79.375235z" fill="#D7C293" /><path d="M289.509287 225.241321a6.5547 6.5547 0 0 1-4.491836-11.331152c17.705838-16.646431 37.566979-31.118099 59.032434-43.020917a6.560781 6.560781 0 0 1 8.914342 2.554252 6.560781 6.560781 0 0 1-2.556685 8.914343c-20.5143 11.372507-39.494832 25.203179-56.408852 41.104011a6.540104 6.540104 0 0 1-4.489403 1.779463z" fill="#040000" /><path d="M635.636101 656.630315c-2.138275 0-4.31912-0.042571-6.555915-0.12528-56.023281-3.695153-99.219347-55.63771-111.131897-71.472862-4.539272-6.46226-11.174248-10.213363-17.87977-10.213363h-0.045004c-7.036359 0.017028-13.764991 4.135457-18.946475 11.596308-4.212085 6.064526-27.156574 36.542845-65.280623 40.900888-26.790464 3.04321-53.925145-7.670057-80.649928-31.886807l-0.896421-0.993726c-5.650981-7.760064-12.956144-12.289606-20.565385-12.75302-8.606616-0.503553-17.691242 4.096535-26.365972 13.367257-13.935274 14.88278-42.761843 29.837323-75.856447 29.837323h-0.443953c-25.05114-0.097305-62.933143-8.924073-101.132605-50.384464-12.914789-14.311114-16.007868-37.127891-8.31835-61.083134 11.092756-34.554177 40.604107-62.047669 75.626564-70.711452l3.894628-5.829778c1.001024-15.128475 9.989562-112.929604 78.172303-195.485491a6.555916 6.555916 0 0 1 10.111192 8.347542c-69.661775 84.346297-75.244642 188.553735-75.290862 189.594897l-0.085142 1.822034-8.807307 13.18481-2.579796 0.565585c-38.493808 8.425386-60.989478 38.943843-68.556148 62.515948-6.24454 19.458542-4.180461 37.490351 5.523268 48.24254 28.051779 30.447911 58.849988 45.976553 91.496989 46.107915h0.415978c33.303809 0 57.30284-16.120985 66.259753-25.684838 14.443692-15.437418 27.986098-18.054919 36.739888-17.495416 11.382238 0.69573 21.993334 6.922025 29.944359 17.55015 23.642652 21.272062 47.178268 30.722798 69.875846 28.144218 25.212909-2.880224 45.926684-20.845137 56.001387-35.352076 7.695599-11.083025 18.237366-17.199853 29.682852-17.230261h0.075411c10.977206 0 21.61871 5.834643 28.487218 15.622297 10.934635 14.527618 50.935452 62.766509 101.200717 66.082173 61.570875 2.313423 81.000226-30.806723 95.149571-54.963874 4.686446-7.998461 8.731896-14.913188 13.721204-19.889117 20.149407-20.06913 31.643545-18.963504 44.704291-10.272962l0.828308 0.651943c25.045058 23.231539 50.236074 32.255349 72.818102 26.117844 25.198313-6.855128 40.517749-29.911518 44.670235-43.734891 3.024965-10.034565 1.514307-20.804998-4.362907-31.149723-10.934635-19.233525-35.335049-34.780411-66.939672-42.652375l-4.533191-1.128736-0.414762-4.654822c-8.109145-91.586996-55.463778-306.113834-319.454332-320.747271-44.968231 2.358427-86.122111 10.958961-122.321957 25.566855-3.347288 1.359836-7.173802-0.267588-8.531205-3.625823a6.558348 6.558348 0 0 1 3.62704-8.534853c37.64239-15.188074 80.33612-24.110931 126.896501-26.518011l0.350298-0.017028 0.347865 0.019461c104.062697 5.695984 186.41546 42.623184 244.769193 109.756248 48.417689 55.702175 78.435026 131.121966 86.949202 218.347271 32.903643 9.101655 58.503339 26.337997 70.64942 47.711012 7.700464 13.538757 9.60764 27.857169 5.523268 41.409305-5.979384 19.91101-25.364948 44.870926-53.786485 52.604231-18.874713 5.143779-48.899348 4.297226-84.785385-28.792512-6.804043-4.516162-11.601174-7.14461-27.747701 8.928939-3.78516 3.781511-7.435309 10.012671-11.665638 17.233909-14.446125 24.670434-36.051456 61.550198-100.581616 61.555063z" fill="#040000" /></svg>