<?xml version="1.0" encoding="utf-8"?>
<!-- Uploaded to: SVG Repo, www.svgrepo.com, Generator: SVG Repo Mixer Tools -->
<svg width="800px" height="800px" viewBox="0 0 1024 1024" class="icon"  version="1.1" xmlns="http://www.w3.org/2000/svg"><path d="M388.378503 751.970996h-61.405395V175.169481L177.262497 42.314531l-0.646155-1.18666c-4.690041-8.599038-3.060978-26.99698 10.087551-35.131919 12.644812-7.833086 26.683808-8.029291 32.252053-0.350904L386.792832 154.911369l0.644267 1.182887c1.208355 2.222393 1.131006 4.306122 0.976306 8.463204-0.019809 0.530129-0.039618 1.014981-0.047165 1.364942l0.012263 0.643324v585.40527z m-45.931654-15.473741h30.458857l0.019809-569.930586c-0.015093-0.679169-0.013206-1.589445 0.024525-2.58273l0.024526-0.651814L206.887484 15.625063l-0.176395-0.326378a6.195533 6.195533 0 0 0-0.778215-0.043391c-2.316722 0-6.445505 1.02347-11.086495 3.897677-5.103203 3.158137-5.533343 10.751627-4.904169 13.727709L340.099941 166.129926l0.563145 0.860281c1.035733 1.576239 1.373431 2.597823 1.552657 3.31378 0.118855 0.466929 0.393352 1.5536 0.232049 3.934466v562.258802z" fill="" /><path d="M248.394162 544.820583c-0.810287 0-1.604537-0.109422-2.410108-0.155643V938.990641c0 38.669259 24.250118 70.018583 54.159036 70.018583h257.890963c29.907032 0 54.159036-31.34838 54.159036-70.018583V544.820583h-363.798927z" fill="#EA5750" /><path d="M565.770924 544.820583V938.990641c0 38.669259-24.248231 70.018583-54.158093 70.018583h46.421222c29.907032 0 54.159036-31.34838 54.159036-70.018583V544.820583h-46.422165z" fill="#CC3B39" /><path d="M216.759022 568.87544a7.734984 7.734984 0 0 1-7.734984-7.737814v-43.841322a7.734041 7.734041 0 0 1 7.734984-7.736871 7.734984 7.734984 0 0 1 7.737813 7.736871v43.841322a7.734984 7.734984 0 0 1-7.737813 7.737814zM553.711895 1016.747038H275.242102c-36.512897 0-66.218064-33.907528-66.218064-75.584941V599.819148a7.734984 7.734984 0 0 1 7.734984-7.73687 7.735927 7.735927 0 0 1 7.737813 7.73687v341.342949c0 33.146292 22.765378 60.1112 50.745267 60.1112h278.469793c27.978946 0 50.745267-26.964908 50.745267-60.1112v-69.693148c0-4.273107 3.46282-7.734984 7.735927-7.734984s7.73687 3.461877 7.736871 7.734984v69.693148c0 41.677413-29.706111 75.584941-66.218065 75.584941zM612.193089 856.636646a7.733097 7.733097 0 0 1-7.735927-7.73404v-27.724257c0-4.273107 3.46282-7.735927 7.735927-7.735928s7.73687 3.46282 7.736871 7.735928v27.724257a7.734041 7.734041 0 0 1-7.736871 7.73404zM612.193089 807.635524a7.734984 7.734984 0 0 1-7.735927-7.734984V366.792385c0-33.143462-22.766321-60.10837-50.745267-60.108371H275.242102c-27.979889 0-50.745267 26.963965-50.745267 60.108371v116.119086a7.734984 7.734984 0 0 1-7.737813 7.73687 7.734984 7.734984 0 0 1-7.734984-7.73687v-116.119086c0-41.675527 29.705168-75.582111 66.218064-75.582111h278.469793c36.511953 0 66.218064 33.906584 66.218065 75.582111v433.107212a7.734984 7.734984 0 0 1-7.736871 7.735927z" fill="" /><path d="M366.508308 870.600179m-7.562361 0a7.562362 7.562362 0 1 0 15.124723 0 7.562362 7.562362 0 1 0-15.124723 0Z" fill="#EA6A69" /><path d="M388.643568 849.731758m-7.564248 0a7.564248 7.564248 0 1 0 15.128496 0 7.564248 7.564248 0 1 0-15.128496 0Z" fill="#EA6A69" /><path d="M414.704804 833.081734a7.561418 7.561418 0 0 1-7.563305 7.566135 7.562362 7.562362 0 0 1-7.563305-7.566135 7.564248 7.564248 0 0 1 15.12661 0zM412.398458 797.570612c0 4.177835-3.384527 7.566135-7.560475 7.566135a7.567078 7.567078 0 0 1-7.566135-7.566135c0-4.175005 3.3883-7.560475 7.566135-7.560475a7.560475 7.560475 0 0 1 7.560475 7.560475zM434.251674 813.349036a7.565191 7.565191 0 0 1-15.12944 0 7.561418 7.561418 0 0 1 7.566135-7.562362 7.562362 7.562362 0 0 1 7.563305 7.562362zM381.634918 926.503359a7.565191 7.565191 0 1 1-15.128496 0.003773 7.565191 7.565191 0 0 1 15.128496-0.003773z" fill="#EA6A69" /><path d="M407.144329 953.530524m-7.563305 0a7.563305 7.563305 0 1 0 15.126609 0 7.563305 7.563305 0 1 0-15.126609 0Z" fill="#EA6A69" /><path d="M469.621302 907.540386a7.564248 7.564248 0 0 1-7.566135 7.563305 7.562362 7.562362 0 1 1 0-15.12378c4.175948 0 7.566135 3.384527 7.566135 7.560475zM443.731745 842.169397a7.561418 7.561418 0 0 1-7.559532 7.562361 7.565191 7.565191 0 0 1 0-15.128496c4.174061-0.000943 7.559532 3.387357 7.559532 7.566135zM419.961763 901.40994a7.561418 7.561418 0 1 1-15.12378 0 7.561418 7.561418 0 0 1 7.562361-7.564249 7.561418 7.561418 0 0 1 7.561419 7.564249zM381.07932 901.40994c0 6.11158-4.95322 11.066687-11.063857 11.066686-6.112524 0-11.069516-4.956049-11.069516-11.066686 0-6.112524 4.956993-11.068573 11.069516-11.068574 6.110637-0.000943 11.063857 4.955106 11.063857 11.068574z" fill="#EA6A69" /><path d="M419.963649 878.161597m-11.065743 0a11.065743 11.065743 0 1 0 22.131487 0 11.065743 11.065743 0 1 0-22.131487 0Z" fill="#EA6A69" /><path d="M458.302757 889.22734c0 6.11158-4.95322 11.06763-11.065744 11.06763s-11.066687-4.956049-11.066686-11.06763c0-6.109694 4.954163-11.0648 11.066686-11.0648s11.065743 4.955106 11.065744 11.0648z" fill="#EA6A69" /><path d="M396.075755 878.161597m-11.066686 0a11.066687 11.066687 0 1 0 22.133373 0 11.066687 11.066687 0 1 0-22.133373 0Z" fill="#EA6A69" /><path d="M443.48366 907.540386c0 6.115354-4.956049 11.066687-11.066687 11.066687-6.11441 0-11.068573-4.951333-11.068573-11.066687 0-6.112524 4.95322-11.06763 11.068573-11.06763 6.110637-0.000943 11.066687 4.954163 11.066687 11.06763zM394.338214 966.784702c0 7.323709-5.933299 13.258894-13.255121 13.258894-7.323709 0-13.257951-5.935185-13.257951-13.258894 0-7.318993 5.934242-13.255121 13.257951-13.255121 7.321822 0.000943 13.255121 5.937072 13.255121 13.255121zM416.032014 925.731747c0 7.322766-5.935185 13.258894-13.254178 13.258894-7.323709 0-13.260781-5.936128-13.260781-13.258894 0-7.321822 5.936128-13.255121 13.260781-13.255121 7.318049 0 13.254178 5.933299 13.254178 13.255121zM432.414143 973.721662c0 8.18965-6.634164 14.820984-14.818153 14.820984-8.187763 0-14.821927-6.631334-14.821927-14.820984 0-8.185877 6.634164-14.819097 14.821927-14.819097 8.18399 0 14.818154 6.63322 14.818153 14.819097z" fill="#EA6A69" /><path d="M447.234184 938.988755m-14.820041 0a14.82004 14.82004 0 1 0 29.640081 0 14.82004 14.82004 0 1 0-29.640081 0Z" fill="#EA6A69" /><path d="M494.90055 891.561985c0 6.116297-4.954163 11.068573-11.063857 11.068573-6.11158 0-11.068573-4.952276-11.068573-11.068573 0-6.11158 4.956993-11.066687 11.068573-11.066687 6.109694 0 11.063857 4.955106 11.063857 11.066687z" fill="#EA6A69" /><path d="M454.193782 976.05725m-14.820983 0a14.820984 14.820984 0 1 0 29.641967 0 14.820984 14.820984 0 1 0-29.641967 0Z" fill="#EA6A69" /><path d="M498.65579 941.323399c0 8.185877-6.636993 14.82004-14.819097 14.820041-8.187763 0-14.821927-6.634164-14.821927-14.820041 0-8.18682 6.634164-14.82004 14.821927-14.82004 8.182104 0 14.819097 6.63322 14.819097 14.82004zM355.193536 898.671567c0 6.115354-4.95322 11.066687-11.065743 11.066686-6.112524 0-11.069516-4.951333-11.069517-11.066686 0-6.109694 4.956049-11.0648 11.069517-11.0648 6.11158 0 11.065743 4.956049 11.065743 11.0648zM358.945947 972.099202c0 8.18965-6.634164 14.82287-14.818154 14.82287-8.18682 0-14.820984-6.63322-14.820984-14.82287 0-8.183047 6.634164-14.820984 14.820984-14.820984 8.18399 0 14.818154 6.637937 14.818154 14.820984z" fill="#EA6A69" /><path d="M340.896079 931.730133m-14.82004 0a14.82004 14.82004 0 1 0 29.64008 0 14.82004 14.82004 0 1 0-29.64008 0Z" fill="#EA6A69" /><path d="M447.23607 739.612001c0 3.226054-1.76018 5.840856-3.931635 5.840856-2.170512 0-3.931636-2.614802-3.931636-5.840856 0-3.223224 1.761124-5.837083 3.931636-5.837083 2.171455 0 3.931636 2.613859 3.931635 5.837083z" fill="#EA6A69" /><path d="M599.669019 406.20873c-3.556206 25.048141-26.741348 42.466948-51.78949 38.907912-25.038709-3.557149-42.462231-26.746065-38.902252-51.78949 3.557149-25.043425 26.743235-42.460345 51.788546-38.904138 25.045312 3.557149 42.462231 26.742292 38.903196 51.785716z" fill="#E73130" /><path d="M554.382575 453.314782a54.229783 54.229783 0 0 1-7.591604-0.538619c-29.228806-4.153309-49.626524-31.310648-45.473215-60.536625 3.726942-26.231971 26.490433-46.015607 52.950681-46.015607 2.519529 0 5.073017 0.182055 7.585 0.536732 14.159737 2.012039 26.689467 9.415928 35.2753 20.850498 8.588662 11.433627 12.209955 25.527333 10.198859 39.685183-3.724112 26.235744-26.48666 46.018437-52.945021 46.018438z m-0.114138-91.61711c-18.802614 0-34.980993 14.066351-37.633526 32.717095-2.9525 20.780694 11.552481 40.088912 32.331289 43.043298 1.796026 0.254688 3.616577 0.382976 5.415432 0.382976 18.80167 0 34.977219-14.065408 37.625036-32.719925 1.433802-10.066798-1.143268-20.086432-7.248246-28.217598-6.107807-8.127393-15.016245-13.392841-25.081156-14.82287a38.614548 38.614548 0 0 0-5.408829-0.382976z" fill="" /><path d="M539.785151 390.43125a7.152973 7.152973 0 0 1-8.096264 6.076679c-3.910883-0.556542-6.63605-4.180664-6.076679-8.088718a7.15769 7.15769 0 1 1 14.172943 2.012039z" fill="#FDFAED" /><path d="M704.046022 355.738904c-2.981742 20.986332-22.405041 35.579982-43.393259 32.597297-20.982558-2.977969-35.580925-22.407871-32.599184-43.390429 2.981742-20.985388 22.409757-35.579982 43.395146-32.599184s35.580925 22.408814 32.597297 43.392316z" fill="#E73130" /><path d="M666.100267 396.456991c-2.168625 0-4.370266-0.152813-6.535118-0.462212-12.193919-1.728109-22.985165-8.104754-30.385281-17.955539-7.398229-9.848898-10.518635-21.988106-8.783923-34.182969 3.209075-22.595586 22.817259-39.632359 45.609049-39.632359 2.171455 0 4.368379 0.155643 6.530402 0.461269 12.199579 1.735655 22.987995 8.1123 30.38528 17.960255 7.400116 9.848898 10.520521 21.987163 8.78581 34.182969-3.209075 22.592756-22.814429 39.628586-45.606219 39.628586z m-0.095273-76.759338c-15.136043 0-28.158171 11.319488-30.292837 26.33479-1.149871 8.100981 0.924425 16.168946 5.842742 22.71444 4.915488 6.543608 12.083554 10.77804 20.183591 11.927911 1.447951 0.206581 2.917598 0.310343 4.360833 0.310343 15.133213 0 28.155341-11.321375 30.288122-26.333847 1.151758-8.100981-0.922538-16.168946-5.837083-22.71161-4.916431-6.546438-12.086384-10.781813-20.191138-11.934514a31.113501 31.113501 0 0 0-4.35423-0.307513z" fill="" /><path d="M654.375163 346.782359a5.480519 5.480519 0 0 1-10.853503-1.541337 5.472973 5.472973 0 0 1 6.192704-4.656083 5.484292 5.484292 0 0 1 4.660799 6.19742z" fill="#FDFAED" /><path d="M583.212369 268.967479l66.873651 47.356023-8.941452 12.626889-66.873652-47.35508z" fill="" /><path d="M552.880856 354.622991l-15.127553-3.262842c6.809616-31.567224 21.478729-59.549942 41.308587-78.793073 20.65901-20.049644 44.512002-28.40437 67.19437-23.513407l-3.260956 15.126609c-17.452765-3.770333-36.328955 3.155307-53.156318 19.490273-17.663118 17.140535-30.789009 42.33866-36.95813 70.95244z" fill="" /></svg>