<?xml version="1.0" encoding="utf-8"?>
<!-- Uploaded to: SVG Repo, www.svgrepo.com, Generator: SVG Repo Mixer Tools -->
<svg width="800px" height="800px" viewBox="0 0 1024 1024" class="icon"  version="1.1" xmlns="http://www.w3.org/2000/svg"><path d="M463.52993 521.415858c-1.878162 0-3.758455-0.241965-5.588651-0.716302l-10.725348-2.786331c-11.84457-3.076263-18.978814-15.215029-15.902551-27.059599l123.151769-474.233707c2.541168-9.785201 11.372365-16.619919 21.47308-16.619919 1.878162 0 3.759521 0.240899 5.588651 0.715236l10.724282 2.785265a22.05401 22.05401 0 0 1 13.55858 10.236088 22.045483 22.045483 0 0 1 2.347169 16.824577L485.001945 504.794873c-2.541168 9.786267-11.371299 16.620985-21.472015 16.620985z m112.408299-508.47445a9.251172 9.251172 0 0 0-8.945251 6.930652L443.841209 494.106832c-1.283375 4.93737 1.691625 9.998387 6.628995 11.27963l10.725348 2.785265a9.260766 9.260766 0 0 0 2.335444 0.300591 9.249041 9.249041 0 0 0 8.944185-6.930652L595.629082 27.30796a9.181887 9.181887 0 0 0-0.97852-7.012728 9.190415 9.190415 0 0 0-5.653672-4.267968l-10.722151-2.785264a9.299139 9.299139 0 0 0-2.33651-0.300592z" fill="" /><path d="M274.613721 323.819813l45.209122 581.254815c0 30.001555 22.949388 54.320658 51.258253 54.320659H594.057907c28.30993 0 51.259319-24.319103 51.259318-54.320659l45.206991-581.254815H274.613721z" fill="#E33E3D" /><path d="M287.420822 737.698653a7.200331 7.200331 0 0 1-7.168353-6.604478l-3.526083-42.768152a7.203528 7.203528 0 0 1 6.584225-7.768469c3.979102-0.300591 7.439098 2.627508 7.765272 6.587423l3.527149 42.762822a7.204594 7.204594 0 0 1-7.18221 7.790854z" fill="" /><path d="M655.845377 323.389179l21.178885-150.273192c0-9.601862-10.081529-17.387386-22.51449-17.387386H289.197721c-12.432962 0-22.512359 7.785524-22.512359 17.387386l21.178885 150.273192h367.98113z" fill="#FFFFFF" /><path d="M661.468137 329.860416H282.240422L260.214125 173.115987c0-13.15566 13.002166-23.858623 28.983596-23.858623h365.312051c15.982495 0 28.984662 10.702964 28.984662 23.858623l-0.06289 0.90284-21.963407 155.841589zM293.488073 316.917941h356.734544l20.318683-144.183555c-0.306987-5.748539-7.524372-10.533481-16.031528-10.533482H289.197721c-8.508222 0-15.723475 4.786008-16.031528 10.533482L293.488073 316.917941z" fill="" /><path d="M768.615026 285.287651c0 20.260057-18.77309 36.683846-41.930334 36.683846H213.325103c-23.155112 0-41.928202-16.423789-41.928202-36.683846v-10.904424c0-20.260057 18.77309-36.683846 41.928202-36.683845h513.359589c23.157244 0 41.930334 16.422723 41.930334 36.683845v10.904424z" fill="#FFFFFF" /><path d="M726.684692 328.441668H213.325103c-26.688657 0-48.400505-19.359349-48.400505-43.154017v-10.904424c0-23.795734 21.711848-43.155083 48.400505-43.155082h513.359589c26.688657 0 48.401571 19.359349 48.401571 43.155082v10.904424c0 23.794668-21.712914 43.154017-48.401571 43.154017zM213.325103 244.170619c-19.551216 0-35.456965 13.55325-35.456964 30.211543v10.904423c0 16.658293 15.905749 30.211543 35.456964 30.211543h513.359589c19.551216 0 35.459097-13.55325 35.459097-30.211543v-10.904423c0-16.658293-15.907881-30.211543-35.459097-30.211543H213.325103z" fill="" /><path d="M485.901586 557.608312c-96.667769 0-179.500884-13.127945-197.428695-38.955334-2.052974 4.73591 0.510579 9.616785 0.689654 14.596791 1.922931 53.082052 88.081735 61.608395 196.739041 61.608395 108.655174 0 196.739041-16.453635 196.739041-61.608395 0-4.982138-1.074453-9.860882-3.131691-14.596791-29.346011 34.782234-96.937449 38.955334-193.60735 38.955334z" fill="#FDFAED" /><path d="M427.801154 574.716425a57.9075 56.064514 0 1 0 115.814999 0 57.9075 56.064514 0 1 0-115.814999 0Z" fill="#FDFAED" /><path d="M508.763568 616.399464c8.554057-8.072258 14.888855-19.773995 17.831878-32.941379 4.232792-18.952166-0.515908-54.562624-15.19904-50.047361-4.345781 1.338803-1.345199 9.857684-2.259763 17.463067-0.917762 7.603251-8.400563 17.93847-18.526861 24.146423-10.379988 6.364645-16.712655 14.337772-18.823189 23.688075-2.146775 9.606126-3.422689 18.618531 3.09012 24.765726 7.293066 6.883751 24.788111 1.511483 33.886855-7.074551z m0 0" fill="" /><path d="M463.926454 595.300523c2.242708-10.038892 9.873673-19.260218 20.640593-25.867893 9.758553-5.979845 13.247329-10.873512 15.095645-19.149362 0.083142-0.378404 7.125716-24.557871-8.354729-27.133148-19.991443-3.323557-40.444433 15.488972-46.624672 43.152951-4.153914 18.587619 1.557318 45.857205 11.680418 50.043097 9.108338 3.762719 5.832747-13.298494 7.562745-21.045645z m0 0" fill="" /><path d="M650.534934 323.27619l-45.205925 581.254816c0 30.003687-22.953652 54.320658-51.260385 54.320659h39.989283c28.307799 0 51.260385-24.316971 51.260384-54.320659l45.205925-581.254816h-39.989282z" fill="#9D1F24" /><path d="M592.92163 966.595617H356.218889c-33.870867 0-61.444242-27.474244-61.610527-61.308869l-11.474694-139.238725a7.203528 7.203528 0 0 1 6.585291-7.765272 7.188605 7.188605 0 0 1 7.764205 6.587424l11.522661 140.114916c0 26.032046 21.179951 47.211997 47.213064 47.211997h236.702741c26.032046 0 47.211997-21.179951 47.211997-47.211997l0.02345-0.594787 30.607002-371.347324c0.332569-3.957783 3.797895-6.895476 7.768469-6.58316a7.199265 7.199265 0 0 1 6.583159 7.764206L654.530025 905.287814c-0.162021 33.835691-27.737528 61.307804-61.608395 61.307803zM280.82807 657.736077a7.201397 7.201397 0 0 1-7.168353-6.610873l-27.660782-335.591901h457.140516l-13.919928 168.908777c-0.325107 3.962047-3.730741 6.922124-7.766338 6.584226a7.204594 7.204594 0 0 1-6.585291-7.766338l12.635488-153.330267H261.633939l26.37634 320.017654a7.201397 7.201397 0 0 1-7.182209 7.788722z" fill="" /></svg>