<?xml version="1.0" encoding="utf-8"?>
<!-- Uploaded to: SVG Repo, www.svgrepo.com, Generator: SVG Repo Mixer Tools -->
<svg width="800px" height="800px" viewBox="0 0 1024 1024" class="icon"  version="1.1" xmlns="http://www.w3.org/2000/svg"><path d="M318.630934 410.725511l210.029647 587.228911L772.551086 423.959585z" fill="#E8C252" /><path d="M733.165791 438.328174L516.213086 963.462002l17.901885 47.427939 231.438419-572.182831z" fill="#E68123" /><path d="M631.764645 752.626254a4.835461 4.835461 0 0 1-4.502456-6.590053l140.213443-358.696822H290.488573l56.613133 144.83647a4.825126 4.825126 0 0 1-2.743272 6.2559c-2.478016 0.974901-5.284444-0.257218-6.258196-2.742124L276.338161 377.676495h505.289032L636.262508 749.555719a4.835461 4.835461 0 0 1-4.497863 3.070535zM608.897542 811.117994a4.82972 4.82972 0 0 1-4.497863-6.58546l12.264915-31.381694a4.840054 4.840054 0 0 1 6.258196-2.743272 4.833164 4.833164 0 0 1 2.742123 6.258196l-12.264915 31.380546a4.832016 4.832016 0 0 1-4.502456 3.071684zM528.983251 1024L383.385462 651.537443a4.828571 4.828571 0 0 1 2.743272-6.258195c2.481461-0.977197 5.285592 0.258366 6.258196 2.743271l136.596321 349.436989 63.436289-162.279038c0.973752-2.488351 3.776735-3.702096 6.26164-2.746717a4.836609 4.836609 0 0 1 2.739827 6.261641L528.983251 1024zM373.798366 618.568808a4.834313 4.834313 0 0 1-4.501308-3.071683l-15.824624-40.483064a4.828571 4.828571 0 0 1 2.743272-6.258195 4.826275 4.826275 0 0 1 6.258196 2.743271l15.824623 40.480767a4.827423 4.827423 0 0 1-4.500159 6.588904z" fill="#040000" /><path d="M464.663925 482.028754l-6.213412-7.427158-29.171231 28.20322 6.218005 7.427158zM471.627173 475.296313l46.009796-44.487161-0.126312-0.153871-13.18355-0.414534-38.913347 37.626111zM422.316034 509.537256l-51.148407 49.455824 3.38287 10.16354 53.980098-52.191057zM496.658808 598.385265l-6.216857-7.427158-58.382652 56.450075 6.216857 7.430603zM539.756534 556.716015l46.012094-44.486012-6.216858-7.430603-46.013242 44.484864zM503.6255 591.652824l29.167786-28.202071-6.218005-7.429455-29.166638 28.200924zM425.096051 654.140623l-16.851197 16.291979 3.38287 10.170429 19.681739-19.031805zM650.965249 449.187579l-6.214561-7.428306-24.078552 23.280488 6.216858 7.430603zM619.925746 479.201657l-6.216858-7.429455-27.195018 26.292461 6.216857 7.431751zM657.931942 442.455138l7.413378-7.166496-13.468326-0.421423-0.16191 0.157316zM555.720101 653.91441l29.170083-28.202072-6.216858-7.428306-29.167786 28.202071zM542.538848 653.221989l-58.381504 56.44663 6.213412 7.431751 58.381504-56.45352zM735.711556 470.874237l2.827097-7.163051-4.874503 4.717187zM638.611915 560.328545l6.216857 7.428306 27.191574-26.292461-6.213412-7.429455zM703.811981 497.288417l6.213413 7.429454 19.919435-19.258019 1.72244-4.360067-4.969812-5.937823zM672.769033 527.302495l6.218006 7.427158 24.075107-23.280489-6.213412-7.42601zM585.640019 611.549294l6.213412 7.427158 46.008649-44.484864-6.216858-7.426009zM477.189503 716.404505l-40.591003 39.246352 3.382871 10.17043 43.426138-41.989624zM600.264676 707.150413l6.216857 7.431751 29.166638-28.205516-6.213412-7.431751zM534.168941 784.499418l-6.216857-7.427158-47.986009 46.395623 6.214561 7.427158zM642.616012 679.644207l17.115305-16.550345 8.600713-21.754407-31.932875 30.873001zM473.000531 830.203769l-8.774106 8.482439 3.382871 10.165836 11.608092-11.219969zM534.915332 770.336374l6.216857 7.427158 58.3838-56.44663-6.215709-7.430603zM590.898052 837.23821l7.220465-18.264745-12.441753 12.027219zM523.758519 890.864634l-31.906465 30.852331 3.382871 10.17043 34.740451-33.592159zM536.942068 891.560499l47.984861-46.396772-6.216857-7.427157-47.984861 46.395623zM733.66415 468.428373l-26.6358-31.831825-12.938964-0.405347 32.608071 38.970761z" fill="#040000" /><path d="M726.697457 475.161962l4.969812 5.937823 4.044287-10.225548-2.047406-2.445864zM637.86208 574.491588l38.638905 46.176299 4.041991-10.224399-35.714204-42.686637zM579.55177 504.7994l6.9621-6.734737-56.066546-67.005183-12.657632-0.396161-0.152723 0.145833zM638.611915 560.328545l-45.881188-54.832131-6.962099 6.733589 45.876594 54.835576z" fill="#040000" /><path d="M517.789692 430.663319l-0.279035-0.008038 0.126312 0.153871zM592.730727 505.496414l-6.216857-7.431751-6.9621 6.734737 6.216858 7.430603zM631.645222 567.065579l6.216858 7.426009 6.966692-6.734737-6.216857-7.428306zM672.769033 527.302495l-45.880039-54.832131-6.963248 6.731293 45.881188 54.833278zM672.020346 541.46439l24.305914 29.044919 4.041991-10.2244-21.381212-25.555256zM620.672136 465.039761l-26.767854-31.99029-12.936667-0.406495 32.741273 39.129226z" fill="#040000" /><path d="M626.888994 472.470364l-6.216858-7.430603-6.963248 6.732441 6.216858 7.429455zM665.806934 534.034935l6.213412 7.429455 6.966693-6.734737-6.218006-7.427158zM548.75226 660.64685l44.54802 53.239449 6.964396-6.735886-44.544575-53.236003zM549.50554 646.486103l-45.88004-54.833279-6.966692 6.732441 45.88004 54.836724zM599.515989 721.316902l25.267035 30.195508 4.041991-10.232438-22.343482-26.697808zM373.831666 436.537985l-7.409933 6.198485 55.894301 66.800786 6.963248-6.73244zM435.497287 510.231974l-6.966692 6.733589 61.911356 73.992544 6.966692-6.735885z" fill="#040000" /><path d="M435.497287 510.231974l-6.218005-7.427158-6.963248 6.73244 6.214561 7.428307zM503.6255 591.652824l-6.216857-7.430602-6.966692 6.735885 6.216857 7.427158zM548.75226 660.64685l6.967841-6.73244-6.214561-7.428307-6.966692 6.735886zM593.30028 713.886299l6.215709 7.430603 6.965544-6.734738-6.216857-7.431751zM465.41376 467.866858l-33.378576-39.890544-12.940111-0.404199 39.35544 47.029481zM629.434759 678.944897l6.964396-6.732441-44.545724-53.236004-6.963247 6.735886zM578.673326 618.284032l6.966693-6.734738-45.883485-54.833279-6.963248 6.734738zM526.575281 556.021298l6.963247-6.737034-61.911355-73.987951-6.963248 6.732441zM635.648171 686.376648l10.106125 12.075447 4.041991-10.228992-7.180275-8.578896z" fill="#040000" /><path d="M471.627173 475.296313l-6.213413-7.429455-6.963247 6.734738 6.213412 7.427158zM539.756534 556.716015l-6.218006-7.431751-6.963247 6.737034 6.218005 7.429455zM578.673326 618.284032l6.216858 7.428306 6.963247-6.735886-6.213412-7.427158zM635.648171 686.376648l6.967841-6.732441-6.216857-7.431751-6.964396 6.732441zM651.715084 435.024535l-0.142388-0.167651-12.936667-0.405347 6.114659 7.307736zM696.848734 504.023154l6.963247-6.734737-45.880039-54.833279-6.966693 6.732441zM703.062146 511.449164l11.279681 13.480958 4.043139-10.225548-8.359572-9.986703zM657.931942 442.455138l-6.216858-7.430603-6.964396 6.734738 6.214561 7.428306z" fill="#040000" /><path d="M703.062146 511.449164l6.963248-6.731293-6.213413-7.429454-6.963247 6.734737zM586.856061 847.466055l2.665187-6.742776-4.594319 4.440448zM578.710072 837.73657l6.966692-6.735886-44.544575-53.237152-6.963248 6.735886zM432.059299 647.408182l-52.253065-62.449905 8.318233 24.997187 36.971584 44.185159zM490.370756 717.10037l-6.963247 6.731293 44.544575 53.240597 6.963248-6.735886zM438.276156 654.838785l-6.966693 6.732441 45.88004 54.833279 6.967841-6.735886z" fill="#040000" /><path d="M432.059299 647.408182l-6.963248 6.732441 6.213412 7.430603 6.966693-6.732441zM484.157344 709.668619l-6.967841 6.735886 6.218006 7.427158 6.963247-6.731293zM527.952084 777.07226l6.216857 7.427158 6.963248-6.735886-6.216857-7.427158zM578.710072 837.73657l6.216857 7.427157 4.594319-4.440448 1.376804-3.485069-5.221288-6.237526zM529.975376 898.295236l24.984555 29.862504 4.044287-10.23129-22.06215-26.365951zM479.966075 823.467883l-34.536055-41.276534 8.318233 24.998335 19.252278 23.014085zM486.180636 830.895041l-6.963248 6.737034 44.541131 53.232559 6.966692-6.732441z" fill="#040000" /><path d="M479.966075 823.467883l-6.965544 6.735886 6.216857 7.428306 6.963248-6.737034zM523.758519 890.864634l6.216857 7.430602 6.966692-6.734737-6.216857-7.428306zM509.449642 974.608481l18.438137 22.036887 4.044288-10.226696-30.798362-36.805081z" fill="#040000" /><path d="M275.635405 361.661255a48.122656 48.122656 0 0 0-2.161087 14.254907c0 32.643668 33.014567 59.108373 73.738772 59.108373h387.734851c40.724205 0 73.73992-26.463556 73.73992-59.108373 0-23.75703-17.491945-44.227646-42.707306-53.62183 2.660594-6.720958 4.186676-13.985058 4.186675-21.607426 0-32.899738-27.219133-59.622808-61.173003-60.62412 7.841692-8.458325 12.641556-19.573799 12.641556-31.795079 0-26.432552-22.274584-47.856252-49.74749-47.856252h-2.467682c2.258692-4.554129 3.559708-9.629584 3.559708-15.010484 0-19.309692-16.271309-34.960923-36.340023-34.960923h-23.499812c1.779854-4.386479 2.820207-9.472267 2.820207-14.919769 0-16.370062-9.918953-25.006373-20.634822-29.642031-25.408275-10.989162-112.94723-83.823079-96.747116-53.19811 1.979657 3.748028-11.745887 53.19811-11.745887 53.19811-11.397955 0-20.634822 13.271968-20.634822 29.642031 0 5.447501 1.040353 10.532142 2.821356 14.919769h-23.492923c-20.072159 0-36.344616 15.651231-36.344616 34.960923 0 5.382048 1.298719 10.456354 3.559707 15.010484h-2.464236c-27.476351 0-49.752083 21.424847-49.752083 47.856252 0 12.221281 4.801012 23.336755 12.641556 31.795079-33.95387 1.001311-61.171855 27.72553-61.171856 60.62412 0 7.622368 1.522636 14.887616 4.190121 21.609723-6.84727 2.550358-13.124987 5.918301-18.635644 9.94766" fill="#FBD7B6" /><path d="M734.94909 440.232043H347.214238c-43.530633 0-78.94628-28.852005-78.946279-64.314733 0-5.344155 0.804953-10.658454 2.393042-15.793619a5.207508 5.207508 0 0 1 9.948809 3.078573 43.013901 43.013901 0 0 0-1.929132 12.716195c0 29.721263 30.743244 53.900865 68.532412 53.900865h387.734851c37.78802 0 68.532412-24.179602 68.532413-53.900865 0-20.711758-15.434204-39.844613-39.316398-48.741586l-4.980146-1.855641 1.955542-4.941104c2.535431-6.404029 3.82037-13.027382 3.820371-19.690925 0-30.148428-24.652699-54.492236-56.118219-55.420057l-11.458814-0.338746 7.793463-8.4078c7.254914-7.825616 11.252121-17.860547 11.252122-28.253745 0-23.515889-19.980295-42.649892-44.541131-42.649892h-10.861701l3.728506-7.519022c2.003771-4.040842 3.017714-8.312492 3.017714-12.69897 0-16.406808-13.966686-29.754564-31.133663-29.754564h-31.231269l2.907478-7.165347c1.59383-3.931755 2.437826-8.413542 2.437825-12.961929 0-11.637948-5.721943-19.770158-17.495389-24.863985-9.967182-4.308395-27.801318-16.814452-46.68729-30.051971-13.637126-9.561834-32.885958-23.054275-42.740607-28.138916 0.396161 4.016728-1.027722 15.343489-11.981287 54.806868l-1.057578 3.813481h-3.959313c-8.363017 0-15.428462 11.191262-15.428463 24.435671 0 4.54724 0.843995 9.029026 2.437826 12.96193l2.907477 7.165347h-31.224378c-17.170423 0-31.137108 13.347756-31.137108 29.754563 0 4.393368 1.013943 8.662721 3.016565 12.695526l3.731952 7.522466h-10.861702c-24.560835 0-44.544575 19.132855-44.544575 42.649892 0 10.393198 3.997207 20.428129 11.250973 28.253745l7.793463 8.4078-11.458814 0.338746c-31.46552 0.927821-56.118219 25.27048-56.118219 55.420057 0 6.673878 1.286088 13.297231 3.822667 19.688629l1.962433 4.9434-4.984739 1.857938c-6.354652 2.366632-12.20176 5.486543-17.380561 9.271316a5.201766 5.201766 0 0 1-7.276731-1.12992 5.20636 5.20636 0 0 1 1.131068-7.276731c4.628768-3.385167 9.708816-6.298386 15.149427-8.699467a62.999937 62.999937 0 0 1-2.837431-18.655165c0-32.64252 24.157784-59.550466 56.548828-64.896917-5.216694-8.256225-8.01738-17.754904-8.01738-27.523431 0-27.640557 22.00129-50.411203 49.978297-52.84788a38.410395 38.410395 0 0 1-1.321685-10.018855c0-22.14942 18.637941-40.168431 41.550975-40.168432H462.00333a46.799822 46.799822 0 0 1-1.017387-9.71226c0-17.665337 9.274761-31.870867 21.760149-34.436154 5.495729-20.087086 10.733093-41.792117 10.824956-46.737814-1.511153-2.945371-4.108592-8.888935 0.098754-12.599069 6.209968-5.507212 17.42075 1.267715 58.874121 30.32871C570.172514 44.435028 588.39707 57.212082 597.390499 61.100202c15.553626 6.728996 23.774255 18.631051 23.774255 34.422374 0 3.286414-0.345636 6.561345-1.017388 9.71226h16.488337c22.90959 0 41.548679 18.019011 41.548679 40.168432a38.330014 38.330014 0 0 1-1.32513 10.018855c27.980451 2.434381 49.981742 25.206176 49.981742 52.84788 0 9.768527-2.799538 19.267205-8.017381 27.523431C751.215806 241.139885 775.372442 268.047831 775.372442 300.690351c0 6.294941-0.951935 12.548544-2.837432 18.654017 25.286556 11.160258 41.358063 32.916962 41.358063 56.576387 0.002297 35.459282-35.413351 64.311288-78.943983 64.311288z" fill="" /><path d="M733.402339 352.869925H540.037866a5.20636 5.20636 0 1 1 0-10.413867H733.402339a5.207508 5.207508 0 0 1 0 10.413867zM507.639932 352.869925h-25.459948a5.20636 5.20636 0 0 1 0-10.413867h25.459948a5.207508 5.207508 0 0 1 0 10.413867zM440.524513 352.869925h-97.069785a5.207508 5.207508 0 1 1 0-10.413867h97.069785a5.207508 5.207508 0 0 1 0 10.413867zM684.80429 254.514052H618.722335a5.20636 5.20636 0 0 1 0-10.413868h66.081955a5.20636 5.20636 0 0 1 0 10.413868zM579.381823 254.514052H410.570147a5.207508 5.207508 0 0 1 0-10.413868H579.381823a5.20636 5.20636 0 0 1 0 10.413868zM614.221027 179.879611h-62.033075a5.207508 5.207508 0 0 1 0-10.415016h62.033075a5.207508 5.207508 0 0 1 0 10.415016zM496.646177 179.879611h-49.047032a5.208656 5.208656 0 0 1 0-10.415016h49.047032a5.207508 5.207508 0 0 1 0 10.415016zM567.354604 117.395257h-61.450891a5.207508 5.207508 0 0 1 0-10.415015h61.450891a5.207508 5.207508 0 0 1 0 10.415015z" fill="" /></svg>