<?xml version="1.0" encoding="utf-8"?>
<!-- Uploaded to: SVG Repo, www.svgrepo.com, Generator: SVG Repo Mixer Tools -->
<svg width="800px" height="800px" viewBox="0 0 1024 1024" class="icon"  version="1.1" xmlns="http://www.w3.org/2000/svg"><path d="M676.170113 1019.891302l-240.696984-3.27066c-21.999416 1.666346-43.812736-4.716854-60.411731-17.67908-16.601428-12.943981-26.560582-31.366226-27.568903-50.995051l-112.086701-693.479671c-1.005889-5.505023 0.783304-11.117082 4.870109-15.335248 4.086805-4.229113 10.068622-6.625246 16.326542-6.548618H863.576867c6.26765-0.076628 12.239737 2.320721 16.338704 6.548618 4.089237 4.218166 5.871133 9.831441 4.860379 15.335248L763.965868 951.215955c-2.039753 19.715184-10.946798 37.970794-27.510521 50.928154-16.545477 12.948846-38.299198 19.361237-60.285234 17.747193z" fill="#DD8052" /><path d="M167.489425 189.256763c-8.291592 0-15.584592-5.925867-16.927399-14.23692l-12.664229-78.362047H224.904166c9.478711 0 17.162147 7.561805 17.162147 16.887261 0 9.327888-7.683436 16.887261-17.162147 16.887261H178.112685l6.347927 39.281977c1.488765 9.211123-4.894435 17.865175-14.253948 19.329613-0.912233 0.143525-1.822034 0.212854-2.717239 0.212855z" fill="#0C0C0C" /><path d="M704.428664 234.079036l160.986049 2.492222c6.918377-0.746815 15.711088 5.974519 18.16317 10.375132 2.443569 4.38845 3.208628 8.778116 1.873119 15.683113L762.447912 957.825388c-1.896229 20.592144-20.576332 43.624207-32.988785 49.208291-3.769348 1.695537-19.092433 12.857623-45.818432 12.718963l-7.470582 0.13866-62.727587-1.005889c-14.858454 0.617886-28.185573-15.135773-38.395287-28.793729" fill="#DD8052" /><path d="M600.188386 1021.093017H345.750737c-53.829056 0-68.190039-36.293502-68.190039-57.743145l0.049869-1.296587c0.019461-0.226234 0.026759-0.4549 0.024326-0.676269L162.125494 246.581496c-1.488765-9.211123 4.894435-17.863958 14.253948-19.332045 9.406949-1.460789 18.158306 4.817808 19.645854 14.026497l115.753877 716.329288 0.052302 0.670187c0.145957 1.843927 0.165418 3.710965 0.057166 5.569488 0.162986 8.993403 4.927276 23.473584 33.86088 23.473584h254.437649c30.676578 0 33.730734-17.483253 33.860879-23.545346a45.192032 45.192032 0 0 1 0.043788-5.339605l0.172716-1.498495 133.5704-826.502731H288.652238c-9.478711 0-17.162147-7.558156-17.162147-16.887261 0-9.325456 7.683436-16.887261 17.162147-16.887261h519.398819L668.316393 961.3162c-0.004865 0.29678 0.004865 0.598425 0.024326 0.89034l0.037706 1.143332c0 19.975474-14.250299 57.743145-68.190039 57.743145z" fill="#0C0C0C" /></svg>