<?xml version="1.0" encoding="utf-8"?>
<!-- Uploaded to: SVG Repo, www.svgrepo.com, Generator: SVG Repo Mixer Tools -->
<svg width="800px" height="800px" viewBox="0 0 1024 1024" class="icon"  version="1.1" xmlns="http://www.w3.org/2000/svg"><path d="M153.801275 381.157785a4.280198 4.280198 0 0 1-4.103833-5.505023 291.047391 291.047391 0 0 1 11.831056-32.486448 4.281414 4.281414 0 0 1 7.857369 3.403238 282.70958 282.70958 0 0 0-11.483191 31.527995 4.283847 4.283847 0 0 1-4.101401 3.060238zM437.729598 753.86221c-81.796909 0-158.235969-31.840587-215.233515-89.654278-55.797047-56.596163-85.906824-131.265491-84.784169-210.251505a292.65657 292.65657 0 0 1 1.281992-23.337358c0.222585-2.352345 2.295179-4.1014 4.668201-3.854489a4.281414 4.281414 0 0 1 3.85449 4.668201c-0.712758 7.486394-1.131169 15.106582-1.24307 22.647709-1.091031 76.675024 28.143002 149.164722 82.318707 204.116434 55.376204 56.169238 129.647797 87.101241 209.136148 87.101241 94.995099 0 184.2857-45.826947 238.857922-122.589545a4.283847 4.283847 0 0 1 5.97087-1.008322 4.283847 4.283847 0 0 1 1.008322 5.969654c-56.174104 79.018855-148.07734 126.192258-245.835898 126.192258zM693.120835 612.674055a4.283847 4.283847 0 0 1-3.263363-7.050955 249.156427 249.156427 0 0 1 21.218544-22.105234 4.281414 4.281414 0 1 1 5.796938 6.302923 239.58406 239.58406 0 0 0-20.482676 21.340175 4.278982 4.278982 0 0 1-3.269443 1.513091zM767.000776 554.160985a4.281414 4.281414 0 0 1-1.927853-8.105496 233.076796 233.076796 0 0 1 10.594069-5.012417c60.670805-26.680996 98.884861-86.261987 97.365689-151.79317-2.005697-86.463894-72.40334-155.883624-160.265992-158.040143-4.339797-0.160553-8.999484-0.103386-13.908516 0.172716-42.911449 2.437487-86.758242-7.133664-126.721353-27.683236-41.990702-21.522622-89.526565-32.639704-137.132974-32.263864-99.212049 0.872095-190.37212 51.093573-243.852095 134.341541a4.275333 4.275333 0 0 1-5.91492 1.28929 4.280198 4.280198 0 0 1-1.28929-5.91492c55.046583-85.686672 148.871591-137.378669 250.980893-138.277523 49.04044-0.39895 97.898433 11.053834 141.118826 33.208937 38.613006 19.855059 80.910219 29.111186 122.328038 26.752758 5.170538-0.289482 10.100246-0.351514 14.65533-0.182446 44.312639 1.087382 86.189008 18.896606 117.859312 50.147283 31.681251 31.259191 49.686301 72.545648 50.704353 116.253781 1.597016 69.011049-38.62517 131.74715-102.472978 159.824471a225.632973 225.632973 0 0 0-10.197551 4.823889 4.2729 4.2729 0 0 1-1.922988 0.458549z" fill="#040000" /><path d="M791.905959 588.692052c16.616023 0 30.064773 13.445101 30.064773 30.061125 0 16.61724-13.44875 30.063557-30.064773 30.063557-16.619672 0-30.062341-13.446317-30.062341-30.063557 0-16.616023 13.442668-30.061124 30.062341-30.061125zM843.902034 398.137486c1.469304 64.38177-36.427296 120.125299-91.359546 144.660723-35.939555 16.135581-66.422739 42.216936-88.996253 74.489313-48.896915 69.846655-129.909304 115.485073-221.597254 115.485073-150.693625 0-272.535139-123.228108-270.417542-274.409474C173.653902 312.231878 293.290244 193.326539 439.421487 192.021437c45.885329-0.405032 89.161672 10.592852 127.222473 30.398043 35.127059 18.339536 74.327544 27.54701 113.857649 25.266427 4.317904-0.242046 8.718517-0.325971 13.035204-0.162986 81.827317 2.038537 148.48967 68.866308 150.365221 150.614565z" fill="#F1E89D" /><path d="M597.613669 398.463457c0-63.328444-51.345349-114.75407-114.752854-114.75407-63.324795 0-114.670145 51.346565-114.670145 114.75407 0 63.322363 51.344133 114.749205 114.670145 114.749205 63.407505 0 114.752854-51.426842 114.752854-114.749205z" fill="#F1E89D" /><path d="M224.668415 458.363121c1.958261-138.06102 108.80631-251.750818 243.848445-265.036582-9.537094-0.897637-19.234741-1.387811-29.09659-1.305102C293.290244 193.326539 173.653902 312.231878 171.531439 458.363121c-2.201523 151.182582 119.725133 274.409474 270.417542 274.409474 8.965428 0 17.845714-0.490173 26.567879-1.303885C330.294071 718.01996 222.633526 600.497566 224.668415 458.363121z m0 0" fill="#DCD57F" /><path d="M482.860815 283.709387c63.324795 0 114.752854 51.346565 114.752854 114.749205 0 63.326012-51.345349 114.75407-114.752854 114.75407-63.324795 0-114.670145-51.347782-114.670145-114.75407 0-63.323579 51.345349-114.749205 114.670145-114.749205z m0 0" fill="#F5C71D" /><path d="M437.302673 398.463457c0-51.346565 33.658972-94.785894 80.195028-109.455819a115.084907 115.084907 0 0 0-34.55661-5.298251c-63.324795 0-114.668928 51.346565-114.668928 114.75407 0 63.322363 51.342917 114.749205 114.668928 114.749205a115.221133 115.221133 0 0 0 34.55661-5.29825c-46.536056-14.672359-80.195028-58.11047-80.195028-109.450955z m0 0" fill="#DAB936" /><path d="M756.990537 488.016781c-3.405671 0-6.742011-1.408488-9.110168-4.14762-4.373854-5.036744-3.852057-12.670311 1.184686-17.040516 20.447403-17.853012 31.856399-43.706917 31.260407-70.970526-0.515716-23.259514-10.072271-45.336773-26.739379-62.080509-16.74252-16.74252-38.819779-26.297858-62.157137-26.888986-2.663721-0.075411-5.183917 0-7.702897 0.145958-43.636371 2.522629-88.604602-7.40855-129.051805-28.445864a192.302405 192.302405 0 0 0-26.741812-11.481975c-6.299274-2.150438-9.631966-9.039623-7.480312-15.336464 2.144356-6.295625 9.033541-9.628317 15.334032-7.482745 10.223093 3.557709 20.29658 7.852503 30.001525 12.889247 36.597579 19.040131 77.116545 28.08097 116.454473 25.784575 3.262146-0.221369 6.447664-0.221369 9.784005-0.149606 29.555139 0.740733 57.485287 12.816268 78.596795 34.003188 21.112725 21.18692 33.111632 49.114635 33.856015 78.600444 0.810063 34.445925-13.632413 67.191448-39.488751 89.789288-2.369374 1.775814-5.183917 2.812111-7.999677 2.812111z m-264.839539-229.800054c-0.518148 0-1.037513 0-1.629857-0.076628a197.18711 197.18711 0 0 0-26.520443-1.775814h-1.851225c-6.594838 0.072979-12.152162-5.261761-12.223925-11.927145-0.076628-6.669033 5.260545-12.150946 11.925928-12.223924h2.075027c10.000508 0 20.003449 0.665322 29.708394 1.92542 6.591189 0.89034 11.25939 6.962164 10.371483 13.557001-0.667755 6.149668-5.854104 10.521089-11.855382 10.52109z m56.598596 196.38921c-3.111323 0-6.152101-1.183471-8.520258-3.556493a12.063372 12.063372 0 0 1-3.554061-8.556748 12.065804 12.065804 0 0 1 3.554061-8.555531c10.445678-10.448111 16.147744-24.298243 16.147744-38.965736 0-17.632859-8.590804-34.376596-22.962734-44.746863-5.410151-3.926252-6.6666-11.480759-2.742781-16.893342 3.923819-5.405286 11.481975-6.664168 16.893342-2.737916 20.666339 14.890078 32.966891 38.96452 32.966891 64.376904 0 21.18692-8.222262 41.03833-23.261946 56.076799a12.075535 12.075535 0 0 1-8.520258 3.558926z m0 0M494.071553 327.777548a12.074318 12.074318 0 0 0 18.113302 10.457841 12.075535 12.075535 0 0 0-6.036551-22.532159c-6.670249 0-12.076751 5.407718-12.076751 12.074318z m0 0" fill="#FFFFFF" /><path d="M679.520046 442.225108c0 7.335571 5.94776 13.282115 13.28698 13.282115 7.334355 0 13.283332-5.946544 13.283332-13.282115 0-7.336787-5.948977-13.284548-13.283332-13.284548-7.340436 0-13.28698 5.94776-13.28698 13.284548z m0 0M467.459886 604.411655c0 7.335571 5.946544 13.283332 13.282115 13.283331 7.336787 0 13.284548-5.94776 13.284548-13.283331 0-7.33922-5.94776-13.28698-13.284548-13.286981-7.335571 0-13.282115 5.94776-13.282115 13.286981z m0 0M279.357402 337.251394a13.269952 13.269952 0 0 0 6.638625 11.507517 13.285764 13.285764 0 1 0 0-23.010169 13.268736 13.268736 0 0 0-6.638625 11.502652z m0 0" fill="#F1E7C7" /><path d="M791.90231 658.706558c-22.028607 0-39.950948-17.923558-39.950949-39.955814a39.795261 39.795261 0 0 1 10.800841-27.328074 4.281414 4.281414 0 1 1 6.243324 5.85897 31.271354 31.271354 0 0 0-8.482552 21.469104c0 17.309321 14.081232 31.394201 31.389336 31.394201 17.310537 0 31.395417-14.083664 31.395417-31.394201 0-17.306888-14.083664-31.386903-31.395417-31.386903-4.901733 0-9.596693 1.092247-13.943789 3.252415a4.277766 4.277766 0 0 1-5.738555-1.933934 4.280198 4.280198 0 0 1 1.931502-5.737339c5.543945-2.748863 11.516032-4.143971 17.750842-4.143971 22.032256 0 39.95703 17.919909 39.95703 39.949732 0 22.03104-17.923558 39.955814-39.95703 39.955814z" fill="#040000" /></svg>