<?xml version="1.0" encoding="utf-8"?>
<!-- Uploaded to: SVG Repo, www.svgrepo.com, Generator: SVG Repo Mixer Tools -->
<svg width="800px" height="800px" viewBox="0 0 1024 1024" class="icon"  version="1.1" xmlns="http://www.w3.org/2000/svg"><path d="M713.799523 77.314005l0.147263-0.441791c0.065974-0.241512 0.156688-0.57963 0.249759-0.948378 0.764593-2.899326 1.1463-4.350757 2.446933-5.630183l0.692728-0.67859 146.904304-67.783681c5.446398-4.128094 15.080974-1.055586 22.161409 6.987365 7.363181 8.356327 4.633503 21.379144-0.395845 26.324846l-0.696262 0.682125-130.980983 60.261454-120.64661 397.578807-42.323567-12.844923 122.440871-403.507051z m-87.541747 402.455L743.860152 92.210016c0.38642-1.674093 0.802292-2.365643 0.981365-2.663705 0.273321-0.457106 0.718647-1.088573 1.758917-1.959195l0.571383-0.474778L878.541575 26.669455c1.056764-1.917961 2.349149-7.240658-0.508943-10.486349-2.59184-2.951163-5.226092-4.520404-6.824785-5.005785a4.234124 4.234124 0 0 0-0.546643-0.13077l-0.188497 0.187319-145.375119 67.070925c-0.037699 0.15551-0.078933 0.309843-0.120167 0.455928-0.183785 0.695084-0.371104 1.323016-0.520724 1.787191L605.262695 473.397791l20.995081 6.371214z" fill="#040000" /><path d="M249.516184 384.185486c16.811616 161.372661 141.10683 286.718748 292.020238 286.718748 150.9193 0 275.215691-125.346087 292.026129-286.718748 0 0-118.946599 18.058055-146.477828-1.119204-13.653105-9.51323-59.767827-36.650972-80.071358-29.406779-32.918722 11.745747-57.079382 55.353452-98.84099 58.81238-46.297328 3.834745-106.642428-26.625264-142.912871-31.814834-28.169765-4.030311-115.74332 3.528437-115.74332 3.528437z" fill="#EA5351" /><path d="M791.173011 389.197162c-22.414702 155.07449-137.004654 264.923731-287.075715 264.923731-27.315636 0-53.751224-4.004393-78.900318-11.36993 35.210144 15.628794 73.74609 24.318526 114.188217 24.318526 154.223895 0 276.99817-125.346087 294.177356-286.718748l-42.38954 8.846421z" fill="#C64241" /><path d="M528.8906 1023.991753c-11.113102 0-22.239164-0.206169-33.060095-0.613795a5.757419 5.757419 0 0 1-5.533578-5.9683c0.120167-3.175004 2.813324-5.604265 5.9683-5.5324 10.673668 0.402913 21.653644 0.607904 32.624195 0.607904 108.788943 0 168.13265-18.825004 168.13265-28.497279 0-7.827356-41.646154-24.617766-137.909442-27.96713l-5.553605-0.192031V673.536129l5.044662-0.796401c108.21167-13.277289 269.204979-111.185217 269.20498-326.507024 0-35.316174-5.076472-70.163461-15.093933-103.646497H253.487589c-10.016283 33.483036-15.091577 68.330323-15.091576 103.646497 0 112.10532 50.635126 215.305314 135.442481 276.058039a5.751528 5.751528 0 1 1-6.696372 9.350652c-87.824493-62.906309-140.253879-169.599396-140.253878-285.408691 0-37.902123 5.667882-75.287057 16.849315-111.113352l1.25822-4.040914h576.214299l1.25822 4.040914c11.180255 35.826295 16.846959 73.211229 16.846959 111.113352 0 122.491529-51.948717 200.664953-95.526969 244.676749-48.617025 49.091803-115.072976 83.445462-178.728563 92.578163l0.007068 261.249209c33.89184 1.467924 143.461869 8.594305 143.46187 39.248702 0 31.646364-117.503415 40.006226-179.638063 40.006226z" fill="" /><path d="M448.766227 1012.588836c-0.192032 0-0.382885-0.009425-0.577273-0.028275-45.133356-4.489773-98.929349-14.243338-98.929349-35.233706 0-31.394249 120.99533-37.508635 151.881815-38.55833V686.300941c-32.419204-3.619151-63.857043-12.727112-93.534787-27.097686a5.75035 5.75035 0 0 1-2.670773-7.685983c1.386634-2.856914 4.839672-4.051517 7.682448-2.670773 30.025286 14.539043 61.924944 23.465575 94.813036 26.532193l5.217845 0.485381v274.108269l-5.616046 0.135482c-97.38956 2.352684-146.268125 18.716618-146.268125 27.217853 0 4.690052 22.300426 17.193323 88.560811 23.784843a5.751528 5.751528 0 0 1 5.154227 6.293458 5.746816 5.746816 0 0 1-5.713829 5.184858zM396.424022 654.376542a5.713829 5.713829 0 0 1-2.849846-0.761058 305.431832 305.431832 0 0 1-14.878339-9.083221 5.753884 5.753884 0 0 1-1.681161-7.96166 5.760953 5.760953 0 0 1 7.959304-1.685874 291.285098 291.285098 0 0 0 14.309312 8.74039 5.752706 5.752706 0 0 1 2.141803 7.848563 5.749172 5.749172 0 0 1-5.001073 2.90286z" fill="" /><path d="M389.66521 603.580016a5.7315 5.7315 0 0 1-3.663919-1.318304 317.743071 317.743071 0 0 1-27.497064-25.650968 5.753884 5.753884 0 0 1 8.330409-7.93692 305.901897 305.901897 0 0 0 26.501562 24.717905 5.755063 5.755063 0 0 1-3.670988 10.188287zM348.172211 562.070523a5.74446 5.74446 0 0 1-4.434403-2.082897c-13.051092-15.748961-24.737933-32.910475-34.742434-51.008586a5.749172 5.749172 0 0 1 2.251366-7.817932c2.768556-1.542145 6.276965-0.534861 7.816753 2.252545 9.661672 17.470179 20.942066 34.033213 33.536052 49.231998a5.755063 5.755063 0 0 1-4.427334 9.424872z" fill="#FFFFFF" /><path d="M498.03239 499.221941c0 6.886047-5.572456 12.465572-12.458503 12.465571-6.889582 0-12.462037-5.579524-12.462037-12.465571 0-6.878979 5.572456-12.460859 12.462037-12.460859 6.886047 0 12.458503 5.581881 12.458503 12.460859z" fill="#ED8180" /><path d="M479.344047 549.510702m-6.231019 0a6.231019 6.231019 0 1 0 12.462038 0 6.231019 6.231019 0 1 0-12.462038 0Z" fill="#ED8180" /><path d="M547.885252 538.277433a6.525546 6.525546 0 1 1-13.049914 0 6.520833 6.520833 0 0 1 6.525546-6.525546 6.524368 6.524368 0 0 1 6.524368 6.525546zM524.151067 573.406288a4.747779 4.747779 0 0 1-4.75367 4.747779 4.743067 4.743067 0 0 1-4.741888-4.747779 4.743067 4.743067 0 0 1 4.741888-4.74778 4.747779 4.747779 0 0 1 4.75367 4.74778zM502.579891 598.431679a4.646462 4.646462 0 0 1-4.644106 4.646462 4.652353 4.652353 0 0 1-4.645283-4.646462 4.651174 4.651174 0 0 1 4.645283-4.645283 4.646462 4.646462 0 0 1 4.644106 4.645283zM572.915356 588.294051a10.13645 10.13645 0 0 1-10.139985 10.137628c-5.604265 0-10.139984-4.538076-10.139984-10.137628s4.536898-10.138806 10.139984-10.138806a10.13645 10.13645 0 0 1 10.139985 10.138806zM541.360884 611.091639a3.261006 3.261006 0 0 1-3.265718 3.261006 3.256293 3.256293 0 0 1-3.259828-3.261006 3.263362 3.263362 0 0 1 6.525546 0zM581.120885 553.610522a4.100997 4.100997 0 1 1-8.204351 0 4.103354 4.103354 0 0 1 8.204351 0zM576.898542 524.689124a7.060407 7.060407 0 1 1-14.123171 0 7.061585 7.061585 0 1 1 14.123171 0z" fill="#ED8180" /><path d="M162.640068 112.578342c-27.796304 24.924074-45.284154 61.110871-45.284154 101.365678 0 75.162177 60.911771 136.124606 136.124606 136.124607 47.986737 0 90.130052-24.843963 114.387317-62.323145 13.757957-21.248374 21.732577-46.573006 21.732577-73.801462 0-66.017695-47.01244-121.050702-109.383888-133.498601a138.566826 138.566826 0 0 0-26.737184-2.622471c-6.650425 0-13.18893 0.474778-19.583706 1.397238" fill="#FFFFFF" /><path d="M253.48052 355.822511c-78.233507 0-141.878491-63.644983-141.878491-141.878491 0-40.24656 17.202748-78.753054 47.196226-105.649282a5.75035 5.75035 0 0 1 8.12424 0.441791 5.752706 5.752706 0 0 1-0.441791 8.12424c-27.563039 24.715549-43.372083 60.10241-43.372084 97.082073 0 71.887034 58.483688 130.3719 130.3719 130.3719 44.408819 0 85.364601-22.316919 109.559427-59.695962 13.611872-21.025712 20.80894-45.464405 20.808939-70.675938 0-61.972069-44.057743-115.740964-104.757454-127.854281-14.713404-2.895792-29.866242-3.269253-44.373476-1.173396-3.131414 0.445325-6.060193-1.728286-6.513765-4.875016a5.752706 5.752706 0 0 1 4.872659-6.516121c15.789017-2.270216 32.240131-1.876728 48.249455 1.275892 66.078957 13.187752 114.027994 71.703249 114.027994 139.142922 0 27.435803-7.835603 54.037504-22.657393 76.929341-26.32249 40.67068-70.889176 64.950328-119.216386 64.950328z" fill="" /><path d="M212.650796 84.057501a135.384754 135.384754 0 0 0-28.862493 12.943884" fill="#FFFFFF" /><path d="M183.794194 102.754091a5.753884 5.753884 0 0 1-2.955876-10.692517 141.361301 141.361301 0 0 1 30.088905-13.492883 5.742103 5.742103 0 0 1 7.211205 3.764059 5.751528 5.751528 0 0 1-3.764058 7.214739 129.994905 129.994905 0 0 0-27.636082 12.393707 5.742103 5.742103 0 0 1-2.944094 0.812895z" fill="" /><path d="M253.48052 90.128297c7.490417 0 14.779378 0.662097 21.916362 1.935633 57.912305 10.350866 101.895827 60.964785 101.895828 121.88009 0 25.643899-7.795547 49.449948-21.103467 69.173849-22.22267 32.983518-59.939831 54.646587-102.713435 54.646587-68.358598 0-123.815723-55.407645-123.815723-123.820436 0-68.405722 55.41118-123.815723 123.820435-123.815723z" fill="#DFD250" /><path d="M275.239016 226.943275l53.373051 63.669724a106.147623 106.147623 0 0 0 13.458717-16.109463 107.52601 107.52601 0 0 0 16.830466-40.577609c-27.891731-2.343259-47.769964-3.972584-61.887245-5.143624-9.740605-0.86591-16.773916-1.429046-21.774989-1.839028zM146.327971 214.813465c0.103674 27.627835 10.858631 48.478008 19.266795 60.555981l63.259742-53.064386-82.526537-7.491595zM252.509759 106.998818c-21.864525 0.355789-43.784422 7.49513-61.225148 19.88059l53.833692 64.179845 7.391456-84.060435zM277.134593 207.422009l8.304491 0.711578 75.24111 6.576204c-0.202635-23.244091-6.625685-44.040071-19.118353-61.880176-19.317454 16.308563-43.432167 36.749933-58.673363 49.649048a173.026515 173.026515 0 0 1-5.753885 4.943346z m0 0M233.799031 319.515548l7.240658-82.323902-63.106587 52.910054c15.294211 15.192894 34.815478 25.486032 55.865929 29.413848zM176.707868 139.320239c-15.088042 15.548683-25.130243 35.273762-28.798875 56.478546l82.481769 7.543432L176.707868 139.320239z m137.074162 163.526244l-53.627522-64.026691-7.240658 82.479413h0.104852c27.935321 0.049481 48.833797-10.447471 60.763328-18.452722z m15.447366-164.700819c-15.701837-15.596985-35.789774-25.997332-57.501145-29.720156h-0.101317l-0.156689 1.631681-2.086431 23.807227-5.150693 58.724022c3.259828-2.702582 7.188821-6.016603 11.570209-9.684056 15.958665-13.359756 37.672392-31.606309 53.426066-44.758718z m0 0" fill="#D32C29" /></svg>