<?xml version="1.0" encoding="utf-8"?>
<!-- Uploaded to: SVG Repo, www.svgrepo.com, Generator: SVG Repo Mixer Tools -->
<svg width="800px" height="800px" viewBox="0 0 1024 1024" class="icon"  version="1.1" xmlns="http://www.w3.org/2000/svg"><path d="M577.347405 965.978562c0 27.2368-22.081366 49.321504-49.321504 49.321504h-40.553706c-27.239025 0-49.321504-22.084704-49.321505-49.321504v-333.445542c0-27.239025 22.082479-49.320392 49.321505-49.320391h40.553706c27.240138 0 49.321504 22.081366 49.321504 49.320391v333.445542z" fill="#CEBE7B" /><path d="M528.025901 1023.998887h-40.553706c-31.992838 0-58.021438-26.0286-58.021438-58.020325v-333.445542c0-31.992838 26.0286-58.020325 58.021438-58.020325h40.553706c31.991726 0 58.020325 26.0286 58.020325 58.020325v333.445542c0 31.992838-26.0286 58.020325-58.020325 58.020325z m-40.553706-432.087437c-22.399548 0-40.62157 18.223135-40.621571 40.62157v333.445542c0 22.398436 18.222022 40.62157 40.621571 40.621571h40.553706c22.398436 0 40.62157-18.223135 40.62157-40.621571v-333.445542c0-22.398436-18.223135-40.62157-40.62157-40.62157h-40.553706z" fill="" /><path d="M761.41998 230.801899c0-119.812105-95.685921-216.942081-213.720214-216.942081h-19.966459c-118.03763 0-213.725776 97.128864-213.725776 216.942081v314.620532c0 8.427365 0.522886 16.725678 1.444056 24.904951v142.718964c0 27.240138 21.938963 49.320392 49.003322 49.320391H710.974827c27.065472 0 49.004435-22.080254 49.004435-49.320391V570.305131c0.921169-8.171485 1.44183-16.46201 1.44183-24.881588v-314.621644z" fill="#00A0E9" /><path d="M563.194994 16.199455C645.340391 47.241085 704.036018 129.246304 704.036018 225.539663v322.884356c0 8.64097-0.520661 17.150662-1.441831 25.535752V720.447965c0 16.040364-7.241415 30.307365-18.509053 39.579135 26.367919-0.798792 47.508091-22.507463 47.508091-49.242515V568.043371c0.921169-8.16926 1.44183-16.46201 1.44183-24.880475V228.542364c0-104.54272-72.856939-191.795713-169.840061-212.342909z" fill="#2795B4" /><path d="M373.851283 207.640272a7.251428 7.251428 0 0 1-7.235853-7.804352c2.515416-32.847256 17.349804-63.008881 41.768582-84.924481a7.245866 7.245866 0 0 1 10.237441 0.551812 7.248091 7.248091 0 0 1-0.551812 10.237441c-21.628569 19.412422-34.768584 46.135237-36.998081 75.243302a7.248091 7.248091 0 0 1-7.220277 6.696278zM431.594589 114.032546a7.245866 7.245866 0 0 1-6.233469-3.537825 7.248091 7.248091 0 0 1 2.512078-9.939285 123.450057 123.450057 0 0 1 63.223598-17.410993h4.728225a7.249203 7.249203 0 1 1 0 14.499519h-4.728225a108.936076 108.936076 0 0 0-55.795278 15.36395 7.228065 7.228065 0 0 1-3.706929 1.024634z" fill="#FFFFFF" /><path d="M446.850624 774.485456h121.796847v103.672727H446.850624z" fill="#B6A86D" /><path d="M594.664946 550.455487c0-49.708662-36.145888-90.005376-80.736943-90.005376h-7.541797c-44.593279 0-80.741393 40.296713-80.741392 90.005376v130.530157c0 3.497774 0.195804 6.939922 0.546249 10.333118v59.214063c0 11.296564 8.287188 20.46487 18.510166 20.46487h130.907302c10.222978 0 18.513503-9.167194 18.513503-20.46487v-59.224076c0.34822-3.388747 0.541799-6.827557 0.541799-10.321993V550.455487z" fill="#2795B4" /><path d="M731.454159 395.685669a8.697709 8.697709 0 0 1-8.698821-8.699934V225.642015c0-114.82355-91.97343-208.241035-205.020279-208.241035h-19.96646c-56.69976 0-111.39364 24.181811-150.060506 66.345339-3.243006 3.54005-8.748885 3.780355-12.292272 0.530673a8.699934 8.699934 0 0 1-0.530674-12.292272c41.951036-45.745854 101.31974-71.983608 162.883452-71.983607h19.96646c122.642365 0 222.419035 101.221838 222.419034 225.640902v161.342607a8.698821 8.698821 0 0 1-8.699934 8.701047zM731.454159 482.681668a8.698821 8.698821 0 0 1-8.698821-8.699933v-37.701197a8.698821 8.698821 0 1 1 17.397643 0v37.701197a8.697709 8.697709 0 0 1-8.698822 8.699933zM681.010119 765.9079H334.489089c-31.818172 0-57.702144-26.0286-57.702144-58.021438V565.651446c-0.958995-8.656545-1.444055-17.196276-1.444055-25.387787v-314.621644c0-15.679906 1.595359-31.346462 4.7438-46.563558 0.973458-4.702637 5.575968-7.724251 10.281942-6.757468a8.702159 8.702159 0 0 1 6.757468 10.283055 212.912521 212.912521 0 0 0-4.383343 43.039084V540.263659c0 7.69755 0.46726 15.748883 1.389542 23.930381l0.055626 0.973458v142.718964c0 22.398436 18.079619 40.62157 40.303389 40.62157h346.52103c22.224882 0 40.303389-18.223135 40.303389-40.62157l0.054514-143.715785c0.921169-8.16926 1.388429-16.211692 1.388429-23.907018v-40.181011a8.698821 8.698821 0 1 1 17.397642 0v40.181011c0 8.189285-0.483948 16.720116-1.440718 25.365536v142.257267c-0.002225 31.991726-25.889534 58.021438-57.705481 58.021438zM299.673779 152.743913c-1.07581 0-2.169421-0.201367-3.229656-0.626351a8.699934 8.699934 0 0 1-4.843927-11.309913 226.754539 226.754539 0 0 1 19.770655-38.330885 8.698821 8.698821 0 0 1 12.024154-2.60998 8.699934 8.699934 0 0 1 2.60998 12.023041 209.128829 209.128829 0 0 0-18.250948 35.382698 8.702159 8.702159 0 0 1-8.080258 5.47139z" fill="" /><path d="M581.877601 596.080076m-24.201836 0a24.201836 24.201836 0 1 0 48.403672 0 24.201836 24.201836 0 1 0-48.403672 0Z" fill="" /><path d="M442.681999 593.905092m-24.201836 0a24.201836 24.201836 0 1 0 48.403672 0 24.201836 24.201836 0 1 0-48.403672 0Z" fill="" /><path d="M469.882086 642.662547a41.44595 41.44595 0 0 0-1.148125 9.675617c0 22.874596 18.543542 41.418137 41.421475 41.418137 22.876821 0 41.420362-18.544654 41.420362-41.418137 0-3.334233-0.406071-6.570564-1.148124-9.675617h-80.545588z" fill="" /><path d="M529.829302 665.615019c0 7.407181-6.003177 13.411471-13.411471 13.411471h-12.518115c-7.408294 0-13.411471-6.003177-13.41147-13.411471s6.003177-13.413696 13.41147-13.413696h12.518115c7.409406 0.001113 13.411471 6.005402 13.411471 13.413696z" fill="#D25836" /></svg>