<?xml version="1.0" encoding="utf-8"?>
<!-- Uploaded to: SVG Repo, www.svgrepo.com, Generator: SVG Repo Mixer Tools -->
<svg width="800px" height="800px" viewBox="0 0 1024 1024" class="icon"  version="1.1" xmlns="http://www.w3.org/2000/svg"><path d="M501.018903 7.044794c7.959827 0 14.414174 6.453279 14.414174 14.414174v484.695284c0 7.959827-6.454347 14.413106-14.414174 14.413106s-14.414174-6.453279-14.414174-14.413106V21.458968c0-7.960895 6.454347-14.414174 14.414174-14.414174z" fill="#FFFFFF" /><path d="M501.018903 527.612152c-11.831368 0-21.458968-9.628668-21.458968-21.458968V21.458968c0-11.832435 9.6276-21.458968 21.458968-21.458968s21.458968 9.6276 21.458968 21.458968v484.695284c0 11.8303-9.6276 21.4579-21.458968 21.4579z m0-513.522564c-4.063729 0-7.367244 3.305651-7.367244 7.36938v484.695284c0 4.063729 3.304583 7.367244 7.367244 7.367244a7.374718 7.374718 0 0 0 7.368312-7.367244V21.458968a7.374718 7.374718 0 0 0-7.368312-7.36938z" fill="" /><path d="M310.059927 394.906725l44.246175 568.881533c0 29.362206 22.460486 53.164812 50.166664 53.164813h218.231661c27.70511 0 50.165596-23.802606 50.165597-53.164813l44.246175-568.881533h-407.056272z" fill="#DA9EC5" /><path d="M326.193125 249.7293c-21.746184 33.489998-34.373 73.445021-34.373001 116.349077h427.877814c0-118.154585-95.783787-213.93944-213.938373-213.93944-30.672294 0-59.836973 6.455414-86.210641 18.080712" fill="#FBE7F0" /><path d="M726.743799 373.123171H284.774263v-7.044794c0-42.849602 12.278741-84.41047 35.50905-120.18645a7.046929 7.046929 0 0 1 11.819623 7.672611c-20.468127 31.522197-31.855324 67.850186-33.118433 105.467977h413.549056c-3.730602-110.828982-95.051334-199.848785-206.773994-199.848784-29.002386 0-57.050233 5.882051-83.369447 17.482791a7.035185 7.035185 0 0 1-9.288066-3.605679 7.045862 7.045862 0 0 1 3.605679-9.288066c28.119384-12.395122 58.081647-18.679702 89.051834-18.679702 121.85102 0 220.984234 99.133214 220.984234 220.984234v7.045862z" fill="" /><path d="M384.014249 190.135767a215.080829 215.080829 0 0 0-33.166481 28.387381" fill="#FBE7F0" /><path d="M350.846701 225.567942a7.046929 7.046929 0 0 1-5.100483-11.90504 222.608231 222.608231 0 0 1 34.254484-29.31843 7.044794 7.044794 0 1 1 8.026026 11.581522 208.292287 208.292287 0 0 0-32.079545 27.456332 7.019169 7.019169 0 0 1-5.100482 2.185616z" fill="" /><path d="M677.97798 394.375002l-44.24404 568.881534c0 29.363274-22.464757 53.164812-50.1688 53.164812h39.139287c27.702975 0 50.168799-23.801538 50.1688-53.164812l44.24404-568.881534h-39.139287z" fill="#B687A7" /><path d="M316.141641 721.714486c-3.630236 0-6.711666-2.78674-7.015966-6.469295L282.054789 386.797417h447.408485l-13.624064 165.313492c-0.31818 3.877947-3.650523 6.774662-7.600007 6.44367a7.049065 7.049065 0 0 1-6.444737-7.600007l12.367361-150.066499H297.356235l25.815252 313.203984a7.047997 7.047997 0 0 1-7.029846 7.622429zM621.591867 1024H389.928331c-33.149397 0-60.135934-26.890442-60.299294-60.002469l-11.230243-136.274804a7.050133 7.050133 0 0 1 6.444737-7.600006 7.035185 7.035185 0 0 1 7.598939 6.445805l11.277222 137.13218c0 25.478921 20.729718 46.207571 46.208639 46.20757h231.663536c25.477853 0 46.207571-20.72865 46.20757-46.20757l0.022423-0.578703 29.955856-363.44432a7.057607 7.057607 0 0 1 7.601075-6.44367 7.044794 7.044794 0 0 1 6.443669 7.598939l-29.933434 363.164579c-0.160157 33.114162-27.147762 60.002469-60.297159 60.002469zM322.592784 799.974909a7.046929 7.046929 0 0 1-7.015965-6.466092l-3.45086-41.857693a7.049065 7.049065 0 0 1 6.444737-7.600007c3.893962-0.295757 7.280759 2.569994 7.600007 6.445805l3.451927 41.853423a7.0512 7.0512 0 0 1-7.029846 7.624564z" fill="" /><path d="M762.520847 380.492551c0 7.959827-6.454347 14.414174-14.414174 14.414174H263.412457c-7.959827 0-14.414174-6.453279-14.414174-14.414174s6.453279-14.414174 14.414174-14.414174h484.695284c7.958759 0 14.413106 6.454347 14.413106 14.414174z" fill="#FFFFFF" /><path d="M748.106673 399.60361H263.412457c-10.538363 0-19.109991-8.572696-19.109992-19.109991 0-10.538363 8.571629-19.111059 19.109992-19.111059h484.695284c10.538363 0 19.109991 8.572696 19.109991 19.111059 0 10.537295-8.572696 19.109991-19.111059 19.109991z m-484.694216-28.828348c-5.356734 0-9.717289 4.359487-9.717289 9.717289 0 5.356734 4.359487 9.717289 9.717289 9.717289h484.695284c5.357802 0 9.717289-4.359487 9.717288-9.717289 0-5.357802-4.359487-9.717289-9.717288-9.717289H263.412457z" fill="" /><path d="M446.160693 832.435628m-10.137969 0a10.137969 10.137969 0 1 0 20.275938 0 10.137969 10.137969 0 1 0-20.275938 0Z" fill="#E4AACC" /><path d="M475.830401 804.462521m-10.137969 0a10.137969 10.137969 0 1 0 20.275938 0 10.137969 10.137969 0 1 0-20.275938 0Z" fill="#E4AACC" /><path d="M500.625984 782.147245m-10.137969 0a10.137969 10.137969 0 1 0 20.275938 0 10.137969 10.137969 0 1 0-20.275938 0Z" fill="#E4AACC" /><path d="M507.672913 734.544168c0 5.601241-4.538863 10.141172-10.135834 10.141173-5.601241 0-10.139037-4.539931-10.139036-10.141173 0-5.59697 4.537795-10.134766 10.139036-10.134765 5.59697 0 10.135834 4.537795 10.135834 10.134765z" fill="#E4AACC" /><path d="M526.825613 755.693499m-10.137969 0a10.137969 10.137969 0 1 0 20.275938 0 10.137969 10.137969 0 1 0-20.275938 0Z" fill="#E4AACC" /><path d="M456.297594 907.374385m-10.137969 0a10.137969 10.137969 0 1 0 20.275938 0 10.137969 10.137969 0 1 0-20.275938 0Z" fill="#E4AACC" /><path d="M500.628119 943.602009m-10.137969 0a10.137969 10.137969 0 1 0 20.275938 0 10.137969 10.137969 0 1 0-20.275938 0Z" fill="#E4AACC" /><path d="M574.236501 881.954188m-10.137969 0a10.137969 10.137969 0 1 0 20.275938 0 10.137969 10.137969 0 1 0-20.275938 0Z" fill="#E4AACC" /><path d="M539.537847 794.324552m-10.137969 0a10.137969 10.137969 0 1 0 20.275938 0 10.137969 10.137969 0 1 0-20.275938 0Z" fill="#E4AACC" /><path d="M507.673981 873.733838m-10.137969 0a10.137969 10.137969 0 1 0 20.275938 0 10.137969 10.137969 0 1 0-20.275938 0Z" fill="#E4AACC" /><path d="M465.692432 873.733838c0 8.194725-6.641197 14.835922-14.833786 14.835922-8.193657 0-14.835922-6.641197-14.835922-14.835922 0-8.190454 6.642265-14.833787 14.835922-14.833786 8.192589 0.001068 14.833787 6.643333 14.833786 14.833786z" fill="#E4AACC" /><path d="M517.813017 842.573597m-14.834854 0a14.834854 14.834854 0 1 0 29.669709 0 14.834854 14.834854 0 1 0-29.669709 0Z" fill="#E4AACC" /><path d="M554.370566 857.406316m-14.834855 0a14.834854 14.834854 0 1 0 29.669709 0 14.834854 14.834854 0 1 0-29.669709 0Z" fill="#E4AACC" /><path d="M485.792197 842.573597m-14.834854 0a14.834854 14.834854 0 1 0 29.669708 0 14.834854 14.834854 0 1 0-29.669708 0Z" fill="#E4AACC" /><path d="M534.505699 881.954188m-14.834855 0a14.834854 14.834854 0 1 0 29.669709 0 14.834854 14.834854 0 1 0-29.669709 0Z" fill="#E4AACC" /><path d="M465.6935 961.372016m-17.770007 0a17.770007 17.770007 0 1 0 35.540014 0 17.770007 17.770007 0 1 0-35.540014 0Z" fill="#E4AACC" /><path d="M494.773829 906.340835m-17.771075 0a17.771075 17.771075 0 1 0 35.54215 0 17.771075 17.771075 0 1 0-35.54215 0Z" fill="#E4AACC" /><path d="M514.638696 970.668624m-19.865935 0a19.865935 19.865935 0 1 0 39.73187 0 19.865935 19.865935 0 1 0-39.73187 0Z" fill="#E4AACC" /><path d="M554.370566 924.108707m-19.865935 0a19.865935 19.865935 0 1 0 39.73187 0 19.865935 19.865935 0 1 0-39.73187 0Z" fill="#E4AACC" /><path d="M603.431075 860.536861m-14.834854 0a14.834854 14.834854 0 1 0 29.669709 0 14.834854 14.834854 0 1 0-29.669709 0Z" fill="#E4AACC" /><path d="M583.56514 973.798101c0 10.973991-8.894079 19.86807-19.864867 19.868071-10.973991 0-19.867003-8.894079-19.867002-19.868071 0-10.968653 8.893011-19.864867 19.867002-19.864867 10.970788 0 19.864867 8.896215 19.864867 19.864867z" fill="#E4AACC" /><path d="M603.431075 927.24032m-19.865935 0a19.865935 19.865935 0 1 0 39.73187 0 19.865935 19.865935 0 1 0-39.73187 0Z" fill="#E4AACC" /><path d="M416.156789 870.0673m-14.834854 0a14.834854 14.834854 0 1 0 29.669708 0 14.834854 14.834854 0 1 0-29.669708 0Z" fill="#E4AACC" /><path d="M416.156789 968.494753m-19.865935 0a19.865935 19.865935 0 1 0 39.73187 0 19.865935 19.865935 0 1 0-39.73187 0Z" fill="#E4AACC" /><path d="M411.827198 914.380741m-19.865935 0a19.865935 19.865935 0 1 0 39.73187 0 19.865935 19.865935 0 1 0-39.73187 0Z" fill="#E4AACC" /><path d="M543.831135 656.854974a7.82743 5.269181 90 1 0 10.538363 0 7.82743 5.269181 90 1 0-10.538363 0Z" fill="#E4AACC" /></svg>