<?xml version="1.0" encoding="utf-8"?>
<!-- Uploaded to: SVG Repo, www.svgrepo.com, Generator: SVG Repo Mixer Tools -->
<svg width="800px" height="800px" viewBox="0 0 1024 1024" class="icon"  version="1.1" xmlns="http://www.w3.org/2000/svg"><path d="M539.021853 976.722649c0 21.346922-11.701895 38.647219-26.137647 38.647218-14.436929 0-26.141179-17.300296-26.141179-38.647218V624.689756c0-21.345745 11.70425-38.648396 26.141179-38.648396 14.435752 0 26.137647 17.302651 26.137647 38.648396v352.032893z" fill="#E1BA85" /><path d="M522.963683 580.292255c-1.182081 0-2.33355 0.282569-3.448521 0.811209 7.651737 3.655738 13.404374 19.201751 13.404374 37.828945v352.037603c0 18.633081-5.752637 34.175562-13.404374 37.832477 1.113793 0.526285 2.26644 0.815918 3.448521 0.815918 9.305944 0 16.852895-17.301474 16.852895-38.648395V618.932409c0.001177-21.346922-7.546951-38.640154-16.852895-38.640154z" fill="#CFA87E" /><path d="M477.012052 877.285386c-3.22482 0-5.837408-3.862956-5.837408-8.630133V832.695974c0-4.76129 2.612587-8.628956 5.837408-8.628956s5.837408 3.867665 5.837408 8.628956v35.959279c0.001177 4.766-2.61141 8.630133-5.837408 8.630133z" fill="#040000" /><path d="M505.894152 1024c-19.14406 0-34.71833-21.205638-34.71833-47.277351v-83.614568c0-4.766 2.612587-8.63131 5.837407-8.63131s5.837408 3.867665 5.837408 8.63131v83.614568c0 16.55502 10.338499 30.015908 23.043515 30.015908 12.705016 0 23.04116-13.462065 23.041159-30.015908V624.689756c0-16.557375-10.336144-30.015908-23.041159-30.015909-12.706193 0-23.043514 13.458533-23.043515 30.015909v173.490396c0 4.770709-2.61141 8.624246-5.837408 8.624246s-5.837408-3.861778-5.837407-8.624246V624.689756c0-26.067004 15.57427-47.277351 34.71833-47.277352s34.717153 21.213879 34.717152 47.277352v352.032893c0 26.071714-15.573092 47.277351-34.717152 47.277351z" fill="#040000" /><path d="M506.312118 347.058498m-296.099506 0a296.099506 296.099506 0 1 0 592.199013 0 296.099506 296.099506 0 1 0-592.199013 0Z" fill="#CA4450" /><path d="M526.95615 631.122913h8.001416c77.358015-5.331138 149.384892-42.677361 197.398101-106.698112 5.335848-8.006126 5.335848-21.341035-2.665569-26.679237-8.003771-8.001417-21.34339-8.001417-29.344806 0-37.345046 34.681831-72.024522 53.353766-109.373101 58.688435-42.680893 8.001417-85.359432 0-128.040324-18.673111-56.019335-32.008021-85.362964-77.359193-88.029711-133.374995 0-61.352827 34.679477-109.371923 85.362964-120.041263 24.008959-5.337025 50.681132 2.666746 66.69103 24.006604 8.001417 10.668163 8.001417 21.342213 8.001416 26.673351-2.669101 5.335848-5.33467 10.671695-8.001416 10.671695-10.672872-8.001417-26.67806-16.002833-42.682071-8.001417-8.002594 2.665569-29.343629 13.338441-34.679477 40.011792v2.670279c0 40.011792 18.674289 72.022168 53.349057 88.026178 18.674289 10.670518 42.682071 13.340796 69.36013 13.340796 48.014386 0 101.365797-16.00401 133.37735-42.678539 72.022168-53.35612 85.362964-154.72074 32.010376-234.747856 0 0 0-2.670278-2.667924-2.670278-45.352349-64.018396-114.706593-106.700467-189.397862-114.704239h-34.679476c-82.693863 0-157.385132 37.3474-208.070974 104.036076-34.674767 37.345046-53.350234 85.364141-58.686081 136.042919-8.002594 72.026877 10.671695 144.053754 56.020512 200.068379 42.680893 56.019335 106.701644 93.36909 178.726167 101.371684" fill="#FFFFFF" /><path d="M332.220086 503.083766c-37.3474-48.016741-56.018157-109.374278-48.015564-170.72475 5.333493-42.682071 21.339858-82.69504 48.015564-114.705416 42.682071-56.019335 109.371923-85.362964 178.726167-88.02971 10.670518 0 21.341035 0 32.01273 2.665569 61.352827 8.002594 117.374517 40.016502 154.719562 88.032065 48.013209 64.021929 42.678538 149.38136-16.00872 192.06343-40.011792 29.343629-114.703061 45.348817-160.053055 24.006605-21.339858-10.666986-29.342452-26.670996-32.01273-53.350234 0-2.665569 2.670278-5.33467 8.007303-8.001416 2.665569 2.666746 5.331138 5.335848 8.001417 5.335847h2.666746c10.668163 5.332315 21.341035 5.332315 32.010376 2.665569 13.336087-5.33467 26.676883-18.673112 32.011553-37.345045 8.002594-18.675466 5.332315-42.682071-10.670518-64.021929-26.674528-32.010376-69.356599-48.013209-109.371923-37.345046-69.355421 16.00401-117.369807 82.692685-117.369807 162.722157 2.665569 69.358953 40.011792 125.377111 109.367213 165.392435 13.337264 8.001417 26.676883 13.334909 42.682071 16.00401-64.021929-5.33938-117.372162-37.3474-154.718385-85.364141z" fill="#D74854" /><path d="M197.660655 403.90788a6.699244 6.699244 0 0 1-6.567378-5.425328c-3.859424-19.899933-5.816215-40.356762-5.816215-60.802995a6.698066 6.698066 0 1 1 13.396132 0c0 19.591461 1.874375 39.189987 5.571322 58.251631a6.695712 6.695712 0 0 1-5.300526 7.850713 6.640375 6.640375 0 0 1-1.283335 0.125979z" fill="#040000" /><path d="M502.811793 655.215466c-132.408373 0-252.160003-83.427365-297.986833-207.59767a6.699244 6.699244 0 0 1 3.96421-8.604231 6.691002 6.691002 0 0 1 8.604231 3.96421c43.893586 118.931002 158.594292 198.840381 285.418392 198.840381 167.70126 0 304.137421-136.437338 304.137421-304.138599 0-167.702438-136.437338-304.138599-304.137421-304.138599-144.217409 0-269.58981 102.43485-298.106925 243.567546-0.732325 3.626304-4.273858 5.963387-7.893098 5.240481a6.699244 6.699244 0 0 1-5.24048-7.893098C221.347014 127.098428 352.243642 20.144826 502.811793 20.144826c175.090444 0 317.535909 142.445465 317.535909 317.535909 0 175.090444-142.445465 317.534731-317.535909 317.534731z" fill="#040000" /></svg>