<?xml version="1.0" encoding="utf-8"?>
<!-- Uploaded to: SVG Repo, www.svgrepo.com, Generator: SVG Repo Mixer Tools -->
<svg width="800px" height="800px" viewBox="0 0 1024 1024" class="icon"  version="1.1" xmlns="http://www.w3.org/2000/svg"><path d="M659.046474 315.209407c0 13.252924-11.230199 23.991733-25.079115 23.991733H245.150464c-13.853781 0-25.08398-10.740025-25.08398-23.991733 0-13.251707 11.230199-23.991733 25.08398-23.991732h388.815679c13.850132 0.001216 25.080331 10.740025 25.080331 23.991732z" fill="#D8E9B7" /><path d="M633.967359 347.103512H245.150464c-18.186281 0-32.98392-14.308682-32.983919-31.892888s14.797639-31.891672 32.983919-31.891673h388.815679c18.185065 0 32.980271 14.308682 32.980271 31.891673 0.001216 17.582991-14.79399 31.892889-32.979055 31.892888zM245.150464 299.11883c-9.475062 0-17.182824 7.217589-17.182824 16.090577 0 8.872988 7.707762 16.091793 17.182824 16.091794h388.815679c9.470197 0 17.179175-7.218805 17.179175-16.091794 0-8.872988-7.708979-16.090577-17.179175-16.090577H245.150464z" fill="#040000" /><path d="M670.512637 196.930468c0 39.881619-12.009854 72.234273-115.285598 72.234273H351.255347c-101.379515 1.52647-115.286814-32.352654-115.286814-72.234273 0-39.905945 65.196698-73.170832 127.820898-83.147014 58.84269-9.378974 124.035739-8.680811 178.901092 0 62.652175 9.905636 127.822115 43.241069 127.822114 83.147014zM670.512637 427.468824c0-40.407065-12.009854-73.182995-115.285598-73.182996H351.255347c-101.379515-1.543499-115.286814 32.77593-115.286814 73.182996 0 40.430175 65.196698 74.139016 127.820898 84.24291 58.84269 9.498172 124.035739 8.792712 178.901092 0 62.652175-10.038214 127.822115-43.812736 127.822114-84.24291z" fill="#98C95E" /><path d="M543.205022 109.207692c-32.16291-5.185133-67.875015-7.503422-103.770782-6.697008 26.704106 0.582613 52.866954 2.801164 77.000995 6.697008 62.963551 10.161061 128.457029 44.349129 128.457029 85.268261 0 40.904536-12.067021 74.081849-115.857264 74.081849h26.763705c92.989402 15.168613 115.863346-33.177313 115.863346-74.081849 0-40.919132-65.494694-75.107199-128.457029-85.268261zM542.691739 511.72633c-32.004789 5.127967-67.538096 7.410982-103.257499 6.615515 26.571528-0.571666 52.605447-2.764675 76.62029-6.615515 62.650959-10.038214 127.819682-43.809087 127.819682-84.239262 0-40.407065-12.004989-73.185428-115.281949-73.185428h26.634776c103.275744 0 115.285598 32.779579 115.285598 73.185428 0 40.430175-65.169939 74.201048-127.820898 84.239262z" fill="#83AC4F" /><path d="M261.226445 147.160242a7.904805 7.904805 0 0 1-6.808908-3.877599 7.903588 7.903588 0 0 1 2.778054-10.823951c8.283077-4.8993 17.468657-9.455601 27.301315-13.549704a7.897507 7.897507 0 0 1 10.331345 4.259521 7.906021 7.906021 0 0 1-4.258305 10.331345c-9.158821 3.807053-17.676647 8.03495-25.327242 12.560843a7.893858 7.893858 0 0 1-4.016259 1.099545z" fill="#050101" /><path d="M326.854934 282.130616c-57.79423 0.002433-89.504672-7.094742-105.310632-23.398174-15.161316-15.642975-14.239352-37.956199-13.259006-61.581821-0.008514-17.463792 10.018753-35.156251 28.983473-50.838148a7.892642 7.892642 0 0 1 11.121947 1.054542 7.89629 7.89629 0 0 1-1.053325 11.121947C236.728727 167.263429 224.079094 181.147618 224.079094 197.477808c-1.010754 24.604754-1.122655 40.005682 8.815821 50.255535 13.001147 13.418342 44.326019 19.088784 101.55588 18.556039h209.880531c60.375241 0 88.454995-4.575762 100.114552-16.294917 9.48236-9.524931 10.080785-26.17866 9.938476-52.474086 0-37.181408-64.677333-70.747941-124.59889-80.551407-57.751659-9.455601-123.763285-9.455601-181.097749 0a268.417926 268.417926 0 0 0-25.963373 5.624222c-4.204787 1.142116-8.549449-1.365917-9.683051-5.578002a7.903588 7.903588 0 0 1 5.579218-9.681835 285.177474 285.177474 0 0 1 27.498357-5.956274c58.963104-9.713459 126.832037-9.721973 186.219634 0 66.825338 10.928554 137.848165 48.326465 137.848166 96.101942 0.15812 29.454185-0.768709 49.823744-14.536132 63.661713-15.381468 15.458095-44.534008 20.952172-111.314343 20.952172H334.532288c-2.604122 0.024326-5.169321 0.037706-7.677354 0.037706z" fill="#050101" /><path d="M484.994814 536.242293a7.897507 7.897507 0 0 1-7.874397-7.375709 7.89629 7.89629 0 0 1 7.357465-8.405925c12.981686-0.863581 25.750518-2.17598 37.961064-3.899493 4.266819-0.656808 8.312269 2.394916 8.926506 6.718901a7.899939 7.899939 0 0 1-6.720118 8.926506c-12.591251 1.778247-25.750518 3.128352-39.117776 4.017475a6.028037 6.028037 0 0 1-0.532744 0.018245z" fill="#050101" /><path d="M439.45735 536.663137c-32.004789 0-63.839295-2.514115-93.027108-7.392738-66.813175-11.151139-137.823839-49.030709-137.82384-97.257438 0-29.754614 0-51.250477 15.381468-66.195289 16.271807-15.80596 47.436126-21.252601 111.101489-19.424485l209.168988-0.003649c72.141833-0.184879 100.496473 2.346264 114.998549 16.962672 11.828624 11.921063 11.637663 29.423777 11.35183 55.918678-0.041355 4.004096-0.086358 8.25267-0.094872 12.757885 0 45.656663-63.186136 80.793453-121.899897 94.113274-4.227897 0.986428-8.486201-1.696754-9.450736-5.955058a7.893858 7.893858 0 0 1 5.955058-9.450736c54.460321-12.357719 109.593263-43.365133 109.593263-78.723292 0.007298-4.570896 0.053518-8.864474 0.099738-12.91114 0.245695-23.31668 0.396517-37.390614-6.774852-44.624015-10.564877-10.651235-41.821635-12.491513-103.75862-12.287173H334.859476c-57.585024-1.682158-87.371262 2.819409-99.862776 14.960624-10.589203 10.287558-10.589203 28.022587-10.589202 54.860488 0 37.598603 64.687064 71.666256 124.622 81.674062 33.621266 5.616924 70.898763 8.000893 107.824747 6.919593 4.355609-0.153255 8.00211 3.307149 8.128606 7.666407a7.899939 7.899939 0 0 1-7.665192 8.128606c-5.948977 0.178798-11.9089 0.262723-17.860309 0.262724z" fill="#050101" /><path d="M481.517381 615.385212c0 13.251707-11.228982 23.994166-25.079115 23.994165H67.622587c-13.853781 0-25.08398-10.742458-25.08398-23.994165 0-13.250491 11.230199-23.991733 25.08398-23.991733h388.815679c13.850132 0 25.079115 10.741242 25.079115 23.991733z" fill="#D8E9B7" /><path d="M456.438266 647.280533H67.622587c-18.186281 0-32.98392-14.309898-32.983919-31.895321 0-17.582991 14.798855-31.892889 32.983919-31.892889h388.815679c18.186281 0 32.980271 14.309898 32.980271 31.892889 0 17.585423-14.79399 31.895321-32.980271 31.895321z m-388.815679-47.985898c-9.475062 0-17.182824 7.218805-17.182824 16.090577 0 8.872988 7.707762 16.091793 17.182824 16.091793h388.815679c9.471413 0 17.179175-7.220022 17.179176-16.091793 0-8.871772-7.707762-16.090577-17.179176-16.090577H67.622587z" fill="#040000" /><path d="M492.983544 497.105056c0 39.882835-12.009854 72.233057-115.286814 72.233057H173.727471c-101.378299 1.527687-115.286814-32.351438-115.286815-72.233057 0-39.904729 65.197914-73.170832 127.819682-83.147014 58.84269-9.377757 124.036955-8.680811 178.902308 0 62.652175 9.906852 127.820898 43.242286 127.820898 83.147014zM492.983544 727.643412c0-40.407065-12.009854-73.181779-115.286814-73.181779H173.727471c-101.378299-1.543499-115.286814 32.774714-115.286815 73.181779 0 40.430175 65.197914 74.140232 127.819682 84.24291 58.84269 9.500605 124.036955 8.793928 178.902308 0 62.652175-10.035781 127.820898-43.812736 127.820898-84.24291z" fill="#EA5958" /><path d="M365.675929 409.383497c-32.161693-5.185133-67.873798-7.503422-103.770782-6.697008 26.704106 0.582613 52.866954 2.801164 77.002212 6.697008 62.963551 10.161061 128.457029 44.349129 128.457028 85.26826 0 40.904536-12.067021 74.081849-115.857264 74.08185h26.764922c92.988186 15.168613 115.860913-33.177313 115.860913-74.08185 0-40.919132-65.493478-75.107199-128.457029-85.26826zM365.162646 811.900918c-32.004789 5.126751-67.538096 7.413415-103.258715 6.616732 26.572745-0.571666 52.605447-2.765891 76.62029-6.616732 62.650959-10.035781 127.820898-43.80787 127.820898-84.236829 0-40.407065-12.004989-73.186644-115.283165-73.186644h26.634776c103.27696 0 115.286814 32.779579 115.286814 73.186644 0 40.430175-65.168723 74.201048-127.820898 84.236829z" fill="#BC4948" /><path d="M83.698569 447.336046a7.898723 7.898723 0 0 1-6.808909-3.877599 7.904805 7.904805 0 0 1 2.776838-10.825167c8.283077-4.8993 17.468657-9.455601 27.302531-13.548487a7.897507 7.897507 0 0 1 10.331345 4.258304 7.906021 7.906021 0 0 1-4.258304 10.331345c-9.158821 3.808269-17.676647 8.036166-25.326026 12.560843a7.893858 7.893858 0 0 1-4.017475 1.100761z" fill="#050101" /><path d="M149.327057 582.30642c-57.79423 0.002433-89.504672-7.094742-105.310632-23.399389-15.160099-15.641758-14.239352-37.956199-13.259005-61.580606-0.007298-17.463792 10.018753-35.155035 28.984689-50.836931a7.892642 7.892642 0 0 1 11.121947 1.053325 7.89629 7.89629 0 0 1-1.053325 11.121947c-10.608664 8.7769-23.259514 22.661089-23.259514 38.991279-1.010754 24.604754-1.121439 40.005682 8.815822 50.254319 12.999931 13.418342 44.326019 19.088784 101.55588 18.556039h209.880531c60.374025 0 88.456212-4.574545 100.113335-16.293701 9.48236-9.526147 10.080785-26.17866 9.93726-52.475302 0-37.181408-64.676117-70.747941-124.59889-80.551407-57.750442-9.455601-123.762069-9.455601-181.096533 0a268.038437 268.038437 0 0 0-25.962157 5.625438c-4.206003 1.1409-8.549449-1.367133-9.683051-5.579218a7.906021 7.906021 0 0 1 5.578002-9.683051 285.177474 285.177474 0 0 1 27.498357-5.956275c58.963104-9.713459 126.833254-9.720757 186.219635 0 66.824122 10.92977 137.846949 48.327682 137.846949 96.101942 0.15812 29.452969-0.767492 49.824961-14.536132 63.660497-15.380252 15.459312-44.534008 20.953388-111.31191 20.953388H157.004412c-2.604122 0.024326-5.169321 0.037706-7.677355 0.037706z" fill="#050101" /><path d="M307.465721 836.418097a7.899939 7.899939 0 0 1-7.874397-7.374493 7.897507 7.897507 0 0 1 7.357465-8.408357c12.981686-0.863581 25.750518-2.174764 37.961064-3.900709 4.265602-0.654375 8.313485 2.397349 8.926506 6.72255a7.902372 7.902372 0 0 1-6.720118 8.926506c-12.592467 1.778247-25.750518 3.128352-39.117775 4.016259a6.4951 6.4951 0 0 1-0.532745 0.018244z" fill="#050101" /><path d="M261.928257 836.838941c-32.004789 0-63.838079-2.515331-93.027108-7.391522-66.813175-11.153571-137.823839-49.033142-137.823839-97.25987 0-29.754614 0-51.250477 15.381467-66.194072 16.271807-15.807177 47.436126-21.253817 111.100272-19.425702l209.170206-0.004865c72.140617-0.184879 100.495257 2.346264 114.996115 16.963888 11.828624 11.921063 11.638879 29.421345 11.354263 55.918678-0.043787 4.002879-0.088791 8.25267-0.097305 12.757885 0 45.656663-63.187352 80.794669-121.89868 94.114491-4.229113 0.983996-8.487418-1.696754-9.451952-5.955059a7.89629 7.89629 0 0 1 5.956274-9.451952c54.460321-12.356503 109.592046-43.365133 109.592047-78.723292 0.007298-4.570896 0.053518-8.864474 0.100953-12.909924 0.246911-23.317897 0.397734-37.39183-6.773635-44.624015-10.567309-10.652451-41.822851-12.491513-103.759836-12.288389H157.331599c-57.585024-1.680942-87.371262 2.819409-99.863991 14.963057-10.590419 10.286341-10.590419 28.022587-10.59042 54.860488 0 37.597387 64.68828 71.667472 124.622001 81.674062 33.621266 5.615708 70.898763 8.000893 107.825963 6.920809 4.355609-0.153255 8.000893 3.305933 8.128606 7.665191a7.902372 7.902372 0 0 1-7.665192 8.129822c-5.94776 0.176365-11.907684 0.260291-17.860309 0.260291z" fill="#050101" /><path d="M882.055865 769.257057c-9.70008 9.029892-25.211693 8.126173-34.646617-2.00448L582.489432 482.650418c-9.444654-10.137952-9.2318-25.67754 0.470713-34.700135 9.695214-9.035974 25.210476-8.128606 34.646616 2.009346l264.922249 284.592429c9.444654 10.140384 9.223286 25.676324-0.473145 34.704999z" fill="#D8E9B7" /><path d="M841.628123 772.628671l-264.923465-284.592429c-12.391776-13.312523-11.992826-33.894936 0.868446-45.869517 12.873435-11.989177 33.431522-10.901795 45.819648 2.407079l264.923465 284.596078c12.391776 13.306441 11.992826 33.892504-0.872095 45.873166-12.8783 11.977014-33.431522 10.89693-45.815999-2.414377zM611.826852 455.341805c-6.454962-6.936621-16.989431-7.657894-23.485748-1.612829-6.492668 6.045065-6.523075 16.607509-0.074195 23.540482l264.923465 284.594862c6.454962 6.939054 16.990647 7.657894 23.486964 1.614044 6.492668-6.048714 6.523075-16.605077 0.06933-23.541698L611.826852 455.341805z" fill="#040000" /><path d="M976.442809 697.058057c-29.195111 27.17117-61.044212 40.430175-131.419963-35.170846L706.049593 512.598425c-70.196952-73.167183-54.872651-106.432071-25.686054-133.60324 29.215788-27.185765 97.984791-2.132193 147.95571 36.907738 46.956899 36.679072 90.870589 84.875392 121.895031 130.948034 35.431137 52.604231 55.437019 123.014037 26.228529 150.2071zM807.69913 854.14218c29.577033-27.534847 45.384209-58.659027-24.979378-134.251534L643.739201 570.596995c-67.939479-75.258022-102.537443-62.059832-132.114475-34.523769-29.589196 27.54701-9.849686 98.235351 25.425763 150.953915 33.148121 49.546425 78.077431 96.78186 121.896248 130.946818 50.040248 39.026552 119.163197 63.715231 148.752393 36.168221z" fill="#F5C132" /><path d="M953.914298 544.108176c-18.119384-27.073865-40.75493-54.799672-65.802421-80.516134 17.764221 19.937769 33.967915 40.599242 47.557757 60.918932 35.465194 53.01656 55.067261 124.243728 25.118037 152.122791-29.946791 27.872981-62.453917 41.642837-133.170234-34.326727l18.243448 19.593552c52.245419 78.394888 103.223442 62.199708 133.162935 34.331592 29.956522-27.881495 10.347157-99.112312-25.109522-152.124006zM658.938223 817.992203c-25.558341-19.935336-51.44387-44.390483-75.199639-71.075128 18.528064 19.057159 37.868624 36.619473 57.046198 51.570366 50.043896 39.019254 119.163197 63.716448 148.756042 36.167006 29.573384-27.534847 45.382993-58.655378-24.983026-134.251535l18.151007 19.501113c70.36237 75.586426 54.55641 106.708173 24.98181 134.244237-29.592845 27.544577-98.712145 2.854682-148.752392-36.156059z" fill="#D7AF71" /><path d="M734.007716 363.567497a7.885344 7.885344 0 0 1-1.801356-7.618972 7.906021 7.906021 0 0 1 9.815629-5.346902c9.229367 2.731834 18.821195 6.338196 28.522491 10.747323 3.978553 1.808654 5.717878 6.492668 3.92017 10.473653a7.903588 7.903588 0 0 1-10.470004 3.915305c-9.02746-4.107482-17.918692-7.457202-26.448681-9.976182a7.929131 7.929131 0 0 1-3.538249-2.194225z" fill="#050101" /><path d="M679.929316 503.570965c-39.37685-42.300861-55.787317-70.350207-54.623307-93.022242 1.122655-21.762235 18.081678-36.289853 36.040509-51.667672 12.77613-11.905251 32.563076-16.619672 56.956192-13.424424a7.897507 7.897507 0 0 1 6.812557 8.857176 7.906021 7.906021 0 0 1-8.859609 6.816207c-13.654306-1.79041-32.429282-1.593367-44.383185 9.540743-18.699564 16.024896-30.053827 26.432869-30.789695 40.684384-0.957237 18.664291 16.237751 45.459621 55.620682 86.982042l142.728005 153.324506c0.096089 0.103386 0.188528 0.195826 0.27367 0.301645 41.140501 44.187359 63.620359 61.628042 80.142727 62.180247 13.432938 0.446386 26.027837-10.465139 45.182301-28.483569 27.208875-25.338189 7.716276-95.544872-25.940263-146.087456-32.428065-48.715685-77.407243-97.033636-123.387445-132.557213a268.596724 268.596724 0 0 0-21.812103-15.164964c-3.695153-2.303693-4.822673-7.194479-2.511682-10.887199a7.891425 7.891425 0 0 1 10.887199-2.515331 286.677186 286.677186 0 0 1 23.100177 16.063818c47.276789 36.536764 93.531877 86.213334 126.875824 136.308316 37.532922 56.354118 58.550775 133.819744 23.584269 166.371873-21.449643 20.190761-36.989231 33.384086-56.502507 32.737008-21.796292-0.71884-45.674908-18.321291-91.174667-67.203611a8.939885 8.939885 0 0 1-0.280968-0.293131l-142.673271-153.275853a943.431565 943.431565 0 0 1-5.26541-5.5853z" fill="#050101" /><path d="M601.681602 792.46427c-2.809678-3.026182-2.831572-7.747901 0.030408-10.787462a7.887776 7.887776 0 0 1 11.165734-0.347865c9.481144 8.913126 19.143518 17.365271 28.72075 25.1302 3.389859 2.673451 3.915305 7.712628 1.16401 11.114649a7.906021 7.906021 0 0 1-11.111001 1.161577c-9.882526-8.009407-19.840464-16.715761-29.601358-25.890394-0.126496-0.127713-0.245695-0.260291-0.368543-0.380705z" fill="#050101" /><path d="M570.343351 759.421967c-21.808455-23.426148-41.652567-48.442015-57.974243-73.133126-37.355341-56.496426-58.014382-134.28924-22.723121-167.14788 21.788994-20.275903 37.521976-34.923935 58.943644-33.848716 22.648926 1.142116 47.871565 20.238197 89.909703 68.085436l142.523664 153.098272c49.286135 52.682075 66.763306 75.160717 65.941081 95.729751-0.664106 16.787523-13.60687 28.576009-33.196774 46.415641-2.954419 2.703859-6.094934 5.56219-9.408165 8.622428-33.413277 31.112017-102.189578 8.801226-151.936695-25.102225-3.607578-2.419242-4.542921-7.358681-2.085973-10.966259a7.891425 7.891425 0 0 1 10.974773-2.08719c46.158999 31.440421 106.421124 50.666648 132.299355 26.575178 3.348504-3.107674 6.526724-5.998845 9.512768-8.719733 17.241207-15.701358 27.645531-25.188583 28.052995-35.361808 0.598425-14.991032-19.353939-39.118992-61.703453-84.319538L626.78626 563.980263c-38.006067-43.300669-61.596418-62.033073-78.995746-62.901519-14.740472-0.744382-27.72824 11.342099-47.369228 29.628118-27.525116 25.619157-8.382815 96.176137 25.128983 146.864678 18.799302 28.442215 42.451684 57.342978 68.40411 83.640837 3.077267 3.084564 3.018884 8.107929-0.066897 11.165734a7.906021 7.906021 0 0 1-11.182763-0.064464 647.259856 647.259856 0 0 1-12.361368-12.89168z" fill="#050101" /></svg>