<?xml version="1.0" encoding="utf-8"?>
<!-- Uploaded to: SVG Repo, www.svgrepo.com, Generator: SVG Repo Mixer Tools -->
<svg width="800px" height="800px" viewBox="0 0 1024 1024" class="icon"  version="1.1" xmlns="http://www.w3.org/2000/svg"><path d="M331.719839 42.167852c6.681807-6.090364 14.456223-10.005928 22.716756-11.989752-21.807021-14.233997-50.991461-12.735133-71.821616 6.201476-257.88327 234.426921-266.827841 492.981497-73.040383 790.968342 18.313916 28.163592 22.603328 33.906729 52.13268 32.040962-198.705351-315.710475-169.680636-598.654285 70.012563-817.221028z" fill="#FFFFFF" /><path d="M274.513013 49.169108c25.370729-31.841885 72.099397-36.368569 103.683176-10.689965l500.821885 337.316104c31.581464 25.683233 36.369726 72.099397 10.684179 103.686649l-415.318363 492.151624c-25.680918 31.577992-74.664248 39.237822-103.684334 10.689966-297.038916-292.243709-349.040807-615.809619-96.186543-933.154378z" fill="#F5D189" /><path d="M276.741053 107.330809c19.672731-26.525837 56.984601-31.855774 82.775475-12.342767l407.572883 253.242001c25.794346 19.513007 30.551357 56.677883 10.622835 83.011589L455.102368 842.101599c-19.92505 26.327918-58.971897 34.259743-82.76853 12.341609-243.575198-224.343445-291.648793-482.72325-95.592785-747.112399z" fill="#F6BC88" /><path d="M845.083568 343.767017c27.550157 22.401937 30.648581 64.217342 6.915606 93.399467l-383.278559 455.13374c-23.727187 29.17981-62.864313 31.337248-92.843903 12.280266-45.133739-28.692535-126.528407-67.360905-156.709388-110.989993 39.471622 62.912925 86.276681 109.089503 143.848095 169.842676 49.205556 51.922029 82.790521 42.714723 133.00535-12.402953l406.317079-481.481334c25.126512-30.902057 20.44589-76.313577-10.456166-101.43546" fill="#E99413" /><path d="M401.668743 240.095415c0 36.300281-29.424026 65.728937-65.725465 65.728937-36.297966 0-65.726622-29.428656-65.726622-65.728937 0-36.294494 29.428656-65.72315 65.726622-65.72315 36.301438 0 65.725465 29.427499 65.725465 65.72315z" fill="#EF6D62" /><path d="M314.977704 207.716486m-4.714187 0a4.714187 4.714187 0 1 0 9.428374 0 4.714187 4.714187 0 1 0-9.428374 0Z" fill="#FFFFFF" /><path d="M348.480492 235.907856m-4.716502 0a4.716502 4.716502 0 1 0 9.433004 0 4.716502 4.716502 0 1 0-9.433004 0Z" fill="#FFFFFF" /><path d="M355.685455 284.614562m-4.714187 0a4.714187 4.714187 0 1 0 9.428374 0 4.714187 4.714187 0 1 0-9.428374 0Z" fill="#FFFFFF" /><path d="M375.020219 248.631415a5.915593 5.915593 0 0 1-5.920223 5.917908 5.914435 5.914435 0 0 1-5.915593-5.917908 5.915593 5.915593 0 0 1 5.915593-5.917908 5.91675 5.91675 0 0 1 5.920223 5.917908zM352.532633 263.66172a7.345011 7.345011 0 1 1-14.687708-0.003472 7.345011 7.345011 0 0 1 14.687708 0.003472zM308.541271 256.315551a7.343854 7.343854 0 0 1-7.350798 7.342697 7.345011 7.345011 0 0 1 0-14.68655 7.343854 7.343854 0 0 1 7.350798 7.343853z" fill="#FFFFFF" /><path d="M371.404427 215.593912m-4.716502 0a4.716502 4.716502 0 1 0 9.433004 0 4.716502 4.716502 0 1 0-9.433004 0Z" fill="#FFFFFF" /><path d="M340.662095 205.854191m-4.714187 0a4.714187 4.714187 0 1 0 9.428374 0 4.714187 4.714187 0 1 0-9.428374 0Z" fill="#FFFFFF" /><path d="M317.174495 223.825509a5.812582 5.812582 0 0 1-5.819527 5.807953 5.811425 5.811425 0 0 1 0-11.621692 5.814897 5.814897 0 0 1 5.819527 5.813739z" fill="#FFFFFF" /><path d="M322.982447 215.597384m-2.490776 0a2.490776 2.490776 0 1 0 4.981552 0 2.490776 2.490776 0 1 0-4.981552 0Z" fill="#FFFFFF" /><path d="M319.662956 256.315551c0 1.375019-1.112284 2.488461-2.488461 2.488461a2.488461 2.488461 0 1 1 0-4.978079c1.376177 0 2.488461 1.113442 2.488461 2.489618zM355.685455 224.657697a2.488461 2.488461 0 0 1-2.489619 2.488461 2.489618 2.489618 0 1 1 2.489619-2.488461zM360.662377 271.006731a2.487304 2.487304 0 1 1-4.975765 0 2.486146 2.486146 0 1 1 4.975765 0z" fill="#FFFFFF" /><path d="M291.984324 215.597384m-1.86461 0a1.86461 1.86461 0 1 0 3.72922 0 1.86461 1.86461 0 1 0-3.72922 0Z" fill="#FFFFFF" /><path d="M309.26929 207.7188a1.861137 1.861137 0 1 1-3.722274-0.002314 1.861137 1.861137 0 0 1 3.722274 0.002314zM326.713981 235.910171c0 1.02895-0.833345 1.85998-1.866924 1.85998a1.862295 1.862295 0 1 1 0-3.725747 1.863452 1.863452 0 0 1 1.866924 1.865767zM329.286934 273.636398c0 1.027792-0.833345 1.856508-1.862295 1.856507a1.853035 1.853035 0 0 1-1.856507-1.856507 1.85998 1.85998 0 0 1 3.718802 0z" fill="#FFFFFF" /><path d="M296.095493 375.432974a76.975624 76.975624 0 0 0-11.117055 6.022075c-35.641707 23.29431-45.64995 71.066975-22.349852 106.710998 23.293153 35.633605 71.066975 45.644163 106.704052 22.348695a77.634198 77.634198 0 0 0 9.97815-7.765156l-83.215295-127.316612z" fill="#E57B76" /><path d="M364.774704 503.087554c0.135419-0.086807 0.275467-0.165512 0.410885-0.252319l-0.033565-0.049769c3.339168-2.531286 4.346126-7.034822 2.174799-10.357785-1.993084-3.050969-5.975779-4.076446-9.441106-2.65513 2.99194-2.816012 3.750053-7.259362 1.569467-10.592742-2.356515-3.610005-7.28251-4.568352-11.252474-2.327579l-0.037037-0.059029c0.037038-0.025463 0.079862-0.04051 0.121529-0.065973 4.083391-2.670177 5.383178-7.922566 2.891245-11.732805-2.488461-3.809082-7.820712-4.731548-11.908733-2.060214-0.038195 0.024306-0.068288 0.062501-0.105326 0.087964l-0.047454-0.074075c0.232642-0.126159 0.473386-0.22454 0.701399-0.373848 4.388951-2.868096 5.781332-8.511694 3.107683-12.603187-2.675964-4.094965-8.400582-5.077618-12.789533-2.211837-0.228012 0.149308-0.414358 0.332181-0.626166 0.495378l-0.038195-0.059029c4.388951-2.870411 5.776702-8.516324 3.101896-12.611289-2.670177-4.088021-8.400582-5.079933-12.788375-2.21068l-0.385423-0.583341c4.393581-2.869253 5.785961-8.511694 3.111155-12.603187-2.674806-4.09265-8.405211-5.084563-12.794162-2.215309l-0.160882-0.243059a10.039494 10.039494 0 0 0 2.086835-1.016218c4.392423-2.869253 5.781332-8.511694 3.105368-12.60203-2.674806-4.094965-8.399424-5.084563-12.793004-2.215309a10.053383 10.053383 0 0 0-1.765071 1.504651l-0.321764-0.488433a10.036021 10.036021 0 0 0 2.086835-1.015061c4.393581-2.869253 5.785961-8.511694 3.109997-12.603187-2.678279-4.094965-8.404054-5.084563-12.793004-2.215309a10.058012 10.058012 0 0 0-1.768544 1.504651l-0.160882-0.243059c-31.617344 20.666958-40.495942 63.051816-19.827826 94.670318 20.513021 31.382387 62.417548 40.346634 93.961975 20.26649 0.063658-0.038195 0.130789-0.063658 0.194447-0.104168 0.04051-0.027778 0.070603-0.061343 0.103011-0.084492z" fill="#E16A19" /><path d="M297.204305 397.790928a3.660931 3.660931 0 1 1-4.003528-6.130873 3.660931 3.660931 0 0 1 4.003528 6.130873zM307.191715 413.067764a3.658616 3.658616 0 1 1 1.062515-5.066044 3.659774 3.659774 0 0 1-1.062515 5.066044zM316.853888 427.848065a3.659774 3.659774 0 1 1-4.008158-6.125086 3.659774 3.659774 0 0 1 4.008158 6.125086z" fill="#FFF200" /><path d="M325.242896 440.685052m-3.660932 0a3.660931 3.660931 0 1 0 7.321863 0 3.660931 3.660931 0 1 0-7.321863 0Z" fill="#FFF200" /><path d="M334.660853 455.092663m-3.658617 0a3.658616 3.658616 0 1 0 7.317233 0 3.658616 3.658616 0 1 0-7.317233 0Z" fill="#FFF200" /><path d="M344.159829 469.625276m-3.660931 0a3.660931 3.660931 0 1 0 7.321863 0 3.660931 3.660931 0 1 0-7.321863 0Z" fill="#FFF200" /><path d="M355.338228 486.725054a3.658616 3.658616 0 0 1-4.002372-6.126244 3.655144 3.655144 0 0 1 5.061415 1.0602 3.665561 3.665561 0 0 1-1.059043 5.066044zM363.510797 499.22986a3.658616 3.658616 0 0 1-5.064886-1.061357 3.665561 3.665561 0 0 1 1.057885-5.068359 3.662089 3.662089 0 0 1 4.007001 6.129716z" fill="#FFF200" /><path d="M447.079106 673.423292c0-5.23387-3.860008-9.534857-8.878597-10.304544-0.111113-0.548619-0.219911-1.089136-0.335653-1.631968 2.861152-1.866925 4.757012-5.08572 4.757011-8.76054a10.460796 10.460796 0 0 0-10.461953-10.464268c-0.888901 0-1.734978 0.143521-2.563693 0.351857-0.317134-0.45834-0.643528-0.925939-0.976866-1.378492 0.946773-1.572939 1.519697-3.393566 1.519697-5.368131 0-5.777859-4.689881-10.463111-10.461953-10.463111-2.340311 0-4.468813 0.79052-6.213051 2.083363-0.5301-0.311347-1.053256-0.608805-1.583355-0.90742 0.038195-0.393524 0.119215-0.773159 0.119214-1.175943 0-5.781332-4.688724-10.465426-10.470055-10.465425-3.906305 0-7.279038 2.166697-9.073045 5.34151a53.762333 53.762333 0 0 0-1.993083-0.194447c-1.40164-4.123901-5.268593-7.111212-9.864723-7.111211-5.392437 0-9.788333 4.093808-10.350841 9.332307-0.597231 0.187503-1.180572 0.392367-1.760441 0.594916-2.039381-2.445636-5.064886-4.041724-8.502435-4.041724-6.136661 0-11.107796 4.975765-11.107796 11.113583a11.076545 11.076545 0 0 0 0.888902 4.358858c-0.38195 0.364588-0.767372 0.72339-1.147007 1.09608a10.416814 10.416814 0 0 0-4.151679-0.868068c-5.780174 0-10.461953 4.687566-10.461953 10.468898a10.412184 10.412184 0 0 0 3.169026 7.490847c-0.19329 0.462969-0.379635 0.940986-0.557878 1.413214-5.781332 0-10.470055 4.686409-10.470056 10.465426 0 4.556777 2.928282 8.39248 6.99547 9.828842 0.009259 0.460655 0.009259 0.925939 0.034722 1.383121-3.885472 1.528957-6.64014 5.291741-6.64014 9.720045a10.465426 10.465426 0 0 0 10.465426 10.466583c0.427089 0 0.829873-0.074075 1.239601-0.125002 0.130789 0.275467 0.270837 0.543989 0.406255 0.818299a10.419129 10.419129 0 0 0-3.038237 7.372789c0 5.781332 4.688724 10.466583 10.468898 10.466583 1.921323 0 3.703756-0.560193 5.251231-1.460669 0.186345 0.164354 0.38195 0.329866 0.576397 0.49422a10.372832 10.372832 0 0 0-0.910892 4.226912c0 5.781332 4.689881 10.471213 10.470055 10.471212a10.468898 10.468898 0 0 0 8.679521-4.619278c0.254633 0.08102 0.520841 0.153937 0.783576 0.232642 0 0.084492-0.025463 0.165512-0.025464 0.252319a10.459638 10.459638 0 0 0 10.460796 10.466583c5.209564 0 9.49319-3.810239 10.301072-8.794106 0.380792-0.04051 0.748853-0.097224 1.129645-0.144678 1.650486 3.615792 5.277852 6.14129 9.509394 6.141291 5.781332 0 10.460796-4.686409 10.460795-10.467741 0-0.787048-0.100696-1.546318-0.261577-2.282439 0.30093-0.173614 0.604175-0.34144 0.905105-0.518526a10.379776 10.379776 0 0 0 7.084591 2.800965c5.781332 0 10.458481-4.685251 10.458481-10.464268 0-2.395867-0.825243-4.574139-2.175957-6.332265 0.122687-0.170141 0.240744-0.344912 0.363431-0.516211 0.960662 0.292828 1.959518 0.497692 3.020876 0.497692 5.781332 0 10.461953-4.684094 10.461953-10.468898 0-3.735006-1.96762-6.993154-4.921365-8.845032 0.100696-0.414358 0.202549-0.825243 0.288198-1.244231 5.125072-0.684037 9.090406-5.024376 9.090406-10.332321z m-47.099044 37.51789a10.075374 10.075374 0 0 0-2.17017 0.769687 39.901026 39.901026 0 0 1-11.701554 1.750025c-12.412212 0-23.513063-5.654015-30.85113-14.527983-0.533572-0.97918-1.185202-1.878499-1.980352-2.636611a39.798016 39.798016 0 0 1-7.199176-22.871851c0-2.019704 0.190975-3.986167 0.486118-5.927167a10.73742 10.73742 0 0 0 0.486118-2.758141 39.493613 39.493613 0 0 1 5.590357-13.245557c0.284726-0.366903 0.554406-0.746538 0.796308-1.151637a40.181123 40.181123 0 0 1 9.919121-9.840416c1.696783-0.541674 3.237314-1.431733 4.468813-2.65976a39.431112 39.431112 0 0 1 12.40874-3.967649c0.121529 0.002315 0.240744 0.033565 0.363431 0.033565 0.906263 0 1.768543-0.151623 2.611148-0.36806 0.960662-0.070603 1.921323-0.14815 2.899347-0.148151 3.960704 0 7.78599 0.597231 11.401781 1.670163 0.317134 0.131946 0.655102 0.204864 0.981495 0.30556a39.958897 39.958897 0 0 1 13.461996 7.515152c0.447923 0.493063 0.9433 0.944458 1.494234 1.351871 7.795249 7.301029 12.691151 17.663444 12.691151 29.190227 0 5.383178-1.074089 10.511722-3.004672 15.200446a11.187658 11.187658 0 0 0-0.829872 1.815998 40.060751 40.060751 0 0 1-22.323232 20.500289z" fill="#36C62E" /><path d="M760.783766 499.824776c0 36.300281-29.425184 65.728937-65.726622 65.728937-36.296809 0-65.726622-29.428656-65.726622-65.728937 0-36.294494 29.429814-65.724307 65.726622-65.724307 36.301438 0 65.726622 29.428656 65.726622 65.724307z" fill="#EF6D62" /><path d="M674.09157 467.447004m-4.715344 0a4.715344 4.715344 0 1 0 9.430689 0 4.715344 4.715344 0 1 0-9.430689 0Z" fill="#FFFFFF" /><path d="M707.595515 495.637217m-4.716501 0a4.716502 4.716502 0 1 0 9.433003 0 4.716502 4.716502 0 1 0-9.433003 0Z" fill="#FFFFFF" /><path d="M719.513508 544.341608a4.714187 4.714187 0 0 1-9.427217 0 4.713029 4.713029 0 1 1 9.427217 0z" fill="#FFFFFF" /><path d="M728.217334 508.360776m-5.919065 0a5.919065 5.919065 0 1 0 11.83813 0 5.919065 5.919065 0 1 0-11.83813 0Z" fill="#FFFFFF" /><path d="M711.646499 523.391081a7.345011 7.345011 0 1 1-14.690023 0 7.345011 7.345011 0 0 1 14.690023 0zM667.653979 516.044912a7.343854 7.343854 0 0 1-7.34964 7.342697 7.343854 7.343854 0 0 1 0-14.68655 7.341539 7.341539 0 0 1 7.34964 7.343853z" fill="#FFFFFF" /><path d="M730.518293 475.323273m-4.716502 0a4.716502 4.716502 0 1 0 9.433004 0 4.716502 4.716502 0 1 0-9.433004 0Z" fill="#FFFFFF" /><path d="M704.490148 465.583552a4.714187 4.714187 0 1 1-9.427217 0 4.714187 4.714187 0 0 1 9.427217 0zM676.289518 483.55487a5.812582 5.812582 0 0 1-5.819527 5.80911 5.811425 5.811425 0 0 1 0-11.622849 5.813739 5.813739 0 0 1 5.819527 5.813739z" fill="#FFFFFF" /><path d="M682.09747 475.325588m-2.490776 0a2.490776 2.490776 0 1 0 4.981552 0 2.490776 2.490776 0 1 0-4.981552 0Z" fill="#FFFFFF" /><path d="M678.776822 516.044912c0 1.375019-1.112284 2.488461-2.486147 2.488461a2.487304 2.487304 0 0 1-2.49309-2.488461c0-1.377334 1.112284-2.489618 2.49309-2.489618 1.373862 0 2.486146 1.112284 2.486147 2.489618zM714.799321 484.387058a2.489618 2.489618 0 1 1-2.487304-2.490776c1.373862 0 2.487304 1.112284 2.487304 2.490776zM719.776243 530.736092c0 1.376177-1.107655 2.488461-2.488461 2.488461a2.486146 2.486146 0 0 1-2.487304-2.488461c0-1.379649 1.113442-2.490776 2.487304-2.490776 1.380807 0 2.488461 1.111127 2.488461 2.490776z" fill="#FFFFFF" /><path d="M651.09819 475.325588m-1.86461 0a1.86461 1.86461 0 1 0 3.72922 0 1.86461 1.86461 0 1 0-3.72922 0Z" fill="#FFFFFF" /><path d="M668.383156 467.448162c0 1.02895-0.834503 1.858823-1.861137 1.858822a1.85998 1.85998 0 1 1 0-3.723432 1.863452 1.863452 0 0 1 1.861137 1.86461zM685.827847 495.638374c0 1.02895-0.833345 1.85998-1.865767 1.85998a1.863452 1.863452 0 1 1 1.865767-1.85998zM688.399643 533.364601c0 1.02895-0.833345 1.857665-1.85998 1.857665-1.030107 0-1.858823-0.829873-1.858823-1.857665a1.857665 1.857665 0 1 1 3.718803 0z" fill="#FFFFFF" /><path d="M549.373374 749.383855c0-2.621565-1.934055-4.774373-4.449136-5.159795-0.055556-0.275467-0.109955-0.547461-0.167827-0.818299a5.2385 5.2385 0 0 0-2.853049-9.630923 5.277852 5.277852 0 0 0-1.285898 0.174771c-0.162039-0.230327-0.320606-0.462969-0.490748-0.689825 0.473386-0.789363 0.761585-1.701413 0.761585-2.688695a5.241972 5.241972 0 0 0-5.2385-5.240815c-1.1771 0-2.243087 0.393524-3.11347 1.041682a28.302483 28.302483 0 0 0-0.796307-0.454868c0.021991-0.196762 0.059029-0.38658 0.059028-0.587971a5.239657 5.239657 0 0 0-5.239657-5.244287c-1.958361 0-3.647042 1.085663-4.542888 2.677121-0.335653-0.038195-0.668991-0.070603-0.998857-0.098381-0.703714-2.064844-2.641241-3.561393-4.944514-3.561393-2.699112 0-4.902847 2.049797-5.186416 4.67715-0.297458 0.093751-0.592601 0.194447-0.881957 0.2963-1.023163-1.224554-2.537073-2.025492-4.255847-2.025492a5.567208 5.567208 0 0 0-5.1216 7.751267c-0.194447 0.182873-0.384265 0.362274-0.57524 0.550934a5.181786 5.181786 0 0 0-2.082205-0.436349 5.241972 5.241972 0 0 0-5.2385 5.246602c0 1.471086 0.608805 2.798651 1.591458 3.75121a14.294183 14.294183 0 0 0-0.283569 0.707186 5.24313 5.24313 0 0 0-5.24313 5.241973c0 2.28244 1.465298 4.203763 3.504679 4.92368 0.003472 0.230327 0.003472 0.465284 0.016204 0.694454a5.230398 5.230398 0 0 0-3.326435 4.868125 5.2385 5.2385 0 0 0 5.238499 5.243129c0.219911 0 0.41783-0.03588 0.627324-0.062501 0.062501 0.138891 0.135419 0.270837 0.202549 0.409728a5.241972 5.241972 0 0 0 3.723432 8.934154c0.958347 0 1.85535-0.277782 2.629667-0.729177 0.092594 0.082177 0.189817 0.166669 0.287041 0.248846a5.216509 5.216509 0 0 0-0.45371 2.116928 5.241972 5.241972 0 0 0 9.588098 2.930597c0.128474 0.04051 0.263893 0.077547 0.395839 0.1169 0 0.042825-0.013889 0.08102-0.013889 0.126159a5.239657 5.239657 0 0 0 5.2385 5.24313 5.235028 5.235028 0 0 0 5.163268-4.405155c0.186345-0.019676 0.371533-0.049769 0.56598-0.072918a5.235028 5.235028 0 0 0 4.760484 3.076433 5.24313 5.24313 0 0 0 5.244287-5.245445c0-0.392367-0.050927-0.774316-0.135419-1.142377 0.151623-0.085649 0.30556-0.170141 0.457182-0.26042a5.19336 5.19336 0 0 0 3.546347 1.402797c2.893559 0 5.239657-2.346098 5.239657-5.239657a5.173684 5.173684 0 0 0-1.092608-3.172498l0.185188-0.258106c0.482646 0.145835 0.982653 0.246531 1.516225 0.246531a5.2385 5.2385 0 0 0 5.2385-5.241972 5.222296 5.222296 0 0 0-2.46647-4.430618c0.050927-0.211809 0.100696-0.415515 0.142363-0.625009 2.568323-0.340283 4.554462-2.515082 4.554462-5.174841z m-23.594083 18.797719a4.961876 4.961876 0 0 0-1.086821 0.384264c-1.856508 0.567138-3.821813 0.875012-5.861193 0.875013a20.000282 20.000282 0 0 1-15.45508-7.275566 5.364659 5.364659 0 0 0-0.989597-1.322935 19.927365 19.927365 0 0 1-3.606532-11.457338c0-1.010431 0.093751-1.995399 0.241901-2.967634 0.135419-0.440978 0.223383-0.899318 0.241902-1.381964a19.866021 19.866021 0 0 1 2.802123-6.635511c0.142363-0.18403 0.277782-0.371533 0.398153-0.576397a20.260703 20.260703 0 0 1 4.967663-4.929467 5.511652 5.511652 0 0 0 2.243087-1.332195 19.684306 19.684306 0 0 1 6.211894-1.986139c0.064816 0 0.123844 0.015047 0.185187 0.015046a5.150536 5.150536 0 0 0 1.304417-0.18403c0.483803-0.034723 0.965291-0.072918 1.456039-0.072918 1.984982 0 3.902833 0.298615 5.714201 0.836817 0.156252 0.068288 0.324079 0.104168 0.490748 0.153938a20.047737 20.047737 0 0 1 6.746623 3.765099c0.218753 0.247689 0.468757 0.474544 0.744223 0.677093 3.906305 3.655144 6.356571 8.849662 6.356571 14.621734 0 2.696797-0.538202 5.267435-1.503493 7.614691-0.164354 0.289356-0.304402 0.591444-0.41783 0.909735a20.078987 20.078987 0 0 1-11.184186 10.268664z" fill="#36C62E" /><path d="M463.681192 404.193796a34.388217 22.883425 90 1 0 45.76685 0 34.388217 22.883425 90 1 0-45.76685 0Z" fill="#E83828" /><path d="M251.864493 598.432414a34.388217 22.883425 53.264 1 0 36.677553-27.374471 34.388217 22.883425 53.264 1 0-36.677553 27.374471Z" fill="#E83828" /><path d="M481.637464 261.76586c8.813782 11.813824 9.592728 26.148517 1.731506 32.016655-7.863537 5.866981-21.389191 1.047468-30.20413-10.76867-8.818412-11.814982-9.593885-26.148517-1.731506-32.017813 7.863537-5.866981 21.383404-1.046311 30.20413 10.769828zM461.315418 518.80884c8.813782 11.813824 9.593885 26.149675 1.730349 32.016656-7.86238 5.868138-21.388033 1.047468-30.20413-10.767513-8.819569-11.816139-9.593885-26.149675-1.730349-32.016656 7.86238-5.868138 21.383404-1.047468 30.20413 10.767513zM438.014163 815.235479c-10.619363 10.225839-24.739933 12.797634-31.549056 5.735034-6.805652-7.066072-3.71996-21.088261 6.893616-31.317571 10.618205-10.233941 24.74109-12.798792 31.549056-5.735035 6.804494 7.067229 3.71996 21.084788-6.893616 31.317572z" fill="#E83828" /><path d="M644.257816 327.933461a36.46695 36.46695 0 0 0-5.277853 2.858836c-16.91922 11.055712-21.66813 33.734273-10.610103 50.65465 11.059184 16.914591 33.737745 21.665815 50.653493 10.606632a36.618573 36.618573 0 0 0 4.73502-3.682923l-39.500557-60.437195z" fill="#E57B76" /><path d="M674.257082 373.634337a3.967649 3.967649 0 0 0-7.663303 1.380807 4.456081 4.456081 0 0 0-8.514009 1.180572 4.068344 4.068344 0 0 0-6.928338-2.760456c0.189817-0.452553 0.2963-0.946773 0.2963-1.469928a3.831073 3.831073 0 0 0-3.829915-3.828758c-0.559036 0-1.091451 0.126159-1.570624 0.344913a3.809082 3.809082 0 0 0 1.570624-3.076433 3.826443 3.826443 0 0 0-3.825286-3.8276c-0.212966 0-0.414358 0.028936-0.618064 0.061343 0-0.042825-0.005787-0.083335-0.009259-0.125001 0.206021 0.033565 0.410885 0.063658 0.627323 0.063658a3.8276 3.8276 0 0 0 3.825286-3.8276c0-1.412057-0.774316-2.634296-1.912064-3.295186a3.8276 3.8276 0 0 0 4.58687-3.752368c0-0.778946-0.237272-1.500021-0.635425-2.103038a3.784776 3.784776 0 0 0 1.790534 0.461812 3.826443 3.826443 0 0 0 3.826443-3.825286c0-1.28474-0.638898-2.416701-1.612291-3.111155l-8.231598-12.598557a34.569932 34.569932 0 0 0-4.989654 2.702584c-15.985179 10.451536-20.477141 31.878922-10.025604 47.866417 10.446907 15.986337 31.88008 20.474826 47.866416 10.026761a35.082671 35.082671 0 0 0 4.47923-3.482688l-8.503592-13.004813z m-7.279038 3.157452c-0.00463 0-0.013889 0.001157-0.017361 0.00463v-0.00926l-0.003473-0.03125c0.008102 0.009259 0.017361 0.023148 0.020834 0.03588z m-8.894802 0.647c-0.050927-0.008102-0.101853-0.019676-0.156252-0.027778 0.050927-0.158567 0.078705-0.321764 0.105326-0.488433 0.008102 0.175928 0.025463 0.34607 0.050926 0.516211z m-12.716614-8.553361c-0.055556 0.038195-0.097224 0.083335-0.148151 0.120372-0.009259-0.017361-0.023148-0.032408-0.025463-0.046297 0.055556-0.024306 0.114585-0.047454 0.173614-0.074075z m-0.884272-14.893729a0.046297 0.046297 0 0 1 0.008102-0.024306c0.016204 0.010417 0.042825 0.020834 0.059029 0.03125-0.020834-0.00463-0.046297-0.002315-0.067131-0.006944z" fill="#E16A19" /><path d="M651.870192 344.811014m-1.943315 0a1.943314 1.943314 0 1 0 3.886629 0 1.943314 1.943314 0 1 0-3.886629 0Z" fill="#E0CD1B" /><path d="M646.889797 350.519428m-1.942157 0a1.942157 1.942157 0 1 0 3.884314 0 1.942157 1.942157 0 1 0-3.884314 0Z" fill="#E0CD1B" /><path d="M646.039091 357.81004a1.944472 1.944472 0 1 1-3.888944-0.002315 1.944472 1.944472 0 0 1 3.888944 0.002315zM646.039091 365.587927c0 1.072932-0.87154 1.944472-1.947944 1.944472-1.06483 0-1.942157-0.87154-1.942157-1.944472a1.944472 1.944472 0 1 1 3.890101 0z" fill="#E0CD1B" /><path d="M647.982405 371.903989m-1.944471 0a1.944472 1.944472 0 1 0 3.888943 0 1.944472 1.944472 0 1 0-3.888943 0Z" fill="#E0CD1B" /><path d="M653.814664 375.792932m-1.944472 0a1.944472 1.944472 0 1 0 3.888944 0 1.944472 1.944472 0 1 0-3.888944 0Z" fill="#E0CD1B" /><path d="M662.805531 375.792932m-1.943314 0a1.943314 1.943314 0 1 0 3.886629 0 1.943314 1.943314 0 1 0-3.886629 0Z" fill="#E0CD1B" /><path d="M670.703791 374.942226m-1.945629 0a1.945629 1.945629 0 1 0 3.891258 0 1.945629 1.945629 0 1 0-3.891258 0Z" fill="#E0CD1B" /><path d="M588.404018 586.81443a36.461163 36.461163 0 0 0-5.910963-1.025477c-20.132229-1.800951-37.906785 13.063842-39.704264 33.19607-1.795164 20.129914 13.067314 37.90447 33.19607 39.701949 2.030121 0.180558 4.031307 0.18866 6.001242 0.04051l6.417915-71.913052z" fill="#E57B76" /><path d="M583.650479 641.275847a3.972278 3.972278 0 0 0-1.340297-4.268579 3.972278 3.972278 0 0 0-5.532486 0.605333 4.471128 4.471128 0 0 0-1.547475-4.659788 4.456081 4.456081 0 0 0-5.868138 0.312504 4.071817 4.071817 0 0 0-0.750011-5.61119 4.050983 4.050983 0 0 0-2.978051-0.848392c0.430562-0.236114 0.820613-0.559036 1.145849-0.971078a3.828758 3.828758 0 0 0-0.640055-5.376234 3.766257 3.766257 0 0 0-1.44215-0.701398 3.803294 3.803294 0 0 0 3.135461-1.443308 3.831073 3.831073 0 0 0-0.630796-5.375076c-0.168984-0.131946-0.34607-0.232642-0.524313-0.335652l0.072918-0.103011c0.138891 0.15741 0.283569 0.30556 0.452552 0.438663a3.831073 3.831073 0 0 0 5.375076-0.635425 3.819498 3.819498 0 0 0 0.538202-3.769729 3.826443 3.826443 0 0 0 6.730419-2.151651c0.244216 0.557878 0.607647 1.068302 1.120386 1.471085a3.820656 3.820656 0 0 0 5.371604-0.634268c0.793993-1.006959 0.99307-2.291699 0.658574-3.438706l1.341454-14.990952a34.777111 34.777111 0 0 0-5.590356-0.968764c-19.022259-1.694468-35.823422 12.345082-37.515576 31.370813-1.701413 19.022259 12.345082 35.818793 31.366183 37.519049 1.917851 0.168984 3.814869 0.177086 5.676006 0.038195l1.37502-15.472441z m-7.671405-2.032436c0-0.001157-0.008102-0.005787-0.013889-0.005787 0-0.002315 0-0.00463 0.005787-0.008102 0.003472-0.006945 0.008102-0.018519 0.016204-0.025464 0 0.012732 0 0.026621-0.008102 0.039353z m-7.384363-5.000071a7.58344 7.58344 0 0 1-0.106483-0.120372c0.140048-0.093751 0.262735-0.201392 0.390051-0.317134a5.414428 5.414428 0 0 0-0.283568 0.437506z m-4.684094-14.591641c-0.069445-0.00463-0.127317 0.00463-0.190975 0.003472 0.00463-0.019676 0.00463-0.038195 0.009259-0.055556 0.056714 0.017361 0.118057 0.037038 0.181716 0.052084z m8.530213-12.239756c0.00463-0.009259 0.013889-0.012732 0.021991-0.016204 0.009259 0.019676 0.021991 0.041667 0.025463 0.062501-0.012732-0.016204-0.034723-0.032408-0.047454-0.046297z" fill="#E16A19" /><path d="M583.929418 604.778804m-1.943315 0a1.943314 1.943314 0 1 0 3.886629 0 1.943314 1.943314 0 1 0-3.886629 0Z" fill="#E0CD1B" /><path d="M578.005723 607.378378a1.939842 1.939842 0 0 1-2.729205 0.324078 1.946787 1.946787 0 0 1-0.321764-2.729205 1.945629 1.945629 0 0 1 2.730363-0.321764c0.842604 0.664361 0.986125 1.884286 0.320606 2.726891zM571.298452 611.373805a1.943314 1.943314 0 0 1-2.733834 0.317134 1.942157 1.942157 0 0 1 2.407441-3.050969 1.944472 1.944472 0 0 1 0.326393 2.733835zM566.482412 617.480372a1.947944 1.947944 0 0 1-2.734992 0.318292 1.947944 1.947944 0 0 1-0.320606-2.729205 1.944472 1.944472 0 0 1 3.055598 2.410913zM565.623604 624.846217a1.944472 1.944472 0 0 1-2.732678 0.319449 1.942157 1.942157 0 1 1 2.406284-3.049812c0.841447 0.666676 0.989597 1.888916 0.326394 2.730363z" fill="#E0CD1B" /><path d="M566.264817 630.306942m-1.944472 0a1.944472 1.944472 0 1 0 3.888943 0 1.944472 1.944472 0 1 0-3.888943 0Z" fill="#E0CD1B" /><path d="M574.849429 637.079028a1.941 1.941 0 1 1-3.049812-2.405126 1.941 1.941 0 1 1 3.049812 2.405126z" fill="#E0CD1B" /><path d="M580.052048 640.099904m-1.943314 0a1.943314 1.943314 0 1 0 3.886629 0 1.943314 1.943314 0 1 0-3.886629 0Z" fill="#E0CD1B" /><path d="M583.736128 274.859795c0-2.80791-2.074103-5.115813-4.765114-5.530171a68.783378 68.783378 0 0 0-0.180558-0.875012 5.608875 5.608875 0 0 0 2.555592-4.701456 5.61582 5.61582 0 0 0-5.61582-5.61582c-0.478016 0-0.931726 0.07639-1.376177 0.18866-0.168984-0.247689-0.34607-0.497692-0.523155-0.741908a5.555634 5.555634 0 0 0 0.811354-2.878513 5.614663 5.614663 0 0 0-5.612348-5.61582 5.563736 5.563736 0 0 0-3.33338 1.119229c-0.283569-0.168984-0.567138-0.327551-0.850707-0.488433 0.021991-0.209494 0.064816-0.414358 0.064816-0.629639a5.61582 5.61582 0 0 0-5.616978-5.61582c-2.098409 0-3.906305 1.162053-4.870439 2.868096a27.361497 27.361497 0 0 0-1.072932-0.106483 5.590357 5.590357 0 0 0-5.292898-3.814868c-2.890087 0-5.251232 2.195633-5.552162 5.008172-0.321764 0.098381-0.635426 0.211809-0.9433 0.317134-1.094923-1.312519-2.721103-2.17017-4.567195-2.170169a5.960732 5.960732 0 0 0-5.956102 5.965362c0 0.829873 0.167826 1.618078 0.472229 2.337996-0.202549 0.196762-0.409728 0.388894-0.612277 0.589128a5.623922 5.623922 0 0 0-2.231513-0.466441 5.613505 5.613505 0 0 0-3.90862 9.637867 19.491016 19.491016 0 0 0-0.302088 0.758113 5.616977 5.616977 0 0 0-5.618135 5.618135c0 2.443322 1.574096 4.503536 3.752368 5.272065 0.006945 0.247689 0.006945 0.497692 0.021991 0.743066a5.603088 5.603088 0 0 0-3.563708 5.217666 5.61582 5.61582 0 0 0 5.616978 5.61582c0.228012 0 0.445608-0.04051 0.663204-0.068288l0.21991 0.440979a5.578782 5.578782 0 0 0-1.634282 3.956074 5.619292 5.619292 0 0 0 5.620449 5.61582c1.032422 0 1.988454-0.299773 2.819485-0.782418 0.101853 0.087964 0.202549 0.177086 0.307874 0.26505a5.590357 5.590357 0 0 0-0.48496 2.270865 5.614663 5.614663 0 1 0 10.27445 3.137776c0.135419 0.04514 0.278939 0.083335 0.418988 0.125001 0 0.047454-0.012732 0.089122-0.012732 0.135419a5.613505 5.613505 0 0 0 5.61582 5.618135c2.794021 0 5.09035-2.046325 5.526699-4.717659 0.202549-0.024306 0.401626-0.053241 0.604175-0.078705a5.610033 5.610033 0 0 0 5.104238 3.296343 5.616977 5.616977 0 0 0 5.615821-5.618135c0-0.423617-0.054399-0.83103-0.143521-1.225712 0.159724-0.092594 0.325236-0.18403 0.486118-0.278939a5.567208 5.567208 0 0 0 3.80098 1.504651 5.613505 5.613505 0 0 0 5.612347-5.618135c0-1.28474-0.442136-2.452581-1.165525-3.395881 0.064816-0.093751 0.127317-0.186345 0.195604-0.276625 0.516211 0.156252 1.049783 0.266207 1.620393 0.266208a5.61582 5.61582 0 0 0 5.61582-5.618135 5.590357 5.590357 0 0 0-2.64587-4.746595c0.057871-0.22454 0.11227-0.443293 0.158567-0.667833 2.747724-0.365746 4.876226-2.69564 4.876226-5.545217z m-25.276977 20.134543c-0.410885 0.093751-0.798622 0.237272-1.164368 0.414358-1.989611 0.60649-4.091493 0.937513-6.280182 0.937513-6.660974 0-12.615919-3.034765-16.554632-7.795249a5.684108 5.684108 0 0 0-1.063672-1.415529 21.366042 21.366042 0 0 1-3.86348-12.274479c0-1.082191 0.101853-2.138919 0.262735-3.179443 0.144678-0.472229 0.241902-0.962977 0.258105-1.481502a21.266504 21.266504 0 0 1 3.0012-7.10774 5.532486 5.532486 0 0 0 0.427089-0.618064 21.614888 21.614888 0 0 1 5.325307-5.281324 5.943371 5.943371 0 0 0 2.398182-1.424789 21.081316 21.081316 0 0 1 6.657501-2.12966c0.067131 0 0.130789 0.017361 0.194448 0.017362 0.487275 0 0.95256-0.08102 1.405112-0.196762 0.511581-0.038195 1.02895-0.08102 1.553263-0.08102 2.12503 0 4.181772 0.319449 6.119299 0.897003 0.168984 0.070603 0.351857 0.109955 0.52547 0.163197a21.3672 21.3672 0 0 1 7.222325 4.032464c0.241902 0.266207 0.506952 0.508109 0.804409 0.725705 4.180615 3.919037 6.809124 9.4793 6.809124 15.664573 0 2.891245-0.574082 5.642441-1.612291 8.157523a6.474628 6.474628 0 0 0-0.445608 0.97455 21.487572 21.487572 0 0 1-11.979336 11.001313zM563.367785 505.402401c0-2.80791-2.072946-5.115813-4.766271-5.530171a73.183904 73.183904 0 0 0-0.179401-0.875012 5.610033 5.610033 0 0 0-3.061386-10.317275 5.567208 5.567208 0 0 0-1.375019 0.18866 29.514306 29.514306 0 0 0-0.523155-0.740751 5.562579 5.562579 0 0 0 0.812511-2.879671 5.616977 5.616977 0 0 0-5.613505-5.616977 5.57531 5.57531 0 0 0-3.334538 1.119229c-0.282411-0.168984-0.56598-0.327551-0.849549-0.488433 0.020834-0.210651 0.063658-0.414358 0.063658-0.630796a5.61582 5.61582 0 0 0-5.61582-5.61582c-2.099567 0-3.907463 1.162053-4.871596 2.868096a27.462193 27.462193 0 0 0-1.070617-0.105326c-0.748853-2.214152-2.827586-3.814869-5.294056-3.814868-2.890087 0-5.252389 2.195633-5.55332 5.008172-0.320606 0.099538-0.635426 0.212966-0.942143 0.317134-1.09608-1.311361-2.722261-2.169012-4.567194-2.169012a5.960732 5.960732 0 0 0-5.95726 5.964205c0 0.829873 0.168984 1.619236 0.474544 2.337996-0.204864 0.197919-0.410885 0.390052-0.613435 0.587971a5.613505 5.613505 0 0 0-6.14129 9.173741c-0.106483 0.247689-0.202549 0.505794-0.30093 0.758112a5.618135 5.618135 0 0 0-5.619292 5.618135c0 2.443322 1.574096 4.502378 3.752367 5.272065 0.010417 0.247689 0.010417 0.497692 0.021991 0.743066a5.604246 5.604246 0 0 0-3.56255 5.217667 5.61582 5.61582 0 0 0 5.61582 5.61582c0.22917 0 0.445608-0.04051 0.665519-0.068288 0.07176 0.14815 0.142363 0.291671 0.217595 0.439821a5.58457 5.58457 0 0 0-1.633124 3.956074 5.62045 5.62045 0 0 0 5.620449 5.616977c1.032422 0 1.988454-0.30093 2.819485-0.783575 0.100696 0.089122 0.202549 0.178243 0.307874 0.26505a5.583412 5.583412 0 0 0-0.486118 2.26855 5.616977 5.616977 0 0 0 10.275608 3.137776c0.135419 0.04514 0.277782 0.083335 0.41783 0.126159 0 0.04514-0.012732 0.086807-0.012731 0.133104a5.612348 5.612348 0 0 0 5.616977 5.618135c2.792864 0 5.09035-2.047483 5.526698-4.718817 0.202549-0.023148 0.400469-0.052084 0.604176-0.077547a5.608875 5.608875 0 0 0 5.104238 3.2975 5.61582 5.61582 0 0 0 5.614663-5.618135c0-0.42246-0.054399-0.83103-0.142363-1.224554 0.159724-0.093751 0.324079-0.18403 0.486118-0.278939a5.567208 5.567208 0 0 0 3.799822 1.503493 5.61119 5.61119 0 0 0 5.612348-5.618135 5.572995 5.572995 0 0 0-1.163211-3.397038c0.062501-0.092594 0.125002-0.186345 0.194447-0.276625 0.515054 0.15741 1.049783 0.266207 1.619236 0.266208a5.618135 5.618135 0 0 0 5.618135-5.618135 5.593829 5.593829 0 0 0-2.645871-4.746595c0.055556-0.22454 0.109955-0.444451 0.15741-0.668991 2.746567-0.362274 4.876226-2.69101 4.876226-5.53943z m-25.278135 20.133386a5.38202 5.38202 0 0 0-1.163211 0.414358c-1.989611 0.60649-4.091493 0.937513-6.280181 0.937513-6.660974 0-12.615919-3.034765-16.555789-7.795249a5.722303 5.722303 0 0 0-1.062515-1.415529 21.366042 21.366042 0 0 1-3.863481-12.274479c0-1.082191 0.100696-2.138919 0.262736-3.179443a5.636654 5.636654 0 0 0 0.258105-1.481502 21.275763 21.275763 0 0 1 3.0012-7.10774c0.151623-0.196762 0.30093-0.400469 0.425932-0.618064a21.614888 21.614888 0 0 1 5.325307-5.281324 5.931797 5.931797 0 0 0 2.399339-1.427104 21.080159 21.080159 0 0 1 6.656344-2.127345c0.067131 0 0.131946 0.017361 0.195605 0.017362 0.486118 0 0.951402-0.08102 1.405112-0.196762 0.511581-0.038195 1.027792-0.079862 1.553263-0.079863 2.12503 0 4.180615 0.319449 6.119299 0.897004 0.168984 0.069445 0.351857 0.109955 0.524313 0.163196a21.383404 21.383404 0 0 1 7.223482 4.032465c0.243059 0.266207 0.509266 0.508109 0.803252 0.725705 4.181772 3.917879 6.809124 9.4793 6.809124 15.663415 0 2.891245-0.574082 5.642441-1.612292 8.157523a6.585741 6.585741 0 0 0-0.44445 0.97455 21.478312 21.478312 0 0 1-11.980494 11.001313z" fill="#36C62E" /><path d="M109.893791 307.779241a12.97472 12.97472 0 0 1-3.901676-0.603018c-6.850791-2.151651-10.658715-9.450365-8.50475-16.299999C124.444922 205.077559 171.394659 118.780045 237.031002 34.380705c14.708541-18.912304 35.846571-30.895112 59.521674-33.741217 23.043149-2.765085 45.667311 3.485003 63.753215 17.624092l129.192796 84.34494c6.013974 3.925981 7.706127 11.981651 3.780146 17.99331-3.927139 6.013974-11.983965 7.70034-17.98868 3.778988L344.64016 39.018502c-12.691151-10.062642-28.667071-14.527983-44.985589-12.563835-16.732875 2.009288-31.684475 10.494361-42.100131 23.889227C193.829003 132.288337 148.320259 215.836971 122.292114 298.671473c-1.744238 5.553319-6.871625 9.107767-12.398323 9.107768zM82.549655 478.989991h-0.065974c-7.181814-0.034723-12.972405-5.883185-12.937682-13.063842 0.177086-35.910229 3.847277-72.351716 10.905246-108.310556 1.380807-7.044081 8.221181-11.636738 15.264105-10.25246 7.042924 1.384279 11.634424 8.217709 10.251302 15.262947-6.744308 34.352337-10.248987 69.151439-10.419129 103.426229-0.03588 7.159823-5.848462 12.937683-12.997868 12.937682zM388.055125 1023.998843c-20.088247 0-38.544526-7.232741-52.471806-20.676218C178.257024 851.476731 89.782396 691.407342 72.616644 527.557806c-0.747696-7.141305 4.435248-13.534913 11.576552-14.283766 7.143619-0.72802 13.534913 4.43872 14.284924 11.575395 16.50602 157.59829 102.357926 312.284501 255.162167 459.766907 9.872825 9.52907 23.48297 14.245571 38.316513 13.24903 18.278036-1.210665 36.183381-10.744365 47.888408-25.501518l230.429179-280.08613c4.557935-5.545217 12.755967-6.341525 18.298869-1.781275 5.54406 4.562564 6.33921 12.755967 1.777803 18.29887l-230.281029 279.910201c-16.043051 20.229452-40.918402 33.419453-66.394455 35.108135-1.883128 0.121529-3.761627 0.185188-5.62045 0.185188zM710.279581 677.123575a12.939997 12.939997 0 0 1-8.252431-2.963004c-5.542902-4.562564-6.33921-12.755967-1.777803-18.301185l33.975017-41.271416c4.566037-5.54406 12.755967-6.335738 18.298869-1.77433 5.54406 4.563722 6.33921 12.755967 1.776646 18.301184l-33.97386 41.271416a12.97935 12.97935 0 0 1-10.046438 4.737335zM780.564138 591.741583c-2.907448 0-5.832258-0.971079-8.253589-2.96069-5.542902-4.564879-6.340367-12.758282-1.776645-18.303499l92.037179-111.803662c21.35794-26.934408 17.232882-66.194222-9.273279-87.61582L653.350537 240.139397c-6.004714-3.934083-7.684136-11.99091-3.752368-17.999097 3.930611-5.99777 11.988595-7.685294 17.999097-3.753525L869.015618 350.335397c38.12901 30.250427 44.313126 86.180615 13.77913 124.680001l-92.184172 111.98885a12.97935 12.97935 0 0 1-10.046438 4.737335zM615.171757 212.613545a12.939997 12.939997 0 0 1-7.110054-2.126187l-75.462871-49.41042c-6.007029-3.932926-7.687609-11.99091-3.754683-17.997939 3.930611-6.003557 11.988595-7.687609 17.99794-3.753525l75.464028 49.409262c6.004714 3.934083 7.685294 11.99091 3.754683 17.999097a12.989767 12.989767 0 0 1-10.889043 5.879712z" fill="#231815" /></svg>