<?xml version="1.0" encoding="utf-8"?>
<!-- Uploaded to: SVG Repo, www.svgrepo.com, Generator: SVG Repo Mixer Tools -->
<svg width="800px" height="800px" viewBox="0 0 1024 1024" class="icon"  version="1.1" xmlns="http://www.w3.org/2000/svg"><path d="M530.785922 984.929661c0 15.989623-12.959793 28.946984-28.946983 28.946983s-28.9482-12.95736-28.9482-28.946983V721.226155c0-15.989623 12.961009-28.9482 28.9482-28.948199s28.946984 12.958577 28.946983 28.948199v263.703506z" fill="#E7BD86" /><path d="M513.00224 687.968566c-1.308751 0-2.585877 0.214071-3.819216 0.610588 8.474038 2.735483 14.842642 14.380444 14.842642 28.337612v263.702289c0 13.957168-6.367388 25.602129-14.842642 28.337612 1.233339 0.395301 2.510466 0.610588 3.819216 0.610588 10.307019 0 18.664291-12.958577 18.664291-28.9482V716.916766c0-15.989623-8.357272-28.9482-18.664291-28.9482z" fill="#D3AB80" /><path d="M462.11544 910.441564a6.464693 6.464693 0 0 1-6.464692-6.463477v-26.936421a6.464693 6.464693 0 1 1 12.929385 0v26.936421a6.464693 6.464693 0 0 1-6.464693 6.463477z" fill="" /><path d="M494.098336 1020.341337c-21.199083 0-38.446372-15.88867-38.446372-35.411676v-62.635147a6.464693 6.464693 0 0 1 12.929385 0v62.635147c0 12.397857 11.447918 22.482291 25.516987 22.482291 14.070285 0 25.516987-10.084434 25.516987-22.482291V721.226155c0-12.399074-11.447918-22.482291-25.516987-22.482291-14.069068 0-25.516987 10.083218-25.516987 22.482291v129.957957a6.464693 6.464693 0 1 1-12.929385 0V721.226155c0-19.524223 17.247289-35.411676 38.446372-35.411676 21.200299 0 38.446372 15.88867 38.446372 35.411676v263.703506c0 19.523007-17.246073 35.411676-38.446372 35.411676z" fill="" /><path d="M520.014273 18.743351c-99.810474 0-180.725558 86.823922-180.725558 193.92983V708.830731c0 38.450021 20.391453 69.642314 45.536248 69.642314H655.196285c25.152094 0 45.537465-31.192294 45.537464-69.642314V212.673181c0.001216-107.105907-80.913868-193.929829-180.719476-193.92983z" fill="#EDD0A4" /><path d="M700.734965 587.210586V212.675613c0-107.10834-80.9163-193.932262-180.723125-193.932262-99.805609 0-180.723125 86.823922-180.723125 193.932262V587.210586H700.734965z" fill="#9BC8E7" /><path d="M522.86044 18.743351c-6.548618 0-13.021825 0.334486-19.406241 0.970616C601.44264 29.448104 677.977788 112.120757 677.977788 212.67683v496.158766c0 38.451237-21.876568 69.638665-48.867724 69.638665h38.807616c26.989939 0 48.86894-31.187428 48.868941-69.638665V212.675613c0.001216-107.105907-86.826355-193.932262-193.926181-193.932262z" fill="#917673" /><path d="M301.220616 251.374978a6.463476 6.463476 0 0 1-6.464693-6.464693v-38.655577c0-48.435933 17.811657-95.312556 50.150932-131.998926a6.46226 6.46226 0 0 1 9.124764-0.571666 6.463476 6.463476 0 0 1 0.571666 9.123548c-30.255734 34.320645-46.919194 78.16014-46.919193 123.447044v38.655577a6.46226 6.46226 0 0 1-6.463476 6.464693zM653.12734 784.937738H351.948079c-31.53651 0-57.192156-34.494578-57.192156-76.89396V529.570828c0-3.571089 2.893604-6.463476 6.464693-6.463477s6.464693 2.893604 6.464692 6.463477v178.47295c0 35.269368 19.857492 63.964575 44.263987 63.964575H653.128556c24.408928 0 44.26642-28.695207 44.26642-63.964575v-501.78907c0-104.583278-87.408968-189.66666-194.851793-189.66666-42.195042 0-82.341817 12.909924-116.104176 37.333448a6.468341 6.468341 0 0 1-9.027459-1.44741 6.467125 6.467125 0 0 1 1.44741-9.02746c35.982126-26.029054 78.752483-39.786746 123.684225-39.786746 114.570407 0 207.781178 90.883968 207.781178 202.596044v501.78907c-0.002433 42.39695-25.658079 76.892744-57.197021 76.892744z" fill="" /><path d="M301.220616 512.870879a6.463476 6.463476 0 0 1-6.464693-6.464693v-36.098892c0-3.571089 2.893604-6.464693 6.464693-6.464692s6.464693 2.893604 6.464692 6.464692v36.098892a6.464693 6.464693 0 0 1-6.464692 6.464693zM301.220616 445.529825a6.463476 6.463476 0 0 1-6.464693-6.464693V244.910285c0-3.571089 2.893604-6.464693 6.464693-6.464692s6.464693 2.893604 6.464692 6.464692v194.154847a6.463476 6.463476 0 0 1-6.464692 6.464693z" fill="" /><path d="M427.637891 480.431866c0 8.989754-6.752958 16.27424-15.083472 16.27424-8.33173 0-15.084688-7.284486-15.084688-16.27424V172.275846c0-8.992187 6.752958-16.277889 15.084688-16.277889s15.083472 7.285702 15.083472 16.277889v308.15602zM517.624222 478.383599c0 10.119707-6.754175 18.322508-15.084688 18.322507-8.33173 0-15.084688-8.202801-15.084688-18.322507V131.463749c0-10.122139 6.752958-18.32494 15.084688-18.32494 8.330513 0 15.084688 8.202801 15.084688 18.32494v346.91985zM610.121018 480.431866c0 8.989754-6.752958 16.27424-15.083472 16.27424-8.33173 0-15.083472-7.284486-15.083471-16.27424V172.275846c0-8.992187 6.752958-16.277889 15.083471-16.277889 8.33173 0 15.083472 7.285702 15.083472 16.277889v308.15602z" fill="#8BBACF" /></svg>