<?xml version="1.0" encoding="utf-8"?>
<!-- Uploaded to: SVG Repo, www.svgrepo.com, Generator: SVG Repo Mixer Tools -->
<svg width="800px" height="800px" viewBox="0 0 1024 1024" class="icon"  version="1.1" xmlns="http://www.w3.org/2000/svg"><path d="M654.230955 536.613352c6.864784-193.331365-54.96158-259.084949-54.96158-259.084949-11.131994-16.066192-18.375748-33.144778-22.915818-50.067445H424.262867c-4.543317 16.921584-11.788155 34.001252-22.920148 50.067445 0 0-61.82095 65.753583-54.94967 259.084949 0 0 22.082082 184.500265 12.265658 285.581498 0 0-28.456369 114.819462-2.941896 155.055323 0 0 26.156558 40.584515 144.588153 30.625165 118.440257 9.95935 144.597898-30.625164 144.597898-30.625165 25.513391-40.235861-2.946227-155.055324-2.946227-155.055323-9.812093-101.082316 12.27432-285.581498 12.27432-285.581498z" fill="#8CD0D8" /><path d="M441.422661 1007.881834c-1.649064 0.136429-3.219085 0.227382-4.833501 0.347571 10.181319 0.930102 21.562351 1.364295 34.275194 1.157484-9.126697-0.147257-18.900893-0.621512-29.441693-1.505055zM641.956635 822.201346c-9.813176-101.081233 12.27432-285.581498 12.27432-285.581498 6.864784-193.331365-54.96158-259.084949-54.96158-259.084948-11.131994-16.066192-18.375748-33.144778-22.915818-50.067445h-58.884468c4.542235 16.921584 11.781658 34.001252 22.913651 50.067445 0 0 61.82853 65.753583 54.961581 259.084948 0 0-22.086413 184.500265-12.269989 285.581498 0 0 28.458535 114.81838 2.946227 155.055324 0 0-16.241602 25.12251-80.878846 30.972735 114.262917 8.446716 139.761149-30.972735 139.761149-30.972735 25.512308-40.236944-2.946227-155.055324-2.946227-155.055324z" fill="#73BEC3" /><path d="M327.105605 685.973287a8.768299 8.768299 0 0 1-8.752057-8.355763c-3.889322-82.544151-15.731615-153.891342-15.851804-154.60489l-0.113691-1.135829c-6.799817-191.507975 51.403587-262.5953 57.90131-269.902938 46.328628-67.428634 22.344113-154.844183 18.95395-166.153752-20.826065-29.459017-3.364177-59.684638-2.599739-60.974222 17.001709-26.407762 64.200886-26.296236 91.42181-23.790698 27.227421-2.5142 74.417937-2.622477 91.250733 23.514591 0.932268 1.563525 18.400652 31.792394-2.429744 61.253577-3.400991 11.331224-27.481873 99.123578 19.276616 166.615013a8.763968 8.763968 0 0 1-2.216437 12.196361c-3.980275 2.756741-9.442867 1.766004-12.19636-2.214272-54.890117-79.228699-22.529267-179.137288-21.122745-183.349277l0.446103-1.338308 0.841315-1.129333c15.163159-20.349644 2.99062-41.948809 2.465475-42.859421-9.953936-15.441432-45.554445-18.006523-75.485551-15.158829l-0.830487 0.080126-0.830488-0.080126c-29.934355-2.84228-65.530532-0.276107-75.678284 15.474999-0.331329 0.590112-12.501702 22.192525 2.659291 42.544334l0.83915 1.127167 0.445019 1.338308c1.406523 4.211989 33.769538 104.121661-21.119496 183.349277l-0.818576 1.013476c-0.576035 0.62476-60.285577 67.608374-53.670915 257.261558 1.14774 7.031531 12.225595 76.437309 15.980653 156.100201a8.768299 8.768299 0 0 1-8.343852 9.165677c-0.145092 0.006497-0.284769 0.012993-0.421199 0.012993zM432.138961 1012.355854c-93.918686 0-117.775434-35.156571-118.85171-36.829456-27.103985-42.735985-0.633422-154.718581 1.732437-164.421314 2.083256-16.648725 3.470289-35.09377 4.128615-54.846807 0.16025-4.834583 4.269376-8.697919 9.051986-8.469453a8.759637 8.759637 0 0 1 8.469454 9.050903c-0.678899 20.483908-2.134146 39.648998-4.317017 56.958214l-0.188403 1.011311c-7.813293 31.560681-23.778788 120.25282-4.105877 151.271031 0.136429 0.188403 26.964307 36.657295 139.271735 27.18411l0.733038-0.057387 0.733037 0.057387c112.317173 9.451529 139.135306-27.002204 139.395172-27.366016 19.567882-30.86554 3.590477-119.539272-4.229313-151.089125l-0.215472-1.261431c-9.858652-101.532749 11.07569-280.798888 12.483295-292.658505 2.103829-59.936924-2.125484-113.645736-12.569917-159.646284a8.769382 8.769382 0 0 1 6.610332-10.489909c4.728472-1.067615 9.419046 1.88944 10.489909 6.609249 10.800665 47.567321 15.167491 102.916534 12.980288 164.510102l-0.057387 0.736286c-0.221969 1.866701-22.192525 187.569928-12.545013 288.624091 2.554263 10.512647 28.689165 121.736219 1.736769 164.24374-1.239776 1.917592-30.863374 45.532789-154.8117 35.322235-12.983536 1.071946-24.934107 1.557028-35.924258 1.557028z" fill="" /><path d="M371.605429 434.553292a8.767217 8.767217 0 0 1-1.769252-0.182989 8.762886 8.762886 0 0 1-6.825804-10.346983c10.441184-50.929332 25.685552-82.69574 36.634557-100.37743 2.554263-4.112374 7.949723-5.387881 12.070758-2.836867a8.771548 8.771548 0 0 1 2.836867 12.070759c-10.201891 16.467901-24.444693 46.260413-34.369395 94.663634a8.770465 8.770465 0 0 1-8.577731 7.009876zM424.497829 311.23514a8.768299 8.768299 0 0 1-7.628139-13.075572c10.001578-17.741243 16.574013-37.984775 19.535399-60.163224 0.638836-4.799935 5.0598-8.15545 9.851073-7.530689a8.768299 8.768299 0 0 1 7.528523 9.847824c-3.259148 24.404631-10.538634 46.76282-21.642475 66.458469a8.761803 8.761803 0 0 1-7.644381 4.463192zM399.173924 858.385469c-0.364895 0-0.736286-0.022738-1.109843-0.068214-4.803183-0.60527-8.204174-4.993751-7.599987-9.793686 8.364425-66.278729 3.833018-145.837673-1.443337-200.920525-0.462344-4.816176 3.070746-9.09638 7.89017-9.558724 4.825921-0.514317 9.100711 3.069663 9.563055 7.892336 5.359729 55.954484 9.950688 136.905875 1.387033 204.777364a8.768299 8.768299 0 0 1-8.687091 7.671449z" fill="#FFFFFF" /><path d="M611.685538 503.34622c-88.455012 51.918987-167.774664-58.453525-287.758955-3.316535-11.161229 5.131263-1.230031-53.211819 0-70.901088 1.301494-18.66918 11.006392-76.588897 11.006392-76.588898 52.047837-26.16522 153.990958 37.140212 265.271916 12.304638 18.323775-4.089635 21.274333 132.753439 11.480647 138.501883z" fill="#F1C446" /><path d="M367.136823 346.070128c44.682812 0 107.554053 24.66991 177.32256 24.66991 18.18518 0 36.825125-1.671802 55.745508-5.895701 0.268528-0.060635 0.537056-0.088787 0.799087-0.088788 17.610227-0.002166 20.331237 132.928848 10.68156 138.590671-17.741243 10.416281-35.123005 14.296941-52.529671 14.296941-51.120983 0-102.541894-33.484769-164.427811-33.486935-22.112399-0.003248-45.550114 4.271541-70.801473 15.874542-0.467758 0.214389-0.898702 0.319418-1.292832 0.319418-9.055234 0 0.113691-54.270771 1.292832-71.221589 1.301494-18.66918 11.006392-76.588897 11.006392-76.588898 9.23714-4.642933 20.046468-6.469571 32.203848-6.469571m0-17.533351c-15.809575 0-28.918713 2.728589-40.079942 8.338439l-7.944309 3.994351-1.472572 8.772631c-0.399543 2.39726-9.858652 58.976504-11.203457 78.267196-0.24579 3.515765-0.956089 9.51433-1.706451 15.863714-5.094449 42.998017-5.330494 57.905641 3.10756 67.402647 3.786459 4.263962 9.179753 6.705616 14.796099 6.705616 2.945144 0 5.841563-0.645333 8.615628-1.923006 20.899693-9.603118 41.660791-14.270954 63.464601-14.270954 29.769773 0 57.800612 8.717409 84.910011 17.153297 27.013032 8.401239 52.526423 16.333638 79.532958 16.333638 22.161124 0 42.247655-5.461509 61.403-16.711526 8.759637-5.135594 11.344217-14.852403 12.851438-29.89754 0.974496-9.767699 1.421682-22.366851 1.286335-36.437492-0.110443-11.850955-1.015641-52.490691-7.90966-77.867653-4.876812-17.940473-13.551993-27.037936-25.784084-27.037936-1.544035 0-3.095649 0.171078-4.616946 0.507821-16.512295 3.686844-33.49668 5.476668-51.928732 5.476668-36.95181 0-72.773204-7.44515-104.377195-14.011089-26.370947-5.482082-51.280151-10.658822-72.944282-10.658822z" fill="" /><path d="M474.838132 775.851063m-16.071606 0a16.071606 16.071606 0 1 0 32.143213 0 16.071606 16.071606 0 1 0-32.143213 0Z" fill="#ACDBDF" /><path d="M465.838119 835.641813c0 6.385115-5.17674 11.568352-11.571599 11.568352-6.389446 0-11.5716-5.182154-11.5716-11.568352 0-6.392694 5.182154-11.574848 11.5716-11.574848 6.39486-0.001083 11.5716 5.181071 11.571599 11.574848zM506.928289 824.065882a6.622242 6.622242 0 0 1-6.62116 6.62116 6.623325 6.623325 0 0 1-6.620076-6.62116 6.620077 6.620077 0 0 1 6.620076-6.620077 6.618994 6.618994 0 0 1 6.62116 6.620077zM474.684379 805.757266a6.620077 6.620077 0 1 1-13.240154 0 6.620077 6.620077 0 0 1 13.240154 0zM481.304455 874.223197a6.62116 6.62116 0 1 1-13.242319-0.002166 6.62116 6.62116 0 0 1 13.242319 0.002166zM520.189016 861.956456a7.451647 7.451647 0 0 1-14.902211 0c0-4.114539 3.336025-7.447316 7.450564-7.447316a7.449481 7.449481 0 0 1 7.451647 7.447316zM537.948666 774.390402c0 4.88006-3.962951 8.846259-8.848425 8.846259s-8.85059-3.966199-8.85059-8.846259c0-4.886557 3.965116-8.846259 8.85059-8.846259s8.848425 3.960785 8.848425 8.846259z" fill="#ACDBDF" /></svg>