<?xml version="1.0" encoding="utf-8"?>
<!-- Uploaded to: SVG Repo, www.svgrepo.com, Generator: SVG Repo Mixer Tools -->
<svg width="800px" height="800px" viewBox="0 0 1024 1024" class="icon"  version="1.1" xmlns="http://www.w3.org/2000/svg"><path d="M136.213444 499.307796c0-216.610379 175.602456-392.209186 392.204321-392.209187 216.610379 0 392.212835 175.598807 392.212835 392.209187 0 216.604297-175.602456 392.209186-392.212835 392.209186C311.8159 891.515766 136.213444 715.910877 136.213444 499.307796z" fill="#F2E886" /><path d="M563.858632 246.583929c53.902035 0 104.617335 13.634845 148.897134 37.629011-49.557372-42.50885-113.925762-68.254504-184.339218-68.254504-156.475967 0-283.343278 126.85758-283.343277 283.34936 0 19.767485 2.037321 39.060609 5.893026 57.693275 1.373215-171.670123 140.913269-310.417142 312.892335-310.417142z" fill="#E5B46C" /><path d="M490.967552 734.757614c-53.902035 0-104.616118-13.637278-148.894702-37.630227 49.557372 42.507634 113.924546 68.254504 184.336785 68.254504 156.475967 0 283.344494-126.858796 283.344494-283.349359 0-19.768701-2.033672-39.061825-5.896675-57.693276-1.36835 171.671339-140.90962 310.418359-312.889902 310.418358z" fill="#FFFFFF" /><path d="M393.617675 826.902897c-68.157199-21.645469-121.446213-39.004659-167.791308-87.214358 45.569089 73.805747 111.243797 112.012505 200.303298 140.284436 197.899868 62.815161 409.416337-47.140562 472.416378-245.609664a379.435489 379.435489 0 0 0 15.760957-75.534124C843.477566 776.000285 611.123258 895.939489 393.617675 826.902897z" fill="#EDCB5E" /><path d="M396.281395 262.503006c-47.529782 32.188452-341.856347 285.690758 74.451608 416.410125 189.520702 59.503146 284.661759-13.040069 316.299222-59.094466 14.953326-21.784129 115.721037-180.372828-54.023666-276.077036-150.416306-84.815793-276.32638-122.14924-336.727164-81.238623z" fill="#D55124" /><path d="M403.794548 256.763235c-45.392724 28.370452-325.981057 252.490335 75.419791 373.299201 182.705712 54.984551 273.498457-9.049353 303.496333-49.969702 14.183402-19.361237 111.61842-176.883232-54.472484-247.532651-167.813201-71.382855-266.763743-111.845871-324.44364-75.796848z" fill="#DA825B" /><path d="M597.668427 620.71387c1.632289 7.684652-1.787977 15.392415-8.266049 17.185257-6.47199 1.79041-13.789317-3.749887-15.615-12.352854-20.808647-119.168062 44.245742-227.004972 159.334298-264.225302 8.474038-2.404647 16.74252 1.488765 18.1802 8.049545 1.440112 6.566863-3.731642 13.177513-11.303178 15.325518-102.960719 33.635862-160.634534 129.253712-142.330271 236.017836z" fill="#7F4F21" /><path d="M334.65457 415.401803c4.107482-4.629279 10.541767-4.760641 14.488696-0.414762 101.778465 107.94881 239.726368 155.617252 386.432926 133.402549 5.78964-0.986428 10.78138 3.090646 11.159652 9.267073 0.380705 6.215349-4.191407 12.176489-10.214579 13.201839-152.507145 23.163425-296.236173-26.473007-401.981028-138.770129-4.107482-4.518595-4.018691-12.028099 0.114333-16.68657z" fill="#77201C" /><path d="M626.885432 335.370977c4.806861 0.656808 15.656354-5.429612 6.577809-6.664167-4.821456-0.658024-15.672166 5.429612-6.577809 6.664167z m0.948722 58.593346c8.073872 1.099545 5.925867-12.914789-0.698162-13.814859-8.075088-1.100761-5.930732 12.918438 0.698162 13.814859z m-56.927 113.26044c9.012864 1.224825 9.420328-11.518464 0.976698-12.669094-9.009215-1.224825-9.392353 11.52333-0.976698 12.669094z m77.867009-0.763843c2.595608 0.35273-6.76877-7.1215-9.78887-7.527748-2.590742-0.355163 6.757823 7.117852 9.78887 7.527748z m97.270817-45.777078c8.58229 1.165226 4.438319-11.782404-2.321938-12.700718-8.601751-1.168875-4.432237 11.782404 2.321938 12.700718z m-39.345226 76.03038c8.813389 1.19685-2.081108-5.500158-5.660711-5.986683-8.837715-1.200499 2.079892 5.496509 5.660711 5.986683z m-41.274295 52.026483c6.160615 0.840471 15.128475-9.567502 6.720118-10.715699-6.15575-0.835606-15.132124 9.572367-6.720118 10.715699z m-85.010402 27.55674c2.782919 0.379489 15.928808-2.989692 9.668455-3.84111-2.780487-0.379489-15.925159 2.989692-9.668455 3.84111z m-115.413311-20.466864c9.628317 1.312399 2.089622-3.235387-2.976313-3.925035-9.619803-1.307534-2.079892 3.241469 2.976313 3.925035z m-71.328121-72.276844c4.201138 0.57045 15.298759-4.681581 6.470774-5.883295-4.206003-0.572882-15.313354 4.682797-6.470774 5.883295z m82.231132-91.179531c7.931564 1.076435 4.760641-12.784644-1.663913-13.65309-7.926698-1.0813-4.765506 12.779779 1.663913 13.65309z m74.040495-116.236753c8.167528 1.109276 5.605977-12.926952-1.311183-13.87081-8.182124-1.112924-5.621789 12.929385 1.311183 13.87081z m-204.240497 35.138006c8.736761 1.188336 9.189229-9.839955 0.623967-11.005181-8.564045-1.160361-9.183147 9.839955-0.623967 11.005181z m56.260461-32.863505c-1.752704-0.239613-6.813774-8.032517-10.673128-8.555531 1.747839 0.235964 6.80526 8.028868 10.673128 8.555531z m15.793798 56.509805c8.540935 1.160361 9.405732-7.890209 0.919531-9.040839-8.471606-1.155495-9.400867 7.885344-0.919531 9.040839z m-52.932635 61.866439c7.24678 0.983996 3.225657-12.50246-2.121247-13.228598-7.251646-0.983996-3.220791 12.503676 2.121247 13.228598z m-13.200623 44.949986c6.678763 0.906152 0.04622-11.586578-4.964981-12.266495-6.669033-0.906152-0.041355 11.587794 4.964981 12.266495z m109.224721 52.98372c7.704113 1.04846 12.881949-9.09314 3.70245-10.341075-7.706546-1.043595-12.877084 9.091924-3.70245 10.341075z m73.622084-62.029424c4.75091 0.648294-4.039369-9.432491-7.802635-9.942125-4.752127-0.647077 4.038152 9.433707 7.802635 9.942125z m-57.139855-92.488282l0.128929-0.956021c-0.054734-1.37808-0.803982-2.616285-1.969207-3.240252a7.018114 7.018114 0 0 0-4.699826-0.642212c-3.382561 0.425709-6.180076 3.022533-6.947568 6.498749l-0.128929 0.957237c0.052301 1.373215 0.810063 2.61142 1.970424 3.235387a7.043657 7.043657 0 0 0 4.703474 0.637347c3.383777-0.412329 6.166696-3.023749 6.942703-6.490235z m0 0M687.610971 489.02267c9.00435 1.224825 9.409381-11.52333 0.971832-12.669094-9.009215-1.224825-9.398434 11.52333-0.971832 12.669094zM784.85138 444.067819c2.593175 0.351514-6.78215-7.127582-9.796169-7.53383-2.596824-0.355163 6.75904 7.123933 9.796169 7.53383zM778.359928 523.20344c6.158182 0.836822 15.128475-9.572367 6.709171-10.718132-6.148452-0.831957-15.124826 9.571151-6.709171 10.718132zM716.489841 553.898262c2.786568 0.379489 15.928808-2.984827 9.668455-3.839893-2.782919-0.374624-15.93124 2.989692-9.668455 3.839893zM601.081395 533.431398c9.631966 1.308751 2.079892-3.229305-2.987259-3.92017-9.613722-1.306318-2.076243 3.232954 2.987259 3.92017zM573.293556 446.28637c7.926698 1.077651 4.778886-12.77613-1.663913-13.65309-7.923049-1.072786-4.765506 12.779779 1.663913 13.65309zM481.779539 288.881141c8.73068 1.189552 9.178282-9.839955 0.623967-11.000316-8.574992-1.170091-9.184364 9.83509-0.623967 11.000316zM553.33511 342.594648c8.537286 1.161577 9.397218-7.880478 0.915882-9.031109-8.478903-1.155495-9.402083 7.875613-0.915882 9.031109zM500.891432 374.395097c7.257727 0.983996 3.236603-12.507325-2.116381-13.232247-7.241915-0.985212-3.215926 12.506109 2.116381 13.232247zM487.70054 419.343867c6.675114 0.907368 0.041355-11.591443-4.963764-12.270145-6.675114-0.907368-0.041355 11.591443 4.963764 12.270145zM596.921612 472.332452c7.708979 1.049676 12.883165-9.100438 3.706099-10.343508-7.712628-1.050893-12.877084 9.095573-3.706099 10.343508zM670.547345 410.299379c4.75091 0.647077-4.039369-9.433707-7.803851-9.942126-4.759425-0.651943 4.039369 9.428842 7.803851 9.942126zM613.395327 317.797717l0.127713-0.952371c-0.041355-1.371999-0.789386-2.606554-1.954612-3.230522a7.013249 7.013249 0 0 0-4.70469-0.637347c-3.383777 0.407464-6.181292 3.018884-6.95365 6.493884l-0.126496 0.943857c0.060816 1.380513 0.806414 2.619934 1.98137 3.239036a6.88432 6.88432 0 0 0 4.687662 0.637347c3.38621-0.402599 6.175211-3.014018 6.942703-6.493884z" fill="#77201C" /><path d="M403.952668 545.742898c1.632289 7.684652-1.789193 15.392415-8.267265 17.186473-6.47199 1.791626-13.789317-3.749887-15.615-12.352854-20.7977-119.171711 44.239661-227.003756 159.336731-264.225302 8.474038-2.404647 16.741303 1.487548 18.178983 8.048329 1.440112 6.568079-3.734075 13.178729-11.30561 15.326734-102.959503 33.64316-160.634534 129.248847-142.327839 236.01662z" fill="#7F4F21" /><path d="M389.38248 305.109162c4.107482-4.629279 10.54055-4.760641 14.487479-0.413546 101.786979 107.957325 239.71907 155.603872 386.432926 133.402549 5.78964-0.986428 10.775298 3.088213 11.156004 9.26464 0.381922 6.216565-4.188975 12.176489-10.212147 13.203055-152.514443 23.159776-296.227659-26.469358-401.981028-138.770129-4.107482-4.519811-4.017475-12.028099 0.116766-16.686569z" fill="#77201C" /><path d="M496.495685 588.561907c1.632289 7.684652-1.79041 15.391198-8.268482 17.184041-6.47199 1.79041-13.789317-3.746238-15.615-12.349205-20.803782-119.170495 44.246959-227.006188 159.336731-264.227735 8.474038-2.404647 16.74252 1.487548 18.180199 8.049545 1.440112 6.568079-3.732858 13.178729-11.304393 15.326734-102.961936 33.638295-160.634534 129.250064-142.329055 236.01662z" fill="#7F4F21" /><path d="M108.716303 575.105859a9.465332 9.465332 0 0 1-9.331538-7.941294c-3.637986-22.264571-5.481913-45.092295-5.481913-67.856769 0-230.542004 187.55636-418.097148 418.097148-418.097149 5.110938 0 10.206065 0.087574 15.273216 0.272454a9.465332 9.465332 0 0 1 9.116251 9.803466c-0.192177 5.222839-4.518595 9.393569-9.80225 9.119899-4.84335-0.176365-9.706161-0.263939-14.587217-0.263939-220.099975 0-399.164052 179.065294-399.164052 399.165269 0 21.741558 1.760002 43.548796 5.231353 64.806262 0.845336 5.157158-2.657639 10.024835-7.816014 10.867738a9.888608 9.888608 0 0 1-1.534984 0.124063zM511.998784 917.403727c-165.76615 0-316.040148-98.054121-382.839944-249.805936a9.462899 9.462899 0 0 1 4.849432-12.475701A9.462899 9.462899 0 0 1 146.483973 659.970305C210.263669 804.856045 353.738488 898.470632 511.998784 898.470632c220.098759 0 399.165269-179.064077 399.165268-399.162836 0-61.889549-13.783235-121.219979-40.962919-176.338325-2.319505-4.691311-0.385571-10.364185 4.299659-12.678825 4.714421-2.30126 10.362969-0.383138 12.67396 4.304524 28.481136 57.743145 42.92118 119.891767 42.92118 184.712626 0 230.539572-187.55636 418.095932-418.097148 418.095931zM844.337498 270.947853a9.444654 9.444654 0 0 1-7.699248-3.95301 401.863046 401.863046 0 0 0-72.054259-76.786925 9.467764 9.467764 0 0 1-1.331861-13.319821c3.314447-4.049099 9.267073-4.636577 13.319821-1.33186a420.578422 420.578422 0 0 1 75.44655 80.410314 9.462899 9.462899 0 0 1-7.681003 14.981302zM717.128404 155.288848a9.387488 9.387488 0 0 1-4.752127-1.285641 397.615689 397.615689 0 0 0-79.061426-35.095435 9.462899 9.462899 0 0 1-6.14237-11.893088c1.581204-4.986875 6.919593-7.732089 11.893088-6.142371a416.730015 416.730015 0 0 1 82.83199 36.76908 9.465332 9.465332 0 0 1-4.769155 17.647455z" fill="#231815" /></svg>