<?xml version="1.0" encoding="UTF-8" standalone="no"?>
<svg
   width="874.100037"
   height="854.649048"
   viewBox="0 0 874.100037 854.649048"
   version="1.1"
   id="svg18"
   sodipodi:docname="gnu2.svg"
   inkscape:version="1.2.2 (b0a8486541, 2022-12-01)"
   xmlns:inkscape="http://www.inkscape.org/namespaces/inkscape"
   xmlns:sodipodi="http://sodipodi.sourceforge.net/DTD/sodipodi-0.dtd"
   xmlns="http://www.w3.org/2000/svg"
   xmlns:svg="http://www.w3.org/2000/svg">
  <defs
     id="defs22" />
  <sodipodi:namedview
     id="namedview20"
     pagecolor="#ffffff"
     bordercolor="#000000"
     borderopacity="0.25"
     inkscape:showpageshadow="2"
     inkscape:pageopacity="0.0"
     inkscape:pagecheckerboard="0"
     inkscape:deskcolor="#d1d1d1"
     showgrid="false"
     inkscape:zoom="0.5955661"
     inkscape:cx="437.39897"
     inkscape:cy="429.0036"
     inkscape:window-width="1366"
     inkscape:window-height="681"
     inkscape:window-x="0"
     inkscape:window-y="30"
     inkscape:window-maximized="1"
     inkscape:current-layer="svg18" />
  <path
     fill-rule="nonzero"
     fill="rgb(0%, 0%, 0%)"
     fill-opacity="1"
     d="M 177.390625 1.152344 C 152.015625 3.777344 128.265625 10.652344 104.890625 22.152344 C 61.890625 43.277344 38.140625 67.027344 18.015625 108.777344 C 9.640625 126.277344 6.640625 135.027344 2.765625 152.902344 C 0.390625 163.777344 0.015625 169.152344 0.015625 194.152344 C 0.015625 230.777344 2.640625 251.402344 10.140625 275.402344 C 18.265625 301.277344 38.640625 333.027344 62.390625 356.652344 C 83.515625 377.902344 106.890625 389.777344 138.015625 395.527344 C 144.515625 396.777344 150.640625 398.277344 151.515625 398.902344 C 152.515625 399.652344 153.015625 403.527344 153.015625 410.277344 C 153.015625 421.902344 151.015625 427.277344 143.640625 436.027344 C 137.765625 442.902344 136.140625 447.027344 135.015625 456.527344 C 133.890625 466.277344 131.015625 470.652344 120.765625 477.902344 C 107.765625 487.152344 101.765625 497.527344 101.765625 511.027344 C 101.765625 522.277344 108.640625 525.152344 120.765625 519.027344 C 127.640625 515.527344 133.640625 515.027344 146.890625 516.652344 C 156.640625 517.777344 160.765625 516.152344 166.265625 508.902344 C 171.140625 502.402344 174.140625 500.152344 179.390625 498.777344 L 183.890625 497.652344 L 183.265625 529.152344 C 182.265625 580.152344 186.265625 605.152344 200.765625 639.777344 C 218.390625 681.402344 247.765625 716.902344 295.640625 754.152344 C 302.015625 759.152344 299.265625 755.777344 282.140625 737.902344 C 246.515625 700.402344 234.015625 684.152344 220.515625 657.277344 C 210.890625 638.027344 203.015625 612.402344 198.390625 585.402344 C 196.515625 573.902344 196.140625 565.527344 196.390625 533.902344 C 196.515625 510.152344 197.015625 495.277344 197.890625 493.777344 C 198.765625 492.152344 201.140625 490.902344 204.515625 490.402344 C 214.640625 488.652344 228.640625 483.527344 238.515625 477.902344 C 244.015625 474.777344 248.890625 472.652344 249.265625 473.152344 C 251.265625 475.402344 255.515625 508.777344 255.515625 521.277344 C 255.515625 537.402344 256.515625 540.527344 262.015625 542.027344 C 267.140625 543.277344 268.640625 547.152344 270.515625 564.902344 C 271.265625 572.027344 272.390625 579.902344 273.140625 582.527344 C 274.265625 587.027344 274.390625 587.027344 282.140625 587.902344 C 293.015625 589.152344 295.015625 590.777344 296.140625 598.777344 C 297.390625 607.652344 300.515625 611.027344 307.640625 611.027344 C 318.640625 611.027344 321.015625 615.402344 313.640625 621.902344 C 309.515625 625.652344 309.265625 626.277344 309.265625 633.777344 C 309.265625 639.527344 310.140625 643.402344 312.390625 648.152344 C 315.765625 655.652344 320.515625 659.027344 328.765625 660.277344 C 337.640625 661.402344 339.265625 662.777344 339.265625 669.152344 C 339.265625 675.527344 341.265625 677.277344 348.515625 677.277344 C 354.015625 677.277344 362.640625 680.527344 363.515625 683.152344 C 364.515625 685.527344 362.515625 689.152344 356.515625 696.027344 C 349.265625 704.277344 347.515625 709.152344 349.390625 715.277344 C 351.890625 722.777344 361.890625 732.652344 379.015625 744.527344 C 395.390625 755.902344 399.265625 759.652344 399.265625 764.027344 C 399.265625 767.527344 392.765625 773.652344 385.140625 777.277344 C 376.515625 781.277344 373.015625 790.027344 376.890625 797.652344 C 379.390625 802.277344 386.640625 810.777344 390.765625 813.652344 L 394.640625 816.527344 L 391.265625 810.902344 C 385.265625 801.152344 383.890625 797.652344 384.765625 794.402344 C 385.765625 790.152344 388.765625 787.277344 392.265625 787.277344 C 397.890625 787.277344 408.515625 780.652344 411.390625 775.402344 C 415.640625 767.777344 415.015625 763.152344 408.015625 748.777344 C 404.640625 741.777344 402.140625 736.027344 402.640625 736.027344 C 403.015625 736.027344 406.265625 738.527344 409.890625 741.527344 C 414.265625 745.277344 418.015625 750.152344 421.140625 756.152344 C 423.890625 761.402344 428.765625 768.027344 433.015625 772.152344 L 440.140625 779.277344 L 432.890625 790.277344 C 420.640625 808.777344 420.765625 818.777344 433.515625 830.777344 C 437.265625 834.402344 440.640625 837.277344 440.890625 837.277344 C 441.265625 837.277344 439.515625 833.402344 437.140625 828.652344 C 432.265625 819.277344 432.265625 816.402344 436.890625 810.527344 C 438.265625 808.777344 441.015625 806.402344 443.015625 805.402344 L 446.390625 803.652344 L 445.890625 809.027344 C 445.015625 816.527344 447.640625 820.902344 461.015625 834.152344 C 476.890625 850.027344 487.140625 855.402344 499.265625 854.527344 L 504.890625 854.152344 L 497.765625 850.777344 C 492.140625 848.152344 490.140625 846.402344 488.015625 842.277344 C 486.515625 839.402344 485.640625 836.777344 486.015625 836.402344 C 486.265625 836.027344 488.515625 837.277344 490.765625 839.027344 C 500.390625 846.277344 513.890625 850.277344 538.015625 852.777344 L 544.890625 853.527344 L 535.265625 848.402344 C 530.015625 845.652344 524.765625 841.902344 523.640625 840.152344 C 521.390625 836.777344 519.015625 829.777344 520.140625 829.777344 C 520.515625 829.777344 525.515625 832.777344 531.140625 836.527344 C 543.765625 844.777344 550.390625 847.152344 562.890625 848.152344 C 573.640625 848.902344 583.515625 847.402344 591.765625 843.652344 L 597.390625 841.152344 L 588.015625 841.777344 C 582.890625 842.152344 576.515625 842.027344 573.890625 841.402344 L 569.140625 840.402344 L 577.015625 835.152344 C 586.640625 828.777344 599.265625 816.527344 605.015625 808.027344 C 607.390625 804.527344 609.265625 801.277344 609.265625 800.777344 C 609.265625 800.277344 606.640625 801.902344 603.390625 804.402344 C 597.765625 808.652344 582.015625 816.652344 581.015625 815.777344 C 580.890625 815.527344 582.640625 812.902344 585.015625 809.902344 C 587.265625 806.902344 589.265625 804.027344 589.265625 803.402344 C 589.265625 802.902344 589.640625 801.652344 590.015625 800.527344 C 590.640625 798.777344 590.265625 798.777344 586.765625 799.902344 C 580.265625 802.277344 570.140625 800.652344 564.140625 796.527344 C 557.390625 791.902344 548.390625 780.527344 546.515625 774.527344 C 544.765625 768.652344 545.390625 767.902344 559.515625 758.402344 C 576.890625 746.652344 580.890625 740.777344 581.015625 727.277344 C 581.015625 720.402344 580.265625 717.527344 575.765625 707.777344 C 572.890625 701.527344 570.515625 695.652344 570.515625 694.652344 C 570.515625 692.652344 576.890625 681.652344 580.390625 677.652344 C 583.390625 674.152344 589.890625 672.527344 607.515625 671.027344 C 615.265625 670.402344 622.890625 669.277344 624.640625 668.652344 C 632.265625 665.777344 637.390625 649.152344 636.265625 631.402344 C 635.765625 625.027344 635.140625 619.027344 634.765625 618.027344 C 634.265625 616.777344 636.640625 615.277344 643.140625 612.777344 C 649.515625 610.277344 654.390625 607.152344 659.140625 602.777344 C 665.765625 596.652344 666.015625 596.277344 666.515625 588.777344 C 667.015625 581.902344 666.765625 580.527344 663.765625 576.777344 C 662.015625 574.402344 658.015625 570.652344 654.890625 568.402344 C 651.890625 566.277344 647.890625 562.277344 646.265625 559.652344 L 643.140625 554.902344 L 651.515625 549.027344 C 656.140625 545.652344 665.015625 537.902344 671.390625 531.652344 C 682.140625 521.027344 682.890625 519.902344 685.515625 511.152344 C 688.015625 503.152344 688.265625 500.152344 687.640625 488.652344 C 686.515625 469.902344 683.265625 459.902344 676.390625 454.277344 C 667.765625 447.277344 663.890625 446.027344 656.265625 448.027344 C 652.765625 449.027344 646.515625 450.152344 642.390625 450.527344 C 635.390625 451.277344 634.515625 451.027344 630.765625 447.902344 C 626.265625 444.152344 624.640625 439.402344 623.015625 424.902344 C 622.390625 419.527344 620.765625 412.027344 619.390625 408.027344 C 617.640625 402.902344 617.390625 401.027344 618.515625 401.027344 C 619.390625 401.027344 627.015625 405.527344 635.390625 411.027344 C 654.640625 423.652344 660.890625 426.777344 671.015625 429.152344 C 675.390625 430.152344 684.015625 433.402344 690.015625 436.277344 L 701.015625 441.652344 L 722.265625 442.152344 C 736.015625 442.402344 745.765625 442.027344 750.140625 441.027344 C 761.140625 438.652344 769.265625 429.652344 769.265625 420.027344 C 769.265625 414.652344 765.765625 412.277344 758.265625 412.277344 C 751.765625 412.277344 749.390625 411.027344 746.515625 405.652344 C 745.015625 402.902344 741.640625 387.027344 742.390625 386.277344 C 742.515625 386.027344 749.015625 384.277344 756.640625 382.277344 C 796.265625 371.902344 820.890625 351.527344 847.515625 307.277344 C 868.765625 272.027344 875.640625 243.027344 873.890625 196.652344 C 871.890625 145.652344 861.640625 112.152344 838.515625 80.902344 C 811.890625 44.902344 783.015625 24.527344 741.015625 12.402344 C 717.390625 5.527344 675.265625 3.777344 651.390625 8.652344 C 634.515625 12.027344 625.890625 15.902344 604.890625 29.152344 C 587.390625 40.277344 577.890625 44.777344 572.640625 44.777344 C 570.140625 44.652344 565.515625 43.152344 559.015625 40.402344 C 556.140625 39.277344 556.140625 42.027344 559.015625 50.402344 C 562.265625 59.652344 567.515625 65.527344 576.765625 70.152344 L 584.890625 74.152344 L 611.140625 74.152344 C 633.265625 74.027344 639.515625 73.652344 651.140625 71.277344 C 675.640625 66.277344 692.140625 68.152344 715.015625 78.527344 C 741.265625 90.402344 764.390625 117.402344 774.015625 147.277344 C 778.015625 159.527344 779.265625 168.777344 779.265625 184.652344 C 779.265625 212.902344 773.265625 232.902344 760.890625 246.152344 C 749.015625 258.777344 738.515625 260.902344 723.765625 253.652344 C 710.640625 247.152344 700.140625 236.277344 675.765625 203.527344 C 634.265625 147.777344 620.140625 133.277344 596.140625 121.527344 C 577.265625 112.277344 566.640625 109.777344 546.765625 109.777344 C 528.390625 109.777344 522.140625 111.277344 507.265625 119.152344 C 495.515625 125.277344 486.140625 132.027344 474.640625 142.402344 C 470.140625 146.402344 466.015625 149.777344 465.265625 149.777344 C 463.765625 149.777344 459.765625 147.152344 442.390625 134.152344 C 415.890625 114.277344 399.140625 108.527344 368.765625 108.527344 C 330.015625 108.527344 306.015625 118.152344 279.890625 144.152344 C 273.765625 150.277344 254.640625 171.152344 237.515625 190.402344 C 190.515625 243.277344 181.765625 251.527344 166.390625 258.527344 C 150.140625 265.902344 130.890625 257.652344 117.390625 237.277344 C 107.515625 222.402344 106.390625 217.652344 106.265625 191.027344 C 106.140625 166.777344 106.390625 165.152344 113.015625 148.527344 C 117.390625 137.402344 129.015625 116.902344 135.515625 108.902344 C 154.640625 85.277344 198.765625 65.777344 233.640625 65.652344 C 242.640625 65.527344 251.015625 66.527344 263.640625 69.027344 C 277.515625 71.902344 284.515625 72.527344 297.390625 72.527344 C 337.890625 72.527344 356.015625 62.527344 358.890625 38.777344 L 359.640625 32.402344 L 352.265625 35.402344 C 347.265625 37.527344 342.390625 38.527344 337.390625 38.527344 C 328.390625 38.527344 322.265625 35.902344 298.265625 21.277344 C 280.515625 10.527344 272.390625 6.902344 259.390625 4.152344 C 240.390625 0.277344 200.265625 -1.222656 177.390625 1.152344 Z M 251.765625 11.027344 C 265.140625 13.402344 277.640625 18.152344 291.640625 26.402344 C 298.890625 30.527344 309.640625 36.652344 315.515625 39.652344 C 325.515625 45.027344 326.640625 45.277344 336.140625 45.277344 C 341.765625 45.277344 347.390625 44.652344 349.015625 43.777344 C 356.015625 39.777344 347.390625 52.277344 340.015625 56.652344 C 329.265625 62.902344 322.890625 64.152344 300.515625 64.027344 C 283.765625 64.027344 277.515625 63.402344 267.390625 61.152344 C 242.390625 55.527344 220.140625 56.402344 192.390625 64.277344 C 170.015625 70.527344 146.515625 84.777344 132.890625 100.402344 C 119.765625 115.277344 104.390625 145.152344 100.015625 164.527344 C 97.390625 176.277344 97.265625 208.777344 99.890625 218.902344 C 103.140625 231.527344 110.140625 243.402344 119.765625 253.027344 C 131.765625 265.027344 140.015625 268.902344 153.140625 268.777344 C 164.140625 268.527344 170.015625 266.777344 180.140625 260.902344 C 191.515625 254.027344 199.140625 246.277344 239.265625 200.402344 C 281.765625 151.777344 293.765625 139.402344 307.015625 130.652344 C 324.015625 119.527344 338.265625 115.902344 366.765625 115.652344 C 383.515625 115.527344 387.515625 115.902344 396.515625 118.402344 C 416.765625 124.152344 434.390625 135.027344 453.265625 153.652344 L 463.015625 163.277344 L 470.390625 162.652344 C 480.390625 161.652344 482.890625 162.527344 490.390625 169.277344 C 499.390625 177.402344 501.765625 182.527344 501.765625 194.027344 C 501.765625 205.527344 503.140625 208.652344 509.390625 212.152344 C 512.015625 213.652344 515.015625 216.027344 516.015625 217.402344 C 517.515625 219.652344 517.765625 219.652344 518.515625 217.777344 C 519.015625 216.402344 517.640625 214.277344 514.015625 210.902344 L 508.640625 206.027344 L 508.640625 192.527344 C 508.640625 181.277344 508.140625 178.402344 505.890625 174.152344 C 502.640625 168.027344 495.765625 161.402344 487.390625 156.027344 C 482.140625 152.777344 481.765625 152.277344 484.890625 153.027344 C 499.640625 156.402344 526.265625 172.277344 535.015625 183.152344 C 540.640625 190.027344 544.015625 200.527344 542.640625 206.277344 C 541.140625 212.277344 533.890625 221.027344 524.765625 227.902344 C 509.515625 239.402344 507.765625 248.527344 519.140625 256.777344 C 522.515625 259.152344 525.515625 262.152344 525.890625 263.652344 C 527.015625 267.652344 524.265625 273.402344 520.390625 275.402344 C 515.140625 278.152344 513.390625 277.652344 516.515625 274.402344 C 518.265625 272.527344 519.265625 269.902344 519.265625 267.152344 C 519.265625 259.152344 509.015625 251.152344 491.140625 245.402344 C 472.140625 239.152344 463.140625 231.777344 460.015625 219.402344 C 455.890625 203.902344 455.390625 185.277344 458.765625 172.902344 C 459.265625 171.027344 458.640625 171.277344 456.265625 174.027344 L 453.140625 177.777344 L 441.140625 166.527344 C 420.265625 147.152344 410.015625 141.277344 391.390625 138.402344 C 370.390625 135.152344 346.890625 139.027344 326.140625 149.402344 C 302.890625 161.027344 286.015625 175.402344 260.140625 205.402344 C 220.890625 250.902344 210.265625 260.277344 179.890625 276.652344 C 172.390625 280.652344 165.765625 285.527344 159.890625 291.152344 L 151.140625 299.652344 L 144.265625 291.527344 C 137.765625 283.902344 137.140625 283.402344 133.015625 284.027344 C 130.640625 284.402344 125.515625 285.027344 121.640625 285.402344 L 114.640625 286.152344 L 113.015625 277.027344 C 110.515625 262.527344 110.640625 262.777344 99.765625 260.277344 L 90.140625 258.027344 L 90.890625 249.027344 C 91.390625 244.152344 92.015625 237.027344 92.515625 233.277344 L 93.265625 226.527344 L 86.265625 222.277344 C 82.390625 219.902344 79.265625 217.527344 79.265625 216.777344 C 79.265625 216.152344 81.640625 211.652344 84.390625 206.777344 L 89.515625 197.902344 L 83.890625 187.277344 L 78.140625 176.652344 L 85.640625 164.652344 L 93.015625 152.527344 L 90.265625 141.027344 L 87.390625 129.402344 L 93.015625 124.902344 C 104.890625 115.152344 104.140625 116.402344 105.515625 103.652344 C 106.140625 97.152344 107.265625 91.402344 108.140625 90.902344 C 109.015625 90.402344 114.265625 88.402344 120.015625 86.527344 L 130.390625 83.027344 L 135.015625 72.027344 L 139.765625 61.027344 L 166.515625 61.027344 L 172.640625 53.402344 L 178.890625 45.902344 L 197.640625 45.527344 L 216.265625 45.152344 L 222.390625 41.027344 C 229.140625 36.402344 227.140625 36.152344 240.140625 43.652344 L 245.390625 46.652344 L 264.890625 37.152344 L 282.890625 43.402344 C 292.765625 46.902344 301.140625 49.527344 301.390625 49.277344 C 301.640625 49.027344 296.640625 44.652344 290.140625 39.527344 L 278.390625 30.152344 L 267.265625 28.652344 C 261.140625 27.902344 250.640625 26.027344 243.890625 24.527344 L 231.640625 21.777344 L 217.765625 25.902344 L 204.015625 29.902344 L 191.765625 27.152344 L 179.640625 24.402344 L 167.765625 30.777344 L 156.015625 37.152344 L 143.515625 36.527344 L 131.140625 35.777344 L 125.515625 45.527344 C 119.140625 56.402344 120.515625 55.652344 101.515625 57.902344 L 94.390625 58.652344 L 87.890625 69.652344 C 81.890625 80.027344 80.890625 80.902344 73.515625 84.527344 C 69.140625 86.777344 65.515625 89.027344 65.515625 89.777344 C 65.515625 90.527344 64.640625 96.777344 63.640625 103.902344 L 61.765625 116.652344 L 54.765625 123.027344 L 47.890625 129.402344 L 54.140625 154.152344 L 47.765625 161.652344 C 44.140625 165.777344 40.515625 170.152344 39.515625 171.277344 C 38.015625 173.152344 38.640625 174.527344 45.390625 183.402344 L 53.015625 193.277344 L 36.765625 206.277344 L 45.140625 213.152344 C 59.015625 224.402344 58.890625 222.277344 46.765625 233.402344 L 36.140625 243.277344 L 47.390625 246.652344 C 53.640625 248.402344 59.390625 250.152344 60.265625 250.527344 C 61.390625 250.777344 59.265625 254.527344 53.765625 261.652344 C 49.265625 267.402344 46.015625 272.402344 46.515625 272.777344 C 47.015625 273.027344 50.890625 273.777344 55.140625 274.152344 C 59.265625 274.652344 63.390625 275.527344 64.140625 276.027344 C 65.140625 276.652344 63.640625 280.277344 59.265625 287.777344 C 55.890625 293.777344 53.015625 298.902344 53.015625 299.152344 C 53.015625 299.527344 58.140625 299.902344 64.265625 300.027344 L 75.515625 300.402344 L 64.015625 317.652344 L 71.265625 316.777344 C 75.390625 316.277344 81.015625 315.652344 84.015625 315.152344 C 87.265625 314.777344 89.265625 315.027344 89.265625 315.777344 C 89.265625 316.527344 88.140625 321.777344 86.765625 327.527344 C 85.390625 333.277344 84.265625 338.402344 84.265625 338.902344 C 84.265625 339.527344 88.515625 336.527344 93.640625 332.277344 C 99.765625 327.277344 103.265625 325.152344 103.515625 326.277344 C 103.890625 327.152344 105.265625 333.777344 106.890625 341.027344 C 108.390625 348.277344 109.765625 354.277344 109.890625 354.527344 C 110.140625 354.777344 113.015625 350.402344 116.265625 344.902344 C 119.640625 339.277344 122.640625 334.777344 123.015625 334.777344 C 123.390625 334.777344 124.765625 338.527344 126.015625 343.152344 C 127.140625 347.902344 128.765625 353.777344 129.390625 356.402344 L 130.640625 361.152344 L 138.390625 351.527344 L 146.140625 341.777344 L 146.765625 355.402344 L 147.390625 368.902344 L 155.390625 357.527344 C 159.765625 351.152344 163.640625 346.152344 163.890625 346.402344 C 164.140625 346.652344 162.265625 356.277344 159.640625 367.777344 C 155.640625 385.652344 154.640625 388.527344 152.640625 388.527344 C 148.140625 388.527344 126.015625 383.527344 117.390625 380.652344 C 95.140625 373.027344 80.140625 363.152344 62.265625 344.402344 C 34.265625 315.027344 17.265625 281.902344 10.140625 242.902344 C 7.765625 230.027344 7.390625 223.402344 7.390625 195.402344 C 7.390625 163.902344 7.515625 162.527344 10.890625 149.652344 C 23.515625 101.027344 51.890625 63.152344 95.515625 36.527344 C 121.265625 20.902344 141.390625 14.027344 174.890625 9.277344 C 182.390625 8.277344 243.890625 9.527344 251.765625 11.027344 Z M 724.640625 16.027344 C 749.140625 20.152344 767.890625 27.402344 785.140625 39.402344 C 799.890625 49.652344 825.640625 75.902344 835.640625 90.902344 C 858.890625 125.652344 865.890625 151.652344 865.890625 201.652344 C 865.765625 244.777344 862.390625 261.402344 847.890625 289.777344 C 822.390625 339.902344 792.640625 366.777344 754.515625 374.277344 C 749.265625 375.277344 743.640625 376.402344 742.265625 376.652344 C 740.015625 377.152344 739.015625 376.027344 736.390625 370.027344 C 733.765625 364.152344 727.265625 336.277344 728.390625 335.277344 C 728.515625 335.152344 732.015625 340.277344 736.015625 346.777344 C 740.015625 353.277344 743.640625 358.527344 744.015625 358.527344 C 744.390625 358.527344 744.265625 352.652344 743.765625 345.402344 C 743.265625 338.152344 743.265625 332.277344 743.515625 332.277344 C 743.890625 332.277344 746.890625 335.777344 750.140625 340.152344 C 753.390625 344.527344 756.640625 348.152344 757.390625 348.402344 C 758.015625 348.527344 759.265625 345.402344 760.140625 341.402344 C 761.140625 337.402344 762.390625 331.902344 763.140625 329.152344 L 764.515625 324.277344 L 770.265625 334.777344 L 776.015625 345.402344 L 778.890625 331.152344 C 780.515625 323.277344 781.890625 316.652344 782.140625 316.527344 C 782.265625 316.277344 785.890625 319.152344 790.140625 322.902344 C 794.390625 326.652344 798.015625 329.777344 798.390625 329.777344 C 798.640625 329.777344 797.765625 324.777344 796.390625 318.527344 C 795.015625 312.402344 794.140625 307.027344 794.390625 306.777344 C 794.640625 306.527344 798.765625 306.902344 803.390625 307.527344 C 816.015625 309.277344 816.265625 309.027344 811.265625 301.027344 C 808.765625 297.277344 806.765625 293.777344 806.765625 293.152344 C 806.765625 292.652344 811.015625 292.277344 816.140625 292.277344 C 821.265625 292.277344 825.515625 291.902344 825.515625 291.277344 C 825.515625 290.777344 823.015625 285.777344 820.015625 280.152344 C 816.515625 273.402344 815.140625 269.652344 816.140625 269.277344 C 817.015625 269.027344 820.890625 268.402344 824.765625 267.902344 C 833.140625 266.777344 833.140625 266.902344 824.890625 255.527344 C 821.765625 251.152344 819.265625 247.027344 819.265625 246.277344 C 819.265625 245.652344 823.765625 243.777344 829.265625 242.152344 C 834.765625 240.652344 839.265625 238.777344 839.265625 238.152344 C 839.265625 237.527344 835.390625 233.027344 830.640625 228.027344 L 821.890625 219.152344 L 830.640625 211.777344 C 835.390625 207.652344 839.265625 203.902344 839.265625 203.402344 C 839.265625 202.902344 836.515625 200.027344 833.015625 197.152344 C 829.640625 194.277344 826.765625 191.402344 826.765625 190.777344 C 826.765625 190.152344 829.515625 185.652344 833.015625 180.777344 C 836.765625 175.402344 838.890625 171.402344 838.265625 170.527344 C 837.640625 169.777344 834.515625 165.902344 831.390625 161.902344 C 828.140625 157.777344 825.515625 153.652344 825.515625 152.527344 C 825.640625 151.277344 826.640625 145.902344 828.015625 140.402344 L 830.390625 130.402344 L 818.140625 117.902344 L 816.515625 104.777344 L 814.890625 91.777344 L 807.890625 87.652344 C 801.890625 84.027344 800.140625 82.152344 795.140625 73.027344 L 789.265625 62.527344 L 780.890625 61.652344 C 767.515625 60.402344 767.765625 60.402344 762.390625 50.277344 L 757.390625 40.777344 L 746.640625 41.652344 L 735.890625 42.402344 L 725.515625 36.277344 L 715.015625 30.152344 L 706.265625 32.402344 C 694.515625 35.527344 692.765625 35.402344 680.140625 31.152344 L 669.390625 27.527344 L 660.515625 29.777344 C 655.515625 31.027344 647.515625 32.777344 642.515625 33.527344 C 637.640625 34.277344 632.390625 35.152344 630.890625 35.527344 C 628.515625 36.027344 605.390625 54.777344 607.140625 54.777344 C 607.515625 54.777344 615.140625 51.902344 624.265625 48.527344 L 640.640625 42.152344 L 649.140625 46.777344 L 657.515625 51.402344 L 664.890625 46.777344 L 672.140625 42.027344 L 677.890625 46.152344 C 683.640625 50.152344 683.765625 50.152344 699.765625 50.402344 L 715.890625 50.652344 L 726.140625 64.652344 L 749.890625 65.402344 L 754.015625 75.527344 L 758.265625 85.777344 L 768.640625 89.777344 L 778.890625 93.777344 L 779.765625 101.277344 C 780.140625 105.527344 780.515625 110.652344 780.515625 112.902344 C 780.515625 116.277344 781.640625 117.902344 787.890625 123.027344 C 792.015625 126.402344 795.390625 130.027344 795.390625 131.027344 C 795.390625 132.027344 794.390625 137.152344 793.140625 142.402344 L 790.890625 152.027344 L 797.015625 162.777344 C 800.265625 168.652344 803.015625 174.277344 803.015625 175.402344 C 803.015625 176.402344 801.015625 181.402344 798.515625 186.402344 L 793.890625 195.652344 L 798.515625 203.777344 C 801.015625 208.277344 803.015625 212.402344 803.015625 213.027344 C 803.015625 213.652344 800.140625 216.152344 796.640625 218.402344 C 791.765625 221.777344 790.515625 223.402344 791.015625 225.277344 C 791.265625 226.777344 792.015625 233.402344 792.390625 240.027344 C 793.140625 249.777344 793.015625 252.402344 791.640625 252.777344 C 790.640625 253.152344 786.765625 254.277344 782.890625 255.277344 C 776.140625 257.152344 775.765625 257.527344 774.890625 261.902344 C 774.515625 264.527344 773.515625 269.402344 772.765625 272.777344 L 771.515625 278.777344 L 761.765625 278.027344 L 752.015625 277.152344 L 746.515625 284.027344 C 743.640625 287.777344 740.640625 290.902344 740.140625 290.902344 C 739.640625 291.027344 736.140625 287.777344 732.515625 283.777344 C 727.265625 278.152344 723.015625 275.277344 712.765625 270.152344 C 693.140625 260.402344 676.890625 244.152344 647.390625 204.902344 C 625.015625 175.027344 612.515625 163.402344 588.640625 150.027344 C 569.515625 139.402344 552.265625 135.402344 537.890625 138.402344 C 530.390625 139.902344 513.015625 146.152344 513.015625 147.402344 C 513.015625 147.777344 517.515625 151.027344 522.890625 154.527344 C 535.140625 162.527344 549.265625 176.027344 553.015625 183.527344 C 555.265625 187.777344 556.015625 191.277344 556.015625 197.902344 C 556.140625 207.402344 554.515625 211.527344 547.890625 219.152344 L 544.015625 223.527344 L 555.890625 223.527344 C 562.390625 223.527344 569.390625 223.902344 571.515625 224.277344 C 575.640625 225.152344 575.390625 224.652344 580.640625 248.527344 C 581.890625 254.527344 583.140625 256.402344 590.765625 263.902344 C 601.015625 274.027344 604.015625 279.902344 605.015625 292.527344 C 606.015625 303.277344 604.640625 308.402344 599.265625 315.902344 L 595.515625 321.027344 L 585.140625 320.902344 C 577.015625 320.902344 572.515625 321.527344 565.265625 324.027344 C 560.140625 325.777344 555.515625 327.277344 554.890625 327.277344 C 554.390625 327.277344 554.265625 324.027344 554.640625 320.152344 C 555.265625 314.652344 556.015625 312.527344 558.515625 310.527344 C 560.265625 309.027344 562.640625 305.402344 563.640625 302.277344 C 566.015625 295.527344 567.015625 294.777344 575.015625 294.777344 C 579.515625 294.777344 582.390625 295.527344 584.640625 297.277344 C 588.765625 300.527344 589.765625 300.402344 587.390625 296.902344 C 584.765625 292.777344 580.265625 291.027344 573.015625 291.027344 C 569.515625 291.027344 566.765625 290.402344 566.765625 289.777344 C 566.765625 287.152344 570.390625 281.527344 574.765625 277.402344 C 581.265625 271.152344 580.890625 265.027344 573.765625 262.402344 C 569.515625 260.652344 562.390625 262.402344 557.640625 266.027344 C 553.390625 269.402344 547.265625 281.777344 545.390625 290.777344 C 543.640625 299.652344 544.515625 325.652344 547.015625 333.527344 C 548.015625 336.652344 553.765625 345.902344 559.890625 354.152344 C 579.390625 380.527344 589.140625 396.152344 600.015625 418.277344 C 609.515625 437.777344 611.515625 440.902344 619.140625 448.402344 C 624.515625 453.902344 629.640625 457.652344 633.390625 459.152344 C 638.765625 461.152344 639.640625 461.152344 647.640625 459.277344 C 661.765625 455.777344 662.140625 455.777344 667.890625 458.777344 C 676.890625 463.402344 678.640625 468.277344 678.640625 487.902344 C 678.640625 502.527344 678.265625 504.777344 675.515625 510.402344 C 673.890625 513.777344 668.390625 520.652344 663.515625 525.652344 C 649.890625 539.277344 634.515625 548.652344 611.140625 557.402344 L 598.640625 562.152344 L 604.890625 562.152344 C 610.515625 562.277344 621.640625 560.902344 630.765625 559.027344 C 633.515625 558.527344 634.640625 559.152344 638.015625 564.027344 C 640.140625 567.152344 644.890625 571.652344 648.515625 574.027344 C 659.390625 580.902344 660.640625 589.652344 651.765625 595.777344 C 644.890625 600.402344 638.890625 601.152344 610.015625 601.527344 C 583.390625 601.777344 581.890625 601.902344 566.765625 605.777344 C 548.140625 610.652344 531.265625 613.527344 521.640625 613.527344 C 511.140625 613.527344 492.015625 609.902344 484.515625 606.652344 C 473.640625 601.777344 460.265625 586.027344 446.265625 562.152344 L 442.890625 556.277344 L 444.890625 546.527344 C 447.015625 536.277344 451.640625 524.652344 455.140625 520.777344 C 456.265625 519.527344 456.515625 518.527344 455.765625 518.527344 C 452.515625 518.527344 445.765625 528.902344 443.015625 538.277344 C 441.515625 543.527344 439.890625 548.277344 439.390625 548.777344 C 439.015625 549.277344 436.140625 545.027344 433.015625 539.527344 C 429.890625 533.902344 425.140625 526.777344 422.265625 523.777344 C 417.390625 518.277344 416.890625 518.027344 409.140625 517.652344 L 401.140625 517.277344 L 406.765625 519.277344 C 415.890625 522.527344 419.640625 527.402344 431.890625 551.527344 C 461.015625 609.027344 475.765625 621.527344 516.765625 623.152344 C 531.140625 623.777344 533.765625 623.527344 549.890625 619.777344 C 571.140625 614.902344 587.640625 613.902344 609.515625 616.027344 L 625.390625 617.527344 L 626.640625 623.777344 C 627.390625 627.152344 628.015625 632.652344 628.015625 636.152344 C 628.015625 644.527344 624.390625 658.402344 621.890625 659.652344 C 620.765625 660.277344 609.390625 660.777344 596.765625 660.777344 C 560.015625 660.777344 495.890625 670.527344 487.640625 677.402344 L 484.890625 679.652344 L 489.890625 679.777344 C 497.765625 679.902344 503.765625 681.652344 510.015625 685.902344 C 517.640625 690.902344 521.765625 690.777344 532.515625 685.402344 C 538.265625 682.527344 542.765625 681.027344 546.140625 681.152344 C 552.640625 681.277344 561.265625 683.902344 560.890625 685.777344 C 560.640625 686.527344 560.390625 690.152344 560.265625 693.902344 C 560.015625 700.027344 560.515625 701.527344 565.515625 709.027344 C 569.890625 715.777344 571.015625 718.902344 571.515625 724.527344 C 572.265625 733.277344 570.265625 736.902344 560.015625 745.902344 L 552.390625 752.527344 L 552.015625 749.027344 C 551.265625 741.902344 550.515625 741.777344 546.640625 747.777344 C 542.390625 754.027344 530.515625 763.527344 532.265625 759.027344 C 538.265625 744.527344 539.390625 735.152344 536.515625 725.402344 L 535.015625 720.402344 L 534.265625 728.527344 C 532.765625 743.902344 525.140625 753.152344 505.265625 763.527344 C 480.015625 776.777344 474.515625 786.652344 483.015625 803.527344 C 485.140625 807.652344 486.265625 811.027344 485.515625 811.027344 C 484.765625 811.027344 481.140625 808.027344 477.515625 804.402344 C 469.390625 796.527344 466.765625 789.277344 466.765625 774.527344 L 466.765625 764.902344 L 460.140625 761.777344 C 451.515625 757.652344 440.765625 749.527344 436.515625 744.027344 C 432.265625 738.402344 429.890625 727.777344 431.515625 721.902344 C 432.265625 719.527344 434.140625 715.402344 436.015625 712.777344 C 437.765625 710.152344 439.015625 707.777344 438.765625 707.527344 C 438.515625 707.277344 436.390625 708.027344 434.265625 709.152344 C 428.640625 712.027344 419.890625 712.027344 416.640625 709.027344 C 414.265625 706.902344 414.140625 705.902344 414.890625 692.902344 L 415.765625 679.152344 L 409.640625 685.652344 C 406.390625 689.277344 400.890625 693.527344 397.390625 695.152344 C 385.265625 701.152344 383.390625 705.902344 386.015625 723.902344 L 387.015625 731.152344 L 381.390625 727.277344 C 373.765625 722.152344 368.015625 715.402344 368.015625 711.527344 C 368.015625 709.902344 369.765625 705.027344 371.890625 700.777344 C 376.890625 690.902344 378.015625 680.777344 374.890625 674.652344 C 368.265625 662.027344 361.015625 656.402344 347.640625 653.902344 C 330.390625 650.777344 321.765625 644.277344 321.765625 634.527344 C 321.765625 632.277344 322.765625 628.902344 324.015625 627.152344 C 330.640625 617.152344 331.765625 615.152344 331.765625 612.152344 C 331.765625 606.152344 327.515625 602.527344 319.515625 601.527344 C 309.515625 600.402344 308.515625 599.527344 307.640625 592.902344 C 306.890625 585.402344 301.140625 578.027344 296.015625 577.527344 C 285.640625 576.652344 284.140625 575.902344 282.265625 571.652344 C 281.140625 569.027344 280.515625 562.902344 280.515625 555.777344 C 280.515625 540.652344 279.890625 538.902344 274.140625 536.027344 C 267.265625 532.402344 266.515625 530.402344 267.515625 515.777344 C 268.140625 505.902344 267.890625 501.152344 266.265625 495.277344 C 265.015625 490.527344 264.265625 482.527344 264.265625 474.402344 L 264.265625 461.402344 L 275.390625 451.902344 C 286.765625 442.277344 293.015625 434.902344 303.765625 418.652344 C 308.765625 411.152344 310.015625 409.902344 310.765625 411.777344 C 311.265625 413.152344 313.390625 418.777344 315.515625 424.402344 C 319.140625 434.027344 324.265625 442.777344 332.140625 452.402344 C 334.890625 455.902344 334.390625 454.152344 329.265625 443.277344 C 318.765625 421.277344 317.015625 405.902344 321.765625 377.902344 C 323.265625 369.652344 324.640625 355.277344 324.890625 346.027344 C 325.515625 328.027344 324.890625 328.527344 321.140625 349.152344 C 313.015625 393.527344 287.640625 432.902344 251.265625 457.777344 C 235.140625 468.777344 222.140625 474.277344 198.015625 479.902344 C 179.015625 484.527344 171.765625 487.652344 163.265625 495.152344 C 153.265625 504.027344 149.890625 505.402344 142.890625 503.652344 C 135.890625 501.777344 130.140625 503.027344 118.765625 508.777344 L 111.390625 512.527344 L 112.015625 506.027344 C 112.640625 500.402344 113.390625 498.777344 118.765625 493.402344 C 122.140625 489.902344 128.015625 485.152344 131.890625 482.777344 C 139.640625 478.152344 140.640625 476.402344 143.640625 463.027344 C 146.140625 451.777344 149.265625 445.277344 154.890625 439.152344 C 161.140625 432.402344 161.765625 430.277344 161.765625 415.652344 C 161.765625 401.652344 164.390625 390.527344 173.640625 364.777344 C 192.640625 311.777344 212.140625 281.152344 237.390625 264.527344 C 261.890625 248.402344 275.390625 242.527344 293.015625 240.777344 C 300.640625 240.027344 312.265625 237.652344 320.765625 235.152344 C 349.640625 226.777344 360.015625 225.652344 377.515625 229.277344 C 391.015625 232.152344 404.015625 230.152344 418.140625 223.402344 C 428.640625 218.277344 437.765625 215.402344 446.265625 214.402344 L 451.390625 213.777344 L 453.515625 221.402344 C 455.640625 228.777344 459.015625 235.027344 463.015625 238.277344 C 469.140625 243.527344 478.765625 248.652344 486.890625 251.152344 C 505.765625 256.777344 514.265625 262.027344 514.265625 267.902344 C 514.265625 271.652344 510.515625 274.777344 504.890625 275.652344 C 500.140625 276.402344 500.140625 276.402344 502.765625 278.652344 C 509.015625 283.652344 522.515625 282.527344 528.265625 276.402344 C 530.265625 274.277344 531.140625 271.527344 531.515625 266.277344 L 532.015625 258.902344 L 525.640625 254.402344 C 518.890625 249.527344 516.890625 245.402344 519.140625 241.152344 C 519.890625 239.777344 525.140625 234.777344 530.890625 230.027344 C 552.265625 212.152344 555.890625 204.777344 551.140625 188.777344 C 546.640625 173.902344 518.140625 151.527344 494.015625 144.027344 L 486.890625 141.902344 L 496.265625 134.527344 C 507.765625 125.527344 519.015625 119.277344 528.015625 117.152344 C 538.265625 114.777344 561.515625 115.402344 573.640625 118.402344 C 594.390625 123.777344 612.640625 135.902344 630.515625 156.277344 C 636.140625 162.652344 651.390625 181.902344 664.265625 199.152344 C 703.640625 251.402344 721.265625 266.527344 740.265625 264.277344 C 759.890625 261.902344 773.890625 247.277344 781.890625 220.402344 C 785.265625 209.277344 786.390625 182.527344 784.390625 166.652344 C 781.640625 146.152344 773.265625 124.527344 762.140625 108.902344 C 751.265625 93.527344 729.265625 76.277344 711.765625 69.277344 C 692.015625 61.402344 672.640625 60.027344 647.390625 64.777344 C 638.640625 66.527344 625.890625 67.652344 612.265625 68.152344 C 594.015625 68.777344 590.015625 68.527344 584.265625 66.652344 C 577.890625 64.527344 569.140625 57.902344 566.765625 53.527344 C 565.765625 51.652344 566.390625 51.402344 572.140625 51.402344 C 580.515625 51.277344 585.390625 49.027344 609.640625 34.402344 C 630.765625 21.527344 644.765625 15.902344 661.515625 13.527344 C 673.765625 11.902344 708.265625 13.152344 724.640625 16.027344 Z M 611.140625 234.277344 C 629.390625 238.027344 643.640625 246.152344 656.015625 259.527344 C 662.765625 266.902344 681.265625 292.652344 684.890625 299.902344 C 686.515625 303.027344 689.390625 310.902344 691.265625 317.402344 C 693.015625 323.902344 696.265625 332.527344 698.265625 336.652344 C 703.265625 346.652344 716.765625 366.027344 725.640625 376.027344 C 733.765625 385.277344 734.890625 387.652344 736.140625 398.027344 C 737.890625 412.777344 744.640625 421.027344 755.390625 421.027344 C 761.390625 421.027344 761.640625 422.027344 757.390625 427.152344 C 751.765625 433.777344 745.890625 435.027344 723.515625 434.527344 C 703.765625 434.152344 703.640625 434.027344 695.515625 429.902344 C 691.140625 427.652344 682.765625 424.402344 677.015625 422.652344 C 662.515625 418.527344 654.515625 414.777344 642.640625 406.527344 C 637.140625 402.777344 628.390625 397.277344 623.515625 394.652344 L 614.390625 389.652344 L 610.640625 378.152344 L 606.765625 366.777344 L 614.765625 358.527344 L 611.140625 358.527344 C 609.015625 358.527344 603.515625 360.402344 598.640625 362.777344 C 593.890625 365.152344 587.515625 367.402344 584.640625 367.902344 C 579.765625 368.652344 579.265625 368.527344 577.390625 364.902344 L 575.390625 361.027344 L 581.765625 361.027344 C 593.640625 361.027344 599.015625 355.277344 597.765625 344.152344 C 597.140625 339.277344 597.390625 338.527344 599.390625 338.527344 C 600.640625 338.527344 603.890625 340.777344 606.765625 343.652344 C 613.015625 350.027344 615.015625 349.527344 614.640625 341.777344 C 614.140625 334.027344 611.640625 329.402344 605.890625 325.902344 C 603.265625 324.402344 600.890625 322.902344 600.640625 322.652344 C 600.390625 322.527344 602.390625 319.902344 605.265625 316.777344 C 609.515625 312.277344 610.390625 310.152344 611.140625 304.277344 C 612.390625 295.027344 610.890625 281.777344 608.015625 275.152344 C 606.765625 272.277344 602.015625 266.027344 597.515625 261.277344 C 588.640625 251.652344 585.390625 244.402344 587.890625 238.902344 C 589.515625 235.402344 596.640625 230.777344 599.265625 231.527344 C 600.265625 231.902344 605.640625 233.027344 611.140625 234.277344 Z M 569.890625 336.902344 C 569.265625 338.152344 568.265625 341.527344 567.515625 344.277344 L 566.265625 349.527344 L 562.765625 343.902344 C 558.515625 337.277344 559.515625 334.777344 566.390625 334.777344 C 570.140625 334.777344 570.640625 335.152344 569.890625 336.902344 Z M 606.140625 385.027344 C 608.140625 392.152344 611.015625 401.777344 612.640625 406.527344 C 614.390625 411.902344 615.515625 418.152344 615.515625 422.777344 L 615.515625 430.402344 L 608.265625 416.652344 C 604.265625 409.027344 597.515625 397.402344 593.265625 390.777344 C 589.015625 384.027344 585.515625 378.277344 585.515625 377.902344 C 585.515625 377.527344 586.765625 377.277344 588.390625 377.277344 C 589.890625 377.277344 593.140625 376.277344 595.515625 374.902344 C 597.890625 373.652344 600.515625 372.527344 601.265625 372.402344 C 602.015625 372.402344 604.140625 378.027344 606.140625 385.027344 Z M 606.140625 385.027344 "
     id="path2" />
  <path
     fill-rule="nonzero"
     fill="rgb(0%, 0%, 0%)"
     fill-opacity="1"
     d="M 379.640625 245.652344 C 375.265625 251.152344 368.890625 254.777344 363.890625 254.777344 C 360.765625 254.777344 357.515625 257.027344 356.515625 260.027344 C 356.140625 260.902344 352.640625 261.527344 347.015625 261.777344 C 340.765625 262.027344 337.140625 262.777344 335.140625 264.277344 C 330.640625 267.652344 322.140625 279.902344 321.265625 284.402344 C 320.640625 287.152344 319.015625 289.152344 316.015625 290.902344 C 313.515625 292.402344 310.890625 295.402344 309.765625 298.152344 C 305.140625 309.027344 303.515625 311.402344 297.515625 315.652344 C 287.765625 322.652344 287.890625 322.902344 297.890625 317.902344 C 303.015625 315.402344 310.390625 310.277344 314.140625 306.652344 C 318.015625 303.027344 323.515625 298.902344 326.515625 297.402344 C 330.640625 295.277344 331.765625 294.027344 331.765625 291.527344 C 331.765625 287.652344 337.265625 276.652344 341.140625 272.777344 C 343.015625 270.902344 345.640625 269.777344 348.140625 269.777344 C 351.640625 269.777344 352.015625 270.152344 351.265625 272.527344 C 350.890625 274.152344 350.515625 280.027344 350.515625 285.652344 C 350.515625 294.902344 350.140625 296.152344 347.140625 299.902344 L 343.765625 303.902344 L 346.890625 302.902344 C 369.265625 296.402344 385.265625 272.277344 384.015625 247.527344 L 383.640625 240.527344 Z M 379.640625 245.652344 "
     id="path4" />
  <path
     fill-rule="nonzero"
     fill="rgb(0%, 0%, 0%)"
     fill-opacity="1"
     d="M 439.890625 259.402344 C 441.015625 265.277344 442.265625 266.902344 447.765625 269.277344 C 450.265625 270.277344 453.015625 272.152344 453.890625 273.527344 C 455.140625 275.277344 457.140625 276.027344 460.640625 276.027344 L 465.640625 276.027344 L 472.390625 290.027344 C 476.015625 297.777344 479.640625 307.152344 480.390625 310.652344 C 481.140625 314.652344 484.390625 321.652344 488.640625 328.527344 C 496.765625 341.527344 499.015625 343.652344 495.640625 335.152344 C 494.390625 331.902344 492.265625 324.652344 491.140625 319.152344 C 488.640625 307.902344 486.890625 303.902344 483.015625 300.652344 C 479.640625 297.777344 473.265625 284.152344 468.640625 269.777344 C 464.515625 257.152344 463.890625 256.152344 460.765625 258.902344 C 457.515625 261.777344 453.515625 261.527344 445.640625 257.902344 L 439.015625 254.777344 Z M 439.890625 259.402344 "
     id="path6" />
  <path
     fill-rule="nonzero"
     fill="rgb(0%, 0%, 0%)"
     fill-opacity="1"
     d="M 410.515625 291.777344 C 402.140625 293.527344 387.265625 300.277344 381.765625 304.777344 C 378.640625 307.277344 378.765625 307.277344 385.515625 304.652344 C 402.140625 298.152344 406.640625 297.027344 418.140625 296.402344 C 429.140625 295.777344 430.390625 295.902344 432.765625 298.277344 C 437.390625 302.902344 440.015625 319.652344 436.515625 321.902344 C 435.640625 322.402344 429.265625 322.902344 422.390625 323.027344 C 411.265625 323.152344 394.890625 325.402344 381.765625 328.652344 C 379.265625 329.277344 376.015625 330.902344 374.390625 332.402344 C 371.890625 334.777344 371.515625 336.027344 372.015625 342.402344 C 372.640625 351.777344 376.765625 357.902344 386.765625 364.652344 C 396.515625 371.027344 408.140625 374.777344 421.890625 375.652344 C 441.015625 376.902344 450.890625 371.277344 453.515625 357.277344 L 454.390625 352.902344 L 452.015625 358.027344 C 450.640625 360.902344 447.515625 364.777344 444.890625 366.652344 C 440.890625 369.777344 438.890625 370.277344 429.640625 370.777344 C 409.390625 371.902344 393.265625 365.527344 384.640625 353.152344 C 381.265625 348.277344 381.265625 348.277344 383.640625 346.402344 C 387.890625 343.152344 394.015625 341.027344 398.765625 341.027344 C 402.890625 341.027344 403.265625 341.277344 402.515625 343.902344 C 401.390625 348.402344 403.890625 355.152344 407.890625 359.027344 C 415.390625 366.152344 430.265625 364.277344 435.765625 355.527344 C 438.765625 350.652344 438.015625 341.902344 434.015625 337.652344 C 432.515625 336.027344 431.640625 334.527344 431.890625 334.152344 C 432.265625 333.902344 436.390625 333.527344 441.140625 333.402344 C 448.765625 333.277344 450.015625 333.527344 452.140625 336.152344 L 454.640625 339.152344 L 453.765625 335.402344 C 453.265625 333.277344 451.515625 329.652344 450.015625 327.277344 C 448.390625 324.902344 446.765625 320.027344 446.265625 316.652344 C 444.890625 306.527344 441.765625 298.777344 437.390625 294.152344 C 433.640625 290.027344 432.765625 289.777344 426.015625 289.902344 C 421.890625 289.902344 415.015625 290.777344 410.515625 291.777344 Z M 410.515625 291.777344 "
     id="path8" />
  <path
     fill-rule="nonzero"
     fill="rgb(0%, 0%, 0%)"
     fill-opacity="1"
     d="M 461.515625 372.027344 C 459.390625 379.152344 456.015625 383.402344 448.515625 388.152344 C 446.515625 389.402344 446.765625 389.527344 450.515625 388.902344 C 460.015625 387.402344 464.640625 381.277344 464.015625 370.902344 L 463.640625 364.652344 Z M 461.515625 372.027344 "
     id="path10" />
  <path
     fill-rule="nonzero"
     fill="rgb(0%, 0%, 0%)"
     fill-opacity="1"
     d="M 484.015625 432.402344 C 476.390625 434.152344 463.890625 440.402344 460.015625 444.277344 C 454.640625 449.777344 451.640625 456.652344 450.890625 465.777344 C 450.015625 476.902344 453.640625 486.777344 461.515625 494.777344 C 464.765625 498.152344 466.640625 499.402344 466.140625 497.902344 C 465.640625 496.527344 464.890625 492.652344 464.515625 489.152344 C 463.890625 483.527344 464.015625 483.027344 465.890625 484.652344 C 469.265625 487.402344 471.515625 485.402344 472.390625 478.902344 C 473.515625 470.402344 474.890625 467.652344 479.515625 464.777344 C 484.640625 461.652344 489.890625 461.652344 495.890625 464.652344 C 498.390625 465.902344 500.515625 466.527344 500.515625 466.027344 C 500.515625 463.902344 494.765625 458.152344 491.015625 456.527344 C 481.890625 452.652344 472.140625 455.152344 465.765625 463.027344 C 463.640625 465.652344 461.515625 467.402344 461.015625 466.902344 C 459.390625 465.402344 461.890625 457.652344 465.515625 452.652344 C 472.265625 443.527344 487.390625 438.777344 505.140625 440.277344 C 517.265625 441.402344 520.515625 442.652344 533.015625 451.027344 C 538.890625 455.027344 548.140625 460.652344 553.515625 463.652344 C 559.015625 466.527344 568.015625 472.527344 573.515625 476.652344 C 588.515625 488.027344 593.390625 490.277344 600.640625 488.527344 L 604.890625 487.652344 L 599.640625 486.652344 C 593.640625 485.652344 591.015625 483.902344 577.265625 471.902344 C 571.765625 467.152344 562.390625 460.152344 556.140625 456.402344 C 550.015625 452.527344 541.390625 446.902344 537.015625 443.777344 C 527.390625 436.902344 520.140625 434.152344 507.515625 432.402344 C 496.390625 430.777344 490.515625 430.777344 484.015625 432.402344 Z M 484.015625 432.402344 "
     id="path12" />
  <path
     fill-rule="nonzero"
     fill="rgb(0%, 0%, 0%)"
     fill-opacity="1"
     d="M 496.140625 479.152344 C 493.390625 480.152344 491.015625 481.027344 490.890625 481.027344 C 490.765625 481.027344 490.015625 483.027344 489.265625 485.402344 C 487.265625 491.527344 488.640625 496.527344 493.765625 501.027344 C 498.390625 505.027344 505.640625 506.152344 510.515625 503.527344 C 513.390625 502.027344 514.765625 496.652344 513.015625 493.527344 C 511.890625 491.402344 512.015625 491.027344 514.265625 491.027344 C 521.515625 491.027344 536.640625 503.527344 542.015625 513.902344 C 543.515625 516.777344 546.015625 522.777344 547.640625 527.277344 L 550.515625 535.402344 L 549.765625 526.152344 C 547.140625 493.402344 520.765625 470.277344 496.140625 479.152344 Z M 496.140625 479.152344 "
     id="path14" />
  <path
     fill-rule="nonzero"
     fill="rgb(0%, 0%, 0%)"
     fill-opacity="1"
     d="M 380.515625 495.527344 C 377.140625 496.902344 375.515625 500.152344 375.515625 505.652344 C 375.515625 508.652344 375.890625 511.027344 376.515625 511.027344 C 378.765625 511.027344 382.890625 507.027344 383.265625 504.527344 C 383.515625 502.152344 385.140625 501.277344 391.640625 499.527344 C 400.890625 497.027344 402.515625 496.027344 397.140625 496.027344 C 395.015625 496.027344 390.890625 495.777344 387.890625 495.402344 C 384.890625 495.152344 381.515625 495.152344 380.515625 495.527344 Z M 380.515625 495.527344 "
     id="path16" />
  <path
     style="fill:#ffffff;stroke-width:1.67907"
     d="m 476.28322,800.96454 c -6.07142,-6.91496 -8.63729,-15.14145 -8.65553,-27.75062 l -0.0134,-9.23491 -8.86679,-4.63265 c -23.86086,-12.46666 -31.7397,-27.40463 -23.0276,-43.65952 4.7659,-8.89214 4.2835,-9.74738 -3.92111,-6.95179 -5.48141,1.86772 -8.42664,2.04407 -11.92486,0.71404 -4.64195,-1.76485 -4.64512,-1.77743 -4.05449,-16.01504 0.3251,-7.83683 0.24927,-14.24868 -0.1685,-14.24855 -0.41779,1.2e-4 -3.15508,2.32203 -6.0829,5.15978 -2.9278,2.83774 -8.98775,7.56014 -13.46653,10.49422 -10.75071,7.04284 -12.82454,11.25556 -11.56612,23.49511 0.95106,9.25022 0.83403,9.6741 -2.21974,8.03976 -3.15184,-1.6868 -13.75874,-12.90811 -13.75874,-14.5557 0,-0.45743 1.88896,-5.31968 4.19768,-10.80496 5.0561,-12.01274 5.33271,-21.416 0.88639,-30.13152 -5.25023,-10.2913 -10.88477,-13.8485 -30.5783,-19.30472 -19.10161,-5.29225 -24.07753,-14.4402 -15.36325,-28.24451 8.03434,-12.72722 5.22073,-20.33116 -8.32438,-22.4971 -7.64263,-1.22211 -11.26483,-4.37093 -11.26483,-9.79265 0,-5.25476 -7.77091,-14.27521 -12.32255,-14.30395 -11.55373,-0.073 -14.54265,-4.99102 -14.54265,-23.92866 0,-11.42359 -0.15246,-11.83955 -6.5263,-17.79949 l -6.5263,-6.10256 -1.06395,-21.82798 c -0.58518,-12.00538 -1.52084,-26.60235 -2.07925,-32.43772 l -1.01528,-10.60976 15.07308,-14.57636 c 8.2902,-8.017 18.23551,-19.29877 22.10071,-25.07059 3.86519,-5.77182 7.57,-10.49421 8.2329,-10.49421 0.66292,0 2.94216,4.47926 5.06501,9.9539 4.38597,11.31109 16.16335,30.34389 18.77661,30.34389 1.01502,0 0.5862,-2.61974 -1.03067,-6.29653 -12.07186,-27.4516 -13.80429,-38.846 -10.17099,-66.89575 3.76148,-29.03946 4.94437,-47.22793 3.14385,-48.34072 -0.857,-0.52966 -2.82679,5.42486 -4.37733,13.23226 -9.42952,47.48049 -34.3126,86.60582 -70.66497,111.11124 -15.62097,10.53024 -22.44959,13.48584 -48.14392,20.83797 -26.76143,7.65748 -30.42458,9.26808 -42.13795,18.52697 -7.68999,6.07858 -8.99905,6.52021 -19.42854,6.5546 -7.48894,0.0247 -13.60077,1.13398 -18.5024,3.35815 -9.02295,4.09427 -8.63178,4.11706 -8.63178,-0.5028 0,-5.51888 3.75635,-10.12259 16.66019,-20.41834 10.92075,-8.71349 11.5417,-9.60137 14.24707,-20.37151 3.24934,-12.93567 5.4315,-17.57972 12.32568,-26.23136 4.51082,-5.66071 5.03182,-7.687 5.98054,-23.25952 0.88145,-14.46831 2.34516,-20.92054 9.63952,-42.49224 9.25435,-27.36802 22.28925,-56.35429 32.56751,-72.4218 19.11608,-29.88324 53.82627,-53.03685 88.24048,-58.86126 8.77317,-1.48482 24.64043,-4.98244 35.26057,-7.77251 15.40316,-4.04663 22.19657,-4.99361 33.5815,-4.68118 42.46627,1.16538 41.65994,1.24234 58.23469,-5.55826 8.48007,-3.47935 18.76808,-6.95191 22.86223,-7.71678 l 7.44395,-1.39068 2.722,8.63519 c 4.5499,14.43398 13.61004,21.6325 38.45885,30.55656 24.67515,8.86169 28.13574,15.87966 10.60269,21.50193 -2.91421,0.93449 -2.97902,1.29532 -0.65078,3.62354 4.08168,4.08169 15.08041,4.82906 22.09325,1.50125 4.57088,-2.16902 6.50254,-4.40472 7.78028,-9.00486 2.73595,-9.8501 2.09531,-12.19105 -4.99784,-18.26253 -3.69396,-3.1619 -6.71629,-7.09353 -6.71629,-8.73697 0,-1.64343 6.04466,-8.44609 13.43259,-15.11701 7.38793,-6.67091 13.4326,-11.46319 13.4326,-10.6495 0,0.81368 -0.9067,2.38613 -2.01489,3.49432 -1.56713,1.56714 0.88272,2.01489 11.02437,2.01489 7.1716,0 14.41457,0.73605 16.09553,1.63566 1.98664,1.06323 4.08651,5.91113 6.0001,13.85236 3.67159,15.23673 5.64101,19.11474 13.45215,26.48885 8.81388,8.32074 12.45017,17.12549 12.49441,30.25334 0.0299,8.86864 -0.73876,12.08543 -4.0533,16.96322 -3.97881,5.85533 -4.44745,6.04519 -17.21052,6.97228 -7.21619,0.52418 -16.33157,2.11311 -20.25641,3.53097 -7.0191,2.53566 -7.13566,2.51721 -7.11132,-1.12552 0.0134,-2.03689 1.11518,-5.5924 2.44791,-7.90112 1.33273,-2.30873 4.11671,-7.40892 6.18659,-11.33376 3.43646,-6.51605 4.32751,-7.13607 10.25555,-7.13607 3.57065,0 7.99548,0.80459 9.83295,1.78797 5.17531,2.76974 7.03304,1.08271 3.2634,-2.96353 -2.00972,-2.15717 -6.49507,-4.11 -10.98733,-4.78366 -4.17517,-0.6261 -7.59122,-1.73668 -7.59122,-2.46794 0,-0.73126 2.64455,-4.49487 5.87676,-8.36358 9.05497,-10.83808 6.98474,-18.46983 -5.01022,-18.46983 -8.52104,0 -14.3152,4.69452 -19.51882,15.81443 -5.92022,12.65121 -7.52061,26.70336 -5.14916,45.21186 1.85736,14.49609 0.71971,12.35155 27.48837,51.81667 8.954,13.2009 21.37906,33.82422 27.61123,45.82961 8.35125,16.0875 13.67314,24.12605 20.23636,30.56636 10.53436,10.33714 16.49927,12.01521 31.85796,8.96238 9.61609,-1.91137 11.05795,-1.81207 16.05358,1.10552 7.96827,4.65372 9.64103,9.34459 9.66905,27.11451 0.0304,19.31881 -2.02066,24.18663 -16.14234,38.30987 -12.08737,12.0887 -29.72303,22.86347 -49.01494,29.94641 -7.54598,2.77048 -13.72323,5.60391 -13.72723,6.29653 -0.0101,1.77626 8.30004,1.56394 22.00305,-0.56215 l 11.73959,-1.82146 8.40414,8.53776 c 4.62229,4.69577 9.0985,8.53776 9.94714,8.53776 0.84864,0 2.71869,2.27356 4.15567,5.05238 3.23204,6.25007 1.39076,10.469 -6.35414,14.55931 -4.24478,2.24178 -12.26562,3.11853 -37.30964,4.07822 -26.7106,1.02358 -34.9082,1.98557 -50.37224,5.91128 -15.01137,3.8108 -22.24269,4.70104 -38.61872,4.7543 -35.39586,0.11519 -46.09826,-5.94837 -67.65629,-38.33107 l -11.07831,-16.64093 2.87267,-11.09994 c 1.57998,-6.10498 4.71411,-14.68898 6.96472,-19.07556 3.16308,-6.16501 3.5433,-7.97561 1.67488,-7.97561 -2.96144,0 -9.57818,10.22414 -12.49643,19.30936 -1.18654,3.69396 -2.47736,7.2779 -2.8685,7.96429 -0.39112,0.68639 -4.63651,-4.6027 -9.43418,-11.75353 -9.48543,-14.13782 -14.58236,-17.68235 -24.27256,-16.8797 l -6.27846,0.52004 7.75351,3.58526 c 8.64581,3.99786 10.53212,6.69721 30.1399,43.13082 18.84975,35.02504 32.51276,49.97991 51.09755,55.92884 13.95731,4.46769 44.24023,4.89174 62.12577,0.86996 20.00409,-4.49819 40.33436,-5.86169 58.42703,-3.91858 8.12409,0.87252 15.11147,1.92679 15.52753,2.34283 2.52383,2.52384 2.60921,21.72197 0.13449,30.23483 l -2.72377,9.36946 -21.41049,0.99351 c -59.73602,2.77195 -116.27824,12.20946 -116.27824,19.4081 0,0.97063 2.77317,1.76476 6.1626,1.76476 3.38945,0 11.3486,2.39037 17.68702,5.31194 l 11.52438,5.31194 10.89052,-4.4724 c 11.42618,-4.6924 20.5898,-5.65436 26.04607,-2.73426 2.49838,1.3371 3.25437,3.56481 3.2764,9.65468 0.0208,5.7336 1.40182,10.23149 5.00859,16.31191 3.60691,6.08063 4.98786,10.57824 5.0086,16.31246 0.0262,7.26089 -0.62799,8.54629 -7.89328,15.50812 -6.96913,6.67802 -8.10963,7.24041 -9.48254,4.67596 -0.85834,-1.60327 -1.80188,-3.20477 -2.09676,-3.55887 -0.29487,-0.35412 -4.0167,3.04601 -8.27076,7.55584 -6.44334,6.83074 -7.56084,7.49886 -6.69359,4.00197 2.04212,-8.23442 2.98044,-23.27485 1.83343,-29.38886 -1.4727,-7.85016 -2.75014,-6.59537 -4.4899,4.41029 -1.74461,11.03632 -7.55375,19.8019 -17.22034,25.98425 -4.18895,2.6791 -12.94061,8.21666 -19.4481,12.30567 -17.2555,10.84263 -20.91455,19.95576 -14.37483,35.80159 1.84475,4.46988 0.0547,3.54484 -5.59736,-2.8925 z m 73.68329,-278.22221 c -4.79215,-30.89182 -26.2518,-50.23308 -50.26394,-45.30218 -4.9814,1.02295 -9.38954,2.19234 -9.79586,2.59866 -0.40632,0.40632 -1.15038,3.80755 -1.65347,7.5583 -1.19462,8.90664 2.47504,14.52774 11.1886,17.1384 5.64514,1.69132 7.29115,1.56942 10.92079,-0.80883 2.67502,-1.75273 4.27378,-4.3561 4.27378,-6.95926 0,-5.43378 2.99267,-5.27545 11.08183,0.5863 10.78647,7.81635 15.60748,15.36967 23.11312,36.21261 2.37753,6.60235 2.97276,0.82185 1.13515,-11.024 z M 383.45902,506.53535 c 1.98683,-2.79026 6.20151,-5.58909 10.23725,-6.79823 9.25784,-2.77371 7.01583,-5.24961 -4.75375,-5.24961 -11.32302,0 -13.66931,1.78688 -13.66931,10.41027 0,7.81147 3.31709,8.47504 8.18581,1.63757 z m 82.9429,-13.72691 c -0.73829,-5.50444 -0.397,-6.7163 1.89156,-6.7163 2.98905,0 3.25314,-0.49257 5.97737,-11.14963 1.39909,-5.47309 3.0106,-7.53725 7.57572,-9.70354 5.27058,-2.50106 6.36292,-2.51582 11.99618,-0.16203 3.40869,1.42424 6.55272,2.2344 6.98676,1.80036 1.69642,-1.69642 -1.45062,-6.11436 -6.70538,-9.41322 -8.38315,-5.26284 -19.88936,-3.78074 -27.4363,3.53404 -6.69199,6.48613 -7.28715,5.18201 -1.94205,-4.2555 7.06062,-12.46649 25.22267,-18.35534 45.16966,-14.64581 9.83328,1.82869 34.08445,15.64979 67.36621,38.39305 10.99597,7.51414 14.31606,8.9605 20.56866,8.9605 8.68959,0 9.93313,-2.51974 1.9799,-4.01177 -3.20829,-0.60188 -11.43401,-5.82199 -19.86209,-12.60464 -18.53145,-14.91351 -52.28375,-36.58142 -61.0385,-39.18475 -3.7465,-1.11409 -13.98987,-2.04839 -22.76303,-2.07626 -15.07987,-0.0479 -16.54681,0.27036 -26.8545,5.8261 -14.01316,7.55295 -18.70343,15.23592 -18.79313,30.78436 -0.0665,11.51558 2.69696,18.8613 10.05334,26.72395 5.81679,6.21709 6.89306,5.8296 5.82962,-2.09884 z m -5.91567,-108.39215 c 2.91375,-3.31112 3.75995,-6.28809 3.69939,-13.01463 l -0.0785,-8.72151 -3.23816,8.39537 c -1.87711,4.86666 -5.90212,10.75498 -9.57613,14.00928 l -6.33799,5.6139 5.87676,-0.99465 c 3.25777,-0.55139 7.5604,-2.90789 9.65468,-5.28776 z m -22.45304,-9.29059 c 8.25267,-2.29144 13.71369,-7.73254 15.97285,-15.9146 0.97445,-3.52912 1.54074,-6.64756 1.25842,-6.92987 -0.2823,-0.2823 -2.33967,2.31975 -4.57194,5.78235 -7.63698,11.84621 -22.05704,15.06961 -42.16942,9.42636 -9.82905,-2.75788 -24.85454,-13.68436 -24.85454,-18.07411 0,-2.42672 10.40304,-7.72412 15.16864,-7.72412 2.66691,0 3.30118,1.15393 3.30118,6.00592 0,9.36939 7.38748,15.82205 18.11423,15.82205 14.46708,0 21.68893,-10.04528 16.37138,-22.77192 l -2.41184,-5.77235 h 8.22628 c 6.07371,0 8.65449,0.76522 9.86283,2.9244 3.50485,6.26283 3.64715,0.26877 0.17573,-7.40231 -2.01981,-4.46333 -4.75826,-12.64865 -6.08543,-18.1896 -1.32719,-5.54094 -4.28198,-12.90788 -6.56619,-16.37098 -4.09414,-6.20708 -4.30859,-6.29653 -15.09626,-6.29653 -6.48808,0 -14.98719,1.36235 -20.87668,3.34637 -10.12576,3.41112 -25.22109,11.63806 -25.22109,13.74546 0,0.64078 6.24876,-0.94715 13.88613,-3.52875 18.13572,-6.13027 35.01744,-8.07559 38.6404,-4.45263 3.38897,3.38899 6.63111,13.28978 5.9419,18.14538 -0.51184,3.60618 -1.68236,3.91512 -22.1837,5.85511 -36.36019,3.44068 -45.42253,7.68962 -43.46877,20.38065 1.33919,8.69906 4.66395,14.53811 11.05262,19.41099 15.14929,11.55491 39.42512,17.05534 55.53327,12.58273 z m 55.04289,-52.60036 c -2.68442,-9.87605 -6.39889,-19.60087 -8.26355,-21.63466 -4.35752,-4.75279 -10.87802,-17.96868 -14.66341,-29.72011 -4.76088,-14.7798 -5.05814,-15.13206 -10.90641,-12.92459 -4.96713,1.87488 -5.95158,1.70345 -17.2263,-2.99972 -2.23468,-0.93217 -2.93838,-0.41135 -2.93838,2.17475 0,1.87025 0.45916,4.59702 1.02035,6.05948 1.51649,3.95189 15.32576,12.72731 20.02809,12.72731 3.29488,0 5.03447,1.87564 8.95431,9.65468 2.67572,5.31007 6.96742,15.58687 9.53709,22.83734 4.44305,12.53628 16.8155,34.28478 18.52924,32.57103 0.44293,-0.44292 -1.38904,-8.8784 -4.07103,-18.74551 z m -190.71043,-6.43952 c 21.81375,-14.21856 29.11552,-20.5137 30.86695,-26.61159 2.54727,-8.86871 8.84028,-17.38174 13.32493,-18.02566 3.84386,-0.55191 3.90001,-0.34578 3.27532,12.02478 -0.47272,9.3613 -1.45112,13.48747 -3.81838,16.10327 -5.0273,5.5551 -1.85993,6.00756 8.06448,1.152 10.91798,-5.34167 20.11575,-15.04297 25.58169,-26.98217 4.10539,-8.96737 6.97286,-27.02645 5.07615,-31.9692 -0.88726,-2.31216 -1.79374,-1.90453 -5.46368,2.45694 -4.83105,5.74137 -12.20039,10.14563 -16.97598,10.14563 -1.68761,0 -4.36227,1.51117 -5.94371,3.35815 -1.97743,2.30947 -4.95317,3.35815 -9.52907,3.35815 -9.87067,0 -14.1189,2.68079 -20.42995,12.89205 -3.13013,5.06453 -8.04693,11.98041 -10.92625,15.36861 -2.87931,3.38821 -6.81729,9.28499 -8.75108,13.10397 -1.93378,3.81898 -6.75603,9.65997 -10.71609,12.97997 -9.06445,7.59935 -4.94494,8.01689 6.36467,0.6451 z"
     id="path268" />
  <path
     style="fill:#ffffff;stroke-width:1.67907"
     d="M 128.92957,382.86301 C 80.473103,370.33891 39.254074,328.8217 18.872784,272.01011 10.455206,248.54662 8.5954672,234.67837 8.6278012,195.61221 8.6559777,161.56915 8.9062616,158.69885 13.020149,145.23997 24.910301,106.34046 45.711385,75.283234 75.335673,52.199271 103.9777,29.880705 132.32371,17.278998 166.74233,11.562857 c 14.84378,-2.4652078 21.81276,-2.6205004 52.78922,-1.176322 42.44652,1.978932 46.06122,2.964646 81.00955,22.090955 l 23.49376,12.857528 h 12.9381 12.93807 l -4.52942,4.771231 c -9.21607,9.708057 -15.95418,11.849252 -39.51433,12.556623 -16.11026,0.483692 -25.64965,-0.130028 -37.77919,-2.430555 -55.14783,-10.459509 -111.02048,7.521941 -140.2218,45.127463 -9.24419,11.90469 -21.5165,35.55084 -25.92637,49.95463 -4.239787,13.84826 -6.046804,39.19861 -3.934006,55.18955 2.183966,16.52955 9.735756,31.5637 22.030486,43.85842 12.34447,12.34447 21.08153,15.87624 36.5318,14.76718 12.56334,-0.90183 22.19119,-4.98388 33.62565,-14.25674 3.9461,-3.2001 27.88762,-29.07713 53.20338,-57.5045 46.3807,-52.08142 58.54618,-63.8356 73.97718,-71.47604 19.36361,-9.58761 58.85881,-12.37151 80.8092,-5.696 19.21191,5.84269 39.82821,19.15524 56.76665,36.65591 6.39388,6.6061 7.02798,6.8576 17.29047,6.8576 10.48099,0 10.78302,0.12984 18.68624,8.03307 8.42242,8.42241 10.27684,13.25691 10.27684,26.79181 0,6.72779 0.76857,8.24248 7.13533,14.06225 3.92442,3.5873 8.08013,6.52233 9.23491,6.52233 3.63515,0 2.29098,-4.22557 -2.93764,-9.23491 -4.70975,-4.51222 -5.03722,-5.63502 -5.03722,-17.27089 0,-14.7273 -2.64629,-21.31561 -11.93095,-29.70375 -7.47783,-6.75577 -6.18059,-7.50668 4.02224,-2.32829 25.45212,12.91809 39.81113,28.37644 39.81113,42.85912 0,5.69011 -1.42606,7.68754 -15.11168,21.16633 -18.33877,18.06162 -19.14795,21.3355 -8.06452,32.62868 6.26157,6.38007 6.86988,7.68209 5.45699,11.67988 -2.47662,7.00761 -5.12526,6.53834 -4.42693,-0.78434 0.53245,-5.58328 -0.14037,-7.08971 -5.1192,-11.46115 -3.15273,-2.76814 -13.51947,-8.31894 -23.03721,-12.33514 -28.40831,-11.98747 -32.83842,-19.29837 -32.77696,-54.09132 0.0327,-18.52046 -0.13114,-19.49078 -2.87265,-17.00977 -2.68529,2.43016 -3.86434,1.75017 -15.43768,-8.90339 -24.16568,-22.24514 -40.02803,-28.47038 -69.0256,-27.08933 -20.38644,0.97094 -37.43813,6.2894 -56.98703,17.77439 -15.26964,8.97094 -39.13105,31.70229 -70.40814,67.07371 -23.15568,26.18689 -36.05905,37.26259 -59.13552,50.75943 -9.3134,5.44718 -20.71129,13.30055 -25.32862,17.45193 l -8.39515,7.54796 -6.30975,-7.54848 -6.30975,-7.54848 -11.34162,1.11757 -11.34162,1.11758 -1.98789,-10.10426 c -2.29846,-11.68285 -3.34457,-12.8376 -14.078229,-15.54035 -7.700183,-1.93893 -7.948769,-2.1967 -7.811592,-8.09986 0.07793,-3.35346 0.68604,-10.45644 1.351362,-15.78439 l 1.209676,-9.68719 -7.248215,-4.24772 -7.248215,-4.24774 5.410835,-9.76755 5.410835,-9.76753 -5.533135,-10.38123 -5.533136,-10.38122 6.858691,-11.54489 c 7.623391,-12.83207 7.811279,-13.94604 4.469499,-26.49919 l -2.349336,-8.82511 7.340331,-6.01485 c 8.034109,-6.58335 8.541199,-7.60212 10.852539,-21.80354 1.76502,-10.844701 2.19241,-11.283339 14.98956,-15.384177 8.90671,-2.854145 9.26029,-3.21016 14.17587,-14.27336 l 5.04133,-11.346205 h 13.63657 13.63657 l 5.66135,-7.555836 5.66135,-7.555836 h 18.6249 c 16.93774,0 19.15299,-0.36595 24.4543,-4.039747 l 5.82938,-4.039748 8.72578,4.951388 8.72578,4.951387 9.64869,-4.878931 9.64866,-4.878931 17.4041,5.827996 c 9.57226,3.205397 17.86363,5.36847 18.42526,4.806828 0.56165,-0.561642 0.70634,-1.270033 0.32156,-1.574204 -0.38479,-0.30417 -5.37111,-4.384864 -11.0807,-9.06821 -7.53901,-6.18395 -12.3657,-8.817975 -17.63029,-9.621214 -3.98706,-0.608322 -14.95703,-2.612214 -24.37769,-4.45309 l -17.12848,-3.347049 -13.31808,4.09002 c -13.09016,4.020018 -13.53707,4.044267 -26.11192,1.416721 l -12.79382,-2.673301 -11.95086,6.45493 c -11.53546,6.230565 -12.37866,6.422574 -24.25872,5.524087 l -12.30787,-0.930842 -5.169,9.158965 c -5.65159,10.014071 -7.95029,11.37344 -22.18749,13.120917 -9.205834,1.129924 -9.725907,1.463847 -14.079561,9.040012 -6.012426,10.462731 -10.378541,15.111607 -17.736864,18.885544 -5.994833,3.07463 -6.154679,3.417193 -8.148438,17.462676 -1.943122,13.68877 -2.324937,14.55722 -8.577118,19.50904 -7.339887,5.8133 -7.667995,7.63176 -3.959371,21.94381 l 2.584099,9.97236 -7.621323,8.92085 c -4.191726,4.90647 -7.621322,9.64741 -7.621322,10.53542 0,0.88802 3.061056,5.71731 6.802348,10.73178 l 6.802347,9.11721 -3.863966,3.13847 c -2.125183,1.72616 -5.742573,4.62043 -8.038646,6.4317 l -4.174679,3.2932 10.051441,9.0665 10.05144,9.06649 -9.701253,8.84959 c -5.335688,4.86727 -9.680294,9.39453 -9.654679,10.06057 0.02561,0.66603 5.335658,2.81748 11.800095,4.78099 6.464438,1.96351 11.753524,3.73776 11.753524,3.94277 0,0.205 -3.022335,4.42358 -6.716299,9.37461 -3.693965,4.95104 -6.716299,9.90053 -6.716299,10.99887 0,1.12447 3.33754,2.37318 7.638777,2.858 4.201329,0.47355 8.028719,1.25094 8.505313,1.72753 0.476595,0.47659 -1.49916,5.55296 -4.390567,11.2808 -2.891407,5.72784 -4.828964,10.84241 -4.305683,11.36567 0.523278,0.52329 5.130528,1.298 10.238331,1.72158 l 9.286914,0.77014 -2.572556,3.98528 c -1.414908,2.19192 -3.820266,5.91614 -5.345244,8.27603 l -2.772685,4.29074 12.939348,-1.17255 12.939348,-1.17253 -0.918168,4.01787 c -2.99909,13.12392 -4.031207,19.12198 -3.399169,19.75401 0.393538,0.39355 4.695665,-2.40324 9.560283,-6.21507 l 8.844762,-6.93059 3.24983,14.23621 c 1.7874,7.82991 3.77303,14.2362 4.4125,14.2362 0.63948,0 3.6809,-4.15504 6.75871,-9.23342 6.22696,-10.27442 6.77349,-10.01855 10.02347,4.6926 1.18241,5.35223 2.7167,10.08167 3.40955,10.50986 0.69284,0.42822 4.15391,-2.90206 7.69126,-7.4006 l 6.43155,-8.17915 1.67907,12.66239 1.67908,12.66241 6.4185,-9.694 c 3.53018,-5.33169 6.75629,-9.35619 7.16914,-8.94336 0.7981,0.7981 -3.32814,20.23455 -6.2348,29.3687 -2.14296,6.73425 -4.65107,6.85813 -26.18185,1.29327 z"
     id="path270" />
  <path
     style="fill:#ffffff;stroke-width:1.67907"
     d="m 737.97607,371.13526 c -3.53334,-9.29339 -6.94729,-22.92439 -6.42315,-25.64602 0.39568,-2.05455 2.02517,-0.58165 5.57853,5.04245 2.76078,4.36962 5.58628,7.94612 6.2789,7.94776 0.69261,0.002 1.28768,-5.09718 1.32235,-11.33075 l 0.063,-11.33375 5.39396,6.2966 c 2.96667,3.46314 6.26306,6.29658 7.32531,6.29653 1.06225,-4e-5 2.86195,-3.96688 3.99934,-8.81521 1.13739,-4.84833 2.43476,-9.45308 2.88304,-10.23279 0.44828,-0.77969 3.28084,2.93289 6.29458,8.25019 6.08628,10.73835 5.91934,10.86769 9.36099,-7.25231 1.10821,-5.83457 2.87508,-10.49422 3.97926,-10.49422 1.09232,0 4.15771,2.26675 6.81199,5.03722 2.65428,2.77048 5.53754,5.03723 6.40722,5.03723 1.58993,0 0.34703,-14.2294 -1.71145,-19.59371 -0.93191,-2.42852 0.0865,-2.64374 8.43325,-1.78229 5.39312,0.55663 9.92308,0.28415 10.48861,-0.6309 0.5475,-0.88586 -0.57569,-4.27354 -2.49594,-7.52814 -1.92021,-3.25462 -3.49134,-6.25209 -3.49134,-6.66104 0,-0.40896 3.65199,-0.74357 8.11552,-0.74357 4.46356,0 8.58424,-0.46871 9.15711,-1.04156 0.57286,-0.57287 -1.19016,-5.46262 -3.91784,-10.86612 -2.72767,-5.40348 -4.95941,-10.13806 -4.95941,-10.5213 0,-0.38321 3.40012,-1.20665 7.55583,-1.82983 8.7368,-1.31017 9.2446,-3.05103 3.23645,-11.09531 -8.31256,-11.12965 -8.31501,-11.10448 1.39217,-14.25374 4.84219,-1.57094 9.52781,-3.52496 10.41248,-4.3423 0.98933,-0.91402 -1.77501,-4.91214 -7.18138,-10.38651 l -8.78989,-8.90045 8.55954,-8.10417 8.55955,-8.10419 -5.99562,-6.14006 c -3.29759,-3.37704 -5.99561,-6.72765 -5.99561,-7.44582 0,-0.71816 2.26675,-4.60037 5.03722,-8.62711 2.77048,-4.02674 5.03723,-8.40115 5.03723,-9.72091 0,-1.31975 -2.63721,-5.71712 -5.86046,-9.77192 -6.53032,-8.21502 -6.85781,-10.31562 -3.54684,-22.75084 l 2.30634,-8.66218 -6.40142,-6.25084 c -5.93625,-5.79658 -6.48627,-7.15609 -7.56878,-18.70811 -1.2081,-12.892249 -2.41329,-15.136926 -10.78091,-20.079805 -2.67557,-1.5805 -7.6049,-7.5592 -10.95405,-13.286001 l -6.08938,-10.412368 -9.76743,-1.105058 C 769.3832,59.386935 767.24103,57.771923 761.718,46.7827 l -3.4918,-6.947693 -10.92619,0.87705 c -10.32228,0.828573 -11.4998,0.535358 -21.30382,-5.304862 l -10.3776,-6.181912 -10.92793,2.492669 c -10.48573,2.391808 -11.43458,2.331771 -23.44965,-1.483726 -8.19966,-2.603877 -13.75811,-3.516432 -16.10366,-2.64381 -1.97004,0.732923 -10.97602,2.713334 -20.01329,4.400911 -15.55571,2.904803 -17.00983,3.545439 -27.28497,12.020856 -5.96946,4.923891 -10.85357,9.613405 -10.85357,10.421139 0,1.279436 29.63714,-8.791938 31.57516,-10.729958 0.40223,-0.402231 4.99123,1.419062 10.19777,4.047317 l 9.46644,4.778647 6.69298,-4.67868 6.69297,-4.678681 5.04675,3.600138 c 4.17104,2.975431 7.96034,3.702272 21.83751,4.188735 l 16.79074,0.5886 5.51021,7.387006 5.5102,7.387007 h 11.56323 11.56322 l 3.91501,10.132042 c 3.80375,9.8441 4.19084,10.232769 13.62126,13.676383 5.33844,1.949387 10.0657,4.125943 10.50503,4.836791 0.43932,0.710848 1.29565,6.079121 1.90293,11.929511 1.01391,9.76783 1.69278,11.18589 8.30753,17.35335 l 7.20338,6.7163 -2.49334,10.07445 -2.49336,10.07445 6.30934,12.02247 6.30934,12.02247 -4.86765,10.18431 -4.86766,10.18431 4.67767,8.59437 4.67765,8.5944 -5.95655,4.9099 -5.95657,4.9099 0.96211,14.85026 0.96211,14.85025 -6.20401,1.16389 c -8.60744,1.61476 -12.16178,5.83082 -13.57437,16.10155 l -1.20675,8.77407 -9.75597,-1.10377 -9.75598,-1.10376 -5.43134,6.75857 -5.43132,6.75856 -6.87591,-6.31665 c -3.78175,-3.47415 -13.29837,-10.00205 -21.14805,-14.50645 -18.68053,-10.71946 -35.61507,-27.32108 -60.04015,-58.85973 -23.62837,-30.50991 -37.55523,-44.62711 -54.35527,-55.09811 -27.50465,-17.14289 -48.57324,-21.59178 -69.85133,-14.74996 -15.6649,5.03693 -16.81409,5.83496 -13.7761,9.56648 2.10851,2.58985 2.09498,2.82561 -0.10797,1.88108 -1.38524,-0.59392 -7.65415,-3.16113 -13.93092,-5.70489 l -11.4123,-4.62503 3.85647,-3.01908 c 20.66208,-16.17555 33.35603,-21.32764 52.74023,-21.40563 19.15882,-0.0771 29.60487,2.24681 45.7326,10.17396 19.54362,9.60614 33.11584,23.1362 66.90846,66.70057 31.01364,39.98179 51.12927,61.68927 62.48605,67.43085 10.59194,5.35493 27.01943,4.38217 36.94736,-2.18783 14.16846,-9.37624 24.16117,-29.17424 27.19893,-53.88766 7.15128,-58.17884 -18.72838,-109.623854 -67.2599,-133.702854 -19.62525,-9.737104 -41.37098,-12.096273 -69.78054,-7.570402 -22.541,3.590961 -52.52702,5.003892 -60.44669,2.848226 -3.69396,-1.005467 -9.64845,-4.249896 -13.23219,-7.209845 l -6.5159,-5.381723 9.87405,-2.706078 c 5.43072,-1.488343 17.05209,-6.922151 25.82525,-12.075129 40.52708,-23.803855 47.01411,-25.599091 88.15143,-24.395259 55.36765,1.620266 82.33111,12.406598 116.5477,46.623189 19.16536,19.165352 30.15783,33.815758 39.59174,52.766555 9.72626,19.53804 13.9721,36.51825 16.26908,65.06415 3.76989,46.85077 -2.29662,82.94055 -19.12208,113.75731 -24.7195,45.27516 -50.6029,69.19305 -85.2776,78.8019 -16.5173,4.57718 -19.85716,4.47533 -21.81157,-0.66518 z"
     id="path272" />
  <path
     style="fill:#ffffff;stroke-width:1.67907"
     d="m 705.2114,432.47077 c -2.77048,-0.67447 -7.30398,-2.38319 -10.07445,-3.79716 -2.77048,-1.41398 -10.32631,-4.28994 -16.79075,-6.39101 -14.31997,-4.6543 -22.36088,-8.6293 -41.97687,-20.7512 -22.21401,-13.72736 -21.76971,-13.29547 -25.14474,-24.44244 l -3.10476,-10.25434 3.92322,-4.17608 3.92322,-4.17608 h -5.12098 c -2.81655,0 -9.39226,1.88896 -14.6127,4.19769 -10.60863,4.69164 -16.99083,5.3475 -18.3204,1.88269 -0.6508,-1.69595 1.19168,-2.54944 6.89017,-3.19174 9.57036,-1.07872 13.78779,-5.61439 13.78779,-14.82818 0,-3.59166 0.45761,-6.53028 1.01692,-6.53028 0.55931,0 3.26182,1.88896 6.00559,4.19768 7.06608,5.94572 9.76824,5.45818 9.76824,-1.76245 0,-7.57617 -3.57091,-14.51562 -8.95114,-17.39504 l -4.20042,-2.24799 4.8967,-6.7597 c 4.31833,-5.96128 4.8956,-8.1678 4.88734,-18.68107 -0.0131,-16.74917 -2.1632,-22.79013 -12.67598,-35.61555 -12.57377,-15.33979 -13.92052,-22.71401 -5.01834,-27.47831 3.40154,-1.82045 5.94355,-1.7177 15.50362,0.62663 17.24258,4.22826 31.57595,11.91922 42.41645,22.75972 14.63613,14.63614 32.43089,42.38824 37.78539,58.92881 6.12034,18.90633 12.11378,30.26518 24.68733,46.78774 16.7211,21.97276 19.43506,26.56495 20.70499,35.03426 2.08331,13.89382 8.14242,21.71512 18.04985,23.29937 l 6.473,1.03509 -3.73241,3.97297 c -2.05284,2.18513 -6.43307,4.72321 -9.73387,5.64013 -6.80944,1.89161 -33.65816,1.96699 -41.26201,0.11586 z"
     id="path274" />
  <path
     style="fill:#ffffff;stroke-width:1.67907"
     d="m 609.29908,416.83031 c -2.45262,-4.84833 -8.43214,-15.34248 -13.28781,-23.32033 l -8.8285,-14.5052 6.84113,-2.68727 c 3.76262,-1.478 7.00769,-2.5065 7.21127,-2.28555 0.20358,0.22094 3.02211,9.09092 6.2634,19.71107 6.00179,19.66499 8.74336,31.90242 7.14716,31.90242 -0.48804,0 -2.89403,-3.96681 -5.34665,-8.81514 z"
     id="path276" />
</svg>
