<?xml version="1.0" encoding="UTF-8"?>
<svg xmlns="http://www.w3.org/2000/svg" xmlns:xlink="http://www.w3.org/1999/xlink" width="528.6" height="459.8" viewBox="0 0 528.6 459.8">
<defs>
<linearGradient id="linear-pattern-0" gradientUnits="userSpaceOnUse" x1="202.009995" y1="9.5332" x2="424.869995" y2="476.730011" gradientTransform="matrix(0.809203, 0, 0, 0.809203, -4.7503, -6.254017)">
<stop offset="0" stop-color="rgb(100%, 100%, 100%)" stop-opacity="1"/>
<stop offset="1" stop-color="rgb(100%, 100%, 100%)" stop-opacity="0"/>
</linearGradient>
</defs>
<path fill-rule="evenodd" fill="rgb(47.058824%, 47.058824%, 47.058824%)" fill-opacity="1" stroke-width="1" stroke-linecap="butt" stroke-linejoin="miter" stroke="rgb(0%, 0%, 0%)" stroke-opacity="1" stroke-miterlimit="4" d="M 302.311447 17.691576 C 316.87055 -7.525815 345.801596 -7.456861 360.769497 18.459918 L 660.427955 535.224355 C 672.731284 556.432575 661.831658 579.133152 629.738587 579.133152 L 31.539708 579.133152 C 7.046332 579.133152 -6.542493 553.900985 3.125815 537.150136 L 302.306522 17.691576 Z M 302.311447 17.691576 " transform="matrix(0.793103, 0, 0, 0.793103, 0.489655, 0)"/>
<path fill-rule="evenodd" fill="rgb(100%, 0%, 0%)" fill-opacity="1" stroke-width="0.96082" stroke-linecap="butt" stroke-linejoin="miter" stroke="rgb(0%, 0%, 0%)" stroke-opacity="1" stroke-miterlimit="4" d="M 303.498437 32.674253 C 321.362398 1.743546 341.32945 1.649966 359.671162 33.413043 L 647.587772 529.924762 C 663.131929 556.831522 648.942221 572.12449 618.10017 572.12449 L 43.340659 572.12449 C 15.99555 572.12449 2.081658 555.954823 16.034952 531.78159 Z M 303.498437 32.674253 " transform="matrix(0.793103, 0, 0, 0.793103, 0.489655, 0)"/>
<path fill-rule="evenodd" fill="rgb(100%, 92.156863%, 0%)" fill-opacity="1" stroke-width="1" stroke-linecap="butt" stroke-linejoin="miter" stroke="rgb(0%, 0%, 0%)" stroke-opacity="1" stroke-miterlimit="4" d="M 116.919293 502.308764 L 333.847962 126.150985 L 546.1518 503.082031 Z M 116.919293 502.308764 " transform="matrix(0.793103, 0, 0, 0.793103, 0.489655, 0)"/>
<path fill-rule="evenodd" fill="rgb(0%, 0%, 0%)" fill-opacity="1" stroke-width="1" stroke-linecap="butt" stroke-linejoin="miter" stroke="rgb(0%, 0%, 0%)" stroke-opacity="1" stroke-miterlimit="4" d="M 297.908254 266.058254 C 282.748268 266.191236 267.56858 267.328974 264.219395 269.619226 C 256.929993 274.598675 249.221943 316.158118 249.221943 316.158118 C 249.221943 316.158118 238.937976 306.361753 235.381929 310.779721 C 231.909613 315.069633 246.941542 327.308933 246.941542 327.308933 L 253.472452 337.691406 C 253.472452 337.691406 244.602038 342.399966 243.060428 346.532269 C 241.54837 350.610394 242.691033 415.78159 242.691033 415.78159 L 228.471773 469.998981 C 228.471773 469.998981 224.408424 483.4893 238.83947 486.528193 C 253.457677 489.611413 256.161651 476.938689 256.161651 476.938689 L 273.469056 411.53108 L 272.690863 374.222147 L 303.838281 412.309273 L 276.941372 468.058424 C 276.941372 468.058424 270.218376 480.691746 283.841678 486.528193 C 297.312296 492.300611 302.311447 480.381454 302.311447 480.381454 C 302.311447 480.381454 336.157914 414.131624 336.157914 408.841882 C 336.157914 403.749151 327.691372 391.529552 327.691372 391.529552 L 391.527819 443.057745 C 391.527819 443.057745 379.337772 446.05231 375.781726 456.528363 C 367.221603 457.1982 360.188315 463.418818 359.621909 471.939538 C 348.569599 472.801461 339.600679 474.530231 333.059918 486.941916 L 502.691202 486.941916 C 502.691202 486.941916 500.55856 472.230129 481.157914 471.53074 C 479.429144 466.748302 477.582167 464.428499 470.780367 463.468071 C 472.420482 441.028533 456.250815 442.328804 449.621399 442.688349 C 434.298879 417.480808 410.160122 424.499321 400.782405 437.689198 L 332.690523 382.309443 C 332.690523 382.309443 365.497758 328.471298 365.778499 317.689878 C 366.039538 307.721128 338.369361 271.889776 331.528159 268.471637 C 328.218376 266.811821 313.06824 265.930197 297.908254 266.058254 Z M 294.248777 295.53108 L 274.690523 316.18767 L 279.029687 296.058084 Z M 324.189504 342.311311 L 311.117833 366.780061 L 296.440523 354.279721 Z M 324.189504 342.311311 " transform="matrix(0.793103, 0, 0, 0.793103, 0.489655, 0)"/>
<path fill-rule="evenodd" fill="rgb(0%, 0%, 0%)" fill-opacity="1" stroke-width="1" stroke-linecap="butt" stroke-linejoin="miter" stroke="rgb(0%, 0%, 0%)" stroke-opacity="1" stroke-miterlimit="4" d="M 399.240795 280.30214 C 399.073336 292.255774 389.291746 301.840353 377.333186 301.756624 C 365.379552 301.672894 355.726019 291.955333 355.726019 280.001698 C 355.726019 268.043139 365.379552 258.325577 377.333186 258.241848 C 389.291746 258.163043 399.073336 267.742697 399.240795 279.701257 " transform="matrix(0.793103, 0, 0, 0.793103, 0.489655, 0)"/>
<path fill-rule="evenodd" fill="url(#linear-pattern-0)" d="M 263.417969 1.457031 C 255.71875 1.394531 248.058594 7.683594 240.832031 20.195312 L 74.757812 308.535156 C 150.664062 252.378906 255.042969 206.957031 377.261719 177.683594 L 286.277344 20.785156 C 278.851562 7.929688 271.121094 1.527344 263.417969 1.460938 Z M 263.417969 1.457031 "/>
</svg>
