<?xml version="1.0" encoding="UTF-8"?>
<svg xmlns="http://www.w3.org/2000/svg" xmlns:xlink="http://www.w3.org/1999/xlink" width="1105.600815" height="1853.585663" viewBox="0 0 1105.600815 1853.585663">
<path fill-rule="nonzero" fill="rgb(0%, 0%, 0%)" fill-opacity="1" d="M 656.421875 1.109375 C 655.046875 1.859375 642.921875 5.109375 629.546875 8.609375 C 602.921875 15.484375 601.046875 15.984375 566.421875 24.234375 C 520.671875 35.234375 486.421875 43.859375 480.796875 45.609375 C 477.671875 46.609375 468.171875 48.984375 459.546875 50.984375 C 450.921875 52.984375 423.671875 59.734375 398.921875 65.984375 C 374.171875 72.234375 352.921875 77.359375 351.671875 77.359375 C 350.546875 77.359375 348.296875 78.859375 346.671875 80.734375 C 345.171875 82.609375 341.546875 86.734375 338.671875 89.984375 C 335.671875 93.109375 333.296875 96.109375 333.296875 96.734375 C 333.296875 97.859375 326.421875 106.859375 322.796875 110.609375 C 319.296875 114.109375 317.546875 116.359375 310.546875 126.109375 C 307.296875 130.609375 303.296875 135.859375 301.546875 137.984375 C 299.796875 139.984375 294.796875 146.484375 290.296875 152.359375 C 285.796875 158.234375 281.421875 163.859375 280.421875 164.859375 C 279.546875 165.859375 272.921875 174.359375 265.671875 183.609375 C 258.546875 192.859375 252.171875 200.984375 251.421875 201.734375 C 250.671875 202.359375 248.421875 205.234375 246.421875 207.984375 C 244.421875 210.734375 241.421875 214.359375 239.921875 216.109375 C 238.296875 217.859375 237.046875 219.609375 237.046875 219.984375 C 237.046875 220.359375 235.671875 222.359375 233.921875 224.359375 C 232.171875 226.359375 228.671875 230.609375 226.171875 233.859375 C 223.546875 237.234375 221.171875 239.859375 220.796875 239.859375 C 220.421875 239.859375 220.296875 263.859375 220.421875 293.234375 C 220.671875 322.734375 220.546875 347.859375 220.171875 349.359375 C 219.546875 352.359375 218.546875 352.859375 168.296875 376.109375 C 159.671875 380.109375 142.796875 388.109375 130.796875 393.984375 C 91.921875 412.734375 54.171875 431.234375 46.421875 435.109375 C 42.296875 437.234375 30.796875 442.484375 20.796875 446.984375 C 1.546875 455.609375 -3.328125 458.609375 2.046875 458.609375 C 5.296875 458.609375 53.921875 453.984375 62.671875 452.859375 C 70.671875 451.859375 88.796875 450.109375 126.421875 446.734375 C 145.671875 445.109375 164.421875 443.359375 168.046875 442.984375 C 171.546875 442.609375 174.546875 442.859375 174.546875 443.484375 C 174.546875 444.109375 171.046875 447.609375 166.796875 451.234375 C 162.421875 454.984375 157.671875 459.109375 156.296875 460.484375 C 154.796875 461.859375 151.296875 464.859375 148.421875 467.109375 C 145.421875 469.484375 143.296875 472.359375 143.296875 473.859375 C 143.296875 476.609375 140.046875 476.734375 174.546875 473.484375 C 183.171875 472.734375 192.296875 472.359375 194.796875 472.609375 L 199.421875 472.984375 L 192.921875 481.234375 C 189.296875 485.859375 182.921875 493.484375 178.546875 498.359375 C 172.421875 505.234375 171.171875 507.234375 172.796875 507.859375 C 175.046875 508.734375 186.796875 505.859375 196.046875 502.234375 C 199.546875 500.859375 202.546875 499.984375 202.921875 500.234375 C 203.171875 500.484375 202.671875 503.359375 201.796875 506.484375 C 201.046875 509.734375 200.671875 512.609375 201.046875 513.109375 C 201.546875 513.484375 204.421875 511.984375 207.546875 509.734375 C 210.671875 507.484375 213.546875 505.984375 213.796875 506.234375 C 214.671875 507.109375 210.171875 512.609375 186.421875 540.484375 C 182.296875 545.234375 177.546875 550.859375 176.046875 552.859375 C 174.546875 554.859375 169.921875 560.234375 165.921875 564.734375 C 161.796875 569.234375 153.671875 578.609375 147.671875 585.484375 C 126.921875 609.359375 122.671875 613.984375 117.046875 619.484375 C 112.421875 623.859375 111.796875 625.109375 113.296875 626.109375 C 114.546875 626.859375 116.921875 626.109375 121.421875 623.484375 C 124.796875 621.484375 132.171875 617.484375 137.671875 614.609375 C 143.171875 611.859375 153.296875 606.359375 160.171875 602.484375 C 179.671875 591.484375 189.296875 586.734375 190.296875 587.734375 C 190.796875 588.234375 190.171875 591.484375 189.046875 595.109375 C 186.921875 601.609375 171.671875 643.109375 169.546875 647.984375 C 169.046875 649.359375 167.796875 652.484375 167.046875 654.859375 C 166.171875 657.234375 163.796875 663.734375 161.796875 669.234375 C 159.796875 674.734375 157.546875 681.234375 156.796875 683.609375 C 156.171875 685.984375 155.046875 688.484375 154.546875 689.234375 C 154.046875 689.859375 152.671875 693.609375 151.546875 697.359375 C 150.296875 701.109375 148.796875 705.359375 148.171875 706.734375 C 147.546875 708.109375 146.546875 710.859375 145.921875 712.984375 C 145.296875 714.984375 142.921875 721.484375 140.796875 727.359375 C 138.671875 733.234375 135.296875 742.484375 133.296875 747.984375 C 131.296875 753.484375 128.546875 760.984375 127.171875 764.609375 C 122.671875 775.859375 126.296875 774.484375 142.296875 758.859375 C 150.046875 751.234375 158.796875 742.984375 161.796875 740.484375 C 164.671875 737.859375 171.796875 731.234375 177.421875 725.609375 C 194.546875 708.984375 201.796875 702.359375 203.046875 702.359375 C 205.171875 702.359375 205.671875 712.484375 205.671875 750.859375 C 205.546875 783.109375 205.796875 789.109375 207.421875 790.859375 C 210.296875 794.109375 220.921875 810.734375 226.421875 820.484375 C 229.046875 825.234375 233.421875 832.484375 236.046875 836.359375 C 238.671875 840.234375 240.796875 843.984375 240.796875 844.734375 C 240.796875 845.359375 241.546875 846.734375 242.546875 847.609375 C 243.421875 848.609375 245.171875 851.109375 246.296875 853.359375 C 248.171875 856.984375 248.796875 857.359375 254.546875 857.359375 L 260.796875 857.359375 L 260.796875 861.609375 C 260.796875 867.984375 263.046875 868.359375 265.421875 862.484375 L 267.421875 857.359375 L 276.921875 857.484375 C 282.171875 857.609375 288.671875 857.984375 291.296875 858.484375 L 296.171875 859.234375 L 296.546875 928.359375 L 296.921875 997.609375 L 307.796875 1022.109375 C 313.796875 1035.609375 320.296875 1050.359375 322.296875 1054.859375 C 324.421875 1059.359375 329.921875 1071.359375 334.421875 1081.734375 C 339.046875 1091.984375 345.296875 1105.859375 348.296875 1112.359375 C 354.671875 1126.484375 355.671875 1128.984375 360.171875 1140.484375 C 362.046875 1145.234375 365.046875 1151.984375 366.671875 1155.234375 C 368.296875 1158.484375 372.171875 1167.234375 375.296875 1174.609375 C 378.546875 1181.984375 382.921875 1191.859375 385.171875 1196.734375 C 391.171875 1209.734375 392.421875 1212.859375 399.421875 1229.234375 C 402.921875 1237.484375 406.921875 1246.484375 408.171875 1249.234375 C 409.546875 1251.984375 413.296875 1260.359375 416.421875 1267.984375 C 419.671875 1275.484375 423.546875 1284.484375 425.171875 1287.984375 C 434.171875 1307.609375 439.796875 1320.484375 443.921875 1330.484375 C 446.546875 1336.609375 448.921875 1342.234375 449.296875 1342.984375 C 449.796875 1343.609375 450.171875 1344.734375 450.296875 1345.484375 C 450.421875 1346.109375 451.921875 1349.234375 453.546875 1352.359375 L 456.671875 1357.984375 L 493.421875 1358.234375 C 513.671875 1358.359375 535.046875 1358.484375 541.046875 1358.609375 C 551.046875 1358.609375 551.921875 1358.859375 552.671875 1361.234375 C 553.171875 1362.734375 555.671875 1368.484375 558.296875 1374.109375 C 560.921875 1379.734375 564.296875 1386.984375 565.796875 1390.484375 C 567.296875 1393.859375 572.296875 1400.859375 576.921875 1405.984375 C 581.421875 1410.984375 589.546875 1420.234375 595.046875 1426.609375 C 600.421875 1432.859375 608.921875 1442.484375 613.921875 1447.984375 C 618.921875 1453.484375 626.296875 1461.859375 630.296875 1466.734375 C 639.546875 1477.734375 643.421875 1482.234375 645.921875 1484.734375 C 650.796875 1489.484375 651.296875 1492.484375 651.546875 1519.234375 C 651.796875 1533.609375 652.296875 1583.109375 652.796875 1629.234375 C 653.171875 1675.359375 653.671875 1719.734375 653.921875 1727.984375 C 654.046875 1736.234375 654.671875 1767.109375 655.171875 1796.734375 C 655.671875 1826.234375 656.171875 1851.234375 656.546875 1851.984375 C 657.296875 1854.734375 660.171875 1853.734375 661.671875 1850.234375 C 662.546875 1848.234375 666.171875 1839.109375 669.671875 1829.859375 C 673.171875 1820.609375 676.671875 1811.609375 677.421875 1809.859375 C 678.046875 1808.109375 678.796875 1806.109375 679.046875 1805.484375 C 680.296875 1801.484375 691.046875 1774.234375 693.171875 1769.734375 C 694.671875 1766.734375 695.796875 1763.734375 695.796875 1762.859375 C 695.796875 1761.984375 698.046875 1755.734375 700.921875 1748.984375 C 703.796875 1742.234375 709.046875 1728.609375 712.796875 1718.859375 C 716.421875 1708.984375 719.921875 1700.234375 720.546875 1699.484375 C 721.296875 1698.609375 722.296875 1695.984375 723.046875 1693.609375 C 724.171875 1689.609375 773.796875 1565.109375 777.671875 1556.734375 C 778.546875 1554.609375 780.171875 1550.734375 781.171875 1547.984375 C 782.171875 1545.234375 789.046875 1528.109375 796.421875 1509.859375 C 803.796875 1491.609375 812.796875 1469.359375 816.421875 1460.484375 C 820.046875 1451.484375 824.421875 1440.984375 826.296875 1436.859375 C 828.046875 1432.859375 829.546875 1428.859375 829.546875 1427.984375 C 829.546875 1426.984375 831.296875 1424.609375 833.296875 1422.609375 C 835.421875 1420.484375 837.046875 1418.484375 837.046875 1418.109375 C 837.046875 1417.734375 843.796875 1408.609375 852.046875 1397.984375 C 860.171875 1387.359375 867.546875 1377.609375 868.296875 1376.234375 C 868.921875 1374.859375 870.296875 1373.109375 871.171875 1372.109375 C 872.796875 1370.484375 897.421875 1337.484375 900.796875 1332.359375 C 904.796875 1326.359375 916.296875 1311.734375 917.296875 1311.359375 C 917.796875 1311.109375 918.296875 1310.359375 918.296875 1309.734375 C 918.296875 1308.734375 923.046875 1302.234375 932.921875 1289.859375 C 934.796875 1287.484375 959.421875 1255.484375 962.671875 1251.234375 C 964.046875 1249.484375 970.671875 1240.359375 977.546875 1231.109375 C 984.421875 1221.859375 990.671875 1213.609375 991.421875 1212.859375 C 992.046875 1212.109375 993.546875 1210.109375 994.546875 1208.609375 C 998.796875 1202.359375 1033.296875 1156.359375 1043.796875 1143.234375 C 1047.046875 1138.984375 1050.671875 1134.109375 1051.796875 1132.359375 C 1055.171875 1127.109375 1075.046875 1100.609375 1076.421875 1099.609375 C 1077.921875 1098.484375 1081.046875 1102.109375 1089.796875 1115.109375 C 1093.296875 1120.484375 1096.421875 1124.609375 1096.671875 1124.359375 C 1097.171875 1123.859375 1100.171875 1099.359375 1102.046875 1081.109375 C 1102.796875 1073.234375 1104.046875 1063.234375 1104.796875 1058.859375 C 1105.546875 1054.484375 1105.796875 1050.734375 1105.421875 1050.359375 C 1105.046875 1049.984375 1101.546875 1053.859375 1097.671875 1058.859375 C 1093.671875 1063.859375 1089.671875 1067.984375 1088.546875 1067.984375 C 1086.421875 1067.984375 1076.046875 1053.234375 1050.296875 1013.859375 C 1023.171875 972.609375 1005.171875 945.484375 1004.421875 944.859375 C 1004.046875 944.484375 997.421875 934.609375 989.546875 922.984375 C 981.796875 911.234375 974.671875 900.734375 973.671875 899.609375 C 971.671875 897.359375 972.421875 894.859375 974.921875 894.859375 C 977.671875 894.859375 979.796875 892.609375 980.171875 889.734375 C 980.421875 888.109375 981.171875 880.484375 982.046875 872.859375 C 984.546875 851.859375 982.421875 849.484375 974.796875 864.859375 C 970.421875 873.609375 969.671875 874.359375 959.546875 880.609375 C 953.671875 884.234375 948.046875 887.234375 947.046875 887.234375 C 946.046875 887.234375 949.171875 883.609375 953.921875 879.234375 C 958.796875 874.734375 963.171875 871.109375 963.796875 871.109375 C 965.171875 871.109375 964.421875 862.734375 958.171875 808.359375 C 957.546875 802.234375 956.421875 795.859375 955.671875 793.984375 C 954.046875 789.734375 953.921875 789.859375 939.796875 810.984375 L 928.546875 827.609375 L 932.421875 833.359375 C 934.546875 836.609375 937.296875 840.109375 938.546875 841.359375 C 941.296875 844.109375 941.296875 845.234375 938.921875 849.984375 L 936.921875 853.609375 L 916.671875 853.359375 L 896.421875 852.984375 L 896.046875 839.234375 C 895.796875 831.234375 896.296875 823.234375 897.171875 820.109375 C 898.796875 814.234375 908.671875 796.859375 921.796875 777.109375 C 924.796875 772.359375 924.796875 772.359375 922.421875 770.234375 C 919.921875 768.109375 902.546875 719.109375 897.171875 699.234375 C 895.796875 694.359375 892.796875 684.859375 890.421875 677.984375 C 884.046875 659.609375 884.171875 660.234375 888.921875 652.359375 C 891.296875 648.609375 895.296875 641.484375 897.796875 636.734375 C 900.296875 631.859375 908.421875 617.859375 915.796875 605.484375 C 923.171875 593.109375 931.921875 578.234375 935.296875 572.359375 L 941.546875 561.734375 L 973.046875 560.984375 L 973.796875 572.609375 C 974.171875 578.984375 974.796875 606.734375 975.296875 634.234375 C 975.671875 661.734375 976.296875 684.609375 976.546875 684.984375 C 976.796875 685.359375 977.046875 707.234375 977.171875 733.359375 L 977.296875 781.109375 L 969.671875 792.359375 C 962.671875 802.484375 962.046875 803.984375 962.796875 808.109375 C 964.296875 816.484375 968.046875 814.984375 975.171875 802.984375 C 976.546875 800.734375 979.296875 796.109375 981.421875 792.734375 L 985.171875 786.734375 L 984.671875 670.484375 C 984.546875 606.484375 984.046875 553.984375 983.796875 553.609375 C 983.421875 553.359375 978.796875 553.109375 973.296875 553.109375 L 963.421875 553.109375 L 963.046875 536.234375 C 962.796875 526.859375 962.421875 448.359375 962.296875 361.734375 C 962.046875 268.984375 961.296875 203.609375 960.671875 202.859375 C 959.796875 201.734375 947.171875 193.484375 936.546875 186.984375 C 932.796875 184.734375 913.046875 171.359375 899.546875 161.984375 C 884.796875 151.734375 888.546875 154.234375 858.921875 134.484375 C 845.171875 125.359375 829.421875 114.734375 823.921875 110.984375 C 818.421875 107.109375 802.671875 96.484375 788.921875 87.234375 C 737.171875 52.234375 712.296875 35.484375 700.796875 27.609375 C 694.296875 23.109375 683.921875 16.109375 677.921875 11.984375 C 671.921875 7.859375 666.421875 3.484375 665.671875 2.109375 C 664.421875 -0.265625 660.546875 -0.765625 656.421875 1.109375 Z M 676.046875 21.359375 C 682.296875 25.734375 691.671875 31.984375 696.921875 35.484375 C 702.171875 38.859375 711.296875 45.109375 717.046875 49.359375 C 722.921875 53.609375 732.421875 60.234375 738.296875 64.109375 C 744.171875 67.984375 752.546875 73.734375 757.046875 76.859375 C 761.546875 79.984375 774.296875 88.859375 785.546875 96.484375 C 796.796875 104.234375 811.171875 114.234375 817.546875 118.734375 C 829.421875 127.234375 850.171875 141.484375 877.046875 159.609375 C 891.796875 169.484375 900.046875 175.984375 899.046875 176.984375 C 898.671875 177.359375 888.421875 173.359375 867.046875 164.359375 C 856.796875 159.984375 852.171875 158.859375 851.921875 160.734375 C 851.921875 161.359375 851.671875 163.109375 851.296875 164.859375 C 851.046875 166.609375 849.671875 175.234375 848.296875 184.234375 C 846.921875 193.109375 845.296875 203.234375 844.546875 206.734375 C 842.046875 219.734375 836.671875 252.109375 832.671875 277.984375 C 831.796875 284.109375 828.296875 304.359375 825.171875 322.984375 C 821.921875 341.484375 818.921875 360.109375 818.671875 364.234375 C 818.296875 368.484375 819.796875 385.234375 821.921875 403.234375 C 827.171875 446.609375 827.046875 448.359375 819.546875 429.234375 C 813.796875 414.609375 794.546875 371.234375 791.546875 366.234375 C 789.046875 361.984375 789.046875 361.734375 791.296875 281.859375 C 793.546875 198.109375 793.921875 189.609375 795.421875 186.734375 C 796.046875 185.859375 804.171875 176.859375 813.671875 166.984375 C 823.046875 156.984375 830.796875 148.234375 830.796875 147.484375 C 830.796875 146.734375 829.546875 145.859375 828.046875 145.484375 C 826.421875 145.109375 820.171875 143.734375 813.921875 142.359375 C 797.796875 138.859375 772.796875 132.609375 733.296875 122.484375 C 714.421875 117.609375 691.296875 111.734375 682.046875 109.359375 C 671.921875 106.859375 664.671875 105.484375 664.046875 106.234375 C 662.421875 107.734375 664.921875 116.859375 671.671875 134.734375 C 674.796875 142.734375 679.421875 155.109375 681.921875 162.359375 C 684.546875 169.609375 692.921875 192.359375 700.671875 212.984375 C 715.171875 251.609375 720.171875 265.484375 730.046875 292.359375 C 733.171875 300.984375 737.171875 311.859375 738.921875 316.734375 C 740.796875 321.484375 744.671875 332.484375 747.671875 341.109375 C 750.671875 349.734375 754.296875 359.859375 755.796875 363.609375 C 761.421875 377.984375 760.796875 378.109375 748.796875 365.734375 C 740.171875 356.859375 735.671875 351.859375 724.421875 338.484375 C 704.546875 314.984375 671.046875 276.359375 665.921875 271.234375 L 661.796875 266.859375 L 660.171875 269.859375 C 658.546875 272.984375 653.046875 293.484375 650.921875 303.734375 C 648.171875 317.234375 637.046875 363.359375 635.796875 366.734375 C 634.921875 368.734375 634.046875 372.484375 633.796875 374.859375 C 632.046875 389.109375 604.671875 499.984375 602.671875 499.984375 C 601.421875 499.984375 599.421875 492.984375 592.671875 464.234375 C 587.796875 443.609375 586.421875 439.359375 584.671875 440.359375 C 584.046875 440.734375 575.171875 460.859375 564.796875 485.109375 C 554.421875 509.359375 542.421875 537.359375 538.171875 547.359375 C 531.546875 562.984375 517.921875 594.984375 506.421875 622.359375 C 495.046875 649.234375 493.796875 649.859375 495.046875 628.859375 C 496.296875 603.984375 498.171875 556.734375 498.921875 529.234375 C 500.296875 474.734375 500.796875 455.234375 501.421875 446.109375 C 501.796875 440.984375 501.546875 435.984375 500.921875 434.984375 C 498.921875 431.984375 496.421875 444.359375 492.796875 474.234375 C 485.671875 533.109375 485.046875 536.609375 481.421875 542.359375 C 479.546875 545.234375 476.671875 550.234375 474.921875 553.359375 C 473.046875 556.609375 469.421875 562.609375 466.921875 566.734375 C 464.296875 570.859375 461.046875 576.234375 459.671875 578.734375 C 458.296875 581.234375 451.421875 592.734375 444.421875 604.359375 C 437.421875 615.984375 429.921875 628.609375 427.796875 632.359375 C 420.171875 645.609375 414.546875 653.734375 413.421875 653.109375 C 412.796875 652.734375 412.046875 650.609375 411.796875 648.359375 C 411.421875 646.109375 407.421875 625.984375 402.921875 603.609375 C 398.421875 581.234375 394.421875 560.734375 394.046875 557.984375 C 392.796875 550.609375 399.546875 518.734375 407.171875 495.484375 C 410.671875 484.734375 413.296875 475.734375 412.921875 475.359375 C 410.421875 472.859375 394.546875 517.234375 389.796875 539.984375 C 380.546875 583.859375 377.671875 625.234375 380.671875 676.109375 C 383.546875 726.609375 383.546875 726.109375 381.296875 721.234375 C 378.671875 715.484375 371.796875 691.609375 365.046875 664.609375 C 359.546875 642.484375 349.546875 594.359375 349.546875 589.734375 C 349.546875 588.484375 348.671875 587.359375 347.671875 587.359375 C 345.671875 587.359375 342.921875 592.109375 337.671875 604.859375 C 319.296875 649.484375 311.796875 693.234375 311.546875 757.609375 C 311.421875 784.234375 310.671875 791.734375 308.921875 781.984375 C 303.171875 749.484375 297.296875 717.609375 292.671875 694.234375 C 285.046875 656.234375 275.046875 602.234375 273.921875 593.234375 C 273.421875 589.359375 272.546875 586.109375 271.921875 586.109375 C 270.546875 586.109375 265.921875 590.984375 258.296875 600.359375 C 251.546875 608.734375 249.421875 609.234375 250.296875 602.609375 C 250.921875 598.609375 255.796875 571.234375 257.796875 560.859375 C 259.046875 554.484375 255.921875 556.234375 244.921875 568.234375 C 225.671875 589.609375 222.296875 592.984375 221.421875 592.109375 C 220.671875 591.359375 221.421875 586.359375 227.046875 554.234375 C 228.421875 546.609375 230.921875 531.984375 232.671875 521.734375 C 234.421875 511.359375 236.796875 499.359375 237.796875 494.984375 C 238.796875 490.609375 239.296875 486.734375 239.046875 486.484375 C 238.171875 485.609375 229.296875 490.734375 218.296875 498.484375 C 211.046875 503.734375 207.546875 505.609375 207.296875 504.359375 C 206.921875 502.859375 210.046875 494.234375 215.171875 482.984375 C 219.796875 472.484375 220.796875 469.359375 219.546875 468.609375 C 218.921875 468.234375 214.046875 468.234375 208.921875 468.734375 C 191.296875 470.484375 150.796875 471.484375 150.796875 470.234375 C 150.796875 469.234375 165.171875 455.484375 176.421875 445.984375 C 179.171875 443.609375 181.671875 441.359375 181.796875 440.734375 C 182.046875 440.234375 183.046875 439.859375 184.046875 439.859375 C 185.046875 439.859375 185.796875 439.234375 185.796875 438.609375 C 185.796875 437.859375 184.296875 437.359375 182.546875 437.359375 C 177.796875 437.359375 109.171875 443.234375 81.421875 446.109375 C 50.796875 449.234375 32.046875 450.359375 32.046875 449.359375 C 32.046875 448.609375 69.921875 429.859375 71.296875 429.859375 C 71.546875 429.859375 86.296875 422.734375 104.046875 414.109375 C 121.921875 405.359375 149.671875 391.984375 165.796875 384.234375 C 181.921875 376.484375 205.921875 364.984375 218.921875 358.609375 C 232.046875 352.234375 254.046875 341.484375 268.046875 334.734375 C 281.921875 327.984375 293.296875 321.859375 293.296875 321.234375 C 293.296875 318.859375 290.921875 318.609375 282.921875 320.484375 C 259.296875 325.984375 225.796875 331.109375 225.796875 329.359375 C 225.796875 328.609375 251.046875 277.109375 288.296875 201.734375 C 304.171875 169.359375 322.796875 131.734375 329.671875 117.984375 C 336.421875 104.109375 343.296875 91.609375 345.046875 89.984375 C 348.046875 87.109375 349.546875 86.609375 368.296875 82.234375 C 374.171875 80.859375 386.296875 77.859375 395.171875 75.484375 C 404.171875 73.109375 421.796875 68.609375 434.546875 65.609375 C 456.546875 60.234375 472.421875 56.609375 546.421875 39.859375 C 564.296875 35.859375 587.046875 30.484375 597.046875 28.109375 C 614.546875 23.859375 619.296875 22.734375 642.046875 17.484375 C 647.921875 16.109375 653.796875 14.734375 655.171875 14.484375 C 662.171875 12.859375 664.921875 13.734375 676.046875 21.359375 Z M 297.421875 151.984375 C 295.421875 155.109375 262.796875 201.109375 245.296875 225.484375 C 237.546875 236.234375 232.171875 242.359375 230.546875 242.359375 C 227.671875 242.359375 230.421875 236.359375 237.671875 226.609375 C 242.171875 220.609375 245.796875 215.234375 245.796875 214.734375 C 245.796875 214.234375 247.296875 212.109375 249.046875 210.234375 C 250.921875 208.359375 254.546875 203.859375 257.171875 200.484375 C 259.921875 196.984375 265.421875 189.984375 269.546875 184.859375 C 273.671875 179.734375 278.921875 172.984375 281.046875 169.859375 C 286.171875 162.484375 298.796875 147.484375 299.296875 147.984375 C 299.546875 148.234375 298.671875 149.984375 297.421875 151.984375 Z M 782.046875 286.359375 C 782.046875 289.984375 781.421875 296.609375 780.796875 301.109375 C 780.171875 305.609375 779.046875 324.359375 778.296875 342.984375 C 777.546875 361.484375 776.421875 380.359375 775.546875 384.734375 C 774.671875 389.984375 774.671875 392.859375 775.421875 393.484375 C 776.171875 393.859375 781.046875 405.734375 786.421875 419.859375 C 791.671875 433.984375 797.921875 450.234375 800.171875 456.109375 C 802.546875 461.984375 806.921875 473.484375 809.921875 481.734375 C 813.046875 489.984375 818.421875 504.109375 821.921875 513.234375 C 825.421875 522.359375 828.296875 530.359375 828.296875 530.984375 C 828.296875 531.609375 823.921875 535.234375 818.671875 538.984375 C 773.796875 570.109375 713.671875 591.234375 650.046875 597.984375 C 627.796875 600.484375 578.671875 600.734375 551.421875 598.734375 C 529.671875 597.109375 525.796875 596.484375 525.796875 594.484375 C 525.796875 592.234375 550.671875 530.984375 559.546875 511.734375 C 560.796875 508.984375 566.671875 495.109375 572.796875 480.734375 C 578.921875 466.484375 584.171875 454.859375 584.671875 454.859375 C 586.046875 454.859375 588.171875 461.859375 593.421875 484.859375 C 600.296875 514.609375 600.671875 516.359375 602.296875 515.859375 C 603.671875 515.359375 611.546875 491.609375 625.921875 445.484375 C 640.921875 397.359375 649.046875 373.234375 650.546875 372.734375 C 652.171875 371.984375 657.046875 375.609375 681.421875 394.984375 C 689.671875 401.484375 700.546875 410.109375 705.671875 413.984375 C 716.046875 421.734375 714.796875 421.734375 726.421875 414.234375 C 729.921875 411.984375 737.421875 407.109375 743.296875 403.359375 C 749.171875 399.609375 755.796875 395.484375 758.046875 394.359375 C 765.421875 390.609375 765.421875 390.484375 770.171875 350.484375 C 774.421875 315.109375 779.796875 279.859375 781.046875 279.859375 C 781.546875 279.859375 782.046875 282.859375 782.046875 286.359375 Z M 957.046875 326.859375 C 957.046875 327.859375 956.546875 328.359375 955.796875 327.984375 C 955.171875 327.609375 954.546875 326.734375 954.546875 325.984375 C 954.546875 325.359375 955.171875 324.859375 955.796875 324.859375 C 956.546875 324.859375 957.046875 325.734375 957.046875 326.859375 Z M 956.921875 451.359375 C 957.046875 506.734375 956.671875 544.859375 956.046875 544.859375 C 955.421875 544.859375 953.046875 540.734375 950.796875 535.734375 L 946.671875 526.734375 L 948.796875 470.484375 C 950.796875 418.234375 954.171875 342.984375 954.796875 338.609375 C 955.796875 329.984375 956.671875 372.984375 956.921875 451.359375 Z M 902.171875 471.609375 C 891.296875 493.359375 879.421875 509.859375 862.046875 527.234375 C 853.421875 535.859375 844.296875 544.359375 841.796875 546.109375 C 839.171875 547.859375 836.796875 549.984375 836.421875 550.859375 C 836.171875 551.734375 837.796875 557.609375 840.296875 563.984375 C 848.046875 584.109375 853.046875 597.484375 859.546875 615.484375 C 863.046875 625.109375 867.921875 638.484375 870.421875 645.234375 C 873.171875 652.484375 874.546875 657.859375 873.796875 658.484375 C 872.671875 659.609375 817.046875 680.984375 783.921875 692.984375 C 762.546875 700.734375 698.921875 724.609375 685.796875 729.859375 C 653.921875 742.484375 655.296875 742.234375 617.046875 742.484375 L 590.171875 742.734375 L 588.796875 717.609375 C 588.171875 703.734375 587.171875 692.109375 586.796875 691.734375 C 586.046875 690.984375 582.671875 694.609375 568.921875 710.984375 C 564.171875 716.734375 560.296875 722.109375 560.421875 722.859375 C 560.546875 723.609375 561.046875 725.359375 561.421875 726.734375 C 562.171875 728.984375 560.296875 730.234375 545.546875 737.109375 C 536.421875 741.359375 528.171875 744.859375 527.296875 744.859375 C 525.546875 744.859375 514.296875 737.609375 493.296875 722.734375 C 486.046875 717.609375 475.671875 710.359375 470.171875 706.484375 C 464.671875 702.609375 450.671875 692.609375 438.921875 684.359375 C 395.546875 653.734375 396.921875 654.609375 393.671875 656.734375 C 392.046875 657.859375 390.171875 658.359375 389.546875 657.984375 C 388.796875 657.609375 388.296875 651.734375 388.296875 645.109375 L 388.296875 632.984375 L 394.546875 625.109375 C 398.046875 620.859375 401.421875 617.359375 401.921875 617.359375 C 402.546875 617.359375 403.671875 621.109375 404.546875 625.734375 C 407.046875 640.109375 410.796875 659.109375 411.546875 661.359375 C 413.046875 666.234375 413.421875 665.609375 445.296875 614.859375 C 451.171875 605.609375 456.671875 597.234375 457.671875 596.234375 C 460.046875 593.859375 459.921875 593.359375 463.171875 620.984375 C 464.671875 633.734375 466.171875 644.359375 466.546875 644.734375 C 467.671875 645.859375 473.796875 638.234375 481.046875 626.984375 C 484.421875 621.734375 487.796875 617.359375 488.421875 617.359375 C 489.671875 617.359375 489.671875 628.234375 488.421875 653.609375 C 487.921875 663.609375 487.921875 672.859375 488.421875 674.234375 C 489.171875 676.484375 489.546875 676.234375 491.296875 672.359375 C 492.296875 669.984375 499.046875 654.484375 506.046875 638.109375 L 519.046875 608.234375 L 566.421875 607.984375 C 602.296875 607.859375 618.171875 607.359375 631.421875 605.734375 C 679.921875 599.859375 714.421875 591.484375 756.421875 574.984375 C 765.421875 571.484375 788.421875 559.984375 802.171875 551.984375 C 830.671875 535.484375 859.421875 512.984375 878.671875 492.109375 C 890.796875 478.859375 893.296875 475.734375 901.796875 462.984375 C 909.921875 450.484375 910.296875 455.484375 902.171875 471.609375 Z M 257.796875 688.734375 C 253.296875 710.984375 249.046875 731.234375 248.296875 733.609375 C 246.296875 740.609375 248.796875 740.609375 255.296875 733.609375 C 258.671875 729.984375 261.796875 726.484375 262.421875 725.609375 C 266.171875 719.984375 266.421875 740.359375 263.421875 814.609375 C 262.796875 829.984375 261.796875 841.859375 261.046875 842.609375 C 260.171875 843.484375 258.671875 842.859375 256.421875 840.359375 C 252.546875 836.234375 227.046875 801.484375 221.671875 792.984375 L 218.171875 787.484375 L 219.671875 737.984375 C 220.421875 710.734375 221.421875 687.109375 221.921875 685.484375 C 222.296875 683.859375 232.171875 673.734375 243.921875 662.859375 C 260.796875 647.359375 265.296875 643.859375 265.546875 645.859375 C 265.796875 647.234375 262.296875 666.484375 257.796875 688.734375 Z M 347.046875 666.734375 C 347.046875 674.609375 347.421875 681.234375 348.046875 681.609375 C 348.546875 681.859375 351.171875 679.359375 353.921875 676.109375 C 356.671875 672.734375 359.296875 669.984375 359.921875 669.859375 C 361.171875 669.859375 363.296875 675.484375 363.296875 678.859375 C 363.296875 681.609375 361.046875 683.984375 352.046875 691.109375 C 348.921875 693.484375 341.171875 699.859375 334.671875 705.109375 C 328.171875 710.484375 322.296875 714.859375 321.671875 714.859375 C 320.171875 714.859375 321.296875 710.109375 325.296875 699.859375 C 327.046875 695.359375 330.421875 686.984375 332.671875 681.109375 C 345.546875 647.984375 344.296875 650.734375 345.921875 651.734375 C 346.546875 652.234375 347.046875 658.859375 347.046875 666.734375 Z M 888.796875 695.109375 C 893.296875 707.234375 897.046875 717.484375 897.046875 717.984375 C 897.046875 718.359375 898.921875 723.859375 901.296875 730.234375 C 903.671875 736.609375 908.171875 748.984375 911.421875 757.859375 L 917.171875 773.984375 L 913.171875 781.609375 C 910.921875 785.859375 907.421875 791.984375 905.171875 795.484375 C 903.046875 798.859375 900.421875 803.359375 899.421875 805.484375 C 896.671875 810.859375 877.671875 843.484375 864.046875 866.109375 C 857.671875 876.734375 843.546875 900.359375 832.671875 918.609375 C 821.796875 936.859375 810.296875 955.609375 807.171875 960.359375 C 800.046875 971.109375 800.421875 970.234375 796.046875 979.234375 C 791.296875 988.734375 771.296875 1022.359375 768.921875 1024.734375 C 767.421875 1026.234375 766.171875 1025.734375 760.046875 1021.109375 L 753.046875 1015.609375 L 745.296875 1018.484375 C 717.921875 1028.859375 694.921875 1035.484375 673.921875 1039.109375 C 608.296875 1050.609375 543.796875 1047.109375 474.421875 1028.359375 L 456.171875 1023.484375 L 443.921875 1032.234375 C 437.296875 1037.109375 430.796875 1041.109375 429.671875 1041.109375 C 425.046875 1041.109375 423.296875 1034.109375 417.671875 995.484375 C 416.671875 988.609375 414.171875 971.609375 412.171875 957.734375 L 408.421875 932.609375 L 420.546875 908.734375 C 429.671875 890.859375 434.921875 882.234375 441.671875 873.984375 C 456.421875 855.859375 475.671875 831.609375 487.671875 816.234375 C 507.796875 790.234375 519.921875 775.484375 521.296875 775.109375 C 522.046875 774.984375 534.171875 777.984375 548.296875 781.859375 C 578.796875 790.109375 585.296875 791.484375 589.546875 790.734375 C 591.296875 790.484375 602.796875 787.109375 615.171875 783.359375 C 627.546875 779.484375 642.796875 775.109375 649.171875 773.484375 L 660.546875 770.609375 L 663.171875 773.609375 C 666.046875 776.859375 667.171875 778.609375 689.796875 810.109375 C 703.546875 829.234375 719.296875 850.859375 735.796875 873.484375 C 740.296875 879.609375 746.796875 888.609375 750.171875 893.484375 C 753.671875 898.234375 757.171875 902.234375 758.171875 902.359375 C 759.296875 902.359375 759.421875 901.859375 758.546875 900.734375 C 757.921875 899.984375 755.796875 894.109375 753.921875 887.984375 C 752.046875 881.734375 748.796875 871.609375 746.796875 865.484375 C 744.921875 859.234375 742.921875 852.234375 742.546875 849.859375 L 741.796875 845.484375 L 752.296875 843.359375 C 764.546875 840.734375 776.421875 836.109375 785.296875 830.484375 C 791.921875 826.234375 814.296875 804.734375 819.796875 797.359375 C 829.421875 784.484375 834.421875 770.359375 835.671875 752.984375 L 836.671875 740.484375 L 845.421875 725.484375 C 857.671875 704.484375 875.796875 674.609375 877.421875 672.609375 C 878.046875 671.734375 879.171875 671.484375 879.671875 671.984375 C 880.171875 672.484375 884.296875 682.859375 888.796875 695.109375 Z M 399.671875 681.109375 C 403.046875 682.984375 402.671875 685.234375 398.296875 687.859375 C 396.171875 688.984375 394.796875 690.484375 395.171875 691.109375 C 395.546875 691.609375 405.921875 698.484375 418.421875 706.234375 C 430.796875 714.109375 442.796875 721.734375 444.921875 723.234375 C 447.171875 724.734375 452.671875 728.234375 457.171875 730.984375 C 461.671875 733.734375 466.046875 736.859375 466.921875 737.859375 C 467.921875 739.109375 469.171875 748.984375 470.296875 765.109375 C 471.296875 779.109375 472.546875 793.609375 473.046875 797.359375 L 473.921875 804.109375 L 479.171875 799.359375 C 487.046875 792.359375 494.296875 780.609375 497.296875 770.234375 C 500.046875 761.109375 501.671875 759.484375 504.546875 762.984375 C 507.921875 766.984375 502.296875 781.859375 492.671875 794.734375 C 480.421875 810.859375 463.046875 821.234375 442.671875 824.609375 C 431.921875 826.359375 429.796875 826.359375 418.671875 824.484375 C 399.171875 821.234375 383.921875 812.359375 371.046875 796.609375 C 363.296875 787.109375 358.796875 777.109375 356.546875 763.734375 C 354.046875 749.109375 354.046875 744.734375 356.421875 732.609375 C 358.546875 721.984375 361.046875 715.359375 365.546875 708.234375 C 369.046875 702.859375 370.296875 702.484375 371.421875 706.359375 C 374.171875 715.734375 386.796875 754.859375 390.546875 765.109375 C 395.171875 778.359375 397.796875 781.109375 396.546875 771.359375 C 393.671875 748.609375 390.921875 718.734375 390.171875 702.234375 L 389.296875 682.859375 L 392.296875 681.484375 C 396.046875 679.609375 396.671875 679.609375 399.671875 681.109375 Z M 811.171875 700.234375 C 831.671875 720.859375 835.421875 755.859375 820.171875 786.109375 C 815.296875 795.734375 800.671875 809.859375 789.796875 815.359375 C 777.046875 821.859375 767.296875 824.109375 752.671875 823.984375 C 733.796875 823.859375 718.546875 817.984375 704.171875 805.109375 C 688.296875 791.109375 678.796875 768.484375 679.796875 747.359375 C 680.046875 741.359375 680.671875 739.109375 682.046875 738.859375 C 683.546875 738.609375 683.921875 740.359375 684.046875 748.234375 C 684.046875 758.234375 685.171875 764.859375 686.796875 764.859375 C 687.296875 764.734375 689.671875 762.234375 692.046875 759.109375 C 694.421875 755.984375 700.421875 750.359375 705.171875 746.609375 C 718.046875 736.359375 755.921875 713.609375 759.921875 713.609375 C 760.796875 713.609375 765.546875 718.484375 770.546875 724.359375 C 775.546875 730.359375 784.671875 740.609375 790.796875 747.234375 C 796.796875 753.859375 804.046875 761.984375 806.796875 765.484375 C 809.421875 768.859375 812.921875 772.859375 814.421875 774.234375 C 817.296875 776.734375 817.296875 776.734375 819.046875 774.234375 C 821.796875 770.484375 823.421875 763.859375 824.171875 752.984375 C 825.421875 734.734375 818.671875 715.859375 806.421875 702.484375 C 802.671875 698.484375 799.546875 694.859375 799.546875 694.359375 C 799.546875 693.984375 800.671875 693.609375 802.046875 693.609375 C 803.421875 693.609375 807.421875 696.609375 811.171875 700.234375 Z M 576.921875 750.484375 C 578.671875 754.609375 580.671875 758.359375 581.421875 758.859375 C 582.046875 759.359375 601.046875 759.859375 623.671875 759.859375 C 651.796875 759.859375 664.546875 760.234375 664.546875 761.234375 C 664.546875 764.609375 661.546875 767.359375 656.671875 768.609375 C 653.796875 769.359375 647.796875 771.109375 643.296875 772.359375 C 633.546875 775.359375 590.921875 783.359375 579.546875 784.359375 C 571.796875 785.109375 569.921875 784.734375 547.796875 777.359375 C 534.671875 772.984375 524.046875 768.734375 523.671875 767.734375 C 522.546875 764.984375 527.671875 761.109375 532.421875 761.109375 C 536.046875 761.109375 551.171875 753.234375 565.796875 743.609375 C 566.796875 742.984375 569.046875 742.609375 570.671875 742.734375 C 573.046875 742.984375 574.296875 744.484375 576.921875 750.484375 Z M 330.296875 748.984375 C 330.421875 749.109375 332.296875 754.609375 334.546875 761.109375 C 342.046875 783.234375 346.671875 791.359375 359.921875 805.734375 C 371.921875 818.484375 388.171875 826.734375 407.671875 829.734375 C 425.671875 832.484375 433.921875 832.609375 445.796875 830.609375 C 452.171875 829.484375 457.546875 828.734375 457.796875 828.984375 C 458.546875 829.734375 445.796875 855.109375 433.421875 877.234375 C 421.296875 898.984375 414.421875 911.734375 405.171875 929.609375 L 400.421875 938.609375 L 406.921875 974.609375 C 413.546875 1011.234375 414.046875 1014.859375 412.421875 1014.859375 C 411.421875 1014.859375 410.046875 1012.859375 401.421875 999.234375 C 390.796875 982.609375 388.046875 978.359375 380.796875 966.109375 C 376.421875 958.859375 370.421875 949.234375 367.421875 944.609375 C 364.421875 939.984375 359.796875 932.609375 357.296875 928.109375 C 353.171875 920.734375 339.921875 899.109375 328.921875 881.734375 C 326.796875 878.234375 320.296875 867.859375 314.546875 858.609375 C 308.796875 849.359375 302.421875 838.859375 300.171875 835.484375 C 297.921875 831.984375 293.296875 824.359375 289.671875 818.484375 L 283.296875 807.734375 L 292.046875 786.109375 C 300.546875 764.859375 301.546875 762.734375 302.546875 763.734375 C 303.546875 764.984375 313.671875 816.109375 314.171875 823.359375 C 314.796875 830.109375 316.171875 833.609375 317.671875 832.109375 C 317.921875 831.859375 317.296875 822.484375 316.296875 811.109375 C 314.046875 784.359375 313.921875 749.109375 316.171875 748.109375 C 317.421875 747.484375 329.796875 748.359375 330.296875 748.984375 Z M 286.421875 829.359375 C 289.546875 834.609375 291.921875 839.234375 291.546875 839.609375 C 291.171875 839.984375 286.546875 840.484375 281.296875 840.859375 C 272.421875 841.359375 271.796875 841.359375 272.546875 839.109375 C 272.921875 837.734375 274.421875 832.984375 275.796875 828.234375 C 277.171875 823.609375 278.921875 819.859375 279.546875 819.859375 C 280.171875 819.859375 283.171875 824.109375 286.421875 829.359375 Z M 952.421875 861.234375 C 956.546875 867.984375 957.546875 872.359375 954.546875 870.484375 C 952.296875 869.109375 945.796875 858.359375 945.796875 855.984375 C 945.796875 851.984375 947.421875 853.234375 952.421875 861.234375 Z M 947.046875 871.734375 C 950.171875 877.484375 950.171875 877.609375 947.796875 879.359375 C 943.921875 882.109375 942.546875 881.484375 939.546875 875.609375 C 936.671875 870.359375 936.671875 869.984375 938.796875 866.734375 C 941.421875 862.734375 942.671875 863.484375 947.046875 871.734375 Z M 970.171875 905.734375 C 972.296875 908.859375 975.421875 913.859375 977.421875 916.734375 L 980.796875 921.859375 L 978.421875 928.109375 C 977.046875 931.484375 973.921875 939.859375 971.296875 946.734375 C 968.796875 953.609375 965.546875 961.984375 964.296875 965.484375 C 960.421875 975.234375 955.921875 987.109375 952.046875 997.984375 C 950.171875 1003.484375 942.546875 1023.734375 935.171875 1042.984375 C 927.921875 1062.234375 918.296875 1087.484375 913.921875 1099.234375 C 901.546875 1131.859375 901.171875 1132.859375 899.671875 1133.359375 C 898.671875 1133.734375 898.296875 1116.109375 898.296875 1068.859375 C 898.296875 1008.359375 898.171875 1003.859375 896.171875 1002.984375 C 894.921875 1002.609375 893.796875 1002.734375 893.546875 1003.359375 C 893.046875 1004.859375 867.796875 1046.109375 827.296875 1111.109375 C 823.296875 1117.609375 817.546875 1126.859375 814.671875 1131.734375 C 803.671875 1149.734375 796.546875 1160.109375 796.046875 1158.734375 C 795.796875 1157.984375 797.921875 1150.234375 800.921875 1141.484375 C 803.796875 1132.609375 806.546875 1123.734375 807.171875 1121.734375 C 808.546875 1116.109375 823.296875 1073.484375 825.296875 1069.234375 C 826.171875 1067.109375 830.671875 1055.109375 835.046875 1042.359375 C 839.421875 1029.609375 844.796875 1014.359375 846.921875 1008.359375 C 849.046875 1002.484375 850.796875 996.359375 850.796875 994.984375 C 850.796875 993.484375 853.421875 986.609375 856.546875 979.609375 C 859.796875 972.484375 864.796875 961.109375 867.671875 954.234375 C 874.671875 937.859375 885.296875 914.359375 888.546875 907.609375 C 892.046875 900.859375 893.296875 902.609375 893.296875 914.484375 C 893.296875 920.359375 892.796875 923.609375 891.796875 924.109375 C 890.546875 924.734375 890.546875 924.984375 891.796875 925.609375 C 892.796875 926.109375 893.296875 929.734375 893.296875 937.109375 C 893.296875 949.234375 894.421875 952.609375 897.546875 949.984375 C 899.171875 948.609375 926.171875 935.484375 944.296875 927.109375 L 949.796875 924.609375 L 949.296875 917.609375 C 948.421875 906.484375 949.296875 904.734375 957.046875 901.609375 C 960.796875 900.109375 964.421875 899.109375 965.171875 899.484375 C 965.796875 899.734375 968.171875 902.609375 970.171875 905.734375 Z M 887.046875 902.234375 C 887.046875 903.234375 884.546875 909.234375 878.296875 922.984375 C 877.046875 925.734375 869.296875 943.734375 861.046875 962.984375 C 852.796875 982.234375 841.671875 1007.859375 836.421875 1019.859375 C 831.046875 1031.859375 824.421875 1047.359375 821.421875 1054.234375 C 818.421875 1061.109375 811.421875 1077.109375 805.796875 1089.859375 C 788.671875 1128.484375 781.171875 1145.484375 768.296875 1174.859375 C 752.796875 1210.609375 742.421875 1234.109375 739.546875 1240.484375 C 734.671875 1251.484375 723.421875 1277.234375 720.421875 1284.234375 C 718.671875 1288.359375 715.546875 1295.359375 713.546875 1299.859375 C 706.671875 1315.109375 699.671875 1330.484375 696.671875 1337.359375 C 695.046875 1341.109375 692.796875 1344.984375 691.671875 1345.984375 C 689.921875 1347.359375 674.171875 1347.734375 604.921875 1347.984375 C 558.296875 1348.234375 512.796875 1348.109375 503.921875 1347.734375 L 487.671875 1347.109375 L 484.546875 1340.609375 C 482.796875 1337.109375 472.921875 1317.609375 462.546875 1297.359375 C 452.171875 1277.109375 437.546875 1248.359375 430.171875 1233.609375 C 422.671875 1218.859375 411.796875 1197.484375 405.796875 1186.109375 C 399.796875 1174.734375 375.171875 1126.359375 350.921875 1078.484375 C 318.921875 1014.984375 307.046875 990.234375 307.046875 987.234375 C 307.046875 984.859375 308.796875 970.359375 310.796875 954.859375 C 312.796875 939.359375 314.546875 926.609375 314.546875 926.359375 C 314.546875 924.859375 320.296875 928.359375 339.546875 941.984375 C 351.921875 950.859375 365.296875 960.234375 369.171875 962.984375 C 377.546875 968.859375 374.296875 961.984375 400.796875 1031.109375 C 407.421875 1048.359375 414.171875 1065.234375 423.046875 1087.359375 C 432.046875 1109.484375 433.046875 1113.359375 436.296875 1137.984375 C 437.296875 1145.484375 439.296875 1159.359375 440.796875 1168.609375 C 448.171875 1215.984375 453.671875 1253.859375 454.421875 1261.109375 C 455.296875 1270.484375 456.546875 1273.109375 458.796875 1271.234375 C 459.671875 1270.484375 467.171875 1268.484375 475.296875 1266.734375 C 499.421875 1261.734375 535.421875 1253.859375 549.546875 1250.609375 C 556.796875 1248.859375 568.046875 1246.359375 574.546875 1244.984375 C 598.921875 1239.984375 618.046875 1235.734375 630.796875 1232.734375 C 638.046875 1231.109375 647.296875 1229.234375 651.421875 1228.859375 L 658.921875 1227.984375 L 678.921875 1194.609375 C 689.921875 1176.109375 700.671875 1158.234375 702.671875 1154.609375 C 704.796875 1150.984375 708.171875 1144.859375 710.296875 1141.109375 C 721.046875 1122.359375 743.171875 1084.109375 749.546875 1073.609375 C 753.421875 1067.109375 759.796875 1055.984375 763.796875 1048.984375 C 767.796875 1041.984375 771.796875 1035.609375 772.796875 1034.734375 C 773.796875 1033.984375 774.546875 1032.609375 774.546875 1031.734375 C 774.546875 1030.859375 779.671875 1021.234375 786.046875 1010.359375 C 792.296875 999.359375 799.546875 986.484375 802.171875 981.734375 C 807.671875 971.234375 815.796875 962.984375 850.671875 931.984375 C 864.796875 919.484375 878.296875 907.359375 880.671875 905.234375 C 885.296875 901.109375 887.046875 900.234375 887.046875 902.234375 Z M 1015.421875 1001.984375 C 1020.296875 1009.484375 1035.421875 1032.359375 1048.921875 1052.984375 C 1071.171875 1086.734375 1073.421875 1090.609375 1071.921875 1092.984375 C 1071.046875 1094.359375 1052.921875 1118.734375 1031.546875 1147.234375 C 1010.171875 1175.609375 991.546875 1200.484375 990.171875 1202.359375 C 988.796875 1204.359375 967.421875 1232.859375 942.671875 1265.984375 C 917.921875 1298.984375 894.671875 1330.109375 891.171875 1335.109375 C 887.546875 1340.109375 881.671875 1347.859375 878.171875 1352.359375 C 874.671875 1356.859375 866.296875 1367.734375 859.671875 1376.734375 C 847.421875 1393.109375 843.296875 1397.609375 843.296875 1394.984375 C 843.296875 1393.734375 852.296875 1369.984375 857.046875 1358.609375 C 858.421875 1355.484375 862.046875 1346.234375 865.296875 1337.984375 C 868.421875 1329.734375 876.546875 1309.234375 883.296875 1292.359375 C 890.046875 1275.484375 897.046875 1257.734375 898.796875 1252.984375 C 907.546875 1228.734375 950.171875 1121.609375 984.796875 1036.734375 C 989.546875 1024.984375 995.796875 1009.484375 998.671875 1002.109375 C 1001.546875 994.609375 1004.546875 988.609375 1005.296875 988.609375 C 1006.046875 988.609375 1010.671875 994.609375 1015.421875 1001.984375 Z M 893.796875 1023.859375 C 894.171875 1026.109375 894.796875 1054.984375 895.171875 1087.984375 L 895.921875 1147.984375 L 888.296875 1168.609375 C 881.296875 1187.359375 856.421875 1253.609375 846.421875 1279.859375 C 844.296875 1285.734375 840.296875 1296.109375 837.796875 1302.984375 C 835.171875 1309.859375 832.046875 1318.234375 830.796875 1321.734375 C 829.421875 1325.109375 826.046875 1334.109375 823.171875 1341.734375 C 820.421875 1349.234375 816.421875 1359.734375 814.546875 1364.859375 C 812.546875 1369.984375 806.796875 1385.484375 801.671875 1399.234375 C 796.546875 1412.984375 784.046875 1446.109375 773.921875 1472.984375 C 763.796875 1499.734375 754.671875 1523.734375 753.796875 1526.109375 C 752.921875 1528.484375 748.546875 1540.359375 743.921875 1552.359375 C 739.296875 1564.359375 733.671875 1579.609375 731.421875 1586.234375 C 729.171875 1592.859375 724.421875 1605.484375 721.046875 1614.359375 C 717.546875 1623.234375 712.921875 1635.484375 710.671875 1641.734375 C 702.921875 1663.609375 689.296875 1699.234375 688.046875 1700.484375 C 687.421875 1701.234375 687.046875 1690.109375 687.296875 1671.109375 L 687.671875 1640.484375 L 701.546875 1606.109375 C 722.046875 1555.484375 733.046875 1528.734375 745.796875 1497.984375 C 752.171875 1482.859375 757.546875 1469.234375 757.921875 1467.734375 C 758.296875 1466.109375 757.671875 1462.984375 756.671875 1460.859375 C 754.046875 1455.109375 743.046875 1428.609375 738.921875 1417.609375 C 735.171875 1407.859375 735.171875 1406.609375 740.296875 1388.234375 C 741.171875 1384.859375 741.921875 1381.734375 741.796875 1381.359375 C 741.671875 1380.859375 742.296875 1378.734375 743.171875 1376.734375 C 744.671875 1373.234375 757.421875 1332.234375 759.546875 1324.234375 C 760.171875 1322.109375 761.671875 1316.859375 763.046875 1312.359375 C 764.421875 1307.859375 767.546875 1297.484375 770.171875 1289.234375 C 772.671875 1280.984375 776.796875 1267.234375 779.546875 1258.609375 C 782.171875 1249.984375 788.171875 1230.609375 792.671875 1215.484375 C 798.421875 1196.984375 802.921875 1184.484375 806.671875 1177.359375 C 815.796875 1160.359375 822.296875 1147.984375 832.671875 1128.609375 C 838.046875 1118.609375 845.046875 1105.359375 848.296875 1099.234375 C 851.546875 1092.984375 859.671875 1077.859375 866.421875 1065.484375 C 873.171875 1053.109375 881.421875 1037.734375 884.796875 1031.359375 C 888.296875 1025.109375 891.546875 1019.859375 892.046875 1019.859375 C 892.671875 1019.859375 893.421875 1021.734375 893.796875 1023.859375 Z M 504.046875 1038.734375 C 525.296875 1042.609375 558.171875 1047.359375 565.796875 1047.484375 C 569.546875 1047.484375 573.796875 1047.984375 575.171875 1048.484375 C 577.421875 1049.359375 577.296875 1049.734375 573.296875 1052.109375 C 570.921875 1053.609375 565.296875 1056.359375 560.921875 1058.234375 L 553.046875 1061.609375 L 542.796875 1057.984375 C 523.296875 1051.234375 487.046875 1036.234375 489.671875 1036.109375 C 490.046875 1036.109375 496.421875 1037.234375 504.046875 1038.734375 Z M 730.671875 1059.484375 C 729.296875 1062.859375 724.921875 1071.984375 721.046875 1079.859375 L 713.921875 1094.234375 L 703.296875 1098.484375 C 676.171875 1109.234375 646.171875 1115.359375 612.921875 1116.984375 C 597.921875 1117.734375 596.671875 1117.609375 593.296875 1115.109375 C 588.796875 1111.734375 587.421875 1111.734375 582.671875 1114.859375 C 580.671875 1116.234375 577.546875 1117.359375 575.796875 1117.359375 C 572.296875 1117.359375 538.921875 1110.609375 518.296875 1105.734375 C 496.921875 1100.734375 495.421875 1100.609375 491.421875 1104.359375 C 489.546875 1106.109375 487.546875 1107.109375 487.046875 1106.484375 C 486.671875 1105.984375 484.671875 1101.859375 482.796875 1097.359375 C 480.796875 1092.859375 478.546875 1087.484375 477.546875 1085.484375 C 470.046875 1068.609375 466.921875 1059.484375 468.171875 1058.234375 C 469.171875 1057.234375 475.421875 1058.359375 490.546875 1062.109375 C 570.796875 1082.359375 646.296875 1080.859375 717.671875 1057.484375 C 733.671875 1052.359375 733.671875 1052.359375 730.671875 1059.484375 Z M 439.296875 1072.734375 L 449.171875 1089.234375 L 450.671875 1144.234375 C 451.421875 1174.484375 452.421875 1202.984375 452.796875 1207.609375 C 453.796875 1220.609375 451.296875 1218.609375 449.046875 1204.484375 C 445.546875 1183.359375 427.046875 1058.484375 427.046875 1056.609375 C 427.046875 1053.109375 429.546875 1056.234375 439.296875 1072.734375 Z M 473.671875 1083.234375 C 475.421875 1087.234375 478.421875 1094.234375 480.171875 1098.984375 C 482.046875 1103.609375 484.796875 1108.234375 486.171875 1109.234375 C 488.671875 1110.984375 489.171875 1110.734375 492.921875 1107.109375 L 497.046875 1103.109375 L 510.296875 1106.484375 C 517.671875 1108.234375 523.921875 1109.984375 524.171875 1110.359375 C 525.046875 1111.109375 521.046875 1121.359375 512.921875 1139.984375 C 509.171875 1148.484375 504.546875 1159.109375 502.671875 1163.609375 C 500.796875 1168.109375 498.671875 1172.484375 498.046875 1173.234375 C 497.171875 1174.359375 497.421875 1175.109375 498.921875 1175.609375 C 500.046875 1176.109375 525.546875 1175.859375 555.546875 1174.984375 C 599.046875 1173.859375 651.671875 1173.234375 674.296875 1173.609375 C 675.796875 1173.609375 677.046875 1174.109375 677.046875 1174.734375 C 677.046875 1175.859375 667.796875 1178.234375 647.046875 1182.484375 C 639.796875 1183.859375 630.046875 1186.109375 625.171875 1187.484375 C 620.421875 1188.734375 598.171875 1193.359375 575.796875 1197.859375 C 553.421875 1202.234375 532.671875 1206.484375 529.546875 1207.109375 C 514.671875 1210.609375 495.671875 1213.734375 492.546875 1213.359375 C 489.171875 1212.984375 489.046875 1212.734375 486.921875 1199.234375 C 483.671875 1179.234375 478.171875 1136.859375 477.421875 1126.734375 C 476.921875 1120.984375 476.046875 1117.109375 474.546875 1115.484375 C 472.671875 1113.234375 470.046875 1108.984375 458.671875 1088.984375 L 455.671875 1083.609375 L 461.546875 1079.859375 C 464.796875 1077.859375 468.171875 1076.109375 469.046875 1076.109375 C 469.796875 1076.109375 471.921875 1079.359375 473.671875 1083.234375 Z M 711.046875 1100.984375 C 710.796875 1102.359375 705.046875 1115.234375 687.421875 1154.234375 C 684.296875 1161.109375 681.296875 1167.234375 680.671875 1167.859375 C 680.171875 1168.484375 676.421875 1169.234375 672.421875 1169.359375 C 658.671875 1170.234375 592.671875 1171.984375 589.546875 1171.734375 C 580.171875 1170.734375 525.921875 1166.109375 523.046875 1166.109375 C 520.671875 1166.109375 519.546875 1165.484375 519.546875 1164.109375 C 519.546875 1159.859375 530.046875 1114.109375 531.296875 1112.859375 C 532.671875 1111.359375 535.421875 1111.734375 566.171875 1118.609375 L 578.546875 1121.234375 L 583.546875 1117.984375 L 588.546875 1114.609375 L 596.296875 1120.359375 L 618.421875 1118.859375 C 648.171875 1116.859375 677.921875 1110.859375 699.546875 1102.484375 C 709.171875 1098.734375 711.671875 1098.484375 711.046875 1100.984375 Z M 471.546875 1199.359375 C 479.296875 1237.984375 479.171875 1237.359375 481.296875 1237.359375 C 483.296875 1237.359375 500.546875 1233.609375 521.421875 1228.734375 C 552.296875 1221.359375 570.671875 1217.609375 569.546875 1218.984375 C 569.171875 1219.359375 563.296875 1221.734375 556.421875 1224.234375 C 549.546875 1226.734375 538.296875 1230.984375 531.421875 1233.609375 C 503.296875 1244.234375 467.046875 1256.359375 465.296875 1255.734375 C 463.546875 1255.109375 463.296875 1251.859375 463.296875 1234.609375 C 463.296875 1223.359375 462.921875 1202.734375 462.546875 1188.609375 C 461.921875 1168.984375 462.046875 1163.359375 463.171875 1164.359375 C 464.046875 1165.109375 467.796875 1180.859375 471.546875 1199.359375 Z M 471.546875 1199.359375 "/>
<path fill-rule="nonzero" fill="rgb(0%, 0%, 0%)" fill-opacity="1" d="M 490.671875 835.109375 C 484.796875 840.109375 474.296875 848.984375 467.296875 854.859375 C 458.546875 862.109375 454.546875 866.234375 454.546875 867.984375 C 454.546875 871.984375 458.171875 898.609375 458.921875 899.734375 C 459.171875 900.359375 462.796875 901.359375 466.796875 902.234375 C 470.796875 902.984375 476.171875 904.734375 478.546875 905.984375 C 481.046875 907.234375 483.671875 907.859375 484.421875 907.359375 C 485.796875 906.609375 484.671875 904.609375 468.421875 879.484375 C 464.921875 874.109375 462.046875 869.234375 462.046875 868.609375 C 462.046875 867.609375 472.421875 858.609375 498.671875 836.734375 L 507.046875 829.609375 L 513.046875 831.609375 C 516.296875 832.609375 525.171875 834.984375 532.671875 836.609375 C 540.296875 838.359375 551.796875 840.984375 558.296875 842.484375 C 564.796875 843.984375 574.171875 846.109375 578.921875 847.234375 C 587.546875 849.359375 588.046875 849.359375 600.796875 846.484375 C 608.046875 844.984375 626.546875 841.109375 641.921875 837.984375 L 669.796875 832.359375 L 675.046875 836.609375 C 681.671875 842.109375 707.546875 869.484375 708.046875 871.609375 C 708.171875 872.484375 707.296875 874.234375 705.796875 875.484375 C 704.421875 876.734375 703.296875 878.234375 703.296875 878.859375 C 703.296875 879.484375 699.921875 885.859375 695.796875 892.984375 C 691.671875 900.109375 688.296875 906.734375 688.296875 907.609375 C 688.296875 908.859375 690.421875 909.109375 696.671875 908.859375 C 701.421875 908.609375 705.546875 907.984375 706.046875 907.609375 C 706.921875 906.734375 711.421875 883.859375 712.421875 875.359375 L 713.046875 870.359375 L 672.046875 829.359375 L 662.421875 830.859375 C 651.421875 832.609375 612.421875 837.984375 602.046875 839.234375 C 598.296875 839.734375 593.171875 840.609375 590.796875 841.234375 C 587.421875 841.984375 581.171875 841.359375 565.796875 838.609375 C 532.796875 832.734375 505.296875 827.609375 503.171875 826.734375 C 502.046875 826.359375 497.546875 829.234375 490.671875 835.109375 Z M 490.671875 835.109375 "/>
<path fill-rule="nonzero" fill="rgb(0%, 0%, 0%)" fill-opacity="1" d="M 495.546875 872.984375 C 495.171875 873.359375 496.796875 878.859375 499.171875 885.234375 C 501.546875 891.609375 504.296875 899.109375 505.421875 902.109375 C 506.421875 905.109375 508.171875 907.859375 509.171875 908.234375 C 510.171875 908.609375 515.671875 907.109375 521.421875 904.859375 L 531.921875 900.859375 L 538.546875 905.609375 C 542.171875 908.234375 546.796875 911.734375 548.796875 913.359375 L 552.546875 916.359375 L 585.046875 915.859375 L 617.671875 915.484375 L 625.546875 909.859375 C 629.796875 906.734375 636.171875 902.484375 639.671875 900.359375 L 646.046875 896.359375 L 653.671875 899.484375 C 657.921875 901.109375 662.171875 902.859375 662.921875 903.234375 C 663.796875 903.609375 665.046875 902.484375 665.671875 900.859375 C 666.296875 899.359375 668.421875 893.734375 670.546875 888.609375 C 672.546875 883.484375 674.546875 877.609375 675.046875 875.609375 C 676.046875 871.484375 678.171875 871.359375 655.171875 877.359375 C 646.921875 879.484375 638.046875 881.859375 635.296875 882.484375 C 628.296875 884.234375 625.796875 885.734375 619.671875 892.234375 C 616.671875 895.359375 611.171875 901.234375 607.421875 905.109375 L 600.671875 912.359375 L 566.421875 912.359375 L 560.171875 903.109375 C 555.296875 895.984375 552.921875 893.609375 548.921875 892.109375 C 501.296875 873.734375 496.546875 872.109375 495.546875 872.984375 Z M 495.546875 872.984375 "/>
</svg>
