<?xml version="1.0" encoding="UTF-8" standalone="no"?>
<svg
   width="275.93103"
   height="312.249542"
   viewBox="0 0 275.93103 312.249542"
   version="1.1"
   id="svg33"
   sodipodi:docname="tongue.svg"
   inkscape:version="1.2.2 (b0a8486541, 2022-12-01)"
   xmlns:inkscape="http://www.inkscape.org/namespaces/inkscape"
   xmlns:sodipodi="http://sodipodi.sourceforge.net/DTD/sodipodi-0.dtd"
   xmlns:xlink="http://www.w3.org/1999/xlink"
   xmlns="http://www.w3.org/2000/svg"
   xmlns:svg="http://www.w3.org/2000/svg">
  <sodipodi:namedview
     id="namedview35"
     pagecolor="#ffffff"
     bordercolor="#000000"
     borderopacity="0.25"
     inkscape:showpageshadow="2"
     inkscape:pageopacity="0.0"
     inkscape:pagecheckerboard="0"
     inkscape:deskcolor="#d1d1d1"
     showgrid="false"
     inkscape:zoom="1.6301065"
     inkscape:cx="138.94798"
     inkscape:cy="157.35168"
     inkscape:window-width="1366"
     inkscape:window-height="681"
     inkscape:window-x="0"
     inkscape:window-y="30"
     inkscape:window-maximized="1"
     inkscape:current-layer="svg33" />
  <defs
     id="defs21">
    <filter
       id="filter-remove-color"
       x="0"
       y="0"
       width="1"
       height="1">
      <feColorMatrix
         color-interpolation-filters="sRGB"
         values="0 0 0 0 1 0 0 0 0 1 0 0 0 0 1 0 0 0 1 0"
         id="feColorMatrix2" />
    </filter>
    <mask
       id="mask-0">
      <g
         filter="url(#filter-remove-color)"
         id="g7">
        <rect
           x="-27.593103"
           y="-31.224954"
           width="331.117236"
           height="374.699451"
           fill="rgb(0%, 0%, 0%)"
           fill-opacity="0.5"
           id="rect5" />
      </g>
    </mask>
    <clipPath
       id="clip-0">
      <path
         clip-rule="nonzero"
         d="M 0 0 L 276 0 L 276 313 L 0 313 Z M 0 0 "
         id="path10" />
    </clipPath>
    <clipPath
       id="clip-1">
      <rect
         x="0"
         y="0"
         width="276"
         height="313"
         id="rect13" />
    </clipPath>
    <g
       id="source-178"
       clip-path="url(#clip-1)">
      <g
         clip-path="url(#clip-0)"
         id="g18">
        <path
           fill-rule="nonzero"
           fill="rgb(0%, 0%, 0%)"
           fill-opacity="1"
           d="M 112.414062 1.144531 C 96.789062 4.144531 78.289062 18.019531 69.039062 33.519531 C 47.914062 68.894531 38.289062 80.019531 21.414062 88.894531 C 14.539062 92.519531 11.789062 94.769531 10.289062 97.894531 C 7.789062 103.144531 9.039062 106.519531 17.039062 116.894531 C 22.914062 124.394531 31.164062 139.644531 31.164062 142.769531 C 31.164062 143.894531 28.664062 148.519531 25.664062 153.144531 C 5.164062 185.019531 -4.460938 223.894531 1.914062 249.644531 C 4.664062 260.769531 12.414062 275.269531 20.289062 284.519531 C 37.664062 304.519531 54.414062 312.144531 80.539062 312.269531 C 100.539062 312.269531 115.289062 306.519531 129.664062 292.894531 C 134.414062 288.519531 140.664062 281.519531 143.664062 277.519531 C 147.914062 271.644531 150.039062 269.769531 154.164062 268.519531 C 165.164062 265.269531 178.414062 257.144531 185.789062 249.269531 C 195.039062 239.269531 199.664062 231.519531 208.914062 210.144531 C 231.039062 159.269531 241.914062 142.519531 265.039062 124.019531 C 270.914062 119.394531 273.914062 116.019531 274.914062 112.894531 C 277.414062 105.519531 275.914062 103.019531 264.914062 95.894531 C 246.914062 84.394531 236.289062 68.894531 228.539062 42.394531 C 221.539062 18.269531 214.789062 9.144531 201.289062 5.144531 C 187.914062 1.269531 171.289062 5.519531 156.164062 16.644531 L 150.164062 21.019531 L 146.914062 15.394531 C 142.789062 8.519531 136.914062 3.894531 129.164062 1.519531 C 122.664062 -0.480469 120.664062 -0.480469 112.414062 1.144531 Z M 127.789062 14.019531 C 132.789062 16.144531 136.914062 20.644531 138.039062 25.019531 C 138.789062 27.894531 138.164062 29.269531 134.539062 32.894531 C 129.414062 38.019531 127.289062 38.269531 118.914062 34.394531 C 113.289062 31.769531 111.789062 31.519531 106.164062 32.769531 C 101.164062 33.769531 99.539062 33.644531 98.789062 32.394531 C 95.039062 26.394531 110.164062 12.269531 120.289062 12.269531 C 122.164062 12.269531 125.539062 13.019531 127.789062 14.019531 Z M 201.914062 20.019531 C 207.039062 24.019531 208.539062 26.144531 208.664062 29.519531 C 208.664062 34.144531 206.539062 36.894531 201.914062 38.519531 C 197.539062 39.894531 195.164062 39.269531 188.414062 34.519531 C 186.789062 33.269531 185.039062 33.269531 180.914062 34.394531 C 176.539062 35.644531 175.039062 35.519531 172.789062 34.019531 C 168.914062 31.644531 169.164062 28.394531 173.414062 24.519531 C 178.914062 19.394531 183.789062 17.394531 191.289062 17.269531 C 196.664062 17.269531 199.164062 17.894531 201.914062 20.019531 Z M 109.414062 65.894531 C 112.164062 67.144531 117.164062 70.269531 120.289062 72.644531 C 129.414062 79.644531 132.664062 79.644531 149.039062 73.644531 C 167.039062 67.144531 170.539062 66.519531 179.289062 69.144531 C 187.539062 71.519531 194.914062 77.769531 203.289062 89.394531 C 206.414062 93.769531 209.789062 97.769531 210.914062 98.519531 C 212.789062 99.644531 212.789062 100.019531 210.289062 102.144531 C 203.289062 108.019531 191.914062 105.769531 187.039062 97.519531 L 184.414062 93.144531 L 181.914062 96.269531 C 171.289062 109.144531 144.789062 108.144531 140.539062 94.769531 C 139.664062 92.019531 138.039062 91.519531 136.789062 93.519531 C 136.289062 94.269531 133.664062 96.019531 130.789062 97.519531 C 124.789062 100.519531 111.039062 101.144531 106.039062 98.519531 C 102.789062 96.769531 97.539062 91.144531 97.414062 89.144531 C 97.289062 85.644531 95.414062 84.769531 91.289062 86.144531 C 83.914062 88.769531 73.414062 83.519531 72.164062 76.769531 C 71.789062 74.019531 76.039062 71.144531 87.289062 66.519531 C 95.789062 63.019531 102.539062 62.769531 109.414062 65.894531 Z M 92.414062 126.769531 C 92.414062 128.019531 90.539062 131.144531 88.289062 134.019531 C 69.539062 157.144531 54.414062 187.269531 47.914062 214.394531 C 44.539062 228.644531 42.539062 232.269531 37.914062 232.269531 C 24.539062 232.269531 28.914062 199.144531 46.414062 169.144531 C 56.664062 151.644531 73.039062 134.019531 84.664062 127.894531 C 91.664062 124.269531 92.414062 124.144531 92.414062 126.769531 Z M 175.039062 146.144531 C 163.414062 162.144531 151.289062 185.269531 147.414062 198.769531 C 132.539062 250.519531 124.414062 267.269531 114.039062 267.269531 C 108.414062 267.269531 103.664062 262.519531 103.664062 257.019531 C 103.664062 254.769531 105.289062 250.019531 107.164062 246.519531 C 117.164062 227.769531 121.539062 218.894531 125.039062 210.144531 C 131.789062 193.019531 145.789062 165.144531 152.539062 155.394531 C 159.664062 145.019531 172.039062 132.894531 177.914062 130.269531 C 181.164062 129.019531 182.039062 129.019531 183.539062 130.394531 C 184.914062 131.769531 183.539062 134.269531 175.039062 146.144531 Z M 175.039062 146.144531 "
           id="path16" />
      </g>
    </g>
  </defs>
  <path
     fill-rule="nonzero"
     fill="rgb(0%, 0%, 0%)"
     fill-opacity="1"
     d="M 112.414062 1.144531 C 96.789062 4.144531 78.289062 18.019531 69.039062 33.519531 C 47.914062 68.894531 38.289062 80.019531 21.414062 88.894531 C 14.539062 92.519531 11.789062 94.769531 10.289062 97.894531 C 7.789062 103.144531 9.039062 106.519531 17.039062 116.894531 C 22.914062 124.394531 31.164062 139.644531 31.164062 142.769531 C 31.164062 143.894531 28.664062 148.519531 25.664062 153.144531 C 5.164062 185.019531 -4.460938 223.894531 1.914062 249.644531 C 4.664062 260.769531 12.414062 275.269531 20.289062 284.519531 C 37.664062 304.519531 54.414062 312.144531 80.539062 312.269531 C 100.539062 312.269531 115.289062 306.519531 129.664062 292.894531 C 134.414062 288.519531 140.664062 281.519531 143.664062 277.519531 C 147.914062 271.644531 150.039062 269.769531 154.164062 268.519531 C 165.164062 265.269531 178.414062 257.144531 185.789062 249.269531 C 195.039062 239.269531 199.664062 231.519531 208.914062 210.144531 C 231.039062 159.269531 241.914062 142.519531 265.039062 124.019531 C 270.914062 119.394531 273.914062 116.019531 274.914062 112.894531 C 277.414062 105.519531 275.914062 103.019531 264.914062 95.894531 C 246.914062 84.394531 236.289062 68.894531 228.539062 42.394531 C 221.539062 18.269531 214.789062 9.144531 201.289062 5.144531 C 187.914062 1.269531 171.289062 5.519531 156.164062 16.644531 L 150.164062 21.019531 L 146.914062 15.394531 C 142.789062 8.519531 136.914062 3.894531 129.164062 1.519531 C 122.664062 -0.480469 120.664062 -0.480469 112.414062 1.144531 Z M 132.539062 7.269531 C 138.164062 10.144531 144.289062 18.019531 146.414062 25.019531 C 147.164062 27.644531 147.914062 29.769531 147.914062 29.769531 C 148.039062 29.769531 151.164062 27.019531 154.789062 23.519531 C 164.539062 14.269531 175.289062 9.519531 187.289062 8.769531 C 199.039062 8.144531 204.664062 9.769531 211.164062 15.519531 C 216.289062 20.144531 218.914062 26.019531 224.164062 44.769531 C 231.539062 70.894531 242.414062 87.144531 260.539062 99.144531 C 273.164062 107.644531 273.664062 109.269531 265.289062 116.519531 C 253.164062 127.269531 238.664062 142.769531 232.414062 151.769531 C 225.664062 161.519531 215.039062 182.894531 203.539062 209.644531 C 192.039062 236.769531 181.039062 250.394531 163.664062 259.144531 C 158.664062 261.644531 154.414062 263.394531 154.039062 263.144531 C 153.789062 262.769531 154.414062 260.769531 155.414062 258.644531 C 156.539062 256.519531 160.789062 245.144531 164.789062 233.269531 C 185.414062 172.644531 197.039062 153.269531 230.289062 123.519531 L 242.164062 113.019531 L 233.164062 109.644531 C 228.039062 107.769531 221.414062 104.894531 218.414062 103.019531 C 213.789062 100.394531 212.539062 100.019531 211.414062 101.394531 C 210.289062 102.644531 211.414062 103.894531 216.539062 107.019531 C 222.289062 110.394531 224.539062 111.519531 232.289062 114.144531 C 233.289062 114.519531 227.664062 121.269531 216.664062 132.644531 C 207.164062 142.394531 195.914062 155.144531 191.539062 161.019531 C 180.789062 175.519531 170.289062 197.394531 161.789062 223.519531 C 157.789062 235.519531 153.164062 248.144531 151.414062 251.644531 C 141.664062 271.144531 122.414062 292.894531 109.289062 299.144531 C 105.164062 301.144531 100.789062 303.519531 99.539062 304.519531 C 98.039062 305.894531 93.414062 306.644531 83.914062 307.019531 C 60.664062 307.894531 45.039062 302.269531 30.289062 287.519531 C 3.664062 260.894531 -1.460938 233.769531 12.414062 192.019531 C 16.914062 178.644531 21.789062 168.644531 30.789062 155.019531 C 35.789062 147.144531 37.289062 143.894531 36.664062 141.894531 C 34.789062 135.894531 26.039062 119.894531 21.539062 114.019531 C 11.414062 101.394531 11.664062 99.769531 24.914062 92.769531 C 43.039062 83.269531 59.414062 63.519531 75.039062 32.144531 C 77.664062 26.769531 87.914062 17.269531 96.039062 12.519531 C 109.539062 4.644531 123.414062 2.644531 132.539062 7.269531 Z M 132.539062 7.269531 "
     id="path23" />
  <path
     fill-rule="nonzero"
     fill="rgb(0%, 0%, 0%)"
     fill-opacity="1"
     d="M 61.789062 81.144531 C 52.414062 87.894531 40.539062 99.019531 38.539062 102.519531 C 37.664062 104.144531 38.789062 106.769531 43.039062 113.394531 C 46.164062 118.144531 49.164062 123.519531 49.914062 125.269531 L 51.164062 128.519531 L 61.039062 120.519531 C 70.664062 112.644531 81.539062 105.894531 94.539062 99.269531 L 101.039062 96.019531 L 98.289062 90.644531 C 95.914062 85.769531 95.164062 85.269531 92.664062 86.269531 C 85.164062 88.894531 76.039062 85.644531 72.664062 78.894531 L 70.414062 74.644531 Z M 61.789062 81.144531 "
     id="path25" />
  <path
     fill-rule="nonzero"
     fill="rgb(0%, 0%, 0%)"
     fill-opacity="1"
     d="M 132.664062 96.394531 C 127.789062 100.019531 126.289062 100.394531 118.539062 100.394531 C 113.789062 100.394531 109.914062 100.644531 109.914062 101.019531 C 109.914062 102.894531 114.164062 107.519531 117.414062 109.144531 L 121.039062 111.019531 L 114.664062 117.019531 C 89.914062 140.019531 67.039062 185.519531 67.539062 211.269531 L 67.664062 219.144531 L 69.539062 211.019531 C 75.664062 183.019531 92.039062 150.644531 109.164062 132.519531 C 112.664062 128.894531 119.039062 123.894531 123.414062 121.394531 C 130.539062 117.394531 132.539062 116.894531 145.164062 115.894531 C 160.539062 114.769531 167.664062 112.144531 177.039062 104.144531 C 181.664062 100.269531 182.664062 99.894531 185.039062 101.019531 C 188.789062 103.144531 189.289062 101.769531 186.539062 97.269531 L 184.164062 93.519531 L 181.414062 97.144531 C 177.539062 102.394531 166.164062 106.519531 157.914062 105.644531 C 149.289062 104.769531 144.039062 101.894531 141.539062 96.644531 C 140.414062 94.269531 139.164062 92.269531 138.789062 92.394531 C 138.414062 92.394531 135.664062 94.269531 132.664062 96.394531 Z M 132.664062 96.394531 "
     id="path27" />
  <g
     mask="url(#mask-0)"
     id="g31">
    <use
       xlink:href="#source-178"
       id="use29" />
  </g>
  <path
     style="fill:#ff0000;stroke-width:0.613457"
     d="M 70.375918,306.37716 C 52.35225,304.63551 37.642755,296.35971 24.300632,280.45447 3.1691194,255.26344 -9.5104217e-4,230.59921 12.914567,191.86702 c 3.622574,-10.86369 9.022789,-22.05056 16.210921,-33.5819 6.878998,-11.03542 8.242898,-13.92508 7.745764,-16.41074 C 35.891531,136.97576 26.348218,119.88775 19.015449,109.90221 12.576003,101.13319 13.063914,99.79772 25.213078,92.938714 32.865651,88.618328 37.96325,84.74682 44.140314,78.563905 53.472616,69.222761 62.334931,56.573751 71.846368,39.019594 76.317371,30.767981 78.066422,28.175334 81.589763,24.576826 98.581696,7.2223749 121.88679,0.32223631 134.40944,8.9380488 c 5.04197,3.4689692 9.58555,9.9281982 11.94449,16.9805032 0.70536,2.108758 1.48866,3.834106 1.74066,3.834106 0.252,0 3.05906,-2.368274 6.23792,-5.262832 9.43342,-8.589762 17.49907,-12.897753 27.55745,-14.718875 17.19762,-3.1137207 28.96687,1.81542 34.98179,14.6509 1.3106,2.796759 4.04494,10.592416 6.07631,17.323684 4.44115,14.71647 6.50327,20.167455 10.58178,27.971874 6.04907,11.575146 15.00131,21.602607 26.04089,29.168573 2.99345,2.051558 6.65038,4.803178 8.12651,6.114718 4.51663,4.01301 4.59053,3.88211 -10.77826,19.0913 -14.54325,14.39223 -21.08608,21.86058 -26.71956,30.49913 -4.06257,6.22968 -17.23254,32.57011 -23.46429,46.92945 -14.40668,33.19617 -22.31905,44.46634 -38.19017,54.39703 -4.20465,2.63089 -13.67386,7.12638 -14.10426,6.69598 -0.10937,-0.10937 1.02233,-3.20288 2.51488,-6.87447 1.49255,-3.6716 5.23475,-13.92487 8.31598,-22.78504 10.33908,-29.73029 14.96602,-41.25096 22.35621,-55.66505 10.80716,-21.07867 21.88911,-34.70344 45.02579,-55.35728 5.49861,-4.90854 9.92196,-8.99984 9.82968,-9.0918 -0.0923,-0.0919 -2.92834,-1.18255 -6.30235,-2.42356 -3.37401,-1.24101 -9.9917,-4.09386 -14.70598,-6.33965 -9.62884,-4.587018 -10.80896,-5.578726 -17.99903,-15.125495 -9.88652,-13.127038 -17.45856,-18.812863 -27.86877,-20.926603 -4.32181,-0.877519 -5.17948,-0.877114 -9.5305,0.0043 -2.62971,0.532848 -9.96311,2.766187 -16.29645,4.96297 -11.80874,4.095996 -16.41153,5.081036 -20.3178,4.348219 -1.26023,-0.23642 -5.1887,-2.436099 -9.03225,-5.057449 -15.30881,-10.44082 -21.654114,-11.194569 -37.12419,-4.40992 -6.435953,2.822588 -10.606558,5.591279 -11.065393,7.345851 -0.291662,1.115326 -0.356002,1.122105 -1.092377,0.115054 -0.711739,-0.97336 -1.522772,-0.507887 -8.973203,5.150013 -12.878214,9.779779 -24.479193,20.74922 -24.433877,23.10374 0.02555,1.32755 2.284943,5.63051 6.940524,13.21805 2.568272,4.18571 4.974273,8.53359 5.346667,9.66195 0.372394,1.12836 0.890201,2.05157 1.150682,2.05157 0.260481,0 4.121802,-2.90048 8.580714,-6.44553 12.442142,-9.89208 20.883554,-15.30412 34.559697,-22.157239 l 7.963586,-3.990556 1.40429,1.319264 c 0.77236,0.725597 2.44548,1.677209 3.71804,2.114696 1.65347,0.568435 2.3417,1.174915 2.41172,2.125285 0.12979,1.76179 5.35108,7.00584 8.29897,8.33516 l 2.34069,1.0555 -7.47231,7.44143 c -7.85393,7.82149 -14.141109,15.62686 -20.818109,25.84514 -10.819778,16.55829 -19.996951,37.33086 -23.443297,53.06402 -1.06474,4.86071 -2.050571,22.7204 -1.210178,21.92394 0.271154,-0.25699 1.655438,-5.08796 3.076179,-10.7355 3.387889,-13.46709 7.19299,-23.87579 13.39699,-36.6469 12.384289,-25.49343 24.948865,-41.343 39.642015,-50.0064 5.7226,-3.37416 8.71246,-4.21578 18.53622,-5.21775 19.8501,-2.02461 23.57875,-3.2836 34.57658,-11.67492 2.85106,-2.17536 5.48903,-3.9552 5.86214,-3.9552 0.37311,0 1.76731,0.32626 3.09823,0.72501 1.85933,0.55707 2.5235,0.55731 2.8673,10e-4 0.31761,-0.51391 1.06012,-0.27159 2.55897,0.83516 4.74948,3.507 12.42984,4.16471 17.04041,1.45928 l 2.04628,-1.20073 1.83656,1.54535 c 2.8961,2.43691 9.94747,6.3629 14.4704,8.05667 5.13251,1.92206 5.48958,2.25846 4.28445,4.03652 -1.25154,1.84655 -8.51961,9.88008 -19.01543,21.01811 -18.98063,20.14199 -24.86228,28.12252 -33.92672,46.03355 -6.33802,12.52372 -9.768,20.96146 -17.44147,42.90595 -2.95645,8.45485 -6.11225,17.30484 -7.01286,19.66665 -4.48354,11.7578 -15.64267,27.93136 -27.3154,39.58974 -8.32535,8.3151 -11.02399,10.16282 -28.253623,19.34482 -1.523023,0.81164 -14.998959,2.1824 -19.866678,2.02081 -1.384958,-0.046 -4.803778,-0.30446 -7.597381,-0.57441 z M 116.98132,267.0527 c 8.31336,-2.49075 15.97431,-18.52804 27.76903,-58.1312 4.77826,-16.04399 6.22531,-19.8211 12.05165,-31.45743 5.48647,-10.95756 11.52037,-21.00303 19.72187,-32.83378 7.09789,-10.23876 8.36057,-12.65947 7.40164,-14.18988 -1.60179,-2.55641 -6.00998,-1.25231 -12.03788,3.56125 -8.55315,6.83009 -17.55159,17.313 -23.445,27.3127 -6.90754,11.72042 -17.2102,32.75876 -23.15805,47.28939 -2.99251,7.31072 -9.63255,21.1271 -16.05415,33.40498 -5.97987,11.43329 -6.89077,15.21184 -4.70131,19.5017 1.48264,2.90497 3.07395,4.32905 6.00587,5.37471 2.92745,1.04405 3.47347,1.05825 6.44633,0.16756 z M 40.431894,231.94973 c 2.86308,-1.19627 4.605663,-5.12421 8.047911,-18.14074 7.313643,-27.65584 18.645105,-50.89939 36.345949,-74.55428 3.534658,-4.72362 6.823241,-9.5178 7.307958,-10.65374 1.840763,-4.31382 -0.323065,-4.85292 -6.466774,-1.61114 -6.113128,3.22565 -11.309053,7.39318 -18.847757,15.11735 -14.74378,15.10651 -26.212418,33.80728 -32.46109,52.93107 -3.04467,9.31808 -4.218751,15.75248 -4.261101,23.35239 -0.0324,5.81495 0.1541,7.13707 1.348805,9.56157 1.260494,2.55801 2.432247,3.59063 5.054888,4.45465 1.465841,0.48292 1.764468,0.4482 3.931211,-0.45713 z M 204.22577,37.845811 c 4.25269,-2.483704 5.80493,-7.634257 3.66183,-12.150497 -1.54007,-3.24546 -7.25367,-7.440427 -11.26971,-8.274309 -4.21515,-0.875223 -10.5965,-0.32174 -14.86591,1.289389 -4.16627,1.572208 -9.84863,6.110891 -11.19015,8.937937 -1.37356,2.894545 -0.83508,4.757877 1.85551,6.420752 2.2657,1.400278 3.16422,1.418814 11.44537,0.236107 2.56088,-0.365743 3.22981,-0.19702 5.82784,1.469934 6.32111,4.055769 10.19207,4.607225 14.53522,2.070687 z m -73.35632,-1.598289 c 0.92172,-0.476639 2.97843,-2.259174 4.57046,-3.961188 2.37923,-2.543586 2.89461,-3.501666 2.89461,-5.380996 0,-7.509199 -8.80164,-14.620032 -18.09698,-14.620527 -3.81663,-2.04e-4 -4.79512,0.266514 -8.79847,2.398302 -8.3302,4.43584 -14.718014,12.557939 -13.216179,16.804371 0.632228,1.787638 0.482796,1.77112 11.892619,1.314548 3.42294,-0.136972 4.72569,0.155388 9.20185,2.065048 5.58036,2.380746 8.85988,2.77264 11.55209,1.380442 z"
     id="path279" />
  <path
     style="fill:#ffffff;stroke-width:0.613457"
     d="m 35.315867,231.13398 c -3.615726,-1.86825 -4.65264,-4.81935 -4.585342,-13.05007 0.20754,-25.38299 20.176367,-62.71358 44.331746,-82.8757 6.500726,-5.42605 15.538153,-10.49959 16.675987,-9.36175 0.992143,0.99214 -0.289644,3.20555 -7.348753,12.6899 -18.10188,24.32099 -29.173264,47.1398 -36.847522,75.94504 -2.629038,9.86807 -4.414049,14.62459 -6.037008,16.08684 -1.703487,1.5348 -3.921286,1.73753 -6.189108,0.56574 z"
     id="path265" />
  <path
     style="fill:#ffffff;stroke-width:0.613457"
     d="m 110.39685,266.02832 c -3.12818,-1.44738 -5.63235,-4.39205 -6.16937,-7.25461 -0.64151,-3.41952 0.81684,-7.08377 10.37521,-26.06873 4.81312,-9.5599 10.52536,-21.66049 12.69387,-26.89021 4.45523,-10.74453 15.23121,-32.80908 20.52278,-42.02179 5.01446,-8.73025 10.85182,-16.18658 18.54003,-23.68204 9.07166,-8.84424 14.66568,-11.96512 16.81177,-9.37924 1.03245,1.24403 0.14914,2.85533 -8.03525,14.65757 -10.61644,15.30935 -19.7773,31.68261 -24.78712,44.30218 -1.2346,3.10992 -4.04056,11.66764 -6.23546,19.01716 -8.69636,29.11936 -14.6498,44.22308 -20.53356,52.09314 -4.10116,5.48566 -8.69048,7.30517 -13.1829,5.22657 z"
     id="path267" />
  <path
     style="fill:#ffffff;stroke-width:0.613457"
     d="m 154.68345,104.56436 c -3.51192,-0.58928 -8.92636,-3.11547 -10.56988,-4.931542 -0.64003,-0.707218 -1.85707,-2.568276 -2.70455,-4.135683 -0.84747,-1.567406 -1.97211,-2.932547 -2.49919,-3.033646 -0.52708,-0.101099 -2.80837,1.056772 -5.06953,2.573047 -2.26116,1.516275 -5.14258,3.063743 -6.40315,3.438818 -3.52409,1.048567 -15.36814,1.469818 -18.3694,0.653334 C 104.2619,97.821271 98.455282,92.118935 97.600686,87.867571 97.116874,85.460745 95.1557,84.894696 90.804812,85.906093 c -3.737232,0.868748 -8.130977,0.454544 -10.918567,-1.029309 -4.048713,-2.155159 -7.191608,-5.784928 -7.191608,-8.305678 0,-1.922789 2.969006,-4.233422 9.201853,-7.161351 7.876478,-3.700038 11.222649,-4.773165 16.042816,-5.144976 6.369204,-0.491298 11.111384,1.244453 20.271494,7.419853 4.18224,2.819506 8.66656,5.477031 9.96517,5.90561 4.14034,1.366435 8.97381,0.479099 22.42999,-4.117731 6.91546,-2.362423 14.51805,-4.642153 16.89465,-5.066067 3.91086,-0.697579 4.80363,-0.64873 9.40373,0.514538 9.45623,2.391281 16.11294,7.622527 25.77523,20.255736 3.00182,3.924805 6.31341,7.944779 7.35911,8.933276 1.82395,1.7242 1.85779,1.845321 0.83241,2.979196 -1.56287,1.72823 -5.28749,3.47628 -8.28135,3.88663 -5.36881,0.73588 -12.16378,-2.64673 -15.03656,-7.485351 -3.13912,-5.287219 -2.70963,-5.197455 -6.2634,-1.309063 -6.28361,6.875274 -16.468,10.084104 -26.60633,8.382954 z"
     id="path269" />
  <path
     style="fill:#ffffff;stroke-width:0.613457"
     d="m 119.62409,34.267571 c -5.30874,-2.380794 -7.86716,-2.681271 -15.16834,-1.781467 -6.40927,0.789884 -7.507748,-0.997652 -4.1793,-6.800905 2.29129,-3.994924 7.18208,-8.309987 12.27998,-10.834429 7.06321,-3.497645 14.21895,-2.442539 20.22313,2.981878 5.18739,4.686499 6.25227,9.342708 2.98818,13.065937 -5.56045,6.342604 -8.25784,6.905516 -16.14365,3.368986 z"
     id="path271" />
  <path
     style="fill:#ffffff;stroke-width:0.613457"
     d="m 194.92645,38.040152 c -1.09626,-0.476484 -3.26774,-1.743242 -4.82551,-2.815018 -2.63566,-1.81338 -3.07229,-1.919285 -6.28847,-1.525288 -9.50653,1.164593 -9.10397,1.172199 -11.0432,-0.20865 -1.01694,-0.724124 -2.01755,-1.847731 -2.22359,-2.496904 -0.91355,-2.878316 4.03463,-8.076159 10.73082,-11.272255 3.63243,-1.733763 4.53368,-1.903792 10.12204,-1.909621 6.8681,-0.0072 7.98713,0.390685 12.64608,4.496063 3.40003,2.996033 4.4991,5.370553 4.04676,8.742968 -0.39654,2.956427 -2.25781,5.177723 -5.65062,6.743603 -2.92504,1.349995 -4.82934,1.41211 -7.51431,0.245102 z"
     id="path273" />
</svg>
