<?xml version="1.0" encoding="utf-8"?>

<!DOCTYPE svg PUBLIC "-//W3C//DTD SVG 1.0//EN" "http://www.w3.org/TR/2001/REC-SVG-20010904/DTD/svg10.dtd">
<!-- Uploaded to: SVG Repo, www.svgrepo.com, Generator: SVG Repo Mixer Tools -->
<svg version="1.0" id="Layer_1" xmlns="http://www.w3.org/2000/svg" xmlns:xlink="http://www.w3.org/1999/xlink" 
	 width="800px" height="800px" viewBox="0 0 64 64" enable-background="new 0 0 64 64" xml:space="preserve">
<g>
	
		<rect x="14.002" y="18.858" transform="matrix(-0.7071 -0.7071 0.7071 -0.7071 32 77.2548)" fill="#F76D57" width="35.996" height="26.284"/>
	<g>
		<path fill="#F9EBB2" d="M7.273,31.273C3.873,34.671,2,39.19,2,44c0,9.926,8.075,18,18,18c4.81,0,9.329-1.873,12.726-5.272
			l1.294-1.294L8.566,29.98L7.273,31.273z"/>
		<path fill="#F9EBB2" d="M44,2c-4.81,0-9.329,1.873-12.726,5.272L29.98,8.566L55.434,34.02l1.293-1.293
			C60.127,29.329,62,24.81,62,20C62,10.074,53.925,2,44,2z"/>
	</g>
	<g>
		<path fill="#394240" d="M44,0c-5.523,0-10.523,2.238-14.141,5.859l-24,24C2.238,33.477,0,38.477,0,44c0,11.047,8.953,20,20,20
			c5.523,0,10.523-2.238,14.141-5.859l24-24C61.762,30.523,64,25.523,64,20C64,8.953,55.047,0,44,0z M32.726,56.728
			C29.329,60.127,24.81,62,20,62c-9.925,0-18-8.074-18-18c0-4.81,1.873-9.329,5.273-12.727l1.293-1.293L34.02,55.434L32.726,56.728z
			 M35.434,54.02L9.98,28.566L28.566,9.98L54.02,35.434L35.434,54.02z M56.727,32.727l-1.293,1.293L29.98,8.566l1.294-1.294
			C34.671,3.873,39.19,2,44,2c9.925,0,18,8.074,18,18C62,24.81,60.127,29.329,56.727,32.727z"/>
		<path fill="#394240" d="M29,32c0,1.656,1.344,3,3,3s3-1.344,3-3s-1.344-3-3-3S29,30.344,29,32z M33,32c0,0.553-0.447,1-1,1
			s-1-0.447-1-1s0.447-1,1-1S33,31.447,33,32z"/>
		<path fill="#394240" d="M27,21c0,1.656,1.344,3,3,3s3-1.344,3-3s-1.344-3-3-3S27,19.344,27,21z M30,20c0.553,0,1,0.447,1,1
			s-0.447,1-1,1s-1-0.447-1-1S29.447,20,30,20z"/>
		<path fill="#394240" d="M31,43c0,1.656,1.344,3,3,3s3-1.344,3-3s-1.344-3-3-3S31,41.344,31,43z M35,43c0,0.553-0.447,1-1,1
			s-1-0.447-1-1s0.447-1,1-1S35,42.447,35,43z"/>
		<path fill="#394240" d="M43,37c1.656,0,3-1.344,3-3s-1.344-3-3-3s-3,1.344-3,3S41.344,37,43,37z M43,33c0.553,0,1,0.447,1,1
			s-0.447,1-1,1s-1-0.447-1-1S42.447,33,43,33z"/>
		<path fill="#394240" d="M21,27c-1.656,0-3,1.344-3,3s1.344,3,3,3s3-1.344,3-3S22.656,27,21,27z M21,31c-0.553,0-1-0.447-1-1
			s0.447-1,1-1s1,0.447,1,1S21.553,31,21,31z"/>
	</g>
	<g>
		<circle fill="#506C7F" cx="43" cy="34" r="1"/>
		<circle fill="#506C7F" cx="32" cy="32" r="1"/>
		<circle fill="#506C7F" cx="34" cy="43" r="1"/>
		<circle fill="#506C7F" cx="30" cy="21" r="1"/>
		<circle fill="#506C7F" cx="21" cy="30" r="1"/>
	</g>
</g>
</svg>