<?xml version="1.0" encoding="utf-8"?>

<!DOCTYPE svg PUBLIC "-//W3C//DTD SVG 1.0//EN" "http://www.w3.org/TR/2001/REC-SVG-20010904/DTD/svg10.dtd">
<!-- Uploaded to: SVG Repo, www.svgrepo.com, Generator: SVG Repo Mixer Tools -->
<svg version="1.0" id="Layer_1" xmlns="http://www.w3.org/2000/svg" xmlns:xlink="http://www.w3.org/1999/xlink" 
	 width="800px" height="800px" viewBox="0 0 64 64" enable-background="new 0 0 64 64" xml:space="preserve">
<g>
	<g>
		<path fill="#F9EBB2" d="M54,14H4c-1.104,0-2,0.896-2,2v32c0,1.104,0.896,2,2,2h50c1.104,0,2-0.896,2-2V16
			C56,14.896,55.104,14,54,14z"/>
		<path fill="#F9EBB2" d="M60,24h-2v16h2c1.104,0,2-0.896,2-2V26C62,24.896,61.104,24,60,24z"/>
	</g>
	<polygon fill="#45AAB8" points="40.178,44 8,44 8,20 45.717,20 	"/>
	<path fill="#394240" d="M47.122,18H7c-0.553,0-1,0.447-1,1v26c0,0.553,0.447,1,1,1h33.872c0.553,0,0.929-0.404,1.128-1
		l5.968-25.859C48.165,18.434,47.675,18,47.122,18z M40.178,44H8V20h37.717L40.178,44z"/>
	<path fill="#394240" d="M60,22h-2v-6c0-2.211-1.789-4-4-4H4c-2.211,0-4,1.789-4,4v32c0,2.211,1.789,4,4,4h50c2.211,0,4-1.789,4-4
		v-6h2c2.211,0,4-1.789,4-4V26C64,23.789,62.211,22,60,22z M56,48c0,1.104-0.896,2-2,2H4c-1.104,0-2-0.896-2-2V16
		c0-1.104,0.896-2,2-2h50c1.104,0,2,0.896,2,2V48z M62,38c0,1.104-0.896,2-2,2h-2V24h2c1.104,0,2,0.896,2,2V38z"/>
	<path fill="#394240" d="M15,33h2v2c0,0.553,0.447,1,1,1s1-0.447,1-1v-2h2c0.553,0,1-0.447,1-1s-0.447-1-1-1h-2v-2
		c0-0.553-0.447-1-1-1s-1,0.447-1,1v2h-2c-0.553,0-1,0.447-1,1S14.447,33,15,33z"/>
	<path fill="#394240" d="M31,33h6c0.553,0,1-0.447,1-1s-0.447-1-1-1h-6c-0.553,0-1,0.447-1,1S30.447,33,31,33z"/>
	<path opacity="0.15" fill="#231F20" d="M62,38c0,1.104-0.896,2-2,2h-2V24h2c1.104,0,2,0.896,2,2V38z"/>
</g>
</svg>