<?xml version="1.0" encoding="utf-8"?>

<!DOCTYPE svg PUBLIC "-//W3C//DTD SVG 1.0//EN" "http://www.w3.org/TR/2001/REC-SVG-20010904/DTD/svg10.dtd">
<!-- Uploaded to: SVG Repo, www.svgrepo.com, Generator: SVG Repo Mixer Tools -->
<svg version="1.0" id="Layer_1" xmlns="http://www.w3.org/2000/svg" xmlns:xlink="http://www.w3.org/1999/xlink" 
	 width="800px" height="800px" viewBox="0 0 64 64" enable-background="new 0 0 64 64" xml:space="preserve">
<g>
	<polygon fill="#45AAB8" points="58,50.586 46.586,61.998 17.414,61.998 6,50.586 6,15.998 58,15.998 	"/>
	<g>
		<path fill="#F9EBB2" d="M6,59.998c0,1.105,0.896,2,2,2h6.586L6,53.412V59.998z"/>
		<path fill="#F9EBB2" d="M49.414,61.998H56c1.104,0,2-0.895,2-2v-6.586L49.414,61.998z"/>
	</g>
	<path fill="#F76D57" d="M62,11.998c0,1.105-0.896,2-2,2H4c-1.104,0-2-0.895-2-2v-8c0-1.104,0.896-2,2-2h56c1.104,0,2,0.896,2,2
		V11.998z"/>
	<path fill="#394240" d="M60-0.002H4c-2.211,0-4,1.789-4,4v8c0,2.211,1.789,4,4,4v44c0,2.211,1.789,4,4,4h48c2.211,0,4-1.789,4-4
		v-44c2.211,0,4-1.789,4-4v-8C64,1.787,62.211-0.002,60-0.002z M58,50.586L46.586,61.998H17.414L6,50.586V15.998h52V50.586z
		 M6,59.998v-6.586l8.586,8.586H8C6.896,61.998,6,61.104,6,59.998z M56,61.998h-6.586L58,53.412v6.586
		C58,61.104,57.104,61.998,56,61.998z M62,11.998c0,1.105-0.896,2-2,2H4c-1.104,0-2-0.895-2-2v-8c0-1.104,0.896-2,2-2h56
		c1.104,0,2,0.896,2,2V11.998z"/>
	<path fill="#394240" d="M21,31.998h22c1.657,0,3-1.344,3-3s-1.343-3-3-3H21c-1.657,0-3,1.344-3,3S19.343,31.998,21,31.998z
		 M21,27.998h22c0.553,0,1,0.447,1,1s-0.447,1-1,1H21c-0.553,0-1-0.447-1-1S20.447,27.998,21,27.998z"/>
	<path fill="#506C7F" d="M21,27.998h22c0.553,0,1,0.447,1,1s-0.447,1-1,1H21c-0.553,0-1-0.447-1-1S20.447,27.998,21,27.998z"/>
</g>
</svg>