<?xml version="1.0" encoding="utf-8"?>

<!DOCTYPE svg PUBLIC "-//W3C//DTD SVG 1.0//EN" "http://www.w3.org/TR/2001/REC-SVG-20010904/DTD/svg10.dtd">
<!-- Uploaded to: SVG Repo, www.svgrepo.com, Generator: SVG Repo Mixer Tools -->
<svg version="1.0" id="Layer_1" xmlns="http://www.w3.org/2000/svg" xmlns:xlink="http://www.w3.org/1999/xlink" 
	 width="800px" height="800px" viewBox="0 0 64 64" enable-background="new 0 0 64 64" xml:space="preserve">
<g>
	<path fill="#B4CCB9" d="M18,4c0-1.104,0.896-2,2-2h24c1.104,0,2,0.896,2,2v9h-2V5c0-0.553-0.447-1-1-1H21c-0.553,0-1,0.447-1,1v8
		h-2V4z"/>
	<path fill="#394240" d="M60,13H48V4c0-2.211-1.789-4-4-4H20c-2.211,0-4,1.789-4,4v9H4c-2.211,0-4,1.789-4,4v43c0,2.211,1.789,4,4,4
		h56c2.211,0,4-1.789,4-4V17C64,14.789,62.211,13,60,13z M18,4c0-1.104,0.896-2,2-2h24c1.104,0,2,0.896,2,2v9h-2V5
		c0-0.553-0.447-1-1-1H21c-0.553,0-1,0.447-1,1v8h-2V4z M42,6v7H22V6H42z M62,60c0,1.104-0.896,2-2,2H4c-1.104,0-2-0.896-2-2V42h10
		v5c0,0.553,0.447,1,1,1h6c0.553,0,1-0.447,1-1v-5h24v5c0,0.553,0.447,1,1,1h6c0.553,0,1-0.447,1-1v-5h10V60z M14,46v-4v-2v-4h4v4v2
		v4H14z M46,46v-4v-2v-4h4v4v2v4H46z M62,40H52v-5c0-0.553-0.447-1-1-1h-6c-0.553,0-1,0.447-1,1v5H20v-5c0-0.553-0.447-1-1-1h-6
		c-0.553,0-1,0.447-1,1v5H2V17c0-1.104,0.896-2,2-2h56c1.104,0,2,0.896,2,2V40z"/>
	<g>
		<rect x="46" y="36" fill="#F9EBB2" width="4" height="10"/>
		<rect x="14" y="36" fill="#F9EBB2" width="4" height="10"/>
	</g>
	<g>
		<path fill="#45AAB8" d="M60,62c1.104,0,2-0.896,2-2V42H52v5c0,0.553-0.447,1-1,1h-6c-0.553,0-1-0.447-1-1v-5H20v5
			c0,0.553-0.447,1-1,1h-6c-0.553,0-1-0.447-1-1v-5H2v18c0,1.104,0.896,2,2,2H60z"/>
		<path fill="#45AAB8" d="M60,15H4c-1.104,0-2,0.896-2,2v23h10v-5c0-0.553,0.447-1,1-1h6c0.553,0,1,0.447,1,1v5h24v-5
			c0-0.553,0.447-1,1-1h6c0.553,0,1,0.447,1,1v5h10V17C62,15.896,61.104,15,60,15z"/>
	</g>
	<path opacity="0.2" d="M60,62c1.104,0,2-0.896,2-2V42H52v5c0,0.553-0.447,1-1,1h-6c-0.553,0-1-0.447-1-1v-5H20v5
		c0,0.553-0.447,1-1,1h-6c-0.553,0-1-0.447-1-1v-5H2v18c0,1.104,0.896,2,2,2H60z"/>
</g>
</svg>