<?xml version="1.0" encoding="utf-8"?>

<!DOCTYPE svg PUBLIC "-//W3C//DTD SVG 1.0//EN" "http://www.w3.org/TR/2001/REC-SVG-20010904/DTD/svg10.dtd">
<!-- Uploaded to: SVG Repo, www.svgrepo.com, Generator: SVG Repo Mixer Tools -->
<svg version="1.0" id="Layer_1" xmlns="http://www.w3.org/2000/svg" xmlns:xlink="http://www.w3.org/1999/xlink" 
	 width="800px" height="800px" viewBox="0 0 64 64" enable-background="new 0 0 64 64" xml:space="preserve">
<g>
	<g>
		<path fill-rule="evenodd" clip-rule="evenodd" fill="#F9EBB2" d="M50,12H4c-1.105,0-2,0.895-2,2v30c0,1.105,0.895,2,2,2h8
			c1.105,0,2,0.895,2,2c0,0,0,11,0,12c0,1.391,1.859,3.141,4,1c2-2,14-14,14-14s0.709-1,2.656-1C35.313,46,50,46,50,46
			c1.105,0,2-0.895,2-2V14C52,12.895,51.105,12,50,12z"/>
		<path fill-rule="evenodd" clip-rule="evenodd" fill="#F9EBB2" d="M60,2H16c-1.105,0-2,0.895-2,2v6h36c2.211,0,4,1.789,4,4v20h6
			c1.105,0,2-0.895,2-2V4C62,2.895,61.105,2,60,2z"/>
	</g>
	<g>
		<path fill="#394240" d="M60,0H16c-2.211,0-4,1.789-4,4v6H4c-2.211,0-4,1.789-4,4v30c0,2.211,1.789,4,4,4h7c0.553,0,1,0.447,1,1v11
			c0,1.617,0.973,3.078,2.469,3.695C14.965,63.902,15.484,64,16,64c1.039,0,2.062-0.406,2.828-1.172l14.156-14.156
			c0,0,0.516-0.672,1.672-0.672S50,48,50,48c2.211,0,4-1.789,4-4v-8h6c2.211,0,4-1.789,4-4V4C64,1.789,62.211,0,60,0z M52,44
			c0,1.105-0.895,2-2,2c0,0-14.687,0-15.344,0C32.709,46,32,47,32,47S20,59,18,61c-2.141,2.141-4,0.391-4-1c0-1,0-12,0-12
			c0-1.105-0.895-2-2-2H4c-1.105,0-2-0.895-2-2V14c0-1.105,0.895-2,2-2h46c1.105,0,2,0.895,2,2V44z M62,32c0,1.105-0.895,2-2,2h-6
			V14c0-2.211-1.789-4-4-4H14V4c0-1.105,0.895-2,2-2h44c1.105,0,2,0.895,2,2V32z"/>
		<path fill="#394240" d="M13,24h13c0.553,0,1-0.447,1-1s-0.447-1-1-1H13c-0.553,0-1,0.447-1,1S12.447,24,13,24z"/>
		<path fill="#394240" d="M41,28H13c-0.553,0-1,0.447-1,1s0.447,1,1,1h28c0.553,0,1-0.447,1-1S41.553,28,41,28z"/>
		<path fill="#394240" d="M34,34H13c-0.553,0-1,0.447-1,1s0.447,1,1,1h21c0.553,0,1-0.447,1-1S34.553,34,34,34z"/>
	</g>
	<path opacity="0.15" fill-rule="evenodd" clip-rule="evenodd" fill="#231F20" d="M62,32c0,1.105-0.895,2-2,2h-6V14
		c0-2.211-1.789-4-4-4H14V4c0-1.105,0.895-2,2-2h44c1.105,0,2,0.895,2,2V32z"/>
</g>
</svg>