<?xml version="1.0" encoding="utf-8"?>

<!DOCTYPE svg PUBLIC "-//W3C//DTD SVG 1.0//EN" "http://www.w3.org/TR/2001/REC-SVG-20010904/DTD/svg10.dtd">
<!-- Uploaded to: SVG Repo, www.svgrepo.com, Generator: SVG Repo Mixer Tools -->
<svg version="1.0" id="Layer_1" xmlns="http://www.w3.org/2000/svg" xmlns:xlink="http://www.w3.org/1999/xlink" 
	 width="800px" height="800px" viewBox="0 0 64 64" enable-background="new 0 0 64 64" xml:space="preserve">
<g>
	<path fill="#394240" d="M32,0C14.327,0,0,14.327,0,32s14.327,32,32,32s32-14.327,32-32S49.673,0,32,0z M49.972,31
		c-0.138-5.582-1.414-10.878-3.613-15.667c2.652-1.022,5.169-2.317,7.515-3.854c4.824,5.14,7.854,11.976,8.102,19.521H49.972z
		 M33.333,61.966c-0.11,0.005-0.222,0.005-0.333,0.009V50.035c3.324,0.087,6.547,0.581,9.605,1.47
		C40.184,55.541,37.029,59.084,33.333,61.966z M44.549,52.141c2.283,0.801,4.462,1.817,6.523,3.018
		c-3.991,3.29-8.849,5.563-14.178,6.438C39.902,58.861,42.484,55.672,44.549,52.141z M21.394,51.505
		c3.059-0.89,6.282-1.383,9.606-1.47v11.939c-0.111-0.004-0.223-0.004-0.333-0.009C26.97,59.084,23.816,55.541,21.394,51.505z
		 M27.105,61.596c-5.329-0.874-10.187-3.147-14.178-6.438c2.062-1.2,4.24-2.217,6.523-3.017
		C21.515,55.672,24.098,58.861,27.105,61.596z M2.025,31c0.248-7.545,3.277-14.381,8.102-19.521
		c2.346,1.536,4.862,2.831,7.515,3.854C15.442,20.122,14.166,25.418,14.028,31H2.025z M43.57,14.196
		c-3.345,1.069-6.894,1.67-10.57,1.766V2.025c0.111,0.004,0.223,0.004,0.333,0.009C37.541,5.314,41.047,9.453,43.57,14.196z
		 M36.895,2.404c5.944,0.976,11.298,3.696,15.521,7.622c-2.176,1.391-4.496,2.57-6.944,3.499
		C43.278,9.326,40.369,5.562,36.895,2.404z M31,2.025v13.937c-3.677-0.096-7.226-0.696-10.57-1.766
		c2.523-4.743,6.029-8.882,10.237-12.162C30.777,2.029,30.889,2.029,31,2.025z M18.529,13.525c-2.448-0.929-4.769-2.108-6.944-3.499
		c4.223-3.926,9.576-6.646,15.521-7.622C23.631,5.562,20.722,9.326,18.529,13.525z M19.532,16.009
		c3.622,1.189,7.472,1.873,11.468,1.972V31H16.031C16.17,25.654,17.403,20.584,19.532,16.009z M31,33v15.036
		c-3.684,0.092-7.245,0.665-10.615,1.689C17.732,44.712,16.188,39.029,16.031,33H31z M33,48.036V33h14.969
		c-0.156,6.029-1.701,11.712-4.354,16.726C40.245,48.701,36.684,48.128,33,48.036z M33,31V17.98
		c3.996-0.099,7.846-0.782,11.468-1.972c2.129,4.575,3.362,9.646,3.501,14.991H33z M2.025,33h12.003
		c0.154,6.253,1.74,12.146,4.447,17.369c-2.496,0.899-4.871,2.044-7.109,3.396C5.827,48.513,2.294,41.172,2.025,33z M52.634,53.766
		c-2.238-1.353-4.613-2.497-7.109-3.396c2.707-5.224,4.293-11.116,4.447-17.369h12.003C61.706,41.172,58.173,48.513,52.634,53.766z"
		/>
	<g>
		<path fill="#45AAB8" d="M49.972,31h12.003c-0.248-7.545-3.277-14.381-8.102-19.521c-2.346,1.536-4.862,2.831-7.515,3.854
			C48.558,20.122,49.834,25.418,49.972,31z"/>
		<path fill="#45AAB8" d="M42.605,51.505c-3.059-0.889-6.281-1.383-9.605-1.47v11.939c0.111-0.004,0.223-0.004,0.333-0.009
			C37.029,59.084,40.184,55.541,42.605,51.505z"/>
		<path fill="#45AAB8" d="M36.895,61.596c5.329-0.874,10.187-3.147,14.178-6.438c-2.062-1.2-4.24-2.217-6.523-3.018
			C42.484,55.672,39.902,58.861,36.895,61.596z"/>
		<path fill="#45AAB8" d="M30.667,61.966c0.11,0.005,0.222,0.005,0.333,0.009V50.035c-3.324,0.087-6.548,0.58-9.606,1.47
			C23.816,55.541,26.97,59.084,30.667,61.966z"/>
		<path fill="#45AAB8" d="M19.451,52.141c-2.283,0.8-4.462,1.816-6.523,3.017c3.991,3.291,8.849,5.564,14.178,6.438
			C24.098,58.861,21.515,55.672,19.451,52.141z"/>
		<path fill="#45AAB8" d="M17.642,15.333c-2.652-1.022-5.169-2.317-7.515-3.854C5.303,16.619,2.273,23.455,2.025,31h12.003
			C14.166,25.418,15.442,20.122,17.642,15.333z"/>
		<path fill="#45AAB8" d="M33.333,2.034C33.223,2.029,33.111,2.029,33,2.025v13.937c3.677-0.096,7.226-0.696,10.57-1.766
			C41.047,9.453,37.541,5.314,33.333,2.034z"/>
		<path fill="#45AAB8" d="M45.471,13.525c2.448-0.929,4.769-2.108,6.944-3.499c-4.223-3.926-9.576-6.646-15.521-7.622
			C40.369,5.562,43.278,9.326,45.471,13.525z"/>
		<path fill="#45AAB8" d="M20.43,14.196c3.345,1.069,6.894,1.67,10.57,1.766V2.025c-0.111,0.004-0.223,0.004-0.333,0.009
			C26.459,5.314,22.953,9.453,20.43,14.196z"/>
		<path fill="#45AAB8" d="M27.105,2.404c-5.944,0.976-11.298,3.696-15.521,7.622c2.176,1.391,4.496,2.57,6.944,3.499
			C20.722,9.326,23.631,5.562,27.105,2.404z"/>
		<path fill="#45AAB8" d="M16.031,31H31V17.98c-3.996-0.099-7.846-0.782-11.468-1.972C17.403,20.584,16.17,25.654,16.031,31z"/>
		<path fill="#45AAB8" d="M20.385,49.726c3.37-1.024,6.932-1.598,10.615-1.689V33H16.031C16.188,39.029,17.732,44.712,20.385,49.726
			z"/>
		<path fill="#45AAB8" d="M47.969,33H33v15.036c3.684,0.092,7.245,0.665,10.615,1.689C46.268,44.712,47.812,39.029,47.969,33z"/>
		<path fill="#45AAB8" d="M44.468,16.009C40.846,17.198,36.996,17.882,33,17.98V31h14.969C47.83,25.654,46.597,20.584,44.468,16.009
			z"/>
		<path fill="#45AAB8" d="M14.028,33H2.025c0.269,8.172,3.802,15.513,9.341,20.766c2.238-1.353,4.613-2.497,7.109-3.396
			C15.769,45.146,14.183,39.253,14.028,33z"/>
		<path fill="#45AAB8" d="M45.524,50.369c2.496,0.899,4.871,2.044,7.109,3.396c5.539-5.253,9.072-12.594,9.341-20.766H49.972
			C49.817,39.253,48.231,45.146,45.524,50.369z"/>
	</g>
	<g opacity="0.2">
		<path d="M49.972,31h12.003c-0.248-7.545-3.277-14.381-8.102-19.521c-2.346,1.536-4.862,2.831-7.515,3.854
			C48.558,20.122,49.834,25.418,49.972,31z"/>
		<path d="M36.895,61.596c5.329-0.874,10.187-3.147,14.178-6.438c-2.062-1.2-4.24-2.217-6.523-3.018
			C42.484,55.672,39.902,58.861,36.895,61.596z"/>
		<path d="M45.471,13.525c2.448-0.929,4.769-2.108,6.944-3.499c-4.223-3.926-9.576-6.646-15.521-7.622
			C40.369,5.562,43.278,9.326,45.471,13.525z"/>
		<path d="M45.524,50.369c2.496,0.899,4.871,2.044,7.109,3.396c5.539-5.253,9.072-12.594,9.341-20.766H49.972
			C49.817,39.253,48.231,45.146,45.524,50.369z"/>
	</g>
</g>
</svg>