<?xml version="1.0" encoding="utf-8"?>

<!DOCTYPE svg PUBLIC "-//W3C//DTD SVG 1.0//EN" "http://www.w3.org/TR/2001/REC-SVG-20010904/DTD/svg10.dtd">
<!-- Uploaded to: SVG Repo, www.svgrepo.com, Generator: SVG Repo Mixer Tools -->
<svg version="1.0" id="Layer_1" xmlns="http://www.w3.org/2000/svg" xmlns:xlink="http://www.w3.org/1999/xlink" 
	 width="800px" height="800px" viewBox="0 0 64 64" enable-background="new 0 0 64 64" xml:space="preserve">
<g>
	<path fill="#394240" d="M57,40v0.002h-1V30c0.553,0,1-0.447,1-1v-4C57,11.193,45.807,0,32,0S7,11.193,7,25v4c0,0.553,0.447,1,1,1
		v10H7c-3.866,0-7,3.134-7,7v10.002c0,3.865,3.134,7,7,7V64h5c2.211,0,4-1.789,4-4V44c0-1.479-0.809-2.754-2-3.445V30
		c0.553,0,1-0.447,1-1v-4c0-9.389,7.611-17,17-17s17,7.611,17,17v4c0,0.553,0.447,1,1,1v10.555c-1.191,0.693-2,1.968-2,3.447v16
		c0,2.211,1.789,4,4,4h5c3.866,0,7-3.135,7-7V47C64,43.134,60.866,40,57,40z M2,57.002V47c0-2.419,1.719-4.436,4-4.899v19.8
		C3.718,61.437,2,59.42,2,57.002z M7,62.002C6.997,62.002,6.993,62,6.99,62H7V62.002z M14,60c0,1.104-0.896,2-2,2H8V42h4
		c1.104,0,2,0.896,2,2V60z M12,40h-2V30h2V40z M32,6c-10.493,0-19,8.506-19,19v3H9v-3C9,12.297,19.298,2,32,2s23,10.297,23,23v3h-4
		v-3C51,14.506,42.493,6,32,6z M52,30h2v10.002h-2V30z M52,62.002c-1.104,0-2-0.896-2-2v-16c0-1.105,0.896-2,2-2h4v20H52z
		 M62,57.002c0,2.418-1.719,4.435-4,4.898v-19.8c2.282,0.464,4,2.481,4,4.899V57.002z"/>
	<polygon fill="#45AAB8" points="7,62.002 6.99,62 7,62 	"/>
	<path fill="#F76D57" d="M32,6c-10.493,0-19,8.506-19,19v3H9v-3C9,12.297,19.298,2,32,2s23,10.297,23,23v3h-4v-3
		C51,14.506,42.493,6,32,6z"/>
	<g>
		<rect x="10" y="30" fill="#B4CCB9" width="2" height="10"/>
		<rect x="52" y="30" fill="#B4CCB9" width="2" height="10.002"/>
	</g>
	<g>
		<path fill="#45AAB8" d="M2,47v10.002c0,2.418,1.718,4.435,4,4.898v-19.8C3.719,42.564,2,44.581,2,47z"/>
		<path fill="#45AAB8" d="M12,42H8v20h4c1.104,0,2-0.896,2-2V44C14,42.896,13.104,42,12,42z"/>
		<path fill="#45AAB8" d="M50,44.002v16c0,1.104,0.896,2,2,2h4v-20h-4C50.896,42.002,50,42.896,50,44.002z"/>
		<path fill="#45AAB8" d="M58,42.101v19.8c2.281-0.464,4-2.48,4-4.898V47C62,44.582,60.282,42.564,58,42.101z"/>
	</g>
	<g opacity="0.2">
		<path d="M2,47v10.002c0,2.418,1.718,4.435,4,4.898v-19.8C3.719,42.564,2,44.581,2,47z"/>
		<path d="M58,42.101v19.8c2.281-0.464,4-2.48,4-4.898V47C62,44.582,60.282,42.564,58,42.101z"/>
	</g>
</g>
</svg>