<?xml version="1.0" encoding="utf-8"?>

<!DOCTYPE svg PUBLIC "-//W3C//DTD SVG 1.0//EN" "http://www.w3.org/TR/2001/REC-SVG-20010904/DTD/svg10.dtd">
<!-- Uploaded to: SVG Repo, www.svgrepo.com, Generator: SVG Repo Mixer Tools -->
<svg version="1.0" id="Layer_1" xmlns="http://www.w3.org/2000/svg" xmlns:xlink="http://www.w3.org/1999/xlink" 
	 width="800px" height="800px" viewBox="0 0 64 64" enable-background="new 0 0 64 64" xml:space="preserve">
<g>
	<path fill="#45AAB8" d="M20,14c0-6.627,5.373-12,12-12s12,5.373,12,12v10h-4V14c0-4.418-3.582-8-8-8s-8,3.582-8,8v10h-4V14z"/>
	<g>
		<path fill="#F9EBB2" d="M10,60c0,1.104,0.896,2,2,2h40c1.104,0,2-0.896,2-2v-4H10V60z"/>
		<rect x="10" y="34" fill="#F9EBB2" width="44" height="20"/>
		<path fill="#F9EBB2" d="M52,26H12c-1.104,0-2,0.895-2,2v4h44v-4C54,26.895,53.104,26,52,26z"/>
	</g>
	<g>
		<path fill="#394240" d="M52,24h-6V14c0-7.732-6.268-14-14-14S18,6.268,18,14v10h-6c-2.211,0-4,1.789-4,4v32c0,2.211,1.789,4,4,4
			h40c2.211,0,4-1.789,4-4V28C56,25.789,54.211,24,52,24z M20,14c0-6.627,5.373-12,12-12s12,5.373,12,12v10h-4V14
			c0-4.418-3.582-8-8-8s-8,3.582-8,8v10h-4V14z M38,14v10H26V14c0-3.314,2.687-6,6-6S38,10.686,38,14z M54,60c0,1.104-0.896,2-2,2
			H12c-1.104,0-2-0.896-2-2v-4h44V60z M54,54H10V34h44V54z M54,32H10v-4c0-1.105,0.896-2,2-2h40c1.104,0,2,0.895,2,2V32z"/>
		<path fill="#394240" d="M29,44.979V49c0,1.656,1.343,3,3,3s3-1.344,3-3v-4.021c1.209-0.912,2-2.348,2-3.979c0-2.762-2.238-5-5-5
			s-5,2.238-5,5C27,42.631,27.791,44.066,29,44.979z M32,38c1.657,0,3,1.342,3,3c0,1.305-0.837,2.402-2,2.816V49
			c0,0.553-0.447,1-1,1s-1-0.447-1-1v-5.184c-1.163-0.414-2-1.512-2-2.816C29,39.342,30.343,38,32,38z"/>
	</g>
	<path fill="#506C7F" d="M32,38c1.657,0,3,1.342,3,3c0,1.305-0.837,2.402-2,2.816V49c0,0.553-0.447,1-1,1s-1-0.447-1-1v-5.184
		c-1.163-0.414-2-1.512-2-2.816C29,39.342,30.343,38,32,38z"/>
	<g opacity="0.15">
		<path d="M10,60c0,1.104,0.896,2,2,2h40c1.104,0,2-0.896,2-2v-4H10V60z"/>
		<path d="M52,26H12c-1.104,0-2,0.895-2,2v4h44v-4C54,26.895,53.104,26,52,26z"/>
	</g>
</g>
</svg>