<?xml version="1.0" encoding="utf-8"?>

<!DOCTYPE svg PUBLIC "-//W3C//DTD SVG 1.0//EN" "http://www.w3.org/TR/2001/REC-SVG-20010904/DTD/svg10.dtd">
<!-- Uploaded to: SVG Repo, www.svgrepo.com, Generator: SVG Repo Mixer Tools -->
<svg version="1.0" id="Layer_1" xmlns="http://www.w3.org/2000/svg" xmlns:xlink="http://www.w3.org/1999/xlink" 
	 width="800px" height="800px" viewBox="0 0 64 64" enable-background="new 0 0 64 64" xml:space="preserve">
<g>
	<path fill="#394240" d="M56,46V12c0-0.553-0.447-1-1-1H9c-0.553,0-1,0.447-1,1v34c0,0.553,0.447,1,1,1h46
		C55.553,47,56,46.553,56,46z M54,45H10V13h44V45z"/>
	<path fill="#394240" d="M63,49h-3V11c0-2.211-1.789-4-4-4H8c-2.211,0-4,1.789-4,4v38H1c-0.553,0-1,0.447-1,1v3c0,2.211,1.789,4,4,4
		h56c2.211,0,4-1.789,4-4v-3C64,49.447,63.553,49,63,49z M6,11c0-1.104,0.896-2,2-2h48c1.104,0,2,0.896,2,2v38H36
		c-0.553,0-1,0.447-1,1v1h-6v-1c0-0.553-0.447-1-1-1H6V11z M62,53c0,1.104-0.896,2-2,2H4c-1.104,0-2-0.896-2-2v-2h25v1
		c0,0.553,0.447,1,1,1h8c0.553,0,1-0.447,1-1v-1h25V53z"/>
	<g>
		<path fill="#F9EBB2" d="M37,51v1c0,0.553-0.447,1-1,1h-8c-0.553,0-1-0.447-1-1v-1H2v2c0,1.104,0.896,2,2,2h56c1.104,0,2-0.896,2-2
			v-2H37z"/>
		<path fill="#F9EBB2" d="M29,50v1h6v-1c0-0.553,0.447-1,1-1h22V11c0-1.104-0.896-2-2-2H8c-1.104,0-2,0.896-2,2v38h22
			C28.553,49,29,49.447,29,50z M8,46V12c0-0.553,0.447-1,1-1h46c0.553,0,1,0.447,1,1v34c0,0.553-0.447,1-1,1H9
			C8.447,47,8,46.553,8,46z"/>
	</g>
	<rect x="10" y="13" fill="#45AAB8" width="44" height="32"/>
</g>
</svg>