<?xml version="1.0" encoding="utf-8"?>

<!DOCTYPE svg PUBLIC "-//W3C//DTD SVG 1.0//EN" "http://www.w3.org/TR/2001/REC-SVG-20010904/DTD/svg10.dtd">
<!-- Uploaded to: SVG Repo, www.svgrepo.com, Generator: SVG Repo Mixer Tools -->
<svg version="1.0" id="Layer_1" xmlns="http://www.w3.org/2000/svg" xmlns:xlink="http://www.w3.org/1999/xlink" 
	 width="800px" height="800px" viewBox="0 0 64 64" enable-background="new 0 0 64 64" xml:space="preserve">
<g>
	<path fill="#394240" d="M63.442,12.385c0.556-0.578,0.712-1.432,0.397-2.17C63.525,9.479,62.802,9,62,9h-6.585l2.292-2.291
		c0.391-0.393,0.391-1.025,0-1.416c-0.392-0.391-1.024-0.391-1.415,0L52.585,9H21.81C20.868,3.881,16.392,0,11,0
		C4.925,0,0,4.924,0,11c0,6.074,4.925,11,11,11c2.571,0,4.932-0.889,6.805-2.367L34,35.828V58h-8c-1.104,0-2,0.895-2,2v4h26v-4
		c0-1.105-0.896-2-2-2h-8V35.826L63.442,12.385z M53.415,11H62l-4,4h-8.585L53.415,11z M11,20c-4.971,0-9-4.029-9-9s4.029-9,9-9
		c4.282,0,7.859,2.992,8.77,7H12c-0.809,0-1.538,0.486-1.848,1.234s-0.139,1.607,0.434,2.18l5.791,5.791
		C14.876,19.326,13.019,20,11,20z M16,15l-4-4h38.585l-4,4H16z M44.585,17l-1.896,1.896c-1.212-0.449-2.822-0.006-4.074,1.246
		s-1.694,2.861-1.247,4.074l-2.289,2.289c-0.391,0.391-0.391,1.023,0,1.414s1.023,0.391,1.414,0l2.289-2.289
		c1.213,0.447,2.824,0.006,4.076-1.246s1.693-2.863,1.246-4.074L47.415,17H56L37,36L18,17H44.585z M41.443,22.971
		c-0.863,0.865-1.833,0.996-2.121,0.707c-0.289-0.289-0.157-1.258,0.706-2.121s1.833-0.996,2.122-0.707
		C42.438,21.139,42.307,22.107,41.443,22.971z M38,37.721V58h-2V37.723C36.303,37.898,36.645,38,37,38c0.007,0,0.014,0,0.021,0
		C37.369,37.996,37.703,37.893,38,37.721z M47,60c0.553,0,1,0.447,1,1v1H26v-1c0-0.553,0.447-1,1-1H47z"/>
	<path fill="#F76D57" d="M38.614,20.143c-1.252,1.252-1.694,2.861-1.247,4.074l-2.289,2.289c-0.391,0.391-0.391,1.023,0,1.414
		s1.023,0.391,1.414,0l2.289-2.289c1.213,0.447,2.824,0.006,4.076-1.246s1.693-2.863,1.246-4.074L47.415,17H56L37,36L18,17h26.585
		l-1.896,1.896C41.477,18.447,39.866,18.891,38.614,20.143z"/>
	<path fill="#B4CCB9" d="M11,20c-4.971,0-9-4.029-9-9s4.029-9,9-9c4.282,0,7.859,2.992,8.77,7H12c-0.809,0-1.538,0.486-1.848,1.234
		s-0.139,1.607,0.434,2.18l5.791,5.791C14.876,19.326,13.019,20,11,20z"/>
	<g>
		<polygon fill="#F9EBB2" points="50.585,11 12,11 16,15 46.585,15 		"/>
		<path fill="#F9EBB2" d="M36,37.723V58h2V37.721c-0.297,0.172-0.631,0.275-0.979,0.279c-0.007,0-0.014,0-0.021,0
			C36.645,38,36.303,37.898,36,37.723z"/>
		<path fill="#F9EBB2" d="M47,60H27c-0.553,0-1,0.447-1,1v1h22v-1C48,60.447,47.553,60,47,60z"/>
		<polygon fill="#F9EBB2" points="53.415,11 49.415,15 58,15 62,11 		"/>
	</g>
	<path opacity="0.15" fill="#231F20" d="M36,37.723V58h2V37.721c-0.297,0.172-0.631,0.275-0.979,0.279c-0.007,0-0.014,0-0.021,0
		C36.645,38,36.303,37.898,36,37.723z"/>
	<path fill="#45AAB8" d="M41.443,22.971c-0.863,0.865-1.833,0.996-2.121,0.707c-0.289-0.289-0.157-1.258,0.706-2.121
		s1.833-0.996,2.122-0.707C42.438,21.139,42.307,22.107,41.443,22.971z"/>
</g>
</svg>