<?xml version="1.0" encoding="utf-8"?>

<!DOCTYPE svg PUBLIC "-//W3C//DTD SVG 1.0//EN" "http://www.w3.org/TR/2001/REC-SVG-20010904/DTD/svg10.dtd">
<!-- Uploaded to: SVG Repo, www.svgrepo.com, Generator: SVG Repo Mixer Tools -->
<svg version="1.0" id="Layer_1" xmlns="http://www.w3.org/2000/svg" xmlns:xlink="http://www.w3.org/1999/xlink" 
	 width="800px" height="800px" viewBox="0 0 64 64" enable-background="new 0 0 64 64" xml:space="preserve">
<g>
	<path fill="#F9EBB2" d="M37,53.346c-0.654,0.168-1.321,0.304-2,0.407v1.246v0.793V60c0,1.104-0.896,2-2,2h-2c-1.104,0-2-0.896-2-2
		v-4.208v-0.793v-1.246c-0.679-0.104-1.346-0.239-2-0.407c-8.621-2.224-15-10.029-15-19.345c0-0.553,0.447-1,1-1s1,0.447,1,1
		C14.001,43.941,22.059,52,32,52s17.999-8.059,18-17.999c0.001-0.551,0.447-0.998,1-0.998s0.999,0.447,1,0.998
		C52,43.316,45.621,51.122,37,53.346z"/>
	<path fill="#45AAB8" d="M20,31.001h5c0.553,0,1-0.447,1-1s-0.447-1-1-1h-5v-4h5c0.553,0,1-0.447,1-1s-0.447-1-1-1h-5v-4h5
		c0.553,0,1-0.447,1-1s-0.447-1-1-1h-5v-3c0-6.627,5.373-12,12-12s12,5.373,12,12v3h-5c-0.553,0-1,0.447-1,1s0.447,1,1,1h5v4h-5
		c-0.553,0-1,0.447-1,1s0.447,1,1,1h5v4h-5c-0.553,0-1,0.447-1,1s0.447,1,1,1h5v3c0,6.627-5.373,12-12,12s-12-5.373-12-12V31.001z"
		/>
	<g>
		<path fill="#394240" d="M32,48.001c7.732,0,14-6.268,14-14v-20c0-7.732-6.268-14-14-14s-14,6.268-14,14v20
			C18,41.733,24.268,48.001,32,48.001z M20,31.001h5c0.553,0,1-0.447,1-1s-0.447-1-1-1h-5v-4h5c0.553,0,1-0.447,1-1s-0.447-1-1-1h-5
			v-4h5c0.553,0,1-0.447,1-1s-0.447-1-1-1h-5v-3c0-6.627,5.373-12,12-12s12,5.373,12,12v3h-5c-0.553,0-1,0.447-1,1s0.447,1,1,1h5v4
			h-5c-0.553,0-1,0.447-1,1s0.447,1,1,1h5v4h-5c-0.553,0-1,0.447-1,1s0.447,1,1,1h5v3c0,6.627-5.373,12-12,12s-12-5.373-12-12
			V31.001z"/>
		<path fill="#394240" d="M51,31.003c-1.657,0-2.999,1.342-3,2.998C47.999,42.839,40.837,50,32,50s-15.999-7.161-16-15.999
			c0-1.656-1.343-3-3-3s-3,1.344-3,3c0,10.43,7.26,19.157,17,21.423V60c0,2.209,1.791,4,4,4h2c2.209,0,4-1.791,4-4v-4.576
			c9.74-2.266,17-10.993,17-21.423C53.999,32.345,52.657,31.003,51,31.003z M37,53.346c-0.654,0.168-1.321,0.304-2,0.407V60
			c0,1.104-0.896,2-2,2h-2c-1.104,0-2-0.896-2-2v-6.247c-0.679-0.104-1.346-0.239-2-0.407c-8.621-2.224-15-10.029-15-19.345
			c0-0.553,0.447-1,1-1s1,0.447,1,1C14.001,43.941,22.059,52,32,52s17.999-8.059,18-17.999c0.001-0.551,0.447-0.998,1-0.998
			s0.999,0.447,1,0.998C52,43.316,45.621,51.122,37,53.346z"/>
	</g>
</g>
</svg>