<?xml version="1.0" encoding="utf-8"?>

<!DOCTYPE svg PUBLIC "-//W3C//DTD SVG 1.0//EN" "http://www.w3.org/TR/2001/REC-SVG-20010904/DTD/svg10.dtd">
<!-- Uploaded to: SVG Repo, www.svgrepo.com, Generator: SVG Repo Mixer Tools -->
<svg version="1.0" id="Layer_1" xmlns="http://www.w3.org/2000/svg" xmlns:xlink="http://www.w3.org/1999/xlink" 
	 width="800px" height="800px" viewBox="0 0 64 64" enable-background="new 0 0 64 64" xml:space="preserve">
<g>
	<path fill="#F9EBB2" d="M3.001,61.999c-0.553,0-1.001-0.446-1-0.999l0.001-13.141L16.143,62L3.001,61.999z"/>
	<path fill="#F76D57" d="M61.414,16.729l-4.259,4.259L43.013,6.845l4.258-4.257c0.782-0.782,2.049-0.782,2.829-0.002L61.414,13.9
		C62.195,14.682,62.194,15.947,61.414,16.729z"/>
	<g>
		
			<rect x="37.256" y="14.744" transform="matrix(0.7071 0.7071 -0.7071 0.7071 25.6812 -28.5106)" fill="#F9EBB2" width="20.001" height="4"/>
	</g>
	<g>
		
			<rect x="-1.848" y="28.74" transform="matrix(0.7071 -0.7071 0.7071 0.7071 -15.6016 24.8148)" fill="#45AAB8" width="48.002" height="5.001"/>
		
			<rect x="8.76" y="39.348" transform="matrix(0.7071 -0.7071 0.7071 0.7071 -19.9956 35.4215)" fill="#45AAB8" width="48" height="4.999"/>
		
			<rect x="3.456" y="33.544" transform="matrix(0.7071 -0.7071 0.7071 0.7071 -17.7985 30.1183)" fill="#45AAB8" width="48.001" height="5.999"/>
	</g>
	
		<rect x="-1.847" y="28.74" transform="matrix(-0.7071 0.7071 -0.7071 -0.7071 59.9084 37.6651)" opacity="0.2" fill="#231F20" width="48.001" height="5"/>
	
		<rect x="30.26" y="17.847" transform="matrix(0.7071 0.7071 -0.7071 0.7071 39.1859 -10.9078)" opacity="0.2" fill="#231F20" width="4.999" height="48"/>
	<path fill="#394240" d="M62.828,12.486L51.514,1.172c-1.562-1.562-4.093-1.562-5.657,0.001c0,0-44.646,44.646-45.255,45.255
		C-0.006,47.035,0,48,0,48l0.001,13.999c0,1.105,0.896,2,1.999,2.001h14c0,0,0.963,0.008,1.572-0.602s45.256-45.257,45.256-45.257
		C64.392,16.579,64.392,14.05,62.828,12.486z M2.001,61v-1.583l2.582,2.582H3.001C2.448,61.999,2,61.553,2.001,61z M7.411,62
		l-5.41-5.41l0.001-8.73L16.143,62H7.411z M52.912,25.23L38.771,11.088l-1.414,1.414l3.535,3.535L6.951,49.979l1.414,1.414
		l33.94-33.941l4.243,4.243l-33.941,33.94l1.414,1.415l33.941-33.94l3.535,3.535L17.557,60.586L3.414,46.443L41.599,8.259
		l14.143,14.143L52.912,25.23z M61.414,16.729l-4.259,4.259L43.013,6.845l4.258-4.257c0.782-0.782,2.049-0.782,2.829-0.002
		L61.414,13.9C62.195,14.682,62.194,15.947,61.414,16.729z"/>
</g>
</svg>