<?xml version="1.0" encoding="utf-8"?>

<!DOCTYPE svg PUBLIC "-//W3C//DTD SVG 1.0//EN" "http://www.w3.org/TR/2001/REC-SVG-20010904/DTD/svg10.dtd">
<!-- Uploaded to: SVG Repo, www.svgrepo.com, Generator: SVG Repo Mixer Tools -->
<svg version="1.0" id="Layer_1" xmlns="http://www.w3.org/2000/svg" xmlns:xlink="http://www.w3.org/1999/xlink" 
	 width="800px" height="800px" viewBox="0 0 64 64" enable-background="new 0 0 64 64" xml:space="preserve">
<g>
	<g>
		<path fill="#F76D57" d="M6,60c0,1.104,0.896,2,2,2h20V30H6V60z"/>
		<path fill="#F76D57" d="M4,16c-1.104,0-2,0.895-2,2v8c0,1.104,0.896,2,2,2h24V16H4z"/>
		<path fill="#F76D57" d="M36,62h20c1.104,0,2-0.896,2-2V30H36V62z"/>
		<path fill="#F76D57" d="M60,16H36v12h24c1.104,0,2-0.896,2-2v-8C62,16.895,61.104,16,60,16z"/>
	</g>
	<g>
		<path fill="#394240" d="M60,14H47.279C48.944,12.535,50,10.393,50,8c0-4.418-3.582-8-8-8s-8,3.582-8,8v6h-4V8c0-4.418-3.582-8-8-8
			s-8,3.582-8,8c0,2.393,1.056,4.535,2.721,6H4c-2.211,0-4,1.789-4,4v8c0,2.211,1.789,4,4,4v30c0,2.211,1.789,4,4,4h48
			c2.211,0,4-1.789,4-4V30c2.211,0,4-1.789,4-4v-8C64,15.789,62.211,14,60,14z M28,62H8c-1.104,0-2-0.896-2-2V30h22V62z M28,28H4
			c-1.104,0-2-0.896-2-2v-8c0-1.105,0.896-2,2-2h24V28z M22,14c-3.313,0-6-2.686-6-6c0-3.312,2.687-6,6-6s6,2.688,6,6v6H22z M34,62
			h-4V30h4V62z M34,28h-4V16h4V28z M36,8c0-3.312,2.687-6,6-6s6,2.688,6,6c0,3.314-2.687,6-6,6h-6V8z M58,60c0,1.104-0.896,2-2,2H36
			V30h22V60z M62,26c0,1.104-0.896,2-2,2H36V16h24c1.104,0,2,0.895,2,2V26z"/>
		<path fill="#394240" d="M22,4c-2.209,0-4,1.791-4,4s1.791,4,4,4h4V8C26,5.791,24.209,4,22,4z M24,10h-2c-1.104,0-2-0.896-2-2
			c0-1.105,0.896-2,2-2s2,0.895,2,2V10z"/>
		<path fill="#394240" d="M46,8c0-2.209-1.791-4-4-4s-4,1.791-4,4v4h4C44.209,12,46,10.209,46,8z M40,8c0-1.105,0.896-2,2-2
			s2,0.895,2,2c0,1.104-0.896,2-2,2h-2V8z"/>
	</g>
	<g>
		<rect x="30" y="30" fill="#F9EBB2" width="4" height="32"/>
		<rect x="30" y="16" fill="#F9EBB2" width="4" height="12"/>
		<path fill="#F9EBB2" d="M22,2c-3.313,0-6,2.688-6,6c0,3.314,2.687,6,6,6h6V8C28,4.688,25.313,2,22,2z M26,12h-4
			c-2.209,0-4-1.791-4-4s1.791-4,4-4s4,1.791,4,4V12z"/>
		<path fill="#F9EBB2" d="M42,2c-3.313,0-6,2.688-6,6v6h6c3.313,0,6-2.686,6-6C48,4.688,45.313,2,42,2z M42,12h-4V8
			c0-2.209,1.791-4,4-4s4,1.791,4,4S44.209,12,42,12z"/>
	</g>
</g>
</svg>