<?xml version="1.0" encoding="utf-8"?>

<!DOCTYPE svg PUBLIC "-//W3C//DTD SVG 1.0//EN" "http://www.w3.org/TR/2001/REC-SVG-20010904/DTD/svg10.dtd">
<!-- Uploaded to: SVG Repo, www.svgrepo.com, Generator: SVG Repo Mixer Tools -->
<svg version="1.0" id="Layer_1" xmlns="http://www.w3.org/2000/svg" xmlns:xlink="http://www.w3.org/1999/xlink" 
	 width="800px" height="800px" viewBox="0 0 64 64" enable-background="new 0 0 64 64" xml:space="preserve">
<g>
	<path fill="#F9EBB2" d="M61.448,19.393L44.631,2.575c-0.773-0.772-2.029-0.772-2.804,0l-2.102,2.104l2.803,2.802
		c0.388,0.387,0.388,1.014,0,1.401c-0.387,0.388-1.014,0.388-1.401,0L38.324,6.08l-2.804,2.802l5.606,5.606
		c0.388,0.387,0.388,1.014,0,1.401c-0.387,0.386-1.014,0.386-1.401,0l-5.605-5.604l-2.803,2.801l2.803,2.804
		c0.387,0.386,0.387,1.015,0,1.402c-0.388,0.387-1.016,0.387-1.401,0l-2.804-2.803l-2.803,2.803l2.803,2.803
		c0.389,0.387,0.389,1.014,0,1.402c-0.386,0.385-1.013,0.385-1.4-0.002l-2.805-2.803l-2.801,2.805l5.605,5.605
		c0.388,0.387,0.388,1.014,0,1.4c-0.388,0.389-1.015,0.389-1.401,0l-5.605-5.605l-2.805,2.803l2.805,2.803
		c0.386,0.389,0.386,1.016,0,1.402c-0.39,0.387-1.015,0.387-1.403,0l-2.802-2.803l-2.804,2.803l2.804,2.803
		c0.386,0.389,0.386,1.014,0,1.402c-0.388,0.385-1.015,0.385-1.402,0l-2.803-2.805l-2.802,2.805l5.604,5.605
		c0.388,0.387,0.388,1.014,0,1.402c-0.387,0.387-1.013,0.387-1.401,0L8.894,35.51l-2.803,2.803l2.803,2.805
		c0.388,0.387,0.388,1.014,0.001,1.398c-0.389,0.389-1.016,0.389-1.402,0l-2.803-2.801l-2.104,2.1
		c-0.773,0.773-0.773,2.031,0.001,2.805l16.817,16.818c0.774,0.773,2.029,0.773,2.804,0l39.24-39.242
		C62.223,21.422,62.223,20.166,61.448,19.393z M51,23.006c-1.104,0-2-0.896-2-2c0-1.105,0.896-2,2-2s2,0.895,2,2
		C53,22.109,52.104,23.006,51,23.006z"/>
	<g>
		<path fill="#394240" d="M62.851,17.992L46.033,1.173c-1.551-1.549-4.058-1.549-5.606,0L1.185,40.414
			c-1.547,1.551-1.547,4.057,0,5.607l16.817,16.816c1.55,1.549,4.059,1.549,5.608,0l39.24-39.24
			C64.398,22.049,64.398,19.541,62.851,17.992z M61.448,22.195l-39.24,39.242c-0.774,0.773-2.029,0.773-2.804,0L2.587,44.619
			c-0.774-0.773-0.774-2.031-0.001-2.805l2.104-2.1l2.803,2.801c0.387,0.389,1.014,0.389,1.402,0
			c0.387-0.385,0.387-1.012-0.001-1.398l-2.803-2.805l2.803-2.803l5.605,5.607c0.389,0.387,1.015,0.387,1.401,0
			c0.388-0.389,0.388-1.016,0-1.402l-5.604-5.605l2.802-2.805l2.803,2.805c0.388,0.385,1.015,0.385,1.402,0
			c0.386-0.389,0.386-1.014,0-1.402l-2.804-2.803l2.804-2.803l2.802,2.803c0.389,0.387,1.014,0.387,1.403,0
			c0.386-0.387,0.386-1.014,0-1.402l-2.805-2.803l2.805-2.803l5.605,5.605c0.387,0.389,1.014,0.389,1.401,0
			c0.388-0.387,0.388-1.014,0-1.4l-5.605-5.605l2.801-2.805l2.805,2.803c0.388,0.387,1.015,0.387,1.4,0.002
			c0.389-0.389,0.389-1.016,0-1.402l-2.803-2.803l2.803-2.803l2.804,2.803c0.386,0.387,1.014,0.387,1.401,0
			c0.387-0.387,0.387-1.016,0-1.402l-2.803-2.804l2.803-2.801l5.605,5.604c0.388,0.386,1.015,0.386,1.401,0
			c0.388-0.388,0.388-1.015,0-1.401l-5.606-5.606l2.804-2.802l2.803,2.802c0.388,0.388,1.015,0.388,1.401,0
			c0.388-0.388,0.388-1.015,0-1.401l-2.803-2.802l2.102-2.104c0.774-0.772,2.03-0.772,2.804,0l16.817,16.818
			C62.223,20.166,62.223,21.422,61.448,22.195z"/>
		<path fill="#394240" d="M51.019,17.006c-2.209,0-4,1.791-4,4s1.791,4,4,4s4-1.791,4-4S53.228,17.006,51.019,17.006z
			 M51.019,23.006c-1.104,0-2-0.896-2-2c0-1.105,0.896-2,2-2s2,0.895,2,2C53.019,22.109,52.123,23.006,51.019,23.006z"/>
	</g>
</g>
</svg>