<?xml version="1.0" encoding="utf-8"?>

<!DOCTYPE svg PUBLIC "-//W3C//DTD SVG 1.0//EN" "http://www.w3.org/TR/2001/REC-SVG-20010904/DTD/svg10.dtd">
<!-- Uploaded to: SVG Repo, www.svgrepo.com, Generator: SVG Repo Mixer Tools -->
<svg version="1.0" id="Layer_1" xmlns="http://www.w3.org/2000/svg" xmlns:xlink="http://www.w3.org/1999/xlink" 
	 width="800px" height="800px" viewBox="0 0 64 64" enable-background="new 0 0 64 64" xml:space="preserve">
<g>
	<path fill="#394240" d="M60,0H4C1.789,0,0,1.787,0,4v56c0,2.211,1.789,4,4,4c0,0,14,0,18,0s4.96-4.004,4.96-4.004L31,40
		c0,0,0.172-1,1-1s1,1,1,1l4.044,20.018C37.044,60.018,38,64,42,64s18,0,18,0c2.211,0,4-1.789,4-4V4C64,1.787,62.211,0,60,0z M2,9
		h24v2H2V9z M2,13h10v5c0,5.521-4.478,10-10,10V13z M62,60c0,1.102-0.897,2-2,2H42c-2.217,0-2.887-1.992-3.006-2.43l-4.029-19.943
		C34.732,38.354,33.711,37,32,37s-2.732,1.354-2.965,2.627l-4.026,19.928C24.936,59.834,24.291,62,22,62H4c-1.103,0-2-0.898-2-2V30
		c6.627,0,12-5.373,12-12v-5h12v1c0,0.551,0.447,1,1,1h10c0.553,0,1-0.449,1-1v-1h12v5c0,6.627,5.373,12,12,12V60z M28,13V7h8v6H28z
		 M62,28c-5.522,0-10-4.479-10-10v-5h10V28z M62,11H38V9h24V11z M62,7H38V6c0-0.555-0.447-1-1-1H27c-0.553,0-1,0.445-1,1v1H2V4
		c0-1.105,0.897-2,2-2h56c1.103,0,2,0.895,2,2V7z"/>
	<rect x="28" y="7" fill="#45AAB8" width="8" height="6"/>
	<g>
		<path fill="#F76D57" d="M12,18v-5H2v15C7.522,28,12,23.521,12,18z"/>
		<path fill="#F76D57" d="M50,18v-5H38v1c0,0.551-0.447,1-1,1H27c-0.553,0-1-0.449-1-1v-1H14v5c0,6.627-5.373,12-12,12v30
			c0,1.102,0.897,2,2,2h18c2.291,0,2.936-2.166,3.009-2.445l4.026-19.928C29.268,38.354,30.289,37,32,37s2.732,1.354,2.965,2.627
			l4.029,19.943C39.113,60.008,39.783,62,42,62h18c1.103,0,2-0.898,2-2V30C55.373,30,50,24.627,50,18z"/>
		<path fill="#F76D57" d="M52,13v5c0,5.521,4.478,10,10,10V13H52z"/>
	</g>
	<g>
		<rect x="2" y="9" fill="#F9EBB2" width="24" height="2"/>
		<rect x="38" y="9" fill="#F9EBB2" width="24" height="2"/>
	</g>
	<path fill="#506C7F" d="M62,7H38V6c0-0.555-0.447-1-1-1H27c-0.553,0-1,0.445-1,1v1H2V4c0-1.105,0.897-2,2-2h56c1.103,0,2,0.895,2,2
		V7z"/>
	<path opacity="0.2" fill="#231F20" d="M2,13h10v5c0,5.521-4.478,10-10,10V13z"/>
	<path opacity="0.2" fill="#231F20" d="M62,28c-5.522,0-10-4.479-10-10v-5h10V28z"/>
</g>
</svg>