<?xml version="1.0" encoding="utf-8"?>

<!DOCTYPE svg PUBLIC "-//W3C//DTD SVG 1.0//EN" "http://www.w3.org/TR/2001/REC-SVG-20010904/DTD/svg10.dtd">
<!-- Uploaded to: SVG Repo, www.svgrepo.com, Generator: SVG Repo Mixer Tools -->
<svg version="1.0" id="Layer_1" xmlns="http://www.w3.org/2000/svg" xmlns:xlink="http://www.w3.org/1999/xlink" 
	 width="800px" height="800px" viewBox="0 0 64 64" enable-background="new 0 0 64 64" xml:space="preserve">
<g>
	<g>
		<path fill="#45AAB8" d="M2,4v14c0,1.102,0.897,2,2,2h2V2H4C2.897,2,2,2.895,2,4z"/>
		<path fill="#45AAB8" d="M14,60c0,1.102,0.897,2,2,2h32c1.103,0,2-0.898,2-2v-2H14V60z"/>
		<path fill="#45AAB8" d="M43.527,2.982C41.365,7.148,37.02,10,32,10c-5.019,0-9.362-2.85-11.526-7.016C20.307,2.662,20,2,19.014,2
			H8v18h4c1.104,0,2,0.895,2,2v34h36V22c0-1.105,0.896-2,2-2h4V2H44.986C44,2,43.693,2.662,43.527,2.982z"/>
		<path fill="#45AAB8" d="M60,2h-2v18h2c1.103,0,2-0.898,2-2V4C62,2.895,61.103,2,60,2z"/>
	</g>
	<g>
		<path fill="#394240" d="M60,0H44.501c-2,0-2.395,1.383-2.725,2.023C39.952,5.57,36.264,8,32,8c-4.271,0-7.968-2.439-9.787-5.996
			C21.888,1.367,21.46,0,19.501,0H4C1.789,0,0,1.787,0,4v14c0,2.211,1.789,4,4,4h8v38c0,2.211,1.789,4,4,4h32c2.211,0,4-1.789,4-4
			V22h8c2.211,0,4-1.789,4-4V4C64,1.787,62.211,0,60,0z M6,20H4c-1.103,0-2-0.898-2-2V4c0-1.105,0.897-2,2-2h2V20z M50,60
			c0,1.102-0.897,2-2,2H16c-1.103,0-2-0.898-2-2v-2h36V60z M56,20h-4c-1.104,0-2,0.895-2,2v34H14V22c0-1.105-0.896-2-2-2H8V2h11.014
			c0.986,0,1.293,0.662,1.46,0.984C22.638,7.15,26.981,10,32,10c5.02,0,9.365-2.852,11.527-7.018C43.693,2.662,44,2,44.986,2H56V20z
			 M62,18c0,1.102-0.897,2-2,2h-2V2h2c1.103,0,2,0.895,2,2V18z"/>
		<path fill="#394240" d="M36,20c-1.104,0-2.104,0.447-2.828,1.17L32,22.336l-1.172-1.166C30.104,20.447,29.104,20,28,20
			c-2.209,0-4,1.789-4,4c0,1.104,0.713,2.135,1.438,2.857l5.855,5.857c0.391,0.391,1.023,0.391,1.414,0l5.84-5.84
			C39.271,26.15,40,25.104,40,24C40,21.789,38.209,20,36,20z M37.156,25.436L32,30.592l-5.156-5.156C26.481,25.074,26,24.551,26,24
			c0-1.105,0.896-2,2-2c0.553,0,1.053,0.223,1.414,0.586l1.879,1.869c0.391,0.391,1.023,0.391,1.414,0l1.879-1.869
			C34.947,22.223,35.447,22,36,22c1.104,0,2,0.895,2,2C38,24.551,37.519,25.074,37.156,25.436z"/>
	</g>
	<path fill="#F9EBB2" d="M37.156,25.436L32,30.592l-5.156-5.156C26.481,25.074,26,24.551,26,24c0-1.105,0.896-2,2-2
		c0.553,0,1.053,0.223,1.414,0.586l1.879,1.869c0.391,0.391,1.023,0.391,1.414,0l1.879-1.869C34.947,22.223,35.447,22,36,22
		c1.104,0,2,0.895,2,2C38,24.551,37.519,25.074,37.156,25.436z"/>
	<g>
		<path fill="#506C7F" d="M2,4v14c0,1.102,0.897,2,2,2h2V2H4C2.897,2,2,2.895,2,4z"/>
		<path fill="#506C7F" d="M14,60c0,1.102,0.897,2,2,2h32c1.103,0,2-0.898,2-2v-2H14V60z"/>
		<path fill="#506C7F" d="M60,2h-2v18h2c1.103,0,2-0.898,2-2V4C62,2.895,61.103,2,60,2z"/>
	</g>
</g>
</svg>