<?xml version="1.0" encoding="utf-8"?>

<!DOCTYPE svg PUBLIC "-//W3C//DTD SVG 1.0//EN" "http://www.w3.org/TR/2001/REC-SVG-20010904/DTD/svg10.dtd">
<!-- Uploaded to: SVG Repo, www.svgrepo.com, Generator: SVG Repo Mixer Tools -->
<svg version="1.0" id="Layer_1" xmlns="http://www.w3.org/2000/svg" xmlns:xlink="http://www.w3.org/1999/xlink" 
	 width="800px" height="800px" viewBox="0 0 64 64" enable-background="new 0 0 64 64" xml:space="preserve">
<g>
	<circle fill="#F76D57" cx="32" cy="32" r="6"/>
	<path fill="#F9EBB2" d="M32,20c-6.627,0-12,5.373-12,12s5.373,12,12,12s12-5.373,12-12S38.627,20,32,20z M32,40
		c-4.418,0-8-3.582-8-8s3.582-8,8-8s8,3.582,8,8S36.418,40,32,40z"/>
	<path fill="#45AAB8" d="M32,14c-9.941,0-18,8.059-18,18s8.059,18,18,18s18-8.059,18-18S41.941,14,32,14z M32,46
		c-7.732,0-14-6.268-14-14s6.268-14,14-14s14,6.268,14,14S39.732,46,32,46z"/>
	<path fill="#F9EBB2" d="M32,8C18.745,8,8,18.745,8,32s10.745,24,24,24s24-10.745,24-24S45.255,8,32,8z M32,52
		c-11.046,0-20-8.954-20-20s8.954-20,20-20s20,8.954,20,20S43.046,52,32,52z"/>
	<path fill="#45AAB8" d="M32,2C15.432,2,2,15.432,2,32s13.432,30,30,30s30-13.432,30-30S48.568,2,32,2z M32,58
		C17.641,58,6,46.359,6,32S17.641,6,32,6s26,11.641,26,26S46.359,58,32,58z"/>
	<path fill="#394240" d="M32,0c-8.477,0-16.178,3.302-21.903,8.683L9,7.586V5c0-0.168-0.051-0.318-0.124-0.457
		C8.862,4.48,8.827,4.412,8.747,4.332L4.708,0.293H4.707C4.526,0.111,4.276,0,4,0C3.447,0,3,0.447,3,1v2H1C0.447,3,0,3.447,0,4
		c0,0.276,0.112,0.526,0.293,0.707v0.001l3.999,3.998c0.001,0.001,0.001,0.001,0.001,0.001l0.041,0.041
		c0.08,0.08,0.147,0.115,0.21,0.129C4.682,8.949,4.833,9,5,9h2.586l1.097,1.097C3.302,15.822,0,23.523,0,32
		c0,17.673,14.327,32,32,32s32-14.327,32-32S49.673,0,32,0z M7,7H5.415L3.418,5.004L5,5l0.012-1.574L7,5.414V7z M32,62
		C15.432,62,2,48.568,2,32c0-7.924,3.078-15.127,8.097-20.489l2.828,2.828C8.629,18.977,6,25.18,6,32c0,14.359,11.641,26,26,26
		s26-11.641,26-26S46.359,6,32,6c-6.82,0-13.023,2.629-17.661,6.925l-2.828-2.828C16.874,5.078,24.075,2,32,2
		c16.568,0,30,13.432,30,30S48.568,62,32,62z M17.185,18.599C13.973,22.146,12,26.837,12,32c0,11.046,8.954,20,20,20s20-8.954,20-20
		s-8.954-20-20-20c-5.163,0-9.854,1.973-13.401,5.185l-2.846-2.845C20.028,10.404,25.732,8,32,8c13.255,0,24,10.745,24,24
		S45.255,56,32,56S8,45.255,8,32c0-6.268,2.405-11.973,6.339-16.246L17.185,18.599z M21.427,22.841C19.298,25.297,18,28.494,18,32
		c0,7.732,6.268,14,14,14s14-6.268,14-14s-6.268-14-14-14c-3.506,0-6.703,1.298-9.159,3.427l-2.828-2.828
		C23.197,15.748,27.39,14,32,14c9.941,0,18,8.059,18,18s-8.059,18-18,18s-18-8.059-18-18c0-4.61,1.748-8.803,4.599-11.987
		L21.427,22.841z M25.686,27.1C24.633,28.455,24,30.151,24,32c0,4.418,3.582,8,8,8s8-3.582,8-8s-3.582-8-8-8
		c-1.849,0-3.545,0.633-4.9,1.686l-2.844-2.844C26.347,21.072,29.047,20,32,20c6.627,0,12,5.373,12,12s-5.373,12-12,12
		s-12-5.373-12-12c0-2.953,1.072-5.653,2.842-7.744L25.686,27.1z M31.293,32.707c0.391,0.391,1.023,0.391,1.414,0
		s0.391-1.023,0-1.414l-4.18-4.18C29.508,26.415,30.704,26,32,26c3.313,0,6,2.687,6,6s-2.687,6-6,6s-6-2.687-6-6
		c0-1.295,0.415-2.492,1.113-3.473L31.293,32.707z"/>
	<polygon fill="#B4CCB9" points="7,7 5.415,7 3.418,5.004 5,5 5.012,3.426 7,5.414 	"/>
</g>
</svg>