<?xml version="1.0" encoding="utf-8"?>

<!DOCTYPE svg PUBLIC "-//W3C//DTD SVG 1.0//EN" "http://www.w3.org/TR/2001/REC-SVG-20010904/DTD/svg10.dtd">
<!-- Uploaded to: SVG Repo, www.svgrepo.com, Generator: SVG Repo Mixer Tools -->
<svg version="1.0" id="Layer_1" xmlns="http://www.w3.org/2000/svg" xmlns:xlink="http://www.w3.org/1999/xlink" 
	 width="800px" height="800px" viewBox="0 0 64 64" enable-background="new 0 0 64 64" xml:space="preserve">
<g>
	<path fill="#45AAB8" d="M12,4c0-1.105-0.896-2-2-2H4C2.896,2,2,2.895,2,4v34c0,1.104,0.896,2,2,2h6c1.104,0,2-0.896,2-2V4z"/>
	<path fill="#F9EBB2" d="M58,32H48c-0.553,0-1-0.449-1-1c0-0.555,0.447-1,1-1h8c2.209,0,4-1.791,4-4c0-2.211-1.791-4-4-4H46
		c-0.553,0-1-0.449-1-1c0-0.555,0.447-1,1-1h8c2.209,0,4-1.791,4-4c0-2.211-1.791-4-4-4H44c-0.553,0-1-0.449-1-1
		c0-0.555,0.447-1,1-1h8c2.209,0,4-1.791,4-4c0-2.211-1.791-4-4-4H29c-1,0-4.695-0.037-7.358,2.697C18.532,7.889,16.112,7.994,14,8
		v26h2c4,0,6.57,1.568,9.25,8L33,60c0.521,1.102,1.146,2,2.251,2H39c1.104,0,2.126-0.834,2-2l-1.99-18c-0.132-1.676,0.914-2,1.99-2
		h17c2.209,0,4-1.791,4-4C62,33.789,60.209,32,58,32z"/>
	<circle fill="#F76D57" cx="7" cy="35" r="1"/>
	<g>
		<path fill="#394240" d="M64,36c0,3.312-2.687,6-6,6H41v-0.002L40.984,42H41l2,18c0.209,2.186-1.287,4-3.498,4h-4.001
			C33,64,31.959,62.248,31,60l-8-18c-2.155-5.172-5-6-7-6c-1,0-2,0-2,0v2c0,2.209-1.789,4-4,4H4c-2.211,0-4-1.791-4-4V4
			c0-2.213,1.789-4,4-4h6c2.211,0,4,1.787,4,4v2c1,0,3.632-0.055,6.21-2.699C23.324,0.104,27.043,0,29,0h23c3.313,0,6,2.686,6,6
			c0,1.729-0.737,3.285-1.91,4.381C58.371,11.229,60,13.42,60,16c0,1.729-0.737,3.285-1.91,4.381C60.371,21.229,62,23.42,62,26
			c0,1.729-0.737,3.285-1.91,4.381C62.371,31.229,64,33.42,64,36z M12,4c0-1.105-0.896-2-2-2H4C2.896,2,2,2.895,2,4v34
			c0,1.104,0.896,2,2,2h6c1.104,0,2-0.896,2-2V4z M58,32H48c-0.553,0-1-0.449-1-1c0-0.555,0.447-1,1-1h8c2.209,0,4-1.791,4-4
			c0-2.211-1.791-4-4-4H46c-0.553,0-1-0.449-1-1c0-0.555,0.447-1,1-1h8c2.209,0,4-1.791,4-4c0-2.211-1.791-4-4-4H44
			c-0.553,0-1-0.449-1-1c0-0.555,0.447-1,1-1h8c2.209,0,4-1.791,4-4c0-2.211-1.791-4-4-4H29c-1,0-4.695-0.037-7.358,2.697
			C18.532,7.889,16.112,7.994,14,8v26h2c4,0,6.57,1.568,9.25,8L33,60c0.521,1.102,1.146,2,2.251,2H39c1.104,0,2.126-0.834,2-2
			l-1.99-18c-0.132-1.676,0.914-2,1.99-2h17c2.209,0,4-1.791,4-4C62,33.789,60.209,32,58,32z"/>
		<path fill="#394240" d="M7,38c-1.657,0-3-1.344-3-3c0-1.658,1.343-3,3-3s3,1.342,3,3C10,36.656,8.657,38,7,38z M7,34
			c-0.553,0-1,0.447-1,1c0,0.551,0.447,1,1,1s1-0.449,1-1C8,34.447,7.553,34,7,34z"/>
	</g>
</g>
</svg>