<?xml version="1.0" encoding="utf-8"?>

<!DOCTYPE svg PUBLIC "-//W3C//DTD SVG 1.0//EN" "http://www.w3.org/TR/2001/REC-SVG-20010904/DTD/svg10.dtd">
<!-- Uploaded to: SVG Repo, www.svgrepo.com, Generator: SVG Repo Mixer Tools -->
<svg version="1.0" id="Layer_1" xmlns="http://www.w3.org/2000/svg" xmlns:xlink="http://www.w3.org/1999/xlink" 
	 width="800px" height="800px" viewBox="0 0 64 64" enable-background="new 0 0 64 64" xml:space="preserve">
<g>
	<path fill="#506C7F" d="M16,32V16c0-7.732,6.268-14,14-14h4c7.732,0,14,6.268,14,14v16c0,2.806,0.382,5.519,1.062,8.111
		c-2.771-1.062-5.709-1.888-8.798-2.461C43.508,34.141,46,28.695,46,22c0-0.435,0-0.754,0-1c0-4.418-3.582-8-8-8h-4
		c-2.209,0-4-1.791-4-4c0-0.553-0.447-1-1-1s-1,0.447-1,1c0,2.209-1.791,4-4,4c-3.313,0-6,2.687-6,6v1v1c0,0.246,0,0.565,0,1
		c0,6.719,2.509,12.181,5.77,15.689c-3.2,0.605-6.121,1.425-8.838,2.443C15.615,37.534,16,34.813,16,32z"/>
	<g>
		<path fill="#F9EBB2" d="M32,40c4.531,0,12-6,12-18c0-0.5,0-0.812,0-1c0-3.313-2.687-6-6-6h-4c-2.088,0-3.926-1.068-5-2.687
			C27.926,13.932,26.088,15,24,15c-2.209,0-4,1.791-4,4v1v1c0,0.188,0,0.5,0,1C20,34,27.469,40,32,40z"/>
		<path fill="#F9EBB2" d="M38.323,39.439C36.24,41.084,34.01,42,32,42s-4.24-0.916-6.323-2.561
			c-2.743,0.378-5.399,1.018-7.966,1.857c2.469,2.469,13.319,13.319,13.704,13.704c0.435,0.435,0.753,0.417,1.183-0.013
			c0.381-0.381,11.224-11.224,13.691-13.691C43.723,40.457,41.066,39.817,38.323,39.439z"/>
	</g>
	<path fill="#F76D57" d="M62,60c0,1.104-0.896,2-2,2H4c-1.104,0-2-0.896-2-2v-8c0-1.104,0.447-2.104,1.172-2.828l-0.004-0.004
		c3.716-2.994,7.918-5.401,12.453-7.133l14.172,14.172c1.5,1.5,2.914,1.5,4.414,0l14.172-14.172
		c4.535,1.731,8.737,4.139,12.453,7.133l-0.004,0.004C61.553,49.896,62,50.896,62,52V60z"/>
	<g>
		<path fill="#394240" d="M62.242,47.758l0.014-0.014c-3.239-2.634-6.865-4.874-10.839-6.644C50.502,38.229,50,35.175,50,32V16
			c0-8.837-7.163-16-16-16h-4c-8.837,0-16,7.163-16,16v16c0,3.173-0.501,6.226-1.415,9.096c-3.979,1.745-7.526,3.953-10.841,6.648
			l0.014,0.014C0.672,48.844,0,50.344,0,52v8c0,2.211,1.789,4,4,4h56c2.211,0,4-1.789,4-4v-8C64,50.344,63.328,48.844,62.242,47.758
			z M16,32V16c0-7.732,6.268-14,14-14h4c7.732,0,14,6.268,14,14v16c0,2.806,0.382,5.519,1.062,8.111
			c-2.771-1.062-5.709-1.888-8.798-2.461C43.508,34.141,46,28.695,46,22c0-0.435,0-0.754,0-1c0-4.418-3.582-8-8-8h-4
			c-2.209,0-4-1.791-4-4c0-0.553-0.447-1-1-1s-1,0.447-1,1c0,2.209-1.791,4-4,4c-3.313,0-6,2.687-6,6c0,0,0,2.565,0,3
			c0,6.719,2.509,12.181,5.77,15.689c-3.2,0.605-6.121,1.425-8.838,2.443C15.615,37.534,16,34.813,16,32z M25.677,39.439
			C27.76,41.084,29.99,42,32,42s4.24-0.916,6.323-2.561c2.743,0.378,5.399,1.018,7.966,1.857
			c-2.468,2.468-13.311,13.311-13.691,13.691c-0.43,0.43-0.748,0.447-1.183,0.013C31.03,54.616,20.18,43.766,17.711,41.297
			C20.277,40.457,22.934,39.817,25.677,39.439z M20,22c0-0.5,0-3,0-3c0-2.209,1.791-4,4-4c2.088,0,3.926-1.068,5-2.687
			C30.074,13.932,31.912,15,34,15h4c3.313,0,6,2.687,6,6c0,0.188,0,0.5,0,1c0,12-7.469,18-12,18S20,34,20,22z M62,60
			c0,1.104-0.896,2-2,2H4c-1.104,0-2-0.896-2-2v-8c0-1.104,0.447-2.104,1.172-2.828l-0.004-0.004
			c3.716-2.994,7.918-5.401,12.453-7.133l14.172,14.172c1.5,1.5,2.914,1.5,4.414,0l14.172-14.172
			c4.535,1.731,8.737,4.139,12.453,7.133l-0.004,0.004C61.553,49.896,62,50.896,62,52V60z"/>
		<path fill="#394240" d="M26.998,20c-1.691,0-2.618,0.983-2.9,1.564c-0.233,0.482-0.034,1.045,0.439,1.298
			c0.475,0.255,1.073,0.068,1.345-0.396C25.91,22.419,26.18,22,26.998,22c0.808,0,1.096,0.436,1.111,0.458
			C28.287,22.803,28.637,23,28.999,23c0.154,0,0.311-0.035,0.457-0.111c0.491-0.253,0.684-0.856,0.431-1.347
			C29.592,20.969,28.651,20,26.998,20z"/>
		<path fill="#394240" d="M34.539,22.862c0.475,0.255,1.073,0.068,1.345-0.396C35.912,22.419,36.182,22,37,22
			c0.808,0,1.096,0.436,1.111,0.458C38.289,22.803,38.639,23,39.001,23c0.154,0,0.311-0.035,0.457-0.111
			c0.491-0.253,0.684-0.856,0.431-1.347C39.594,20.969,38.653,20,37,20c-1.691,0-2.618,0.983-2.9,1.564
			C33.866,22.047,34.065,22.609,34.539,22.862z"/>
	</g>
</g>
</svg>