<?xml version="1.0" encoding="UTF-8" standalone="no"?>
<svg
   id="svg8130"
   viewBox="0 0 383.27219 332.13599"
   version="1.1"
   sodipodi:docname="1366587958-2.svg"
   width="383.27219"
   height="332.13599"
   inkscape:version="1.4.3 (0d15f75042, 2025-12-25)"
   xmlns:inkscape="http://www.inkscape.org/namespaces/inkscape"
   xmlns:sodipodi="http://sodipodi.sourceforge.net/DTD/sodipodi-0.dtd"
   xmlns:xlink="http://www.w3.org/1999/xlink"
   xmlns="http://www.w3.org/2000/svg"
   xmlns:svg="http://www.w3.org/2000/svg"
   xmlns:rdf="http://www.w3.org/1999/02/22-rdf-syntax-ns#"
   xmlns:cc="http://creativecommons.org/ns#"
   xmlns:dc="http://purl.org/dc/elements/1.1/">
  <sodipodi:namedview
     id="namedview1"
     pagecolor="#ffffff"
     bordercolor="#000000"
     borderopacity="0.25"
     inkscape:showpageshadow="2"
     inkscape:pageopacity="0.0"
     inkscape:pagecheckerboard="0"
     inkscape:deskcolor="#d1d1d1"
     inkscape:zoom="1.3114286"
     inkscape:cx="191.39434"
     inkscape:cy="165.84967"
     inkscape:window-width="1366"
     inkscape:window-height="668"
     inkscape:window-x="0"
     inkscape:window-y="27"
     inkscape:window-maximized="1"
     inkscape:current-layer="svg8130" />
  <defs
     id="defs8132">
    <linearGradient
       id="linearGradient7720">
      <stop
         id="stop7722"
         offset="0" />
      <stop
         id="stop8972"
         stop-color="#707070"
         offset=".34375" />
      <stop
         id="stop7728"
         stop-color="#fff"
         offset=".5" />
      <stop
         id="stop8974"
         stop-color="#919191"
         offset=".57812" />
      <stop
         id="stop7724"
         offset="1" />
    </linearGradient>
    <linearGradient
       id="linearGradient10651"
       x1="745.09003"
       xlink:href="#linearGradient7720"
       spreadMethod="reflect"
       gradientUnits="userSpaceOnUse"
       y1="162.86"
       gradientTransform="matrix(1.0746,0,0,1.0038,-476.03,64.704)"
       x2="683.15002"
       y2="229.17" />
    <linearGradient
       id="linearGradient10653"
       x1="728.34003"
       xlink:href="#linearGradient7720"
       spreadMethod="reflect"
       gradientUnits="userSpaceOnUse"
       y1="7.3790002"
       gradientTransform="matrix(1.0746,0,0,1.0746,-476.03,51.43)"
       x2="815.21002"
       y2="331.60001" />
    <linearGradient
       id="linearGradient10655"
       x1="754.83002"
       xlink:href="#linearGradient7720"
       spreadMethod="reflect"
       gradientUnits="userSpaceOnUse"
       y1="-162.49001"
       gradientTransform="matrix(1.0746,0,0,1.0746,-476.03,51.43)"
       x2="754.83002"
       y2="541.40997" />
    <linearGradient
       id="linearGradient10657"
       x1="149.42999"
       xlink:href="#linearGradient7720"
       spreadMethod="reflect"
       gradientUnits="userSpaceOnUse"
       y1="270.53"
       gradientTransform="matrix(0.9136,0,0,0.9136,41.016,28.76)"
       x2="354.06"
       y2="146.33" />
    <linearGradient
       id="linearGradient10659"
       x1="745.09003"
       xlink:href="#linearGradient7720"
       spreadMethod="reflect"
       gradientUnits="userSpaceOnUse"
       y1="162.86"
       gradientTransform="matrix(1.1686,0,0,1.0915,-389.72,162.62)"
       x2="683.15002"
       y2="229.17" />
    <linearGradient
       id="linearGradient10661"
       x1="728.34003"
       xlink:href="#linearGradient7720"
       spreadMethod="reflect"
       gradientUnits="userSpaceOnUse"
       y1="7.3790002"
       gradientTransform="matrix(1.1686,0,0,1.1686,-389.72,148.18)"
       x2="815.21002"
       y2="331.60001" />
    <linearGradient
       id="linearGradient10663"
       x1="754.83002"
       xlink:href="#linearGradient7720"
       spreadMethod="reflect"
       gradientUnits="userSpaceOnUse"
       y1="-181.59"
       gradientTransform="matrix(1.1686,0,0,1.1686,-389.72,148.18)"
       x2="754.83002"
       y2="560.5" />
    <linearGradient
       id="linearGradient10665"
       x1="149.42999"
       xlink:href="#linearGradient7720"
       spreadMethod="reflect"
       gradientUnits="userSpaceOnUse"
       y1="270.53"
       gradientTransform="matrix(0.99346,0,0,0.99346,172.51,123.53)"
       x2="354.06"
       y2="146.33" />
  </defs>
  <g
     id="layer1"
     transform="translate(-288.7148,617.88143)">
    <g
       id="g10506"
       transform="translate(4.4664,-0.033125)">
      <g
         id="g10595"
         transform="translate(18.898,8.9017)">
        <g
           id="g10120"
           transform="translate(28,-784)">
          <path
             id="path7734"
             style="color:#000000;fill:url(#linearGradient10651)"
             fill="url(#linearGradient10651)"
             d="m 335.13,194.46 c -21.453,0 -40.117,11.883 -49.803,29.428 -6.3461,8.8768 -10.058,19.534 -10.058,31.008 0,21.921 13.504,40.864 33.164,50.033 -2.1728,-2.1876 -4.1397,-4.5527 -5.92,-7.0408 0.13518,0.0948 0.2663,0.19369 0.40234,0.28738 -6.2677,-9.1357 -9.9434,-20.181 -9.9434,-32.1 0,-5.6707 0.84065,-11.154 2.3853,-16.323 7.7636,-22.48 30.34,-38.739 56.988,-38.739 8.3977,0 16.371,1.6237 23.623,4.5406 0.007,0.004 0.0212,-0.004 0.0288,0 2.0905,1.086 4.1074,2.2952 6.035,3.621 -10.245,-14.918 -27.431,-24.715 -46.901,-24.715 z" />
          <g
             id="g8295"
             stroke-linejoin="round"
             transform="matrix(0.91962,0,0,0.91962,39.131,27.322)"
             stroke="#666666"
             stroke-linecap="round"
             stroke-width="0.43496">
            <path
               id="path7536"
               style="color:#000000"
               d="m 230.87,303.02 14.114,1.2598 20.24,11.686 -14.114,-1.2598 z" />
            <path
               id="path7542"
               style="color:#000000"
               d="m 265.78,337.68 14.534,7.486 20.24,11.686 -14.534,-7.486 z" />
            <path
               id="path7544"
               style="color:#000000"
               fill="#333333"
               d="m 280.32,345.16 12.726,-6.7739 20.24,11.686 -12.726,6.7739 z" />
            <path
               id="path7546"
               style="color:#000000"
               d="m 293.04,338.39 27.497,4.3456 20.24,11.686 -27.497,-4.3456 z" />
            <path
               id="path7550"
               style="color:#000000"
               fill="#1a1a1a"
               d="m 330.56,353.53 15.648,-2.5197 20.24,11.686 -15.648,2.5197 z" />
            <path
               id="path7552"
               style="color:#000000"
               fill="#333333"
               d="m 346.21,351.01 5.6236,-13.311 20.24,11.686 -5.6236,13.311 z" />
            <path
               id="path7554"
               style="color:#000000"
               fill="#1a1a1a"
               d="m 351.84,337.7 23.992,-12.087 20.24,11.686 -23.992,12.087 z" />
            <path
               id="path7556"
               style="color:#000000"
               fill="#333333"
               d="m 375.83,325.61 14.059,2.8849 20.24,11.686 -14.059,-2.8849 z" />
            <path
               id="path7558"
               style="color:#000000"
               fill="#1a1a1a"
               d="m 389.89,328.49 11.448,-11.302 20.24,11.686 -11.448,11.302 z" />
            <path
               id="path7560"
               style="color:#000000"
               fill="#333333"
               d="m 401.33,317.19 -2.611,-14.187 20.24,11.686 2.6109,14.187 z" />
            <path
               id="path7562"
               style="color:#000000"
               fill="#1a1a1a"
               d="m 398.72,303 13.438,-26.84 20.24,11.686 -13.438,26.84 z" />
            <path
               id="path7564"
               style="color:#000000"
               fill="#333333"
               d="m 412.16,276.16 13.384,-5.715 20.24,11.686 -13.384,5.715 z" />
            <path
               id="path7566"
               style="color:#000000"
               fill="#999999"
               d="m 425.55,270.45 2.1726,-15.246 20.24,11.686 -2.1728,15.246 z" />
            <path
               id="path7568"
               style="color:#000000"
               fill="#b3b3b3"
               d="m 427.72,255.2 -11.211,-9.531 20.24,11.686 11.211,9.531 z" />
            <path
               id="path7570"
               style="color:#000000"
               fill="#808080"
               d="m 416.51,245.67 -4.4917,-27.132 20.24,11.686 4.4916,27.132 z" />
            <path
               id="path7572"
               style="color:#000000"
               fill="#999999"
               d="m 412.02,218.54 7.0297,-12.452 20.24,11.686 -7.0296,12.452 z" />
            <path
               id="path7574"
               style="color:#000000"
               fill="#b3b3b3"
               d="m 419.05,206.09 -7.3034,-14.114 20.24,11.686 7.3035,14.114 z" />
            <path
               id="path7578"
               style="color:#000000"
               fill="#cccccc"
               d="m 397.41,190.31 -20.304,-19.865 20.24,11.686 20.304,19.865 z" />
            <path
               id="path7588"
               style="color:#000000"
               fill="#808080"
               d="m 322.51,152.41 -9.8414,-10.791 20.24,11.686 9.8414,10.791 z" />
            <path
               id="path7580"
               style="color:#000000"
               fill="#b3b3b3"
               d="m 377.11,170.45 -0.91293,-14.68 20.24,11.686 0.9129,14.68 z" />
          </g>
          <path
             id="path7290"
             style="color:#000000;fill:url(#linearGradient10653)"
             fill="url(#linearGradient10653)"
             d="m 327.08,157.25 -14.339,2.2164 -5.2724,12.224 -22.231,11.183 -13.03,-2.6194 -10.444,10.276 2.5522,12.862 -12.257,23.977 -12.492,5.2052 -2.2164,14.138 10.242,8.8992 4.0298,25.824 -6.3806,11.821 6.5821,12.963 12.996,1.1418 17.463,17.664 1.6791,13.164 13.366,6.9179 11.686,-6.2462 25.321,3.9962 9.2014,9.9738 14.407,-2.3507 5.1716,-12.257 22.063,-11.183 12.929,2.6866 10.545,-10.444 -2.4179,-13.097 12.358,-24.783 12.325,-5.2724 2.0149,-14.071 -10.31,-8.7985 -4.1642,-25.018 6.4813,-11.485 -6.7163,-13.03 -13.198,-1.5448 -18.672,-18.336 -0.83955,-13.533 -12.492,-6.347 -11.653,7.2537 -25.22,-4.0298 -9.0671,-9.9402 z m 8.0596,37.914 c 33.066,0 59.843,26.81 59.843,59.876 0,33.066 -26.777,59.843 -59.843,59.843 -33.066,0 -59.876,-26.777 -59.876,-59.843 0,-33.066 26.81,-59.876 59.876,-59.876 z" />
          <path
             id="path7989"
             style="color:#000000;fill:url(#linearGradient10655)"
             fill="url(#linearGradient10655)"
             d="m 327.48,162.14 -13.622,2.1056 -5.0087,11.613 -21.12,10.624 -12.378,-2.4884 -9.9218,9.7622 2.4246,12.219 -11.645,22.779 -11.868,4.9449 -2.1056,13.431 9.7304,8.4542 3.8283,24.533 -6.0615,11.23 6.2529,12.314 12.346,1.0847 16.589,16.781 1.5951,12.506 12.697,6.572 11.102,-5.9339 24.055,3.7964 8.7414,9.4752 13.686,-2.2332 4.913,-11.645 20.96,-10.624 12.283,2.5522 10.018,-9.9218 -2.297,-12.442 11.74,-23.544 11.708,-5.0087 1.9141,-13.367 -9.7941,-8.3585 -3.956,-23.768 6.1573,-10.911 -6.3806,-12.378 -12.538,-1.4675 -17.738,-17.419 -0.79758,-12.857 -11.868,-6.0296 -11.07,6.891 -23.959,-3.8283 -8.6138,-9.4432 z m 7.6567,36.018 c 31.413,0 56.851,25.47 56.851,56.883 0,31.413 -25.438,56.851 -56.851,56.851 -31.413,0 -56.883,-25.438 -56.883,-56.851 0,-31.413 25.47,-56.883 56.883,-56.883 z" />
          <path
             id="path8845"
             style="color:#000000;fill:url(#linearGradient10657)"
             fill="url(#linearGradient10657)"
             d="m 334.73,197.76 c -31.409,0 -56.861,25.479 -56.861,56.888 0,16.564 7.0934,31.436 18.399,41.82 -9.2516,-10.104 -14.905,-23.542 -14.905,-38.326 0,-31.409 25.452,-56.888 56.861,-56.888 14.66,0 28,5.5502 38.08,14.659 0.0471,0.0233 0.0896,0.0585 0.13649,0.0819 -10.387,-11.204 -25.228,-18.235 -41.711,-18.235 z" />
          <path
             id="path10031"
             style="color:#000000"
             transform="translate(199.89,941.21)"
             fill="#4d4d4d"
             d="m 175.31,-726.41 c 9.8507,10.212 15.938,24.091 15.938,39.406 0,31.409 -25.466,56.875 -56.875,56.875 -15.302,0 -29.153,-6.0735 -39.375,-15.906 10.342,10.715 24.807,17.406 40.875,17.406 31.409,0 56.875,-25.466 56.875,-56.875 0,-16.078 -6.7061,-30.573 -17.438,-40.906 z" />
        </g>
        <g
           id="g10092"
           transform="translate(30,-782)">
          <path
             id="path9061"
             style="color:#000000;fill:url(#linearGradient10659)"
             fill="url(#linearGradient10659)"
             d="m 492.34,303.72 c -23.329,0 -43.623,12.922 -54.156,32 -6.9008,9.6527 -10.938,21.242 -10.938,33.719 0,23.837 14.684,44.436 36.062,54.406 -2.3627,-2.3788 -4.5015,-4.9506 -6.4375,-7.6562 0.14699,0.10312 0.28957,0.21062 0.4375,0.3125 -6.8155,-9.9343 -10.812,-21.945 -10.812,-34.906 0,-6.1664 0.91413,-12.129 2.5938,-17.75 8.4422,-24.445 32.991,-42.125 61.969,-42.125 9.1318,0 17.802,1.7656 25.688,4.9375 0.008,0.004 0.0231,-0.004 0.0313,0 2.2733,1.1809 4.4664,2.4958 6.5625,3.9375 -11.141,-16.222 -29.829,-26.875 -51,-26.875 z" />
          <g
             id="g9063"
             stroke-linejoin="round"
             transform="translate(170.46,121.97)"
             stroke="#666666"
             stroke-linecap="round"
             stroke-width="0.4">
            <path
               id="path9065"
               style="color:#000000"
               d="m 230.87,303.02 14.114,1.2598 20.24,11.686 -14.114,-1.2598 z" />
            <path
               id="path9067"
               style="color:#000000"
               d="m 265.78,337.68 14.534,7.486 20.24,11.686 -14.534,-7.486 z" />
            <path
               id="path9069"
               style="color:#000000"
               d="m 280.32,345.16 12.726,-6.7739 20.24,11.686 -12.726,6.7739 z" />
            <path
               id="path9071"
               style="color:#000000"
               fill="#1a1a1a"
               d="m 293.04,338.39 27.497,4.3456 20.24,11.686 -27.497,-4.3456 z" />
            <path
               id="path9073"
               style="color:#000000"
               fill="#1a1a1a"
               d="m 330.56,353.53 15.648,-2.5197 20.24,11.686 -15.648,2.5197 z" />
            <path
               id="path9075"
               style="color:#000000"
               fill="#333333"
               d="m 346.21,351.01 5.6236,-13.311 20.24,11.686 -5.6236,13.311 z" />
            <path
               id="path9077"
               style="color:#000000"
               fill="#1a1a1a"
               d="m 351.84,337.7 23.992,-12.087 20.24,11.686 -23.992,12.087 z" />
            <path
               id="path9079"
               style="color:#000000"
               fill="#333333"
               d="m 375.83,325.61 14.059,2.8849 20.24,11.686 -14.059,-2.8849 z" />
            <path
               id="path9081"
               style="color:#000000"
               fill="#808080"
               d="m 389.89,328.49 11.448,-11.302 20.24,11.686 -11.448,11.302 z" />
            <path
               id="path9083"
               style="color:#000000"
               fill="#999999"
               d="m 401.33,317.19 -2.611,-14.187 20.24,11.686 2.6109,14.187 z" />
            <path
               id="path9085"
               style="color:#000000"
               fill="#4d4d4d"
               d="m 398.72,303 13.438,-26.84 20.24,11.686 -13.438,26.84 z" />
            <path
               id="path9087"
               style="color:#000000"
               fill="#4d4d4d"
               d="m 412.16,276.16 13.384,-5.715 20.24,11.686 -13.384,5.715 z" />
            <path
               id="path9089"
               style="color:#000000"
               fill="#999999"
               d="m 425.55,270.45 2.1726,-15.246 20.24,11.686 -2.1728,15.246 z" />
            <path
               id="path9091"
               style="color:#000000"
               fill="#b3b3b3"
               d="m 427.72,255.2 -11.211,-9.531 20.24,11.686 11.211,9.531 z" />
            <path
               id="path9093"
               style="color:#000000"
               fill="#808080"
               d="m 416.51,245.67 -4.4917,-27.132 20.24,11.686 4.4916,27.132 z" />
            <path
               id="path9095"
               style="color:#000000"
               fill="#999999"
               d="m 412.02,218.54 7.0297,-12.452 20.24,11.686 -7.0296,12.452 z" />
            <path
               id="path9097"
               style="color:#000000"
               fill="#b3b3b3"
               d="m 419.05,206.09 -7.3034,-14.114 20.24,11.686 7.3035,14.114 z" />
            <path
               id="path9099"
               style="color:#000000"
               fill="#cccccc"
               d="m 397.41,190.31 -20.304,-19.865 20.24,11.686 20.304,19.865 z" />
            <path
               id="path9101"
               style="color:#000000"
               fill="#808080"
               d="m 322.51,152.41 -9.8414,-10.791 20.24,11.686 9.8414,10.791 z" />
            <path
               id="path9103"
               style="color:#000000"
               fill="#b3b3b3"
               d="m 377.11,170.45 -0.91293,-14.68 20.24,11.686 0.9129,14.68 z" />
          </g>
          <path
             id="path9105"
             style="color:#000000;fill:url(#linearGradient10661)"
             fill="url(#linearGradient10661)"
             d="m 483.58,263.25 -15.593,2.4101 -5.7332,13.292 -24.174,12.16 -14.169,-2.8483 -11.357,11.174 2.7753,13.986 -13.329,26.073 -13.584,5.6602 -2.4101,15.374 11.138,9.6771 4.3821,28.082 -6.9383,12.854 7.1574,14.096 14.132,1.2416 18.989,19.208 1.8259,14.315 14.534,7.5225 12.708,-6.7922 27.534,4.3456 10.006,10.846 15.666,-2.5562 5.6237,-13.329 23.992,-12.16 14.059,2.9214 11.466,-11.357 -2.6292,-14.242 13.438,-26.95 13.402,-5.7332 2.191,-15.301 -11.211,-9.5675 -4.5282,-27.205 7.0478,-12.489 -7.3034,-14.169 -14.351,-1.6798 -20.304,-19.938 -0.91293,-14.716 -13.584,-6.9018 -12.671,7.8877 -27.424,-4.3821 -9.8596,-10.809 z m 8.7641,41.228 c 35.956,0 65.074,29.154 65.074,65.11 0,35.956 -29.117,65.074 -65.074,65.074 -35.956,0 -65.11,-29.117 -65.11,-65.074 0,-35.956 29.154,-65.11 65.11,-65.11 z" />
          <path
             id="path9107"
             style="color:#000000;fill:url(#linearGradient10663)"
             fill="url(#linearGradient10663)"
             d="m 484.02,268.56 -14.813,2.2896 -5.4465,12.628 -22.966,11.552 -13.46,-2.7059 -10.789,10.616 2.6366,13.287 -12.662,24.77 -12.905,5.3772 -2.2896,14.605 10.581,9.1932 4.163,26.678 -6.5914,12.211 6.7995,13.391 13.426,1.1795 18.04,18.248 1.7346,13.599 13.807,7.1464 12.073,-6.4526 26.157,4.1283 9.5054,10.303 14.883,-2.4284 5.3425,-12.662 22.792,-11.552 13.356,2.7753 10.893,-10.789 -2.4978,-13.53 12.766,-25.602 12.732,-5.4465 2.0814,-14.536 -10.65,-9.0891 -4.3018,-25.845 6.6955,-11.864 -6.9383,-13.46 -13.634,-1.5958 -19.288,-18.941 -0.86729,-13.981 -12.905,-6.5567 -12.038,7.4933 -26.053,-4.163 -9.3667,-10.269 z m 8.3259,39.167 c 34.159,0 61.82,27.696 61.82,61.855 0,34.159 -27.661,61.82 -61.82,61.82 -34.159,0 -61.855,-27.661 -61.855,-61.82 0,-34.159 27.696,-61.855 61.855,-61.855 z" />
          <path
             id="path9109"
             style="color:#000000;fill:url(#linearGradient10665)"
             fill="url(#linearGradient10665)"
             d="m 491.9,307.3 c -34.154,0 -61.831,27.707 -61.831,61.861 0,18.012 7.7135,34.183 20.007,45.475 -10.06,-10.987 -16.207,-25.6 -16.207,-41.676 0,-34.154 27.677,-61.861 61.831,-61.861 15.941,0 30.447,6.0353 41.409,15.94 0.0512,0.0253 0.0974,0.0636 0.14842,0.089 -11.295,-12.184 -27.433,-19.829 -45.357,-19.829 z" />
          <path
             id="path10025"
             style="color:#000000"
             transform="translate(199.89,941.21)"
             fill="#4d4d4d"
             d="m 337.88,-613.75 c 10.714,11.105 17.312,26.187 17.312,42.844 0,34.154 -27.658,61.844 -61.812,61.844 -16.716,0 -31.87,-6.6585 -43,-17.438 11.217,11.4 26.806,18.5 44.062,18.5 34.154,0 61.812,-27.689 61.812,-61.844 0,-17.198 -7.039,-32.709 -18.375,-43.906 z" />
        </g>
      </g>
    </g>
  </g>
  <metadata
     id="metadata1">
    <rdf:RDF>
      <cc:Work>
        <dc:format>image/svg+xml</dc:format>
        <dc:type
           rdf:resource="http://purl.org/dc/dcmitype/StillImage" />
        <cc:license
           rdf:resource="http://creativecommons.org/publicdomain/zero/1.0/" />
        <dc:publisher>
          <cc:Agent
             rdf:about="http://openclipart.org/">
            <dc:title>Openclipart</dc:title>
          </cc:Agent>
        </dc:publisher>
        <dc:date>2013-04-21T19:45:58</dc:date>
        <dc:description>GEARS</dc:description>
        <dc:source>https://openclipart.org/detail/177348/gears-by-keistutis-177348</dc:source>
        <dc:creator>
          <cc:Agent>
            <dc:title>Keistutis</dc:title>
          </cc:Agent>
        </dc:creator>
        <dc:subject>
          <rdf:Bag>
            <rdf:li>GEARS</rdf:li>
          </rdf:Bag>
        </dc:subject>
      </cc:Work>
      <cc:License
         rdf:about="http://creativecommons.org/publicdomain/zero/1.0/">
        <cc:permits
           rdf:resource="http://creativecommons.org/ns#Reproduction" />
        <cc:permits
           rdf:resource="http://creativecommons.org/ns#Distribution" />
        <cc:permits
           rdf:resource="http://creativecommons.org/ns#DerivativeWorks" />
      </cc:License>
    </rdf:RDF>
  </metadata>
</svg>
