<?xml version="1.0" encoding="UTF-8"?>
<svg xmlns="http://www.w3.org/2000/svg" xmlns:xlink="http://www.w3.org/1999/xlink" width="558.8" height="559.2" viewBox="0 0 558.8 559.2">
<path fill-rule="nonzero" fill="rgb(0%, 0%, 0%)" fill-opacity="1" d="M 288.800781 559 L 18.800781 559 L 18.800781 238.4375 L 9.304688 206.546875 L 0.171875 174.292969 L 254.390625 87.46875 L 511.273438 0.480469 L 514.300781 -0.0429688 L 516.714844 1.566406 L 533.589844 50.628906 L 535.871094 65.339844 L 534.910156 65.917969 L 285.359375 152.5 L 36.773438 238.5 L 297.789062 238.75 L 558.800781 239.003906 L 558.800781 559 Z M 288.800781 559 "/>
<path fill-rule="nonzero" fill="rgb(100%, 100%, 100%)" fill-opacity="1" d="M 472.273438 82 L 494.253906 74.015625 L 516.394531 65.738281 L 496.6875 43.96875 L 474.960938 20.75 L 473.246094 19 L 451.363281 25.492188 L 429.203125 32.261719 L 450.53125 57.269531 Z M 380.285156 110.996094 L 404.15625 104.554688 L 428.355469 97.78125 L 409.15625 74.46875 L 388.40625 50.230469 L 387.191406 48.960938 L 372.246094 54.644531 L 351.007812 61.933594 L 344.71875 63.535156 L 362.496094 87.269531 Z M 280.273438 145.625 L 302.070312 137.019531 L 322.839844 128.835938 L 320.175781 125.667969 L 300.929688 103.730469 L 284.347656 84.957031 L 283.324219 85.332031 L 260.535156 92.941406 L 238.769531 100.175781 L 241.066406 102.90625 L 261.304688 125.839844 L 279.246094 146.042969 Z M 176.203125 180.691406 L 199.613281 172.011719 L 221.921875 163.738281 L 219.539062 161.117188 L 202.3125 142 L 184.878906 122.761719 L 182.285156 120.023438 L 161.292969 126.042969 L 139.503906 132.296875 L 138.707031 132.53125 L 156.90625 156.8125 L 175.109375 181.097656 Z M 84.273438 214.625 L 108.722656 204.964844 L 132.144531 195.722656 L 109.800781 173.980469 L 87.457031 152.234375 L 64.960938 160.117188 L 42.171875 168.292969 L 62.5625 191.8125 L 83.246094 215.042969 Z M 84.273438 214.625 "/>
</svg>
