<?xml version="1.0" encoding="UTF-8"?>
<svg xmlns="http://www.w3.org/2000/svg" xmlns:xlink="http://www.w3.org/1999/xlink" width="460.200012" height="460" viewBox="0 0 460.200012 460">
<defs>
<linearGradient id="linear-pattern-0" gradientUnits="userSpaceOnUse" x1="0" y1="653.960022" x2="0" y2="301.299988" gradientTransform="matrix(1.326046, 0, 0, 1.326046, 662.208313, -404.895844)">
<stop offset="0" stop-color="rgb(25.882353%, 2.352941%, 0%)" stop-opacity="1"/>
<stop offset="1" stop-color="rgb(61.960784%, 39.607843%, 14.509804%)" stop-opacity="1"/>
</linearGradient>
</defs>
<path fill-rule="nonzero" fill="url(#linear-pattern-0)" d="M 460.066406 229.949219 C 460.066406 356.976562 357.089844 459.953125 230.0625 459.953125 C 103.035156 459.953125 0.0585938 356.976562 0.0585938 229.949219 C 0.0585938 102.921875 103.035156 -0.0546875 230.0625 -0.0546875 C 357.089844 -0.0546875 460.066406 102.921875 460.066406 229.949219 Z M 460.066406 229.949219 "/>
<path fill-rule="nonzero" fill="rgb(100%, 100%, 100%)" fill-opacity="0.863" d="M 46.921875 204.570312 C 48.144531 201.96875 50.753906 200.304688 53.640625 200.304688 L 75.589844 200.304688 C 89.546875 124.566406 156.042969 67.003906 235.75 67.003906 C 325.578125 67.003906 398.667969 140.097656 398.667969 229.925781 C 398.667969 319.75 325.582031 392.835938 235.75 392.835938 C 177.777344 392.835938 123.710938 361.632812 94.652344 311.421875 C 90.558594 304.335938 92.972656 295.28125 100.066406 291.179688 C 107.144531 287.078125 116.203125 289.492188 120.289062 296.582031 C 144.074219 337.679688 188.304688 363.222656 235.75 363.222656 C 309.242188 363.222656 369.046875 303.425781 369.046875 229.9375 C 369.046875 156.4375 309.242188 96.640625 235.75 96.640625 C 172.445312 96.640625 119.40625 141.042969 105.890625 200.3125 L 127.667969 200.3125 C 130.554688 200.3125 133.15625 201.976562 134.386719 204.578125 C 135.609375 207.179688 135.210938 210.246094 133.367188 212.460938 L 96.339844 256.890625 C 94.929688 258.578125 92.851562 259.550781 90.648438 259.550781 C 88.449219 259.550781 86.367188 258.570312 84.964844 256.890625 L 47.933594 212.460938 C 46.089844 210.238281 45.699219 207.171875 46.921875 204.570312 "/>
</svg>
