<?xml version="1.0" encoding="UTF-8" standalone="no"?>
<svg
   width="142.12801"
   height="128.17999"
   version="1.1"
   id="svg20"
   sodipodi:docname="Crystal_Clear_action_run_with_red_cross3.svg"
   inkscape:version="1.4.3 (0d15f75042, 2025-12-25)"
   viewBox="6 5 136.1282 122.769"
   xmlns:inkscape="http://www.inkscape.org/namespaces/inkscape"
   xmlns:sodipodi="http://sodipodi.sourceforge.net/DTD/sodipodi-0.dtd"
   xmlns:xlink="http://www.w3.org/1999/xlink"
   xmlns="http://www.w3.org/2000/svg"
   xmlns:svg="http://www.w3.org/2000/svg">
  <sodipodi:namedview
     id="namedview20"
     pagecolor="#ffffff"
     bordercolor="#000000"
     borderopacity="0.25"
     inkscape:showpageshadow="2"
     inkscape:pageopacity="0.0"
     inkscape:pagecheckerboard="0"
     inkscape:deskcolor="#d1d1d1"
     inkscape:zoom="3.6141732"
     inkscape:cx="74.152506"
     inkscape:cy="67.373639"
     inkscape:window-width="1366"
     inkscape:window-height="668"
     inkscape:window-x="0"
     inkscape:window-y="27"
     inkscape:window-maximized="1"
     inkscape:current-layer="svg20" />
  <linearGradient
     id="A"
     gradientUnits="userSpaceOnUse">
    <stop
       offset="0"
       stop-color="#fff"
       id="stop1" />
    <stop
       offset="1"
       stop-color="#fff"
       stop-opacity="0"
       id="stop2" />
  </linearGradient>
  <linearGradient
     id="B"
     gradientUnits="userSpaceOnUse">
    <stop
       offset="0"
       stop-color="#2e2e2e"
       id="stop3" />
    <stop
       offset="1"
       stop-opacity="0"
       id="stop4" />
  </linearGradient>
  <linearGradient
     id="C"
     gradientUnits="userSpaceOnUse">
    <stop
       offset="0"
       stop-color="#6a7390"
       id="stop5" />
    <stop
       offset="1"
       stop-color="#eaebef"
       id="stop6" />
  </linearGradient>
  <linearGradient
     id="D"
     gradientUnits="userSpaceOnUse">
    <stop
       offset="0"
       stop-color="#fff"
       stop-opacity=".787"
       id="stop7" />
    <stop
       offset="1"
       stop-color="#fff"
       stop-opacity="0"
       id="stop8" />
  </linearGradient>
  <linearGradient
     id="E"
     x1="22.254999"
     x2="47.683998"
     y1="20.278999"
     y2="76.065002"
     xlink:href="#C"
     gradientTransform="translate(4.2616001,3.7876)" />
  <linearGradient
     id="F"
     x1="42.324001"
     x2="53.754002"
     y1="24.919001"
     y2="78.561996"
     xlink:href="#C"
     gradientTransform="translate(4.2616001,3.7876)" />
  <filter
     id="G"
     x="-0.083867414"
     y="-0.08389759"
     width="1.1677348"
     height="1.1677952">
    <feGaussianBlur
       stdDeviation="3.109"
       id="feGaussianBlur8" />
  </filter>
  <linearGradient
     id="H"
     x1="2.78"
     x2="2.78"
     y1="38.831001"
     y2="72.181"
     xlink:href="#C" />
  <linearGradient
     id="I"
     x1="2.78"
     x2="2.78"
     y1="32.758999"
     y2="41.466999"
     xlink:href="#D" />
  <linearGradient
     id="J"
     x1="90.279999"
     x2="90.279999"
     y1="39.744999"
     y2="49.209"
     xlink:href="#B"
     gradientTransform="translate(4.2616001,3.7876)" />
  <linearGradient
     id="K"
     x1="130.164"
     x2="5.6409998"
     y1="3.2460001"
     y2="3.2460001"
     xlink:href="#A"
     gradientTransform="translate(4.2616001,3.7876)" />
  <linearGradient
     id="L"
     x1="327.14301"
     x2="327.14301"
     y1="571.29102"
     y2="481.29099"
     xlink:href="#C" />
  <linearGradient
     id="M"
     x1="89.348"
     x2="106.607"
     y1="74.231003"
     y2="112.096"
     xlink:href="#C"
     gradientTransform="translate(4.2616001,3.7876)" />
  <linearGradient
     id="N"
     x1="102.971"
     x2="110.729"
     y1="77.383003"
     y2="113.793"
     xlink:href="#C"
     gradientTransform="translate(4.2616001,3.7876)" />
  <linearGradient
     id="O"
     x1="76.126999"
     x2="76.126999"
     y1="86.818001"
     y2="109.454"
     xlink:href="#C" />
  <linearGradient
     id="P"
     x1="76.126999"
     x2="76.126999"
     y1="82.696999"
     y2="88.607002"
     xlink:href="#D" />
  <linearGradient
     id="Q"
     x1="135.51801"
     x2="135.51801"
     y1="87.441002"
     y2="93.864998"
     xlink:href="#B"
     gradientTransform="translate(4.2616001,3.7876)" />
  <linearGradient
     id="R"
     x1="162.591"
     x2="78.070999"
     y1="62.671001"
     y2="62.671001"
     xlink:href="#A"
     gradientTransform="translate(4.2616001,3.7876)" />
  <filter
     id="S"
     width="1.1679899"
     height="1.1679899"
     x="-0.083994931"
     y="-0.083994931"
     color-interpolation-filters="sRGB">
    <feGaussianBlur
       stdDeviation=".663"
       id="feGaussianBlur9" />
  </filter>
  <filter
     id="T"
     width="1.1679888"
     height="1.1679888"
     x="-0.083994398"
     y="-0.083994398"
     color-interpolation-filters="sRGB">
    <feGaussianBlur
       stdDeviation=".45"
       id="feGaussianBlur10" />
  </filter>
  <g
     transform="matrix(0.67875,0,0,0.67875,-141.6574,-260.2174)"
     id="g10">
    <use
       xlink:href="#V"
       filter="url(#G)"
       id="use10" />
    <path
       fill="url(#L)"
       d="m 369.22,481.719 -2.157,6.594 v 0.187 c -3.346,0.438 -6.549,1.281 -9.563,2.531 l -0.062,-0.125 -5.188,-4.656 -4.875,2.813 1.407,6.812 0.093,0.156 a 38.228,38.228 0 0 0 -6.968,7 l -0.157,-0.094 -6.812,-1.437 -2.813,4.875 4.625,5.188 0.157,0.062 a 37.825,37.825 0 0 0 -2.563,9.563 h -0.156 l -6.625,2.156 V 529 l 6.625,2.156 h 0.156 a 37.688,37.688 0 0 0 2.563,9.563 l -0.157,0.093 -4.625,5.157 2.813,4.906 6.812,-1.438 0.125,-0.093 a 38.25,38.25 0 0 0 7,7 l -0.093,0.156 -1.407,6.781 4.875,2.813 5.188,-4.625 0.094,-0.157 a 37.685,37.685 0 0 0 9.53,2.563 v 0.188 l 2.157,6.593 h 5.656 l 2.157,-6.593 v -0.188 a 37.685,37.685 0 0 0 9.53,-2.563 l 0.095,0.157 5.187,4.625 4.875,-2.813 -1.406,-6.781 -0.094,-0.156 a 38.25,38.25 0 0 0 7,-7 l 0.125,0.093 6.813,1.438 2.812,-4.906 -4.625,-5.157 -0.156,-0.093 a 37.688,37.688 0 0 0 2.562,-9.563 h 0.157 L 416.532,529 v -5.656 l -6.625,-2.157 h -0.157 a 37.825,37.825 0 0 0 -2.562,-9.562 l 0.156,-0.063 4.625,-5.187 -2.812,-4.875 -6.813,1.438 -0.156,0.093 a 38.228,38.228 0 0 0 -6.969,-7 l 0.094,-0.156 1.406,-6.813 -4.875,-2.812 -5.187,4.656 -0.063,0.125 c -3.014,-1.25 -6.217,-2.093 -9.562,-2.531 v -0.188 l -2.157,-6.593 h -5.656 z m 2.843,10.719 c 18.63,0 33.75,15.12 33.75,33.75 0,18.63 -15.12,33.75 -33.75,33.75 -18.63,0 -33.75,-15.12 -33.75,-33.75 0,-18.63 15.12,-33.75 33.75,-33.75 z"
       id="path10"
       style="fill:url(#linearGradient20)" />
  </g>
  <path
     fill="url(#M)"
     d="m 111.5446,73.7876 a 23.15,23.15 0 1 0 22.475,23.139 23.15,23.15 0 0 0 -22.475,-23.139 z m -0.488,16.711 a 6.43,6.43 0 1 1 -6.617,6.428 6.43,6.43 0 0 1 6.617,-6.428 z"
     id="path11"
     style="fill:url(#M)" />
  <path
     fill="url(#N)"
     d="m 111.4666,76.4516 a 20.483,20.483 0 1 0 19.887,20.475 20.483,20.483 0 0 0 -19.887,-20.475 z m -0.41,14.047 a 6.43,6.43 0 1 1 -6.617,6.428 6.43,6.43 0 0 1 6.617,-6.428 z"
     id="path12"
     style="fill:url(#N)" />
  <use
     xlink:href="#W"
     fill="url(#O)"
     id="use12"
     style="fill:url(#O)"
     transform="translate(4.2616001,3.7876)" />
  <use
     xlink:href="#W"
     fill="url(#P)"
     id="use13"
     style="fill:url(#P)"
     transform="translate(4.2616001,3.7876)" />
  <path
     fill="url(#Q)"
     d="m 110.8666,90.4966 a 6.43,6.43 0 0 0 -6.428,6.428 c 0,3.549 2.879,6.43 6.428,6.43 3.549,0 6.43,-2.881 6.43,-6.43 0,-3.549 -2.881,-6.428 -6.43,-6.428 z m 0,2.908 c 2.777,0 5.144,1.764 6.043,4.23 l -11.988,-0.252 c 0.964,-2.335 3.264,-3.979 5.945,-3.979 z"
     filter="url(#T)"
     opacity="0.65"
     id="path13"
     style="fill:url(#Q)" />
  <path
     fill="url(#R)"
     d="m 108.9496,66.7486 -1.463,4.477 v 0.127 c -2.271,0.297 -4.445,0.87 -6.49,1.719 l -0.043,-0.086 -3.521,-3.16 -3.309,1.91 0.955,4.623 0.064,0.105 a 25.947,25.947 0 0 0 -4.73,4.752 l -0.107,-0.064 -4.623,-0.975 -1.908,3.309 3.139,3.521 0.105,0.041 a 25.507,25.507 0 0 0 -1.74,6.492 h -0.105 l -4.496,1.463 v 3.84 l 4.496,1.463 h 0.107 a 25.581,25.581 0 0 0 1.738,6.49 l -0.021,0.021 c 4.163,0.386 8.617,0.395 13.279,-0.021 14.343,-1.283 27.537,-6.323 36.566,-13.172 l -0.275,-0.086 h -0.105 a 25.674,25.674 0 0 0 -1.74,-6.49 l 0.107,-0.043 3.139,-3.52 -1.91,-3.309 -4.623,0.975 -0.105,0.064 a 25.947,25.947 0 0 0 -4.73,-4.752 l 0.063,-0.105 0.955,-4.625 -3.309,-1.908 -3.521,3.16 -0.041,0.086 a 25.57,25.57 0 0 0 -6.492,-1.719 v -0.127 l -1.463,-4.477 z m 2.107,23.75 a 6.43,6.43 0 1 1 -6.617,6.428 6.43,6.43 0 0 1 6.617,-6.428 z"
     id="path14"
     style="fill:url(#R)" />
  <g
     transform="translate(-320.1014,-474.2574)"
     id="g15">
    <use
       xlink:href="#V"
       filter="url(#G)"
       id="use14" />
    <path
       fill="url(#L)"
       d="m 369.22,481.719 -2.157,6.594 v 0.187 c -3.346,0.438 -6.549,1.281 -9.563,2.531 l -0.062,-0.125 -5.188,-4.656 -4.875,2.813 1.407,6.812 0.093,0.156 a 38.228,38.228 0 0 0 -6.968,7 l -0.157,-0.094 -6.812,-1.437 -2.813,4.875 4.625,5.188 0.157,0.062 a 37.825,37.825 0 0 0 -2.563,9.563 h -0.156 l -6.625,2.156 V 529 l 6.625,2.156 h 0.156 a 37.688,37.688 0 0 0 2.563,9.563 l -0.157,0.093 -4.625,5.157 2.813,4.906 6.812,-1.438 0.125,-0.093 a 38.25,38.25 0 0 0 7,7 l -0.093,0.156 -1.407,6.781 4.875,2.813 5.188,-4.625 0.094,-0.157 a 37.685,37.685 0 0 0 9.53,2.563 v 0.188 l 2.157,6.593 h 5.656 l 2.157,-6.593 v -0.188 a 37.685,37.685 0 0 0 9.53,-2.563 l 0.095,0.157 5.187,4.625 4.875,-2.813 -1.406,-6.781 -0.094,-0.156 a 38.25,38.25 0 0 0 7,-7 l 0.125,0.093 6.813,1.438 2.812,-4.906 -4.625,-5.157 -0.156,-0.093 a 37.688,37.688 0 0 0 2.562,-9.563 h 0.157 L 416.532,529 v -5.656 l -6.625,-2.157 h -0.157 a 37.825,37.825 0 0 0 -2.562,-9.562 l 0.156,-0.063 4.625,-5.187 -2.812,-4.875 -6.813,1.438 -0.156,0.093 a 38.228,38.228 0 0 0 -6.969,-7 l 0.094,-0.156 1.406,-6.813 -4.875,-2.812 -5.187,4.656 -0.063,0.125 c -3.014,-1.25 -6.217,-2.093 -9.562,-2.531 v -0.188 l -2.157,-6.593 h -5.656 z m 2.843,10.719 c 18.63,0 33.75,15.12 33.75,33.75 0,18.63 -15.12,33.75 -33.75,33.75 -18.63,0 -33.75,-15.12 -33.75,-33.75 0,-18.63 15.12,-33.75 33.75,-33.75 z"
       id="path15"
       style="fill:url(#L)" />
  </g>
  <path
     fill="url(#E)"
     d="m 52.9416,17.8306 a 34.107,34.107 0 1 0 33.111,34.092 34.107,34.107 0 0 0 -33.111,-34.092 z m -0.719,24.625 a 9.473,9.473 0 1 1 -9.75,9.469 9.473,9.473 0 0 1 9.75,-9.469 z"
     id="path16"
     style="fill:url(#E)" />
  <path
     fill="url(#F)"
     d="m 52.8246,21.7566 a 30.178,30.178 0 0 0 -31.059,30.164 30.178,30.178 0 1 0 60.355,0 30.178,30.178 0 0 0 -29.297,-30.164 z m -0.602,20.699 a 9.473,9.473 0 1 1 -9.75,9.469 9.473,9.473 0 0 1 9.75,-9.469 z"
     id="path17"
     style="fill:url(#F)" />
  <use
     xlink:href="#X"
     fill="url(#H)"
     id="use17"
     style="fill:url(#H)"
     transform="translate(4.2616001,3.7876)" />
  <use
     xlink:href="#X"
     fill="url(#I)"
     id="use18"
     style="fill:url(#I)"
     transform="translate(4.2616001,3.7876)" />
  <path
     fill="url(#J)"
     d="m 51.9476,42.4536 c -5.229,0 -9.473,4.242 -9.473,9.471 a 9.48,9.48 0 0 0 9.473,9.473 c 5.229,0 9.471,-4.244 9.471,-9.473 0,-5.229 -4.242,-9.471 -9.471,-9.471 z m 0,4.285 a 9.48,9.48 0 0 1 8.902,6.232 l -17.662,-0.371 a 9.48,9.48 0 0 1 8.76,-5.861 z"
     filter="url(#S)"
     opacity="0.65"
     id="path18"
     style="fill:url(#J)" />
  <path
     fill="url(#K)"
     d="m 49.1166,7.4616 -2.156,6.594 v 0.188 c -3.346,0.438 -6.55,1.281 -9.562,2.531 l -0.062,-0.125 -5.187,-4.656 -4.875,2.812 1.406,6.812 0.094,0.156 a 38.228,38.228 0 0 0 -6.969,7 l -0.156,-0.094 -6.812,-1.437 -2.813,4.875 4.625,5.188 0.156,0.063 a 37.58,37.58 0 0 0 -2.563,9.563 h -0.156 l -6.6249999,2.156 v 5.656 l 6.6249999,2.156 h 0.156 a 37.688,37.688 0 0 0 2.563,9.563 l -0.031,0.031 c 6.134,0.568 12.694,0.583 19.563,-0.031 21.131,-1.89 40.572,-9.316 53.875,-19.406 l -0.406,-0.125 h -0.156 a 37.825,37.825 0 0 0 -2.562,-9.562 l 0.156,-0.062 4.625,-5.187 -2.812,-4.875 -6.812,1.438 -0.156,0.094 a 38.228,38.228 0 0 0 -6.969,-7 l 0.094,-0.156 1.406,-6.812 -4.875,-2.812 -5.187,4.656 -0.062,0.125 c -3.014,-1.25 -6.216,-2.093 -9.562,-2.531 v -0.187 l -2.156,-6.594 z m 3.105,34.994 a 9.473,9.473 0 1 1 -9.75,9.469 9.473,9.473 0 0 1 9.75,-9.469 z"
     id="path19"
     style="fill:url(#K)" />
  <defs
     id="defs20">
    <path
       id="V"
       d="m 369.22,481.719 -2.157,6.594 v 0.187 c -3.346,0.438 -6.549,1.281 -9.563,2.531 l -0.062,-0.125 -5.188,-4.656 -4.875,2.813 1.407,6.812 0.093,0.156 a 38.228,38.228 0 0 0 -6.968,7 l -0.157,-0.094 -6.812,-1.437 -2.813,4.875 4.625,5.188 0.157,0.062 a 37.825,37.825 0 0 0 -2.563,9.563 h -0.156 l -6.625,2.156 V 529 l 6.625,2.156 h 0.156 a 37.688,37.688 0 0 0 2.563,9.563 l -0.157,0.093 -4.625,5.157 2.813,4.906 6.812,-1.438 0.125,-0.093 a 38.25,38.25 0 0 0 7,7 l -0.093,0.156 -1.407,6.781 4.875,2.813 5.188,-4.625 0.094,-0.157 a 37.685,37.685 0 0 0 9.53,2.563 v 0.188 l 2.157,6.593 h 5.656 l 2.157,-6.593 v -0.188 a 37.685,37.685 0 0 0 9.53,-2.563 l 0.095,0.157 5.187,4.625 4.875,-2.813 -1.406,-6.781 -0.094,-0.156 a 38.25,38.25 0 0 0 7,-7 l 0.125,0.093 6.813,1.438 2.812,-4.906 -4.625,-5.157 -0.156,-0.093 a 37.688,37.688 0 0 0 2.562,-9.563 h 0.157 L 416.532,529 v -5.656 l -6.625,-2.157 h -0.157 a 37.825,37.825 0 0 0 -2.562,-9.562 l 0.156,-0.063 4.625,-5.187 -2.812,-4.875 -6.813,1.438 -0.156,0.093 a 38.228,38.228 0 0 0 -6.969,-7 l 0.094,-0.156 1.406,-6.813 -4.875,-2.812 -5.187,4.656 -0.063,0.125 c -3.014,-1.25 -6.217,-2.093 -9.562,-2.531 v -0.188 l -2.157,-6.593 h -5.656 z m 2.843,10.719 c 18.63,0 33.75,15.12 33.75,33.75 0,18.63 -15.12,33.75 -33.75,33.75 -18.63,0 -33.75,-15.12 -33.75,-33.75 0,-18.63 15.12,-33.75 33.75,-33.75 z" />
    <path
       id="W"
       d="m 106.885,83.564 a 9.575,9.575 0 0 0 -9.854,9.57 9.575,9.575 0 0 0 19.148,0 9.575,9.575 0 0 0 -9.295,-9.57 z m -0.09,3.146 a 6.43,6.43 0 1 1 -6.617,6.428 6.43,6.43 0 0 1 6.617,-6.428 z" />
    <path
       id="X"
       d="m 48.098,34.037 a 14.107,14.107 0 0 0 -14.52,14.1 14.107,14.107 0 1 0 28.213,0 14.107,14.107 0 0 0 -13.693,-14.1 z m -0.137,4.631 a 9.473,9.473 0 1 1 -9.75,9.469 9.473,9.473 0 0 1 9.75,-9.469 z" />
    <linearGradient
       inkscape:collect="always"
       xlink:href="#C"
       id="linearGradient20"
       x1="327.14301"
       y1="571.29102"
       x2="327.14301"
       y2="481.29099" />
  </defs>
</svg>
