<?xml version="1.0" encoding="UTF-8" standalone="no"?>
<svg
   version="1.1"
   viewBox="0 0 33.042721 45.847492"
   id="svg72"
   sodipodi:docname="Dialog-information2.svg"
   width="33.042721"
   height="45.847492"
   inkscape:version="1.4.3 (0d15f75042, 2025-12-25)"
   xmlns:inkscape="http://www.inkscape.org/namespaces/inkscape"
   xmlns:sodipodi="http://sodipodi.sourceforge.net/DTD/sodipodi-0.dtd"
   xmlns:xlink="http://www.w3.org/1999/xlink"
   xmlns="http://www.w3.org/2000/svg"
   xmlns:svg="http://www.w3.org/2000/svg">
  <sodipodi:namedview
     id="namedview72"
     pagecolor="#ffffff"
     bordercolor="#000000"
     borderopacity="0.25"
     inkscape:showpageshadow="2"
     inkscape:pageopacity="0.0"
     inkscape:pagecheckerboard="0"
     inkscape:deskcolor="#d1d1d1"
     inkscape:zoom="9.5625"
     inkscape:cx="15.372549"
     inkscape:cy="22.013072"
     inkscape:window-width="1366"
     inkscape:window-height="668"
     inkscape:window-x="0"
     inkscape:window-y="27"
     inkscape:window-maximized="1"
     inkscape:current-layer="svg72" />
  <defs
     id="defs53">
    <linearGradient
       id="e2399">
      <stop
         stop-color="#929470"
         offset="0"
         id="stop1" />
      <stop
         stop-color="#fcffc1"
         offset=".26471"
         id="stop2" />
      <stop
         stop-color="#f3f5ba"
         offset=".63235"
         id="stop3" />
      <stop
         stop-color="#929470"
         offset="1"
         id="stop4" />
    </linearGradient>
    <linearGradient
       id="e20393">
      <stop
         stop-color="#fff"
         offset="0"
         id="stop5" />
      <stop
         stop-color="#fff"
         stop-opacity=".44118"
         offset=".41176"
         id="stop6" />
      <stop
         stop-opacity=".48039"
         offset="1"
         id="stop7" />
    </linearGradient>
    <linearGradient
       id="e19894"
       y2="37.227001"
       gradientUnits="userSpaceOnUse"
       x2="30.17"
       y1="37.227001"
       x1="18.995001">
      <stop
         stop-color="#A3A349"
         offset=".005618"
         id="stop8" />
      <stop
         stop-color="#ACAC54"
         offset=".020787"
         id="stop9" />
      <stop
         stop-color="#C1C172"
         offset=".066001"
         id="stop10" />
      <stop
         stop-color="#D4D68E"
         offset=".1148"
         id="stop11" />
      <stop
         stop-color="#E2E4A6"
         offset=".1677"
         id="stop12" />
      <stop
         stop-color="#EDF0B8"
         offset=".2265"
         id="stop13" />
      <stop
         stop-color="#F3F6C3"
         offset=".2963"
         id="stop14" />
      <stop
         stop-color="#F5F8C7"
         offset=".4045"
         id="stop15" />
      <stop
         stop-color="#EEF0BE"
         offset=".5239"
         id="stop16" />
      <stop
         stop-color="#DBDDA9"
         offset=".6666"
         id="stop17" />
      <stop
         stop-color="#BEBD88"
         offset=".8211"
         id="stop18" />
      <stop
         stop-color="#989564"
         offset=".9832"
         id="stop19" />
      <stop
         stop-color="#949160"
         offset="1"
         id="stop20" />
    </linearGradient>
    <radialGradient
       id="radialGradient20216"
       cx="14.772"
       gradientUnits="userSpaceOnUse"
       cy="74.209999"
       r="7.829"
       gradientTransform="matrix(2.11222,0,0,0.62268648,-14.72556,-5.237409)">
      <stop
         stop-opacity=".51546"
         offset="0"
         id="stop21" />
      <stop
         stop-opacity=".14433"
         offset=".55172"
         id="stop22" />
      <stop
         stop-opacity="0"
         offset="1"
         id="stop23" />
    </radialGradient>
    <linearGradient
       id="e4100"
       y2="43.165001"
       gradientUnits="userSpaceOnUse"
       x2="26.478001"
       gradientTransform="matrix(1.6391,0,0,1.6391,-15.97,-29.794)"
       y1="43.165001"
       x1="23.124001">
      <stop
         stop-color="#686868"
         offset=".005618"
         id="stop24" />
      <stop
         stop-color="#777"
         offset=".030121"
         id="stop25" />
      <stop
         stop-color="#929292"
         offset=".083666"
         id="stop26" />
      <stop
         stop-color="#A7A7A7"
         offset=".1422"
         id="stop27" />
      <stop
         stop-color="#B6B6B6"
         offset=".2074"
         id="stop28" />
      <stop
         stop-color="#BEBEBE"
         offset=".2846"
         id="stop29" />
      <stop
         stop-color="#C1C1C1"
         offset=".4045"
         id="stop30" />
      <stop
         stop-color="#BCBCBC"
         offset=".4962"
         id="stop31" />
      <stop
         stop-color="#ADADAD"
         offset=".6057"
         id="stop32" />
      <stop
         stop-color="#959595"
         offset=".7245"
         id="stop33" />
      <stop
         stop-color="#747474"
         offset=".8497"
         id="stop34" />
      <stop
         stop-color="#494949"
         offset=".9789"
         id="stop35" />
      <stop
         stop-color="#414141"
         offset="1"
         id="stop36" />
    </linearGradient>
    <linearGradient
       id="e4102"
       y2="26.74"
       gradientUnits="userSpaceOnUse"
       x2="24.613001"
       gradientTransform="scale(1.0027,0.99735)"
       y1="31.146"
       x1="24.613001">
      <stop
         stop-color="#4c4c28"
         offset="0"
         id="stop37" />
      <stop
         stop-color="#4c4c28"
         stop-opacity="0"
         offset="1"
         id="stop38" />
    </linearGradient>
    <linearGradient
       id="e4104"
       y2="38.675999"
       xlink:href="#e19894"
       gradientUnits="userSpaceOnUse"
       x2="-4.3908"
       gradientTransform="matrix(0.56662,0.02989,-0.11856,0.65654,36.185,20.083)"
       y1="38.675999"
       x1="-22.874001" />
    <linearGradient
       id="e4106"
       y2="39.143002"
       xlink:href="#e2399"
       gradientUnits="userSpaceOnUse"
       x2="-23.851"
       gradientTransform="matrix(0.56662,0.02989,-0.11856,0.65654,36.185,20.083)"
       y1="39.034"
       x1="-10.481" />
    <linearGradient
       id="e4108"
       y2="38.675999"
       xlink:href="#e19894"
       gradientUnits="userSpaceOnUse"
       x2="-4.3908"
       gradientTransform="scale(1.0264,0.97423)"
       y1="38.675999"
       x1="-22.874001" />
    <linearGradient
       id="e4110"
       y2="39.143002"
       xlink:href="#e2399"
       gradientUnits="userSpaceOnUse"
       x2="-23.851"
       gradientTransform="scale(1.0264,0.97423)"
       y1="39.034"
       x1="-10.481" />
    <linearGradient
       id="e4116"
       y2="38.675999"
       xlink:href="#e19894"
       gradientUnits="userSpaceOnUse"
       x2="-4.3908"
       gradientTransform="matrix(0.61868,-0.13203,0.062627,0.74118,31.12,8.3004)"
       y1="38.675999"
       x1="-22.874001" />
    <linearGradient
       id="e4118"
       y2="39.143002"
       xlink:href="#e2399"
       gradientUnits="userSpaceOnUse"
       x2="-23.851"
       gradientTransform="matrix(0.61868,-0.13203,0.062627,0.74118,31.12,8.3004)"
       y1="39.034"
       x1="-10.481" />
    <linearGradient
       id="e4120"
       y2="54.862999"
       gradientUnits="userSpaceOnUse"
       x2="11.906"
       gradientTransform="matrix(1.6034,0,0,0.5494,0.61417,0.024498)"
       y1="55.362999"
       x1="17.879999">
      <stop
         stop-color="#d6d7a5"
         offset="0"
         id="stop39" />
      <stop
         stop-color="#8e8f6d"
         offset="1"
         id="stop40" />
    </linearGradient>
    <linearGradient
       id="e4122"
       y2="-29.598"
       gradientUnits="userSpaceOnUse"
       x2="-37.640999"
       gradientTransform="matrix(-0.90573,-0.043862,0.18951,-0.96344,0.61417,0.024498)"
       y1="-29.799"
       x1="-29.007">
      <stop
         stop-color="#929470"
         offset="0"
         id="stop41" />
      <stop
         stop-color="#60614a"
         offset=".26471"
         id="stop42" />
      <stop
         stop-color="#f3f5ba"
         offset=".63235"
         id="stop43" />
      <stop
         stop-color="#929470"
         offset="1"
         id="stop44" />
    </linearGradient>
    <radialGradient
       id="radialGradient4124"
       gradientUnits="userSpaceOnUse"
       cy="29.868999"
       cx="68.138"
       gradientTransform="matrix(0.55129,0,0,0.76603,-10.487,3.5143)"
       r="33.933998">
      <stop
         stop-color="#fff"
         stop-opacity=".17526"
         offset="0"
         id="stop45" />
      <stop
         stop-color="#709ac8"
         offset="0.882"
         id="stop46" />
      <stop
         stop-color="#6f96dd"
         offset="1"
         id="stop47" />
    </radialGradient>
    <linearGradient
       id="e4126"
       y2="3.8557"
       gradientUnits="userSpaceOnUse"
       x2="-5.2516999"
       gradientTransform="matrix(0.89413,0,0,0.98523,1.516,0.024498)"
       y1="16.652"
       x1="37.939999">
      <stop
         stop-color="#f1f3ff"
         offset="0"
         id="stop48" />
      <stop
         stop-color="#f1f3ff"
         stop-opacity="0"
         offset="1"
         id="stop49" />
    </linearGradient>
    <linearGradient
       id="e4128"
       y2="18.163"
       xlink:href="#e20393"
       gradientUnits="userSpaceOnUse"
       x2="32.166"
       gradientTransform="matrix(-0.6293,0,0,1.5891,50.688,3.8044)"
       y1="10.314"
       x1="30.620001" />
    <linearGradient
       id="e4130"
       y2="18.163"
       xlink:href="#e20393"
       gradientUnits="userSpaceOnUse"
       x2="32.166"
       gradientTransform="matrix(0.6293,0,0,1.5891,1.4116,3.9294)"
       y1="10.314"
       x1="30.620001" />
    <linearGradient
       id="e4132"
       y2="32.250999"
       gradientUnits="userSpaceOnUse"
       x2="9.3648005"
       gradientTransform="matrix(1.9851,0,0,0.50376,1.7866,4.5544)"
       y1="31.504"
       x1="14.637">
      <stop
         stop-color="#a3a3a3"
         offset="0"
         id="stop50" />
      <stop
         stop-color="#b5b5b5"
         stop-opacity="0"
         offset="1"
         id="stop51" />
    </linearGradient>
    <linearGradient
       id="e4134"
       y2="36.726002"
       gradientUnits="userSpaceOnUse"
       x2="32.097"
       gradientTransform="matrix(1.1405,0,0,0.926,0.27233,-3.2472)"
       y1="10.061"
       x1="16.999001">
      <stop
         stop-color="#fff"
         offset="0"
         id="stop52" />
      <stop
         stop-color="#fff"
         stop-opacity="0"
         offset="1"
         id="stop53" />
    </linearGradient>
    <linearGradient
       inkscape:collect="always"
       xlink:href="#e19894"
       id="linearGradient72"
       gradientUnits="userSpaceOnUse"
       gradientTransform="scale(1.0264,0.97423)"
       x1="-22.874001"
       y1="38.675999"
       x2="-4.3908"
       y2="38.675999" />
    <linearGradient
       inkscape:collect="always"
       xlink:href="#e2399"
       id="linearGradient73"
       gradientUnits="userSpaceOnUse"
       gradientTransform="scale(1.0264,0.97423)"
       x1="-10.481"
       y1="39.034"
       x2="-23.851"
       y2="39.143002" />
  </defs>
  <path
     opacity="0.8"
     d="m 33.04272,41.013651 a 16.52136,4.83384 0 1 1 -33.04272,0 16.52136,4.83384 0 1 1 33.04272,0 z"
     stroke-width="2.29368"
     fill="url(#radialGradient20216)"
     id="path53"
     style="fill:url(#radialGradient20216)" />
  <g
     transform="translate(-8.52396,-1.027909)"
     id="g72">
    <path
       d="m 21.9,38.9 v 1.5 c 0,1.4 1.3,2.7 2.8,2.7 1.5,0 2.8,-1.3 2.8,-2.7 v -1.5 z"
       transform="matrix(1.0758,0,0,0.93749,-2.5513,3.0472)"
       stroke="#565656"
       fill="url(#e4100)"
       id="path54"
       style="fill:url(#e4100)" />
    <g
       transform="matrix(0.98907,0,0,0.99356,-0.40874,0.0079205)"
       id="g64">
      <path
         d="m 24.5,27.7 c -3.3,0 -7,0.9 -5,2.8 -0.5,0.2 -1.2,0.6 -1.1,1.7 0,0.5 0.6,0.9 1.4,1.1 -0.9,0.7 -1.5,1.3 -1.4,2 0,0.5 0.6,0.9 1.4,1.1 -0.9,0.7 -1.5,1.4 -1.4,2 0,0.9 2.1,2 6.4,1.8 3.2,0 6,-0.6 6.2,-1.8 0.1,-0.5 -0.3,-0.9 -0.9,-1.3 0.4,-0.5 0.8,-1 0.7,-1.4 0,-0.5 -0.6,-0.9 -1.4,-1.2 0.9,-0.6 1.5,-1.3 1.4,-1.9 0,-0.6 -0.6,-0.9 -1.4,-1.1 0.9,-0.7 1.5,-1.4 1.4,-2 0,-0.7 -3.2,-1.8 -6.3,-1.8 z"
         stroke="url(#e4102)"
         stroke-width="2.0175"
         fill="#aeae57"
         id="path55"
         style="stroke:url(#e4102)" />
      <path
         d="m 30.9,38.3 c -0.2,1.2 -3.3,1.9 -8.3,1.7 -3.1,-0.2 -3.3,-1.1 -3.1,-2.3 0.2,-1.2 3,-2 6.1,-1.9 3.2,0.2 5.5,1.3 5.3,2.5 z"
         stroke="url(#e4106)"
         stroke-width="0.089063"
         fill="url(#e4104)"
         id="path56"
         style="fill:url(#e4104);stroke:url(#e4106)" />
      <path
         d="m -3.5,27.2 a 10.35,3.3160194 0 1 1 -20.7,0 10.35,3.3160194 0 1 1 20.7,0 z"
         transform="matrix(0.60274,-0.12862,0.064284,0.76079,31.12,14.491)"
         stroke="url(#e4110)"
         stroke-width="0.13035"
         fill="url(#e4108)"
         id="path57"
         style="fill:url(#linearGradient72);stroke:url(#linearGradient73)" />
      <path
         d="m -3.5,27.2 a 10.35,3.3160194 0 1 1 -20.7,0 10.35,3.3160194 0 1 1 20.7,0 z"
         transform="matrix(0.60274,-0.12862,0.064284,0.76079,31.12,11.396)"
         stroke="url(#e4110)"
         stroke-width="0.13035"
         fill="url(#e4108)"
         id="path58"
         style="fill:url(#e4108);stroke:url(#e4110)" />
      <path
         d="m 30.7,29.6 c 0,1.4 -2.5,3 -6,3.7 -3.4,0.7 -6.3,0.2 -6.4,-1.2 -0.1,-1.3 2.2,-2.9 5.7,-3.1 3.4,-0.2 6.7,-0.1 6.7,0.6 z"
         stroke="url(#e4118)"
         stroke-width="0.089063"
         fill="url(#e4116)"
         id="path59"
         style="fill:url(#e4116);stroke:url(#e4118)" />
      <path
         d="m 31,22.4 a 3.3,3.3 0 1 1 -6.5,0 3.3,3.3 0 1 1 6.5,0 z"
         transform="matrix(0.33546,0,0,0.33546,11.747,27.226)"
         stroke-width="2"
         fill="#ffffff"
         id="path60" />
      <path
         fill-opacity="0.23392"
         stroke-width="1px"
         d="m 19.3,33.4 c 3.4,0.5 7,-0.1 9.9,-1.9 0.8,-0.6 0.9,-1.2 1.3,-1.6 -1.4,1.1 -5,4.1 -11.2,3.5 z"
         id="path61" />
      <path
         d="m 31,22.4 a 3.3,3.3 0 1 1 -6.5,0 3.3,3.3 0 1 1 6.5,0 z"
         transform="matrix(0.33546,0,0,0.33546,11.747,30.234)"
         stroke-width="2"
         fill="#ffffff"
         id="path62" />
      <path
         fill-opacity="0.23392"
         stroke-width="1px"
         d="m 19.5,39.5 c 3.4,0.5 6.9,0 9.8,-1.9 0.9,-0.5 1,-1.1 1.3,-1.6 -1.4,1.1 -5,4.2 -11.1,3.5 z"
         id="path63" />
      <path
         fill-opacity="0.23392"
         stroke-width="1px"
         d="m 19.5,36.4 c 3.4,0.5 7,0 9.9,-1.9 0.8,-0.5 0.9,-1.1 1.3,-1.6 -1.5,1.1 -5.1,4.2 -11.2,3.5 z"
         id="path64" />
    </g>
    <g
       transform="translate(-0.9888)"
       id="g71">
      <path
         d="m 18.9,29.6 c 0,-0.8 1.5,-1.7 5.5,-1.7 3.7,0.1 6.1,0.9 6.1,2.2 0,1.2 -3.2,2.1 -6.6,1.9 -3.5,-0.2 -5,-1.1 -5,-2.4 z"
         transform="matrix(0.95444,0,0,0.98987,1.4332,0.63988)"
         stroke="url(#e4122)"
         stroke-width="0.090833"
         fill="url(#e4120)"
         id="path65"
         style="fill:url(#e4120);stroke:url(#e4122)" />
      <path
         d="m 24.7,0.9 c -7.8,0 -14.2,5.9 -14.2,13.3 0,7.5 5.7,8.4 5.7,11.2 0,3.2 3.4,6.9 8.9,6.8 5.9,-0.2 8.4,-3.4 8.4,-6.8 0,-3 5.4,-3.1 5.4,-11.2 C 38.9,6.8 32.5,0.9 24.7,0.9 Z"
         transform="matrix(0.95444,0,0,0.98987,1.4332,0.63988)"
         stroke="#616471"
         stroke-width="1.016"
         fill="url(#radialGradient4124)"
         id="path66"
         style="fill:url(#radialGradient4124)" />
      <path
         d="m 24.7,1.9 c -7.3,0 -13.2,5.6 -13.2,12.5 0,7 5.3,7.8 5.3,10.4 0,3 3.2,6.4 8.3,6.3 5.5,-0.1 7.8,-3.1 7.8,-6.3 0,-2.8 5,-2.9 5,-10.4 C 37.9,7.5 32,1.9 24.7,1.9 Z"
         transform="matrix(0.95444,0,0,0.98987,1.4332,0.63988)"
         stroke="url(#e4126)"
         stroke-width="0.94686"
         fill="none"
         id="path67"
         style="stroke:url(#e4126)" />
      <g
         transform="matrix(0.9375,0,0,0.92694,0.56922,0.25176)"
         id="g70">
        <path
           fill="url(#e4128)"
           d="m 31.9,19.2 c 0.4,0.1 0.6,0.4 0.5,0.8 l -3.9,11.5 c -0.1,0.3 -0.4,0.5 -0.7,0.4 -0.3,-0.1 -0.5,-0.4 -0.4,-0.7 l 3.8,-11.6 c 0.1,-0.3 0.4,-0.5 0.7,-0.4 z"
           id="path68"
           style="fill:url(#e4128)" />
        <path
           fill="url(#e4130)"
           d="m 20.2,19.3 c -0.4,0.2 -0.6,0.5 -0.5,0.8 l 3.9,11.5 c 0.1,0.4 0.4,0.6 0.7,0.5 0.3,-0.1 0.5,-0.5 0.4,-0.8 L 20.9,19.8 c -0.1,-0.3 -0.4,-0.6 -0.7,-0.5 z"
           id="path69"
           style="fill:url(#e4130)" />
        <path
           d="m 20.3,19.3 c -0.3,0 -0.5,0.2 -0.5,0.5 -0.1,0.2 0.1,0.4 0.3,0.6 0,0 1.8,1 4.2,1.6 2.4,0.5 5.5,0.6 7.8,-1.7 0.2,-0.1 0.3,-0.4 0.2,-0.6 0,-0.2 -0.2,-0.4 -0.4,-0.4 -0.2,-0.1 -0.4,0 -0.6,0.2 -1.9,1.9 -4.5,1.9 -6.7,1.4 -2.2,-0.5 -3.9,-1.5 -3.9,-1.5 -0.2,-0.1 -0.3,-0.1 -0.4,-0.1 z"
           stroke="url(#e4132)"
           stroke-width="0.21455"
           fill="#ffffff"
           id="path70"
           style="stroke:url(#e4132)" />
      </g>
      <path
         opacity="0.59777"
         d="m 25,3.6 c -6.3,0 -11.3,4 -11.3,8.9 0,2 0.9,3.8 2.3,5.2 1.6,0.7 3.2,1.1 5.1,1.1 6.3,0 11.4,-4 11.4,-9 0,-1.9 -1,-3.7 -2.4,-5.2 C 28.5,4 26.9,3.6 25,3.6 Z"
         transform="matrix(0.95444,0,0,0.98987,1.4332,0.63988)"
         stroke-width="0.9875"
         fill="url(#e4134)"
         id="path71"
         style="fill:url(#e4134)" />
    </g>
  </g>
</svg>
