<?xml version="1.0" encoding="UTF-8"?>
<svg xmlns="http://www.w3.org/2000/svg" xmlns:xlink="http://www.w3.org/1999/xlink" width="25.08" height="24.72" viewBox="0 0 25.08 24.72">
<path fill-rule="nonzero" fill="rgb(20%, 40%, 80%)" fill-opacity="1" d="M 17.976562 0.0507812 C 14.605469 0.0507812 12.199219 3.101562 9.789062 5.347656 C 10.113281 5.347656 10.59375 5.1875 11.074219 5.1875 C 11.878906 5.1875 12.679688 5.347656 13.484375 5.667969 C 14.769531 4.382812 16.050781 2.941406 17.976562 2.941406 C 18.941406 2.941406 20.066406 3.421875 20.867188 4.0625 C 22.472656 5.667969 22.472656 8.238281 20.867188 9.84375 L 16.695312 14.015625 C 16.050781 14.65625 14.769531 15.140625 13.804688 15.140625 C 11.558594 15.140625 10.433594 13.691406 9.632812 11.925781 L 7.546875 14.015625 C 8.828125 16.421875 10.757812 18.1875 13.644531 18.1875 C 15.570312 18.1875 17.335938 17.386719 18.460938 16.101562 L 22.632812 11.925781 C 24.078125 10.484375 25.039062 8.71875 25.039062 6.628906 C 24.722656 3.101562 21.511719 0.0507812 17.976562 0.0507812 Z M 17.976562 0.0507812 "/>
<path fill-rule="nonzero" fill="rgb(20%, 40%, 80%)" fill-opacity="1" d="M 11.074219 19.472656 L 9.632812 20.917969 C 8.992188 21.558594 7.707031 22.039062 6.742188 22.039062 C 5.777344 22.039062 4.65625 21.5625 3.851562 20.917969 C 2.246094 19.3125 2.246094 16.585938 3.851562 15.140625 L 8.027344 10.964844 C 8.667969 10.324219 9.953125 9.84375 10.917969 9.84375 C 13.164062 9.84375 14.285156 11.445312 15.089844 13.050781 L 17.175781 10.964844 C 15.890625 8.558594 13.964844 6.792969 11.074219 6.792969 C 9.148438 6.792969 7.382812 7.59375 6.261719 8.878906 L 2.085938 13.050781 C -0.644531 15.78125 -0.644531 20.113281 2.085938 22.679688 C 4.65625 25.25 9.148438 25.410156 11.558594 22.679688 L 14.605469 19.628906 C 14.125 19.792969 13.644531 19.792969 13.160156 19.792969 C 12.359375 19.792969 11.71875 19.792969 11.074219 19.472656 Z M 11.074219 19.472656 "/>
</svg>
