<?xml version="1.0" encoding="UTF-8"?>
<svg xmlns="http://www.w3.org/2000/svg" xmlns:xlink="http://www.w3.org/1999/xlink" width="455.8" height="460" viewBox="0 0 455.8 460">
<path fill-rule="nonzero" fill="rgb(100%, 100%, 100%)" fill-opacity="1" stroke-width="1" stroke-linecap="butt" stroke-linejoin="miter" stroke="rgb(0%, 0%, 0%)" stroke-opacity="1" stroke-miterlimit="4" d="M 32.90505 59.221001 L 223.077434 59.221001 C 240.897577 59.221001 255.344757 73.668181 255.344757 91.490872 L 255.344757 326.95113 C 255.344757 344.77382 240.897577 359.221001 223.077434 359.221001 L 32.90505 359.221001 C 15.082359 359.221001 0.635179 344.77382 0.635179 326.95113 L 0.635179 91.490872 C 0.635179 73.668181 15.082359 59.221001 32.90505 59.221001 Z M 32.90505 59.221001 " transform="matrix(1.533333, 0, 0, 1.533333, -0.130191, -90.805534)"/>
<path fill="none" stroke-width="2" stroke-linecap="round" stroke-linejoin="miter" stroke="rgb(50.196078%, 50.196078%, 50.196078%)" stroke-opacity="1" stroke-miterlimit="4" d="M 1123.600154 419.350205 L 1173.682184 419.712734 " transform="matrix(6.184853, 0, 0, 6.184853, -6907.95034, -2488.478793)"/>
<path fill="none" stroke-width="2" stroke-linecap="round" stroke-linejoin="miter" stroke="rgb(50.196078%, 50.196078%, 50.196078%)" stroke-opacity="1" stroke-miterlimit="4" d="M 1123.600154 459.350271 L 1135.122128 459.712799 " transform="matrix(6.184853, 0, 0, 6.184853, -6907.95034, -2488.478793)"/>
<path fill="none" stroke-width="2" stroke-linecap="round" stroke-linejoin="miter" stroke="rgb(50.196078%, 50.196078%, 50.196078%)" stroke-opacity="1" stroke-miterlimit="4" d="M 1123.600154 439.349922 L 1173.682184 439.713082 " transform="matrix(6.184853, 0, 0, 6.184853, -6907.95034, -2488.478793)"/>
<path fill-rule="nonzero" fill="rgb(82.745098%, 55.294118%, 37.254902%)" fill-opacity="1" d="M 228.460938 323.707031 L 152.199219 247.445312 L 120.355469 355.550781 Z M 228.460938 323.707031 "/>
<path fill-rule="nonzero" fill="rgb(100%, 80%, 0%)" fill-opacity="1" d="M 425.261719 126.90625 L 349 50.644531 L 152.199219 247.445312 L 228.460938 323.707031 Z M 425.261719 126.90625 "/>
<path fill-rule="nonzero" fill="rgb(50.196078%, 0%, 0%)" fill-opacity="1" d="M 434.273438 41.625 C 406.984375 14.339844 378.648438 20.988281 378.648438 20.988281 L 348.992188 50.644531 L 425.253906 126.910156 L 454.910156 97.253906 C 454.910156 97.253906 461.5625 68.914062 434.273438 41.628906 Z M 434.273438 41.625 "/>
<path fill-rule="nonzero" fill="rgb(30.196078%, 30.196078%, 30.196078%)" fill-opacity="1" d="M 148.339844 347.5 L 128.707031 327.867188 L 120.382812 355.570312 Z M 148.339844 347.5 "/>
<path fill-rule="nonzero" fill="rgb(0%, 0%, 0%)" fill-opacity="1" d="M 363.335938 65.066406 L 385.203125 86.933594 L 188.402344 283.734375 L 166.535156 261.871094 Z M 363.335938 65.066406 "/>
<path fill-rule="nonzero" fill="rgb(0%, 0%, 0%)" fill-opacity="1" d="M 407.070312 108.800781 L 415.816406 117.546875 L 219.015625 314.351562 L 210.269531 305.601562 Z M 407.070312 108.800781 "/>
<path fill-rule="nonzero" fill="rgb(100%, 100%, 100%)" fill-opacity="1" d="M 375.230469 24.308594 L 451.488281 100.566406 L 447.117188 104.9375 L 370.859375 28.679688 Z M 375.230469 24.308594 "/>
<path fill-rule="nonzero" fill="rgb(87.058824%, 66.666667%, 52.941176%)" fill-opacity="1" d="M 160.847656 256.183594 L 180.277344 275.613281 L 139.472656 338.726562 L 133.535156 332.792969 Z M 160.847656 256.183594 "/>
</svg>
