<?xml version="1.0" encoding="UTF-8"?>
<svg xmlns="http://www.w3.org/2000/svg" xmlns:xlink="http://www.w3.org/1999/xlink" width="119.956772" height="192.330692" viewBox="0 0 119.956772 192.330692">
<defs>
<linearGradient id="linear-pattern-0" gradientUnits="userSpaceOnUse" x1="121.349998" y1="307.839996" x2="136.399994" y2="308.829987" gradientTransform="matrix(2.4178, 0, 0, 2.7563, -294.73999, -745.299988)">
<stop offset="0" stop-color="rgb(0%, 0%, 0%)" stop-opacity="1"/>
<stop offset="1" stop-color="rgb(82.352941%, 82.352941%, 66.666667%)" stop-opacity="1"/>
</linearGradient>
<linearGradient id="linear-pattern-1" gradientUnits="userSpaceOnUse" x1="147.889999" y1="268.700012" x2="149.059998" y2="287.589996" gradientTransform="matrix(2.4178, 0, 0, 2.7563, -294.73999, -745.299988)">
<stop offset="0" stop-color="rgb(0%, 0%, 0%)" stop-opacity="1"/>
<stop offset="1" stop-color="rgb(82.352941%, 82.352941%, 66.666667%)" stop-opacity="1"/>
</linearGradient>
<radialGradient id="radial-pattern-0" gradientUnits="userSpaceOnUse" cx="193.75" cy="381.670013" fx="193.75" fy="381.670013" r="41.034" gradientTransform="matrix(0.60183, -0.80959, 0.93204, 0.69286, -392.130005, 52.669998)">
<stop offset="0" stop-color="rgb(96.862745%, 100%, 100%)" stop-opacity="1"/>
<stop offset="1" stop-color="rgb(0%, 0%, 0%)" stop-opacity="1"/>
</radialGradient>
<radialGradient id="radial-pattern-1" gradientUnits="userSpaceOnUse" cx="190.029999" cy="367.179993" fx="190.029999" fy="367.179993" r="10.369" gradientTransform="matrix(0.46251, 0.49848, -1.6173, 1.5006, 595.320007, -494.200012)">
<stop offset="0" stop-color="rgb(80.392157%, 81.176471%, 82.352941%)" stop-opacity="1"/>
<stop offset="1" stop-color="rgb(65.490196%, 66.666667%, 66.666667%)" stop-opacity="1"/>
</radialGradient>
<radialGradient id="radial-pattern-2" gradientUnits="userSpaceOnUse" cx="190.029999" cy="367.179993" fx="190.029999" fy="367.179993" r="10.369" gradientTransform="matrix(0.46251, 0.49848, -1.6173, 1.5006, 585.320007, -578.299988)">
<stop offset="0" stop-color="rgb(80.392157%, 81.176471%, 82.352941%)" stop-opacity="1"/>
<stop offset="1" stop-color="rgb(65.490196%, 66.666667%, 66.666667%)" stop-opacity="1"/>
</radialGradient>
<radialGradient id="radial-pattern-3" gradientUnits="userSpaceOnUse" cx="179" cy="384.98999" fx="179" fy="384.98999" r="2.5" gradientTransform="matrix(1, 0, 0, 0.55, -107.949997, -39.054001)">
<stop offset="0" stop-color="rgb(80.392157%, 81.176471%, 82.352941%)" stop-opacity="1"/>
<stop offset="1" stop-color="rgb(65.490196%, 66.666667%, 66.666667%)" stop-opacity="1"/>
</radialGradient>
<radialGradient id="radial-pattern-4" gradientUnits="userSpaceOnUse" cx="194.809998" cy="397.76001" fx="194.809998" fy="397.76001" r="9.3125" gradientTransform="matrix(1.2289, 0.0010499, -0.00040341, 0.47276, -44.806, 199.429993)">
<stop offset="0" stop-color="rgb(80.392157%, 81.176471%, 82.352941%)" stop-opacity="1"/>
<stop offset="1" stop-color="rgb(65.490196%, 66.666667%, 66.666667%)" stop-opacity="1"/>
</radialGradient>
<radialGradient id="radial-pattern-5" gradientUnits="userSpaceOnUse" cx="179" cy="384.98999" fx="179" fy="384.98999" r="2.5" gradientTransform="matrix(1, 0, 0, 0.55, -117.550003, -123.269997)">
<stop offset="0" stop-color="rgb(80.392157%, 81.176471%, 82.352941%)" stop-opacity="1"/>
<stop offset="1" stop-color="rgb(65.490196%, 66.666667%, 66.666667%)" stop-opacity="1"/>
</radialGradient>
<radialGradient id="radial-pattern-6" gradientUnits="userSpaceOnUse" cx="194.809998" cy="397.76001" fx="194.809998" fy="397.76001" r="9.3125" gradientTransform="matrix(1.2289, 0.0010499, -0.00040341, 0.47276, -44.806, 199.429993)">
<stop offset="0" stop-color="rgb(80.392157%, 81.176471%, 82.352941%)" stop-opacity="1"/>
<stop offset="1" stop-color="rgb(65.490196%, 66.666667%, 66.666667%)" stop-opacity="1"/>
</radialGradient>
</defs>
<path fill-rule="evenodd" fill="url(#linear-pattern-0)" stroke-width="1" stroke-linecap="butt" stroke-linejoin="miter" stroke="rgb(0%, 0%, 0%)" stroke-opacity="1" stroke-miterlimit="4" d="M 33.824162 45.210161 L 33.824162 198.928911 L 11.550725 152.010942 L 11.9101 14.698442 Z M 33.824162 45.210161 " transform="matrix(1, 0, 0, 1, -10.996037, -12.995317)"/>
<path fill-rule="evenodd" fill="url(#linear-pattern-1)" stroke-width="1" stroke-linecap="butt" stroke-linejoin="miter" stroke="rgb(0%, 0%, 0%)" stroke-opacity="1" stroke-miterlimit="4" d="M 12.31635 13.577348 L 97.171819 14.260942 L 125.011662 46.00313 L 34.257756 44.850786 Z M 12.31635 13.577348 " transform="matrix(1, 0, 0, 1, -10.996037, -12.995317)"/>
<path fill-rule="evenodd" fill="rgb(85.882353%, 85.882353%, 69.803922%)" fill-opacity="1" stroke-width="1" stroke-linecap="butt" stroke-linejoin="miter" stroke="rgb(0%, 0%, 0%)" stroke-opacity="1" stroke-miterlimit="4" d="M 33.824162 45.210161 L 125.011662 45.210161 L 125.011662 197.97188 L 33.824162 198.768755 Z M 33.824162 45.210161 " transform="matrix(1, 0, 0, 1, -10.996037, -12.995317)"/>
<path fill-rule="evenodd" fill="url(#radial-pattern-0)" stroke-width="1" stroke-linecap="butt" stroke-linejoin="miter" stroke="rgb(0%, 0%, 0%)" stroke-opacity="1" stroke-miterlimit="4" d="M 39.679631 125.608598 L 120.746037 125.608598 L 120.746037 194.90938 L 39.679631 194.90938 Z M 39.679631 125.608598 " transform="matrix(1, 0, 0, 1, -10.996037, -12.995317)"/>
<path fill-rule="evenodd" fill="rgb(67.843137%, 67.843137%, 28.235294%)" fill-opacity="1" stroke-width="1" stroke-linecap="round" stroke-linejoin="round" stroke="rgb(0%, 0%, 0%)" stroke-opacity="1" stroke-miterlimit="4" d="M 40.792912 128.030473 L 119.988225 128.030473 L 119.988225 181.061723 L 40.792912 181.061723 Z M 40.792912 128.030473 " transform="matrix(1, 0, 0, 1, -10.996037, -12.995317)"/>
<path fill-rule="evenodd" fill="rgb(67.843137%, 67.843137%, 28.235294%)" fill-opacity="1" stroke-width="1" stroke-linecap="round" stroke-linejoin="round" stroke="rgb(0%, 0%, 0%)" stroke-opacity="1" stroke-miterlimit="4" d="M 43.617131 130.678911 L 122.81635 130.678911 L 122.81635 183.714067 L 43.617131 183.714067 Z M 43.617131 130.678911 " transform="matrix(1, 0, 0, 1, -10.996037, -12.995317)"/>
<path fill-rule="evenodd" fill="rgb(67.843137%, 67.843137%, 28.235294%)" fill-opacity="1" stroke-width="1" stroke-linecap="round" stroke-linejoin="round" stroke="rgb(0%, 0%, 0%)" stroke-opacity="1" stroke-miterlimit="4" d="M 46.800725 133.151567 L 125.996037 133.151567 L 125.996037 186.182817 L 46.800725 186.182817 Z M 46.800725 133.151567 " transform="matrix(1, 0, 0, 1, -10.996037, -12.995317)"/>
<path fill-rule="evenodd" fill="rgb(67.843137%, 67.843137%, 54.901961%)" fill-opacity="1" stroke-width="0.79556" stroke-linecap="butt" stroke-linejoin="miter" stroke="rgb(0%, 0%, 0%)" stroke-opacity="1" stroke-miterlimit="4" d="M 51.218694 203.47188 L 39.554631 190.229692 L 39.554631 161.241411 L 53.343694 179.370317 Z M 51.218694 203.47188 " transform="matrix(1, 0, 0, 1, -10.996037, -12.995317)"/>
<path fill-rule="evenodd" fill="rgb(82.352941%, 82.352941%, 66.666667%)" fill-opacity="1" stroke-width="1" stroke-linecap="butt" stroke-linejoin="miter" stroke="rgb(0%, 0%, 0%)" stroke-opacity="1" stroke-miterlimit="4" d="M 49.242131 135.550005 L 130.312444 135.550005 L 130.312444 204.850786 L 49.242131 204.850786 Z M 49.242131 135.550005 " transform="matrix(1, 0, 0, 1, -10.996037, -12.995317)"/>
<path fill-rule="evenodd" fill="rgb(82.352941%, 82.352941%, 66.666667%)" fill-opacity="1" stroke-width="1" stroke-linecap="butt" stroke-linejoin="miter" stroke="rgb(0%, 0%, 0%)" stroke-opacity="1" stroke-miterlimit="4" d="M 38.699162 50.882036 L 119.769475 50.882036 L 119.769475 120.182817 L 38.699162 120.182817 Z M 38.699162 50.882036 " transform="matrix(1, 0, 0, 1, -10.996037, -12.995317)"/>
<path fill="none" stroke-width="3.5919" stroke-linecap="butt" stroke-linejoin="miter" stroke="rgb(0%, 0%, 0%)" stroke-opacity="1" stroke-miterlimit="4" d="M 80.320256 145.389848 L 98.421819 145.389848 L 98.421819 157.827348 L 80.320256 157.827348 Z M 80.320256 145.389848 " transform="matrix(1, 0, 0, 1, -10.996037, -12.995317)"/>
<path fill="none" stroke-width="2" stroke-linecap="butt" stroke-linejoin="miter" stroke="url(#radial-pattern-1)" stroke-miterlimit="4" d="M 80.00385 145.151567 L 98.742131 145.151567 L 98.742131 157.87813 L 80.00385 157.87813 Z M 80.00385 145.151567 " transform="matrix(1, 0, 0, 1, -10.996037, -12.995317)"/>
<path fill="none" stroke-width="3.5919" stroke-linecap="butt" stroke-linejoin="miter" stroke="rgb(0%, 0%, 0%)" stroke-opacity="1" stroke-miterlimit="4" d="M 70.320256 61.28438 L 88.421819 61.28438 L 88.421819 73.725786 L 70.320256 73.725786 Z M 70.320256 61.28438 " transform="matrix(1, 0, 0, 1, -10.996037, -12.995317)"/>
<path fill="none" stroke-width="2" stroke-linecap="butt" stroke-linejoin="miter" stroke="url(#radial-pattern-2)" stroke-miterlimit="4" d="M 70.00385 61.053911 L 88.742131 61.053911 L 88.742131 73.780473 L 70.00385 73.780473 Z M 70.00385 61.053911 " transform="matrix(1, 0, 0, 1, -10.996037, -12.995317)"/>
<path fill-rule="evenodd" fill="url(#radial-pattern-3)" stroke-width="0.2" stroke-linecap="butt" stroke-linejoin="miter" stroke="rgb(0%, 0%, 0%)" stroke-opacity="1" stroke-miterlimit="4" d="M 68.546819 171.311723 L 73.546819 171.311723 L 73.546819 174.061723 L 68.546819 174.061723 Z M 68.546819 171.311723 " transform="matrix(1, 0, 0, 1, -10.996037, -12.995317)"/>
<path fill-rule="evenodd" fill="rgb(58.823529%, 58.823529%, 58.823529%)" fill-opacity="1" stroke-width="0.2" stroke-linecap="round" stroke-linejoin="round" stroke="rgb(0%, 0%, 0%)" stroke-opacity="1" stroke-miterlimit="4" d="M 185.410341 383.421403 C 185.499512 383.421403 186.619724 383.390153 186.619724 383.390153 L 188.380852 384.55031 L 202.311044 384.710466 L 200.66138 383.358903 L 201.720286 383.358903 L 203.659757 385.171403 L 203.620744 385.608903 L 187.971223 385.55031 L 185.410341 383.991716 Z M 185.410341 383.421403 " transform="matrix(1.4018, 0, 0, 1, -193.916036, -226.17531)"/>
<path fill-rule="evenodd" fill="url(#radial-pattern-4)" stroke-width="0.2" stroke-linecap="round" stroke-linejoin="round" stroke="rgb(0%, 0%, 0%)" stroke-opacity="1" stroke-miterlimit="6.3" d="M 185.379689 383.491716 L 187.999089 385.108903 L 203.620744 385.241716 L 203.620744 389.108903 L 187.999089 389.108903 L 185.379689 387.491716 Z M 185.379689 383.491716 " transform="matrix(1.4018, 0, 0, 1, -193.916036, -226.17531)"/>
<path fill-rule="evenodd" fill="rgb(60.392157%, 62.745098%, 61.176471%)" fill-opacity="1" stroke-width="0.2" stroke-linecap="butt" stroke-linejoin="round" stroke="rgb(0%, 0%, 0%)" stroke-opacity="1" stroke-miterlimit="4" d="M 200.588928 383.358903 L 200.619581 384.671403 L 202.249739 384.671403 Z M 200.588928 383.358903 " transform="matrix(1.4018, 0, 0, 1, -193.916036, -226.17531)"/>
<path fill="none" stroke-width="0.2" stroke-linecap="butt" stroke-linejoin="miter" stroke="rgb(57.647059%, 58.039216%, 56.470588%)" stroke-opacity="1" stroke-miterlimit="4" d="M 187.990729 385.198747 L 188.040888 388.999528 " transform="matrix(1.4018, 0, 0, 1, -193.916036, -226.17531)"/>
<path fill-rule="evenodd" fill="url(#radial-pattern-5)" stroke-width="0.2" stroke-linecap="butt" stroke-linejoin="miter" stroke="rgb(0%, 0%, 0%)" stroke-opacity="1" stroke-miterlimit="4" d="M 58.953069 87.09688 L 63.953069 87.09688 L 63.953069 89.84688 L 58.953069 89.84688 Z M 58.953069 87.09688 " transform="matrix(1, 0, 0, 1, -10.996037, -12.995317)"/>
<path fill-rule="evenodd" fill="rgb(58.823529%, 58.823529%, 58.823529%)" fill-opacity="1" stroke-width="0.2" stroke-linecap="round" stroke-linejoin="round" stroke="rgb(0%, 0%, 0%)" stroke-opacity="1" stroke-miterlimit="4" d="M 185.409231 383.418748 C 185.501189 383.418748 186.618614 383.391405 186.618614 383.391405 L 188.379742 384.551561 L 202.309934 384.711717 L 200.660269 383.360155 L 201.719176 383.360155 L 203.658646 385.168748 L 203.619634 385.610155 L 187.970112 385.551561 L 185.409231 383.989061 Z M 185.409231 383.418748 " transform="matrix(1.4018, 0, 0, 1, -203.516042, -310.395311)"/>
<path fill-rule="evenodd" fill="url(#radial-pattern-6)" stroke-width="0.2" stroke-linecap="round" stroke-linejoin="round" stroke="rgb(0%, 0%, 0%)" stroke-opacity="1" stroke-miterlimit="6.3" d="M 185.381365 383.489061 L 188.000765 385.110155 L 203.619634 385.239061 L 203.619634 389.110155 L 188.000765 389.110155 L 185.381365 387.489061 Z M 185.381365 383.489061 " transform="matrix(1.4018, 0, 0, 1, -203.516042, -310.395311)"/>
<path fill-rule="evenodd" fill="rgb(60.392157%, 62.745098%, 61.176471%)" fill-opacity="1" stroke-width="0.2" stroke-linecap="butt" stroke-linejoin="round" stroke="rgb(0%, 0%, 0%)" stroke-opacity="1" stroke-miterlimit="4" d="M 200.590605 383.360155 L 200.621257 384.668748 L 202.248629 384.668748 Z M 200.590605 383.360155 " transform="matrix(1.4018, 0, 0, 1, -203.516042, -310.395311)"/>
<path fill="none" stroke-width="0.2" stroke-linecap="butt" stroke-linejoin="miter" stroke="rgb(57.647059%, 58.039216%, 56.470588%)" stroke-opacity="1" stroke-miterlimit="4" d="M 187.989619 385.199998 L 188.039777 389.00078 " transform="matrix(1.4018, 0, 0, 1, -203.516042, -310.395311)"/>
</svg>
