<?xml version="1.0" encoding="UTF-8" standalone="no"?>
<!-- Created with Inkscape (http://www.inkscape.org/) -->

<svg
   id="svg2"
   height="46.463135"
   width="43.687428"
   version="1.0"
   sodipodi:docname="Gnome-system-run2.svg"
   inkscape:version="1.4.3 (0d15f75042, 2025-12-25)"
   xmlns:inkscape="http://www.inkscape.org/namespaces/inkscape"
   xmlns:sodipodi="http://sodipodi.sourceforge.net/DTD/sodipodi-0.dtd"
   xmlns:xlink="http://www.w3.org/1999/xlink"
   xmlns="http://www.w3.org/2000/svg"
   xmlns:svg="http://www.w3.org/2000/svg"
   xmlns:rdf="http://www.w3.org/1999/02/22-rdf-syntax-ns#"
   xmlns:cc="http://creativecommons.org/ns#"
   xmlns:dc="http://purl.org/dc/elements/1.1/">
  <sodipodi:namedview
     id="namedview1"
     pagecolor="#ffffff"
     bordercolor="#000000"
     borderopacity="0.25"
     inkscape:showpageshadow="2"
     inkscape:pageopacity="0.0"
     inkscape:pagecheckerboard="0"
     inkscape:deskcolor="#d1d1d1"
     inkscape:zoom="9.5625"
     inkscape:cx="20.601307"
     inkscape:cy="22.954248"
     inkscape:window-width="1366"
     inkscape:window-height="668"
     inkscape:window-x="0"
     inkscape:window-y="27"
     inkscape:window-maximized="1"
     inkscape:current-layer="svg2" />
  <defs
     id="defs4">
    <linearGradient
       id="linearGradient3198">
      <stop
         id="stop3200"
         offset="0" />
      <stop
         id="stop3202"
         stop-opacity="0"
         offset="1" />
    </linearGradient>
    <linearGradient
       id="linearGradient2892">
      <stop
         id="stop2894"
         stop-color="#fff"
         offset="0" />
      <stop
         id="stop2896"
         stop-color="#fff"
         stop-opacity="0"
         offset="1" />
    </linearGradient>
    <linearGradient
       id="linearGradient2903">
      <stop
         id="stop2905"
         stop-color="#888a85"
         offset="0" />
      <stop
         id="stop2907"
         stop-color="#d3d7cf"
         offset="1" />
    </linearGradient>
    <linearGradient
       id="linearGradient2895">
      <stop
         id="stop2897"
         stop-color="#d3d7cf"
         offset="0" />
      <stop
         id="stop2899"
         stop-color="#888a85"
         offset="1" />
    </linearGradient>
    <linearGradient
       id="linearGradient3112"
       y2="11.424"
       xlink:href="#linearGradient2903"
       gradientUnits="userSpaceOnUse"
       x2="12.641"
       gradientTransform="matrix(0.96593,-0.25882,0.25882,0.96593,7.2816,0.75564)"
       y1="35.311001"
       x1="22.965" />
    <linearGradient
       id="linearGradient3114"
       y2="52.505001"
       xlink:href="#linearGradient2892"
       gradientUnits="userSpaceOnUse"
       x2="17.028"
       gradientTransform="matrix(0.96593,-0.25882,0.25882,0.96593,7.2816,0.75564)"
       y1="7.8708"
       x1="17.413" />
    <radialGradient
       id="radialGradient3116"
       xlink:href="#linearGradient3198"
       gradientUnits="userSpaceOnUse"
       cy="12"
       cx="31"
       gradientTransform="matrix(0.97747,-0.26191,0.26191,0.97747,-2.4444,8.3897)"
       r="11.125" />
    <linearGradient
       id="linearGradient3118"
       y2="3.4233"
       xlink:href="#linearGradient2895"
       gradientUnits="userSpaceOnUse"
       x2="10.211"
       gradientTransform="matrix(0.90911,-0.24359,0.24359,0.90911,8.6768,1.4171)"
       y1="21.877001"
       x1="21.788" />
    <linearGradient
       id="linearGradient3120"
       y2="30.757999"
       xlink:href="#linearGradient2892"
       gradientUnits="userSpaceOnUse"
       x2="32.567001"
       gradientTransform="matrix(0.96593,-0.25882,0.25882,0.96593,-4.1168,6.7297)"
       y1="13.971"
       x1="16.488001" />
    <linearGradient
       id="linearGradient3122"
       y2="5.1875"
       xlink:href="#linearGradient2892"
       gradientUnits="userSpaceOnUse"
       x2="17.732"
       gradientTransform="matrix(0.96593,-0.25882,0.25882,0.96593,-4.1168,6.7296)"
       y1="22.795"
       x1="28.357" />
    <linearGradient
       id="linearGradient3171"
       y2="44.062"
       xlink:href="#linearGradient2892"
       gradientUnits="userSpaceOnUse"
       x2="30.438"
       y1="31.062"
       x1="14.375" />
    <linearGradient
       id="linearGradient3177"
       y2="30.900999"
       gradientUnits="userSpaceOnUse"
       x2="17.448999"
       y1="36.825001"
       x1="20.806999">
      <stop
         id="stop3073"
         stop-color="#eeeeec"
         offset="0" />
      <stop
         id="stop3075"
         stop-color="#eeeeec"
         stop-opacity="0"
         offset="1" />
    </linearGradient>
    <linearGradient
       id="linearGradient3179"
       y2="31.111"
       gradientUnits="userSpaceOnUse"
       x2="23.032"
       y1="36.68"
       x1="17.66">
      <stop
         id="stop3067"
         stop-color="#eeeeec"
         offset="0" />
      <stop
         id="stop3069"
         stop-color="#eeeeec"
         stop-opacity="0"
         offset="1" />
    </linearGradient>
    <linearGradient
       id="linearGradient3184"
       y2="37.127998"
       xlink:href="#linearGradient2903"
       gradientUnits="userSpaceOnUse"
       x2="22.052999"
       gradientTransform="translate(-3,1)"
       y1="30.676001"
       x1="16.794001" />
    <radialGradient
       id="radialGradient3187"
       gradientUnits="userSpaceOnUse"
       cy="34.5"
       cx="42.5"
       gradientTransform="matrix(1,0,0,0.9964,-26,1.1241)"
       r="8.6875">
      <stop
         id="stop3027"
         offset="0" />
      <stop
         id="stop3029"
         stop-opacity="0"
         offset="1" />
    </radialGradient>
    <linearGradient
       id="linearGradient3191"
       y2="42.563999"
       xlink:href="#linearGradient2895"
       gradientUnits="userSpaceOnUse"
       x2="26.737"
       gradientTransform="translate(-3,1)"
       y1="29.879999"
       x1="14.496" />
    <radialGradient
       id="radialGradient3204"
       xlink:href="#linearGradient3198"
       gradientUnits="userSpaceOnUse"
       cy="34.655998"
       cx="15.312"
       gradientTransform="matrix(1,0,0,1.0033,0,-0.114)"
       r="9.5" />
    <radialGradient
       inkscape:collect="always"
       xlink:href="#linearGradient3198"
       id="radialGradient1"
       gradientUnits="userSpaceOnUse"
       gradientTransform="matrix(1,0,0,1.0033,0,-0.114)"
       cx="15.312"
       cy="34.655998"
       r="9.5" />
    <linearGradient
       inkscape:collect="always"
       xlink:href="#linearGradient2903"
       id="linearGradient1"
       gradientUnits="userSpaceOnUse"
       gradientTransform="matrix(0.96593,-0.25882,0.25882,0.96593,7.2816,0.75564)"
       x1="22.965"
       y1="35.311001"
       x2="12.641"
       y2="11.424" />
    <linearGradient
       inkscape:collect="always"
       xlink:href="#linearGradient2892"
       id="linearGradient2"
       gradientUnits="userSpaceOnUse"
       gradientTransform="matrix(0.96593,-0.25882,0.25882,0.96593,7.2816,0.75564)"
       x1="17.413"
       y1="7.8708"
       x2="17.028"
       y2="52.505001" />
    <radialGradient
       inkscape:collect="always"
       xlink:href="#linearGradient3198"
       id="radialGradient2"
       gradientUnits="userSpaceOnUse"
       gradientTransform="matrix(0.97747,-0.26191,0.26191,0.97747,-2.4444,8.3897)"
       cx="31"
       cy="12"
       r="11.125" />
    <linearGradient
       inkscape:collect="always"
       xlink:href="#linearGradient2895"
       id="linearGradient3"
       gradientUnits="userSpaceOnUse"
       gradientTransform="matrix(0.90911,-0.24359,0.24359,0.90911,8.6768,1.4171)"
       x1="21.788"
       y1="21.877001"
       x2="10.211"
       y2="3.4233" />
    <linearGradient
       inkscape:collect="always"
       xlink:href="#linearGradient2892"
       id="linearGradient4"
       gradientUnits="userSpaceOnUse"
       gradientTransform="matrix(0.96593,-0.25882,0.25882,0.96593,-4.1168,6.7297)"
       x1="16.488001"
       y1="13.971"
       x2="32.567001"
       y2="30.757999" />
    <linearGradient
       inkscape:collect="always"
       xlink:href="#linearGradient2892"
       id="linearGradient5"
       gradientUnits="userSpaceOnUse"
       gradientTransform="matrix(0.96593,-0.25882,0.25882,0.96593,-4.1168,6.7296)"
       x1="28.357"
       y1="22.795"
       x2="17.732"
       y2="5.1875" />
  </defs>
  <metadata
     id="metadata7">
    <rdf:RDF>
      <cc:Work
         rdf:about="">
        <dc:format>image/svg+xml</dc:format>
        <dc:type
           rdf:resource="http://purl.org/dc/dcmitype/StillImage" />
        <dc:creator>
          <cc:Agent>
            <dc:title>Lapo Calamandrei</dc:title>
          </cc:Agent>
        </dc:creator>
        <cc:license
           rdf:resource="http://creativecommons.org/licenses/GPL/2.0/" />
        <dc:subject>
          <rdf:Bag>
            <rdf:li>run</rdf:li>
            <rdf:li>launch</rdf:li>
            <rdf:li>exec</rdf:li>
          </rdf:Bag>
        </dc:subject>
      </cc:Work>
      <cc:License
         rdf:about="http://creativecommons.org/licenses/GPL/2.0/">
        <cc:permits
           rdf:resource="http://web.resource.org/cc/Reproduction" />
        <cc:permits
           rdf:resource="http://web.resource.org/cc/Distribution" />
        <cc:requires
           rdf:resource="http://web.resource.org/cc/Notice" />
        <cc:permits
           rdf:resource="http://web.resource.org/cc/DerivativeWorks" />
        <cc:requires
           rdf:resource="http://web.resource.org/cc/ShareAlike" />
        <cc:requires
           rdf:resource="http://web.resource.org/cc/SourceCode" />
      </cc:License>
    </rdf:RDF>
  </metadata>
  <g
     id="layer1"
     transform="translate(-3.3120184,-1.0369998)">
    <path
       id="path3110"
       opacity="0.4902"
       d="m 24.812,34.656 a 9.5,9.5312 0 1 1 -19,0 9.5,9.5312 0 1 1 19,0 z"
       transform="matrix(1.3882,0,0,0.49836,-4.7562,25.479)"
       fill="url(#radialGradient3204)"
       style="fill:url(#radialGradient1)" />
    <path
       id="path3206"
       opacity="0.24706"
       d="m 24.812,34.656 a 9.5,9.5312 0 1 1 -19,0 9.5,9.5312 0 1 1 19,0 z"
       transform="matrix(1.4737,0,0,0.65574,10.434,15.525)"
       fill="url(#radialGradient3204)"
       style="fill:url(#radialGradient3204)" />
    <g
       id="g2904"
       transform="matrix(0.96593,0.25882,-0.25882,0.96593,6.1621,8.3855)">
      <path
         id="path2779"
         d="m 31,0.5 c -0.562,0 -1.116,0.047 -1.656,0.125 l -0.219,3.0938 c -0.96,0.2157 -1.85,0.5835 -2.656,1.0937 L 24.125,2.7812 C 23,3.5 22.5,4 21.781,5.125 l 2.031,2.3438 c -0.51,0.8067 -0.878,1.6966 -1.093,2.6562 l -3.094,0.219 C 19.547,10.884 19.5,11.438 19.5,12 c 0,0.562 0.047,1.116 0.125,1.656 l 3.094,0.219 c 0.215,0.96 0.583,1.85 1.093,2.656 l -2.031,2.344 C 22.5,20 23,20.5 24.125,21.219 l 2.344,-2.031 c 0.806,0.51 1.696,0.878 2.656,1.093 l 0.219,3.094 c 0.54,0.078 1.094,0.125 1.656,0.125 0.562,0 1.116,-0.047 1.656,-0.125 l 0.219,-3.094 c 0.96,-0.215 1.85,-0.583 2.656,-1.093 l 2.344,2.031 C 39,20.5 39.5,20 40.219,18.875 l -2.031,-2.344 c 0.51,-0.806 0.878,-1.696 1.093,-2.656 l 3.094,-0.219 C 42.453,13.116 42.5,12.562 42.5,12 c 0,-0.562 -0.047,-1.116 -0.125,-1.656 L 39.281,10.125 C 39.066,9.1654 38.698,8.2755 38.188,7.4688 L 40.219,5.125 C 39.569,4.0173 39,3.5 37.875,2.7812 L 35.531,4.8125 C 34.725,4.3023 33.835,3.9345 32.875,3.7188 L 32.656,0.625 C 32.116,0.547 31.562,0.5 31,0.5 Z m 0,9 c 1.38,0 2.5,1.12 2.5,2.5 0,1.38 -1.12,2.5 -2.5,2.5 -1.38,0 -2.5,-1.12 -2.5,-2.5 0,-1.38 1.12,-2.5 2.5,-2.5 z"
         stroke="#2e3436"
         stroke-linecap="square"
         stroke-width="1.0054"
         fill="url(#linearGradient3112)"
         style="fill:url(#linearGradient1)" />
      <path
         id="path2819"
         d="m 31,1.4375 c -0.26,0 -0.522,0.042 -0.781,0.0625 L 30,4.5625 c -1.317,0.1747 -2.522,0.702 -3.531,1.4688 L 24.156,4.0625 C 23.765,4.4001 23.4,4.7652 23.063,5.1563 l 1.968,2.3125 C 24.265,8.4783 23.737,9.683 23.563,11 L 20.5,11.219 c -0.021,0.259 -0.062,0.521 -0.062,0.781 0,0.26 0.041,0.522 0.062,0.781 L 23.563,13 c 0.174,1.317 0.702,2.522 1.468,3.531 l -1.968,2.313 c 0.337,0.391 0.702,0.756 1.093,1.094 l 2.313,-1.969 c 1.009,0.766 2.214,1.294 3.531,1.469 l 0.219,3.062 c 0.259,0.021 0.521,0.063 0.781,0.063 0.26,0 0.522,-0.042 0.781,-0.063 L 32,19.438 c 1.317,-0.175 2.522,-0.703 3.531,-1.469 l 2.313,1.969 C 38.235,19.6 38.6,19.235 38.938,18.844 L 36.969,16.531 C 37.735,15.522 38.263,14.317 38.438,13 L 41.5,12.781 c 0.021,-0.259 0.063,-0.521 0.063,-0.781 0,-0.26 -0.042,-0.522 -0.063,-0.781 L 38.438,11 C 38.263,9.683 37.735,8.4783 36.969,7.4688 L 38.938,5.1563 C 38.6,4.7652 38.235,4.4001 37.844,4.0625 L 35.531,6.0313 C 34.522,5.2645 33.317,4.7372 32,4.5625 L 31.781,1.5 C 31.522,1.4795 31.26,1.4375 31,1.4375 Z"
         stroke="url(#linearGradient3114)"
         stroke-linecap="square"
         stroke-width="1.1333"
         fill="none"
         style="stroke:url(#linearGradient2)" />
      <path
         id="path2875"
         opacity="0.8"
         d="m 31,0.875 c -0.321,0 -0.584,0.04438 -0.812,0.0625 l -0.5,0.03125 -0.032,0.50005 -0.187,2.6562 c -1.06,0.2091 -2.042,0.6405 -2.907,1.2188 l -2.406,-2.0313 -1.844,1.8437 2.032,2.4063 c -0.578,0.8646 -1.01,1.8462 -1.219,2.9065 l -2.656,0.187 -0.5,0.032 -0.031,0.5 c -0.019,0.228 -0.063,0.491 -0.063,0.812 0,0.321 0.044,0.584 0.063,0.812 l 0.031,0.5 0.5,0.032 2.656,0.187 c 0.209,1.06 0.641,2.042 1.219,2.907 l -1.719,2.031 -0.313,0.375 0.313,0.375 c 0.356,0.412 0.744,0.8 1.156,1.156 l 0.375,0.313 0.375,-0.313 2.031,-1.719 c 0.865,0.578 1.847,1.01 2.907,1.219 l 0.187,2.656 0.032,0.5 0.5,0.031 c 0.228,0.019 0.491,0.063 0.812,0.063 0.321,0 0.584,-0.044 0.812,-0.063 l 0.5,-0.031 0.032,-0.5 0.187,-2.656 c 1.06,-0.209 2.042,-0.641 2.907,-1.219 l 2.031,1.719 0.375,0.313 0.375,-0.313 c 0.412,-0.356 0.8,-0.744 1.156,-1.156 l 0.313,-0.375 -0.313,-0.375 -1.719,-2.031 c 0.578,-0.865 1.01,-1.847 1.219,-2.907 l 2.656,-0.187 0.5,-0.032 0.031,-0.5 c 0.019,-0.228 0.063,-0.491 0.063,-0.812 0,-0.321 -0.044,-0.584 -0.063,-0.812 l -0.031,-0.5 -0.5,-0.032 -2.656,-0.187 C 38.666,9.4087 38.234,8.4271 37.656,7.5625 l 1.719,-2.0313 0.313,-0.375 -0.313,-0.375 C 39.019,4.3693 38.631,3.9807 38.219,3.625 L 37.844,3.3125 37.469,3.625 35.438,5.3438 C 34.573,4.7655 33.591,4.3341 32.531,4.125 L 32.344,1.4688 32.312,0.96875 31.812,0.9375 C 31.584,0.91938 31.321,0.875 31,0.875 Z M 31,8.5 c 1.932,0 3.5,1.568 3.5,3.5 0,1.932 -1.568,3.5 -3.5,3.5 -1.932,0 -3.5,-1.568 -3.5,-3.5 0,-1.932 1.568,-3.5 3.5,-3.5 z"
         fill="url(#radialGradient3116)"
         style="fill:url(#radialGradient2)" />
      <path
         id="path2867"
         fill="url(#linearGradient3118)"
         d="m 31,4 c -4.416,0 -8,3.584 -8,8 0,4.416 3.584,8 8,8 4.416,0 8,-3.584 8,-8 0,-4.416 -3.584,-8 -8,-8 z m 0,5 c 1.656,0 3,1.344 3,3 0,1.656 -1.344,3 -3,3 -1.656,0 -3,-1.344 -3,-3 0,-1.656 1.344,-3 3,-3 z"
         style="fill:url(#linearGradient3)" />
      <path
         id="path2849"
         d="m 32,19 a 8.5,8.5 0 1 1 -17,0 8.5,8.5 0 1 1 17,0 z"
         transform="matrix(0.88235,-1.0264e-6,1.0264e-6,0.88235,10.265,-4.7647)"
         stroke="url(#linearGradient3120)"
         stroke-linecap="square"
         stroke-width="1.1333"
         fill="none"
         style="stroke:url(#linearGradient4)" />
      <path
         id="path2835"
         d="m 32,19 a 8.5,8.5 0 1 1 -17,0 8.5,8.5 0 1 1 17,0 z"
         transform="matrix(0.41176,-4.79e-7,4.79e-7,0.41176,21.324,4.1765)"
         stroke="url(#linearGradient3122)"
         stroke-linecap="square"
         stroke-width="2.4286"
         fill="none"
         style="stroke:url(#linearGradient5)" />
    </g>
    <g
       id="g2924"
       transform="matrix(0.96593,0.25882,-0.25882,0.96593,-6.8379,-6.6145)">
      <path
         id="path2926"
         d="m 31,0.5 c -0.562,0 -1.116,0.047 -1.656,0.125 l -0.219,3.0938 c -0.96,0.2157 -1.85,0.5835 -2.656,1.0937 L 24.125,2.7812 C 23,3.5 22.5,4 21.781,5.125 l 2.031,2.3438 c -0.51,0.8067 -0.878,1.6966 -1.093,2.6562 l -3.094,0.219 C 19.547,10.884 19.5,11.438 19.5,12 c 0,0.562 0.047,1.116 0.125,1.656 l 3.094,0.219 c 0.215,0.96 0.583,1.85 1.093,2.656 l -2.031,2.344 C 22.5,20 23,20.5 24.125,21.219 l 2.344,-2.031 c 0.806,0.51 1.696,0.878 2.656,1.093 l 0.219,3.094 c 0.54,0.078 1.094,0.125 1.656,0.125 0.562,0 1.116,-0.047 1.656,-0.125 l 0.219,-3.094 c 0.96,-0.215 1.85,-0.583 2.656,-1.093 l 2.344,2.031 C 39,20.5 39.5,20 40.219,18.875 l -2.031,-2.344 c 0.51,-0.806 0.878,-1.696 1.093,-2.656 l 3.094,-0.219 C 42.453,13.116 42.5,12.562 42.5,12 c 0,-0.562 -0.047,-1.116 -0.125,-1.656 L 39.281,10.125 C 39.066,9.1654 38.698,8.2755 38.188,7.4688 L 40.219,5.125 C 39.569,4.0173 39,3.5 37.875,2.7812 L 35.531,4.8125 C 34.725,4.3023 33.835,3.9345 32.875,3.7188 L 32.656,0.625 C 32.116,0.547 31.562,0.5 31,0.5 Z m 0,9 c 1.38,0 2.5,1.12 2.5,2.5 0,1.38 -1.12,2.5 -2.5,2.5 -1.38,0 -2.5,-1.12 -2.5,-2.5 0,-1.38 1.12,-2.5 2.5,-2.5 z"
         stroke="#2e3436"
         stroke-linecap="square"
         stroke-width="1.0054"
         fill="url(#linearGradient3112)"
         style="fill:url(#linearGradient3112)" />
      <path
         id="path2928"
         d="m 31,1.4375 c -0.26,0 -0.522,0.042 -0.781,0.0625 L 30,4.5625 c -1.317,0.1747 -2.522,0.702 -3.531,1.4688 L 24.156,4.0625 C 23.765,4.4001 23.4,4.7652 23.063,5.1563 l 1.968,2.3125 C 24.265,8.4783 23.737,9.683 23.563,11 L 20.5,11.219 c -0.021,0.259 -0.062,0.521 -0.062,0.781 0,0.26 0.041,0.522 0.062,0.781 L 23.563,13 c 0.174,1.317 0.702,2.522 1.468,3.531 l -1.968,2.313 c 0.337,0.391 0.702,0.756 1.093,1.094 l 2.313,-1.969 c 1.009,0.766 2.214,1.294 3.531,1.469 l 0.219,3.062 c 0.259,0.021 0.521,0.063 0.781,0.063 0.26,0 0.522,-0.042 0.781,-0.063 L 32,19.438 c 1.317,-0.175 2.522,-0.703 3.531,-1.469 l 2.313,1.969 C 38.235,19.6 38.6,19.235 38.938,18.844 L 36.969,16.531 C 37.735,15.522 38.263,14.317 38.438,13 L 41.5,12.781 c 0.021,-0.259 0.063,-0.521 0.063,-0.781 0,-0.26 -0.042,-0.522 -0.063,-0.781 L 38.438,11 C 38.263,9.683 37.735,8.4783 36.969,7.4688 L 38.938,5.1563 C 38.6,4.7652 38.235,4.4001 37.844,4.0625 L 35.531,6.0313 C 34.522,5.2645 33.317,4.7372 32,4.5625 L 31.781,1.5 C 31.522,1.4795 31.26,1.4375 31,1.4375 Z"
         stroke="url(#linearGradient3114)"
         stroke-linecap="square"
         stroke-width="1.1333"
         fill="none"
         style="stroke:url(#linearGradient3114)" />
      <path
         id="path2930"
         opacity="0.8"
         d="m 31,0.875 c -0.321,0 -0.584,0.04438 -0.812,0.0625 l -0.5,0.03125 -0.032,0.50005 -0.187,2.6562 c -1.06,0.2091 -2.042,0.6405 -2.907,1.2188 l -2.406,-2.0313 -1.844,1.8437 2.032,2.4063 c -0.578,0.8646 -1.01,1.8462 -1.219,2.9065 l -2.656,0.187 -0.5,0.032 -0.031,0.5 c -0.019,0.228 -0.063,0.491 -0.063,0.812 0,0.321 0.044,0.584 0.063,0.812 l 0.031,0.5 0.5,0.032 2.656,0.187 c 0.209,1.06 0.641,2.042 1.219,2.907 l -1.719,2.031 -0.313,0.375 0.313,0.375 c 0.356,0.412 0.744,0.8 1.156,1.156 l 0.375,0.313 0.375,-0.313 2.031,-1.719 c 0.865,0.578 1.847,1.01 2.907,1.219 l 0.187,2.656 0.032,0.5 0.5,0.031 c 0.228,0.019 0.491,0.063 0.812,0.063 0.321,0 0.584,-0.044 0.812,-0.063 l 0.5,-0.031 0.032,-0.5 0.187,-2.656 c 1.06,-0.209 2.042,-0.641 2.907,-1.219 l 2.031,1.719 0.375,0.313 0.375,-0.313 c 0.412,-0.356 0.8,-0.744 1.156,-1.156 l 0.313,-0.375 -0.313,-0.375 -1.719,-2.031 c 0.578,-0.865 1.01,-1.847 1.219,-2.907 l 2.656,-0.187 0.5,-0.032 0.031,-0.5 c 0.019,-0.228 0.063,-0.491 0.063,-0.812 0,-0.321 -0.044,-0.584 -0.063,-0.812 l -0.031,-0.5 -0.5,-0.032 -2.656,-0.187 C 38.666,9.4087 38.234,8.4271 37.656,7.5625 l 1.719,-2.0313 0.313,-0.375 -0.313,-0.375 C 39.019,4.3693 38.631,3.9807 38.219,3.625 L 37.844,3.3125 37.469,3.625 35.438,5.3438 C 34.573,4.7655 33.591,4.3341 32.531,4.125 L 32.344,1.4688 32.312,0.96875 31.812,0.9375 C 31.584,0.91938 31.321,0.875 31,0.875 Z M 31,8.5 c 1.932,0 3.5,1.568 3.5,3.5 0,1.932 -1.568,3.5 -3.5,3.5 -1.932,0 -3.5,-1.568 -3.5,-3.5 0,-1.932 1.568,-3.5 3.5,-3.5 z"
         fill="url(#radialGradient3116)"
         style="fill:url(#radialGradient3116)" />
      <path
         id="path2932"
         fill="url(#linearGradient3118)"
         d="m 31,4 c -4.416,0 -8,3.584 -8,8 0,4.416 3.584,8 8,8 4.416,0 8,-3.584 8,-8 0,-4.416 -3.584,-8 -8,-8 z m 0,5 c 1.656,0 3,1.344 3,3 0,1.656 -1.344,3 -3,3 -1.656,0 -3,-1.344 -3,-3 0,-1.656 1.344,-3 3,-3 z"
         style="fill:url(#linearGradient3118)" />
      <path
         id="path2934"
         d="m 32,19 a 8.5,8.5 0 1 1 -17,0 8.5,8.5 0 1 1 17,0 z"
         transform="matrix(0.88235,-1.0264e-6,1.0264e-6,0.88235,10.265,-4.7647)"
         stroke="url(#linearGradient3120)"
         stroke-linecap="square"
         stroke-width="1.1333"
         fill="none"
         style="stroke:url(#linearGradient3120)" />
      <path
         id="path2936"
         d="m 32,19 a 8.5,8.5 0 1 1 -17,0 8.5,8.5 0 1 1 17,0 z"
         transform="matrix(0.41176,-4.79e-7,4.79e-7,0.41176,21.324,4.1765)"
         stroke="url(#linearGradient3122)"
         stroke-linecap="square"
         stroke-width="2.4286"
         fill="none"
         style="stroke:url(#linearGradient3122)" />
    </g>
    <path
       id="path2978"
       d="m 16.156,26.5 c -0.488,0.019 -0.972,0.094 -1.437,0.188 h -0.031 c -0.35,0.071 -0.698,0.17 -1.032,0.281 -0.482,0.16 -0.932,0.358 -1.375,0.593 l 0.657,3.126 c -0.477,0.352 -0.925,0.765 -1.282,1.25 L 8.5625,31.312 C 8.3061,31.797 8.0717,32.281 7.9062,32.812 7.6764,33.551 7.531,34.35 7.5,35.156 l 3.062,1.032 c 0.07,0.592 0.202,1.18 0.438,1.718 l -2.125,2.375 c 0.2777,0.442 0.5897,0.865 0.9375,1.25 l 0.6255,0.594 c 0.388,0.355 0.803,0.685 1.25,0.969 l 2.374,-2.125 c 0.286,0.127 0.564,0.229 0.876,0.312 0.294,0.079 0.611,0.154 0.906,0.188 l 1,3.031 c 0.488,-0.019 0.972,-0.094 1.437,-0.188 h 0.031 c 0.35,-0.071 0.698,-0.17 1.032,-0.281 0.482,-0.16 0.932,-0.358 1.375,-0.593 l -0.657,-3.126 c 0.477,-0.352 0.925,-0.765 1.282,-1.25 l 3.094,0.626 c 0.256,-0.485 0.49,-0.969 0.656,-1.5 0.23,-0.739 0.375,-1.538 0.406,-2.344 L 22.438,34.812 C 22.368,34.22 22.236,33.632 22,33.094 l 2.125,-2.375 c -0.278,-0.442 -0.59,-0.865 -0.937,-1.25 L 22.562,28.875 C 22.174,28.52 21.759,28.19 21.312,27.906 l -2.374,2.125 C 18.652,29.904 18.374,29.802 18.062,29.719 17.768,29.64 17.451,29.565 17.156,29.531 Z m 0.125,7 c 0.114,-0.013 0.228,-0.007 0.344,0 0.133,0.008 0.273,0.027 0.406,0.062 1.067,0.286 1.692,1.403 1.407,2.469 -0.286,1.067 -1.403,1.692 -2.469,1.407 -1.067,-0.286 -1.692,-1.403 -1.407,-2.469 0.219,-0.817 0.925,-1.38 1.719,-1.469 z"
       stroke="#2e3436"
       stroke-linecap="round"
       fill="url(#linearGradient3191)"
       style="fill:url(#linearGradient3191)" />
    <path
       id="path2995"
       d="m 18.469,26.469 -2.094,0.593 0.844,4.032 c 0.056,0.312 -0.044,0.632 -0.269,0.856 -0.224,0.225 -0.544,0.325 -0.856,0.269 l -4.063,-0.844 -0.593,2.094 3.968,1.312 c 0.307,0.106 0.541,0.358 0.622,0.673 0.082,0.314 0.001,0.648 -0.216,0.89 l -2.718,3.062 1.468,1.5 3.094,-2.75 c 0.242,-0.216 0.576,-0.297 0.89,-0.216 0.315,0.082 0.567,0.316 0.673,0.622 l 1.312,3.969 2.094,-0.593 -0.844,-4.032 c -0.056,-0.312 0.044,-0.632 0.269,-0.856 0.224,-0.225 0.544,-0.325 0.856,-0.269 l 4.063,0.844 0.593,-2.094 -3.968,-1.312 c -0.307,-0.106 -0.541,-0.358 -0.622,-0.673 -0.082,-0.314 -0.001,-0.648 0.216,-0.89 l 2.718,-3.062 -1.468,-1.5 -3.094,2.75 c -0.242,0.216 -0.576,0.297 -0.89,0.216 -0.315,-0.082 -0.567,-0.316 -0.673,-0.622 z"
       transform="translate(-3,1)"
       stroke="url(#linearGradient3171)"
       stroke-linecap="round"
       fill="none"
       style="stroke:url(#linearGradient3171)" />
    <path
       id="path2999"
       opacity="0.93725"
       d="m 15.781,26.844 -3,0.875 0.938,4.469 c 0.027,0.151 -0.016,0.297 -0.125,0.406 -0.109,0.109 -0.255,0.152 -0.406,0.125 l -4.5005,-0.938 -0.875,3 4.4375,1.469 c 0.149,0.051 0.242,0.191 0.281,0.344 0.04,0.152 0.012,0.289 -0.093,0.406 L 9.4062,40.438 11.531,42.594 15,39.531 c 0.117,-0.105 0.254,-0.133 0.406,-0.093 0.153,0.039 0.293,0.132 0.344,0.281 l 1.469,4.437 3,-0.875 -0.938,-4.469 c -0.027,-0.151 0.016,-0.297 0.125,-0.406 0.109,-0.109 0.255,-0.152 0.406,-0.125 l 4.5,0.938 0.876,-3 L 20.75,34.75 C 20.601,34.699 20.508,34.559 20.469,34.406 20.429,34.254 20.457,34.117 20.562,34 L 23.594,30.562 21.469,28.406 18,31.469 c -0.117,0.105 -0.254,0.133 -0.406,0.093 C 17.441,31.523 17.301,31.43 17.25,31.281 Z M 16.5,32.5 c 1.656,0 3,1.344 3,3 0,1.656 -1.344,3 -3,3 -1.656,0 -3,-1.344 -3,-3 0,-1.656 1.344,-3 3,-3 z"
       fill="url(#radialGradient3187)"
       style="fill:url(#radialGradient3187)" />
    <path
       id="path3002"
       fill="url(#linearGradient3184)"
       d="M 16.5,30 C 13.464,30 11,32.464 11,35.5 11,38.536 13.464,41 16.5,41 19.536,41 22,38.536 22,35.5 22,32.464 19.536,30 16.5,30 Z m 0,3 C 17.88,33 19,34.12 19,35.5 19,36.88 17.88,38 16.5,38 15.12,38 14,36.88 14,35.5 14,34.12 15.12,33 16.5,33 Z"
       style="fill:url(#linearGradient3184)" />
    <path
       id="path3033"
       d="m 22.716,34.587 a 3.16,3.16 0 1 1 -6.32,0 3.16,3.16 0 1 1 6.32,0 z"
       transform="matrix(0.9494,0,0,0.9494,-2.0664,2.663)"
       stroke="url(#linearGradient3177)"
       stroke-linecap="round"
       stroke-width="1.0533"
       fill="none"
       style="stroke:url(#linearGradient3177)" />
    <path
       id="path3037"
       d="m 22.716,34.587 a 3.16,3.16 0 1 1 -6.32,0 3.16,3.16 0 1 1 6.32,0 z"
       transform="matrix(1.5823,0,0,-1.5823,-14.444,90.228)"
       stroke="url(#linearGradient3179)"
       stroke-linecap="round"
       stroke-width="0.63198"
       fill="none"
       style="stroke:url(#linearGradient3179)" />
  </g>
</svg>
