<?xml version="1.0" encoding="UTF-8" standalone="no"?>
<svg
   width="40"
   height="45.032551"
   version="1.0"
   id="svg28"
   sodipodi:docname="Gnome-edit-clear2.svg"
   inkscape:version="1.4.3 (0d15f75042, 2025-12-25)"
   xmlns:inkscape="http://www.inkscape.org/namespaces/inkscape"
   xmlns:sodipodi="http://sodipodi.sourceforge.net/DTD/sodipodi-0.dtd"
   xmlns:xlink="http://www.w3.org/1999/xlink"
   xmlns="http://www.w3.org/2000/svg"
   xmlns:svg="http://www.w3.org/2000/svg">
  <sodipodi:namedview
     id="namedview28"
     pagecolor="#ffffff"
     bordercolor="#000000"
     borderopacity="0.25"
     inkscape:showpageshadow="2"
     inkscape:pageopacity="0.0"
     inkscape:pagecheckerboard="0"
     inkscape:deskcolor="#d1d1d1"
     inkscape:zoom="9.5625"
     inkscape:cx="19.973856"
     inkscape:cy="22.013072"
     inkscape:window-width="1366"
     inkscape:window-height="668"
     inkscape:window-x="0"
     inkscape:window-y="27"
     inkscape:window-maximized="1"
     inkscape:current-layer="svg28" />
  <defs
     id="defs18">
    <linearGradient
       id="i">
      <stop
         offset="0"
         id="stop1" />
      <stop
         offset="1"
         stop-opacity="0"
         id="stop2" />
    </linearGradient>
    <linearGradient
       id="h">
      <stop
         offset="0"
         stop-color="#c4a000"
         id="stop3" />
      <stop
         offset="1"
         stop-color="#c4a000"
         stop-opacity="0"
         id="stop4" />
    </linearGradient>
    <linearGradient
       id="g">
      <stop
         offset="0"
         stop-color="#d7c20f"
         id="stop5" />
      <stop
         offset="1"
         stop-color="#b6970d"
         id="stop6" />
    </linearGradient>
    <linearGradient
       id="f">
      <stop
         offset="0"
         stop-color="#fff"
         id="stop7" />
      <stop
         offset="1"
         stop-color="#fff"
         stop-opacity=".69411765"
         id="stop8" />
    </linearGradient>
    <linearGradient
       id="e">
      <stop
         offset="0"
         stop-color="#8f5902"
         id="stop9" />
      <stop
         offset="1"
         stop-color="#73521e"
         id="stop10" />
    </linearGradient>
    <linearGradient
       id="d">
      <stop
         offset="0"
         stop-color="#fff"
         id="stop11" />
      <stop
         offset="1"
         stop-color="#fff"
         stop-opacity=".13438736"
         id="stop12" />
    </linearGradient>
    <linearGradient
       id="c">
      <stop
         offset="0"
         stop-color="#ad7fa8"
         id="stop13" />
      <stop
         offset="1"
         stop-color="#dac6d8"
         id="stop14" />
    </linearGradient>
    <linearGradient
       id="b">
      <stop
         offset="0"
         stop-color="#fdef72"
         id="stop15" />
      <stop
         offset="1"
         stop-color="#e2cb0b"
         id="stop16" />
    </linearGradient>
    <linearGradient
       id="a">
      <stop
         offset="0"
         stop-color="#c17d11"
         id="stop17" />
      <stop
         offset="1"
         stop-color="#e9b96e"
         id="stop18" />
    </linearGradient>
    <linearGradient
       xlink:href="#a"
       id="k"
       x1="28"
       x2="26"
       y1="16"
       y2="8"
       gradientTransform="translate(-6.000001,-1.9676998)"
       gradientUnits="userSpaceOnUse" />
    <linearGradient
       xlink:href="#b"
       id="n"
       x1="20.933708"
       x2="30.208115"
       y1="25.060659"
       y2="30.742676"
       gradientTransform="translate(-6.000001,-1.9676998)"
       gradientUnits="userSpaceOnUse" />
    <linearGradient
       xlink:href="#c"
       id="r"
       x1="27.651777"
       x2="21.59099"
       y1="23.145937"
       y2="20.618719"
       gradientTransform="matrix(0.97682,0,0,1,-5.3746643,-1.9676998)"
       gradientUnits="userSpaceOnUse" />
    <linearGradient
       xlink:href="#d"
       id="m"
       x1="28"
       x2="33.447109"
       y1="8"
       y2="16.685888"
       gradientUnits="userSpaceOnUse"
       gradientTransform="translate(-6.000001,-1.9676998)" />
    <linearGradient
       xlink:href="#e"
       id="l"
       x1="30.324829"
       x2="34"
       y1="9.2407961"
       y2="18"
       gradientTransform="translate(-6.000001,-1.9676998)"
       gradientUnits="userSpaceOnUse" />
    <linearGradient
       xlink:href="#f"
       id="p"
       x1="22.319767"
       x2="18.985712"
       y1="41.955986"
       y2="37.029255"
       gradientTransform="translate(-6.000001,-1.9676998)"
       gradientUnits="userSpaceOnUse" />
    <linearGradient
       xlink:href="#g"
       id="o"
       x1="17.032078"
       x2="29.494455"
       y1="27.446827"
       y2="37.845814"
       gradientTransform="translate(-6.000001,-1.9676998)"
       gradientUnits="userSpaceOnUse" />
    <linearGradient
       xlink:href="#h"
       id="q"
       x1="27.354809"
       x2="23.489431"
       y1="36.218422"
       y2="34.728424"
       gradientTransform="translate(-6.000001,-1.9676998)"
       gradientUnits="userSpaceOnUse" />
    <radialGradient
       xlink:href="#i"
       id="j"
       cx="38"
       cy="69"
       r="20"
       fx="28.603323"
       fy="69"
       gradientTransform="matrix(1,0,0,0.3000015,-18,18.332418)"
       gradientUnits="userSpaceOnUse" />
  </defs>
  <path
     fill="url(#j)"
     d="m 40,39.032522 a 20,6.00003 0 1 1 -40,0 20,6.00003 0 1 1 40,0 z"
     opacity="0.25"
     id="path18"
     style="fill:url(#j);stroke-width:0.816499" />
  <path
     fill="url(#k)"
     fill-rule="evenodd"
     stroke="url(#l)"
     d="m 30.593749,0.50105023 c -8.203217,0.1056503 -9.3968,16.24752577 -11.75,19.15624977 l 4,1.4375 c 2.631873,-4.372547 15.755996,-18.9079964 8.5625,-20.56249977 -0.27949,-0.0309691 -0.54788,-0.0346581 -0.8125,-0.03125 z m -1.03125,2.06249997 c 0.193563,-0.018739 0.367986,0.00572 0.53125,0.09375 0.653056,0.3521226 0.723655,1.4948771 0.15625,2.53125 -0.567405,1.0363729 -1.565696,1.6021225 -2.21875,1.25 -0.653053,-0.3521228 -0.723655,-1.4948771 -0.15625,-2.53125 0.425554,-0.7772798 1.106812,-1.2875341 1.6875,-1.34375 z"
     id="path19"
     style="fill:url(#k);stroke:url(#l)" />
  <path
     fill="none"
     stroke="url(#m)"
     d="m 30.593749,1.5010502 c -1.721618,0.022173 -3.007925,0.8558743 -4.1875,2.28125 -1.179575,1.4253757 -2.148334,3.4416354 -2.9375,5.59375 -0.789166,2.1521148 -1.42404,4.4342698 -2,6.3749998 -0.399891,1.347456 -0.769857,2.406448 -1.21875,3.34375 l 2.1875,0.78125 c 1.618594,-2.495624 5.038798,-6.591178 7.53125,-10.6249998 1.325839,-2.1457566 2.2837,-4.1780411 2.5,-5.5625 0.10815,-0.6922294 0.04507,-1.1729294 -0.125,-1.46875 -0.164691,-0.2864691 -0.463476,-0.5245855 -1.125,-0.6875 -0.199495,-0.018784 -0.400833,-0.034137 -0.625,-0.03125 z"
     opacity="0.266667"
     id="path20"
     style="stroke:url(#m)" />
  <path
     fill="url(#n)"
     fill-rule="evenodd"
     stroke="url(#o)"
     stroke-miterlimit="20"
     stroke-width="1"
     d="m 16.499999,14.5323 c 0.709506,2.003007 -0.541388,3.737831 -1,5 -5.191567,1.545674 -8.786801,9.703726 -14.1325825,13.953585 0.667788,0.697398 1.4522265,1.444178 2.1325825,2.046415 l 4.0625,-3.53125 -3.067556,4.524649 C 6.70418,38.316682 8.999999,39.5323 10.499999,40.0323 l 2.75,-3.65625 -1.75,4.15625 c 1.451994,0.588882 4.985286,1.482025 7,1.5 l 2.00389,-3.402497 -0.513169,3.464997 c 0.829563,0.158359 2.438165,0.374216 3.509279,0.40625 3.362186,-5.5 4,-14.46875 2,-18.46875 -0.5,-2 1.5,-4.5 3,-5.5 -2.5,-2 -8.205589,-4.303726 -12,-4 z"
     id="path21"
     style="fill:url(#n);stroke:url(#o)" />
  <path
     fill="#c4a000"
     fill-rule="evenodd"
     d="M 4.999999,36.5323 C 9.816494,31.521405 9.465022,29.328374 15.116116,25.004572 12.133674,29.833003 11.650277,32.34463 7.999999,38.5323 Z"
     opacity="0.266667"
     id="path22" />
  <path
     fill="#c4a000"
     fill-rule="evenodd"
     d="m 12.149807,40.234752 4.346027,-9.840147 c 1.664513,-2.983727 2.859672,-5.970052 4.528973,-8.347353 -1.601954,5.418037 -4.89069,12.121793 -7.53125,18.625 z"
     opacity="0.415686"
     id="path23" />
  <path
     fill="none"
     stroke="url(#p)"
     stroke-width="1"
     d="m 17.624999,15.5323 c 0.09674,1.915146 -0.922943,3.529645 -1.21875,4.34375 -0.104103,0.284709 -0.33533,0.504374 -0.625,0.59375 -5.453398,2.234644 -7.629803,8.574038 -12.9946384,13.086167 0.2016424,0.199854 0.4920308,0.417304 0.6945296,0.608231 L 12.499999,26.5323 5.923384,36.342613 c 1.270033,1.027613 2.722201,1.884544 4.226656,2.489165 L 17.144393,29.5323 12.8695,39.943912 c 1.595569,0.525657 3.098303,0.827296 4.945009,1.088388 l 4.61873,-7.6875 -1.37074,7.906817 1.875,0.225995 c 1.433213,-2.535494 2.132382,-5.66653 2.53125,-8.789062 0.423945,-3.318846 -0.005,-6.541178 -0.84375,-8.21875 a 0.96999273,0.96999273 0 0 1 -0.0625,-0.1875 c -0.346858,-1.387431 0.169142,-2.745627 0.875,-3.875 0.426893,-0.683029 0.930372,-1.290779 1.464959,-1.801777 -1.171482,-0.782691 -2.586697,-1.460066 -4.371209,-2.104473 -1.762077,-0.636306 -3.497998,-0.950025 -4.90625,-0.96875 z"
     opacity="0.478431"
     id="path24"
     style="stroke:url(#p)" />
  <path
     fill="url(#q)"
     fill-rule="evenodd"
     d="m 14.968749,41.0323 c 2.177566,-5.751871 6.395916,-10.068943 8.016913,-15.935412 0.05154,3.662073 0.24972,10.203726 -1.891913,16.716662 -0.319766,0.0018 -0.173927,-0.110809 -0.46988,-0.118553 l 0.800792,-5.724517 -3.281486,5.554384 c -2.190808,-0.156324 -1.294611,0.0326 -3.174426,-0.492564 z"
     opacity="0.247059"
     id="path25"
     style="fill:url(#q)" />
  <path
     fill="#c4a000"
     fill-rule="evenodd"
     d="m 17.003066,20.642747 c -1.251995,0.616379 -2.062209,1.527278 -2.983106,2.364388 1.226487,-0.708643 2.378986,-1.448994 3.999573,-1.988738 z m 2.005631,0.450602 -1.016465,1.988738 2.980713,-1.58825 z m -0.06889,-5.09965 -0.895193,1.707022 1.565727,0.502084 z m 6.983449,1.923971 -2.460248,1.835447 1.565727,0.502084 z m -3.910329,-1.946804 -1.513911,2.524614 1.565727,0.502084 z"
     opacity="0.482353"
     id="path26" />
  <path
     fill-rule="evenodd"
     d="m 14.967725,20.056999 c -0.56678,-2.965484 9.332835,2.152903 11.036822,2.994369 -0.0065,1.079068 0,2 -0.976819,2 -2.567538,-1.39298 -6.535255,-3.605143 -10.060003,-4.994369 z"
     opacity="0.2"
     id="path27" />
  <path
     fill="url(#r)"
     fill-rule="evenodd"
     stroke="#5c3566"
     stroke-linejoin="round"
     d="m 14.650132,19.5323 c -0.48841,-1 0,-2 0.97682,-2 3.99144,0.975417 7.324875,2.206232 10.745012,4 0.48841,1 0,2 -0.976819,2 -3.533943,-1.86442 -6.866711,-3.074813 -10.745013,-4 z"
     id="path28"
     style="fill:url(#r)" />
</svg>
