<?xml version="1.0" encoding="UTF-8" standalone="no"?>
<svg
   width="47.979153"
   height="44.429024"
   version="1.1"
   id="svg15"
   sodipodi:docname="Gnome-dialog-warning2.svg"
   inkscape:version="1.4.3 (0d15f75042, 2025-12-25)"
   xmlns:inkscape="http://www.inkscape.org/namespaces/inkscape"
   xmlns:sodipodi="http://sodipodi.sourceforge.net/DTD/sodipodi-0.dtd"
   xmlns:xlink="http://www.w3.org/1999/xlink"
   xmlns="http://www.w3.org/2000/svg"
   xmlns:svg="http://www.w3.org/2000/svg">
  <sodipodi:namedview
     id="namedview15"
     pagecolor="#ffffff"
     bordercolor="#000000"
     borderopacity="0.25"
     inkscape:showpageshadow="2"
     inkscape:pageopacity="0.0"
     inkscape:pagecheckerboard="0"
     inkscape:deskcolor="#d1d1d1"
     inkscape:zoom="9.5625"
     inkscape:cx="23.947712"
     inkscape:cy="21.071895"
     inkscape:window-width="1366"
     inkscape:window-height="668"
     inkscape:window-x="0"
     inkscape:window-y="27"
     inkscape:window-maximized="1"
     inkscape:current-layer="svg15" />
  <defs
     id="defs1">
    <path
       id="g"
       fill="url(#a)"
       d="M -1559.2523,-150.69685 H -219.6188 V 327.66033 H -1559.2523 Z"
       opacity="0.402062"
       overflow="visible"
       style="marker:none" />
    <path
       id="h"
       fill="url(#b)"
       d="m -219.61876,-150.68038 v 478.33079 c 142.874166,0.90045 345.40022,-107.16966 345.40014,-239.196175 0,-132.026537 -159.436816,-239.134595 -345.40014,-239.134615 z"
       opacity="0.402062"
       overflow="visible"
       style="marker:none" />
    <path
       id="i"
       fill="url(#c)"
       d="m -1559.2523,-150.68038 v 478.33079 c -142.8742,0.90045 -345.4002,-107.16966 -345.4002,-239.196175 0,-132.026537 159.4368,-239.134595 345.4002,-239.134615 z"
       opacity="0.402062"
       overflow="visible"
       style="marker:none" />
  </defs>
  <defs
     id="defs7">
    <linearGradient
       id="f">
      <stop
         offset="0"
         id="stop1" />
      <stop
         offset="1"
         stop-opacity="0"
         id="stop2" />
    </linearGradient>
    <linearGradient
       id="d">
      <stop
         offset="0"
         stop-opacity="0"
         id="stop3" />
      <stop
         offset=".5"
         id="stop4" />
      <stop
         offset="1"
         stop-opacity="0"
         id="stop5" />
    </linearGradient>
    <linearGradient
       xlink:href="#d"
       id="a"
       x1="302.85715"
       x2="302.85715"
       y1="366.64789"
       y2="609.50507"
       gradientTransform="matrix(2.77439,0,0,1.9697,-1892.179,-872.8854)"
       gradientUnits="userSpaceOnUse" />
    <linearGradient
       xlink:href="#e"
       id="j"
       x1="8.5469341"
       x2="30.85088"
       y1="30.281681"
       y2="48.301884"
       gradientTransform="matrix(1.5604817,0,-0.00679935,1.6219108,-8.8833446,-27.84333)"
       gradientUnits="userSpaceOnUse" />
    <linearGradient
       id="e"
       x1="4.1914001"
       x2="47.319698"
       y1="11.1133"
       y2="56.052299"
       gradientUnits="userSpaceOnUse">
      <stop
         offset="0"
         stop-color="#fff"
         id="stop6" />
      <stop
         offset="1"
         stop-color="#fff"
         stop-opacity=".34020618"
         id="stop7" />
    </linearGradient>
    <radialGradient
       xlink:href="#f"
       id="c"
       cx="605.71429"
       cy="486.64789"
       r="117.14286"
       fx="605.71429"
       fy="486.64789"
       gradientTransform="matrix(-2.77439,0,0,1.9697,112.7623,-872.8854)"
       gradientUnits="userSpaceOnUse" />
    <radialGradient
       xlink:href="#f"
       id="b"
       cx="605.71429"
       cy="486.64789"
       r="117.14286"
       fx="605.71429"
       fy="486.64789"
       gradientTransform="matrix(2.77439,0,0,1.9697,-1891.633,-872.8854)"
       gradientUnits="userSpaceOnUse" />
  </defs>
  <g
     color="#000000"
     transform="matrix(0.02363,0,0,0.0218,45.006938,37.286029)"
     id="g9">
    <use
       xlink:href="#g"
       opacity="0.402062"
       overflow="visible"
       style="marker:none"
       id="use7" />
    <use
       xlink:href="#h"
       opacity="0.402062"
       overflow="visible"
       style="marker:none"
       id="use8" />
    <use
       xlink:href="#i"
       opacity="0.402062"
       overflow="visible"
       style="marker:none"
       id="use9" />
  </g>
  <g
     color="#000000"
     transform="matrix(0.02363,0,0,0.0218,45.006938,37.286029)"
     id="g12">
    <use
       xlink:href="#g"
       opacity="0.402062"
       overflow="visible"
       style="marker:none"
       id="use10" />
    <use
       xlink:href="#h"
       opacity="0.402062"
       overflow="visible"
       style="marker:none"
       id="use11" />
    <use
       xlink:href="#i"
       opacity="0.402062"
       overflow="visible"
       style="marker:none"
       id="use12" />
  </g>
  <path
     fill="#f57900"
     stroke="#ce5c00"
     stroke-width="1"
     d="M 45.377911,37.174493 26.648645,2.0190619 C 26.11031,1.0425223 25.136208,0.50000123 24.051354,0.50000123 c -1.084857,0 -2.063954,0.65102377 -2.61047,1.62756487 L 2.8510892,37.282999 c -0.4375784,0.868035 -0.4425771,2.061583 0.096216,2.929619 0.5387913,0.868035 1.4048597,1.302052 2.4897167,1.302052 H 42.756078 c 1.084854,0 2.063498,-0.542521 2.501079,-1.410558 0.546062,-0.868035 0.550605,-1.953078 0.120754,-2.929619 z"
     id="path12" />
  <path
     fill="#fcaf3e"
     d="m 10.42354,35.232393 c -0.283075,0.466367 -0.0036,0.839463 0.464889,0.839463 h 26.421969 c 0.468478,0 0.751154,-0.373096 0.472062,-0.839463 L 24.490028,10.421633 c -0.279093,-0.4663674 -0.653872,-0.4663674 -0.843255,0 z"
     id="path13" />
  <path
     fill="none"
     stroke="url(#j)"
     stroke-width="1"
     d="M 43.698581,36.374563 26.178379,3.5310682 C 25.432208,2.1162069 25.164574,1.6622628 24.030607,1.6622628 c -0.975299,0 -1.485605,0.6611096 -2.190406,1.9966237 L 4.5144605,36.475934 c -1.0060711,1.842484 -1.1138627,2.322751 -0.6296094,3.133702 0.4842507,0.810952 1.1060054,0.766783 3.4033305,0.819682 H 41.340884 c 2.138767,0.02644 2.620542,-0.136551 3.014058,-0.947499 0.491046,-0.810954 0.282182,-1.454346 -0.656361,-3.107256 z"
     opacity="0.5"
     id="path14"
     style="stroke:url(#j)" />
  <path
     fill="#121312"
     d="m 24.028653,33.342698 c -1.144116,0 -2.024205,-0.894338 -2.024205,-2.056977 0,-1.252074 0.79208,-2.056978 2.024205,-2.056978 1.232125,0 1.936196,0.804904 2.024205,2.056978 0,1.162639 -0.79208,2.056977 -2.024205,2.056977 z m -0.644552,-6.647835 -1.115627,-8.913648 h 3.520358 L 24.673205,28.16405 Z"
     id="path15" />
</svg>
