<?xml version="1.0" encoding="UTF-8" standalone="no"?>
<svg
   width="43.296"
   height="37.92"
   viewBox="0 0 43.296 37.92"
   version="1.1"
   id="svg10"
   sodipodi:docname="gnome-subtitles-icon2.svg"
   inkscape:version="1.4.3 (0d15f75042, 2025-12-25)"
   xmlns:inkscape="http://www.inkscape.org/namespaces/inkscape"
   xmlns:sodipodi="http://sodipodi.sourceforge.net/DTD/sodipodi-0.dtd"
   xmlns="http://www.w3.org/2000/svg"
   xmlns:svg="http://www.w3.org/2000/svg">
  <sodipodi:namedview
     id="namedview10"
     pagecolor="#ffffff"
     bordercolor="#000000"
     borderopacity="0.25"
     inkscape:showpageshadow="2"
     inkscape:pageopacity="0.0"
     inkscape:pagecheckerboard="0"
     inkscape:deskcolor="#d1d1d1"
     inkscape:zoom="12.104431"
     inkscape:cx="21.644966"
     inkscape:cy="18.959999"
     inkscape:window-width="1366"
     inkscape:window-height="668"
     inkscape:window-x="0"
     inkscape:window-y="27"
     inkscape:window-maximized="1"
     inkscape:current-layer="svg10" />
  <defs
     id="defs4">
    <radialGradient
       id="radial-pattern-0"
       gradientUnits="userSpaceOnUse"
       cx="65.102829"
       cy="76.848564"
       fx="65.102829"
       fy="76.848564"
       r="50.415974"
       gradientTransform="matrix(0.882838, 0.000000000000000181, 0.000000000000005328, 0.295368, -35.82993, 2.481446)">
      <stop
         offset="0"
         stop-color="rgb(100%, 85.098039%, 50.196078%)"
         stop-opacity="1"
         id="stop1" />
      <stop
         offset="1"
         stop-color="rgb(100%, 69.803922%, 0%)"
         stop-opacity="1"
         id="stop2"
         style="stop-color:#fff2d6;stop-opacity:1;" />
    </radialGradient>
    <linearGradient
       id="linear-pattern-0"
       gradientUnits="userSpaceOnUse"
       x1="65.102867"
       y1="15.99996"
       x2="65.102867"
       y2="55.06274"
       gradientTransform="matrix(0.415929, 0, 0, 0.415929, -5.432866, -6.652106)">
      <stop
         offset="0"
         stop-color="rgb(100%, 100%, 100%)"
         stop-opacity="1"
         id="stop3" />
      <stop
         offset="1"
         stop-color="rgb(100%, 100%, 100%)"
         stop-opacity="0"
         id="stop4" />
    </linearGradient>
  </defs>
  <path
     fill="none"
     stroke-width="1.7"
     stroke-linecap="round"
     stroke-linejoin="round"
     stroke="rgb(0%, 0%, 0%)"
     stroke-opacity="1"
     stroke-miterlimit="4"
     d="M 33.545594 30.732625 L 7.444031 30.732625 C 4.979188 30.732625 2.994812 28.74825 2.994812 26.283406 L 2.994812 7.970906 C 2.994812 5.506062 5.572938 3.521687 8.037781 3.521687 L 40.069031 3.521687 C 42.533875 3.521687 44.51825 5.506062 44.51825 7.970906 L 44.51825 26.283406 C 44.51825 28.74825 42.533875 30.732625 40.069031 30.732625 L 40.123719 30.826375 C 40.123719 36.068562 27.541687 42.287312 31.436219 38.314656 C 35.33075 34.345906 33.545594 30.732625 33.545594 30.732625 Z M 33.545594 30.732625 "
     transform="matrix(1, 0, 0, 1, -2.112, -2.592)"
     id="path4" />
  <path
     fill-rule="evenodd"
     fill="url(#radial-pattern-0)"
     d="M 31.433594 28.140625 L 5.332031 28.140625 C 2.867188 28.140625 0.882812 26.15625 0.882812 23.691406 L 0.882812 5.378906 C 0.882812 2.914062 3.460938 0.929688 5.925781 0.929688 L 37.957031 0.929688 C 40.421875 0.929688 42.40625 2.914062 42.40625 5.378906 L 42.40625 23.691406 C 42.40625 26.15625 40.421875 28.140625 37.957031 28.140625 L 38.011719 28.234375 C 38.011719 33.476562 25.429688 39.695312 29.324219 35.722656 C 33.21875 31.753906 31.433594 28.140625 31.433594 28.140625 Z M 31.433594 28.140625 "
     id="path5" />
  <path
     fill-rule="evenodd"
     fill="url(#linear-pattern-0)"
     d="M 5.429688 2.914062 L 37.863281 2.914062 C 39.132812 2.914062 40.152344 3.9375 40.152344 5.207031 L 40.152344 8.941406 C 40.152344 10.210938 31.984375 11.777344 27.007812 12.066406 C 22.035156 12.351562 3.136719 10.210938 3.136719 8.941406 L 3.136719 5.207031 C 3.136719 3.9375 4.160156 2.914062 5.429688 2.914062 Z M 5.429688 2.914062 "
     id="path6" />
  <path
     fill-rule="nonzero"
     fill="rgb(0%, 0%, 0%)"
     fill-opacity="1"
     d="M 9.132812 14.417969 L 34.15625 14.417969 C 34.253906 14.417969 34.332031 14.449219 34.332031 14.484375 L 34.332031 15.355469 C 34.332031 15.390625 34.253906 15.417969 34.15625 15.417969 L 9.132812 15.417969 C 9.039062 15.417969 8.960938 15.390625 8.960938 15.355469 L 8.960938 14.484375 C 8.960938 14.449219 9.039062 14.417969 9.132812 14.417969 Z M 9.132812 14.417969 "
     id="path7" />
  <path
     fill-rule="nonzero"
     fill="rgb(0%, 0%, 0%)"
     fill-opacity="1"
     d="M 9.132812 17.394531 L 34.15625 17.394531 C 34.253906 17.394531 34.332031 17.421875 34.332031 17.460938 L 34.332031 18.328125 C 34.332031 18.363281 34.253906 18.394531 34.15625 18.394531 L 9.132812 18.394531 C 9.039062 18.394531 8.960938 18.363281 8.960938 18.328125 L 8.960938 17.460938 C 8.960938 17.421875 9.039062 17.394531 9.132812 17.394531 Z M 9.132812 17.394531 "
     id="path8" />
  <path
     fill-rule="nonzero"
     fill="rgb(0%, 0%, 0%)"
     fill-opacity="1"
     d="M 9.132812 20.335938 L 34.15625 20.335938 C 34.253906 20.335938 34.332031 20.363281 34.332031 20.402344 L 34.332031 21.269531 C 34.332031 21.304688 34.253906 21.335938 34.15625 21.335938 L 9.132812 21.335938 C 9.039062 21.335938 8.960938 21.304688 8.960938 21.269531 L 8.960938 20.402344 C 8.960938 20.363281 9.039062 20.335938 9.132812 20.335938 Z M 9.132812 20.335938 "
     id="path9" />
  <path
     fill-rule="nonzero"
     fill="rgb(0%, 0%, 0%)"
     fill-opacity="1"
     d="M 16.015625 23.417969 L 27.273438 23.417969 C 27.320312 23.417969 27.355469 23.449219 27.355469 23.484375 L 27.355469 24.355469 C 27.355469 24.390625 27.320312 24.417969 27.273438 24.417969 L 16.015625 24.417969 C 15.972656 24.417969 15.9375 24.390625 15.9375 24.355469 L 15.9375 23.484375 C 15.9375 23.449219 15.972656 23.417969 16.015625 23.417969 Z M 16.015625 23.417969 "
     id="path10" />
</svg>
