<?xml version="1.0" encoding="UTF-8" standalone="no"?>
<svg
   width="52.891689"
   height="52.891689"
   viewBox="0 0 52.891688 52.891688"
   version="1.1"
   id="svg62"
   sodipodi:docname="Gtk-zoom-fit2.svg"
   inkscape:version="1.4.3 (0d15f75042, 2025-12-25)"
   xmlns:inkscape="http://www.inkscape.org/namespaces/inkscape"
   xmlns:sodipodi="http://sodipodi.sourceforge.net/DTD/sodipodi-0.dtd"
   xmlns="http://www.w3.org/2000/svg"
   xmlns:svg="http://www.w3.org/2000/svg">
  <sodipodi:namedview
     id="namedview62"
     pagecolor="#ffffff"
     bordercolor="#000000"
     borderopacity="0.25"
     inkscape:showpageshadow="2"
     inkscape:pageopacity="0.0"
     inkscape:pagecheckerboard="0"
     inkscape:deskcolor="#d1d1d1"
     inkscape:zoom="8.653846"
     inkscape:cx="26.346667"
     inkscape:cy="26.404445"
     inkscape:window-width="1366"
     inkscape:window-height="668"
     inkscape:window-x="0"
     inkscape:window-y="27"
     inkscape:window-maximized="1"
     inkscape:current-layer="svg62" />
  <defs
     id="defs44">
    <linearGradient
       id="linear-pattern-0"
       gradientUnits="userSpaceOnUse"
       x1="15.1685"
       y1="99.097702"
       x2="183.0273"
       y2="99.097702"
       gradientTransform="matrix(0.234375,0,0,0.234375,-3.5542188,-3.5542188)">
      <stop
         offset="0"
         stop-color="rgb(28.627451%, 28.627451%, 28.627451%)"
         stop-opacity="1"
         id="stop1" />
      <stop
         offset="0.5"
         stop-color="rgb(38.039216%, 38.039216%, 38.039216%)"
         stop-opacity="1"
         id="stop2" />
      <stop
         offset="1"
         stop-color="rgb(0%, 0%, 0%)"
         stop-opacity="1"
         id="stop3" />
    </linearGradient>
    <linearGradient
       id="linear-pattern-1"
       gradientUnits="userSpaceOnUse"
       x1="196.70509"
       y1="248.7227"
       x2="196.70509"
       y2="149.4514"
       gradientTransform="matrix(0.234375,0,0,0.234375,-3.5542188,-3.5542188)">
      <stop
         offset="0"
         stop-color="rgb(48.627451%, 0%, 0%)"
         stop-opacity="1"
         id="stop4" />
      <stop
         offset="1"
         stop-color="rgb(81.176471%, 0%, 0%)"
         stop-opacity="1"
         id="stop5" />
    </linearGradient>
    <linearGradient
       id="linear-pattern-2"
       gradientUnits="userSpaceOnUse"
       x1="17.168501"
       y1="99.1045"
       x2="181.0253"
       y2="99.1045"
       gradientTransform="matrix(0.234375,0,0,0.234375,-3.5542188,-3.5542188)">
      <stop
         offset="0"
         stop-color="rgb(63.529412%, 63.529412%, 63.529412%)"
         stop-opacity="1"
         id="stop6" />
      <stop
         offset="1"
         stop-color="rgb(28.627451%, 28.627451%, 28.627451%)"
         stop-opacity="1"
         id="stop7" />
    </linearGradient>
    <linearGradient
       id="linear-pattern-3"
       gradientUnits="userSpaceOnUse"
       x1="47.964802"
       y1="190.2119"
       x2="69.606903"
       y2="211.8539"
       gradientTransform="matrix(-0.234375,0,0,0.234375,56.914531,-3.5542188)">
      <stop
         offset="0"
         stop-color="rgb(100%, 78.823529%, 34.117647%)"
         stop-opacity="1"
         id="stop8" />
      <stop
         offset="1"
         stop-color="rgb(100%, 42.745098%, 0%)"
         stop-opacity="1"
         id="stop9" />
    </linearGradient>
    <linearGradient
       id="linear-pattern-4"
       gradientUnits="userSpaceOnUse"
       x1="48.526901"
       y1="194.8232"
       x2="64.114403"
       y2="210.4108"
       gradientTransform="matrix(-0.286945,-0.0301875,0.0301875,0.286945,53.411001,-13.142945)">
      <stop
         offset="0"
         stop-color="rgb(100%, 100%, 40%)"
         stop-opacity="1"
         id="stop10" />
      <stop
         offset="1"
         stop-color="rgb(100%, 42.745098%, 0%)"
         stop-opacity="1"
         id="stop11" />
    </linearGradient>
    <linearGradient
       id="linear-pattern-5"
       gradientUnits="userSpaceOnUse"
       x1="182.1367"
       y1="182.1357"
       x2="164.09219"
       y2="164.09129"
       gradientTransform="matrix(0.234375,0,0,0.234375,-3.5542188,-3.5542188)">
      <stop
         offset="0"
         stop-color="rgb(100%, 84.313725%, 0%)"
         stop-opacity="1"
         id="stop12" />
      <stop
         offset="1"
         stop-color="rgb(100%, 100%, 100%)"
         stop-opacity="1"
         id="stop13" />
    </linearGradient>
    <linearGradient
       id="linear-pattern-6"
       gradientUnits="userSpaceOnUse"
       x1="131.58591"
       y1="-4.0268998"
       x2="131.58591"
       y2="210.97231"
       gradientTransform="matrix(-0.165727,0.165727,0.165727,0.165727,31.338595,-12.27625)">
      <stop
         offset="0"
         stop-color="rgb(85.490196%, 85.490196%, 85.490196%)"
         stop-opacity="1"
         id="stop14" />
      <stop
         offset="0.6124"
         stop-color="rgb(58.039216%, 58.039216%, 58.039216%)"
         stop-opacity="1"
         id="stop15" />
      <stop
         offset="1"
         stop-color="rgb(85.490196%, 85.490196%, 85.490196%)"
         stop-opacity="1"
         id="stop16" />
    </linearGradient>
    <linearGradient
       id="linear-pattern-7"
       gradientUnits="userSpaceOnUse"
       x1="134.8213"
       y1="149.9229"
       x2="124.5826"
       y2="149.9229"
       gradientTransform="matrix(-0.165727,0.165727,0.136547,0.136547,36.179303,-7.4357497)">
      <stop
         offset="0"
         stop-color="rgb(69.803922%, 69.803922%, 69.803922%)"
         stop-opacity="1"
         id="stop17" />
      <stop
         offset="1"
         stop-color="rgb(100%, 100%, 100%)"
         stop-opacity="1"
         id="stop18" />
    </linearGradient>
    <linearGradient
       id="linear-pattern-8"
       gradientUnits="userSpaceOnUse"
       x1="27.7358"
       y1="98.412102"
       x2="169.0889"
       y2="98.412102"
       gradientTransform="matrix(0.234375,0,0,0.234375,-3.5542188,-3.5542188)">
      <stop
         offset="0"
         stop-color="rgb(100%, 100%, 100%)"
         stop-opacity="1"
         id="stop19" />
      <stop
         offset="1"
         stop-color="rgb(28.627451%, 28.627451%, 28.627451%)"
         stop-opacity="1"
         id="stop20" />
    </linearGradient>
    <radialGradient
       id="radial-pattern-0"
       gradientUnits="userSpaceOnUse"
       cx="92.632797"
       cy="20.0571"
       fx="92.632797"
       fy="20.0571"
       r="176.5367"
       gradientTransform="matrix(-0.165727,0.165727,0.165727,0.165727,31.338595,-12.27625)">
      <stop
         offset="0.0056"
         stop-color="rgb(0%, 20.784314%, 92.941176%)"
         stop-opacity="1"
         id="stop21" />
      <stop
         offset="0.5674"
         stop-color="rgb(58.039216%, 79.215686%, 100%)"
         stop-opacity="1"
         id="stop22" />
      <stop
         offset="0.7079"
         stop-color="rgb(78.823529%, 90.196078%, 100%)"
         stop-opacity="1"
         id="stop23" />
      <stop
         offset="1"
         stop-color="rgb(1.176471%, 29.803922%, 99.607843%)"
         stop-opacity="1"
         id="stop24" />
    </radialGradient>
    <radialGradient
       id="radial-pattern-1"
       gradientUnits="userSpaceOnUse"
       cx="92.957001"
       cy="19.922899"
       fx="92.957001"
       fy="19.922899"
       r="176.53951"
       gradientTransform="matrix(0.234375,0,0,0.234375,-3.5542188,-3.5542188)">
      <stop
         offset="0.0056"
         stop-color="rgb(100%, 100%, 100%)"
         stop-opacity="1"
         id="stop25" />
      <stop
         offset="0.45"
         stop-color="rgb(58.039216%, 79.215686%, 100%)"
         stop-opacity="1"
         id="stop26" />
      <stop
         offset="0.6"
         stop-color="rgb(78.823529%, 90.196078%, 100%)"
         stop-opacity="1"
         id="stop27" />
      <stop
         offset="1"
         stop-color="rgb(100%, 100%, 100%)"
         stop-opacity="1"
         id="stop28" />
    </radialGradient>
    <linearGradient
       id="linear-pattern-9"
       gradientUnits="userSpaceOnUse"
       x1="498.84079"
       y1="-36.622601"
       x2="441.5419"
       y2="-93.9207"
       gradientTransform="matrix(0.165727,-0.165727,0.165727,0.165727,-23.07468,99.194278)">
      <stop
         offset="0"
         stop-color="rgb(0%, 20%, 20%)"
         stop-opacity="1"
         id="stop29" />
      <stop
         offset="1"
         stop-color="rgb(0%, 41.568627%, 0%)"
         stop-opacity="1"
         id="stop30" />
    </linearGradient>
    <linearGradient
       id="linear-pattern-10"
       gradientUnits="userSpaceOnUse"
       x1="-1053.5957"
       y1="-94.451202"
       x2="-1005.066"
       y2="-45.921299"
       gradientTransform="matrix(-0.165727,0.165727,0.165727,0.165727,-116.51964,192.63938)">
      <stop
         offset="0"
         stop-color="rgb(100%, 100%, 100%)"
         stop-opacity="1"
         id="stop31" />
      <stop
         offset="1"
         stop-color="rgb(94.117647%, 94.117647%, 94.117647%)"
         stop-opacity="1"
         id="stop32" />
    </linearGradient>
    <linearGradient
       id="linear-pattern-11"
       gradientUnits="userSpaceOnUse"
       x1="-1053.7935"
       y1="-93.924797"
       x2="-1005.4313"
       y2="-45.5625"
       gradientTransform="matrix(-0.165727,0.165727,0.165727,0.165727,-116.51964,192.63938)">
      <stop
         offset="0"
         stop-color="rgb(100%, 100%, 100%)"
         stop-opacity="1"
         id="stop33" />
      <stop
         offset="1"
         stop-color="rgb(87.45098%, 87.45098%, 87.45098%)"
         stop-opacity="1"
         id="stop34" />
    </linearGradient>
    <linearGradient
       id="linear-pattern-12"
       gradientUnits="userSpaceOnUse"
       x1="-1045.8159"
       y1="-84.2939"
       x2="-1008.8593"
       y2="-47.3372"
       gradientTransform="matrix(-0.165727,0.165727,0.165727,0.165727,-116.51964,192.63938)">
      <stop
         offset="0"
         stop-color="rgb(20%, 80%, 20%)"
         stop-opacity="1"
         id="stop35" />
      <stop
         offset="1"
         stop-color="rgb(0%, 41.568627%, 0%)"
         stop-opacity="1"
         id="stop36" />
    </linearGradient>
    <linearGradient
       id="linear-pattern-13"
       gradientUnits="userSpaceOnUse"
       x1="724.12891"
       y1="-30.068399"
       x2="666.83063"
       y2="-87.365799"
       gradientTransform="matrix(-0.165727,0.165727,0.165727,0.165727,135.44433,-61.49685)">
      <stop
         offset="0"
         stop-color="rgb(0%, 20%, 20%)"
         stop-opacity="1"
         id="stop37" />
      <stop
         offset="1"
         stop-color="rgb(0%, 41.568627%, 0%)"
         stop-opacity="1"
         id="stop38" />
    </linearGradient>
    <linearGradient
       id="linear-pattern-14"
       gradientUnits="userSpaceOnUse"
       x1="-1278.8999"
       y1="-87.883797"
       x2="-1230.371"
       y2="-39.354599"
       gradientTransform="matrix(0.165727,-0.165727,0.165727,0.165727,228.88943,-154.9424)">
      <stop
         offset="0"
         stop-color="rgb(100%, 100%, 100%)"
         stop-opacity="1"
         id="stop39" />
      <stop
         offset="1"
         stop-color="rgb(94.117647%, 94.117647%, 94.117647%)"
         stop-opacity="1"
         id="stop40" />
    </linearGradient>
    <linearGradient
       id="linear-pattern-15"
       gradientUnits="userSpaceOnUse"
       x1="-1279.0972"
       y1="-87.357903"
       x2="-1230.7357"
       y2="-38.9963"
       gradientTransform="matrix(0.165727,-0.165727,0.165727,0.165727,228.88943,-154.9424)">
      <stop
         offset="0"
         stop-color="rgb(100%, 100%, 100%)"
         stop-opacity="1"
         id="stop41" />
      <stop
         offset="1"
         stop-color="rgb(87.45098%, 87.45098%, 87.45098%)"
         stop-opacity="1"
         id="stop42" />
    </linearGradient>
    <linearGradient
       id="linear-pattern-16"
       gradientUnits="userSpaceOnUse"
       x1="-1271.1201"
       y1="-77.727097"
       x2="-1234.1642"
       y2="-40.771"
       gradientTransform="matrix(0.165727,-0.165727,0.165727,0.165727,228.88943,-154.9424)">
      <stop
         offset="0"
         stop-color="rgb(20%, 80%, 20%)"
         stop-opacity="1"
         id="stop43" />
      <stop
         offset="1"
         stop-color="rgb(0%, 41.568627%, 0%)"
         stop-opacity="1"
         id="stop44" />
    </linearGradient>
  </defs>
  <path
     fill-rule="nonzero"
     fill="url(#linear-pattern-0)"
     d="m 5.7070312,5.7070312 c -7.6093749,7.6132808 -7.6093749,19.9960938 0,27.6054688 3.308594,3.308593 7.6874998,5.316406 12.3398438,5.664062 4.5,0.332031 8.976562,-0.921875 12.664062,-3.515625 0.464844,0.464844 3.253906,3.253906 3.253906,3.253906 1.023438,1.023438 2.8125,0.773438 4.167969,-0.582031 0.796875,-0.796875 1.210938,-1.742187 1.210938,-2.59375 0,-0.601562 -0.207031,-1.152343 -0.628907,-1.574219 0,0 -2.789062,-2.789062 -3.253906,-3.253906 2.320313,-3.292968 3.566406,-7.214844 3.566406,-11.222656 0,-0.480469 -0.01562,-0.960938 -0.05078,-1.441406 -0.347656,-4.652344 -2.359375,-9.0312498 -5.664062,-12.3398438 -7.609375,-7.6093749 -19.992188,-7.6093749 -27.6054698,0 z m 0,0"
     id="path44"
     style="fill:url(#linear-pattern-0)" />
  <path
     fill-rule="nonzero"
     fill="url(#linear-pattern-1)"
     d="m 33.988281,33.988281 c -1.160156,1.164062 -1.78125,2.582031 -1.78125,3.835938 0,0.738281 0.214844,1.417968 0.660156,1.960937 l 0.01563,0.01563 0.01172,0.03516 12.21875,12.21875 c 1.414062,1.414063 4.042969,0.996094 5.992188,-0.949218 1.945312,-1.949219 2.363281,-4.582032 0.949218,-5.992188 l -12.234375,-12.234375 -0.02734,-0.0039 c -1.457041,-1.214859 -3.953135,-0.73439 -5.804697,1.113266 z m 0,0"
     id="path45"
     style="fill:url(#linear-pattern-1)" />
  <path
     fill-rule="nonzero"
     fill="url(#linear-pattern-2)"
     d="M 6.3710933,6.3710933 C 2.8671873,9.8750002 0.93750025,14.542969 0.93750025,19.511719 c 0,4.96875 1.92968705,9.632812 5.43359305,13.140624 3.148438,3.144532 7.3203127,5.058594 11.7460937,5.386719 4.414063,0.328125 8.808594,-0.9375 12.375,-3.558593 l 0.324219,-0.238282 3.8125,3.8125 c 0.644531,0.640625 1.863281,0.390625 2.839844,-0.585937 0.976562,-0.976563 1.226562,-2.199219 0.585937,-2.839844 l -3.8125,-3.8125 0.238282,-0.324219 c 2.625,-3.570312 3.886718,-7.964844 3.558593,-12.375 -0.328125,-4.425781 -2.242187,-8.5976557 -5.386719,-11.7460937 -7.246093,-7.24609305 -19.035156,-7.24609305 -26.2812497,0 z m 0,0"
     id="path46"
     style="fill:url(#linear-pattern-2)" />
  <path
     fill-rule="nonzero"
     fill="url(#linear-pattern-3)"
     d="m 39.066406,33.957031 12.070313,12.070312 c 0.886718,0.886719 0.464843,2.75 -0.949219,4.160157 -1.410157,1.414062 -3.273438,1.835937 -4.160157,0.949219 L 33.957031,39.066406 Z m 0,0"
     id="path47"
     style="fill:url(#linear-pattern-3)" />
  <path
     fill-rule="nonzero"
     fill="url(#linear-pattern-4)"
     d="m 38.886719,34.449219 11.765624,11.761718 c 0.863282,0.867188 0.660157,2.46875 -0.453124,3.582032 -1.113282,1.113281 -2.714844,1.316406 -3.582032,0.453124 L 34.855469,38.480469 Z m 0,0"
     id="path48"
     style="fill:url(#linear-pattern-4)" />
  <path
     fill-rule="nonzero"
     fill="url(#linear-pattern-5)"
     d="m 39.066406,33.957031 c 0.886719,0.886719 0.460937,2.75 -0.949219,4.160156 -1.410156,1.410156 -3.273437,1.835938 -4.160156,0.949219 -0.890625,-0.886719 -0.464844,-2.75 0.949219,-4.160156 1.410156,-1.414063 3.273437,-1.839844 4.160156,-0.949219 z m 0,0"
     id="path49"
     style="fill:url(#linear-pattern-5)" />
  <path
     fill-rule="nonzero"
     fill="url(#linear-pattern-6)"
     d="m 6.6250002,32.398437 c -7.11718795,-7.117187 -7.11718795,-18.65625 0,-25.7734368 7.1171868,-7.11718795 18.6562498,-7.11718795 25.7734368,0 6.625,6.6210928 7.082032,17.0742188 1.375,24.2304688 l 4.027344,4.023437 c 0.484375,0.484375 0.222656,1.53125 -0.582031,2.339844 -0.808594,0.804687 -1.855469,1.066406 -2.339844,0.582031 l -4.023437,-4.023438 c -7.15625,5.703126 -17.609376,5.242188 -24.2304688,-1.378906 z m 0,0"
     id="path50"
     style="fill:url(#linear-pattern-6)" />
  <path
     fill-rule="nonzero"
     fill="url(#linear-pattern-7)"
     d="m 33.753906,31.546875 c 0,0 4.03125,4.035156 4.261719,4.261718 -0.07031,0.179688 -0.269532,0.519532 -0.667969,0.914063 -0.398437,0.398437 -0.734375,0.597656 -0.914063,0.667969 -0.226562,-0.226563 -4.261718,-4.261719 -4.261718,-4.261719 z m 0,0"
     id="path51"
     style="fill:url(#linear-pattern-7)" />
  <path
     fill-rule="nonzero"
     fill="url(#linear-pattern-8)"
     d="m 31.230469,7.7929692 c 6.460937,6.4609368 6.460937,16.9765618 0,23.4374998 -6.460938,6.460937 -16.976563,6.460937 -23.4374998,0 -6.460938,-6.460938 -6.460938,-16.976563 0,-23.4374998 6.4609368,-6.460938 16.9765618,-6.460938 23.4374998,0 z m 0,0"
     id="path52"
     style="fill:url(#linear-pattern-8)" />
  <path
     fill-rule="nonzero"
     fill="url(#radial-pattern-0)"
     d="m 30.644531,8.3750002 c 6.140625,6.1406248 6.140625,16.1289058 0,22.2695308 -6.140625,6.140625 -16.128906,6.140625 -22.2695308,0 -6.136719,-6.140625 -6.136719,-16.128906 0,-22.2695308 6.1406248,-6.136719 16.1289058,-6.136719 22.2695308,0 z m 0,0"
     id="path53"
     style="fill:url(#radial-pattern-0)" />
  <path
     fill-rule="nonzero"
     fill="url(#radial-pattern-1)"
     d="M 9.0390623,9.0390623 C 6.2460933,11.832031 4.7109372,15.550781 4.7109372,19.511719 c 0,3.960937 1.535156,7.679687 4.3281251,10.472656 5.7734377,5.773437 15.1679687,5.773437 20.9453127,0 5.773437,-5.777344 5.773437,-15.171875 0,-20.9453127 -5.777344,-5.773437 -15.171875,-5.773437 -20.9453127,0 z m 0,0"
     id="path54"
     style="fill:url(#radial-pattern-1)" />
  <path
     fill-rule="nonzero"
     fill="url(#linear-pattern-9)"
     d="m 34.523437,3.4335933 c -0.105468,0.3710939 -0.0039,0.7695319 0.269532,1.0429689 0,0 2.679687,2.679688 3.03125,3.03125 -0.363282,0.3632811 -4.398438,4.3945308 -4.398438,4.3945308 -0.414062,0.414063 -0.414062,1.089844 0,1.503907 l 6.0625,6.058593 c 0.414062,0.414063 1.085938,0.414063 1.5,0 0,0 4.03125,-4.035156 4.394531,-4.398437 0.351563,0.351563 3.035157,3.03125 3.035157,3.03125 0.269531,0.273437 0.667968,0.378906 1.039062,0.273437 0.367188,-0.105468 0.65625,-0.402343 0.742188,-0.777343 l 0.07422,-0.308594 c 0.07813,-0.324219 0.765625,-3.269531 1.179688,-6.46875 C 52.050781,6.1914062 51.777343,3.4843752 50.589843,2.3007813 49.40625,1.1171872 46.703125,0.84375025 42.074219,1.4375002 c -3.207032,0.414062 -6.144532,1.1054691 -6.46875,1.1796871 l -0.304688,0.074219 c -0.375,0.089844 -0.675781,0.375 -0.777344,0.742187 z m 0,0"
     id="path55"
     style="fill:url(#linear-pattern-9)" />
  <path
     fill-rule="nonzero"
     fill="url(#linear-pattern-10)"
     d="m 35.851562,3.6523433 c 0.480469,-0.117187 11.8125,-2.77734305 13.988281,-0.601562 2.179688,2.1796879 -0.484374,13.5078117 -0.597656,13.9882807 l -0.07422,0.308594 c 0,0 -3.550782,-3.546875 -3.78125,-3.78125 -0.242188,0.238281 -5.148438,5.148437 -5.148438,5.148437 L 34.179685,12.65625 c 0,0 4.90625,-4.9101567 5.144532,-5.1484377 -0.230469,-0.234375 -3.78125,-3.78125 -3.78125,-3.78125 z m 0,0"
     id="path56"
     style="fill:url(#linear-pattern-10)" />
  <path
     fill-rule="nonzero"
     fill="url(#linear-pattern-11)"
     d="m 49.421875,3.4687502 c 1.359375,1.359375 0.410156,8.2226558 -0.589844,12.7109368 -0.964844,-0.96875 -3.449219,-3.449218 -3.449219,-3.449218 0,0 -4.441406,4.441406 -5.144531,5.148437 -0.671875,-0.671875 -4.554688,-4.554687 -5.226562,-5.226563 0.707031,-0.703124 5.148437,-5.1445307 5.148437,-5.1445307 0,0 -2.480469,-2.484375 -3.445313,-3.449219 4.484376,-1 11.347657,-1.949218 12.707032,-0.5898431 z m 0,0"
     id="path57"
     style="fill:url(#linear-pattern-11)" />
  <path
     fill-rule="nonzero"
     fill="url(#linear-pattern-12)"
     d="m 42.246093,4.4140622 c 4.636719,-0.621093 5.996094,-0.125 6.238282,-0.00781 0.117187,0.246093 0.617187,1.605469 -0.0039,6.2382808 -0.121094,0.890625 -0.277344,1.851562 -0.460938,2.859375 -0.734375,-0.734375 -2.636719,-2.632813 -2.636719,-2.632813 0,0 -4.617187,4.617188 -5.144531,5.144532 -0.46875,-0.46875 -2.894531,-2.894532 -3.363281,-3.359375 0.53125,-0.53125 5.148437,-5.1484378 5.148437,-5.1484378 0,0 -1.902344,-1.902343 -2.636718,-2.636719 1.007812,-0.183593 1.96875,-0.339843 2.859374,-0.457031 z m 0,0"
     id="path58"
     style="fill:url(#linear-pattern-12)" />
  <path
     fill-rule="nonzero"
     fill="url(#linear-pattern-13)"
     d="m 3.4335933,34.523437 c 0.3710939,-0.105468 0.7695319,-0.0039 1.0429689,0.269532 0,0 2.679688,2.679687 3.03125,3.03125 0.3632811,-0.363282 4.3945308,-4.398438 4.3945308,-4.398438 0.414063,-0.414062 1.089844,-0.414062 1.503907,0 l 6.058593,6.0625 c 0.414063,0.414062 0.414063,1.085938 0,1.5 0,0 -4.035156,4.03125 -4.398437,4.394531 0.351563,0.351563 3.03125,3.035157 3.03125,3.035157 0.273437,0.269531 0.378906,0.667968 0.273437,1.039062 -0.105468,0.371094 -0.402343,0.65625 -0.777343,0.742188 l -0.308594,0.07422 c -0.324219,0.07813 -3.269531,0.765625 -6.46875,1.179688 -4.6249998,0.597654 -7.3320308,0.324216 -8.5156247,-0.859377 -1.1835941,-1.1875 -1.45703105,-3.890625 -0.8632811,-8.519531 0.414062,-3.207032 1.1054691,-6.144532 1.1796871,-6.46875 l 0.074219,-0.304688 c 0.089844,-0.375 0.375,-0.675781 0.742187,-0.777344 z m 0,0"
     id="path59"
     style="fill:url(#linear-pattern-13)" />
  <path
     fill-rule="nonzero"
     fill="url(#linear-pattern-14)"
     d="m 3.6523433,35.851562 c -0.117187,0.480469 -2.77734305,11.8125 -0.601562,13.988281 2.1796879,2.179688 13.5078117,-0.484374 13.9882807,-0.597656 l 0.308594,-0.07422 c 0,0 -3.546875,-3.550782 -3.78125,-3.78125 0.238281,-0.242188 5.148437,-5.148438 5.148437,-5.148438 L 12.65625,34.179685 c 0,0 -4.9101567,4.90625 -5.1484377,5.144532 -0.234375,-0.230469 -3.78125,-3.78125 -3.78125,-3.78125 z m 0,0"
     id="path60"
     style="fill:url(#linear-pattern-14)" />
  <path
     fill-rule="nonzero"
     fill="url(#linear-pattern-15)"
     d="m 3.4687502,49.421875 c 1.359375,1.359375 8.2226558,0.410156 12.7109368,-0.589844 -0.96875,-0.964844 -3.449218,-3.449219 -3.449218,-3.449219 0,0 4.441406,-4.441406 5.148437,-5.144531 -0.671875,-0.671875 -4.554687,-4.554688 -5.226563,-5.226562 -0.703124,0.707031 -5.1445307,5.148437 -5.1445307,5.148437 0,0 -2.484375,-2.480469 -3.449219,-3.445313 -1,4.484376 -1.949218,11.347657 -0.5898431,12.707032 z m 0,0"
     id="path61"
     style="fill:url(#linear-pattern-15)" />
  <path
     fill-rule="nonzero"
     fill="url(#linear-pattern-16)"
     d="m 4.4140622,42.246093 c -0.621093,4.636719 -0.125,5.996094 -0.00781,6.238282 0.246093,0.117187 1.605469,0.617187 6.2382808,-0.0039 0.890625,-0.121094 1.851562,-0.277344 2.859375,-0.460938 -0.734375,-0.734375 -2.632813,-2.636719 -2.632813,-2.636719 0,0 4.617188,-4.617187 5.144532,-5.144531 -0.46875,-0.46875 -2.894532,-2.894531 -3.359375,-3.363281 -0.53125,0.53125 -5.1484378,5.148437 -5.1484378,5.148437 0,0 -1.902343,-1.902344 -2.636719,-2.636718 -0.183593,1.007812 -0.339843,1.96875 -0.457031,2.859374 z m 0,0"
     id="path62"
     style="fill:url(#linear-pattern-16)" />
</svg>
