<?xml version="1.0" encoding="UTF-8" standalone="no"?>
<svg
   width="52.891689"
   height="54.101562"
   viewBox="0 0 52.891688 54.101561"
   version="1.1"
   id="svg45"
   sodipodi:docname="Gtk-zoom-in2.svg"
   inkscape:version="1.4.3 (0d15f75042, 2025-12-25)"
   xmlns:inkscape="http://www.inkscape.org/namespaces/inkscape"
   xmlns:sodipodi="http://sodipodi.sourceforge.net/DTD/sodipodi-0.dtd"
   xmlns="http://www.w3.org/2000/svg"
   xmlns:svg="http://www.w3.org/2000/svg">
  <sodipodi:namedview
     id="namedview45"
     pagecolor="#ffffff"
     bordercolor="#000000"
     borderopacity="0.25"
     inkscape:showpageshadow="2"
     inkscape:pageopacity="0.0"
     inkscape:pagecheckerboard="0"
     inkscape:deskcolor="#d1d1d1"
     inkscape:zoom="8.4623891"
     inkscape:cx="26.351896"
     inkscape:cy="27.001831"
     inkscape:window-width="1366"
     inkscape:window-height="668"
     inkscape:window-x="0"
     inkscape:window-y="27"
     inkscape:window-maximized="1"
     inkscape:current-layer="svg45" />
  <defs
     id="defs32">
    <linearGradient
       id="linear-pattern-0"
       gradientUnits="userSpaceOnUse"
       x1="15.1685"
       y1="99.097702"
       x2="183.0273"
       y2="99.097702"
       gradientTransform="matrix(0.234375,0,0,0.234375,-3.5542188,-3.5542188)">
      <stop
         offset="0"
         stop-color="rgb(28.627451%, 28.627451%, 28.627451%)"
         stop-opacity="1"
         id="stop1" />
      <stop
         offset="0.5"
         stop-color="rgb(38.039216%, 38.039216%, 38.039216%)"
         stop-opacity="1"
         id="stop2" />
      <stop
         offset="1"
         stop-color="rgb(0%, 0%, 0%)"
         stop-opacity="1"
         id="stop3" />
    </linearGradient>
    <linearGradient
       id="linear-pattern-1"
       gradientUnits="userSpaceOnUse"
       x1="196.70509"
       y1="248.7227"
       x2="196.70509"
       y2="149.4514"
       gradientTransform="matrix(0.234375,0,0,0.234375,-3.5542188,-3.5542188)">
      <stop
         offset="0"
         stop-color="rgb(48.627451%, 0%, 0%)"
         stop-opacity="1"
         id="stop4" />
      <stop
         offset="1"
         stop-color="rgb(81.176471%, 0%, 0%)"
         stop-opacity="1"
         id="stop5" />
    </linearGradient>
    <linearGradient
       id="linear-pattern-2"
       gradientUnits="userSpaceOnUse"
       x1="17.168501"
       y1="99.1045"
       x2="181.0253"
       y2="99.1045"
       gradientTransform="matrix(0.234375,0,0,0.234375,-3.5542188,-3.5542188)">
      <stop
         offset="0"
         stop-color="rgb(63.529412%, 63.529412%, 63.529412%)"
         stop-opacity="1"
         id="stop6" />
      <stop
         offset="1"
         stop-color="rgb(28.627451%, 28.627451%, 28.627451%)"
         stop-opacity="1"
         id="stop7" />
    </linearGradient>
    <linearGradient
       id="linear-pattern-3"
       gradientUnits="userSpaceOnUse"
       x1="47.964802"
       y1="190.2119"
       x2="69.606903"
       y2="211.8539"
       gradientTransform="matrix(-0.234375,0,0,0.234375,56.914531,-3.5542188)">
      <stop
         offset="0"
         stop-color="rgb(100%, 78.823529%, 34.117647%)"
         stop-opacity="1"
         id="stop8" />
      <stop
         offset="1"
         stop-color="rgb(100%, 42.745098%, 0%)"
         stop-opacity="1"
         id="stop9" />
    </linearGradient>
    <linearGradient
       id="linear-pattern-4"
       gradientUnits="userSpaceOnUse"
       x1="48.526901"
       y1="194.8232"
       x2="64.114403"
       y2="210.4108"
       gradientTransform="matrix(-0.286945,-0.0301875,0.0301875,0.286945,53.411001,-13.142945)">
      <stop
         offset="0"
         stop-color="rgb(100%, 100%, 40%)"
         stop-opacity="1"
         id="stop10" />
      <stop
         offset="1"
         stop-color="rgb(100%, 42.745098%, 0%)"
         stop-opacity="1"
         id="stop11" />
    </linearGradient>
    <linearGradient
       id="linear-pattern-5"
       gradientUnits="userSpaceOnUse"
       x1="182.1367"
       y1="182.1357"
       x2="164.09219"
       y2="164.09129"
       gradientTransform="matrix(0.234375,0,0,0.234375,-3.5542188,-3.5542188)">
      <stop
         offset="0"
         stop-color="rgb(100%, 84.313725%, 0%)"
         stop-opacity="1"
         id="stop12" />
      <stop
         offset="1"
         stop-color="rgb(100%, 100%, 100%)"
         stop-opacity="1"
         id="stop13" />
    </linearGradient>
    <linearGradient
       id="linear-pattern-6"
       gradientUnits="userSpaceOnUse"
       x1="131.58591"
       y1="-4.0268998"
       x2="131.58591"
       y2="210.97231"
       gradientTransform="matrix(-0.165727,0.165727,0.165727,0.165727,31.338595,-12.27625)">
      <stop
         offset="0"
         stop-color="rgb(85.490196%, 85.490196%, 85.490196%)"
         stop-opacity="1"
         id="stop14" />
      <stop
         offset="0.6124"
         stop-color="rgb(58.039216%, 58.039216%, 58.039216%)"
         stop-opacity="1"
         id="stop15" />
      <stop
         offset="1"
         stop-color="rgb(85.490196%, 85.490196%, 85.490196%)"
         stop-opacity="1"
         id="stop16" />
    </linearGradient>
    <linearGradient
       id="linear-pattern-7"
       gradientUnits="userSpaceOnUse"
       x1="134.8213"
       y1="149.9229"
       x2="124.5826"
       y2="149.9229"
       gradientTransform="matrix(-0.165727,0.165727,0.136547,0.136547,36.179303,-7.4357497)">
      <stop
         offset="0"
         stop-color="rgb(69.803922%, 69.803922%, 69.803922%)"
         stop-opacity="1"
         id="stop17" />
      <stop
         offset="1"
         stop-color="rgb(100%, 100%, 100%)"
         stop-opacity="1"
         id="stop18" />
    </linearGradient>
    <linearGradient
       id="linear-pattern-8"
       gradientUnits="userSpaceOnUse"
       x1="27.7358"
       y1="98.412102"
       x2="169.0889"
       y2="98.412102"
       gradientTransform="matrix(0.234375,0,0,0.234375,-3.5542188,-3.5542188)">
      <stop
         offset="0"
         stop-color="rgb(100%, 100%, 100%)"
         stop-opacity="1"
         id="stop19" />
      <stop
         offset="1"
         stop-color="rgb(28.627451%, 28.627451%, 28.627451%)"
         stop-opacity="1"
         id="stop20" />
    </linearGradient>
    <radialGradient
       id="radial-pattern-0"
       gradientUnits="userSpaceOnUse"
       cx="92.632797"
       cy="20.0571"
       fx="92.632797"
       fy="20.0571"
       r="176.5367"
       gradientTransform="matrix(-0.165727,0.165727,0.165727,0.165727,31.338595,-12.27625)">
      <stop
         offset="0.0056"
         stop-color="rgb(0%, 20.784314%, 92.941176%)"
         stop-opacity="1"
         id="stop21" />
      <stop
         offset="0.5674"
         stop-color="rgb(58.039216%, 79.215686%, 100%)"
         stop-opacity="1"
         id="stop22" />
      <stop
         offset="0.7079"
         stop-color="rgb(78.823529%, 90.196078%, 100%)"
         stop-opacity="1"
         id="stop23" />
      <stop
         offset="1"
         stop-color="rgb(1.176471%, 29.803922%, 99.607843%)"
         stop-opacity="1"
         id="stop24" />
    </radialGradient>
    <radialGradient
       id="radial-pattern-1"
       gradientUnits="userSpaceOnUse"
       cx="92.957001"
       cy="19.922899"
       fx="92.957001"
       fy="19.922899"
       r="176.53951"
       gradientTransform="matrix(0.234375,0,0,0.234375,-3.5542188,-3.5542188)">
      <stop
         offset="0.0056"
         stop-color="rgb(100%, 100%, 100%)"
         stop-opacity="1"
         id="stop25" />
      <stop
         offset="0.45"
         stop-color="rgb(58.039216%, 79.215686%, 100%)"
         stop-opacity="1"
         id="stop26" />
      <stop
         offset="0.6"
         stop-color="rgb(78.823529%, 90.196078%, 100%)"
         stop-opacity="1"
         id="stop27" />
      <stop
         offset="1"
         stop-color="rgb(100%, 100%, 100%)"
         stop-opacity="1"
         id="stop28" />
    </radialGradient>
    <linearGradient
       id="linear-pattern-9"
       gradientUnits="userSpaceOnUse"
       x1="201.1055"
       y1="191"
       x2="17.3937"
       y2="191"
       gradientTransform="matrix(0.234375,0,0,0.234375,-3.5542188,-3.5542188)">
      <stop
         offset="0"
         stop-color="rgb(0%, 20%, 20%)"
         stop-opacity="1"
         id="stop29" />
      <stop
         offset="1"
         stop-color="rgb(0%, 41.568627%, 0%)"
         stop-opacity="1"
         id="stop30" />
    </linearGradient>
    <linearGradient
       id="linear-pattern-10"
       gradientUnits="userSpaceOnUse"
       x1="201.1035"
       y1="191"
       x2="17.3915"
       y2="191"
       gradientTransform="matrix(0.234375,0,0,0.234375,-3.5542188,-3.5542188)">
      <stop
         offset="0"
         stop-color="rgb(20%, 80%, 20%)"
         stop-opacity="1"
         id="stop31" />
      <stop
         offset="1"
         stop-color="rgb(0%, 41.568627%, 0%)"
         stop-opacity="1"
         id="stop32" />
    </linearGradient>
  </defs>
  <path
     fill-rule="nonzero"
     fill="url(#linear-pattern-0)"
     d="m 5.7070312,5.7070312 c -7.6093749,7.6132808 -7.6093749,19.9960938 0,27.6054688 3.308594,3.308593 7.6874998,5.316406 12.3398438,5.664062 4.5,0.332031 8.976562,-0.921875 12.664062,-3.515625 0.464844,0.464844 3.253906,3.253906 3.253906,3.253906 1.023438,1.023438 2.8125,0.773438 4.167969,-0.582031 0.796875,-0.796875 1.210938,-1.742187 1.210938,-2.59375 0,-0.601562 -0.207031,-1.152343 -0.628907,-1.574219 0,0 -2.789062,-2.789062 -3.253906,-3.253906 2.320313,-3.292968 3.566406,-7.214844 3.566406,-11.222656 0,-0.480469 -0.01562,-0.960938 -0.05078,-1.441406 -0.347656,-4.652344 -2.359375,-9.0312498 -5.664062,-12.3398438 -7.609375,-7.6093749 -19.992188,-7.6093749 -27.6054698,0 z m 0,0"
     id="path32"
     style="fill:url(#linear-pattern-0)" />
  <path
     fill-rule="nonzero"
     fill="url(#linear-pattern-1)"
     d="m 33.988281,33.988281 c -1.160156,1.164062 -1.78125,2.582031 -1.78125,3.835938 0,0.738281 0.214844,1.417968 0.660156,1.960937 l 0.01563,0.01563 0.01172,0.03516 12.21875,12.21875 c 1.414062,1.414063 4.042969,0.996094 5.992188,-0.949218 1.945312,-1.949219 2.363281,-4.582032 0.949218,-5.992188 l -12.234375,-12.234375 -0.02734,-0.0039 c -1.457041,-1.214859 -3.953135,-0.73439 -5.804697,1.113266 z m 0,0"
     id="path33"
     style="fill:url(#linear-pattern-1)" />
  <path
     fill-rule="nonzero"
     fill="url(#linear-pattern-2)"
     d="M 6.3710933,6.3710933 C 2.8671873,9.8750002 0.93750025,14.542969 0.93750025,19.511719 c 0,4.96875 1.92968705,9.632812 5.43359305,13.140624 3.148438,3.144532 7.3203127,5.058594 11.7460937,5.386719 4.414063,0.328125 8.808594,-0.9375 12.375,-3.558593 l 0.324219,-0.238282 3.8125,3.8125 c 0.644531,0.640625 1.863281,0.390625 2.839844,-0.585937 0.976562,-0.976563 1.226562,-2.199219 0.585937,-2.839844 l -3.8125,-3.8125 0.238282,-0.324219 c 2.625,-3.570312 3.886718,-7.964844 3.558593,-12.375 -0.328125,-4.425781 -2.242187,-8.5976557 -5.386719,-11.7460937 -7.246093,-7.24609305 -19.035156,-7.24609305 -26.2812497,0 z m 0,0"
     id="path34"
     style="fill:url(#linear-pattern-2)" />
  <path
     fill-rule="nonzero"
     fill="url(#linear-pattern-3)"
     d="m 39.066406,33.957031 12.070313,12.070312 c 0.886718,0.886719 0.464843,2.75 -0.949219,4.160157 -1.410157,1.414062 -3.273438,1.835937 -4.160157,0.949219 L 33.957031,39.066406 Z m 0,0"
     id="path35"
     style="fill:url(#linear-pattern-3)" />
  <path
     fill-rule="nonzero"
     fill="url(#linear-pattern-4)"
     d="m 38.886719,34.449219 11.765624,11.761718 c 0.863282,0.867188 0.660157,2.46875 -0.453124,3.582032 -1.113282,1.113281 -2.714844,1.316406 -3.582032,0.453124 L 34.855469,38.480469 Z m 0,0"
     id="path36"
     style="fill:url(#linear-pattern-4)" />
  <path
     fill-rule="nonzero"
     fill="url(#linear-pattern-5)"
     d="m 39.066406,33.957031 c 0.886719,0.886719 0.460937,2.75 -0.949219,4.160156 -1.410156,1.410156 -3.273437,1.835938 -4.160156,0.949219 -0.890625,-0.886719 -0.464844,-2.75 0.949219,-4.160156 1.410156,-1.414063 3.273437,-1.839844 4.160156,-0.949219 z m 0,0"
     id="path37"
     style="fill:url(#linear-pattern-5)" />
  <path
     fill-rule="nonzero"
     fill="url(#linear-pattern-6)"
     d="m 6.6250002,32.398437 c -7.11718795,-7.117187 -7.11718795,-18.65625 0,-25.7734368 7.1171868,-7.11718795 18.6562498,-7.11718795 25.7734368,0 6.625,6.6210928 7.082032,17.0742188 1.375,24.2304688 l 4.027344,4.023437 c 0.484375,0.484375 0.222656,1.53125 -0.582031,2.339844 -0.808594,0.804687 -1.855469,1.066406 -2.339844,0.582031 l -4.023437,-4.023438 c -7.15625,5.703126 -17.609376,5.242188 -24.2304688,-1.378906 z m 0,0"
     id="path38"
     style="fill:url(#linear-pattern-6)" />
  <path
     fill-rule="nonzero"
     fill="url(#linear-pattern-7)"
     d="m 33.753906,31.546875 c 0,0 4.03125,4.035156 4.261719,4.261718 -0.07031,0.179688 -0.269532,0.519532 -0.667969,0.914063 -0.398437,0.398437 -0.734375,0.597656 -0.914063,0.667969 -0.226562,-0.226563 -4.261718,-4.261719 -4.261718,-4.261719 z m 0,0"
     id="path39"
     style="fill:url(#linear-pattern-7)" />
  <path
     fill-rule="nonzero"
     fill="url(#linear-pattern-8)"
     d="m 31.230469,7.7929692 c 6.460937,6.4609368 6.460937,16.9765618 0,23.4374998 -6.460938,6.460937 -16.976563,6.460937 -23.4374998,0 -6.460938,-6.460938 -6.460938,-16.976563 0,-23.4374998 6.4609368,-6.460938 16.9765618,-6.460938 23.4374998,0 z m 0,0"
     id="path40"
     style="fill:url(#linear-pattern-8)" />
  <path
     fill-rule="nonzero"
     fill="url(#radial-pattern-0)"
     d="m 30.644531,8.3750002 c 6.140625,6.1406248 6.140625,16.1289058 0,22.2695308 -6.140625,6.140625 -16.128906,6.140625 -22.2695308,0 -6.136719,-6.140625 -6.136719,-16.128906 0,-22.2695308 6.1406248,-6.136719 16.1289058,-6.136719 22.2695308,0 z m 0,0"
     id="path41"
     style="fill:url(#radial-pattern-0)" />
  <path
     fill-rule="nonzero"
     fill="url(#radial-pattern-1)"
     d="M 9.0390623,9.0390623 C 6.2460933,11.832031 4.7109372,15.550781 4.7109372,19.511719 c 0,3.960937 1.535156,7.679687 4.3281251,10.472656 5.7734377,5.773437 15.1679687,5.773437 20.9453127,0 5.773437,-5.777344 5.773437,-15.171875 0,-20.9453127 -5.777344,-5.773437 -15.171875,-5.773437 -20.9453127,0 z m 0,0"
     id="path42"
     style="fill:url(#radial-pattern-1)" />
  <path
     fill-rule="nonzero"
     fill="url(#linear-pattern-9)"
     d="m 25.742187,34.648437 h -2.8125 v -2.8125 c 0,-1.9375 -1.578125,-3.515625 -3.515625,-3.515625 h -6.09375 c -1.9375,0 -3.5156247,1.578125 -3.5156247,3.515625 v 2.8125 h -2.8125 c -1.9375,0 -3.515625,1.578125 -3.515625,3.515625 v 6.09375 c 0,1.9375 1.578125,3.515625 3.515625,3.515625 h 2.8125 v 2.8125 c 0,1.9375 1.5781247,3.515625 3.5156247,3.515625 h 6.09375 c 1.9375,0 3.515625,-1.578125 3.515625,-3.515625 v -2.8125 h 2.8125 c 1.9375,0 3.515625,-1.578125 3.515625,-3.515625 v -6.09375 c 0,-1.9375 -1.578125,-3.515625 -3.515625,-3.515625 z m 0,0"
     id="path43"
     style="fill:url(#linear-pattern-9)" />
  <path
     fill-rule="nonzero"
     fill="#ffffff"
     fill-opacity="1"
     d="m 25.742187,35.820312 h -3.984375 v -3.984375 c 0,-1.292968 -1.050781,-2.34375 -2.34375,-2.34375 h -6.09375 c -1.292969,0 -2.34375,1.050782 -2.34375,2.34375 v 3.984375 H 6.9921872 c -1.292968,0 -2.34375,1.050781 -2.34375,2.34375 v 6.09375 c 0,1.292969 1.050782,2.34375 2.34375,2.34375 h 3.9843748 v 3.984375 c 0,1.292969 1.050781,2.34375 2.34375,2.34375 h 6.09375 c 1.292969,0 2.34375,-1.050781 2.34375,-2.34375 v -3.984375 h 3.984375 c 1.292969,0 2.34375,-1.050781 2.34375,-2.34375 v -6.09375 c 0,-1.292969 -1.050781,-2.34375 -2.34375,-2.34375 z m 0,0"
     id="path44" />
  <path
     fill-rule="nonzero"
     fill="url(#linear-pattern-10)"
     d="m 25.742187,38.164062 h -6.328125 v -6.328125 h -6.09375 v 6.328125 H 6.9921872 v 6.09375 h 6.3281248 v 6.328125 h 6.09375 v -6.328125 h 6.328125 z m 0,0"
     id="path45"
     style="fill:url(#linear-pattern-10)" />
</svg>
