<?xml version="1.0" encoding="UTF-8" standalone="no"?>
<!-- Created with Inkscape (http://www.inkscape.org/) -->

<svg
   id="svg3493"
   sodipodi:docname="icon-padlock-monochrome.svg"
   viewBox="0 0 217.69291 310.26415"
   version="1.1"
   inkscape:version="1.4.3 (0d15f75042, 2025-12-25)"
   width="217.69292"
   height="310.26416"
   xmlns:inkscape="http://www.inkscape.org/namespaces/inkscape"
   xmlns:sodipodi="http://sodipodi.sourceforge.net/DTD/sodipodi-0.dtd"
   xmlns="http://www.w3.org/2000/svg"
   xmlns:svg="http://www.w3.org/2000/svg"
   xmlns:rdf="http://www.w3.org/1999/02/22-rdf-syntax-ns#"
   xmlns:cc="http://creativecommons.org/ns#"
   xmlns:dc="http://purl.org/dc/elements/1.1/">
  <defs
     id="defs1" />
  <title
     id="title3514">Padlock (Monochrome; Icon)</title>
  <sodipodi:namedview
     id="base"
     fit-margin-left="0"
     inkscape:zoom="1.4"
     borderopacity="1.0"
     inkscape:current-layer="layer1"
     inkscape:cx="5.7142857"
     inkscape:cy="197.5"
     borderlayer="true"
     inkscape:window-maximized="1"
     showgrid="false"
     fit-margin-right="0"
     inkscape:document-units="mm"
     bordercolor="#666666"
     inkscape:window-x="0"
     inkscape:window-y="27"
     fit-margin-bottom="0"
     inkscape:window-width="1366"
     inkscape:pageopacity="0.0"
     inkscape:pageshadow="2"
     pagecolor="#ffffff"
     inkscape:window-height="668"
     fit-margin-top="0"
     inkscape:showpageshadow="2"
     inkscape:pagecheckerboard="0"
     inkscape:deskcolor="#d1d1d1" />
  <g
     id="layer1"
     inkscape:label="Layer 1"
     inkscape:groupmode="layer"
     transform="translate(-202.31573,-163.8)">
    <g
       id="g3353"
       transform="translate(-1348,-1331.7)">
      <path
         id="path3355"
         style="opacity:0.98;fill:#ffffff;stroke-width:0"
         inkscape:connector-curvature="0"
         d="m 1659.3,1495.5 c -0.9683,0.01 -1.9372,0.021 -2.9063,0.062 -44.496,0.284 -84.418,39.853 -84.531,84.469 -0.5035,10.517 0.1466,21.042 0.031,31.563 -7.1458,-10e-5 -14.292,-10e-5 -21.438,0 0.5678,46.226 -1.1556,92.56 0.9062,138.72 4.4359,29.724 31.126,56.603 62.25,55.156 34.078,-0.066 68.262,1.0541 102.28,-0.6876 31.934,-5.5024 54.359,-38.293 51.938,-70.031 0.3669,-41.041 -0.035,-82.083 0.125,-123.12 -7.1142,-0.1818 -14.23,0.139 -21.344,-0.094 0.5401,-24.99 1.715,-52.307 -12.531,-73.969 -15.406,-25.706 -44.767,-42.255 -74.781,-42.062 z m 0.4062,35.688 c 25.281,0.3463 50.259,21.283 49.531,47.625 0.5019,10.922 0.8363,21.85 1.0626,32.781 -34.011,-0.02 -68.021,0.053 -102.03,-0.063 0.1057,-17.098 -4.4827,-35.793 4.875,-51.187 8.4966,-16.311 25.48,-28.793 44.125,-29.125 0.8153,-0.032 1.622,-0.043 2.4375,-0.031 z" />
      <path
         id="path3357"
         d="m 1657.1,1501.5 c -44.13,1.1108 -79.312,37.031 -79.312,81.438 v 34.625 h -21.344 v 117.75 h 0.031 c -0.031,0.8505 -0.031,1.7033 -0.031,2.5625 0,34.197 25.051,61.719 56.187,61.719 h 93.094 c 31.136,0 56.219,-27.522 56.219,-61.719 0,-0.859 -0.032,-1.7123 -0.063,-2.5625 h 0.063 v -117.75 h -21.313 v -34.625 c 0,-45.111 -36.295,-81.438 -81.406,-81.438 -0.7049,0 -1.4245,-0.018 -2.125,0 z m -0.375,23.75 c 0.5355,-0.013 1.0865,0 1.625,0 25.79,-0.6025 51.139,18.477 56.406,43.812 0.8967,16.166 1.4017,32.319 1.6876,48.5 h -114.31 c -0.027,-7.7372 -0.063,-15.456 -0.2187,-23.188 -6.5279,-33.085 21.075,-68.332 54.812,-69.125 z m 2.375,135.38 c 1.2168,0 2.4472,0.095 3.6875,0.2812 13.23,1.9847 22.36,14.301 20.375,27.531 -0.9138,6.092 -4.0565,11.334 -8.4375,15 l 8.4688,53.094 h -23.844 -0.3438 -23.812 l 8.4374,-53.094 c -6.2414,-5.2417 -9.7038,-13.536 -8.4062,-22.188 1.7986,-11.99 12.112,-20.593 23.875,-20.625 z"
         style="opacity:0.98;fill:#000000;stroke-width:0"
         inkscape:connector-curvature="0" />
    </g>
  </g>
  <metadata
     id="metadata1">
    <rdf:RDF>
      <cc:Work>
        <dc:format>image/svg+xml</dc:format>
        <dc:type
           rdf:resource="http://purl.org/dc/dcmitype/StillImage" />
        <cc:license
           rdf:resource="http://creativecommons.org/publicdomain/zero/1.0/" />
        <dc:publisher>
          <cc:Agent
             rdf:about="http://openclipart.org/">
            <dc:title>Openclipart</dc:title>
          </cc:Agent>
        </dc:publisher>
        <dc:title>Padlock (Monochrome; Icon)</dc:title>
        <dc:date>2011-01-05T12:22:01</dc:date>
        <dc:description>Monochrome padlock icon</dc:description>
        <dc:source>https://openclipart.org/detail/103645/padlock---monochrome-by-uroesch</dc:source>
        <dc:creator>
          <cc:Agent>
            <dc:title>uroesch</dc:title>
          </cc:Agent>
        </dc:creator>
        <dc:subject>
          <rdf:Bag>
            <rdf:li>black &amp; white</rdf:li>
            <rdf:li>icon</rdf:li>
            <rdf:li>lock</rdf:li>
            <rdf:li>monochrome</rdf:li>
            <rdf:li>padlock</rdf:li>
            <rdf:li>symbol</rdf:li>
          </rdf:Bag>
        </dc:subject>
      </cc:Work>
      <cc:License
         rdf:about="http://creativecommons.org/publicdomain/zero/1.0/">
        <cc:permits
           rdf:resource="http://creativecommons.org/ns#Reproduction" />
        <cc:permits
           rdf:resource="http://creativecommons.org/ns#Distribution" />
        <cc:permits
           rdf:resource="http://creativecommons.org/ns#DerivativeWorks" />
      </cc:License>
    </rdf:RDF>
  </metadata>
</svg>
