<?xml version="1.0" encoding="UTF-8"?>
<svg xmlns="http://www.w3.org/2000/svg" xmlns:xlink="http://www.w3.org/1999/xlink" width="453.6" height="453.6" viewBox="0 0 453.6 453.6">
<defs>
<linearGradient id="linear-pattern-0" gradientUnits="userSpaceOnUse" x1="0" y1="0" x2="1" y2="0" gradientTransform="matrix(200, 0.000000000000014211, -0.000000000000014211, 200, -100, -100)">
<stop offset="0" stop-color="rgb(0%, 0%, 47.45098%)" stop-opacity="1"/>
<stop offset="0.68852" stop-color="rgb(47.058824%, 49.803922%, 76.470588%)" stop-opacity="1"/>
<stop offset="1" stop-color="rgb(81.568627%, 88.235294%, 100%)" stop-opacity="1"/>
</linearGradient>
<linearGradient id="linear-pattern-1" gradientUnits="userSpaceOnUse" x1="0" y1="0" x2="1" y2="0" gradientTransform="matrix(200, 0.000000000000014211, -0.000000000000014211, 200, -100, -100)">
<stop offset="0" stop-color="rgb(20%, 46.666667%, 93.333333%)" stop-opacity="1"/>
<stop offset="0.2" stop-color="rgb(13.333333%, 46.666667%, 80%)" stop-opacity="1"/>
<stop offset="1" stop-color="rgb(0%, 0%, 47.45098%)" stop-opacity="1"/>
</linearGradient>
<radialGradient id="radial-pattern-0" gradientUnits="userSpaceOnUse" cx="0.5" cy="0.5" fx="0.5" fy="0.5" r="0.5" gradientTransform="matrix(-223.300971, -386.768627, 386.768627, -223.300971, 145.066172, 531.834799)">
<stop offset="0" stop-color="rgb(23.137255%, 23.137255%, 87.058824%)" stop-opacity="1"/>
<stop offset="0.7541" stop-color="rgb(23.529412%, 34.901961%, 87.058824%)" stop-opacity="1"/>
<stop offset="1" stop-color="rgb(11.372549%, 43.529412%, 100%)" stop-opacity="0"/>
</radialGradient>
</defs>
<path fill-rule="nonzero" fill="url(#linear-pattern-0)" stroke-width="3" stroke-linecap="butt" stroke-linejoin="miter" stroke="url(#linear-pattern-1)" stroke-miterlimit="4" d="M 100.000871 -0.0000540738 C 99.999491 55.22839 55.228382 99.998953 0.00057887 99.999962 C -55.228739 100.000097 -99.999303 55.228988 -99.999437 -0.000330104 C -100.000447 -55.228133 -55.228463 -100.000211 0.0008549 -100.000346 C 55.227784 -99.999841 99.999862 -55.227857 100.000871 -0.0000540738 Z M 100.000871 -0.0000540738 " transform="matrix(-1.116505, -1.933843, 1.933843, -1.116505, 226.8, 226.8)"/>
<path fill-rule="nonzero" fill="url(#radial-pattern-0)" d="M 115.148438 33.414062 C 221.953125 -28.246094 358.519531 8.347656 420.183594 115.148438 C 481.847656 221.953125 445.253906 358.519531 338.449219 420.183594 C 231.648438 481.847656 95.078125 445.253906 33.414062 338.449219 C -28.246094 231.648438 8.347656 95.078125 115.148438 33.414062 Z M 115.148438 33.414062 "/>
<path fill-rule="nonzero" fill="rgb(91.764706%, 100%, 100%)" fill-opacity="1" d="M 275.335938 101.101562 C 275.335938 129.308594 259.40625 143.414062 227.546875 143.414062 C 213.941406 143.414062 202.820312 139.929688 193.859375 132.792969 C 184.070312 124.996094 179.257812 114.375 179.257812 101.101562 C 179.257812 88.488281 184.234375 78.199219 194.359375 70.070312 C 203.484375 62.601562 214.601562 58.785156 227.546875 58.785156 C 240.324219 58.785156 251.277344 62.601562 260.402344 70.234375 C 270.359375 78.367188 275.335938 88.652344 275.335938 101.101562 Z M 269.03125 281.808594 C 269.03125 293.589844 269.199219 311.179688 269.695312 334.578125 C 270.195312 357.976562 270.359375 375.566406 270.359375 387.183594 C 270.359375 390.667969 268.367188 392.65625 264.386719 393.320312 C 258.910156 394.316406 246.464844 394.816406 227.214844 394.816406 C 207.632812 394.816406 195.1875 394.316406 189.710938 393.320312 C 186.0625 392.65625 183.90625 391.664062 183.074219 390.167969 C 182.742188 389.503906 182.578125 387.183594 182.578125 382.867188 C 182.578125 371.75 182.910156 354.824219 183.40625 332.421875 C 183.90625 310.019531 184.070312 293.09375 184.070312 281.808594 C 184.070312 235.679688 182.410156 199.171875 178.761719 171.957031 C 178.429688 169.300781 178.261719 167.640625 178.261719 166.8125 C 178.261719 163.492188 180.417969 162 184.898438 162 C 189.378906 162 196.351562 162.496094 205.640625 163.328125 C 214.933594 164.324219 221.90625 164.820312 226.71875 164.820312 C 231.363281 164.820312 238.332031 164.488281 247.792969 163.660156 C 257.25 162.828125 264.21875 162.496094 269.03125 162.332031 C 272.847656 162.496094 274.839844 163.992188 274.839844 167.308594 C 274.839844 167.972656 274.675781 169.46875 274.34375 171.957031 C 270.691406 203.484375 269.03125 240.160156 269.03125 281.808594 "/>
</svg>
