<?xml version="1.0" encoding="UTF-8"?>
<svg xmlns="http://www.w3.org/2000/svg" xmlns:xlink="http://www.w3.org/1999/xlink" width="800" height="800" viewBox="0 0 800 800">
<path fill-rule="nonzero" fill="rgb(100%, 0%, 0%)" fill-opacity="1" d="M 400.003906 0.00390625 C 179.089844 0.00390625 0 179.074219 0 400.007812 C 0 620.90625 179.089844 799.996094 400.003906 799.996094 C 620.910156 799.996094 800 620.90625 800 400.007812 C 800 179.074219 620.910156 0.00390625 400.003906 0.00390625 Z M 400.003906 0.00390625 "/>
<path fill-rule="nonzero" fill="rgb(100%, 100%, 100%)" fill-opacity="1" d="M 449.480469 234.472656 C 444.441406 228.019531 437.75 224.789062 429.40625 224.789062 C 422.003906 224.789062 416.964844 226.207031 414.289062 229.039062 C 411.609375 231.875 405.863281 239.433594 397.046875 251.714844 C 388.226562 263.996094 378.113281 275.097656 366.699219 285.015625 C 355.277344 294.9375 340.042969 304.386719 320.996094 313.359375 C 308.242188 319.34375 299.339844 324.222656 294.304688 328.003906 C 289.265625 331.78125 286.746094 337.6875 286.746094 345.71875 C 286.746094 352.648438 289.304688 358.75 294.421875 364.023438 C 299.535156 369.300781 305.40625 371.933594 312.019531 371.933594 C 325.871094 371.933594 352.800781 356.582031 392.796875 325.878906 L 392.796875 540.8125 C 392.796875 553.410156 395.707031 562.9375 401.535156 569.390625 C 407.359375 575.84375 415.074219 579.074219 424.679688 579.074219 C 446.25 579.074219 457.039062 563.25 457.039062 531.601562 L 457.039062 261.160156 C 457.039062 249.824219 454.519531 240.929688 449.480469 234.472656 Z M 449.480469 234.472656 "/>
</svg>
