<?xml version="1.0" encoding="UTF-8" standalone="no"?>
<svg
   width="122.06063"
   height="123.63165"
   version="1.1"
   id="svg63"
   sodipodi:docname="oxygen480-actions-document-save2.svg"
   inkscape:version="1.4.3 (0d15f75042, 2025-12-25)"
   xmlns:inkscape="http://www.inkscape.org/namespaces/inkscape"
   xmlns:sodipodi="http://sodipodi.sourceforge.net/DTD/sodipodi-0.dtd"
   xmlns:xlink="http://www.w3.org/1999/xlink"
   xmlns="http://www.w3.org/2000/svg"
   xmlns:svg="http://www.w3.org/2000/svg">
  <sodipodi:namedview
     id="namedview63"
     pagecolor="#ffffff"
     bordercolor="#000000"
     borderopacity="0.25"
     inkscape:showpageshadow="2"
     inkscape:pageopacity="0.0"
     inkscape:pagecheckerboard="0"
     inkscape:deskcolor="#d1d1d1"
     inkscape:zoom="3.5859375"
     inkscape:cx="59.119826"
     inkscape:cy="58.980392"
     inkscape:window-width="1366"
     inkscape:window-height="668"
     inkscape:window-x="0"
     inkscape:window-y="27"
     inkscape:window-maximized="1"
     inkscape:current-layer="svg63" />
  <defs
     id="defs37">
    <filter
       id="L"
       x="-0.15990919"
       y="-0.22590349"
       width="1.3198184"
       height="1.451807">
      <feGaussianBlur
         stdDeviation=".10453397"
         id="feGaussianBlur1" />
    </filter>
    <filter
       id="D"
       width="1.455"
       height="1.3033333"
       x="-0.2275"
       y="-0.15166667">
      <feGaussianBlur
         stdDeviation=".55"
         id="feGaussianBlur2" />
    </filter>
    <filter
       id="J"
       x="-0.061195649"
       y="-0.072421264"
       width="1.1223913"
       height="1.1448425">
      <feGaussianBlur
         stdDeviation=".04177847"
         id="feGaussianBlur3" />
    </filter>
    <filter
       id="q"
       x="-0.01636923"
       y="-0.0074140351"
       width="1.0327385"
       height="1.0183421">
      <feGaussianBlur
         stdDeviation=".0231875"
         id="feGaussianBlur4" />
    </filter>
    <filter
       id="A"
       x="-0.066461544"
       y="-0.08307693"
       width="1.1329231"
       height="1.1661539">
      <feGaussianBlur
         stdDeviation=".02596154"
         id="feGaussianBlur5" />
    </filter>
    <filter
       id="o"
       width="1.2476923"
       height="1.1857692"
       x="-0.12384615"
       y="-0.092884612">
      <feGaussianBlur
         stdDeviation="1.2384615"
         id="feGaussianBlur6" />
    </filter>
    <filter
       id="l"
       width="1.1232667"
       height="1.1948216"
       x="-0.061633327"
       y="-0.097410806">
      <feGaussianBlur
         stdDeviation="1.9228365"
         id="feGaussianBlur7" />
    </filter>
    <filter
       id="g"
       x="-0.0023883333"
       y="-0.068358866"
       width="1.0047767"
       height="1.1367177">
      <feGaussianBlur
         stdDeviation=".11145486"
         id="feGaussianBlur8" />
    </filter>
    <filter
       id="y"
       width="1.0142819"
       height="1.3877715"
       x="-0.0071409683"
       y="-0.19388576">
      <feGaussianBlur
         stdDeviation=".33324519"
         id="feGaussianBlur9" />
    </filter>
    <filter
       id="w"
       width="1.0121165"
       height="2.2481989"
       x="-0.0060582329"
       y="-0.62409946">
      <feGaussianBlur
         stdDeviation=".18955201"
         id="feGaussianBlur10" />
    </filter>
    <filter
       id="t"
       x="-0.024996538"
       y="-0.034457597"
       width="1.0499931"
       height="1.0689152">
      <feGaussianBlur
         stdDeviation=".66759571"
         id="feGaussianBlur11" />
    </filter>
    <filter
       id="e"
       width="1.1483736"
       height="4.070573"
       x="-0.076226246"
       y="-1.5361654">
      <feGaussianBlur
         stdDeviation="2.9868914"
         id="feGaussianBlur12" />
    </filter>
    <filter
       id="d"
       width="1.0471674"
       height="1.4429946"
       x="-0.023583706"
       y="-0.22149732">
      <feGaussianBlur
         stdDeviation="1.0149838"
         id="feGaussianBlur13" />
    </filter>
    <linearGradient
       id="b">
      <stop
         offset="0"
         stop-color="#fff"
         id="stop13" />
      <stop
         offset="1"
         stop-color="#fff"
         stop-opacity="0"
         id="stop14" />
    </linearGradient>
    <linearGradient
       id="a">
      <stop
         offset="0"
         id="stop15" />
      <stop
         offset="1"
         stop-opacity="0"
         id="stop16" />
    </linearGradient>
    <linearGradient
       xlink:href="#a"
       id="F"
       x1="16"
       x2="16"
       y1="1.5953"
       y2="18.754999"
       gradientUnits="userSpaceOnUse" />
    <linearGradient
       id="I"
       x1="11.918"
       x2="11.918"
       y1="17.561001"
       y2="20.038"
       gradientTransform="matrix(1.1063,0,0,1.1063,0.54709,-2.2994)"
       gradientUnits="userSpaceOnUse">
      <stop
         offset="0"
         stop-color="#fff"
         id="stop17" />
      <stop
         offset="1"
         id="stop18" />
    </linearGradient>
    <linearGradient
       id="r"
       x1="64"
       x2="56"
       y1="120.07"
       y2="96.316002"
       gradientTransform="matrix(1,0,0,1.0104,-4.607912,-6.3468904)"
       gradientUnits="userSpaceOnUse">
      <stop
         offset="0"
         stop-color="#8a8a8a"
         id="stop19" />
      <stop
         offset="1"
         stop-color="#c6c6c6"
         id="stop20" />
    </linearGradient>
    <linearGradient
       xlink:href="#b"
       id="p"
       x1="-37.195"
       x2="-12.625"
       y1="42.335999"
       y2="106.8"
       gradientTransform="translate(126.8)"
       gradientUnits="userSpaceOnUse" />
    <linearGradient
       xlink:href="#a"
       id="n"
       x1="68"
       x2="36"
       y1="120"
       y2="84"
       gradientUnits="userSpaceOnUse" />
    <linearGradient
       xlink:href="#a"
       id="j"
       x1="47.609001"
       x2="47.609001"
       y1="104.35"
       y2="176.35001"
       gradientUnits="userSpaceOnUse" />
    <linearGradient
       xlink:href="#b"
       id="i"
       x1="107.06"
       x2="107.06"
       y1="-26.263"
       y2="134.55"
       gradientTransform="translate(4.792088,-4.4368904)"
       gradientUnits="userSpaceOnUse" />
    <linearGradient
       xlink:href="#b"
       id="h"
       x1="69.913002"
       x2="70.019997"
       y1="-96.5"
       y2="-67.843002"
       gradientTransform="translate(-4.607912,126.37311)"
       gradientUnits="userSpaceOnUse" />
    <linearGradient
       id="f"
       x1="-97.742996"
       x2="-97.742996"
       y1="1938"
       y2="1895.4"
       gradientTransform="matrix(2.56,0,0,2.5827,312.59209,-4892.4369)"
       gradientUnits="userSpaceOnUse">
      <stop
         offset="0"
         stop-color="#2e2a2b"
         id="stop21" />
      <stop
         offset=".33498"
         stop-color="#4c494a"
         id="stop22" />
      <stop
         offset=".66749"
         stop-color="#5b595a"
         id="stop23" />
      <stop
         offset="1"
         stop-color="#6b696a"
         id="stop24" />
    </linearGradient>
    <radialGradient
       xlink:href="#b"
       id="M"
       cx="118.17"
       cy="9.1196003"
       r="1.2844"
       gradientTransform="matrix(1.2088,0.95832,-1.4021,1.7686,-11.996,-120.41)"
       gradientUnits="userSpaceOnUse" />
    <radialGradient
       xlink:href="#b"
       id="K"
       cx="118.17"
       cy="9.1196003"
       r="1.2844"
       gradientTransform="matrix(1.2088,0.95832,-1.4021,1.7686,-11.096,-120.71)"
       gradientUnits="userSpaceOnUse" />
    <radialGradient
       id="E"
       cx="16"
       cy="18"
       r="4"
       gradientTransform="matrix(1,0,0,1.5,0,-9)"
       gradientUnits="userSpaceOnUse">
      <stop
         offset="0"
         stop-color="#7a7a7a"
         id="stop25" />
      <stop
         offset="1"
         stop-opacity=".49091"
         id="stop26" />
    </radialGradient>
    <radialGradient
       id="H"
       cx="14"
       cy="19.700001"
       r="2.1500001"
       fy="18.836"
       gradientTransform="matrix(1.1063,0,0,1.1063,0.54709,-2.2994)"
       gradientUnits="userSpaceOnUse">
      <stop
         offset="0"
         stop-color="#868385"
         id="stop27" />
      <stop
         offset="1"
         stop-color="#4a4949"
         id="stop28" />
    </radialGradient>
    <radialGradient
       xlink:href="#b"
       id="B"
       cx="104.09"
       cy="9"
       r="0.46875"
       gradientTransform="matrix(1,0,0,0.8,-80.464,1.9105)"
       gradientUnits="userSpaceOnUse" />
    <radialGradient
       xlink:href="#b"
       id="z"
       cx="104.09"
       cy="9"
       r="0.46875"
       gradientTransform="matrix(1,0,0,0.8,-5.107912,-3.1268904)"
       gradientUnits="userSpaceOnUse" />
    <radialGradient
       xlink:href="#b"
       id="m"
       cx="84"
       cy="91.983002"
       r="32"
       gradientTransform="matrix(1,0,0,0.62103,-4.607912,32.84011)"
       gradientUnits="userSpaceOnUse" />
    <radialGradient
       id="v"
       cx="64.802002"
       cy="63.780998"
       r="34.041"
       gradientTransform="matrix(1.1398,0,0,0.0107,-13.687912,58.06311)"
       gradientUnits="userSpaceOnUse">
      <stop
         offset="0"
         stop-color="#fff"
         id="stop29" />
      <stop
         offset=".5"
         stop-color="#fff"
         stop-opacity=".69818"
         id="stop30" />
      <stop
         offset="1"
         stop-color="#fff"
         stop-opacity="0"
         id="stop31" />
    </radialGradient>
    <radialGradient
       id="u"
       cx="100.31"
       cy="42.449001"
       r="38"
       gradientTransform="matrix(4.5705,0,0,1.8569,-421.22791,-89.75689)"
       gradientUnits="userSpaceOnUse">
      <stop
         offset="0"
         stop-color="#d0ced9"
         id="stop32" />
      <stop
         offset=".25"
         stop-color="#ecf1f9"
         id="stop33" />
      <stop
         offset=".5"
         stop-color="#fff"
         id="stop34" />
      <stop
         offset="1"
         stop-color="#c6d5e3"
         id="stop35" />
    </radialGradient>
    <radialGradient
       xlink:href="#a"
       id="c"
       cx="28.481001"
       cy="164.13"
       r="52.145"
       gradientTransform="matrix(5.4916,-0.11504,0.00261,0.1246,-132.97791,99.79311)"
       gradientUnits="userSpaceOnUse" />
    <clipPath
       id="C">
      <rect
         width="8"
         height="12"
         x="12"
         y="12"
         opacity="0.18359"
         rx="1.0793"
         ry="1.0793"
         id="rect35" />
    </clipPath>
    <clipPath
       id="G">
      <rect
         width="8"
         height="12"
         x="12"
         y="12"
         opacity="0.18359"
         rx="1.0793"
         ry="1.0793"
         id="rect36" />
    </clipPath>
    <clipPath
       id="k">
      <path
         fill-opacity="0.12832"
         d="m 18.19,132.42 c -1.4192,0 -2.5625,1.1433 -2.5625,2.5625 v 37.183 h 72 v -37.183 c 0,-1.4192 -1.1433,-2.5625 -2.5625,-2.5625 z"
         id="path36" />
    </clipPath>
    <clipPath
       id="x">
      <path
         fill="url(#linearGradient3219)"
         d="m 11.375,-167.68 c -2.9534,0 -3.375,0.36407 -3.375,3.3438 v 0.78125 c 0,-2.9797 0.42155,-3.3125 3.375,-3.3125 h 105.25 c 2.9534,0 3.375,0.33282 3.375,3.3125 v -0.78125 c 0,-2.9797 -0.42155,-3.3438 -3.375,-3.3438 z"
         id="path37" />
    </clipPath>
    <clipPath
       id="s">
      <rect
         width="78.124001"
         height="55.396"
         x="24.681"
         y="-68.245003"
         fill="none"
         stroke="#000000"
         stroke-dashoffset="4.15"
         stroke-linecap="round"
         stroke-linejoin="round"
         stroke-width="0.4"
         opacity="0.26562"
         rx="1.1339"
         ry="1.1339"
         id="rect37" />
    </clipPath>
  </defs>
  <path
     fill="url(#c)"
     fill-rule="evenodd"
     d="m 11.392088,115.96311 h 14 v -1 h 58.2 v 1 h 27.800002 v -4 L 8.102088,104.96541 Z"
     filter="url(#d)"
     id="path38"
     style="fill:url(#c)" />
  <path
     fill-rule="evenodd"
     stroke="#000000"
     d="m 11.392088,115.96311 h 14 v -1 h 60 v 1 h 29.000002 v -4 L 8.102088,110.96539 Z"
     filter="url(#e)"
     id="path39" />
  <path
     fill="url(#f)"
     d="m 6.692088,2.9631096 c -1.8088,0 -3.3611,1.6254 -3.3601,3.3268 V 105.22191 l 10.64,10.654 h 97.999002 c 2.9535,0 3.3598,-0.34717 3.3598,-3.3266 V 6.2893096 c 0,-1.813 -1.558,-3.3268 -3.3598,-3.3268 z"
     id="path40"
     style="fill:url(#f)" />
  <path
     fill="#ffffff"
     fill-opacity="0.46903"
     d="m 6.792088,3.5631096 c -2.0564,0.10719 -3.375,0.70528 -3.375,3.3125 v 0.59375 c 0,-2.9797 1.4216,-3.3125 4.375,-3.3125 H 111.04209 c 2.9535,0 4.375,0.33282 4.375,3.3125 v -0.59375 c 0,-2.9797 -1.4215,-3.3125 -4.375,-3.3125 H 7.792088 c -0.3691,0 -0.7062,-0.0153 -1,0 z"
     filter="url(#g)"
     id="path41" />
  <path
     fill="url(#h)"
     d="m 99.692088,3.5931096 c -0.1011,0 -0.1884,0.0369 -0.2812,0.0625 -0.1043,0.0288 -0.1916,0.0687 -0.2813,0.125 -0.085,0.0537 -0.1503,0.1133 -0.2187,0.1875 -0.029,0.031 -0.069,0.0597 -0.094,0.0937 -0.034,0.0406 -0.065,0.0806 -0.094,0.125 -0.093,0.16901 -0.1563,0.35712 -0.1563,0.5625 V 56.12431 h 0.4063 V 4.7493096 c 0,-0.21142 0.089,-0.39008 0.1875,-0.5625 h 11.906002 c 2.9535,0 4.375,0.33282 4.375,3.3125 v -0.59375 c 0,-2.6072 -1.3157,-3.1768 -3.375,-3.2812 H 99.941388 c 0.054,-0.008 0.100402,-0.0312 0.156302,-0.0312 z m -93.219,0.0312 c -1.6252,0.15371 -2.962,0.77436 -3,2.875 0.121,-2.0599 1.7595,-2.3125 4.3437,-2.3125 h 12 c 0.1066,0.1773 0.1563,0.37327 0.1563,0.59375 V 56.15556 h 0.4062 V 4.7805596 c 0,-0.22048 -0.05,-0.41645 -0.1562,-0.59375 -0.045,-0.0753 -0.096,-0.15599 -0.1563,-0.21875 -0.094,-0.10558 -0.2187,-0.19086 -0.3437,-0.25 -0.1164,-0.055 -0.2345,-0.0937 -0.375,-0.0937 h -0.5 z m -3,2.875 c 0,0.13474 -0.031,0.25892 -0.031,0.40625 v 0.59375 c 0,-0.37246 0.014,-0.70573 0.031,-1 z"
     filter="url(#g)"
     opacity="0.26953"
     id="path42"
     style="fill:url(#h)" />
  <path
     fill="url(#i)"
     d="m 110.79209,3.5631096 c 2.9534,0 3.775,0.33282 3.775,3.3125 V 110.15561 c 0,2.9794 -2.8216,5.3125 -5.775,5.3125 h 0.7187 c 2.9535,0 5.3438,-2.3331 5.3438,-5.3125 V 6.8756096 c 0,-2.9797 -0.3903,-3.3125 -3.3438,-3.3125 z"
     id="path43"
     style="fill:url(#i)" />
  <path
     fill="url(#j)"
     d="m 16.781,130.44 c -1.483,0 -2.6562,1.2046 -2.6562,2.6875 v 42.031 c 0,1.483 1.1733,2.6562 2.6562,2.6562 h 0.15625 c -0.40777,-0.44637 -0.6875,-1.0318 -0.6875,-1.6875 v -39.969 c 0,-1.3913 1.112,-2.5312 2.5,-2.5312 h 65.594 c 1.388,0 2.5,1.1399 2.5,2.5312 v 39.969 c 2e-6,0.65574 -0.24848,1.2411 -0.65625,1.6875 h 0.125 c 1.483,0 2.6875,-1.1733 2.6875,-2.6562 v -42.031 c 0,-1.483 -1.2045,-2.6875 -2.6875,-2.6875 z"
     clip-path="url(#k)"
     filter="url(#l)"
     transform="translate(11.792088,-57.38689)"
     id="path44"
     style="fill:url(#j)" />
  <path
     fill-opacity="0.12832"
     d="m 29.892088,74.97211 c -1.4192,0 -2.5625,1.1433 -2.5625,2.5625 l 0.025,37.146 h 72 l -0.025,-37.146 c 0,-1.4192 -1.1433,-2.5625 -2.5625,-2.5625 z"
     id="path45" />
  <path
     fill="url(#m)"
     d="m 29.992088,75.03511 c -1.4193,0 -2.5625,1.1433 -2.5625,2.5625 v 37.183 l 71.981,-0.11658 v -37.183 c 0,-1.4192 -1.1433,-2.5625 -2.5625,-2.5625 z"
     opacity="0.074219"
     id="path46"
     style="fill:url(#m)" />
  <path
     fill="url(#n)"
     d="m 52.938,84 c -0.51955,0 -0.9375,0.41795 -0.9375,0.9375 v 23.062 h -11.062 c -0.51955,0 -0.9375,0.41795 -0.9375,0.9375 v 6.125 c 0,0.51955 0.41795,0.9375 0.9375,0.9375 h 22.125 c 0.51955,0 0.9375,-0.41795 0.9375,-0.9375 V 84.937 c 0,-0.51955 -0.41795,-0.9375 -0.9375,-0.9375 z"
     filter="url(#o)"
     transform="matrix(1,0,0,1.0104,-4.607912,-6.3468904)"
     id="path47"
     style="fill:url(#n)" />
  <path
     fill="url(#p)"
     fill-rule="evenodd"
     stroke="#ffffff"
     stroke-width="0.1"
     d="m 112.08,97.375 v 6.7188 h -2.25 l 4.3438,7.5312 4.3438,-7.5312 h -2.25 V 97.375 h -2.0938 z"
     filter="url(#q)"
     opacity="0.45312"
     transform="matrix(0.98758,0,0,1,-3.907912,-4.8368904)"
     id="path48"
     style="fill:url(#p)" />
  <path
     fill="url(#r)"
     d="m 29.892088,75.28611 c -1.1772,0 -2.125,0.95756 -2.125,2.147 l 0.1768,38.067 h 55.406 v -38.21 c 0,-1.1894 -0.8227,-2.0038 -2,-2.0038 z m 6.3955,8.0323 h 14.125 c 0.5196,0 0.9375,0.42228 0.9375,0.94721 v 21.598 c 0,0.52493 -0.4179,0.94721 -0.9375,0.94721 h -14.125 c -0.5195,0 -0.9375,-0.42228 -0.9375,-0.94721 v -21.598 c 0,-0.52493 0.418,-0.94721 0.9375,-0.94721 z"
     id="path49"
     style="fill:url(#r)" />
  <path
     fill="#ffffff"
     d="m 30.092088,75.34611 c -1.1772,0 -2.125,0.95756 -2.125,2.147 v 0.18944 c 0,-1.1894 0.9478,-2.147 2.125,-2.147 h 51.156 c 1.0301,0 1.8962,0.75643 2.0937,1.7365 -0.1089,-1.0847 -0.9904,-1.926 -2.0937,-1.926 z m 5.2813,30.721 v 0.18946 c 0,0.52492 0.4179,0.94719 0.9375,0.94719 h 14.125 c 0.5195,0 0.9375,-0.42227 0.9375,-0.94719 v -0.18946 c 0,0.52493 -0.418,0.9472 -0.9375,0.9472 h -14.125 c -0.5196,0 -0.9375,-0.42227 -0.9375,-0.9472 z"
     id="path50" />
  <path
     fill="#ffffff"
     d="m 30.092088,75.24411 c -1.1772,0 -2.125,1.3635 -2.125,2.5529 v 0.18944 c 0,-1.1894 0.9478,-1.547 2.125,-1.547 h 51.156 c 1.0301,0 1.6962,0.15643 1.8937,1.1365 -0.1089,-1.0847 -0.7904,-2.2304 -1.8937,-2.2304 z m 5.2813,31.127 v 0.18944 c 0,0.52493 0.4179,0.94721 0.9375,0.94721 h 14.125 c 0.5195,0 0.9375,-0.42228 0.9375,-0.94721 v -0.18944 c 0,0.52493 -0.418,0.9472 -0.9375,0.9472 h -14.125 c -0.5196,0 -0.9375,-0.42227 -0.9375,-0.9472 z"
     id="path51" />
  <path
     fill="none"
     stroke="#000000"
     stroke-dashoffset="1.0878"
     stroke-linecap="round"
     stroke-linejoin="round"
     stroke-width="0.7"
     d="m 24.694,-69.481 v 56.656 h 78.1 v -56.656 z"
     clip-path="url(#s)"
     filter="url(#t)"
     transform="translate(-4.307912,71.44811)"
     id="path52" />
  <rect
     width="76"
     height="54"
     x="21.392088"
     y="2.9631095"
     fill="url(#u)"
     rx="1.2345001"
     ry="1.2345001"
     id="rect52"
     style="fill:url(#u)" />
  <rect
     width="3.8491001"
     height="53.922001"
     x="21.492088"
     y="2.9631095"
     fill="#cfdce7"
     opacity="0.61328"
     rx="0.92457002"
     ry="0.92457002"
     id="rect53" />
  <rect
     width="3.7945001"
     height="53.466999"
     x="93.39209"
     y="3.4631095"
     fill="#cfdce7"
     opacity="0.54688"
     rx="0.89723998"
     ry="0.92457002"
     id="rect54" />
  <path
     fill="url(#v)"
     d="m 21.392088,58.38111 h 75.092 v 0.72893 h -75.092 z"
     filter="url(#w)"
     id="path54"
     style="fill:url(#v)" />
  <path
     fill-opacity="0.35841"
     d="m 12.375,-168.28 c -2.9534,0 -4.375,0.36407 -4.375,3.3438 v 0.78125 c 0,-2.9797 1.4216,-3.3125 4.375,-3.3125 h 103.25 c 2.9534,0 4.375,0.33282 4.375,3.3125 v -0.78125 c 0,-2.9797 -1.4216,-3.3438 -4.375,-3.3438 z"
     clip-path="url(#x)"
     filter="url(#y)"
     transform="translate(-4.607912,171.81311)"
     id="path55" />
  <path
     fill="#b2c6d9"
     fill-rule="evenodd"
     d="m 27.392088,11.08711 v 3.9536 h 64 v -3.9536 z m 0,16.106 v 3.8904 h 64 v -3.8904 z m 0,15.974 v 4 h 64 v -4 z"
     opacity="0.56522"
     id="path56" />
  <path
     fill="#ffffff"
     d="M 96.792088,2.9631096 V 56.76911 c 0.183,-0.10161 0.2943,-0.251 0.4062,-0.4 V 2.9631096 Z m -75.3,0 0.014,53.3010004 c 0.103,0.19989 0.2524,0.33804 0.4062,0.47033 l -0.014,-53.7710004 z"
     id="path57" />
  <path
     fill="url(#z)"
     fill-rule="evenodd"
     d="m 99.292088,3.7031096 -0.75,0.6875 0.9375,0.0625 z"
     filter="url(#A)"
     id="path58"
     style="fill:url(#z)" />
  <path
     fill="url(#B)"
     fill-rule="evenodd"
     d="m 23.911,8.7355 -0.75,0.6875 0.9375,0.0625 z"
     filter="url(#A)"
     transform="matrix(-1,0,0,1,43.392088,-5.0368904)"
     id="path59"
     style="fill:url(#B)" />
  <g
     stroke-dashoffset="4.15"
     stroke-linecap="round"
     stroke-linejoin="round"
     id="g61"
     transform="translate(-4.607912,-5.0368904)">
    <rect
       width="8"
       height="12"
       x="12"
       y="12"
       fill="none"
       stroke="#000000"
       clip-path="url(#C)"
       filter="url(#D)"
       opacity="0.78516"
       rx="1.0793"
       ry="1.0793"
       transform="matrix(0.75565,0,0,0.76613,3.1456,2.6444)"
       id="rect59" />
    <rect
       width="8"
       height="12"
       x="12"
       y="12"
       fill="url(#E)"
       stroke="url(#F)"
       clip-path="url(#G)"
       filter="url(#D)"
       opacity="0.78516"
       rx="1.0793"
       ry="1.0793"
       transform="matrix(0.75565,0,0,0.76613,3.1456,2.6444)"
       id="rect60"
       style="fill:url(#E);stroke:url(#F)" />
    <rect
       width="4.3502002"
       height="3.6759"
       x="13.897"
       y="18.031"
       fill="url(#H)"
       stroke="url(#I)"
       stroke-width="0.33189"
       filter="url(#J)"
       opacity="0.78516"
       rx="0.45227"
       ry="0.45227"
       transform="matrix(1.0885,0,0,1.1036,-2.18,-3.43)"
       id="rect61"
       style="fill:url(#H);stroke:url(#I)" />
  </g>
  <path
     fill="#343434"
     fill-opacity="0.8284"
     d="m 6.792088,2.9631096 c -2.0564,0.10719 -3.375,1.7053 -3.375,4.3125 v 0.59375 c 0,-2.9797 1.4216,-4.3125 4.375,-4.3125 36.521,-0.57384 76.291,-0.27228 104.250002,0 1.896,0 3.375,1.1283 3.375,3.3125 v -0.59375 c 0,-1.5434 -1.5485,-3.3125 -3.375,-3.3125 H 7.792088 c -0.3691,0 -0.7062,-0.0153 -1,0 z"
     id="path61" />
  <path
     fill="url(#K)"
     fill-rule="evenodd"
     d="m 118.02,8.3885 0.11049,1.1049 1.4584,1e-7 c -0.0988,-0.4722 -0.19843,-1.1811 -1.5689,-1.1049 z"
     filter="url(#L)"
     transform="matrix(-1.3891,0,0,1.3891,171.09209,-7.2768904)"
     id="path62"
     style="fill:url(#K)" />
  <path
     fill="url(#M)"
     fill-rule="evenodd"
     d="m 117.12,8.6885 0.11049,1.1049 h 1.4584 c -0.0988,-0.4722 -0.19843,-1.1811 -1.5689,-1.1049 z"
     filter="url(#L)"
     opacity="0.86141"
     transform="matrix(1.2828,0,0,1.2828,-38.057912,-7.3968904)"
     id="path63"
     style="fill:url(#M)" />
</svg>
