<?xml version="1.0" encoding="UTF-8" standalone="no"?>
<!-- Created with Inkscape (http://www.inkscape.org/) -->
<svg height="128" width="128" xmlns="http://www.w3.org/2000/svg" xmlns:xlink="http://www.w3.org/1999/xlink">
  <defs>
    <linearGradient id="linearGradient3295">
      <stop offset="0" stop-color="#63e9ff"/>
      <stop offset="1" stop-color="#fff" stop-opacity="0"/>
    </linearGradient>
    <linearGradient id="linearGradient3260">
      <stop offset="0" stop-color="#fff"/>
      <stop offset="1" stop-color="#fff" stop-opacity="0"/>
    </linearGradient>
    <filter id="filter3387" height="1.249912" width="1.20414" x="-.10207" y="-.124956">
      <feGaussianBlur stdDeviation=".44655691"/>
    </filter>
    <linearGradient id="linearGradient6404">
      <stop offset="0" stop-color="#081e3e"/>
      <stop offset="1" stop-color="#387de4"/>
    </linearGradient>
    <linearGradient id="linearGradient6666">
      <stop offset="0" stop-color="#9fc1f2"/>
      <stop offset=".5" stop-color="#587eb5"/>
      <stop offset="1" stop-color="#0c2a58"/>
    </linearGradient>
    <filter id="filter3187">
      <feGaussianBlur stdDeviation=".56525828"/>
    </filter>
    <linearGradient id="linearGradient5430" gradientUnits="userSpaceOnUse" spreadMethod="reflect" x1="73.742638" x2="78.939339" xlink:href="#linearGradient3260" y1="15.336544" y2="16.750759"/>
    <linearGradient id="linearGradient5432" gradientUnits="userSpaceOnUse" spreadMethod="reflect" x1="74.75" x2="78.939339" xlink:href="#linearGradient3295" y1="14.275884" y2="16.750759"/>
    <linearGradient id="linearGradient5436" gradientUnits="userSpaceOnUse" x1="276.17224" x2="270.98071" xlink:href="#linearGradient3295" y1="123.75864" y2="65.448112"/>
    <linearGradient id="linearGradient2953" gradientUnits="userSpaceOnUse" x1="164.255934" x2="20.005942" xlink:href="#linearGradient3260" y1="62.999997" y2="66.085939"/>
    <linearGradient id="linearGradient2956" gradientUnits="userSpaceOnUse" x1="55.255942" x2="84.505944" xlink:href="#linearGradient3260" y1="-.500001" y2="106.289042"/>
    <linearGradient id="linearGradient2959" gradientUnits="userSpaceOnUse" x1="15.468472" x2="16.718472" y1="16.138517" y2="85.427559">
      <stop offset="0" stop-color="#cdeeff"/>
      <stop offset="1" stop-color="#d2e8ed" stop-opacity="0"/>
    </linearGradient>
    <radialGradient id="radialGradient2963" cx="172" cy="76" fx="188.88173" fy="121.44213" gradientTransform="matrix(-1 0 0 .9801409 204 -10.49071)" gradientUnits="userSpaceOnUse" r="56" xlink:href="#linearGradient6666"/>
    <radialGradient id="radialGradient2968" cx="-16.668488" cy="86.826965" gradientTransform="matrix(-.2586607 -.5212474 -.8274344 .4106011 131.53945 50.055595)" gradientUnits="userSpaceOnUse" r="60">
      <stop offset="0"/>
      <stop offset="1" stop-opacity="0"/>
    </radialGradient>
    <linearGradient id="linearGradient2971" gradientTransform="matrix(-1 0 0 .8610463 204 -1.436187)" gradientUnits="userSpaceOnUse" x1="194.5" x2="104.25" xlink:href="#linearGradient6404" y1="123.90683" y2="5.155958"/>
    <filter id="filter3281">
      <feGaussianBlur stdDeviation=".32872878"/>
    </filter>
    <filter id="filter6458">
      <feGaussianBlur stdDeviation=".28444187"/>
    </filter>
    <linearGradient id="linearGradient2671" gradientUnits="userSpaceOnUse" x1="107.225807" x2="107.225807" xlink:href="#linearGradient3260" y1="-31.691246" y2="98.188675"/>
    <linearGradient id="linearGradient2687" gradientUnits="userSpaceOnUse" spreadMethod="reflect" x1="104.507894" x2="98.602033" xlink:href="#linearGradient3260" y1="21.742849" y2="27.648709"/>
    <radialGradient id="radialGradient2690" cx="42.700352" cy="103.5803" gradientTransform="matrix(-.5639341 0 0 1.1890799 136.08018 -31.354229)" gradientUnits="userSpaceOnUse" r="42.559486" spreadMethod="pad" xlink:href="#linearGradient6666"/>
    <linearGradient id="linearGradient2696" gradientUnits="userSpaceOnUse" x1="87.741936" x2="59.458064" xlink:href="#linearGradient6404" y1="113.56989" y2="13.027952"/>
    <linearGradient id="linearGradient2703" gradientUnits="userSpaceOnUse" x1="-60.945251" x2="-59.415245" xlink:href="#linearGradient3295" y1="105.83054" y2="45.631207"/>
    <linearGradient id="linearGradient2705" gradientUnits="userSpaceOnUse" x1="59.48817" x2="59.48817" xlink:href="#linearGradient3260" y1="8.897322" y2="47.228859"/>
    <linearGradient id="linearGradient2707" gradientUnits="userSpaceOnUse" x1="116.000003" x2="31.609901" xlink:href="#linearGradient3260" y1="73.000002" y2="22.946344"/>
    <linearGradient id="linearGradient2709" gradientUnits="userSpaceOnUse" spreadMethod="reflect" x1="21.507897" x2="14.373943" xlink:href="#linearGradient3260" y1="21.721349" y2="28.855302"/>
    <linearGradient id="linearGradient2713" gradientUnits="userSpaceOnUse" spreadMethod="reflect" x1="59.4296" x2="63.867409" xlink:href="#linearGradient3260" y1="16.223386" y2="11.9785"/>
  </defs>
  <g fill-rule="evenodd">
    <path d="m22.78125 12.165446 67.66681 48.982338c.98334.705268 1.55194 1.750262 1.55194 2.852216s-.5686 2.146948-1.55194 2.852216l-68.35431 48.973094c-4.14312 2.63039-10.09375 3.00311-10.09375-2.82531v-97.000001c0-3.891136 7.02052-6.5532932 10.78125-3.834553z" fill="url(#linearGradient2971)"/>
    <path d="m22.78125 12.165446 67.66681 48.982338c.98334.705268 1.55194 1.750262 1.55194 2.852216s-.5686 2.146948-1.55194 2.852216l-68.35431 48.973094c-4.14312 2.63039-10.09375 3.00311-10.09375-2.82531v-97.000001c0-3.891136 7.02052-6.5532932 10.78125-3.834553z" fill="url(#radialGradient2968)" opacity=".254682"/>
    <path d="m72.5 11.0625c-1.077088.06528-2.113901.376786-3 .9375l2.375 7.625 8.125-3.15625v-.46875c0-2.918352-3.938921-5.15334-7.5-4.9375z" fill="url(#linearGradient5430)" filter="url(#filter3387)" transform="matrix(-.7806527 0 0 .7806527 75.603791 3.364029)"/>
    <path d="m72.5 11.0625c-1.077088.06528-2.113901.376786-3 .9375l2.375 7.625 8.125-3.15625v-.46875c0-2.918352-3.938921-5.15334-7.5-4.9375z" fill="url(#linearGradient5432)" filter="url(#filter3387)" opacity=".70412" transform="matrix(-.8316412 0 0 -1 78.5313 128.78415)"/>
    <path d="m22.44956 17.046046 64.04497 45.065772c1.3858 1.385794 1.16397 2.601193.10244 3.662724l-62.59697 43.925468c-4 3.08417-8 3.2487-8 0v-90.532242c0-2.747298 3.15287-4.025068 6.44956-2.121722z" fill="url(#radialGradient2963)"/>
  </g>
  <path d="m278.55044 21.46494-64.44497 52.342019c-1.3858 1.609542-1.16397 3.021178-.10244 4.254102l62.99697 51.017599c4 3.58214 8 3.77323 8 0v-105.149428c0-3.190873-3.15287-4.674949-6.44956-2.464292z" style="fill:none;stroke-width:1.07771;stroke-linecap:round;stroke-linejoin:round;stroke:url(#linearGradient5436);filter:url(#filter3187)" transform="matrix(-1 0 0 .8609865 301.40303 -1.434978)"/>
  <path d="m18.96875 16.15625c-1.728548.151124-2.96875 1.282938-2.96875 3v24.84375 22.84375c23.558347-.754489 45.089413-4.534135 62.375-10.4375l-55.9375-39.375c-1.236259-.713755-2.431621-.965675-3.46875-.875z" fill="url(#linearGradient2959)" fill-rule="evenodd"/>
  <path d="m18.96875 16.125c-.87317.07634-1.59797.411641-2.125.9375-.25546.254891-.48467.532273-.625.875-.0037.0087.0036.0225 0 .03125-.06633.166985-.12089.345765-.15625.53125-.002.01003.0019.02116 0 .03125-.03375.186822-.0625.389742-.0625.59375-.00009.01058 0 .02062 0 .03125v1 23.59375h.03125l1.09375-24.75c.371681-2.273701 3.305578-2.177727 5.3125-.96875l54.84375 38c-13.525788 4.922635-31.22077 8.442042-48.96875 10.0625 18.30402-1.446673 35.03884-4.72645 49.0625-9.40625l.0313.03125c.32046-.107042.65114-.20403.96875-.3125l-.0313-.03125-30.4375-21.4375-25.46875-17.90625c-1.05795-.61081-2.07548-.865902-3-.875.02247-.0084.03975-.02331.0625-.03125-.17747-.004-.36172-.01482-.53125 0z" fill="url(#linearGradient2956)" fill-rule="evenodd"/>
  <path d="m18.96875 16.125c-.87317.07634-1.59797.411641-2.125.9375-.25546.254891-.48467.532273-.625.875-.0037.0087.0036.0225 0 .03125-.06633.166985-.12089.345765-.15625.53125-.002.01003.0019.02116 0 .03125-.03375.186822-.0625.389742-.0625.59375-.00009.01058 0 .02062 0 .03125v1 23.59375h.03125l1.09375-24.75c.371681-2.273701 3.305578-2.177727 5.3125-.96875l54.84375 38c-13.525788 4.922635-31.22077 8.442042-48.96875 10.0625 18.30402-1.446673 35.03884-4.72645 49.0625-9.40625l.0313.03125c.32046-.107042.65114-.20403.96875-.3125l-.0313-.03125-30.4375-21.4375-25.46875-17.90625c-1.05795-.61081-2.07548-.865902-3-.875.02247-.0084.03975-.02331.0625-.03125-.17747-.004-.36172-.01482-.53125 0z" fill="url(#linearGradient2953)" fill-rule="evenodd"/>
  <path d="m110.0836 16.0215h3.8328c5.58631 0 10.0836 4.497286 10.0836 10.083601v75.832799c0 5.58631-4.49729 10.0836-10.0836 10.0836h-3.8328c-5.58631 0-10.0836-4.49729-10.0836-10.0836v-75.832799c0-5.586315 4.49729-10.083601 10.0836-10.083601z" fill="url(#linearGradient2696)"/>
  <path d="m113.16915 20.998569h-2.16772c-3.87879 0-7.00143 3.122638-7.00143 7.001431v72c0 3.87879 3.07198 8 6.95077 8h1.04923 1.11849c3.87879 0 6.88151-4.12121 6.88151-8l.17058-72c0-3.878793-3.12264-7.001431-7.00143-7.001431z" fill="url(#radialGradient2690)"/>
  <path d="m108.90694 16.320878c-4.69017 0-9.39751 3.568001-9.39751 9.39874l4.26731-.058913c.45237-2.129835 2.85196-4.270962 4.52661-4.603385z" fill="url(#linearGradient2687)" filter="url(#filter6458)" opacity=".887641" transform="matrix(.8069829 0 0 .8069829 21.11396 4.057267)"/>
  <path d="m68.397509 16.46919c-4.690175 0-8.967908 3.654709-8.967908 9.485448l4.347139-.315433c.452373-2.129835 2.851964-4.270962 4.526605-4.603385z" fill="url(#linearGradient2713)" filter="url(#filter6458)" opacity=".868914" transform="matrix(-.8685615 0 0 .8685615 174.87734 3.432939)"/>
  <path d="m26.246568 16.978625c-4.690175 0-9.477343 3.654709-9.477343 9.485448l4.007515-.824868c.452373-2.129835 2.851964-4.270962 4.526605-4.603385z" fill="url(#linearGradient2709)" filter="url(#filter6458)" opacity=".326425" transform="matrix(1 0 0 -1 83.3 128.90936)"/>
  <path d="m26.246568 16.978625c-4.690175 0-9.477343 3.654709-9.477343 9.485448l4.007515-.824868c.452373-2.129835 2.851964-4.270962 4.526605-4.603385z" fill="url(#linearGradient2709)" filter="url(#filter6458)" opacity=".176166" transform="matrix(-1 0 0 -1 140.30334 128.93582)"/>
  <g transform="translate(48 -.9785)">
    <path d="m63.735675 20.9785c-3.990225 0-7.735675 3.100025-7.735675 7.09025v1c0-3.990225 3.74545-7.09025 7.735675-7.09025h.624997c3.99023 0 7.639328 3.009775 7.639328 7v-1c0-3.990225-3.649098-7-7.639328-7z" fill="url(#linearGradient2705)"/>
    <path d="m67.96875 22.541c1.59536 1.314795 2.625 3.286748 2.625 5.53125l.276652 29.701881c-3.666445 4.206681-9.127105 5.595426-14.870402 7.204369 5.81923-.870221 11.030787-1.367085 16-6v-30c0-2.853011-1.64104-5.274084-4.03125-6.4375z" fill="url(#linearGradient2707)"/>
  </g>
  <path d="m-64.99857 19.9785h1.997139c3.878793 0 7.001431 4.121207 7.001431 8v72c0 3.87879-2.344705 8.00143-6.223498 8.00143h-3.167721c-3.87879 0-6.70143-4.12264-6.70143-8.00143l.092649-72c0-3.878793 3.12264-8 7.00143-8z" fill="none" filter="url(#filter3281)" stroke="url(#linearGradient2703)" stroke-linecap="round" stroke-linejoin="round" transform="matrix(-1 0 0 1 48 .0215)"/>
  <path d="m111.1875 20.0125c-3.99023 0-7.1875 3.997275-7.1875 7.9875v36c5.92704-1.53693 11.97918-2.7044 16-8.00975v-27.99025c0-3.990225-3.19727-7.9875-7.1875-7.9875z" fill="url(#linearGradient2671)"/>
</svg>
