<?xml version="1.0" encoding="UTF-8" standalone="no"?>
<svg xmlns="http://www.w3.org/2000/svg" xmlns:xlink="http://www.w3.org/1999/xlink" width="128" height="128">
  <defs>
    <linearGradient id="d">
      <stop offset="0"/>
      <stop offset="1" stop-opacity="0"/>
    </linearGradient>
    <linearGradient id="b">
      <stop offset="0" stop-color="#63e9ff"/>
      <stop offset="1" stop-color="#fff" stop-opacity="0"/>
    </linearGradient>
    <linearGradient id="a">
      <stop offset="0" stop-color="#fff"/>
      <stop offset="1" stop-color="#fff" stop-opacity="0"/>
    </linearGradient>
    <linearGradient id="c">
      <stop offset="0" stop-color="#cdeeff"/>
      <stop offset="1" stop-color="#d2e8ed" stop-opacity="0"/>
    </linearGradient>
    <linearGradient xlink:href="#a" id="g" x1="73.742638" x2="78.939339" y1="15.336544" y2="16.750759" gradientUnits="userSpaceOnUse" spreadMethod="reflect"/>
    <linearGradient xlink:href="#b" id="l" x1="74.75" x2="78.939339" y1="14.275884" y2="16.750759" gradientUnits="userSpaceOnUse" spreadMethod="reflect"/>
    <linearGradient id="e" x1="194.5" x2="104.25" y1="123.90683" y2="5.155958" gradientTransform="matrix(-1 0 0 .86105 236 -1.436187)" gradientUnits="userSpaceOnUse">
      <stop offset="0" stop-color="#081e3e"/>
      <stop offset="1" stop-color="#387de4"/>
    </linearGradient>
    <linearGradient xlink:href="#c" id="i" x1="223.32712" x2="226.659" y1="53.784153" y2="57.279232" gradientTransform="matrix(1 0 0 .86105 -108.16138 -1.436187)" gradientUnits="userSpaceOnUse" spreadMethod="reflect"/>
    <linearGradient xlink:href="#b" id="o" x1="179.17224" x2="173.98071" y1="123.75864" y2="65.448112" gradientUnits="userSpaceOnUse"/>
    <linearGradient xlink:href="#b" id="q" x1="276.17224" x2="270.98071" y1="123.75864" y2="65.448112" gradientUnits="userSpaceOnUse"/>
    <linearGradient xlink:href="#c" id="r" x1="47.468472" x2="48.718472" y1="16.138517" y2="85.427559" gradientUnits="userSpaceOnUse"/>
    <linearGradient xlink:href="#a" id="s" x1="87.255942" x2="116.505944" y1="-.500001" y2="106.289042" gradientUnits="userSpaceOnUse"/>
    <linearGradient xlink:href="#a" id="t" x1="196.255934" x2="52.005942" y1="62.999997" y2="66.085939" gradientUnits="userSpaceOnUse"/>
    <linearGradient xlink:href="#a" id="m" x1="223.32712" x2="226.659" y1="53.784153" y2="57.279232" gradientTransform="matrix(1 0 0 .86105 -108.16138 -1.436187)" gradientUnits="userSpaceOnUse" spreadMethod="reflect"/>
    <radialGradient id="n" cx="172" cy="76" r="56" fx="188.88173" fy="121.44213" gradientTransform="matrix(1 0 0 1.1384 0 -10.517857)" gradientUnits="userSpaceOnUse">
      <stop offset="0" stop-color="#9fc1f2"/>
      <stop offset=".5" stop-color="#587eb5"/>
      <stop offset="1" stop-color="#0c2a58"/>
    </radialGradient>
    <radialGradient xlink:href="#d" id="k" cx="72.020813" cy="66.344505" r="60" gradientTransform="matrix(-.58163 .01768 .02699 .8879 96.078154 5.941909)" gradientUnits="userSpaceOnUse"/>
    <radialGradient xlink:href="#d" id="f" cx="-16.668488" cy="86.826965" r="60" gradientTransform="matrix(-.25866 -.52125 -.82743 .4106 163.53945 50.055595)" gradientUnits="userSpaceOnUse"/>
    <filter id="h" width="1.20414" height="1.249912" x="-.10207" y="-.124956">
      <feGaussianBlur stdDeviation=".44655691"/>
    </filter>
    <filter id="j" width="1.231461" height="1.255079" x="-.11573" y="-.12754">
      <feGaussianBlur stdDeviation=".32549158"/>
    </filter>
    <filter id="p">
      <feGaussianBlur stdDeviation=".56525828"/>
    </filter>
  </defs>
  <g fill-rule="evenodd">
    <path fill="url(#e)" d="m54.78125 12.165446 67.66681 48.982338C123.4314 61.853052 124 62.898046 124 64s-.5686 2.146948-1.55194 2.852216L54.09375 115.82531C49.95063 118.4557 44 118.82842 44 113V88.000004H12C9.61796 88.000658 7.9992403 86.051051 8.0000003 84V44C7.9992403 41.94895 9.61796 39.999344 12 40h32V15.999999c0-3.891136 7.02052-6.5532932 10.78125-3.834553z"/>
    <path fill="url(#f)" d="m54.78125 12.165446 67.66681 48.982338C123.4314 61.853052 124 62.898046 124 64s-.5686 2.146948-1.55194 2.852216L54.09375 115.82531C49.95063 118.4557 44 118.82842 44 113V88.000004H12C9.61796 88.000658 7.9992403 86.051051 8.0000003 84V44C7.9992403 41.94895 9.61796 39.999344 12 40h32V15.999999c0-3.891136 7.02052-6.5532932 10.78125-3.834553z" opacity=".254682"/>
    <path fill="url(#g)" d="M72.5 11.0625c-1.077088.065283-2.113901.376786-3 .9375l2.375 7.625L80 16.46875V16c0-2.918352-3.938921-5.15334-7.5-4.9375z" filter="url(#h)" transform="matrix(-1 0 0 1 124 0)"/>
    <path fill="url(#i)" d="M115.65112 40c-.33944 1.154561-2.5625 6.125-2.5625 6.125l6.75-.03125V44c.00076-2.05105-1.61796-4.000656-4-4z" filter="url(#j)" opacity=".614232" transform="rotate(180 64 64.0625)"/>
    <path fill="url(#k)" d="m54.78125 12.165446 67.66681 48.982338C123.4314 61.853052 124 62.898046 124 64s-.5686 2.146948-1.55194 2.852216L54.09375 115.82531C49.95063 118.4557 44 118.82842 44 113V88.000004H12C9.61796 88.000658 7.9992403 86.051051 8.0000003 84V44C7.9992403 41.94895 9.61796 39.999344 12 40h32V15.999999c0-3.891136 7.02052-6.5532932 10.78125-3.834553z"/>
    <path fill="url(#l)" d="M72.5 11.0625c-1.077088.065283-2.113901.376786-3 .9375l2.375 7.625L80 16.46875V16c0-2.918352-3.938921-5.15334-7.5-4.9375z" filter="url(#h)" opacity=".70412" transform="matrix(-.83164 0 0 -1 110.5313 128.78415)"/>
    <path fill="url(#m)" d="M115.65112 40c-.33944 1.154561-2.5625 6.125-2.5625 6.125l6.75-.03125V44c.00076-2.05105-1.61796-4.000656-4-4z" filter="url(#j)" opacity=".749064" transform="rotate(-88.374 63.96617805 97.30792466)"/>
  </g>
  <path fill="url(#n)" fill-rule="evenodd" d="m181.55044 21.46494-64.04497 52.342019c-1.3858 1.609542-1.16397 3.021178-.10244 4.254102L180 129.07866c4 3.58214 8 3.77323 8 0V99.229172h36V52.770836h-36V23.929232c0-3.190873-3.15287-4.674949-6.44956-2.464292z" transform="matrix(-1 0 0 .86099 236 -1.434978)"/>
  <g fill="none" stroke="url(#o)" stroke-linecap="round" stroke-linejoin="round" stroke-width="1.07771" filter="url(#p)" transform="matrix(-1 0 0 .86099 333.40303 -1.434978)">
    <path stroke="url(#q)" d="m278.55044 21.46494-64.44497 52.342019c-1.3858 1.609542-1.16397 3.021178-.10244 4.254102L277 129.07866c4 3.58214 8 3.77323 8 0V99.229172h36V52.770836h-36V23.929232c0-3.190873-3.15287-4.674949-6.44956-2.464292z"/>
  </g>
  <path fill="url(#r)" fill-rule="evenodd" d="M50.96875 16.15625c-1.728548.151124-2.96875 1.282938-2.96875 3V44H12v21.15625C21.939409 66.360551 28.451562 67.000001 39.3125 67c26.941854 0 51.67329-3.971957 71.0625-10.59375l-55.9375-39.375c-1.236259-.713755-2.431621-.965675-3.46875-.875z"/>
  <path fill="url(#s)" fill-rule="evenodd" d="M50.96875 16.117187c-.87317.076338-1.59797.411641-2.125.9375-.25546.254892-.48467.532273-.625.875-.00366.008695.00358.022502 0 .03125-.06633.166985-.12089.345765-.15625.53125-.00202.010034.00192.021163 0 .03125-.03375.186822-.0625.389742-.0625.59375-.00009.01058 0 .020625 0 .03125v24.59375h.03125l1.1-24.74375c.371679-2.2737 3.299328-2.183977 5.30625-.975l54.85 38.01875c-13.52579 4.922635-31.22702 8.423292-48.975 10.04375 18.30402-1.446672 35.03884-4.72645 49.0625-9.40625l.03125.03125c.32046-.107041.65114-.20403.96875-.3125l-.03125-.03125-30.4375-21.4375-25.46875-17.90625c-1.05795-.61081-2.07548-.865902-3-.875.02247-.008374.03975-.023307.0625-.03125-.17747-.00401-.36172-.01482-.53125 0zM12 43.960937v21.15625l.9375-20.125 35.0625-1H13v-.03125z"/>
  <path fill="url(#t)" fill-rule="evenodd" d="M50.96875 16.117187c-.87317.076338-1.59797.411641-2.125.9375-.25546.254892-.48467.532273-.625.875-.00366.008695.00358.022502 0 .03125-.06633.166985-.12089.345765-.15625.53125-.00202.010034.00192.021163 0 .03125-.03375.186822-.0625.389742-.0625.59375-.00009.01058 0 .020625 0 .03125v24.59375h.03125l1.1-24.74375c.371679-2.2737 3.299328-2.183977 5.30625-.975l54.85 38.01875c-13.52579 4.922635-31.22702 8.423292-48.975 10.04375 18.30402-1.446672 35.03884-4.72645 49.0625-9.40625l.03125.03125c.32046-.107041.65114-.20403.96875-.3125l-.03125-.03125-30.4375-21.4375-25.46875-17.90625c-1.05795-.61081-2.07548-.865902-3-.875.02247-.008374.03975-.023307.0625-.03125-.17747-.00401-.36172-.01482-.53125 0zM12 43.960937v21.15625l.9375-20.125 35.0625-1H13v-.03125z"/>
</svg>