<?xml version="1.0" encoding="UTF-8"?>
<svg xmlns="http://www.w3.org/2000/svg" xmlns:xlink="http://www.w3.org/1999/xlink" width="128" height="94.2" viewBox="0 0 128 94.2">
<defs>
<linearGradient id="linear-pattern-0" gradientUnits="userSpaceOnUse" x1="0" y1="104.996002" x2="1" y2="104.996002" gradientTransform="matrix(50.301297, 33.080751, 33.080751, -50.301297, -3446.039485, 5343.136704)">
<stop offset="0" stop-color="rgb(53.333333%, 54.117647%, 52.156863%)" stop-opacity="1"/>
<stop offset="1" stop-color="rgb(18.039216%, 20.392157%, 21.176471%)" stop-opacity="1"/>
</linearGradient>
<linearGradient id="linear-pattern-1" gradientUnits="userSpaceOnUse" x1="0" y1="104.998001" x2="1" y2="104.998001" gradientTransform="matrix(49.064983, 32.267686, 32.267686, -49.064983, -3358.54529, 5211.2042)">
<stop offset="0" stop-color="rgb(72.941176%, 74.117647%, 71.372549%)" stop-opacity="1"/>
<stop offset="1" stop-color="rgb(18.039216%, 20.392157%, 21.176471%)" stop-opacity="1"/>
</linearGradient>
<linearGradient id="linear-pattern-2" gradientUnits="userSpaceOnUse" x1="0" y1="104.986" x2="1" y2="104.986" gradientTransform="matrix(-4.531632, 15.860081, 15.860081, 4.531632, -1609.494548, -405.231215)">
<stop offset="0" stop-color="rgb(33.333333%, 34.117647%, 32.54902%)" stop-opacity="1"/>
<stop offset="1" stop-color="rgb(0%, 0%, 0%)" stop-opacity="1"/>
</linearGradient>
<linearGradient id="linear-pattern-3" gradientUnits="userSpaceOnUse" x1="0" y1="104.985001" x2="1" y2="104.985001" gradientTransform="matrix(33.348776, -13.968175, -13.270053, -33.611788, 1426.337244, 3591.537037)">
<stop offset="0" stop-color="rgb(53.333333%, 54.117647%, 52.156863%)" stop-opacity="1"/>
<stop offset="1" stop-color="rgb(33.333333%, 34.117647%, 32.54902%)" stop-opacity="1"/>
</linearGradient>
<linearGradient id="linear-pattern-4" gradientUnits="userSpaceOnUse" x1="0" y1="104.986" x2="1" y2="104.986" gradientTransform="matrix(126.854488, 0, 0, -126.854488, -0.0687918, 13360.245268)">
<stop offset="0" stop-color="rgb(65.098039%, 52.941176%, 0%)" stop-opacity="1"/>
<stop offset="0.388" stop-color="rgb(45.098039%, 36.470588%, 0%)" stop-opacity="1"/>
<stop offset="1" stop-color="rgb(25.098039%, 20.392157%, 0%)" stop-opacity="1"/>
</linearGradient>
<radialGradient id="radial-pattern-0" gradientUnits="userSpaceOnUse" cx="0" cy="104.986" fx="0" fy="104.986" r="1" gradientTransform="matrix(93.478315, 0, 0, -93.478315, 59.069228, 9894.590648)">
<stop offset="0" stop-color="rgb(76.862745%, 62.745098%, 0%)" stop-opacity="1"/>
<stop offset="0.556" stop-color="rgb(92.941176%, 83.137255%, 0%)" stop-opacity="1"/>
<stop offset="1" stop-color="rgb(98.823529%, 91.372549%, 30.980392%)" stop-opacity="1"/>
</radialGradient>
<linearGradient id="linear-pattern-5" gradientUnits="userSpaceOnUse" x1="0" y1="104.987" x2="1" y2="104.987" gradientTransform="matrix(-96.396923, 0, 0, 96.396923, 127.95275, -10080.293641)">
<stop offset="0" stop-color="rgb(76.862745%, 62.745098%, 0%)" stop-opacity="1"/>
<stop offset="0.556" stop-color="rgb(92.941176%, 83.137255%, 0%)" stop-opacity="1"/>
<stop offset="1" stop-color="rgb(98.823529%, 91.372549%, 30.980392%)" stop-opacity="1"/>
</linearGradient>
<radialGradient id="radial-pattern-1" gradientUnits="userSpaceOnUse" cx="0" cy="104.986" fx="0" fy="104.986" r="1" gradientTransform="matrix(87.149124, 0, 0, -87.149124, 83.91339, 9144.870853)">
<stop offset="0" stop-color="rgb(86.666667%, 86.666667%, 86.666667%)" stop-opacity="1"/>
<stop offset="0.264" stop-color="rgb(69.411765%, 68.235294%, 73.333333%)" stop-opacity="1"/>
<stop offset="0.742" stop-color="rgb(49.411765%, 47.843137%, 53.333333%)" stop-opacity="1"/>
<stop offset="0.882" stop-color="rgb(31.764706%, 30.980392%, 33.333333%)" stop-opacity="1"/>
<stop offset="1" stop-color="rgb(12.54902%, 12.156863%, 13.333333%)" stop-opacity="1"/>
</radialGradient>
<linearGradient id="linear-pattern-6" gradientUnits="userSpaceOnUse" x1="0" y1="104.976997" x2="1" y2="104.976997" gradientTransform="matrix(101.869305, 0, 0, -101.869305, 13.56345, 10736.889384)">
<stop offset="0" stop-color="rgb(86.666667%, 86.666667%, 86.666667%)" stop-opacity="1"/>
<stop offset="0.264" stop-color="rgb(69.411765%, 68.235294%, 73.333333%)" stop-opacity="1"/>
<stop offset="0.742" stop-color="rgb(49.411765%, 47.843137%, 53.333333%)" stop-opacity="1"/>
<stop offset="0.882" stop-color="rgb(31.764706%, 30.980392%, 33.333333%)" stop-opacity="1"/>
<stop offset="1" stop-color="rgb(12.54902%, 12.156863%, 13.333333%)" stop-opacity="1"/>
</linearGradient>
<radialGradient id="radial-pattern-2" gradientUnits="userSpaceOnUse" cx="69.883003" cy="-0.912" fx="69.883003" fy="-0.912" r="48.722" gradientTransform="matrix(0.923059, 0.36323, -0.238722, 0.572863, 16.569271, -7.85266)">
<stop offset="0" stop-color="rgb(100%, 100%, 100%)" stop-opacity="0.874"/>
<stop offset="1" stop-color="rgb(100%, 100%, 100%)" stop-opacity="0"/>
</radialGradient>
<radialGradient id="radial-pattern-3" gradientUnits="userSpaceOnUse" cx="-78.989998" cy="-22.905001" fx="-78.989998" fy="-22.905001" r="43.845001" spreadMethod="reflect" gradientTransform="matrix(0.835625, 0.533159, -0.261489, 0.409816, 72.604015, 94.297007)">
<stop offset="0" stop-color="rgb(76.862745%, 62.745098%, 0%)" stop-opacity="1"/>
<stop offset="1" stop-color="rgb(100%, 100%, 100%)" stop-opacity="1"/>
</radialGradient>
<radialGradient id="radial-pattern-4" gradientUnits="userSpaceOnUse" cx="0" cy="104.986" fx="0" fy="104.986" r="1" gradientTransform="matrix(22.501555, -0.610053, -0.610053, -22.501555, 121.219878, 2420.006372)">
<stop offset="0" stop-color="rgb(89.411765%, 85.882353%, 93.333333%)" stop-opacity="1"/>
<stop offset="0.596" stop-color="rgb(41.568627%, 41.568627%, 46.666667%)" stop-opacity="1"/>
<stop offset="1" stop-color="rgb(12.156863%, 12.54902%, 13.333333%)" stop-opacity="1"/>
</radialGradient>
<radialGradient id="radial-pattern-5" gradientUnits="userSpaceOnUse" cx="0" cy="104.986" fx="0" fy="104.986" r="1" gradientTransform="matrix(73.435707, 0, 0, -73.435707, 83.945493, 7707.127791)">
<stop offset="0.522" stop-color="rgb(52.941176%, 47.058824%, 0%)" stop-opacity="1"/>
<stop offset="1" stop-color="rgb(38.039216%, 30.588235%, 0%)" stop-opacity="1"/>
</radialGradient>
</defs>
<path fill-rule="nonzero" fill="url(#linear-pattern-0)" d="M 26.851562 59.570312 C 26.851562 59.570312 26.59375 59.828125 25.074219 63.988281 C 22.03125 72.304688 32.347656 85.261719 47.882812 90.945312 C 63.417969 96.628906 78.539062 94.515625 81.523438 86.175781 L 82.816406 82.558594 C 75.046875 79.714844 26.851562 59.570312 26.851562 59.570312 Z M 26.851562 59.570312 "/>
<path fill-rule="nonzero" fill="url(#linear-pattern-1)" d="M 50.601562 85.507812 C 64.046875 90.425781 77.160156 89.496094 82.386719 83.757812 L 82.816406 82.558594 C 75.550781 79.902344 32.953125 62.125 27.445312 59.820312 C 25.792969 68.132812 35.835938 80.105469 50.601562 85.507812 Z M 50.601562 85.507812 "/>
<path fill-rule="nonzero" fill="url(#linear-pattern-2)" d="M 51.605469 82.734375 C 64.835938 87.570312 77.40625 87.085938 80.894531 81.828125 C 71.054688 77.996094 39.617188 64.898438 29.8125 60.808594 C 27.84375 67.199219 37.605469 77.609375 51.605469 82.734375 Z M 51.605469 82.734375 "/>
<path fill-rule="nonzero" fill="url(#linear-pattern-3)" d="M 9.589844 28.890625 C 3.675781 42.417969 21.773438 63.394531 50.015625 75.738281 C 78.253906 88.082031 105.941406 87.125 111.855469 73.59375 C 117.769531 60.070312 99.671875 39.09375 71.429688 26.75 C 43.191406 14.40625 15.503906 15.363281 9.589844 28.890625 Z M 9.589844 28.890625 "/>
<path fill-rule="nonzero" fill="url(#linear-pattern-4)" d="M 76.167969 13.261719 C 36.328125 -4.152344 7.285156 1.574219 1.308594 15.253906 C -5.730469 31.355469 16.378906 56.5625 50.6875 71.5625 C 84.996094 86.558594 118.511719 85.667969 125.546875 69.566406 C 132.585938 53.46875 110.476562 28.257812 76.167969 13.261719 Z M 76.167969 13.261719 "/>
<path fill-rule="nonzero" fill="url(#radial-pattern-0)" d="M 77.316406 10.96875 C 37.476562 -6.445312 8.433594 -0.71875 2.453125 12.960938 C -4.585938 29.0625 17.523438 54.269531 51.832031 69.269531 C 86.140625 84.265625 119.660156 83.375 126.695312 67.273438 C 133.734375 51.175781 111.625 25.964844 77.316406 10.96875 Z M 77.316406 10.96875 "/>
<path fill-rule="nonzero" fill="url(#linear-pattern-5)" d="M 77.316406 10.96875 C 59.574219 3.214844 43.980469 0.0546875 31.605469 0.140625 C 43.792969 0.253906 58.96875 3.453125 76.167969 10.96875 C 110.480469 25.964844 132.585938 51.175781 125.546875 67.273438 C 121.882812 75.65625 111.027344 79.90625 96.628906 79.945312 C 111.601562 80.136719 122.933594 75.878906 126.695312 67.273438 C 133.734375 51.175781 111.625 25.964844 77.316406 10.96875 Z M 77.316406 10.96875 "/>
<path fill-rule="nonzero" fill="url(#radial-pattern-1)" d="M 10.789062 15.273438 C 4.925781 28.683594 25.222656 51.035156 54.957031 64.03125 C 84.699219 77.035156 114.632812 77.773438 120.496094 64.363281 C 126.359375 50.953125 105.925781 28.464844 76.1875 15.46875 C 46.449219 2.46875 16.652344 1.863281 10.789062 15.273438 Z M 10.789062 15.273438 "/>
<path fill-rule="nonzero" fill="url(#linear-pattern-6)" d="M 113.429688 64.007812 C 112.199219 66.820312 109.703125 68.976562 106.011719 70.425781 C 94.835938 74.800781 74.847656 72.054688 55.09375 63.417969 C 28.507812 51.792969 10.40625 32.007812 15.566406 20.207031 C 16.804688 17.375 19.316406 15.203125 23.039062 13.742188 C 34.210938 9.367188 54.128906 12.089844 73.777344 20.679688 C 92.769531 28.980469 108.542969 42.253906 113.027344 53.710938 C 114.566406 57.636719 114.699219 61.101562 113.429688 64.007812 Z M 74.238281 19.628906 C 54.324219 10.921875 34.0625 8.195312 22.621094 12.675781 C 18.605469 14.25 15.878906 16.628906 14.515625 19.75 C 11.289062 27.132812 16.535156 37.398438 27.058594 47.003906 C 34.574219 53.332031 44.136719 59.300781 54.957031 64.035156 C 65.578125 68.675781 76.214844 71.746094 85.773438 73.175781 C 93.945312 74.070312 101.144531 73.5625 106.429688 71.492188 C 110.417969 69.933594 113.125 67.566406 114.480469 64.46875 C 115.875 61.273438 115.746094 57.511719 114.097656 53.292969 C 109.507812 41.574219 93.488281 28.042969 74.238281 19.628906 Z M 74.238281 19.628906 "/>
<path fill-rule="nonzero" fill="url(#radial-pattern-2)" d="M 14.980469 17.683594 C 9.566406 29.773438 28.308594 49.929688 55.773438 61.652344 C 83.238281 73.375 110.886719 74.042969 116.300781 61.949219 C 121.714844 49.855469 102.84375 29.578125 75.382812 17.855469 C 47.917969 6.132812 20.394531 5.589844 14.980469 17.683594 Z M 14.980469 17.683594 "/>
<path fill-rule="nonzero" fill="url(#radial-pattern-3)" d="M 52.976562 67.894531 C 33.503906 59.65625 17.660156 48.484375 8.039062 37.28125 C 16.539062 48.863281 32.097656 60.695312 51.609375 69.222656 C 72.972656 78.5625 94.027344 81.738281 108.578125 78.917969 C 93.289062 80.109375 73.265625 76.480469 52.976562 67.894531 Z M 52.976562 67.894531 "/>
<path fill-rule="nonzero" fill="url(#radial-pattern-4)" d="M 46.546875 45.0625 C 44.53125 49.914062 50.441406 56.980469 59.742188 60.839844 C 69.042969 64.699219 78.214844 63.894531 80.230469 59.042969 C 82.246094 54.1875 76.335938 47.125 67.035156 43.265625 C 57.730469 39.402344 48.558594 40.210938 46.546875 45.0625 Z M 46.546875 45.0625 "/>
<path fill-rule="nonzero" fill="rgb(18.039216%, 20.392157%, 21.176471%)" fill-opacity="1" d="M 54.175781 64.296875 C 54.386719 64.382812 54.59375 64.464844 54.800781 64.550781 C 54.59375 64.464844 54.386719 64.382812 54.175781 64.296875 Z M 54.175781 64.296875 "/>
<path fill-rule="nonzero" fill="url(#radial-pattern-5)" d="M 10.789062 17.566406 C 16.652344 4.15625 46.449219 4.761719 76.1875 17.761719 C 101.773438 28.945312 120.449219 47.140625 121.441406 60.550781 C 122.613281 46.996094 103.261719 27.300781 76.1875 15.46875 C 46.449219 2.46875 16.652344 1.863281 10.789062 15.273438 C 9.964844 17.15625 9.675781 19.214844 9.835938 21.394531 C 9.941406 20.078125 10.265625 18.785156 10.789062 17.566406 Z M 10.789062 17.566406 "/>
</svg>
