<?xml version="1.0" encoding="UTF-8"?>
<svg xmlns="http://www.w3.org/2000/svg" xmlns:xlink="http://www.w3.org/1999/xlink" width="81.2" height="106.2" viewBox="0 0 81.2 106.2">
<defs>
<clipPath id="clip-0">
<path clip-rule="nonzero" d="M 0 58 L 37 58 L 37 107 L 0 107 Z M 0 58 "/>
</clipPath>
<clipPath id="clip-1">
<path clip-rule="nonzero" d="M 13.175781 -7.367188 L 104.527344 33.308594 L 63.511719 125.4375 L -27.84375 84.765625 Z M 13.175781 -7.367188 "/>
</clipPath>
<linearGradient id="linear-pattern-0" gradientUnits="userSpaceOnUse" x1="0" y1="104.996002" x2="1" y2="104.996002" gradientTransform="matrix(21.616779, 48.065402, 45.329056, -38.270056, -4753.347474, 4079.351683)">
<stop offset="0" stop-color="rgb(53.333333%, 54.117647%, 52.156863%)" stop-opacity="1"/>
<stop offset="1" stop-color="rgb(18.039216%, 20.392157%, 21.176471%)" stop-opacity="1"/>
</linearGradient>
<clipPath id="clip-2">
<path clip-rule="nonzero" d="M 4 59 L 37 59 L 37 102 L 4 102 Z M 4 59 "/>
</clipPath>
<clipPath id="clip-3">
<path clip-rule="nonzero" d="M 13.175781 -7.367188 L 104.527344 33.308594 L 63.511719 125.4375 L -27.84375 84.765625 Z M 13.175781 -7.367188 "/>
</clipPath>
<linearGradient id="linear-pattern-1" gradientUnits="userSpaceOnUse" x1="0" y1="104.998001" x2="1" y2="104.998001" gradientTransform="matrix(21.085479, 46.884043, 44.214951, -37.329449, -4633.936429, 3979.206626)">
<stop offset="0" stop-color="rgb(72.941176%, 74.117647%, 71.372549%)" stop-opacity="1"/>
<stop offset="1" stop-color="rgb(18.039216%, 20.392157%, 21.176471%)" stop-opacity="1"/>
</linearGradient>
<clipPath id="clip-4">
<path clip-rule="nonzero" d="M 6 61 L 36 61 L 36 100 L 6 100 Z M 6 61 "/>
</clipPath>
<clipPath id="clip-5">
<path clip-rule="nonzero" d="M 13.175781 -7.367188 L 104.527344 33.308594 L 63.511719 125.4375 L -27.84375 84.765625 Z M 13.175781 -7.367188 "/>
</clipPath>
<linearGradient id="linear-pattern-2" gradientUnits="userSpaceOnUse" x1="0" y1="104.986" x2="1" y2="104.986" gradientTransform="matrix(-10.082323, 13.941026, 9.362782, 9.434496, -960.562114, -911.79483)">
<stop offset="0" stop-color="rgb(33.333333%, 34.117647%, 32.54902%)" stop-opacity="1"/>
<stop offset="1" stop-color="rgb(0%, 0%, 0%)" stop-opacity="1"/>
</linearGradient>
<clipPath id="clip-6">
<path clip-rule="nonzero" d="M 1 18 L 67 18 L 67 105 L 1 105 Z M 1 18 "/>
</clipPath>
<clipPath id="clip-7">
<path clip-rule="nonzero" d="M 13.175781 -7.367188 L 104.527344 33.308594 L 63.511719 125.4375 L -27.84375 84.765625 Z M 13.175781 -7.367188 "/>
</clipPath>
<linearGradient id="linear-pattern-3" gradientUnits="userSpaceOnUse" x1="0" y1="104.985001" x2="1" y2="104.985001" gradientTransform="matrix(29.832434, -2.949244, 5.04197, -36.813243, -519.59247, 3928.922017)">
<stop offset="0" stop-color="rgb(53.333333%, 54.117647%, 52.156863%)" stop-opacity="1"/>
<stop offset="1" stop-color="rgb(33.333333%, 34.117647%, 32.54902%)" stop-opacity="1"/>
</linearGradient>
<clipPath id="clip-8">
<path clip-rule="nonzero" d="M 0 1 L 80 1 L 80 106 L 0 106 Z M 0 1 "/>
</clipPath>
<clipPath id="clip-9">
<path clip-rule="nonzero" d="M 13.175781 -7.367188 L 104.527344 33.308594 L 63.511719 125.4375 L -27.84375 84.765625 Z M 13.175781 -7.367188 "/>
</clipPath>
<linearGradient id="linear-pattern-4" gradientUnits="userSpaceOnUse" x1="0" y1="104.986" x2="1" y2="104.986" gradientTransform="matrix(90.53693, 40.309662, 54.773231, -123.022715, -5755.561272, 12949.297116)">
<stop offset="0" stop-color="rgb(65.098039%, 52.941176%, 0%)" stop-opacity="1"/>
<stop offset="0.388" stop-color="rgb(45.098039%, 36.470588%, 0%)" stop-opacity="1"/>
<stop offset="1" stop-color="rgb(25.098039%, 20.392157%, 0%)" stop-opacity="1"/>
</linearGradient>
<clipPath id="clip-10">
<path clip-rule="nonzero" d="M 2 0 L 82 0 L 82 105 L 2 105 Z M 2 0 "/>
</clipPath>
<clipPath id="clip-11">
<path clip-rule="nonzero" d="M 13.175781 -7.367188 L 104.527344 33.308594 L 63.511719 125.4375 L -27.84375 84.765625 Z M 13.175781 -7.367188 "/>
</clipPath>
<radialGradient id="radial-pattern-0" gradientUnits="userSpaceOnUse" cx="0" cy="104.986" fx="0" fy="104.986" r="1" gradientTransform="matrix(66.716127, 29.703951, 40.362069, -90.654709, -4216.953806, 9607.118334)">
<stop offset="0" stop-color="rgb(76.862745%, 62.745098%, 0%)" stop-opacity="1"/>
<stop offset="0.556" stop-color="rgb(92.941176%, 83.137255%, 0%)" stop-opacity="1"/>
<stop offset="1" stop-color="rgb(98.823529%, 91.372549%, 30.980392%)" stop-opacity="1"/>
</radialGradient>
<clipPath id="clip-12">
<path clip-rule="nonzero" d="M 35 2 L 82 2 L 82 105 L 35 105 Z M 35 2 "/>
</clipPath>
<clipPath id="clip-13">
<path clip-rule="nonzero" d="M 13.175781 -7.367188 L 104.527344 33.308594 L 63.511719 125.4375 L -27.84375 84.765625 Z M 13.175781 -7.367188 "/>
</clipPath>
<linearGradient id="linear-pattern-5" gradientUnits="userSpaceOnUse" x1="0" y1="104.987" x2="1" y2="104.987" gradientTransform="matrix(-68.799153, -30.631374, -41.622263, 93.485152, 4456.964797, -9742.515936)">
<stop offset="0" stop-color="rgb(76.862745%, 62.745098%, 0%)" stop-opacity="1"/>
<stop offset="0.556" stop-color="rgb(92.941176%, 83.137255%, 0%)" stop-opacity="1"/>
<stop offset="1" stop-color="rgb(98.823529%, 91.372549%, 30.980392%)" stop-opacity="1"/>
</linearGradient>
<clipPath id="clip-14">
<path clip-rule="nonzero" d="M 9 6 L 77 6 L 77 98 L 9 98 Z M 9 6 "/>
</clipPath>
<clipPath id="clip-15">
<path clip-rule="nonzero" d="M 13.175781 -7.367188 L 104.527344 33.308594 L 63.511719 125.4375 L -27.84375 84.765625 Z M 13.175781 -7.367188 "/>
</clipPath>
<radialGradient id="radial-pattern-1" gradientUnits="userSpaceOnUse" cx="0" cy="104.986" fx="0" fy="104.986" r="1" gradientTransform="matrix(62.198937, 27.692767, 37.62925, -84.516696, -3875.508363, 8887.939215)">
<stop offset="0" stop-color="rgb(86.666667%, 86.666667%, 86.666667%)" stop-opacity="1"/>
<stop offset="0.264" stop-color="rgb(69.411765%, 68.235294%, 73.333333%)" stop-opacity="1"/>
<stop offset="0.742" stop-color="rgb(49.411765%, 47.843137%, 53.333333%)" stop-opacity="1"/>
<stop offset="0.882" stop-color="rgb(31.764706%, 30.980392%, 33.333333%)" stop-opacity="1"/>
<stop offset="1" stop-color="rgb(12.54902%, 12.156863%, 13.333333%)" stop-opacity="1"/>
</radialGradient>
<clipPath id="clip-16">
<path clip-rule="nonzero" d="M 10 12 L 72 12 L 72 96 L 10 96 Z M 10 12 "/>
</clipPath>
<clipPath id="clip-17">
<path clip-rule="nonzero" d="M 13.175781 -7.367188 L 104.527344 33.308594 L 63.511719 125.4375 L -27.84375 84.765625 Z M 13.175781 -7.367188 "/>
</clipPath>
<linearGradient id="linear-pattern-6" gradientUnits="userSpaceOnUse" x1="0" y1="104.976997" x2="1" y2="104.976997" gradientTransform="matrix(72.704836, 32.370297, 43.985131, -98.792242, -4613.119394, 10409.51461)">
<stop offset="0" stop-color="rgb(86.666667%, 86.666667%, 86.666667%)" stop-opacity="1"/>
<stop offset="0.264" stop-color="rgb(69.411765%, 68.235294%, 73.333333%)" stop-opacity="1"/>
<stop offset="0.742" stop-color="rgb(49.411765%, 47.843137%, 53.333333%)" stop-opacity="1"/>
<stop offset="0.882" stop-color="rgb(31.764706%, 30.980392%, 33.333333%)" stop-opacity="1"/>
<stop offset="1" stop-color="rgb(12.54902%, 12.156863%, 13.333333%)" stop-opacity="1"/>
</linearGradient>
<clipPath id="clip-18">
<path clip-rule="nonzero" d="M 11 10 L 75 10 L 75 94 L 11 94 Z M 11 10 "/>
</clipPath>
<clipPath id="clip-19">
<path clip-rule="nonzero" d="M 13.175781 -7.367188 L 104.527344 33.308594 L 63.511719 125.4375 L -27.84375 84.765625 Z M 13.175781 -7.367188 "/>
</clipPath>
<radialGradient id="radial-pattern-2" gradientUnits="userSpaceOnUse" cx="69.883003" cy="-0.912" fx="69.883003" fy="-0.912" r="48.722" gradientTransform="matrix(0.501958, 0.645572, -0.417728, 0.479702, 28.390828, -9.716609)">
<stop offset="0" stop-color="rgb(100%, 100%, 100%)" stop-opacity="0.874"/>
<stop offset="1" stop-color="rgb(100%, 100%, 100%)" stop-opacity="0"/>
</radialGradient>
<clipPath id="clip-20">
<path clip-rule="nonzero" d="M 2 31 L 57 31 L 57 104 L 2 104 Z M 2 31 "/>
</clipPath>
<clipPath id="clip-21">
<path clip-rule="nonzero" d="M 13.175781 -7.367188 L 104.527344 33.308594 L 63.511719 125.4375 L -27.84375 84.765625 Z M 13.175781 -7.367188 "/>
</clipPath>
<radialGradient id="radial-pattern-3" gradientUnits="userSpaceOnUse" cx="-78.989998" cy="-22.905001" fx="-78.989998" fy="-22.905001" r="43.845001" spreadMethod="reflect" gradientTransform="matrix(0.366184, 0.782585, -0.363577, 0.314346, 24.277029, 107.153288)">
<stop offset="0" stop-color="rgb(76.862745%, 62.745098%, 0%)" stop-opacity="1"/>
<stop offset="1" stop-color="rgb(100%, 100%, 100%)" stop-opacity="1"/>
</radialGradient>
<clipPath id="clip-22">
<path clip-rule="nonzero" d="M 24 49 L 47 49 L 47 78 L 24 78 Z M 24 49 "/>
</clipPath>
<clipPath id="clip-23">
<path clip-rule="nonzero" d="M 13.175781 -7.367188 L 104.527344 33.308594 L 63.511719 125.4375 L -27.84375 84.765625 Z M 13.175781 -7.367188 "/>
</clipPath>
<radialGradient id="radial-pattern-4" gradientUnits="userSpaceOnUse" cx="0" cy="104.986" fx="0" fy="104.986" r="1" gradientTransform="matrix(16.322925, 6.558536, 9.280322, -22.015724, -945.220292, 2378.060521)">
<stop offset="0" stop-color="rgb(89.411765%, 85.882353%, 93.333333%)" stop-opacity="1"/>
<stop offset="0.596" stop-color="rgb(41.568627%, 41.568627%, 46.666667%)" stop-opacity="1"/>
<stop offset="1" stop-color="rgb(12.156863%, 12.54902%, 13.333333%)" stop-opacity="1"/>
</radialGradient>
<clipPath id="clip-24">
<path clip-rule="nonzero" d="M 24 72 L 25 72 L 25 73 L 24 73 Z M 24 72 "/>
</clipPath>
<clipPath id="clip-25">
<path clip-rule="nonzero" d="M 13.175781 -7.367188 L 104.527344 33.308594 L 63.511719 125.4375 L -27.84375 84.765625 Z M 13.175781 -7.367188 "/>
</clipPath>
<clipPath id="clip-26">
<path clip-rule="nonzero" d="M 10 6 L 77 6 L 77 90 L 10 90 Z M 10 6 "/>
</clipPath>
<clipPath id="clip-27">
<path clip-rule="nonzero" d="M 13.175781 -7.367188 L 104.527344 33.308594 L 63.511719 125.4375 L -27.84375 84.765625 Z M 13.175781 -7.367188 "/>
</clipPath>
<radialGradient id="radial-pattern-5" gradientUnits="userSpaceOnUse" cx="0" cy="104.986" fx="0" fy="104.986" r="1" gradientTransform="matrix(52.411576, 23.335151, 31.70807, -71.217506, -3254.696691, 7493.634758)">
<stop offset="0.522" stop-color="rgb(52.941176%, 47.058824%, 0%)" stop-opacity="1"/>
<stop offset="1" stop-color="rgb(38.039216%, 30.588235%, 0%)" stop-opacity="1"/>
</radialGradient>
</defs>
<g clip-path="url(#clip-0)">
<g clip-path="url(#clip-1)">
<path fill-rule="nonzero" fill="url(#linear-pattern-0)" d="M 6.617188 58.9375 C 6.617188 58.9375 6.320312 59.105469 3.441406 62.65625 C -2.320312 69.753906 -0.554688 85.597656 8.082031 96.046875 C 16.714844 106.496094 28.417969 109.25 34.148438 102.113281 L 36.632812 99.015625 C 32.316406 93.789062 6.617188 58.9375 6.617188 58.9375 Z M 6.617188 58.9375 "/>
</g>
</g>
<g clip-path="url(#clip-2)">
<g clip-path="url(#clip-3)">
<path fill-rule="nonzero" fill="url(#linear-pattern-1)" d="M 12.367188 91.636719 C 19.839844 100.679688 29.601562 103.945312 35.808594 100.042969 L 36.632812 99.015625 C 32.59375 94.128906 9.871094 63.351562 6.933594 59.367188 C 2.164062 66.90625 4.164062 81.707031 12.367188 91.636719 Z M 12.367188 91.636719 "/>
</g>
</g>
<g clip-path="url(#clip-4)">
<g clip-path="url(#clip-5)">
<path fill-rule="nonzero" fill="url(#linear-pattern-2)" d="M 14.28125 89.265625 C 21.636719 98.160156 30.816406 101.6875 35.578125 97.695312 C 30.210938 90.851562 13.429688 68.160156 8.195312 61.078125 C 4.03125 66.652344 6.503906 79.847656 14.28125 89.265625 Z M 14.28125 89.265625 "/>
</g>
</g>
<g clip-path="url(#clip-6)">
<g clip-path="url(#clip-7)">
<path fill-rule="nonzero" fill="url(#linear-pattern-3)" d="M 7.542969 23.699219 C -2.515625 34.9375 1.34375 61.03125 16.167969 81.976562 C 30.992188 102.921875 51.167969 110.792969 61.230469 99.546875 C 71.289062 88.3125 67.429688 62.21875 52.605469 41.273438 C 37.78125 20.328125 17.605469 12.460938 7.542969 23.699219 Z M 7.542969 23.699219 "/>
</g>
</g>
<g clip-path="url(#clip-8)">
<g clip-path="url(#clip-9)">
<path fill-rule="nonzero" fill="url(#linear-pattern-4)" d="M 61.808594 29.699219 C 40.894531 0.152344 17.695312 -3.523438 7.523438 7.84375 C -4.453125 21.222656 0.441406 52.691406 18.453125 78.140625 C 36.460938 103.585938 60.765625 113.371094 72.742188 99.992188 C 84.714844 86.617188 79.820312 55.144531 61.808594 29.699219 Z M 61.808594 29.699219 "/>
</g>
</g>
<g clip-path="url(#clip-10)">
<g clip-path="url(#clip-11)">
<path fill-rule="nonzero" fill="url(#radial-pattern-0)" d="M 63.621094 27.839844 C 42.703125 -1.707031 19.503906 -5.382812 9.328125 5.984375 C -2.648438 19.359375 2.25 50.832031 20.257812 76.28125 C 38.269531 101.726562 62.578125 111.515625 74.550781 98.132812 C 86.523438 84.757812 81.632812 53.285156 63.621094 27.839844 Z M 63.621094 27.839844 "/>
</g>
</g>
<g clip-path="url(#clip-12)">
<g clip-path="url(#clip-13)">
<path fill-rule="nonzero" fill="url(#linear-pattern-5)" d="M 63.621094 27.839844 C 54.304688 14.683594 44.539062 6.664062 35.671875 2.8125 C 44.320312 6.796875 53.769531 14.71875 62.800781 27.472656 C 80.8125 52.921875 85.707031 84.394531 73.730469 97.769531 C 67.496094 104.734375 57.914062 105.40625 47.621094 100.871094 C 58.222656 105.8125 68.148438 105.285156 74.550781 98.132812 C 86.523438 84.757812 81.632812 53.285156 63.621094 27.839844 Z M 63.621094 27.839844 "/>
</g>
</g>
<g clip-path="url(#clip-14)">
<g clip-path="url(#clip-15)">
<path fill-rule="nonzero" fill="url(#radial-pattern-1)" d="M 14.28125 10.875 C 4.304688 22.015625 9.140625 50.140625 24.75 72.195312 C 40.363281 94.257812 61.40625 104.484375 71.382812 93.34375 C 81.359375 82.199219 76.484375 53.898438 60.871094 31.84375 C 45.261719 9.789062 24.253906 -0.269531 14.28125 10.875 Z M 14.28125 10.875 "/>
</g>
</g>
<g clip-path="url(#clip-16)">
<g clip-path="url(#clip-17)">
<path fill-rule="nonzero" fill="url(#linear-pattern-6)" d="M 66.492188 90.75 C 64.398438 93.089844 61.6875 94.386719 58.425781 94.617188 C 48.5625 95.308594 35.480469 86.296875 25.113281 71.644531 C 11.15625 51.921875 6.78125 26.980469 15.558594 17.175781 C 17.667969 14.824219 20.394531 13.515625 23.683594 13.28125 C 33.546875 12.589844 46.585938 21.558594 56.902344 36.132812 C 66.871094 50.21875 72.398438 68.101562 70.652344 80.636719 C 70.054688 84.933594 68.652344 88.335938 66.492188 90.75 Z M 57.683594 35.261719 C 47.230469 20.488281 33.945312 11.40625 23.847656 12.113281 C 20.300781 12.367188 17.328125 13.804688 15.007812 16.398438 C 9.515625 22.535156 8.828125 34.15625 12.191406 46.816406 C 14.824219 55.339844 19.070312 64.167969 24.75 72.199219 C 30.324219 80.074219 36.589844 86.429688 42.796875 90.855469 C 48.242188 94.320312 53.597656 96.113281 58.265625 95.785156 C 61.785156 95.542969 64.738281 94.105469 67.042969 91.53125 C 69.417969 88.878906 70.949219 85.1875 71.597656 80.574219 C 73.378906 67.75 67.789062 49.535156 57.683594 35.261719 Z M 57.683594 35.261719 "/>
</g>
</g>
<g clip-path="url(#clip-18)">
<g clip-path="url(#clip-19)">
<path fill-rule="nonzero" fill="url(#radial-pattern-2)" d="M 16.230469 14.542969 C 7.148438 24.546875 11.820312 50.050781 26.359375 70.148438 C 40.902344 90.242188 60.34375 99.675781 69.429688 89.667969 C 78.515625 79.660156 73.804688 54 59.265625 33.902344 C 44.726562 13.808594 25.316406 4.535156 16.230469 14.542969 Z M 16.230469 14.542969 "/>
</g>
</g>
<g clip-path="url(#clip-20)">
<g clip-path="url(#clip-21)">
<path fill-rule="nonzero" fill="url(#radial-pattern-3)" d="M 21.667969 75.3125 C 11.328125 61.132812 4.84375 45.265625 2.816406 31.34375 C 3.878906 45.277344 9.875 61.695312 20.121094 76.164062 C 31.332031 92.011719 44.988281 101.78125 56.59375 103.671875 C 45.167969 99.96875 32.441406 90.085938 21.667969 75.3125 Z M 21.667969 75.3125 "/>
</g>
</g>
<g clip-path="url(#clip-22)">
<g clip-path="url(#clip-23)">
<path fill-rule="nonzero" fill="url(#radial-pattern-4)" d="M 26.9375 51.125 C 23.40625 55.191406 24.570312 63.921875 29.542969 70.621094 C 34.515625 77.316406 41.410156 79.453125 44.941406 75.386719 C 48.476562 71.320312 47.308594 62.59375 42.335938 55.894531 C 37.363281 49.191406 30.46875 47.058594 26.9375 51.125 Z M 26.9375 51.125 "/>
</g>
</g>
<g clip-path="url(#clip-24)">
<g clip-path="url(#clip-25)">
<path fill-rule="nonzero" fill="rgb(18.039216%, 20.392157%, 21.176471%)" fill-opacity="1" d="M 24.078125 72.203125 C 24.191406 72.355469 24.304688 72.5 24.414062 72.648438 C 24.304688 72.5 24.191406 72.355469 24.078125 72.203125 Z M 24.078125 72.203125 "/>
</g>
</g>
<g clip-path="url(#clip-26)">
<g clip-path="url(#clip-27)">
<path fill-rule="nonzero" fill="url(#radial-pattern-5)" d="M 13.289062 13.097656 C 23.265625 1.957031 44.269531 12.011719 59.882812 34.070312 C 73.3125 53.042969 78.785156 76.625 73.703125 89.945312 C 80.394531 77.171875 75.085938 51.921875 60.871094 31.84375 C 45.261719 9.789062 24.253906 -0.269531 14.28125 10.875 C 12.878906 12.4375 11.785156 14.34375 10.957031 16.507812 C 11.601562 15.265625 12.390625 14.113281 13.289062 13.097656 Z M 13.289062 13.097656 "/>
</g>
</g>
</svg>
