<?xml version="1.0" encoding="UTF-8" standalone="no"?>
<!-- Created with Inkscape (http://www.inkscape.org/) -->

<svg
   enable-background="new"
   height="82.310043"
   width="108.28544"
   version="1.1"
   id="svg29"
   sodipodi:docname="Oxygen480-actions-dialog-ok-apply2.svg"
   inkscape:version="1.4.3 (0d15f75042, 2025-12-25)"
   xmlns:inkscape="http://www.inkscape.org/namespaces/inkscape"
   xmlns:sodipodi="http://sodipodi.sourceforge.net/DTD/sodipodi-0.dtd"
   xmlns:xlink="http://www.w3.org/1999/xlink"
   xmlns="http://www.w3.org/2000/svg"
   xmlns:svg="http://www.w3.org/2000/svg">
  <sodipodi:namedview
     id="namedview29"
     pagecolor="#ffffff"
     bordercolor="#000000"
     borderopacity="0.25"
     inkscape:showpageshadow="2"
     inkscape:pageopacity="0.0"
     inkscape:pagecheckerboard="0"
     inkscape:deskcolor="#d1d1d1"
     inkscape:zoom="3.5859375"
     inkscape:cx="53.542484"
     inkscape:cy="41.132898"
     inkscape:window-width="1366"
     inkscape:window-height="668"
     inkscape:window-x="0"
     inkscape:window-y="27"
     inkscape:window-maximized="1"
     inkscape:current-layer="svg29" />
  <defs
     id="defs15">
    <linearGradient
       id="linearGradient3436">
      <stop
         offset="0"
         stop-color="#fff"
         id="stop1" />
      <stop
         offset="1"
         stop-color="#fff"
         stop-opacity="0"
         id="stop2" />
    </linearGradient>
    <linearGradient
       id="linearGradient3415">
      <stop
         offset="0"
         stop-color="#f0ff80"
         id="stop3" />
      <stop
         offset="1"
         stop-color="#f0ff80"
         stop-opacity="0"
         id="stop4" />
    </linearGradient>
    <radialGradient
       id="radialGradient2954"
       cx="54.537579"
       cy="77.542084"
       fy="99.883759"
       gradientTransform="matrix(1.3117247,6e-8,-4e-8,0.9837933,-16.905997,1.313725)"
       gradientUnits="userSpaceOnUse"
       r="48.000004">
      <stop
         offset="0"
         stop-color="#66f515"
         id="stop5" />
      <stop
         offset="1"
         stop-color="#002e00"
         id="stop6" />
    </radialGradient>
    <linearGradient
       id="linearGradient2962"
       gradientUnits="userSpaceOnUse"
       x1="89.090881"
       x2="89.090881"
       y1="107.89701"
       y2="34.84948">
      <stop
         offset="0"
         stop-color="#003100"
         id="stop7" />
      <stop
         offset="1"
         stop-color="#008c00"
         id="stop8" />
    </linearGradient>
    <linearGradient
       id="linearGradient2977"
       gradientUnits="userSpaceOnUse"
       x1="83.324654"
       x2="83.324654"
       y1="28.0625"
       y2="93.99453">
      <stop
         offset="0"
         stop-color="#bfffbf"
         id="stop9" />
      <stop
         offset="1"
         stop-color="#bfffbf"
         stop-opacity="0"
         id="stop10" />
    </linearGradient>
    <radialGradient
       id="radialGradient2987"
       cx="52.791927"
       cy="95.459297"
       fx="53.15992"
       fy="87.08094"
       gradientTransform="matrix(0.5646619,9e-8,-1.4e-7,0.9176397,24.424169,0.143916)"
       gradientUnits="userSpaceOnUse"
       r="52.000004">
      <stop
         offset="0"
         stop-color="#001400"
         id="stop11" />
      <stop
         offset="1"
         stop-color="#001400"
         stop-opacity="0"
         id="stop12" />
    </radialGradient>
    <radialGradient
       id="radialGradient3004"
       cx="99.765625"
       cy="29.374895"
       gradientTransform="matrix(1.9646726,3.4e-7,-1.04e-6,5.9752716,-96.241137,-146.14811)"
       gradientUnits="userSpaceOnUse"
       r="3.015625"
       xlink:href="#linearGradient3436" />
    <radialGradient
       id="radialGradient3288"
       cx="99.765625"
       cy="29.374895"
       gradientTransform="matrix(1.9646726,3.4e-7,-1.04e-6,5.9752716,-167.24116,-126.14811)"
       gradientUnits="userSpaceOnUse"
       r="3.015625"
       xlink:href="#linearGradient3436" />
    <linearGradient
       id="linearGradient3421"
       gradientUnits="userSpaceOnUse"
       x1="71.603867"
       x2="71.603867"
       xlink:href="#linearGradient3415"
       y1="96.884026"
       y2="47.378731" />
    <filter
       id="filter3423"
       x="-0.01790119"
       y="-0.024111143"
       width="1.0358026"
       height="1.0482226">
      <feGaussianBlur
         stdDeviation=".425"
         id="feGaussianBlur12" />
    </filter>
    <linearGradient
       id="linearGradient3442"
       gradientUnits="userSpaceOnUse"
       x1="87.533279"
       x2="77.137749"
       xlink:href="#linearGradient3436"
       y1="74.838577"
       y2="46.277084" />
    <linearGradient
       id="linearGradient3453"
       gradientUnits="userSpaceOnUse"
       x1="83.324677"
       x2="83.324677"
       xlink:href="#linearGradient3436"
       y1="28.0625"
       y2="73.837845" />
    <radialGradient
       id="radialGradient3457"
       cx="99.765625"
       cy="29.374895"
       gradientTransform="matrix(1.9646726,3.4e-7,-1.04e-6,5.9752716,-167.24116,-126.14811)"
       gradientUnits="userSpaceOnUse"
       r="3.015625"
       xlink:href="#linearGradient3415" />
    <filter
       id="filter3505"
       x="-0.053698323"
       y="-0.071597583"
       width="1.1073966"
       height="1.1431952">
      <feGaussianBlur
         stdDeviation=".4605"
         id="feGaussianBlur13" />
    </filter>
    <radialGradient
       id="radialGradient3511"
       cx="53.633381"
       cy="51.919601"
       gradientTransform="matrix(1.0961401,0.0879121,-0.1002304,1.2497316,1.059933,-18.687387)"
       gradientUnits="userSpaceOnUse"
       r="52.000004"
       xlink:href="#linearGradient3436" />
    <filter
       id="filter3521"
       x="-0.041665009"
       y="-0.055553164"
       width="1.08333"
       height="1.1111063">
      <feBlend
         in2="BackgroundImage"
         mode="lighten"
         id="feBlend13" />
    </filter>
    <filter
       id="filter3525"
       height="1.2057828"
       width="1.3646584"
       x="-0.18232919"
       y="-0.10289138">
      <feGaussianBlur
         stdDeviation=".45819706"
         id="feGaussianBlur14" />
    </filter>
    <filter
       id="filter3533"
       height="1.2057828"
       width="1.3646584"
       x="-0.18232918"
       y="-0.10289138">
      <feGaussianBlur
         stdDeviation=".45819702"
         id="feGaussianBlur15" />
    </filter>
    <radialGradient
       inkscape:collect="always"
       xlink:href="#linearGradient3436"
       id="radialGradient29"
       gradientUnits="userSpaceOnUse"
       gradientTransform="matrix(1.9646726,3.4e-7,-1.04e-6,5.9752716,-96.241137,-146.14811)"
       cx="99.765625"
       cy="29.374895"
       r="3.015625" />
    <radialGradient
       inkscape:collect="always"
       xlink:href="#linearGradient3436"
       id="radialGradient30"
       gradientUnits="userSpaceOnUse"
       gradientTransform="matrix(1.9646726,3.4e-7,-1.04e-6,5.9752716,-96.241137,-146.14811)"
       cx="99.765625"
       cy="29.374895"
       r="3.015625" />
  </defs>
  <g
     id="g29"
     transform="translate(-10.228901,-22.897835)">
    <g
       transform="translate(2.4e-5)"
       id="g28">
      <g
         fill="none"
         stroke-linecap="round"
         stroke-linejoin="round"
         id="g17">
        <path
           d="M 54.393966,74.154282 C 46.245967,65.803997 28.630827,47.75 28.630827,47.75 L 15.999972,60.697999 54.393966,100.05285 111.99998,41 99.367397,28.05286 c 0,0 -35.262002,36.147423 -44.973431,46.101422 z"
           filter="url(#filter3505)"
           stroke="#004d00"
           stroke-width="8.1"
           id="path15" />
        <path
           d="M 54.393966,74.154282 C 46.245967,65.803997 28.630827,47.75 28.630827,47.75 L 15.999972,60.697999 54.393966,100.05285 111.99998,41 99.367397,28.05286 c 0,0 -35.262002,36.147423 -44.973431,46.101422 z"
           stroke="url(#linearGradient2962)"
           stroke-width="8"
           id="path16"
           style="stroke:url(#linearGradient2962)" />
        <path
           d="M 54.393966,74.154282 C 46.245967,65.803997 28.630827,47.75 28.630827,47.75 L 15.999972,60.697999 54.393966,100.05285 111.99998,41 99.367397,28.05286 c 0,0 -35.262002,36.147423 -44.973431,46.101422 z"
           filter="url(#filter3521)"
           opacity="0.285714"
           stroke="url(#radialGradient3511)"
           stroke-width="8"
           id="path17"
           style="stroke:url(#radialGradient3511)" />
      </g>
      <path
         d="m 28.406226,44.03125 c -0.149888,-0.0024 -0.286582,0.01658 -0.4375,0.03125 -0.827192,0.08205 -1.59533,0.427082 -2.21875,0.96875 l 1.6875,9.6875 c 0.110915,-0.113676 0.850367,-0.848179 0.9375,-0.9375 l 0.375,0.375 3.03125,-8.34375 -0.5625,-0.5625 c -0.74135,-0.759594 -1.76329,-1.201919 -2.8125,-1.21875 z"
         fill="url(#radialGradient3457)"
         filter="url(#filter3525)"
         opacity="0.409524"
         transform="matrix(1,0,0,-1,26,147.74979)"
         id="path18"
         style="fill:url(#radialGradient3457)" />
      <path
         d="m 99.40625,24.03125 c -0.149888,-0.0024 -0.286582,0.01658 -0.4375,0.03125 -0.827192,0.08205 -1.59533,0.427082 -2.21875,0.96875 l 1.6875,9.6875 c 0.110915,-0.113676 0.850367,-0.848179 0.9375,-0.9375 l 0.375,0.375 3.03125,-8.34375 -0.5625,-0.5625 c -0.74135,-0.759594 -1.76329,-1.201919 -2.8125,-1.21875 z"
         fill="url(#radialGradient3004)"
         filter="url(#filter3533)"
         opacity="0.238095"
         transform="matrix(-0.3420202,0.9396927,0.9396927,0.3420202,24.20981,-42.203299)"
         id="path19"
         style="fill:url(#radialGradient29)" />
      <path
         d="m 28.406226,44.03125 c -0.149888,-0.0024 -0.286582,0.01658 -0.4375,0.03125 -0.827192,0.08205 -1.59533,0.427082 -2.21875,0.96875 l 1.6875,9.6875 c 0.110915,-0.113676 0.850367,-0.848179 0.9375,-0.9375 l 0.375,0.375 3.03125,-8.34375 -0.5625,-0.5625 c -0.74135,-0.759594 -1.76329,-1.201919 -2.8125,-1.21875 z"
         fill="url(#radialGradient3288)"
         filter="url(#filter3525)"
         opacity="0.77619"
         id="path20"
         style="fill:url(#radialGradient3288)" />
      <path
         d="m 99.40625,24.03125 c -0.149888,-0.0024 -0.286582,0.01658 -0.4375,0.03125 -0.827192,0.08205 -1.59533,0.427082 -2.21875,0.96875 l 1.6875,9.6875 c 0.110915,-0.113676 0.850367,-0.848179 0.9375,-0.9375 l 0.375,0.375 3.03125,-8.34375 -0.5625,-0.5625 c -0.74135,-0.759594 -1.76329,-1.201919 -2.8125,-1.21875 z"
         fill="url(#radialGradient3004)"
         filter="url(#filter3533)"
         opacity="0.371429"
         transform="rotate(69.999999,96.684443,43.542926)"
         id="path21"
         style="fill:url(#radialGradient30)" />
      <path
         d="m 99.40625,24.03125 c -0.149888,-0.0024 -0.286582,0.01658 -0.4375,0.03125 -0.827192,0.08205 -1.59533,0.427082 -2.21875,0.96875 l 1.6875,9.6875 c 0.110915,-0.113676 0.850367,-0.848179 0.9375,-0.9375 l 0.375,0.375 3.03125,-8.34375 -0.5625,-0.5625 c -0.74135,-0.759594 -1.76329,-1.201919 -2.8125,-1.21875 z"
         fill="url(#radialGradient3004)"
         filter="url(#filter3525)"
         opacity="0.871429"
         transform="translate(-2.4e-5)"
         id="path22"
         style="fill:url(#radialGradient3004)" />
      <path
         d="M 54.393966,74.154282 C 46.245967,65.803997 28.630827,47.75 28.630827,47.75 L 15.999972,60.697999 54.393966,100.05285 111.99998,41 99.367397,28.05286 c 0,0 -35.262002,36.147423 -44.973431,46.101422 z"
         style="opacity:0.285714;fill:none;stroke:url(#radialGradient2987);stroke-width:8;stroke-linecap:round;stroke-linejoin:round"
         id="path23" />
      <path
         d="M 54.393966,74.154282 C 46.245967,65.803997 28.630827,47.75 28.630827,47.75 L 15.999972,60.697999 54.393966,100.05285 111.99998,41 99.367397,28.05286 c 0,0 -35.262002,36.147423 -44.973431,46.101422 z"
         fill="url(#radialGradient2954)"
         id="path24"
         style="fill:url(#radialGradient2954)" />
      <path
         d="m 99.374976,28.0625 c -3e-6,0 -35.257321,36.139751 -44.96875,46.09375 C 46.258227,65.805965 28.624976,47.75 28.624976,47.75 l -12.625,12.9375 16.46875,16.875 c 0.188911,4.87e-4 0.373377,0 0.5625,0 17.529799,0 34.136291,-2.093139 49.03125,-5.84375 L 111.99998,41 Z"
         fill="url(#linearGradient2977)"
         id="path25"
         style="fill:url(#linearGradient2977)" />
      <path
         d="M 54.393966,74.154282 C 46.245967,65.803997 28.630827,47.75 28.630827,47.75 L 15.999972,60.697999 54.393966,100.05285 111.99998,41 99.367397,28.05286 c 0,0 -35.262002,36.147423 -44.973431,46.101422 z"
         fill="none"
         filter="url(#filter3423)"
         stroke="url(#linearGradient3421)"
         id="path26"
         style="stroke:url(#linearGradient3421)" />
      <path
         d="m 99.375,28.0625 c 0,0 -0.400241,0.431341 -0.40625,0.4375 l 12.1875,12.28125 -30,30.21875 c -14.927199,3.687634 -31.057257,6.218746 -48.625,6.21875 -0.126355,0 -0.250091,-10e-7 -0.375,0 l 0.3125,0.34375 c 0.188911,4.87e-4 0.373377,0 0.5625,0 17.529799,0 34.136291,-2.093139 49.03125,-5.84375 L 112,41 Z"
         fill="url(#linearGradient3442)"
         transform="translate(-2.4e-5)"
         id="path27"
         style="fill:url(#linearGradient3442)" />
      <path
         d="m 99.375,28.0625 c -3e-6,0 -35.257321,36.139751 -44.96875,46.09375 C 46.258251,65.805965 28.625,47.75 28.625,47.75 L 16,60.6875 l 0.5,0.5 L 28.625,48.75 c 0,0 17.633251,18.055965 25.78125,26.40625 C 64.117679,65.202251 99.374997,29.0625 99.375,29.0625 L 111.5,41.5 112,41 Z"
         fill="url(#linearGradient3453)"
         transform="translate(-2.4e-5)"
         id="path28"
         style="fill:url(#linearGradient3453)" />
    </g>
  </g>
</svg>
