<?xml version="1.0" encoding="UTF-8"?>
<svg xmlns="http://www.w3.org/2000/svg" xmlns:xlink="http://www.w3.org/1999/xlink" width="460" height="460" viewBox="0 0 460 460">
<path fill-rule="nonzero" fill="rgb(0%, 0%, 0%)" fill-opacity="1" d="M 230 32.820312 C 338.730469 32.820312 427.179688 121.269531 427.179688 230 C 427.179688 338.730469 338.730469 427.175781 230 427.175781 C 121.269531 427.175781 32.820312 338.722656 32.820312 229.996094 C 32.820312 121.265625 121.269531 32.820312 230 32.820312 M 230 0 C 102.980469 0 0 102.96875 0 229.996094 C 0 357.019531 102.980469 459.988281 230 459.988281 C 357.019531 459.988281 460 357.019531 460 229.996094 C 460 102.96875 357.019531 0 230 0 Z M 334.777344 229.996094 L 173.777344 137.996094 L 173.777344 321.996094 Z M 334.777344 229.996094 "/>
</svg>
