<?xml version="1.0" encoding="UTF-8" standalone="no"?>
<svg
   viewBox="0 0 246.03999 246.03999"
   version="1.1"
   id="svg42"
   sodipodi:docname="stock-alarm2.svg"
   width="246.03999"
   height="246.03999"
   inkscape:version="1.4.3 (0d15f75042, 2025-12-25)"
   xmlns:inkscape="http://www.inkscape.org/namespaces/inkscape"
   xmlns:sodipodi="http://sodipodi.sourceforge.net/DTD/sodipodi-0.dtd"
   xmlns:xlink="http://www.w3.org/1999/xlink"
   xmlns="http://www.w3.org/2000/svg"
   xmlns:svg="http://www.w3.org/2000/svg">
  <sodipodi:namedview
     id="namedview42"
     pagecolor="#ffffff"
     bordercolor="#000000"
     borderopacity="0.25"
     inkscape:showpageshadow="2"
     inkscape:pageopacity="0.0"
     inkscape:pagecheckerboard="0"
     inkscape:deskcolor="#d1d1d1"
     inkscape:zoom="1.7929688"
     inkscape:cx="122.70153"
     inkscape:cy="122.98039"
     inkscape:window-width="1366"
     inkscape:window-height="668"
     inkscape:window-x="0"
     inkscape:window-y="27"
     inkscape:window-maximized="1"
     inkscape:current-layer="svg42" />
  <linearGradient
     id="a"
     x1="128"
     x2="128"
     y1="244.42999"
     y2="11.57"
     gradientUnits="userSpaceOnUse"
     gradientTransform="translate(-4.98,-4.98)">
    <stop
       offset=".01"
       stop-color="#0035ed"
       id="stop1" />
    <stop
       offset=".55"
       stop-color="#00008d"
       id="stop2" />
    <stop
       offset="1"
       stop-color="#0053bd"
       id="stop3" />
  </linearGradient>
  <path
     fill="url(#a)"
     d="m 0,123.02 c 0,67.832 55.188,123.02 123.022,123.02 67.834,0 123.018,-55.188 123.018,-123.02 C 246.04,55.188 190.853,0 123.022,0 55.191,0 0,55.186 0,123.02 Z"
     id="path3"
     style="fill:url(#a)" />
  <linearGradient
     id="b"
     x1="128"
     x2="128"
     y1="244.41"
     y2="11.55"
     gradientUnits="userSpaceOnUse"
     gradientTransform="translate(-4.98,-4.98)">
    <stop
       offset=".01"
       stop-color="#428aff"
       id="stop4" />
    <stop
       offset=".57"
       stop-color="#94caff"
       id="stop5" />
    <stop
       offset="1"
       stop-color="#dcf0ff"
       id="stop6" />
  </linearGradient>
  <path
     fill="url(#b)"
     d="m 7.4,123.02 c 0,63.754 51.868,115.62 115.622,115.62 63.754,0 115.617,-51.866 115.617,-115.62 C 238.639,59.266 186.769,7.398 123.019,7.398 59.269,7.398 7.4,59.266 7.4,123.02 Z"
     id="path6"
     style="fill:url(#b)" />
  <linearGradient
     id="c"
     x1="128"
     x2="128"
     y1="239.71001"
     y2="16.290001"
     gradientUnits="userSpaceOnUse"
     gradientTransform="translate(-4.98,-4.98)">
    <stop
       offset="0"
       stop-color="#fff"
       id="stop7" />
    <stop
       offset=".5"
       stop-color="#006dff"
       id="stop8" />
    <stop
       offset="1"
       stop-color="#c9e6ff"
       id="stop9" />
  </linearGradient>
  <path
     fill="url(#c)"
     d="m 11.31,123.02 c 0,61.6 50.12,111.71 111.72,111.71 61.6,0 111.71,-50.11 111.71,-111.71 0,-61.6 -50.12,-111.71 -111.72,-111.71 -61.6,0 -111.72,50.11 -111.72,111.71 z"
     id="path9"
     style="fill:url(#c)" />
  <path
     fill="#ffffff"
     d="M 123.02,25.26 A 101.9,101.9 0 0 0 21.27,127.01 101.9,101.9 0 0 0 123.02,228.75 101.9,101.9 0 0 0 224.77,127.01 101.9,101.9 0 0 0 123.02,25.26 Z"
     opacity="0.8"
     id="path10" />
  <path
     fill="#00008d"
     d="M 21.27,123.02 A 101.9,101.9 0 0 0 123.02,224.76 101.9,101.9 0 0 0 224.77,123.02 101.9,101.9 0 0 0 123.02,21.27 101.9,101.9 0 0 0 21.27,123.02 Z"
     id="path11" />
  <radialGradient
     id="d"
     cx="59.619999"
     cy="234.03999"
     r="69.959999"
     fx="59.619999"
     fy="234.03999"
     gradientTransform="matrix(1.42,0,0,1.42,38.44,-209.01)"
     gradientUnits="userSpaceOnUse">
    <stop
       offset=".6"
       stop-color="#fff"
       id="stop11" />
    <stop
       offset=".88"
       stop-color="#eaeaf0"
       id="stop12" />
    <stop
       offset=".91"
       stop-color="#e6e6ed"
       id="stop13" />
    <stop
       offset=".95"
       stop-color="#dbdbe5"
       id="stop14" />
    <stop
       offset=".99"
       stop-color="#c8c8d7"
       id="stop15" />
    <stop
       offset="1"
       stop-color="#bdbdcf"
       id="stop16" />
  </radialGradient>
  <path
     fill="url(#d)"
     d="m 23.76,123.02 a 99.4,99.4 0 0 0 99.26,99.25 99.4,99.4 0 0 0 99.26,-99.25 99.4,99.4 0 0 0 -99.26,-99.26 99.4,99.4 0 0 0 -99.26,99.26 z"
     id="path16"
     style="fill:url(#d)" />
  <path
     fill="#616161"
     d="m 27.09,119.78 a 2,2 0 0 0 -2,2 v 2.49 a 2,2 0 0 0 2,2 h 17.44 a 2,2 0 0 0 2,-2 v -2.49 a 2,2 0 0 0 -2,-2 z m 174.42,0 a 2,2 0 0 0 -2,2 v 2.49 a 2,2 0 0 0 2,2 h 17.45 a 2,2 0 0 0 2,-2 v -2.49 a 2,2 0 0 0 -2,-2 z m -79.73,79.73 a 2,2 0 0 0 -2,2 v 17.44 a 2,2 0 0 0 2,2 h 2.49 a 2,2 0 0 0 2,-2 v -17.44 a 2,2 0 0 0 -2,-2 z m 0,-174.42 a 2,2 0 0 0 -2,2 v 17.44 a 2,2 0 0 0 2,2 h 2.49 a 2,2 0 0 0 2,-2 V 27.09 a 2,2 0 0 0 -2,-2 z m 43.05,167.87 -2.15,1.25 a 2,2 0 0 0 -0.73,2.73 l 6.23,10.78 a 2,2 0 0 0 2.73,0.73 l 2.15,-1.24 a 2,2 0 0 0 0.93,-1.22 c 0.13,-0.51 0.06,-1.06 -0.2,-1.52 l -6.24,-10.79 a 2.02,2.02 0 0 0 -1.22,-0.93 2,2 0 0 0 -1.52,0.2 z M 75.13,37.59 72.97,38.84 a 2,2 0 0 0 -0.73,2.73 l 6.23,10.78 a 2,2 0 0 0 2.73,0.73 l 2.16,-1.24 a 2,2 0 0 0 0.73,-2.73 L 77.87,38.32 a 2,2 0 0 0 -2.73,-0.73 z m 4.55,155.17 a 2,2 0 0 0 -1.22,0.93 l -6.23,10.79 a 2.01,2.01 0 0 0 -0.2,1.52 2,2 0 0 0 0.94,1.21 l 2.16,1.24 a 2,2 0 0 0 2.73,-0.73 l 6.22,-10.78 a 2,2 0 0 0 -0.73,-2.73 l -2.16,-1.25 c -0.46,-0.26 -1.01,-0.34 -1.52,-0.2 z m 88.5,-154.44 -6.23,10.79 a 2,2 0 0 0 0.73,2.73 l 2.16,1.25 a 2,2 0 0 0 2.73,-0.73 l 6.24,-10.78 a 1.97,1.97 0 0 0 0.2,-1.52 c -0.13,-0.51 -0.47,-0.95 -0.93,-1.21 l -2.16,-1.24 a 2,2 0 0 0 -2.73,0.74 z M 49.11,161.95 38.32,168.18 a 2,2 0 0 0 -0.73,2.74 l 1.25,2.15 a 2,2 0 0 0 2.73,0.73 l 10.79,-6.24 a 1.98,1.98 0 0 0 0.93,-1.21 c 0.14,-0.51 0.06,-1.06 -0.2,-1.51 l -1.25,-2.15 a 2,2 0 0 0 -2.73,-0.73 z m 155.37,-89.7 -10.79,6.23 a 2,2 0 0 0 -0.93,1.22 2.01,2.01 0 0 0 0.2,1.52 l 1.25,2.15 a 2,2 0 0 0 2.73,0.72 l 10.78,-6.23 a 2,2 0 0 0 0.93,-1.22 2.02,2.02 0 0 0 -0.21,-1.52 l -1.25,-2.16 a 2,2 0 0 0 -2.73,-0.72 z m -10.26,90.43 -1.25,2.15 a 2.02,2.02 0 0 0 -0.21,1.52 2,2 0 0 0 0.93,1.22 l 10.79,6.24 a 1.99,1.99 0 0 0 2.73,-0.73 l 1.25,-2.16 a 1.97,1.97 0 0 0 0.2,-1.52 2,2 0 0 0 -0.94,-1.21 l -10.79,-6.23 a 2,2 0 0 0 -2.73,0.73 z M 38.84,72.97 37.59,75.13 a 2,2 0 0 0 0.73,2.73 l 10.79,6.23 a 2,2 0 0 0 2.73,-0.73 L 53.09,81.2 A 2,2 0 0 0 52.36,78.47 L 41.57,72.24 a 2,2 0 0 0 -2.73,0.73 z"
     id="path17" />
  <path
     d="m 62.7,198.07 -2.93,-2.5 79.35,-92.94 2.93,2.5 z"
     opacity="0.2"
     id="path18" />
  <linearGradient
     id="e"
     x1="62.459999"
     x2="154.3"
     y1="149.7"
     y2="149.7"
     gradientTransform="matrix(0.95,0.05,0.05,0.94,-11.62,3.12)"
     gradientUnits="userSpaceOnUse">
    <stop
       offset="0"
       stop-color="#f66"
       id="stop18" />
    <stop
       offset="1"
       stop-color="red"
       id="stop19" />
  </linearGradient>
  <path
     fill="url(#e)"
     d="m 58.68,194.48 2.93,2.5 79.33,-92.95 -2.93,-2.5 -79.33,92.96"
     id="path19"
     style="fill:url(#e)" />
  <use
     xlink:href="#f"
     opacity="0.2"
     id="use19"
     transform="translate(-4.98,-4.98)" />
  <use
     xlink:href="#f"
     x="-1.1"
     y="-1.1"
     fill="#585868"
     id="use20"
     transform="translate(-4.98,-4.98)" />
  <linearGradient
     id="g"
     x1="156"
     x2="157.85001"
     y1="116.38"
     y2="123.29"
     gradientUnits="userSpaceOnUse"
     gradientTransform="translate(-4.98,-4.98)">
    <stop
       offset="0"
       stop-color="#585868"
       id="stop20" />
    <stop
       offset=".01"
       stop-color="#656575"
       id="stop21" />
    <stop
       offset=".03"
       stop-color="#8b8b99"
       id="stop22" />
    <stop
       offset=".06"
       stop-color="#a8a8b6"
       id="stop23" />
    <stop
       offset=".09"
       stop-color="#bdbdcb"
       id="stop24" />
    <stop
       offset=".11"
       stop-color="#cacad7"
       id="stop25" />
    <stop
       offset=".14"
       stop-color="#cecedb"
       id="stop26" />
    <stop
       offset=".47"
       stop-color="#9a9ab1"
       id="stop27" />
    <stop
       offset=".85"
       stop-color="#7d7d99"
       id="stop28" />
    <stop
       offset="1"
       stop-color="#585868"
       id="stop29" />
  </linearGradient>
  <path
     fill="url(#g)"
     d="m 182.15,103.06 1.85,6.91 -62.29,16.69 -1.85,-6.91 62.29,-16.69"
     id="path29"
     style="fill:url(#g)" />
  <path
     d="m 140.58,128.45 c 0.3,-0.53 -0.11,-1.34 -0.93,-1.81 L 46.87,73.08 c -0.82,-0.47 -1.73,-0.43 -2.03,0.1 l -3.58,6.19 c -0.31,0.53 0.11,1.34 0.93,1.81 l 92.77,53.56 c 0.82,0.47 1.73,0.43 2.03,-0.1 l 3.57,-6.19 z"
     opacity="0.2"
     id="path30" />
  <path
     fill="#585868"
     d="m 139.48,127.35 c 0.3,-0.53 -0.11,-1.34 -0.93,-1.81 L 45.77,71.98 c -0.82,-0.47 -1.73,-0.43 -2.03,0.1 l -3.58,6.19 c -0.3,0.53 0.11,1.34 0.93,1.81 l 92.77,53.56 c 0.82,0.47 1.73,0.43 2.03,-0.09 l 3.57,-6.19 z"
     id="path31" />
  <linearGradient
     id="h"
     x1="96.589996"
     x2="93.010002"
     y1="104.69"
     y2="110.88"
     gradientUnits="userSpaceOnUse"
     gradientTransform="translate(-4.98,-4.98)">
    <stop
       offset="0"
       stop-color="#585868"
       id="stop31" />
    <stop
       offset=".19"
       stop-color="#cecedb"
       id="stop32" />
    <stop
       offset=".47"
       stop-color="#9a9ab1"
       id="stop33" />
    <stop
       offset=".85"
       stop-color="#7d7d99"
       id="stop34" />
    <stop
       offset="1"
       stop-color="#585868"
       id="stop35" />
  </linearGradient>
  <path
     fill="url(#h)"
     d="m 138,126.49 -3.58,6.19 -92.77,-53.56 3.58,-6.19 92.77,53.56"
     id="path35"
     style="fill:url(#h)" />
  <path
     d="m 112.66,124.12 a 11.5,11.5 0 0 0 11.46,11.46 11.5,11.5 0 0 0 11.46,-11.46 11.48,11.48 0 0 0 -11.46,-11.46 11.5,11.5 0 0 0 -11.46,11.46 z"
     opacity="0.2"
     id="path36" />
  <linearGradient
     id="i"
     x1="116.54"
     x2="139.46001"
     y1="128"
     y2="128"
     gradientUnits="userSpaceOnUse"
     gradientTransform="translate(-4.98,-4.98)">
    <stop
       offset="0"
       stop-color="#9a9ab1"
       id="stop36" />
    <stop
       offset="1"
       stop-color="#585868"
       id="stop37" />
  </linearGradient>
  <path
     fill="url(#i)"
     d="m 111.56,123.02 a 11.5,11.5 0 0 0 11.46,11.46 11.5,11.5 0 0 0 11.46,-11.46 11.48,11.48 0 0 0 -11.46,-11.46 11.5,11.5 0 0 0 -11.46,11.46 z"
     id="path37"
     style="fill:url(#i)" />
  <radialGradient
     id="j"
     cx="126.62"
     cy="116.18"
     r="22.190001"
     fx="126.62"
     fy="116.18"
     gradientUnits="userSpaceOnUse"
     gradientTransform="translate(-4.98,-4.98)">
    <stop
       offset="0"
       stop-color="#9a9ab1"
       id="stop38" />
    <stop
       offset=".59"
       stop-color="#585868"
       id="stop39" />
    <stop
       offset="1"
       stop-color="#fff"
       id="stop40" />
  </radialGradient>
  <path
     fill="url(#j)"
     d="m 112.66,123.02 c 0,5.72 4.65,10.36 10.36,10.36 5.71,0 10.36,-4.65 10.36,-10.36 0,-5.71 -4.65,-10.36 -10.36,-10.36 -5.71,0 -10.36,4.65 -10.36,10.36 z"
     id="path40"
     style="fill:url(#j)" />
  <linearGradient
     id="k"
     x1="117.74"
     x2="137.88"
     y1="123.59"
     y2="123.59"
     gradientUnits="userSpaceOnUse"
     gradientTransform="translate(-4.98,-4.98)">
    <stop
       offset="0"
       stop-color="#fff"
       id="stop41" />
    <stop
       offset="1"
       stop-color="#585868"
       id="stop42" />
  </linearGradient>
  <path
     fill="url(#k)"
     d="m 130.76,120.45 c -1.08,-3.24 -4.14,-5.59 -7.74,-5.59 a 8.2,8.2 0 0 0 -8.12,7.36 c 5.34,0.39 10.74,-0.02 15.86,-1.77 z"
     id="path42"
     style="fill:url(#k)" />
  <defs
     id="defs42">
    <path
       id="f"
       d="m 189.22,108.87 c -0.16,-0.58 -0.73,-0.94 -1.28,-0.79 l -62.29,16.69 c -0.55,0.15 -0.87,0.74 -0.71,1.33 l 1.85,6.91 c 0.16,0.59 0.73,0.94 1.28,0.8 l 62.29,-16.69 c 0.55,-0.15 0.87,-0.74 0.71,-1.33 l -1.85,-6.91 z" />
  </defs>
</svg>
