<?xml version="1.0" encoding="UTF-8" standalone="no"?>
<!-- Generator: Adobe Illustrator 14.0.0, SVG Export Plug-In . SVG Version: 6.00 Build 43363)  -->
<!DOCTYPE svg  PUBLIC '-//W3C//DTD SVG 1.1//EN'  'http://www.w3.org/Graphics/SVG/1.1/DTD/svg11.dtd'>
<svg id="svg4846" xml:space="preserve" height="240px" viewBox="0 0 240 240" xmlns:dc="http://purl.org/dc/elements/1.1/" width="240px" version="1.1" xmlns:xlink="http://www.w3.org/1999/xlink" xmlns:cc="http://web.resource.org/cc/" xmlns:rdf="http://www.w3.org/1999/02/22-rdf-syntax-ns#" xmlns="http://www.w3.org/2000/svg" y="0px" x="0px" enable-background="new 0 0 240 240">
<filter id="filter5068">
	<feGaussianBlur id="feGaussianBlur5070" stdDeviation="0.16424528"/>
</filter>
<g id="layer1" transform="translate(-463.84 -666.74)">
	<g id="g5072">
		<path id="path_X" d="m538.47 723.68l-17.688 17.688 42.219 42.219-42.219 42.219 17.688 17.688 42.219-42.219 42.219 42.219 17.688-17.688-42.219-42.219 42.219-42.219-17.688-17.688-42.22 42.22-42.22-42.22z" fill="#FDEEEE"/>
		<path id="path3717" d="m532.53 668.18h95.107l67.251 67.251v95.107l-67.251 67.251h-95.107l-67.251-67.251v-95.107l67.25-67.25z" fill="#7E0000"/>
		<g id="path5042" filter="url(#filter5068)">
			<polygon opacity=".2566" points="540.05 675.7 635.16 675.7 702.4 742.95 702.4 838.05 635.16 905.3 540.05 905.3 472.8 838.05 472.8 742.95"/>
		</g>
		<path id="path3741" d="m535.32 674.9h89.546l63.318 63.318v89.546l-63.319 63.318-89.545-0.001-63.318-63.318v-89.545l63.32-63.32z" fill="#E78A8A"/>
			<linearGradient id="path3743_1_" y2="1080.3" gradientUnits="userSpaceOnUse" x2="341" gradientTransform="matrix(3.0836 -1.2773 -1.2773 -3.0836 908.46 4451.2)" y1="1025.7" x1="318.37">
			<stop stop-color="#CE1212" offset="0"/>
			<stop stop-color="#FF1212" offset="1"/>
		</linearGradient>
		<path id="path3743" d="m539.22 684.31h81.745l57.803 57.802v81.746l-57.803 57.802h-81.745l-57.803-57.802v-81.746l57.8-57.8z" fill="url(#path3743_1_)"/>
			<linearGradient id="path5021_1_" y2="400.21" gradientUnits="userSpaceOnUse" x2="822.83" gradientTransform="matrix(3.7566 0 0 -3.7566 -2510.9 2327.1)" y1="444.48" x1="822.83">
			<stop stop-color="#fff" offset="0"/>
			<stop stop-color="#fff" stop-opacity="0" offset="1"/>
		</linearGradient>
		<path id="path5021" d="m535.27 674.92l-63.275 63.275v27.181c86.39 20.062 121.77-25.947 216.24-1.002v-26.179l-63.393-63.275h-89.58z" fill="url(#path5021_1_)"/>
	</g>
</g>
<g id="layer2">
	<g id="g_STOP" stroke="#000" stroke-width="1.5" fill="#fff" transform="matrix(.35 0 0 .35 -192.08 -18.731)">
		<path id="text_S" d="m736.6 447.6c0 9.481-1.677 18.329-5.027 26.535-3.351 8.203-7.974 15.313-13.87 21.325-5.894 6.01-12.715 10.815-20.462 14.392-7.748 3.585-16.13 5.379-25.148 5.379-10.173 0-19.304-1.964-27.393-5.898-8.089-3.931-14.911-9.241-20.458-15.946-5.552-6.702-9.828-14.453-12.835-23.239-3.005-8.783-4.508-17.921-4.508-27.394h32.598c0 4.855 0.633 9.651 1.904 14.389 1.27 4.738 3.235 9.015 5.894 12.829 2.659 3.82 6.016 6.881 10.059 9.194 4.049 2.31 8.959 3.465 14.738 3.465 4.397 0 8.616-0.924 12.665-2.771 4.046-1.847 7.513-4.392 10.403-7.631 2.888-3.237 5.199-6.992 6.929-11.27 1.734-4.277 2.599-8.733 2.599-13.359 0-6.702-1.387-12.653-4.159-17.852-2.772-5.198-7.627-10.458-14.561-15.778-1.159-1.161-1.621-1.797-1.388-1.911 0.233-0.117-0.46-0.753-2.08-1.903-1.618-1.158-5.029-3.41-10.233-6.766-5.205-3.357-13.7-9.075-25.49-17.161-9.477-6.476-16.585-14.051-21.327-22.723-4.741-8.668-7.112-18.206-7.112-28.606 0-8.323 1.504-16.127 4.51-23.408 3.005-7.281 7.224-13.697 12.658-19.248 5.434-5.547 11.733-9.881 18.902-13.006 7.167-3.121 14.911-4.682 23.227-4.682 8.329 0 16.016 1.503 23.069 4.509 7.052 3.005 13.178 7.167 18.376 12.487 5.201 5.319 9.361 11.68 12.485 19.075 3.121 7.4 4.8 15.491 5.032 24.273h-31.91c-0.456-8.092-3.231-14.563-8.318-19.421-5.086-4.852-11.331-7.28-18.735-7.28-7.624 0-14.097 2.543-19.413 7.63-5.317 5.089-7.976 11.445-7.976 19.071 0 5.778 1.504 10.635 4.51 14.565 3.004 3.93 8.782 8.32 17.334 13.175 22.43 12.948 38.788 26.124 49.076 39.531 10.3 13.41 15.45 28.55 15.45 45.43z"/>
		<path id="text_T" d="m820.2 309.52v202.01h-33.721v-202.01h-42.423v-30.95h118.56v30.95h-42.42z"/>
		<path id="text_O" d="m1010.6 394.7c0 17.825-0.982 32.984-2.946 45.487-1.97 12.497-5.385 24.308-10.254 35.421-5.79 13.887-13.022 24.015-21.696 30.379-8.683 6.364-19.621 9.548-32.815 9.548-13.89 0-25.176-3.184-33.856-9.548-8.686-6.364-15.915-16.493-21.703-30.379-4.862-11.348-8.273-23.214-10.24-35.597-1.968-12.383-2.955-27.486-2.955-45.311 0-17.591 0.986-32.694 2.955-45.313 1.967-12.616 5.378-24.48 10.24-35.593 6.017-13.889 13.369-23.902 22.052-30.039 8.683-6.134 19.852-9.201 33.507-9.201 13.418 0 24.417 3.066 32.983 9.201 8.566 6.137 15.739 16.384 21.529 30.738 2.316 5.785 4.342 11.574 6.08 17.358 1.735 5.787 3.131 11.862 4.174 18.225 1.035 6.366 1.789 13.196 2.257 20.49 0.4 7.29 0.6 15.33 0.6 24.13zm-31.96 0c0-6.487-0.179-12.387-0.519-17.712-0.352-5.324-0.812-10.241-1.395-14.754-0.575-4.516-1.328-8.856-2.255-13.02-0.926-4.164-1.967-8.33-3.125-12.499-3.011-10.42-6.775-17.944-11.283-22.575-4.517-4.629-10.246-6.946-17.19-6.946-14.358 0-24.191 9.608-29.515 28.821-2.779 8.797-4.69 17.649-5.731 26.563-1.035 8.912-1.56 19.848-1.56 32.811 0 6.253 0.173 11.984 0.525 17.196 0.346 5.212 0.804 10.07 1.384 14.584 0.58 4.517 1.331 8.97 2.263 13.368 0.924 4.397 1.964 8.909 3.119 13.535 5.324 19.213 15.156 28.825 29.515 28.825 6.945 0 12.673-2.313 17.19-6.942 4.509-4.632 8.273-11.928 11.283-21.883 1.384-4.626 2.542-9.076 3.468-13.362 0.938-4.277 1.682-8.733 2.257-13.368 0.578-4.632 0.982-9.545 1.214-14.757 0.23-5.2 0.35-11.16 0.35-17.87z"/>
		<path id="text_P" d="m1158.4 345.05c0 21.681-5.073 38.182-15.218 49.496-10.145 11.317-24.699 16.973-43.647 16.973h-34.785v103.96h-32.109v-236.92h66.895c8.694 0 16.666 1.593 23.915 4.775 7.246 3.182 13.493 7.663 18.73 13.442 5.243 5.774 9.252 12.79 12.042 21.041 2.8 8.25 4.2 17.33 4.2 27.23zm-31.4 0c0-9.9-2.676-17.916-8.027-24.043-5.354-6.129-12.383-9.192-21.077-9.192h-33.108v67.181h33.108c9.367 0.001 16.554-2.946 21.577-8.842 5-5.9 7.5-14.27 7.5-25.11z"/>
	</g>
</g>
</svg>
