<?xml version="1.0" encoding="UTF-8"?>
<svg xmlns="http://www.w3.org/2000/svg" xmlns:xlink="http://www.w3.org/1999/xlink" width="423.4" height="458.8" viewBox="0 0 423.4 458.8">
<path fill-rule="nonzero" fill="rgb(59.607843%, 36.078431%, 62.745098%)" fill-opacity="1" d="M 276.835938 377.441406 L 182.570312 322.371094 C 178.035156 319.78125 172.851562 319.78125 168.316406 322.371094 C 163.78125 324.964844 161.1875 329.824219 161.1875 334.683594 L 161.1875 352.824219 C 153.738281 352.5 146.609375 351.527344 140.132812 350.230469 C 127.824219 347.316406 116.808594 342.78125 107.089844 337.273438 C 96.398438 330.792969 86.683594 323.34375 78.582031 314.921875 C 70.160156 305.851562 63.035156 295.484375 57.203125 284.46875 C 51.695312 272.808594 47.808594 260.5 45.539062 248.1875 C 45.21875 246.246094 45.21875 244.300781 44.894531 242.359375 C 44.894531 241.0625 44.570312 239.765625 44.570312 238.144531 L 43.921875 233.289062 L 43.597656 228.753906 C 43.597656 220.976562 43.921875 214.824219 44.570312 209.316406 C 44.570312 209.316406 44.570312 209.316406 44.570312 208.992188 C 47.808594 182.753906 58.824219 157.160156 76.316406 136.429688 C 81.175781 130.597656 80.851562 122.175781 75.34375 116.667969 C 69.835938 111.160156 61.414062 111.160156 55.90625 116.34375 C 30.964844 139.34375 13.144531 169.792969 5.046875 202.1875 C 3.105469 209.640625 1.808594 217.738281 0.835938 227.457031 C 0.835938 227.457031 0.835938 227.78125 0.835938 227.78125 L 0.1875 233.609375 C 0.1875 233.933594 0.1875 234.257812 0.1875 234.582031 L 0.1875 240.414062 C 0.1875 240.414062 0.1875 240.414062 0.1875 240.738281 C 0.1875 242.035156 0.1875 243.328125 0.1875 244.625 C 0.1875 247.539062 0.1875 250.132812 0.1875 253.371094 C 0.1875 253.371094 0.1875 253.695312 0.1875 253.695312 C 1.160156 270.539062 4.398438 287.710938 10.230469 304.554688 C 10.230469 304.554688 10.230469 304.878906 10.554688 304.878906 C 16.710938 321.398438 24.808594 336.949219 35.175781 351.203125 C 35.175781 351.203125 35.175781 351.527344 35.5 351.527344 C 45.863281 365.457031 58.5 378.414062 73.074219 389.429688 C 87.003906 399.792969 102.878906 408.539062 120.695312 415.34375 C 120.695312 415.34375 120.695312 415.34375 121.019531 415.34375 C 133.328125 419.878906 146.933594 423.117188 161.511719 425.0625 L 161.511719 444.5 C 161.511719 449.683594 164.105469 454.21875 168.640625 456.808594 C 170.90625 458.105469 173.175781 458.753906 175.765625 458.753906 C 178.359375 458.753906 180.625 458.105469 182.894531 456.808594 L 277.160156 402.0625 C 281.695312 399.46875 284.289062 394.609375 284.289062 389.753906 C 284.289062 384.894531 281.046875 380.035156 276.835938 377.441406 Z M 276.835938 377.441406 "/>
<path fill-rule="nonzero" fill="rgb(0%, 44.313725%, 72.156863%)" fill-opacity="1" d="M 422.609375 205.429688 C 421.640625 188.257812 418.398438 171.089844 412.570312 154.246094 C 412.570312 154.246094 412.570312 153.921875 412.246094 153.921875 C 406.089844 137.398438 397.992188 121.851562 387.625 107.597656 C 387.625 107.597656 387.625 107.597656 387.300781 107.273438 C 376.933594 93.34375 364.300781 80.386719 349.722656 69.371094 C 349.722656 69.371094 349.722656 69.371094 349.398438 69.371094 C 335.46875 59.003906 319.597656 50.257812 301.78125 43.457031 C 301.78125 43.457031 301.78125 43.457031 301.457031 43.457031 C 289.144531 38.921875 275.539062 35.683594 260.964844 33.738281 L 260.964844 14.300781 C 260.964844 9.117188 258.371094 4.582031 253.835938 1.992188 C 249.300781 -0.601562 244.117188 -0.601562 239.582031 1.992188 L 146.289062 56.738281 C 141.753906 59.328125 139.160156 64.1875 139.160156 69.046875 C 139.160156 73.90625 141.753906 78.765625 146.289062 81.359375 L 240.554688 136.429688 C 245.089844 139.019531 250.273438 139.019531 254.808594 136.429688 C 259.34375 133.835938 261.933594 128.976562 261.933594 124.117188 L 261.933594 105.976562 C 269.386719 106.300781 276.511719 107.273438 282.992188 108.570312 C 295.300781 111.484375 306.316406 116.019531 316.035156 121.527344 C 326.722656 128.003906 336.441406 135.457031 344.539062 143.878906 C 352.964844 152.949219 360.089844 163.316406 365.921875 174.328125 C 371.429688 185.992188 375.316406 198.300781 377.90625 210.289062 C 378.230469 212.230469 378.554688 214.175781 378.554688 216.117188 C 378.878906 217.414062 378.878906 218.710938 379.203125 220.328125 L 379.851562 225.1875 L 380.175781 230.046875 C 380.175781 237.824219 379.851562 243.976562 379.203125 249.484375 C 379.203125 249.484375 379.203125 249.484375 379.203125 249.808594 C 376.289062 276.046875 364.949219 301.964844 347.457031 322.371094 C 342.597656 328.203125 342.921875 336.625 348.429688 342.132812 C 351.019531 344.722656 354.90625 346.34375 358.46875 346.34375 C 362.035156 346.34375 365.273438 345.046875 368.1875 342.457031 C 392.808594 320.105469 410.625 289.652344 418.722656 257.257812 C 420.667969 249.808594 421.964844 241.710938 422.933594 231.992188 C 422.933594 231.992188 422.933594 231.667969 422.933594 231.667969 L 423.257812 225.835938 C 423.257812 225.511719 423.257812 225.1875 423.257812 224.863281 L 423.257812 219.035156 C 423.257812 219.035156 423.257812 219.035156 423.257812 218.710938 C 423.257812 217.414062 423.257812 216.117188 423.257812 214.824219 C 422.609375 211.257812 422.609375 208.667969 422.609375 205.429688 Z M 422.609375 205.429688 "/>
</svg>
