<?xml version="1.0" encoding="UTF-8"?>
<svg xmlns="http://www.w3.org/2000/svg" xmlns:xlink="http://www.w3.org/1999/xlink" width="800" height="800" viewBox="0 0 800 800">
<path fill-rule="nonzero" fill="rgb(100%, 0%, 0%)" fill-opacity="1" d="M 400.003906 0.00390625 C 179.089844 0.00390625 0 179.074219 0 400.007812 C 0 620.90625 179.089844 799.996094 400.003906 799.996094 C 620.910156 799.996094 800 620.90625 800 400.007812 C 800 179.074219 620.910156 0.00390625 400.003906 0.00390625 Z M 400.003906 0.00390625 "/>
<path fill-rule="nonzero" fill="rgb(100%, 100%, 100%)" fill-opacity="1" d="M 515.613281 524.984375 C 509.15625 519.949219 499.789062 517.425781 487.507812 517.425781 L 364.214844 517.425781 C 368.152344 511.445312 372.011719 506.324219 375.789062 502.074219 C 384.605469 491.371094 400.863281 476.332031 424.5625 456.960938 C 448.257812 437.59375 465.148438 423.386719 475.226562 414.332031 C 485.300781 405.277344 495.183594 392.761719 504.867188 376.777344 C 514.550781 360.796875 519.394531 343.042969 519.394531 323.515625 C 519.394531 311.078125 517.070312 299.070312 512.425781 287.496094 C 507.78125 275.921875 501.285156 265.730469 492.941406 256.910156 C 484.59375 248.09375 474.910156 241.167969 463.890625 236.125 C 446.882812 228.566406 426.335938 224.789062 402.246094 224.789062 C 382.246094 224.789062 364.808594 227.742188 349.929688 233.644531 C 335.050781 239.550781 322.765625 247.308594 313.082031 256.910156 C 303.398438 266.515625 296.113281 277.222656 291.234375 289.03125 C 286.351562 300.839844 283.914062 312.179688 283.914062 323.042969 C 283.914062 332.019531 286.511719 339.105469 291.707031 344.300781 C 296.902344 349.5 303.4375 352.097656 311.308594 352.097656 C 320.285156 352.097656 327.09375 349.261719 331.742188 343.59375 C 336.382812 337.925781 340.558594 329.816406 344.257812 319.265625 C 347.957031 308.71875 350.597656 302.261719 352.171875 299.898438 C 363.980469 281.792969 380.195312 272.734375 400.828125 272.734375 C 410.589844 272.734375 419.605469 274.941406 427.871094 279.351562 C 436.136719 283.757812 442.667969 289.941406 447.472656 297.890625 C 452.273438 305.84375 454.679688 314.859375 454.679688 324.933594 C 454.679688 334.226562 452.433594 343.710938 447.945312 353.394531 C 443.457031 363.078125 436.921875 372.523438 428.34375 381.738281 C 419.757812 390.949219 409.011719 400.121094 396.101562 409.25 C 388.859375 414.132812 376.8125 424.332031 359.964844 439.839844 C 343.113281 455.351562 324.222656 473.96875 303.28125 495.699219 C 298.242188 501.054688 293.597656 508.414062 289.34375 517.78125 C 285.09375 527.152344 282.96875 534.671875 282.96875 540.335938 C 282.96875 549.15625 286.273438 556.832031 292.886719 563.367188 C 299.5 569.902344 308.710938 573.167969 320.523438 573.167969 L 494.359375 573.167969 C 504.75 573.167969 512.503906 570.492188 517.625 565.136719 C 522.738281 559.785156 525.300781 553.25 525.300781 545.535156 C 525.296875 536.878906 522.070312 530.027344 515.613281 524.984375 Z M 515.613281 524.984375 "/>
</svg>
