<?xml version="1.0" encoding="UTF-8" standalone="no"?>
<svg
   width="414"
   height="308.4"
   viewBox="0 0 414 308.4"
   version="1.1"
   id="svg8"
   sodipodi:docname="videoplayregular-106342-2.svg"
   inkscape:version="1.4.3 (0d15f75042, 2025-12-25)"
   xmlns:inkscape="http://www.inkscape.org/namespaces/inkscape"
   xmlns:sodipodi="http://sodipodi.sourceforge.net/DTD/sodipodi-0.dtd"
   xmlns="http://www.w3.org/2000/svg"
   xmlns:svg="http://www.w3.org/2000/svg">
  <sodipodi:namedview
     id="namedview8"
     pagecolor="#ffffff"
     bordercolor="#000000"
     borderopacity="0.25"
     inkscape:showpageshadow="2"
     inkscape:pageopacity="0.0"
     inkscape:pagecheckerboard="0"
     inkscape:deskcolor="#d1d1d1"
     inkscape:zoom="1.4883269"
     inkscape:cx="206.94379"
     inkscape:cy="154.2"
     inkscape:window-width="1366"
     inkscape:window-height="668"
     inkscape:window-x="0"
     inkscape:window-y="27"
     inkscape:window-maximized="1"
     inkscape:current-layer="svg8" />
  <defs
     id="defs6">
    <linearGradient
       id="linear-pattern-0"
       gradientUnits="userSpaceOnUse"
       x1="250"
       y1="87.388"
       x2="250"
       y2="412.612">
      <stop
         offset="0"
         stop-color="rgb(0%, 60%, 100%)"
         stop-opacity="1"
         id="stop1"
         style="stop-color:#b78600;stop-opacity:1;" />
      <stop
         offset="1"
         stop-color="rgb(0%, 51.372549%, 85.882353%)"
         stop-opacity="1"
         id="stop2"
         style="stop-color:#302100;stop-opacity:1;" />
    </linearGradient>
    <linearGradient
       id="linear-pattern-1"
       gradientUnits="userSpaceOnUse"
       x1="263.506989"
       y1="175.839996"
       x2="263.506989"
       y2="324.161987">
      <stop
         offset="0"
         stop-color="rgb(84.705882%, 84.705882%, 84.705882%)"
         stop-opacity="1"
         id="stop3" />
      <stop
         offset="1"
         stop-color="rgb(94.901961%, 94.901961%, 94.901961%)"
         stop-opacity="1"
         id="stop4" />
    </linearGradient>
    <linearGradient
       id="linear-pattern-2"
       gradientUnits="userSpaceOnUse"
       x1="250.408997"
       y1="140.574005"
       x2="250.408997"
       y2="359.425995"
       gradientTransform="matrix(0.92, 0, 0, 0.92, -23, -75.4)">
      <stop
         offset="0"
         stop-color="rgb(84.705882%, 84.705882%, 84.705882%)"
         stop-opacity="1"
         id="stop5" />
      <stop
         offset="1"
         stop-color="rgb(94.901961%, 94.901961%, 94.901961%)"
         stop-opacity="1"
         id="stop6" />
    </linearGradient>
  </defs>
  <path
     fill-rule="evenodd"
     fill="url(#linear-pattern-0)"
     stroke-width="10"
     stroke-linecap="butt"
     stroke-linejoin="miter"
     stroke="rgb(18.823529%, 18.823529%, 18.823529%)"
     stroke-opacity="1"
     stroke-miterlimit="4"
     d="M 73.00017 87.000679 L 426.99983 87.000679 C 450.747283 87.000679 469.998302 106.251698 469.998302 129.999151 L 469.998302 368.997962 C 469.998302 392.74966 450.747283 412.000679 426.99983 412.000679 L 73.00017 412.000679 C 49.252717 412.000679 30.001698 392.74966 30.001698 368.997962 L 30.001698 129.999151 C 30.001698 106.251698 49.252717 87.000679 73.00017 87.000679 Z M 73.00017 87.000679 "
     transform="matrix(0.92, 0, 0, 0.92, -23, -75.4)"
     id="path6" />
  <path
     fill-rule="evenodd"
     fill="url(#linear-pattern-1)"
     stroke-width="5"
     stroke-linecap="butt"
     stroke-linejoin="miter"
     stroke="rgb(15.686275%, 15.686275%, 15.686275%)"
     stroke-opacity="1"
     stroke-miterlimit="4"
     d="M 332.999321 241.998132 L 267.998471 204.999151 L 203.001868 166.998132 C 200 166.00034 196.998132 166.00034 194.00051 166.998132 C 190.998641 168.997962 190.000849 171.99983 190.000849 175.001698 L 190.000849 325.001698 C 190.000849 327.999321 190.998641 331.001189 194.00051 333.001019 C 196.998132 333.998811 200 333.998811 203.001868 333.001019 L 267.998471 295 L 332.999321 258.001019 C 336.001189 256.001189 336.998981 252.999321 336.998981 250.001698 C 336.998981 246.99983 336.001189 243.997962 332.999321 241.998132 Z M 332.999321 241.998132 "
     transform="matrix(0.92, 0, 0, 0.92, -23, -75.4)"
     id="path7" />
  <path
     fill-rule="evenodd"
     fill="url(#linear-pattern-2)"
     d="M 331.199219 40.519531 L 375.359375 40.519531 L 375.359375 83.761719 L 331.199219 83.761719 Z M 331.199219 102.160156 L 375.359375 102.160156 L 375.359375 145.398438 L 331.199219 145.398438 Z M 331.199219 163.800781 L 375.359375 163.800781 L 375.359375 207.039062 L 331.199219 207.039062 Z M 331.199219 225.441406 L 375.359375 225.441406 L 375.359375 268.679688 L 331.199219 268.679688 Z M 39.558594 40.519531 L 83.71875 40.519531 L 83.71875 83.761719 L 39.558594 83.761719 Z M 39.558594 102.160156 L 83.71875 102.160156 L 83.71875 145.398438 L 39.558594 145.398438 Z M 39.558594 163.800781 L 83.71875 163.800781 L 83.71875 207.039062 L 39.558594 207.039062 Z M 39.558594 225.441406 L 83.71875 225.441406 L 83.71875 268.679688 L 39.558594 268.679688 Z M 39.558594 225.441406 "
     id="path8" />
</svg>
