<?xml version="1.0" encoding="UTF-8"?>
<svg xmlns="http://www.w3.org/2000/svg" xmlns:xlink="http://www.w3.org/1999/xlink" width="16.01465" height="16" viewBox="0 0 16.01465 16">
<defs>
<filter id="filter-remove-color" x="0%" y="0%" width="100%" height="100%">
<feColorMatrix color-interpolation-filters="sRGB" values="0 0 0 0 1 0 0 0 0 1 0 0 0 0 1 0 0 0 1 0" />
</filter>
<mask id="mask-0">
<g filter="url(#filter-remove-color)">
<rect x="-1.601465" y="-1.6" width="19.21758" height="19.2" fill="rgb(0%, 0%, 0%)" fill-opacity="0.6"/>
</g>
</mask>
<clipPath id="clip-0">
<rect x="0" y="0" width="17" height="16"/>
</clipPath>
<g id="source-9271" clip-path="url(#clip-0)">
<path fill-rule="nonzero" fill="rgb(0%, 0%, 0%)" fill-opacity="1" d="M 5.132812 0 C 4.714844 0 4.382812 0.335938 4.382812 0.75 L 4.382812 1.015625 C 4.273438 1.050781 4.167969 1.085938 4.0625 1.128906 L 3.898438 0.929688 C 3.632812 0.605469 3.148438 0.566406 2.832031 0.84375 L 1.515625 1.976562 C 1.207031 2.242188 1.167969 2.707031 1.429688 3.023438 L 1.570312 3.195312 C 1.503906 3.304688 1.4375 3.414062 1.378906 3.523438 L 1.171875 3.492188 C 0.757812 3.417969 0.367188 3.695312 0.296875 4.105469 L 0.0117188 5.835938 C -0.0585938 6.238281 0.214844 6.621094 0.617188 6.695312 L 0.804688 6.726562 C 0.816406 6.800781 0.828125 6.871094 0.84375 6.941406 C 0.851562 7.003906 0.867188 7.0625 0.878906 7.121094 L 0.867188 7.128906 L 0.878906 7.128906 C 0.882812 7.136719 0.882812 7.144531 0.882812 7.152344 C 0.40625 7.277344 0.175781 7.824219 0.421875 8.253906 L 1.296875 9.765625 C 1.503906 10.125 1.964844 10.246094 2.324219 10.035156 L 2.570312 9.894531 C 2.648438 9.964844 2.730469 10.03125 2.8125 10.09375 L 2.703125 10.394531 C 2.5625 10.785156 2.765625 11.210938 3.15625 11.355469 L 4.78125 11.945312 C 5.171875 12.085938 5.605469 11.882812 5.742188 11.492188 L 5.839844 11.222656 C 5.945312 11.226562 6.050781 11.242188 6.152344 11.238281 L 6.25 11.503906 C 6.390625 11.898438 6.828125 12.097656 7.21875 11.953125 L 8.046875 11.640625 L 8.007812 11.890625 C 7.964844 12.160156 8.144531 12.414062 8.410156 12.464844 L 8.535156 12.488281 C 8.542969 12.535156 8.550781 12.582031 8.558594 12.628906 C 8.566406 12.667969 8.578125 12.707031 8.585938 12.75 L 8.578125 12.75 L 8.585938 12.75 C 8.589844 12.757812 8.589844 12.761719 8.589844 12.769531 C 8.269531 12.851562 8.117188 13.214844 8.28125 13.503906 L 8.863281 14.511719 C 9.003906 14.75 9.308594 14.832031 9.546875 14.691406 L 9.710938 14.597656 C 9.765625 14.640625 9.820312 14.6875 9.875 14.730469 L 9.800781 14.933594 C 9.710938 15.191406 9.84375 15.472656 10.101562 15.570312 L 11.1875 15.964844 C 11.449219 16.058594 11.738281 15.921875 11.828125 15.664062 L 11.890625 15.484375 C 11.960938 15.484375 12.035156 15.496094 12.101562 15.492188 L 12.164062 15.671875 C 12.261719 15.933594 12.554688 16.066406 12.8125 15.96875 L 13.890625 15.5625 C 14.148438 15.464844 14.28125 15.179688 14.1875 14.925781 L 14.125 14.777344 C 14.164062 14.753906 14.269531 14.660156 14.320312 14.617188 L 14.449219 14.691406 C 14.6875 14.835938 15 14.753906 15.140625 14.507812 L 15.707031 13.488281 C 15.839844 13.253906 15.757812 12.953125 15.523438 12.816406 L 15.414062 12.75 C 15.433594 12.664062 15.453125 12.574219 15.464844 12.484375 C 15.464844 12.484375 15.464844 12.484375 15.464844 12.480469 L 15.589844 12.460938 C 15.859375 12.414062 16.042969 12.152344 15.992188 11.878906 L 15.785156 10.730469 C 15.734375 10.460938 15.476562 10.28125 15.207031 10.328125 L 15.082031 10.351562 C 15.039062 10.273438 14.996094 10.199219 14.953125 10.125 L 15.046875 10.007812 C 15.21875 9.796875 15.191406 9.484375 14.980469 9.308594 L 14.09375 8.5625 C 13.882812 8.382812 13.566406 8.414062 13.390625 8.628906 L 13.296875 8.757812 L 13.074219 8.675781 L 13.074219 8.5 C 13.070312 8.222656 12.847656 8 12.574219 8 L 11.636719 8 C 11.691406 7.699219 11.5625 7.386719 11.285156 7.226562 L 11.121094 7.128906 C 11.148438 6.996094 11.179688 6.863281 11.195312 6.730469 C 11.199219 6.730469 11.199219 6.726562 11.195312 6.722656 L 11.378906 6.691406 C 11.789062 6.621094 12.0625 6.230469 11.988281 5.820312 L 11.675781 4.09375 C 11.605469 3.6875 11.214844 3.417969 10.808594 3.492188 L 10.621094 3.523438 C 10.558594 3.410156 10.496094 3.296875 10.425781 3.183594 L 10.566406 3.011719 C 10.828125 2.695312 10.785156 2.226562 10.472656 1.960938 L 9.140625 0.84375 C 8.820312 0.578125 8.347656 0.621094 8.082031 0.941406 L 7.933594 1.125 L 7.609375 1.011719 L 7.609375 0.75 C 7.605469 0.335938 7.273438 0 6.859375 0 Z M 5.898438 4 C 7.003906 3.945312 7.941406 4.792969 8 5.898438 C 8.054688 7.003906 7.207031 7.941406 6.101562 8 C 4.996094 8.054688 4.058594 7.207031 4 6.101562 C 3.945312 4.996094 4.792969 4.058594 5.898438 4 Z M 11.949219 11 C 12.5 10.972656 12.96875 11.398438 13 11.949219 C 13.027344 12.5 12.601562 12.96875 12.050781 13 C 11.5 13.027344 11.03125 12.601562 11 12.050781 C 10.972656 11.5 11.398438 11.03125 11.949219 11 Z M 11.949219 11 "/>
</g>
</defs>
<g mask="url(#mask-0)">
<use xlink:href="#source-9271"/>
</g>
<path fill-rule="nonzero" fill="rgb(78.431373%, 76.862745%, 71.764706%)" fill-opacity="1" d="M 11.503906 9 L 11.503906 9.476562 C 11.25 9.527344 11.003906 9.617188 10.773438 9.742188 L 10.46875 9.375 L 9.71875 10.027344 L 10.011719 10.375 C 9.839844 10.585938 9.703125 10.816406 9.609375 11.066406 L 9.164062 10.988281 L 9 11.972656 L 9.429688 12.050781 C 9.429688 12.078125 9.429688 12.105469 9.429688 12.128906 C 9.445312 12.375 9.492188 12.617188 9.570312 12.84375 L 9.1875 13.074219 L 9.183594 13.074219 L 9.683594 13.9375 L 10.078125 13.707031 C 10.25 13.902344 10.457031 14.074219 10.683594 14.207031 L 10.519531 14.65625 L 11.453125 14.996094 L 11.609375 14.542969 C 11.78125 14.566406 11.957031 14.578125 12.128906 14.566406 C 12.214844 14.5625 12.300781 14.554688 12.382812 14.542969 L 12.546875 15 L 13.472656 14.652344 L 13.3125 14.207031 C 13.539062 14.074219 13.746094 13.90625 13.921875 13.707031 L 14.316406 13.941406 L 14.800781 13.066406 L 14.425781 12.847656 C 14.515625 12.589844 14.5625 12.324219 14.566406 12.050781 L 15 11.972656 L 14.824219 10.988281 L 14.390625 11.0625 C 14.292969 10.8125 14.160156 10.582031 13.988281 10.375 L 14.28125 10.019531 L 13.519531 9.382812 L 13.222656 9.742188 C 12.992188 9.617188 12.746094 9.527344 12.488281 9.476562 L 12.488281 9 Z M 11.898438 10 C 13.003906 9.945312 13.941406 10.792969 14 11.898438 C 14.054688 13.003906 13.207031 13.941406 12.101562 14 C 10.996094 14.054688 10.058594 13.207031 10 12.101562 C 9.945312 10.996094 10.792969 10.058594 11.898438 10 Z M 11.898438 10 "/>
<path fill-rule="nonzero" fill="rgb(78.431373%, 76.862745%, 71.764706%)" fill-opacity="1" d="M 5.171875 1 L 5.171875 1.796875 C 4.746094 1.882812 4.335938 2.03125 3.957031 2.238281 L 3.453125 1.625 L 2.199219 2.710938 L 2.679688 3.296875 C 2.398438 3.640625 2.175781 4.027344 2.011719 4.445312 L 1.273438 4.3125 L 1 5.960938 L 1.71875 6.085938 C 1.71875 6.128906 1.71875 6.175781 1.71875 6.21875 C 1.742188 6.621094 1.820312 7.023438 1.953125 7.40625 L 1.308594 7.789062 L 1.304688 7.789062 L 2.140625 9.226562 L 2.796875 8.84375 C 3.085938 9.171875 3.425781 9.453125 3.804688 9.679688 L 3.53125 10.425781 L 5.085938 10.988281 L 5.351562 10.234375 C 5.640625 10.28125 5.929688 10.292969 6.21875 10.28125 C 6.359375 10.269531 6.496094 10.257812 6.636719 10.234375 L 6.910156 11 L 8.453125 10.417969 L 8.1875 9.679688 C 8.566406 9.457031 8.90625 9.175781 9.199219 8.84375 L 9.859375 9.234375 L 10.671875 7.78125 L 10.042969 7.414062 C 10.191406 6.984375 10.269531 6.539062 10.28125 6.085938 L 11 5.957031 L 10.703125 4.3125 L 9.984375 4.441406 C 9.824219 4.023438 9.597656 3.636719 9.3125 3.289062 L 9.796875 2.703125 L 8.53125 1.636719 L 8.039062 2.234375 C 7.65625 2.027344 7.246094 1.882812 6.820312 1.796875 L 6.820312 1 Z M 5.847656 3.003906 C 7.5 2.917969 8.910156 4.191406 8.996094 5.84375 L 8.996094 5.847656 C 9.082031 7.503906 7.808594 8.910156 6.152344 8.996094 C 4.496094 9.082031 3.089844 7.808594 3.003906 6.152344 C 2.917969 4.496094 4.191406 3.089844 5.847656 3.003906 Z M 5.847656 3.003906 "/>
</svg>
