<?xml version="1.0" encoding="UTF-8" standalone="no"?>
<svg
   width="12.5002"
   height="14"
   version="1.1"
   id="svg2"
   sodipodi:docname="Zorin_Icon_Themes_–_document-export-symbolic2.svg"
   inkscape:version="1.4.3 (0d15f75042, 2025-12-25)"
   xmlns:inkscape="http://www.inkscape.org/namespaces/inkscape"
   xmlns:sodipodi="http://sodipodi.sourceforge.net/DTD/sodipodi-0.dtd"
   xmlns="http://www.w3.org/2000/svg"
   xmlns:svg="http://www.w3.org/2000/svg">
  <defs
     id="defs2" />
  <sodipodi:namedview
     id="namedview2"
     pagecolor="#ffffff"
     bordercolor="#000000"
     borderopacity="0.25"
     inkscape:showpageshadow="2"
     inkscape:pageopacity="0.0"
     inkscape:pagecheckerboard="0"
     inkscape:deskcolor="#d1d1d1"
     inkscape:zoom="28.6875"
     inkscape:cx="5.9956427"
     inkscape:cy="6.9891068"
     inkscape:window-width="1366"
     inkscape:window-height="668"
     inkscape:window-x="0"
     inkscape:window-y="27"
     inkscape:window-maximized="1"
     inkscape:current-layer="svg2" />
  <g
     fill="#333333"
     id="g2"
     transform="translate(-2.0002,-1.01)">
    <path
       style="marker:none"
       d="m 449.0002,0 c 0,0 -1,0 -1,-1 l 2e-4,-3.00336 -2e-4,-8.99664 c 0,-1 1,-1 1,-1 h 10 c 0,0 1,0 1,1 v 4.25 l -2,-1.25 -2e-4,-1.99664 h -8 L 450.0002,-2 h 8 v -2 l 2,-1.25 V -1 c 0,0 0,1 -1,1 z"
       color="#bebebe"
       overflow="visible"
       transform="translate(-446,15.01)"
       id="path1" />
    <path
       d="m 456.0004,-4.003359 v -2 h -4 v -2 h 4 v -2 l 4.5,3 z"
       transform="translate(-446,15.01)"
       id="path2" />
  </g>
</svg>
